<svg width="37" height="22" viewBox="0 0 37 22" fill="none" xmlns="http://www.w3.org/2000/svg">
<rect width="36.6667" height="22" rx="4" fill="#0072CE"/>
<path fill-rule="evenodd" clip-rule="evenodd" d="M30.9493 12.7107H29.6539C29.5245 12.7107 29.4386 12.7156 29.3662 12.7643C29.2912 12.8123 29.2624 12.8836 29.2624 12.9777C29.2624 13.0895 29.3257 13.1656 29.4178 13.1986C29.4928 13.2246 29.5733 13.2322 29.6917 13.2322L30.077 13.2425C30.4657 13.252 30.7252 13.3186 30.8834 13.4811C30.9122 13.5038 30.9295 13.5292 30.9493 13.5546V12.7107ZM30.9493 14.6658C30.7767 14.9176 30.4402 15.0452 29.9848 15.0452H28.6121V14.4093H29.9792C30.1148 14.4093 30.2097 14.3915 30.2668 14.3358C30.3164 14.29 30.3509 14.2234 30.3509 14.1424C30.3509 14.056 30.3164 13.9875 30.2641 13.9463C30.2125 13.9011 30.1374 13.8805 30.0136 13.8805C29.3462 13.8579 28.5136 13.9011 28.5136 12.9627C28.5136 12.5325 28.7875 12.0798 29.5334 12.0798H30.9492V11.4897H29.6338C29.2368 11.4897 28.9484 11.5845 28.7442 11.7319V11.4897H26.7985C26.4873 11.4897 26.1221 11.5667 25.9493 11.7319V11.4897H22.4748V11.7319C22.1983 11.533 21.7317 11.4897 21.5163 11.4897H19.2245V11.7319C19.0057 11.5207 18.5192 11.4897 18.2227 11.4897H15.6577L15.0707 12.123L14.521 11.4897H10.6895V15.6276H14.4489L15.0537 14.9843L15.6234 15.6276L17.9408 15.6296V14.6563H18.1686C18.476 14.661 18.8387 14.6487 19.1586 14.5108V15.6275H21.07V14.549H21.1622C21.2799 14.549 21.2914 14.5539 21.2914 14.6711V15.6274H27.0979C27.4665 15.6274 27.8518 15.5333 28.0652 15.3626V15.6274H29.907C30.2903 15.6274 30.6645 15.5738 30.9493 15.4367V14.6658V14.6658ZM28.114 13.4811C28.2524 13.6239 28.3266 13.8042 28.3266 14.1094C28.3266 14.7474 27.9268 15.0452 27.21 15.0452H25.8256V14.4093H27.2044C27.3392 14.4093 27.4348 14.3915 27.4948 14.3359C27.5436 14.29 27.5787 14.2234 27.5787 14.1424C27.5787 14.056 27.5408 13.9875 27.492 13.9463C27.4376 13.9011 27.3626 13.8805 27.2389 13.8805C26.5741 13.8579 25.7417 13.9011 25.7417 12.9627C25.7417 12.5325 26.0128 12.0798 26.7579 12.0798H28.1829V12.7109H26.879C26.7498 12.7109 26.6657 12.7158 26.5942 12.7645C26.5164 12.8125 26.4875 12.8838 26.4875 12.9779C26.4875 13.0897 26.5536 13.1658 26.643 13.1987C26.718 13.2248 26.7986 13.2324 26.9196 13.2324L27.3023 13.2426C27.6881 13.252 27.953 13.3186 28.114 13.4811V13.4811ZM21.7002 13.298C21.6051 13.3542 21.4875 13.3591 21.3492 13.3591H20.4857V12.693H21.361C21.4875 12.693 21.6142 12.6957 21.7002 12.7466C21.7923 12.7946 21.8474 12.8865 21.8474 13.0134C21.8474 13.1402 21.7923 13.2425 21.7002 13.298V13.298ZM22.1295 13.667C22.2877 13.7253 22.417 13.8296 22.4776 13.916C22.578 14.0608 22.5925 14.1959 22.5954 14.4573V15.0452H21.8818V14.6741C21.8818 14.4957 21.899 14.2316 21.7669 14.0937C21.663 13.9875 21.5047 13.9621 21.2454 13.9621H20.4858V15.0452H19.7716V12.0797H21.4126C21.7725 12.0797 22.0346 12.0955 22.2678 12.2196C22.4922 12.3547 22.6333 12.5399 22.6333 12.8781C22.6332 13.3515 22.3166 13.593 22.1295 13.667V13.667ZM23.0274 12.0797H25.3997V12.6929H23.7352V13.2321H25.3591V13.8371H23.7352V14.4271L25.3997 14.4298V15.0452H23.0274V12.0797V12.0797ZM18.2317 13.4482H17.3132V12.693H18.24C18.4966 12.693 18.6747 12.7973 18.6747 13.0566C18.6747 13.3131 18.5048 13.4482 18.2317 13.4482V13.4482ZM16.6052 14.7755L15.5139 13.5675L16.6052 12.3979V14.7755V14.7755ZM13.7869 14.4272H12.0393V13.8371H13.5998V13.2321H12.0393V12.6929H13.8214L14.5988 13.5571L13.7869 14.4272V14.4272ZM19.4378 13.0566C19.4378 13.8804 18.8214 14.0505 18.2001 14.0505H17.3132V15.0452H15.9316L15.0564 14.0635L14.1468 15.0452H11.3313V12.0797H14.1901L15.0646 13.0517L15.9687 12.0797H18.24C18.8041 12.0797 19.4378 12.2354 19.4378 13.0566V13.0566Z" fill="white"/>
<path fill-rule="evenodd" clip-rule="evenodd" d="M7.94005 8.66219L7.45355 7.48028L6.96983 8.66219H7.94005ZM18.6576 8.19155C18.5599 8.25066 18.4444 8.25263 18.306 8.25263H17.4425V7.59411H18.3177C18.4416 7.59411 18.5708 7.59966 18.6548 7.64759C18.747 7.69078 18.804 7.78271 18.804 7.90969C18.804 8.03927 18.7498 8.14353 18.6576 8.19155V8.19155ZM24.8176 8.66219L24.3257 7.48028L23.8365 8.66219H24.8176V8.66219ZM13.335 9.94149H12.6063L12.6036 7.61951L11.5729 9.94149H10.9488L9.91546 7.61745V9.94149H8.46978L8.19666 9.2802H6.71671L6.44081 9.94149H5.66882L6.94166 6.97673H7.99772L9.20661 9.78375V6.97673H10.3667L11.2969 8.98797L12.1514 6.97673H13.3349V9.94149H13.335ZM16.2392 9.94149H13.8647V6.97673H16.2392V7.59411H14.5755V8.12851H16.1992V8.73624H14.5755V9.32831H16.2392V9.94149V9.94149ZM19.5871 7.7752C19.5871 8.24789 19.2706 8.49211 19.0862 8.56544C19.2417 8.62446 19.3746 8.72873 19.4378 8.81511C19.5382 8.96257 19.5555 9.09429 19.5555 9.35908V9.94149H18.8386L18.8359 9.56761C18.8359 9.38921 18.853 9.13265 18.7237 8.99002C18.6198 8.88575 18.4615 8.86313 18.2056 8.86313H17.4426V9.94149H16.7318V6.97673H18.3667C18.73 6.97673 18.9976 6.9863 19.2274 7.11873C19.4523 7.25117 19.5871 7.44451 19.5871 7.7752V7.7752ZM20.7246 9.94149H19.9993V6.97673H20.7246V9.94149V9.94149ZM29.1386 9.94149H28.1313L26.784 7.71627V9.94149H25.3364L25.0598 9.2802H23.5833L23.3149 9.94149H22.4832C22.1377 9.94149 21.7003 9.86531 21.4525 9.61358C21.2027 9.36185 21.0728 9.02087 21.0728 8.48174C21.0728 8.04204 21.1504 7.64008 21.4559 7.32244C21.6857 7.08583 22.0456 6.97673 22.5354 6.97673H23.2235V7.612H22.5498C22.2904 7.612 22.144 7.65045 22.0029 7.78763C21.8817 7.91246 21.7986 8.14845 21.7986 8.4592C21.7986 8.77684 21.8619 9.00585 21.994 9.15546C22.1034 9.27278 22.3023 9.30837 22.4894 9.30837H22.8086L23.8104 6.97682H24.8754L26.0788 9.78107V6.97682H27.1611L28.4105 9.04162V6.97682H29.1386V9.94149V9.94149ZM6.87502 10.5238L7.14886 9.86531H7.76192L8.03503 10.5238H10.4246V10.0204L10.6379 10.526H11.8783L12.0916 10.0129V10.5238H18.0301L18.0273 9.44287H18.1422C18.2226 9.44564 18.2461 9.45306 18.2461 9.5855V10.5238H21.3175V10.2722C21.5653 10.4045 21.9506 10.5238 22.4576 10.5238H23.7498L24.0263 9.86531H24.6393L24.9098 10.5238H27.3998V9.8983L27.7768 10.5238H29.7722V6.38885H27.7975V6.8772L27.5209 6.38885H25.4947V6.8772L25.2407 6.38885H22.5037C22.0456 6.38885 21.6428 6.45261 21.3175 6.6303V6.38885H19.4288V6.6303C19.2217 6.44716 18.9397 6.38885 18.626 6.38885H11.7256L11.2626 7.45685L10.7871 6.38885H8.61365V6.8772L8.37488 6.38885H6.52127L4.7666 10.5233L5.66048 10.5238H6.87502Z" fill="white"/>
</svg>
