<svg width="343" height="67" viewBox="0 0 343 67" fill="none" xmlns="http://www.w3.org/2000/svg">
<path d="M7.938 19L6.902 16.634H2.338L1.302 19H0.028L4.522 9.06H4.816L9.31 19H7.938ZM2.8 15.57H6.44L4.62 11.412L2.8 15.57ZM11.4239 14.632V19H10.2479V11.93H11.4239V13.316C11.6012 12.784 11.8812 12.4013 12.2639 12.168C12.6559 11.9253 13.0712 11.804 13.5099 11.804C13.9019 11.804 14.2519 11.874 14.5599 12.014C14.8679 12.154 15.1292 12.35 15.3439 12.602C15.5586 12.8447 15.7219 13.134 15.8339 13.47C15.9459 13.806 16.0019 14.1653 16.0019 14.548V19H14.8259V14.66C14.8259 14.1 14.6719 13.652 14.3639 13.316C14.0652 12.98 13.6779 12.812 13.2019 12.812C12.6792 12.812 12.2499 12.9893 11.9139 13.344C11.5872 13.6893 11.4239 14.1187 11.4239 14.632ZM19.0248 14.632V19H17.8488V11.93H19.0248V13.316C19.2021 12.784 19.4821 12.4013 19.8648 12.168C20.2568 11.9253 20.6721 11.804 21.1108 11.804C21.5028 11.804 21.8528 11.874 22.1608 12.014C22.4688 12.154 22.7301 12.35 22.9448 12.602C23.1595 12.8447 23.3228 13.134 23.4348 13.47C23.5468 13.806 23.6028 14.1653 23.6028 14.548V19H22.4268V14.66C22.4268 14.1 22.2728 13.652 21.9648 13.316C21.6661 12.98 21.2788 12.812 20.8028 12.812C20.2801 12.812 19.8508 12.9893 19.5148 13.344C19.1881 13.6893 19.0248 14.1187 19.0248 14.632ZM30.0277 19V17.614C29.8504 18.146 29.5657 18.5333 29.1737 18.776C28.791 19.0093 28.3804 19.126 27.9417 19.126C27.5497 19.126 27.1997 19.056 26.8917 18.916C26.5837 18.776 26.3224 18.5847 26.1077 18.342C25.893 18.09 25.7297 17.796 25.6177 17.46C25.5057 17.124 25.4497 16.7647 25.4497 16.382V11.93H26.6257V16.27C26.6257 16.83 26.775 17.278 27.0737 17.614C27.3817 17.95 27.7737 18.118 28.2497 18.118C28.7724 18.118 29.197 17.9453 29.5237 17.6C29.8597 17.2453 30.0277 16.8113 30.0277 16.298V11.93H31.2037V19H30.0277ZM37.3766 19V17.768C37.1899 18.1787 36.8913 18.51 36.4806 18.762C36.0793 19.0047 35.6033 19.126 35.0526 19.126C34.3806 19.126 33.8253 18.9393 33.3866 18.566C32.9573 18.1833 32.7426 17.698 32.7426 17.11C32.7426 16.55 32.9526 16.0973 33.3726 15.752C33.7926 15.3973 34.3666 15.192 35.0946 15.136L37.3766 14.968V14.604C37.3766 14.0907 37.2179 13.666 36.9006 13.33C36.5926 12.9847 36.2053 12.812 35.7386 12.812C35.2439 12.812 34.8519 12.938 34.5626 13.19C34.2826 13.4327 34.0959 13.7733 34.0026 14.212H32.8406C32.9153 13.5027 33.2233 12.924 33.7646 12.476C34.3059 12.0187 34.9686 11.79 35.7526 11.79C36.6206 11.79 37.3019 12.056 37.7966 12.588C38.2913 13.1107 38.5386 13.778 38.5386 14.59V19H37.3766ZM33.9046 17.11C33.9046 17.4087 34.0306 17.6607 34.2826 17.866C34.5346 18.062 34.8659 18.16 35.2766 18.16C35.8459 18.16 36.3359 17.9827 36.7466 17.628C37.1666 17.2733 37.3766 16.858 37.3766 16.382V15.878L35.3186 16.032C34.8799 16.0693 34.5346 16.1813 34.2826 16.368C34.0306 16.5453 33.9046 16.7927 33.9046 17.11ZM41.5678 8.346V19H40.3918V8.808L41.5678 8.346ZM51.1768 19.154C50.5234 19.154 49.9028 19.0327 49.3148 18.79C48.7268 18.538 48.2134 18.1927 47.7748 17.754C47.3361 17.306 46.9861 16.774 46.7248 16.158C46.4728 15.5327 46.3468 14.8467 46.3468 14.1C46.3468 13.3533 46.4728 12.672 46.7248 12.056C46.9861 11.4307 47.3361 10.8987 47.7748 10.46C48.2134 10.012 48.7268 9.66667 49.3148 9.424C49.9028 9.172 50.5234 9.046 51.1768 9.046C51.8301 9.046 52.4508 9.172 53.0388 9.424C53.6268 9.66667 54.1401 10.012 54.5788 10.46C55.0174 10.8987 55.3628 11.4307 55.6148 12.056C55.8761 12.672 56.0068 13.3533 56.0068 14.1C56.0068 14.8467 55.8761 15.5327 55.6148 16.158C55.3628 16.774 55.0174 17.306 54.5788 17.754C54.1401 18.1927 53.6268 18.538 53.0388 18.79C52.4508 19.0327 51.8301 19.154 51.1768 19.154ZM51.1768 18.02C51.6621 18.02 52.1241 17.9267 52.5628 17.74C53.0014 17.544 53.3841 17.2733 53.7108 16.928C54.0374 16.5827 54.2941 16.172 54.4808 15.696C54.6768 15.2107 54.7748 14.6787 54.7748 14.1C54.7748 13.5213 54.6768 12.994 54.4808 12.518C54.2941 12.0327 54.0374 11.6173 53.7108 11.272C53.3841 10.9267 53.0014 10.6607 52.5628 10.474C52.1241 10.278 51.6621 10.18 51.1768 10.18C50.7008 10.18 50.2434 10.278 49.8048 10.474C49.3661 10.6607 48.9834 10.9267 48.6568 11.272C48.3301 11.6173 48.0688 12.0327 47.8728 12.518C47.6768 12.994 47.5788 13.5213 47.5788 14.1C47.5788 14.6787 47.6768 15.2107 47.8728 15.696C48.0688 16.172 48.3301 16.5827 48.6568 16.928C48.9834 17.2733 49.3661 17.544 49.8048 17.74C50.2434 17.9267 50.7008 18.02 51.1768 18.02ZM57.6574 19V11.93H58.8334V13.358C59.0574 12.7513 59.398 12.3173 59.8554 12.056C60.3127 11.7853 60.8447 11.6827 61.4514 11.748V12.868C61.0967 12.8027 60.7607 12.812 60.4434 12.896C60.126 12.98 59.846 13.12 59.6034 13.316C59.37 13.5027 59.1834 13.7407 59.0434 14.03C58.9034 14.3193 58.8334 14.632 58.8334 14.968V19H57.6574ZM65.2455 19.112C64.7975 19.112 64.3775 19.0187 63.9855 18.832C63.5935 18.6453 63.2528 18.3933 62.9635 18.076C62.6741 17.7493 62.4455 17.362 62.2775 16.914C62.1095 16.4567 62.0255 15.9667 62.0255 15.444C62.0255 14.9213 62.1095 14.4407 62.2775 14.002C62.4455 13.554 62.6741 13.1713 62.9635 12.854C63.2528 12.5273 63.5935 12.2707 63.9855 12.084C64.3868 11.8973 64.8115 11.804 65.2595 11.804C65.7448 11.804 66.1975 11.9253 66.6175 12.168C67.0375 12.4013 67.3875 12.7233 67.6675 13.134V8.808L68.8435 8.346V19H67.6675V17.768C67.3875 18.188 67.0328 18.5193 66.6035 18.762C66.1835 18.9953 65.7308 19.112 65.2455 19.112ZM65.4555 18.048C66.0715 18.048 66.5988 17.8053 67.0375 17.32C67.4761 16.8253 67.6955 16.2 67.6955 15.444C67.6955 14.6973 67.4761 14.0813 67.0375 13.596C66.5988 13.1107 66.0715 12.868 65.4555 12.868C64.8301 12.868 64.2981 13.1107 63.8595 13.596C63.4208 14.0813 63.2015 14.6973 63.2015 15.444C63.2015 16.2 63.4208 16.8253 63.8595 17.32C64.2981 17.8053 64.8301 18.048 65.4555 18.048ZM73.8493 19.126C73.3733 19.126 72.9253 19.0327 72.5053 18.846C72.0853 18.6593 71.7213 18.4073 71.4133 18.09C71.1053 17.7633 70.8627 17.376 70.6853 16.928C70.508 16.4707 70.4193 15.976 70.4193 15.444C70.4193 14.9213 70.5033 14.436 70.6713 13.988C70.8487 13.54 71.0867 13.1573 71.3853 12.84C71.6933 12.5133 72.0527 12.2567 72.4633 12.07C72.874 11.8833 73.3127 11.79 73.7793 11.79C74.2273 11.79 74.652 11.8833 75.0533 12.07C75.4547 12.2473 75.8047 12.504 76.1033 12.84C76.402 13.176 76.64 13.596 76.8173 14.1C76.9947 14.5947 77.0833 15.1547 77.0833 15.78V15.864H71.6233C71.7073 16.5173 71.9593 17.0493 72.3793 17.46C72.7993 17.8707 73.2893 18.076 73.8493 18.076C74.204 18.076 74.5307 17.992 74.8293 17.824C75.1373 17.6467 75.3847 17.4133 75.5713 17.124H76.8873C76.6353 17.7307 76.234 18.216 75.6833 18.58C75.142 18.944 74.5307 19.126 73.8493 19.126ZM73.7653 12.854C73.2427 12.854 72.7807 13.0453 72.3793 13.428C71.9873 13.8107 71.74 14.3007 71.6373 14.898H75.8513C75.758 14.3007 75.5153 13.8107 75.1233 13.428C74.7313 13.0453 74.2787 12.854 73.7653 12.854ZM78.6691 19V11.93H79.8451V13.358C80.0691 12.7513 80.4097 12.3173 80.8671 12.056C81.3244 11.7853 81.8564 11.6827 82.4631 11.748V12.868C82.1084 12.8027 81.7724 12.812 81.4551 12.896C81.1377 12.98 80.8577 13.12 80.6151 13.316C80.3817 13.5027 80.1951 13.7407 80.0551 14.03C79.9151 14.3193 79.8451 14.632 79.8451 14.968V19H78.6691ZM90.8719 19H89.6259V10.292H86.3779V9.2H94.1199V10.292H90.8719V19ZM97.253 19.126C96.777 19.126 96.329 19.0327 95.909 18.846C95.489 18.6593 95.125 18.4073 94.817 18.09C94.509 17.7633 94.2663 17.376 94.089 16.928C93.9116 16.4707 93.823 15.976 93.823 15.444C93.823 14.9213 93.9116 14.436 94.089 13.988C94.2663 13.54 94.509 13.1573 94.817 12.84C95.125 12.5133 95.489 12.2567 95.909 12.07C96.329 11.8833 96.777 11.79 97.253 11.79C97.729 11.79 98.177 11.8833 98.597 12.07C99.017 12.2567 99.3763 12.5133 99.675 12.84C99.983 13.1573 100.226 13.54 100.403 13.988C100.58 14.436 100.669 14.9213 100.669 15.444C100.669 15.976 100.58 16.4707 100.403 16.928C100.226 17.376 99.983 17.7633 99.675 18.09C99.3763 18.4073 99.017 18.6593 98.597 18.846C98.177 19.0327 97.729 19.126 97.253 19.126ZM97.253 18.076C97.869 18.076 98.3963 17.8287 98.835 17.334C99.2736 16.8393 99.493 16.214 99.493 15.458C99.493 14.7113 99.2736 14.0907 98.835 13.596C98.3963 13.092 97.869 12.84 97.253 12.84C96.6276 12.84 96.0956 13.092 95.657 13.596C95.2183 14.0907 94.999 14.7113 94.999 15.458C94.999 16.214 95.2183 16.8393 95.657 17.334C96.0956 17.8287 96.6276 18.076 97.253 18.076ZM103.125 17.278V12.938H101.333V11.93H103.125V10.264L104.287 9.844V11.93H106.373V12.938H104.287V17.222C104.287 17.4647 104.352 17.6513 104.483 17.782C104.614 17.9033 104.81 17.964 105.071 17.964H106.373V19H104.777C104.245 19 103.834 18.8553 103.545 18.566C103.265 18.2673 103.125 17.838 103.125 17.278ZM112.045 19V17.768C111.858 18.1787 111.559 18.51 111.149 18.762C110.747 19.0047 110.271 19.126 109.721 19.126C109.049 19.126 108.493 18.9393 108.055 18.566C107.625 18.1833 107.411 17.698 107.411 17.11C107.411 16.55 107.621 16.0973 108.041 15.752C108.461 15.3973 109.035 15.192 109.763 15.136L112.045 14.968V14.604C112.045 14.0907 111.886 13.666 111.569 13.33C111.261 12.9847 110.873 12.812 110.407 12.812C109.912 12.812 109.52 12.938 109.231 13.19C108.951 13.4327 108.764 13.7733 108.671 14.212H107.509C107.583 13.5027 107.891 12.924 108.433 12.476C108.974 12.0187 109.637 11.79 110.421 11.79C111.289 11.79 111.97 12.056 112.465 12.588C112.959 13.1107 113.207 13.778 113.207 14.59V19H112.045ZM108.573 17.11C108.573 17.4087 108.699 17.6607 108.951 17.866C109.203 18.062 109.534 18.16 109.945 18.16C110.514 18.16 111.004 17.9827 111.415 17.628C111.835 17.2733 112.045 16.858 112.045 16.382V15.878L109.987 16.032C109.548 16.0693 109.203 16.1813 108.951 16.368C108.699 16.5453 108.573 16.7927 108.573 17.11ZM116.236 8.346V19H115.06V8.808L116.236 8.346Z" fill="white"/>
<path d="M259.532 23.8H261.692V21.52C264.644 21.28 266.852 19.552 266.852 16.84C266.852 13.888 264.164 13.072 261.692 12.424V8.44C262.868 8.872 263.66 9.808 263.78 11.08H266.732C266.54 8.368 264.5 6.304 261.692 5.752V3.784H259.532V5.632C256.748 5.848 254.708 7.576 254.66 10.24C254.66 13.192 257.156 14.104 259.532 14.752V18.76C258.284 18.304 257.42 17.32 257.324 15.976H254.396C254.588 18.784 256.604 20.896 259.532 21.424V23.8ZM257.684 9.976C257.684 9.04 258.428 8.392 259.532 8.224V11.824C258.452 11.44 257.684 10.912 257.684 9.976ZM263.804 17.2C263.804 18.136 262.916 18.784 261.692 18.952V15.352C262.916 15.736 263.804 16.216 263.804 17.2ZM268.683 22H279.963V19.312H275.883V5.2H269.691L268.683 7.888H272.787V19.312H268.683V22ZM288.122 22.24C292.13 22.24 295.202 18.952 295.202 13.6C295.202 8.248 292.13 4.96 288.122 4.96C284.114 4.96 281.042 8.248 281.042 13.6C281.042 18.952 284.114 22.24 288.122 22.24ZM288.122 19.48C285.818 19.48 284.09 17.224 284.09 13.6C284.09 9.976 285.818 7.72 288.122 7.72C290.427 7.72 292.155 9.976 292.155 13.6C292.155 17.224 290.427 19.48 288.122 19.48ZM309.486 16.72C309.486 13.816 307.518 12.016 304.374 11.752L309.462 5.2H297.654V7.888H304.398L299.454 14.152H303.318C305.286 14.152 306.462 15.208 306.462 16.816C306.462 18.304 305.19 19.528 303.582 19.528C301.902 19.528 300.654 18.448 300.414 16.72H297.438C297.726 19.96 300.27 22.216 303.558 22.216C306.942 22.216 309.486 19.84 309.486 16.72ZM312.947 18.184C311.891 18.184 311.003 19.072 311.003 20.152C311.003 21.232 311.891 22.12 312.947 22.12C314.027 22.12 314.915 21.232 314.915 20.152C314.915 19.072 314.027 18.184 312.947 18.184ZM325.01 15.664C327.386 12.952 327.89 11.752 327.89 10.072C327.89 7.144 325.466 4.984 322.322 4.984C318.866 4.984 316.058 7.36 316.082 11.176H318.986C319.13 9.016 320.426 7.672 322.226 7.672C323.666 7.672 324.842 8.68 324.842 10.168C324.842 11.272 324.578 12.088 322.778 14.176L316.034 22H328.346V19.312H321.794L325.01 15.664ZM342.393 16.36C342.393 13.144 339.777 10.864 336.585 10.864C336.201 10.864 335.841 10.888 335.529 10.936L339.777 5.128H336.417L331.977 11.152C330.393 13.312 329.865 14.824 329.865 16.456C329.865 19.72 332.673 22.216 336.177 22.216C339.801 22.216 342.393 19.504 342.393 16.36ZM336.153 19.624C334.233 19.624 332.769 18.232 332.769 16.408C332.769 14.56 334.233 13.168 336.153 13.168C338.073 13.168 339.513 14.56 339.513 16.408C339.513 18.232 338.073 19.624 336.153 19.624Z" fill="white"/>
<path d="M3.324 57V53.736L0.084 48.6H1.308L3.864 52.752L6.42 48.6H7.608L4.38 53.7V57H3.324ZM10.1254 57.108C9.71738 57.108 9.33338 57.028 8.97338 56.868C8.61338 56.708 8.30138 56.492 8.03738 56.22C7.77338 55.94 7.56538 55.608 7.41338 55.224C7.26138 54.832 7.18538 54.408 7.18538 53.952C7.18538 53.504 7.26138 53.088 7.41338 52.704C7.56538 52.32 7.77338 51.992 8.03738 51.72C8.30138 51.44 8.61338 51.22 8.97338 51.06C9.33338 50.9 9.71738 50.82 10.1254 50.82C10.5334 50.82 10.9174 50.9 11.2774 51.06C11.6374 51.22 11.9454 51.44 12.2014 51.72C12.4654 51.992 12.6734 52.32 12.8254 52.704C12.9774 53.088 13.0534 53.504 13.0534 53.952C13.0534 54.408 12.9774 54.832 12.8254 55.224C12.6734 55.608 12.4654 55.94 12.2014 56.22C11.9454 56.492 11.6374 56.708 11.2774 56.868C10.9174 57.028 10.5334 57.108 10.1254 57.108ZM10.1254 56.208C10.6534 56.208 11.1054 55.996 11.4814 55.572C11.8574 55.148 12.0454 54.612 12.0454 53.964C12.0454 53.324 11.8574 52.792 11.4814 52.368C11.1054 51.936 10.6534 51.72 10.1254 51.72C9.58938 51.72 9.13338 51.936 8.75738 52.368C8.38138 52.792 8.19337 53.324 8.19337 53.964C8.19337 54.612 8.38138 55.148 8.75738 55.572C9.13338 55.996 9.58938 56.208 10.1254 56.208ZM18.3569 57V55.812C18.2049 56.268 17.9609 56.6 17.6249 56.808C17.2969 57.008 16.9449 57.108 16.5689 57.108C16.2329 57.108 15.9329 57.048 15.6689 56.928C15.4049 56.808 15.1809 56.644 14.9969 56.436C14.8129 56.22 14.6729 55.968 14.5769 55.68C14.4809 55.392 14.4329 55.084 14.4329 54.756V50.94H15.4409V54.66C15.4409 55.14 15.5689 55.524 15.8249 55.812C16.0889 56.1 16.4249 56.244 16.8329 56.244C17.2809 56.244 17.6449 56.096 17.9249 55.8C18.2129 55.496 18.3569 55.124 18.3569 54.684V50.94H19.3649V57H18.3569ZM20.972 57V50.94H21.98V52.164C22.172 51.644 22.464 51.272 22.856 51.048C23.248 50.816 23.704 50.728 24.224 50.784V51.744C23.92 51.688 23.632 51.696 23.36 51.768C23.088 51.84 22.848 51.96 22.64 52.128C22.44 52.288 22.28 52.492 22.16 52.74C22.04 52.988 21.98 53.256 21.98 53.544V57H20.972ZM31.8636 57V55.944C31.7036 56.296 31.4476 56.58 31.0956 56.796C30.7516 57.004 30.3436 57.108 29.8716 57.108C29.2956 57.108 28.8196 56.948 28.4436 56.628C28.0756 56.3 27.8916 55.884 27.8916 55.38C27.8916 54.9 28.0716 54.512 28.4316 54.216C28.7916 53.912 29.2836 53.736 29.9076 53.688L31.8636 53.544V53.232C31.8636 52.792 31.7276 52.428 31.4556 52.14C31.1916 51.844 30.8596 51.696 30.4596 51.696C30.0356 51.696 29.6996 51.804 29.4516 52.02C29.2116 52.228 29.0516 52.52 28.9716 52.896H27.9756C28.0396 52.288 28.3036 51.792 28.7676 51.408C29.2316 51.016 29.7996 50.82 30.4716 50.82C31.2156 50.82 31.7996 51.048 32.2236 51.504C32.6476 51.952 32.8596 52.524 32.8596 53.22V57H31.8636ZM28.8876 55.38C28.8876 55.636 28.9956 55.852 29.2116 56.028C29.4276 56.196 29.7116 56.28 30.0636 56.28C30.5516 56.28 30.9716 56.128 31.3236 55.824C31.6836 55.52 31.8636 55.164 31.8636 54.756V54.324L30.0996 54.456C29.7236 54.488 29.4276 54.584 29.2116 54.744C28.9956 54.896 28.8876 55.108 28.8876 55.38ZM35.48 53.256V57H34.472V50.94H35.48V52.128C35.632 51.672 35.872 51.344 36.2 51.144C36.536 50.936 36.892 50.832 37.268 50.832C37.604 50.832 37.904 50.892 38.168 51.012C38.432 51.132 38.656 51.3 38.84 51.516C39.024 51.724 39.164 51.972 39.26 52.26C39.356 52.548 39.404 52.856 39.404 53.184V57H38.396V53.28C38.396 52.8 38.264 52.416 38 52.128C37.744 51.84 37.412 51.696 37.004 51.696C36.556 51.696 36.188 51.848 35.9 52.152C35.62 52.448 35.48 52.816 35.48 53.256ZM42.019 53.256V57H41.011V50.94H42.019V52.128C42.171 51.672 42.411 51.344 42.739 51.144C43.075 50.936 43.431 50.832 43.807 50.832C44.143 50.832 44.443 50.892 44.707 51.012C44.971 51.132 45.195 51.3 45.379 51.516C45.563 51.724 45.703 51.972 45.799 52.26C45.895 52.548 45.943 52.856 45.943 53.184V57H44.935V53.28C44.935 52.8 44.803 52.416 44.539 52.128C44.283 51.84 43.951 51.696 43.543 51.696C43.095 51.696 42.727 51.848 42.439 52.152C42.159 52.448 42.019 52.816 42.019 53.256ZM51.4741 57V55.812C51.3221 56.268 51.0781 56.6 50.7421 56.808C50.4141 57.008 50.0621 57.108 49.6861 57.108C49.3501 57.108 49.0501 57.048 48.7861 56.928C48.5221 56.808 48.2981 56.644 48.1141 56.436C47.9301 56.22 47.7901 55.968 47.6941 55.68C47.5981 55.392 47.5501 55.084 47.5501 54.756V50.94H48.5581V54.66C48.5581 55.14 48.6861 55.524 48.9421 55.812C49.2061 56.1 49.5421 56.244 49.9501 56.244C50.3981 56.244 50.7621 56.096 51.0421 55.8C51.3301 55.496 51.4741 55.124 51.4741 54.684V50.94H52.4821V57H51.4741ZM57.7972 57V55.944C57.6372 56.296 57.3812 56.58 57.0292 56.796C56.6852 57.004 56.2772 57.108 55.8052 57.108C55.2292 57.108 54.7532 56.948 54.3772 56.628C54.0092 56.3 53.8252 55.884 53.8252 55.38C53.8252 54.9 54.0052 54.512 54.3652 54.216C54.7252 53.912 55.2172 53.736 55.8412 53.688L57.7972 53.544V53.232C57.7972 52.792 57.6612 52.428 57.3892 52.14C57.1252 51.844 56.7932 51.696 56.3932 51.696C55.9692 51.696 55.6332 51.804 55.3852 52.02C55.1452 52.228 54.9852 52.52 54.9052 52.896H53.9092C53.9732 52.288 54.2372 51.792 54.7012 51.408C55.1652 51.016 55.7332 50.82 56.4052 50.82C57.1492 50.82 57.7332 51.048 58.1572 51.504C58.5812 51.952 58.7932 52.524 58.7932 53.22V57H57.7972ZM54.8212 55.38C54.8212 55.636 54.9292 55.852 55.1452 56.028C55.3612 56.196 55.6452 56.28 55.9972 56.28C56.4852 56.28 56.9052 56.128 57.2572 55.824C57.6172 55.52 57.7972 55.164 57.7972 54.756V54.324L56.0332 54.456C55.6572 54.488 55.3612 54.584 55.1452 54.744C54.9292 54.896 54.8212 55.108 54.8212 55.38ZM61.4136 47.868V57H60.4056V48.264L61.4136 47.868ZM66.7339 57H65.7259V48.264L66.7339 47.868V51.936C66.9739 51.592 67.2739 51.324 67.6339 51.132C68.0019 50.932 68.3939 50.832 68.8099 50.832C69.1939 50.832 69.5539 50.912 69.8899 51.072C70.2259 51.232 70.5179 51.452 70.7659 51.732C71.0139 52.004 71.2099 52.332 71.3539 52.716C71.4979 53.092 71.5699 53.504 71.5699 53.952C71.5699 54.4 71.4979 54.82 71.3539 55.212C71.2099 55.596 71.0139 55.928 70.7659 56.208C70.5179 56.48 70.2219 56.696 69.8779 56.856C69.5419 57.016 69.1819 57.096 68.7979 57.096C68.3819 57.096 67.9899 56.984 67.6219 56.76C67.2619 56.536 66.9659 56.232 66.7339 55.848V57ZM68.6299 51.744C68.1019 51.744 67.6499 51.952 67.2739 52.368C66.8979 52.784 66.7099 53.312 66.7099 53.952C66.7099 54.6 66.8979 55.136 67.2739 55.56C67.6499 55.976 68.1019 56.184 68.6299 56.184C69.1659 56.184 69.6219 55.976 69.9979 55.56C70.3739 55.136 70.5619 54.6 70.5619 53.952C70.5619 53.312 70.3739 52.784 69.9979 52.368C69.6219 51.952 69.1659 51.744 68.6299 51.744ZM73.4486 49.92C73.2486 49.92 73.0766 49.848 72.9326 49.704C72.7886 49.552 72.7166 49.376 72.7166 49.176C72.7166 48.976 72.7886 48.8 72.9326 48.648C73.0766 48.496 73.2486 48.42 73.4486 48.42C73.6486 48.42 73.8206 48.496 73.9646 48.648C74.1086 48.8 74.1806 48.976 74.1806 49.176C74.1806 49.376 74.1086 49.552 73.9646 49.704C73.8206 49.848 73.6486 49.92 73.4486 49.92ZM72.9446 57V50.94H73.9526V57H72.9446ZM76.5659 47.868V57H75.5579V48.264L76.5659 47.868ZM79.1792 47.868V57H78.1712V48.264L79.1792 47.868ZM81.2885 49.92C81.0885 49.92 80.9165 49.848 80.7725 49.704C80.6285 49.552 80.5565 49.376 80.5565 49.176C80.5565 48.976 80.6285 48.8 80.7725 48.648C80.9165 48.496 81.0885 48.42 81.2885 48.42C81.4885 48.42 81.6605 48.496 81.8045 48.648C81.9485 48.8 82.0205 48.976 82.0205 49.176C82.0205 49.376 81.9485 49.552 81.8045 49.704C81.6605 49.848 81.4885 49.92 81.2885 49.92ZM80.7845 57V50.94H81.7925V57H80.7845ZM84.4058 53.256V57H83.3978V50.94H84.4058V52.128C84.5578 51.672 84.7978 51.344 85.1258 51.144C85.4618 50.936 85.8178 50.832 86.1938 50.832C86.5298 50.832 86.8298 50.892 87.0938 51.012C87.3578 51.132 87.5818 51.3 87.7658 51.516C87.9498 51.724 88.0898 51.972 88.1858 52.26C88.2818 52.548 88.3298 52.856 88.3298 53.184V57H87.3218V53.28C87.3218 52.8 87.1898 52.416 86.9258 52.128C86.6698 51.84 86.3378 51.696 85.9298 51.696C85.4818 51.696 85.1138 51.848 84.8258 52.152C84.5458 52.448 84.4058 52.816 84.4058 53.256ZM92.4688 57.06C92.0848 57.06 91.7248 56.984 91.3888 56.832C91.0528 56.672 90.7608 56.456 90.5128 56.184C90.2648 55.904 90.0688 55.572 89.9248 55.188C89.7808 54.804 89.7088 54.388 89.7088 53.94C89.7088 53.492 89.7808 53.08 89.9248 52.704C90.0688 52.32 90.2648 51.992 90.5128 51.72C90.7608 51.44 91.0528 51.224 91.3888 51.072C91.7328 50.912 92.0968 50.832 92.4808 50.832C92.8968 50.832 93.2848 50.936 93.6448 51.144C94.0048 51.344 94.3048 51.62 94.5448 51.972V50.94H95.5528V56.796C95.5528 57.276 95.4808 57.704 95.3368 58.08C95.2008 58.464 95.0048 58.78 94.7488 59.028C94.5008 59.284 94.2048 59.476 93.8608 59.604C93.5168 59.74 93.1408 59.808 92.7328 59.808C92.3968 59.808 92.0728 59.76 91.7608 59.664C91.4568 59.568 91.1808 59.436 90.9328 59.268C90.6848 59.1 90.4728 58.892 90.2968 58.644C90.1208 58.404 89.9968 58.14 89.9248 57.852H91.0048C91.1088 58.172 91.3208 58.428 91.6408 58.62C91.9688 58.812 92.3288 58.908 92.7208 58.908C93.2488 58.908 93.6848 58.732 94.0288 58.38C94.3728 58.036 94.5448 57.512 94.5448 56.808V55.92C94.3048 56.272 94.0008 56.552 93.6328 56.76C93.2728 56.96 92.8848 57.06 92.4688 57.06ZM92.6488 56.148C93.1768 56.148 93.6288 55.944 94.0048 55.536C94.3808 55.12 94.5688 54.588 94.5688 53.94C94.5688 53.3 94.3808 52.776 94.0048 52.368C93.6288 51.952 93.1768 51.744 92.6488 51.744C92.1128 51.744 91.6568 51.952 91.2808 52.368C90.9048 52.776 90.7168 53.3 90.7168 53.94C90.7168 54.588 90.9048 55.12 91.2808 55.536C91.6568 55.944 92.1128 56.148 92.6488 56.148ZM102.395 57.096C102.011 57.096 101.651 57.016 101.315 56.856C100.979 56.696 100.687 56.48 100.439 56.208C100.191 55.928 99.9946 55.596 99.8506 55.212C99.7066 54.82 99.6346 54.4 99.6346 53.952C99.6346 53.504 99.7066 53.092 99.8506 52.716C99.9946 52.332 100.191 52.004 100.439 51.732C100.687 51.452 100.979 51.232 101.315 51.072C101.659 50.912 102.023 50.832 102.407 50.832C102.823 50.832 103.211 50.936 103.571 51.144C103.931 51.344 104.231 51.62 104.471 51.972V48.264L105.479 47.868V57H104.471V55.944C104.231 56.304 103.927 56.588 103.559 56.796C103.199 56.996 102.811 57.096 102.395 57.096ZM102.575 56.184C103.103 56.184 103.555 55.976 103.931 55.56C104.307 55.136 104.495 54.6 104.495 53.952C104.495 53.312 104.307 52.784 103.931 52.368C103.555 51.952 103.103 51.744 102.575 51.744C102.039 51.744 101.583 51.952 101.207 52.368C100.831 52.784 100.643 53.312 100.643 53.952C100.643 54.6 100.831 55.136 101.207 55.56C101.583 55.976 102.039 56.184 102.575 56.184ZM110.789 57V55.944C110.629 56.296 110.373 56.58 110.021 56.796C109.677 57.004 109.269 57.108 108.797 57.108C108.221 57.108 107.745 56.948 107.369 56.628C107.001 56.3 106.817 55.884 106.817 55.38C106.817 54.9 106.997 54.512 107.357 54.216C107.717 53.912 108.209 53.736 108.833 53.688L110.789 53.544V53.232C110.789 52.792 110.653 52.428 110.381 52.14C110.117 51.844 109.785 51.696 109.385 51.696C108.961 51.696 108.625 51.804 108.377 52.02C108.137 52.228 107.977 52.52 107.897 52.896H106.901C106.965 52.288 107.229 51.792 107.693 51.408C108.157 51.016 108.725 50.82 109.397 50.82C110.141 50.82 110.725 51.048 111.149 51.504C111.573 51.952 111.785 52.524 111.785 53.22V57H110.789ZM107.813 55.38C107.813 55.636 107.921 55.852 108.137 56.028C108.353 56.196 108.637 56.28 108.989 56.28C109.477 56.28 109.897 56.128 110.249 55.824C110.609 55.52 110.789 55.164 110.789 54.756V54.324L109.025 54.456C108.649 54.488 108.353 54.584 108.137 54.744C107.921 54.896 107.813 55.108 107.813 55.38ZM114.265 55.524V51.804H112.729V50.94H114.265V49.512L115.261 49.152V50.94H117.049V51.804H115.261V55.476C115.261 55.684 115.317 55.844 115.429 55.956C115.541 56.06 115.709 56.112 115.933 56.112H117.049V57H115.681C115.225 57 114.873 56.876 114.625 56.628C114.385 56.372 114.265 56.004 114.265 55.524ZM120.821 57.108C120.413 57.108 120.029 57.028 119.669 56.868C119.309 56.708 118.997 56.492 118.733 56.22C118.469 55.94 118.261 55.608 118.109 55.224C117.957 54.832 117.881 54.408 117.881 53.952C117.881 53.504 117.953 53.088 118.097 52.704C118.249 52.32 118.453 51.992 118.709 51.72C118.973 51.44 119.281 51.22 119.633 51.06C119.985 50.9 120.361 50.82 120.761 50.82C121.145 50.82 121.509 50.9 121.853 51.06C122.197 51.212 122.497 51.432 122.753 51.72C123.009 52.008 123.213 52.368 123.365 52.8C123.517 53.224 123.593 53.704 123.593 54.24V54.312H118.913C118.985 54.872 119.201 55.328 119.561 55.68C119.921 56.032 120.341 56.208 120.821 56.208C121.125 56.208 121.405 56.136 121.661 55.992C121.925 55.84 122.137 55.64 122.297 55.392H123.425C123.209 55.912 122.865 56.328 122.393 56.64C121.929 56.952 121.405 57.108 120.821 57.108ZM120.749 51.732C120.301 51.732 119.905 51.896 119.561 52.224C119.225 52.552 119.013 52.972 118.925 53.484H122.537C122.457 52.972 122.249 52.552 121.913 52.224C121.577 51.896 121.189 51.732 120.749 51.732ZM132.675 57.048L131.079 52.632L129.495 57.048H129.051L127.107 50.94H128.139L129.387 55.08L130.875 50.904H131.367L132.855 55.056L134.091 50.94H135.039L133.119 57.048H132.675ZM136.578 49.92C136.378 49.92 136.206 49.848 136.062 49.704C135.918 49.552 135.846 49.376 135.846 49.176C135.846 48.976 135.918 48.8 136.062 48.648C136.206 48.496 136.378 48.42 136.578 48.42C136.778 48.42 136.95 48.496 137.094 48.648C137.238 48.8 137.31 48.976 137.31 49.176C137.31 49.376 137.238 49.552 137.094 49.704C136.95 49.848 136.778 49.92 136.578 49.92ZM136.074 57V50.94H137.082V57H136.074ZM139.695 47.868V57H138.687V48.264L139.695 47.868ZM142.308 47.868V57H141.3V48.264L142.308 47.868ZM147.628 57H146.62V48.264L147.628 47.868V51.936C147.868 51.592 148.168 51.324 148.528 51.132C148.896 50.932 149.288 50.832 149.704 50.832C150.088 50.832 150.448 50.912 150.784 51.072C151.12 51.232 151.412 51.452 151.66 51.732C151.908 52.004 152.104 52.332 152.248 52.716C152.392 53.092 152.464 53.504 152.464 53.952C152.464 54.4 152.392 54.82 152.248 55.212C152.104 55.596 151.908 55.928 151.66 56.208C151.412 56.48 151.116 56.696 150.772 56.856C150.436 57.016 150.076 57.096 149.692 57.096C149.276 57.096 148.884 56.984 148.516 56.76C148.156 56.536 147.86 56.232 147.628 55.848V57ZM149.524 51.744C148.996 51.744 148.544 51.952 148.168 52.368C147.792 52.784 147.604 53.312 147.604 53.952C147.604 54.6 147.792 55.136 148.168 55.56C148.544 55.976 148.996 56.184 149.524 56.184C150.06 56.184 150.516 55.976 150.892 55.56C151.268 55.136 151.456 54.6 151.456 53.952C151.456 53.312 151.268 52.784 150.892 52.368C150.516 51.952 150.06 51.744 149.524 51.744ZM156.551 57.108C156.143 57.108 155.759 57.028 155.399 56.868C155.039 56.708 154.727 56.492 154.463 56.22C154.199 55.94 153.991 55.608 153.839 55.224C153.687 54.832 153.611 54.408 153.611 53.952C153.611 53.504 153.683 53.088 153.827 52.704C153.979 52.32 154.183 51.992 154.439 51.72C154.703 51.44 155.011 51.22 155.363 51.06C155.715 50.9 156.091 50.82 156.491 50.82C156.875 50.82 157.239 50.9 157.583 51.06C157.927 51.212 158.227 51.432 158.483 51.72C158.739 52.008 158.943 52.368 159.095 52.8C159.247 53.224 159.323 53.704 159.323 54.24V54.312H154.643C154.715 54.872 154.931 55.328 155.291 55.68C155.651 56.032 156.071 56.208 156.551 56.208C156.855 56.208 157.135 56.136 157.391 55.992C157.655 55.84 157.867 55.64 158.027 55.392H159.155C158.939 55.912 158.595 56.328 158.123 56.64C157.659 56.952 157.135 57.108 156.551 57.108ZM156.479 51.732C156.031 51.732 155.635 51.896 155.291 52.224C154.955 52.552 154.743 52.972 154.655 53.484H158.267C158.187 52.972 157.979 52.552 157.643 52.224C157.307 51.896 156.919 51.732 156.479 51.732ZM167.385 55.284L164.469 50.964V57H163.473V48.48H163.881L167.409 53.628L170.949 48.48H171.333V57H170.301V50.988L167.385 55.284ZM176.719 57V55.944C176.559 56.296 176.303 56.58 175.951 56.796C175.607 57.004 175.199 57.108 174.727 57.108C174.151 57.108 173.675 56.948 173.299 56.628C172.931 56.3 172.747 55.884 172.747 55.38C172.747 54.9 172.927 54.512 173.287 54.216C173.647 53.912 174.139 53.736 174.763 53.688L176.719 53.544V53.232C176.719 52.792 176.583 52.428 176.311 52.14C176.047 51.844 175.715 51.696 175.315 51.696C174.891 51.696 174.555 51.804 174.307 52.02C174.067 52.228 173.907 52.52 173.827 52.896H172.831C172.895 52.288 173.159 51.792 173.623 51.408C174.087 51.016 174.655 50.82 175.327 50.82C176.071 50.82 176.655 51.048 177.079 51.504C177.503 51.952 177.715 52.524 177.715 53.22V57H176.719ZM173.743 55.38C173.743 55.636 173.851 55.852 174.067 56.028C174.283 56.196 174.567 56.28 174.919 56.28C175.407 56.28 175.827 56.128 176.179 55.824C176.539 55.52 176.719 55.164 176.719 54.756V54.324L174.955 54.456C174.579 54.488 174.283 54.584 174.067 54.744C173.851 54.896 173.743 55.108 173.743 55.38ZM179.327 57V50.94H180.335V52.164C180.527 51.644 180.819 51.272 181.211 51.048C181.603 50.816 182.059 50.728 182.579 50.784V51.744C182.275 51.688 181.987 51.696 181.715 51.768C181.443 51.84 181.203 51.96 180.995 52.128C180.795 52.288 180.635 52.492 180.515 52.74C180.395 52.988 180.335 53.256 180.335 53.544V57H179.327ZM185.988 56.172C186.38 56.172 186.732 56.048 187.044 55.8C187.356 55.552 187.584 55.224 187.728 54.816H188.76C188.6 55.488 188.264 56.04 187.752 56.472C187.248 56.896 186.66 57.108 185.988 57.108C185.588 57.108 185.208 57.028 184.848 56.868C184.496 56.708 184.192 56.492 183.936 56.22C183.68 55.94 183.476 55.608 183.324 55.224C183.172 54.832 183.096 54.408 183.096 53.952C183.096 53.504 183.172 53.088 183.324 52.704C183.476 52.32 183.68 51.992 183.936 51.72C184.192 51.44 184.496 51.22 184.848 51.06C185.208 50.9 185.588 50.82 185.988 50.82C186.66 50.82 187.248 51.036 187.752 51.468C188.264 51.892 188.6 52.44 188.76 53.112H187.728C187.584 52.704 187.356 52.376 187.044 52.128C186.732 51.88 186.38 51.756 185.988 51.756C185.46 51.756 185.012 51.964 184.644 52.38C184.284 52.796 184.104 53.32 184.104 53.952C184.104 54.6 184.284 55.132 184.644 55.548C185.012 55.964 185.46 56.172 185.988 56.172ZM191.035 53.256V57H190.027V48.264L191.035 47.868V52.128C191.187 51.672 191.427 51.344 191.755 51.144C192.091 50.936 192.447 50.832 192.823 50.832C193.159 50.832 193.459 50.892 193.723 51.012C193.987 51.132 194.211 51.3 194.395 51.516C194.579 51.724 194.719 51.972 194.815 52.26C194.911 52.548 194.959 52.856 194.959 53.184V57H193.951V53.28C193.951 52.8 193.819 52.416 193.555 52.128C193.299 51.84 192.967 51.696 192.559 51.696C192.111 51.696 191.743 51.848 191.455 52.152C191.175 52.448 191.035 52.816 191.035 53.256ZM198.985 57V56.1H200.977V49.5H198.937L199.237 48.6H202.009V56.1H203.929V57H198.985ZM208.009 57.12C207.529 57.12 207.085 57.02 206.677 56.82C206.269 56.612 205.921 56.32 205.633 55.944C205.345 55.568 205.117 55.112 204.949 54.576C204.789 54.04 204.709 53.448 204.709 52.8C204.709 52.152 204.789 51.56 204.949 51.024C205.117 50.488 205.345 50.032 205.633 49.656C205.921 49.28 206.269 48.992 206.677 48.792C207.085 48.584 207.529 48.48 208.009 48.48C208.489 48.48 208.933 48.584 209.341 48.792C209.749 48.992 210.097 49.28 210.385 49.656C210.681 50.032 210.909 50.488 211.069 51.024C211.237 51.56 211.321 52.152 211.321 52.8C211.321 53.448 211.237 54.04 211.069 54.576C210.909 55.112 210.681 55.568 210.385 55.944C210.097 56.32 209.749 56.612 209.341 56.82C208.933 57.02 208.489 57.12 208.009 57.12ZM208.009 56.208C208.705 56.208 209.257 55.9 209.665 55.284C210.081 54.668 210.289 53.84 210.289 52.8C210.289 51.76 210.081 50.932 209.665 50.316C209.257 49.7 208.705 49.392 208.009 49.392C207.313 49.392 206.761 49.7 206.353 50.316C205.945 50.932 205.741 51.76 205.741 52.8C205.741 53.84 205.945 54.668 206.353 55.284C206.761 55.9 207.313 56.208 208.009 56.208ZM212.059 58.476C212.243 58.156 212.399 57.88 212.527 57.648C212.655 57.424 212.771 57.212 212.875 57.012C212.675 57.004 212.515 56.936 212.395 56.808C212.283 56.672 212.227 56.516 212.227 56.34C212.227 56.124 212.295 55.948 212.431 55.812C212.575 55.668 212.747 55.596 212.947 55.596C213.147 55.596 213.319 55.668 213.463 55.812C213.607 55.956 213.679 56.14 213.679 56.364C213.679 56.532 213.611 56.756 213.475 57.036C213.347 57.324 213.071 57.804 212.647 58.476H212.059ZM217.586 57V56.64L220.574 53.148C220.982 52.676 221.258 52.276 221.402 51.948C221.554 51.62 221.63 51.292 221.63 50.964C221.63 50.508 221.474 50.132 221.162 49.836C220.85 49.54 220.478 49.392 220.046 49.392C219.59 49.392 219.202 49.576 218.882 49.944C218.57 50.312 218.41 50.78 218.402 51.348H217.382C217.382 50.94 217.45 50.56 217.586 50.208C217.73 49.848 217.926 49.544 218.174 49.296C218.422 49.04 218.71 48.84 219.038 48.696C219.374 48.552 219.734 48.48 220.118 48.48C220.478 48.48 220.814 48.54 221.126 48.66C221.438 48.78 221.706 48.948 221.93 49.164C222.154 49.38 222.33 49.636 222.458 49.932C222.594 50.228 222.662 50.552 222.662 50.904C222.662 51.416 222.562 51.868 222.362 52.26C222.162 52.652 221.87 53.072 221.486 53.52L219.29 56.1H222.818V57H217.586ZM227.368 57.12C226.888 57.12 226.444 57.02 226.036 56.82C225.628 56.612 225.28 56.32 224.992 55.944C224.704 55.568 224.476 55.112 224.308 54.576C224.148 54.04 224.068 53.448 224.068 52.8C224.068 52.152 224.148 51.56 224.308 51.024C224.476 50.488 224.704 50.032 224.992 49.656C225.28 49.28 225.628 48.992 226.036 48.792C226.444 48.584 226.888 48.48 227.368 48.48C227.848 48.48 228.292 48.584 228.7 48.792C229.108 48.992 229.456 49.28 229.744 49.656C230.04 50.032 230.268 50.488 230.428 51.024C230.596 51.56 230.68 52.152 230.68 52.8C230.68 53.448 230.596 54.04 230.428 54.576C230.268 55.112 230.04 55.568 229.744 55.944C229.456 56.32 229.108 56.612 228.7 56.82C228.292 57.02 227.848 57.12 227.368 57.12ZM227.368 56.208C228.064 56.208 228.616 55.9 229.024 55.284C229.44 54.668 229.648 53.84 229.648 52.8C229.648 51.76 229.44 50.932 229.024 50.316C228.616 49.7 228.064 49.392 227.368 49.392C226.672 49.392 226.12 49.7 225.712 50.316C225.304 50.932 225.1 51.76 225.1 52.8C225.1 53.84 225.304 54.668 225.712 55.284C226.12 55.9 226.672 56.208 227.368 56.208ZM231.989 57V56.64L234.977 53.148C235.385 52.676 235.661 52.276 235.805 51.948C235.957 51.62 236.033 51.292 236.033 50.964C236.033 50.508 235.877 50.132 235.565 49.836C235.253 49.54 234.881 49.392 234.449 49.392C233.993 49.392 233.605 49.576 233.285 49.944C232.973 50.312 232.813 50.78 232.805 51.348H231.785C231.785 50.94 231.853 50.56 231.989 50.208C232.133 49.848 232.329 49.544 232.577 49.296C232.825 49.04 233.113 48.84 233.441 48.696C233.777 48.552 234.137 48.48 234.521 48.48C234.881 48.48 235.217 48.54 235.529 48.66C235.841 48.78 236.109 48.948 236.333 49.164C236.557 49.38 236.733 49.636 236.861 49.932C236.997 50.228 237.065 50.552 237.065 50.904C237.065 51.416 236.965 51.868 236.765 52.26C236.565 52.652 236.273 53.072 235.889 53.52L233.693 56.1H237.221V57H231.989ZM238.477 57V56.1H240.469V49.5H238.429L238.729 48.6H241.501V56.1H243.421V57H238.477Z" fill="#D7D7D7"/>
</svg>
