<svg width="37" height="22" viewBox="0 0 37 22" fill="none" xmlns="http://www.w3.org/2000/svg">
<rect width="36.6667" height="22" rx="4" fill="black"/>
<path fill-rule="evenodd" clip-rule="evenodd" d="M12.0724 10.0565C12.086 11.4588 13.3553 11.9253 13.3694 11.9313C13.3587 11.9644 13.1667 12.5963 12.7007 13.2494C12.2979 13.8138 11.8796 14.3762 11.2213 14.3879C10.5741 14.3995 10.3661 14.0202 9.62616 14.0202C8.88648 14.0202 8.65518 14.3762 8.04265 14.3995C7.40711 14.4225 6.92295 13.7888 6.51678 13.2264C5.68675 12.0759 5.05242 9.97546 5.90425 8.55762C6.32738 7.85349 7.08329 7.40757 7.90411 7.3963C8.52826 7.38479 9.11754 7.79883 9.49925 7.79883C9.88048 7.79883 10.5967 7.30088 11.3494 7.37401C11.6645 7.38671 12.5491 7.49604 13.117 8.29318C13.071 8.32051 12.0613 8.88415 12.0724 10.0565M10.8561 6.61282C11.1935 6.22108 11.4209 5.6759 11.3589 5.13336C10.8723 5.15206 10.284 5.44407 9.93522 5.83557C9.62229 6.18224 9.3486 6.73701 9.42248 7.269C9.96476 7.30928 10.5187 7.0048 10.8561 6.61282" fill="white"/>
<path fill-rule="evenodd" clip-rule="evenodd" d="M15.7412 5.94233C15.9914 5.90063 16.2671 5.86319 16.569 5.82978C16.8707 5.79637 17.2025 5.77979 17.5649 5.77979C18.0823 5.77979 18.5283 5.84021 18.9032 5.96105C19.2784 6.08189 19.5864 6.25487 19.8276 6.47997C20.0346 6.67995 20.1966 6.91737 20.3128 7.19247C20.4289 7.46757 20.4868 7.78437 20.4868 8.14287C20.4868 8.57625 20.4074 8.95561 20.2478 9.2807C20.0886 9.60579 19.8709 9.87876 19.595 10.0996C19.3188 10.3204 18.9914 10.4849 18.6121 10.5934C18.2325 10.7017 17.8188 10.7559 17.3704 10.7559C16.9653 10.7559 16.6249 10.7268 16.3492 10.6685V14.2696H15.7412V5.94233V5.94233ZM16.3492 10.1437C16.4957 10.1851 16.6594 10.2143 16.8405 10.2309C17.0216 10.2474 17.2155 10.2557 17.4223 10.2557C18.1982 10.2557 18.7995 10.0806 19.2262 9.73066C19.6528 9.38069 19.8663 8.86793 19.8663 8.19287C19.8663 7.86777 19.8104 7.58415 19.6984 7.34246C19.5862 7.10054 19.4269 6.90268 19.2201 6.74843C19.0132 6.59418 18.7674 6.4776 18.4829 6.39822C18.1982 6.31908 17.8835 6.27951 17.5385 6.27951C17.2628 6.27951 17.0256 6.28993 16.8273 6.31079C16.6291 6.33164 16.4695 6.35462 16.349 6.3795V10.1437H16.3492Z" fill="white"/>
<path fill-rule="evenodd" clip-rule="evenodd" d="M25.3211 12.8444C25.3211 13.0861 25.3253 13.328 25.3339 13.5697C25.3424 13.8114 25.3682 14.0446 25.4115 14.2697H24.8425L24.7521 13.4195H24.7259C24.6484 13.5363 24.5492 13.6529 24.4286 13.7695C24.308 13.886 24.1679 13.9924 24.0086 14.0884C23.849 14.1844 23.6679 14.2614 23.4653 14.3196C23.2626 14.3777 23.0408 14.4071 22.7995 14.4071C22.4978 14.4071 22.2324 14.359 22.0038 14.2635C21.7754 14.1675 21.5879 14.0424 21.4413 13.8884C21.2948 13.7339 21.185 13.5569 21.1117 13.3569C21.0385 13.1569 21.002 12.957 21.002 12.7567C21.002 12.0483 21.31 11.5023 21.9263 11.1187C22.5429 10.7351 23.4719 10.5519 24.7136 10.5685V10.406C24.7136 10.2475 24.6984 10.0659 24.6683 9.8617C24.6379 9.65745 24.5712 9.46363 24.4676 9.28047C24.3642 9.0973 24.209 8.94305 24.0022 8.81818C23.7954 8.69307 23.515 8.63052 23.1617 8.63052C22.8943 8.63052 22.6294 8.67009 22.3664 8.74923C22.1035 8.82837 21.8643 8.93879 21.6489 9.08048L21.4548 8.64284C21.7305 8.45968 22.0153 8.32841 22.3081 8.24927C22.6015 8.17012 22.9073 8.13055 23.2264 8.13055C23.6574 8.13055 24.0088 8.2014 24.2803 8.3431C24.5519 8.48479 24.7653 8.66819 24.9204 8.89305C25.0756 9.11816 25.1814 9.37027 25.2373 9.64963C25.2932 9.92899 25.3216 10.2062 25.3216 10.4811V12.8444H25.3211ZM24.7134 11.0564C24.3855 11.0479 24.0426 11.0604 23.6849 11.0938C23.3273 11.127 22.9975 11.2002 22.6958 11.3125C22.3939 11.4251 22.1442 11.5898 21.9459 11.8066C21.7477 12.0234 21.6484 12.3108 21.6484 12.6693C21.6484 13.0942 21.7734 13.4069 22.0236 13.6069C22.2733 13.8069 22.5534 13.9071 22.8639 13.9071C23.1139 13.9071 23.3381 13.874 23.5364 13.8069C23.7346 13.7401 23.9066 13.6505 24.0534 13.5382C24.2002 13.4259 24.3227 13.2986 24.422 13.1569C24.5215 13.015 24.5967 12.8695 24.6487 12.7191C24.6918 12.5523 24.7136 12.4314 24.7136 12.3561V11.0564H24.7134Z" fill="white"/>
<path fill-rule="evenodd" clip-rule="evenodd" d="M26.5102 8.26775L28.0874 12.1689C28.1739 12.3857 28.2558 12.6087 28.3335 12.838C28.4112 13.0669 28.48 13.2778 28.5403 13.4692H28.5663C28.6268 13.2861 28.6954 13.0797 28.7731 12.8503C28.8508 12.6212 28.9371 12.3857 29.0316 12.1435L30.5062 8.26752H31.1524L29.3554 12.6691C29.174 13.1356 29.004 13.5591 28.8444 13.9382C28.6851 14.3175 28.5232 14.6592 28.3595 14.9634C28.1955 15.2677 28.0298 15.5364 27.8612 15.77C27.6934 16.0032 27.5054 16.2077 27.2988 16.3825C27.0577 16.5908 26.8354 16.7432 26.6328 16.8391C26.4303 16.9351 26.2946 16.9955 26.2255 17.0204L26.0182 16.5328C26.1735 16.4659 26.346 16.3785 26.5357 16.2702C26.7254 16.1617 26.9109 16.0202 27.0918 15.8451C27.2471 15.6951 27.4174 15.4973 27.6027 15.2511C27.788 15.0054 27.9539 14.7073 28.1007 14.3571C28.1524 14.2237 28.1784 14.136 28.1784 14.0943C28.1784 14.0363 28.1526 13.9486 28.1007 13.8318L25.8633 8.26752H26.5102V8.26775Z" fill="white"/>
</svg>
