<svg width="96" height="46" viewBox="0 0 96 46" fill="none" xmlns="http://www.w3.org/2000/svg">
<path d="M53.6 21.5999C54.4837 21.5999 55.2 20.8836 55.2 19.9999C55.2 19.1162 54.4837 18.3999 53.6 18.3999C52.7163 18.3999 52 19.1162 52 19.9999C52 20.8836 52.7163 21.5999 53.6 21.5999Z" fill="white"/>
<path d="M45.6 21.5999C46.4837 21.5999 47.2 20.8836 47.2 19.9999C47.2 19.1162 46.4837 18.3999 45.6 18.3999C44.7163 18.3999 44 19.1162 44 19.9999C44 20.8836 44.7163 21.5999 45.6 21.5999Z" fill="white"/>
<path d="M37.6001 2.3999H39.1025C39.6345 2.3999 40.1033 2.7503 40.2537 3.2615L43.6625 14.8519C43.8625 15.5319 44.4873 15.9999 45.1969 15.9999H53.9777C54.6993 15.9999 55.3313 15.5167 55.5217 14.8207L57.6001 7.1999H53.6001" stroke="white" stroke-width="2" stroke-miterlimit="10" stroke-linecap="round" stroke-linejoin="round"/>
<path d="M50.4001 7.19995V11.6688L52.2345 9.83435C52.5473 9.52155 53.0529 9.52155 53.3657 9.83435C53.6785 10.1472 53.6785 10.6528 53.3657 10.9656L50.1657 14.1656C50.0097 14.3216 49.8049 14.4 49.6001 14.4C49.3953 14.4 49.1905 14.3216 49.0345 14.1656L45.8345 10.9656C45.5217 10.6528 45.5217 10.1472 45.8345 9.83435C46.1473 9.52155 46.6529 9.52155 46.9657 9.83435L48.8001 11.6688V7.19995H41.6001L44.4001 16H55.2001L57.6001 7.19995H50.4001Z" fill="white"/>
<path d="M50.3998 2.4001C50.3998 1.9585 50.0414 1.6001 49.5998 1.6001C49.1582 1.6001 48.7998 1.9585 48.7998 2.4001V6.4001H50.3998V2.4001Z" fill="white"/>
<path d="M50.3999 7.19995H54.3999" stroke="white" stroke-width="2" stroke-miterlimit="10" stroke-linejoin="round"/>
<path d="M41.6001 7.19995H48.8001" stroke="white" stroke-width="2" stroke-miterlimit="10" stroke-linejoin="round"/>
<path d="M20.4469 39.158C20.4469 38.164 19.8449 37.324 18.8929 36.89C19.6349 36.442 20.0969 35.714 20.0969 34.846C20.0969 33.306 18.8649 32.2 17.1709 32.2H12.5089V42H17.1709C19.0749 42 20.4469 40.81 20.4469 39.158ZM16.8909 33.894C17.6469 33.894 18.1789 34.37 18.1789 35.042C18.1789 35.7 17.6469 36.162 16.8909 36.162H14.4409V33.894H16.8909ZM14.4409 40.334V37.758H17.0309C17.9129 37.758 18.5289 38.276 18.5289 39.018C18.5289 39.788 17.9129 40.334 17.0309 40.334H14.4409ZM26.043 42H27.821V35.014H26.043V39.242C26.043 40.054 25.413 40.698 24.587 40.698C23.733 40.698 23.131 40.082 23.131 39.172V35.014H21.353V39.312C21.353 40.95 22.291 42.154 23.957 42.154C24.853 42.154 25.623 41.762 26.043 41.132V42ZM36.1089 35.014H34.2469L32.2589 39.13L30.2289 35.014H28.2409L31.2369 41.118L29.2349 45.094H31.1669L36.1089 35.014ZM41.4982 42V37.912H45.6702V36.218H41.4982V33.922H46.6502V32.2H39.5382V42H41.4982ZM47.6593 32.2V42H49.6193V32.2H47.6593ZM52.8459 42V37.912H57.0179V36.218H52.8459V33.922H57.9979V32.2H50.8859V42H52.8459ZM64.3879 42H66.4319L61.3919 31.78L56.3519 42H58.3399L59.3059 39.914H63.3939L64.3879 42ZM60.0059 38.416L61.3219 35.56L62.6799 38.416H60.0059ZM74.7048 38.304C76.0908 36.722 76.3848 36.022 76.3848 35.042C76.3848 33.334 74.9708 32.074 73.1368 32.074C71.1208 32.074 69.4828 33.46 69.4968 35.686H71.1908C71.2748 34.426 72.0308 33.642 73.0808 33.642C73.9208 33.642 74.6068 34.23 74.6068 35.098C74.6068 35.742 74.4528 36.218 73.4028 37.436L69.4688 42H76.6508V40.432H72.8288L74.7048 38.304ZM77.3311 42H83.9111V40.432H81.5311V32.2H77.9191L77.3311 33.768H79.7251V40.432H77.3311V42Z" fill="white"/>
</svg>
