<svg width="126" height="16" viewBox="0 0 126 16" fill="none" xmlns="http://www.w3.org/2000/svg">
<path d="M11.7337 14.4001C12.3228 14.4001 12.8003 13.9225 12.8003 13.3334C12.8003 12.7443 12.3228 12.2667 11.7337 12.2667C11.1446 12.2667 10.667 12.7443 10.667 13.3334C10.667 13.9225 11.1446 14.4001 11.7337 14.4001Z" fill="white"/>
<path d="M6.39967 14.4001C6.98878 14.4001 7.46634 13.9225 7.46634 13.3334C7.46634 12.7443 6.98878 12.2667 6.39967 12.2667C5.81057 12.2667 5.33301 12.7443 5.33301 13.3334C5.33301 13.9225 5.81057 14.4001 6.39967 14.4001Z" fill="white"/>
<path fill-rule="evenodd" clip-rule="evenodd" d="M0.0664062 1.59998C0.0664062 1.04769 0.514121 0.599976 1.06641 0.599976H2.06801C2.86622 0.599976 3.56934 1.12576 3.79481 1.89213L6.06737 9.61914C6.06737 9.61915 6.06737 9.61914 6.06737 9.61914C6.07559 9.64708 6.10168 9.66664 6.13094 9.66664H11.9848C12.0143 9.66664 12.0412 9.64683 12.0495 9.6168C12.0496 9.61675 12.0495 9.61686 12.0495 9.6168L13.0905 5.79998H11.7331C11.1808 5.79998 10.7331 5.35226 10.7331 4.79998C10.7331 4.24769 11.1808 3.79998 11.7331 3.79998H14.3997C14.7114 3.79998 15.0053 3.94529 15.1944 4.19298C15.3836 4.44067 15.4465 4.7624 15.3645 5.06309L13.9789 10.1436C13.7333 11.0415 12.9174 11.6666 11.9848 11.6666H6.13094C5.21406 11.6666 4.40709 11.0622 4.14864 10.1835L1.91829 2.59998H1.06641C0.514121 2.59998 0.0664062 2.15226 0.0664062 1.59998Z" fill="white"/>
<path d="M9.60007 4.80005V7.77925L10.823 6.55632C11.0315 6.34778 11.3686 6.34778 11.5771 6.55632C11.7857 6.76485 11.7857 7.10192 11.5771 7.31045L9.4438 9.44378C9.3398 9.54778 9.20327 9.60005 9.06673 9.60005C8.9302 9.60005 8.79366 9.54778 8.68966 9.44378L6.55633 7.31045C6.3478 7.10192 6.3478 6.76485 6.55633 6.55632C6.76487 6.34778 7.10193 6.34778 7.31047 6.55632L8.5334 7.77925V4.80005H3.7334L5.60007 10.6667H12.8001L14.4001 4.80005H9.60007Z" fill="white"/>
<path d="M9.59987 1.59998C9.59987 1.30558 9.36094 1.06665 9.06654 1.06665C8.77214 1.06665 8.5332 1.30558 8.5332 1.59998V4.26665H9.59987V1.59998Z" fill="white"/>
<path fill-rule="evenodd" clip-rule="evenodd" d="M12.2663 5.80005H9.59961V3.80005H12.2663V5.80005Z" fill="white"/>
<path fill-rule="evenodd" clip-rule="evenodd" d="M8.5334 5.80005H3.7334V3.80005H8.5334V5.80005Z" fill="white"/>
<path d="M33.072 8.82397C33.072 7.68797 32.384 6.72797 31.296 6.23197C32.144 5.71997 32.672 4.88797 32.672 3.89597C32.672 2.13597 31.264 0.871967 29.328 0.871967H24V12.072H29.328C31.504 12.072 33.072 10.712 33.072 8.82397ZM29.008 2.80797C29.872 2.80797 30.48 3.35197 30.48 4.11997C30.48 4.87197 29.872 5.39997 29.008 5.39997H26.208V2.80797H29.008ZM26.208 10.168V7.22397H29.168C30.176 7.22397 30.88 7.81597 30.88 8.66397C30.88 9.54397 30.176 10.168 29.168 10.168H26.208Z" fill="white"/>
<path d="M39.4675 12.072H41.4995V4.08797H39.4675V8.91997C39.4675 9.84797 38.7475 10.584 37.8035 10.584C36.8275 10.584 36.1395 9.87997 36.1395 8.83997V4.08797H34.1075V8.99997C34.1075 10.872 35.1795 12.248 37.0835 12.248C38.1075 12.248 38.9875 11.8 39.4675 11.08V12.072Z" fill="white"/>
<path d="M50.9714 4.08797H48.8434L46.5714 8.79197L44.2514 4.08797H41.9794L45.4034 11.064L43.1154 15.608H45.3234L50.9714 4.08797Z" fill="white"/>
<path d="M57.1306 12.072V7.39997H61.8986V5.46397H57.1306V2.83997H63.0186V0.871967H54.8906V12.072H57.1306Z" fill="white"/>
<path d="M64.1719 0.871967V12.072H66.4119V0.871967H64.1719Z" fill="white"/>
<path d="M70.0994 12.072V7.39997H74.8674V5.46397H70.0994V2.83997H75.9874V0.871967H67.8594V12.072H70.0994Z" fill="white"/>
<path d="M83.2902 12.072H85.6263L79.8662 0.391968L74.1062 12.072H76.3783L77.4823 9.68797H82.1543L83.2902 12.072ZM78.2822 7.97597L79.7862 4.71197L81.3382 7.97597H78.2822Z" fill="white"/>
<path d="M95.081 7.84797C96.665 6.03997 97.001 5.23997 97.001 4.11997C97.001 2.16797 95.385 0.727967 93.289 0.727967C90.985 0.727967 89.113 2.31197 89.129 4.85597H91.065C91.161 3.41597 92.025 2.51997 93.225 2.51997C94.185 2.51997 94.969 3.19197 94.969 4.18397C94.969 4.91997 94.793 5.46397 93.593 6.85597L89.097 12.072H97.305V10.28H92.937L95.081 7.84797Z" fill="white"/>
<path d="M98.0825 12.072H105.603V10.28H102.882V0.871967H98.7545L98.0825 2.66397H100.818V10.28H98.0825V12.072Z" fill="white"/>
</svg>
