<svg width="159" height="22" viewBox="0 0 159 22" fill="none" xmlns="http://www.w3.org/2000/svg">
<rect width="36.6667" height="22" rx="4" fill="white"/>
<path fill-rule="evenodd" clip-rule="evenodd" d="M15.2129 14.5007L16.3403 7.50684H18.1424L17.0151 14.5007H15.2129" fill="#26337A"/>
<path fill-rule="evenodd" clip-rule="evenodd" d="M23.552 7.6782C23.1957 7.53784 22.6353 7.38477 21.9372 7.38477C20.1555 7.38477 18.9013 8.33386 18.8909 9.69291C18.8795 10.6982 19.7859 11.2588 20.4691 11.593C21.1714 11.9355 21.4073 12.1546 21.4045 12.4609C21.3997 12.9293 20.844 13.1439 20.3258 13.1439C19.6043 13.1439 19.221 13.0382 18.6284 12.7771L18.3965 12.6658L18.1445 14.2313C18.5648 14.4261 19.3438 14.5952 20.1523 14.6041C22.0458 14.6041 23.2762 13.6664 23.2906 12.2152C23.2971 11.418 22.8169 10.8138 21.7769 10.3149C21.1471 9.99058 20.7606 9.77574 20.765 9.4475C20.7655 9.15685 21.0916 8.84565 21.7974 8.84565C22.3869 8.83615 22.8136 8.97228 23.1461 9.1144L23.3079 9.19434L23.552 7.6782" fill="#26337A"/>
<path fill-rule="evenodd" clip-rule="evenodd" d="M25.9524 12.0208C26.1017 11.6188 26.6703 10.0659 26.6703 10.0659C26.6598 10.0844 26.8188 9.66079 26.9098 9.39865L27.0314 10.0018C27.0314 10.0018 27.3773 11.6712 27.4485 12.0208C27.1679 12.0208 26.3043 12.0208 25.9524 12.0208V12.0208ZM28.1756 7.51367H26.7829C26.351 7.51367 26.0276 7.63741 25.8384 8.09342L23.1621 14.5029H25.0549C25.0549 14.5029 25.3637 13.6406 25.4338 13.4514C25.6403 13.4514 27.4795 13.455 27.742 13.455C27.796 13.6991 27.9615 14.5029 27.9615 14.5029H29.6341L28.1756 7.51367V7.51367Z" fill="#26337A"/>
<path fill-rule="evenodd" clip-rule="evenodd" d="M13.7012 7.5127L11.9373 12.2808L11.7484 11.3116C11.4197 10.1948 10.3965 8.98442 9.25195 8.37793L10.8657 14.4945L12.7729 14.4934L15.6109 7.5127H13.7012" fill="#26337A"/>
<path fill-rule="evenodd" clip-rule="evenodd" d="M10.2992 7.50781H7.39305L7.36914 7.65272C9.63044 8.23206 11.1266 9.63045 11.7476 11.3114L11.1161 8.09789C11.0072 7.65469 10.6905 7.52331 10.2992 7.50781" fill="#EC982D"/>
<rect x="40.666" width="36.6667" height="22" rx="4" fill="white"/>
<path fill-rule="evenodd" clip-rule="evenodd" d="M61.2466 11.178C61.2466 15.1301 58.0432 18.3334 54.0912 18.3334C50.1392 18.3334 46.9355 15.1301 46.9355 11.178C46.9355 7.22613 50.1392 4.02246 54.0912 4.02246C58.0432 4.02246 61.2466 7.22613 61.2466 11.178" fill="#CC0000"/>
<path fill-rule="evenodd" clip-rule="evenodd" d="M63.698 4.02246C61.8487 4.02246 60.1643 4.7239 58.8942 5.8746C58.6358 6.10912 58.3946 6.36242 58.1719 6.63212H59.6176C59.8151 6.87252 59.997 7.12526 60.1631 7.38998H57.6263C57.4746 7.63321 57.3366 7.88595 57.214 8.14784H60.5752C60.6901 8.39311 60.7912 8.64573 60.8783 8.90536H56.911C56.8284 9.1521 56.7588 9.40495 56.7031 9.66277H61.0859C61.1908 10.1513 61.2467 10.6581 61.2467 11.178C61.2467 11.9724 61.1172 12.7371 60.8783 13.4512H56.911C56.998 13.7106 57.0991 13.9635 57.2138 14.2091H60.5752C60.4524 14.4704 60.3151 14.7233 60.1625 14.9669H57.6263C57.7917 15.2308 57.974 15.4839 58.1719 15.724H59.6172C59.395 15.9939 59.1536 16.2472 58.8944 16.4817C60.1644 17.6324 61.8487 18.3334 63.698 18.3334C67.6498 18.3334 70.8534 15.1301 70.8534 11.178C70.8534 7.22646 67.6498 4.02246 63.698 4.02246" fill="#FF9900"/>
<path fill-rule="evenodd" clip-rule="evenodd" d="M52.4198 11.9612C52.3383 11.9519 52.3023 11.949 52.2463 11.949C51.806 11.949 51.5833 12.1001 51.5833 12.3985C51.5833 12.5822 51.692 12.6991 51.8616 12.6991C52.1781 12.6991 52.4062 12.3978 52.4198 11.9612V11.9612ZM52.9848 13.2764C52.8813 13.2764 52.341 13.2764 52.341 13.2764L52.3558 12.9706C52.1595 13.2121 51.8975 13.3274 51.5416 13.3274C51.1207 13.3274 50.832 12.9988 50.832 12.5213C50.832 11.8024 51.334 11.3833 52.1958 11.3833C52.2841 11.3833 52.3969 11.3914 52.5125 11.406C52.5365 11.3085 52.5428 11.2671 52.5428 11.2145C52.5428 11.0191 52.4076 10.9459 52.0447 10.9459C51.6646 10.942 51.3512 11.0367 51.2224 11.079C51.2305 11.0299 51.3301 10.4151 51.3301 10.4151C51.7171 10.3013 51.9724 10.2588 52.2598 10.2588C52.9269 10.2588 53.2803 10.5582 53.2795 11.1243C53.2809 11.2762 53.2557 11.4629 53.2167 11.7092C53.1493 12.1366 53.0045 13.0533 52.9848 13.2764V13.2764Z" fill="#000066"/>
<path fill-rule="evenodd" clip-rule="evenodd" d="M50.5077 13.277H49.7307L50.176 10.4871L49.1822 13.277H48.6529L48.5874 10.5027L48.1197 13.277H47.3926L47.9999 9.64746H49.117L49.1846 11.6791L49.8661 9.64746H51.1085L50.5077 13.277" fill="#000066"/>
<path fill-rule="evenodd" clip-rule="evenodd" d="M64.6576 11.9612C64.5761 11.9519 64.5406 11.949 64.4847 11.949C64.044 11.949 63.8216 12.1001 63.8216 12.3985C63.8216 12.5822 63.9298 12.6991 64.0999 12.6991C64.4162 12.6991 64.6444 12.3978 64.6576 11.9612V11.9612ZM65.223 13.2764C65.1192 13.2764 64.5794 13.2764 64.5794 13.2764L64.594 12.9706C64.3976 13.2121 64.1358 13.3274 63.7801 13.3274C63.3587 13.3274 63.0703 12.9988 63.0703 12.5213C63.0703 11.8024 63.5725 11.3833 64.4341 11.3833C64.5223 11.3833 64.6349 11.3914 64.7506 11.406C64.7747 11.3085 64.7809 11.2671 64.7809 11.2145C64.7809 11.0191 64.6456 10.9459 64.2828 10.9459C63.9027 10.942 63.5893 11.0367 63.4601 11.079C63.4687 11.0299 63.5685 10.4151 63.5685 10.4151C63.9553 10.3013 64.2108 10.2588 64.4977 10.2588C65.1653 10.2588 65.5183 10.5582 65.5176 11.1243C65.5189 11.2762 65.494 11.4629 65.4547 11.7092C65.3875 12.1366 65.2425 13.0533 65.223 13.2764V13.2764Z" fill="#000066"/>
<path fill-rule="evenodd" clip-rule="evenodd" d="M56.4379 13.2315C56.2252 13.2985 56.0596 13.3274 55.8798 13.3274C55.4827 13.3274 55.266 13.0992 55.266 12.6789C55.2604 12.5484 55.3231 12.2052 55.3724 11.8922C55.4174 11.6164 55.7094 9.87793 55.7094 9.87793H56.4814L56.3912 10.3247H56.8577L56.7524 11.0342H56.2844C56.1947 11.5954 56.0668 12.2947 56.0653 12.3874C56.0653 12.5396 56.1465 12.6061 56.3314 12.6061C56.4199 12.6061 56.4885 12.597 56.5408 12.5783L56.4379 13.2315" fill="#000066"/>
<path fill-rule="evenodd" clip-rule="evenodd" d="M58.8046 13.2077C58.5393 13.2888 58.2837 13.3283 58.0124 13.3274C57.1479 13.3263 56.6973 12.8751 56.6973 12.0106C56.6973 11.0017 57.2705 10.2588 58.0488 10.2588C58.6853 10.2588 59.0921 10.6747 59.0921 11.3267C59.0921 11.5435 59.0643 11.7547 58.9967 12.0528H57.4591C57.4072 12.481 57.6811 12.6594 58.1306 12.6594C58.4066 12.6594 58.656 12.6024 58.9332 12.4738L58.8046 13.2077V13.2077ZM58.3706 11.4579C58.375 11.3963 58.4524 10.9309 58.011 10.9309C57.7654 10.9309 57.5894 11.1184 57.518 11.4579H58.3706V11.4579Z" fill="#000066"/>
<path fill-rule="evenodd" clip-rule="evenodd" d="M53.4504 11.258C53.4504 11.631 53.6313 11.8885 54.0418 12.082C54.3563 12.23 54.4052 12.2738 54.4052 12.4078C54.4052 12.5915 54.2664 12.675 53.9591 12.675C53.7272 12.675 53.5117 12.6386 53.263 12.5582C53.263 12.5582 53.1611 13.209 53.1562 13.2401C53.3328 13.2784 53.4902 13.314 53.9647 13.3274C54.7843 13.3274 55.1629 13.0153 55.1629 12.3408C55.1629 11.9353 55.0045 11.6973 54.6153 11.5182C54.2898 11.3688 54.2521 11.3353 54.2521 11.1976C54.2521 11.038 54.3814 10.9565 54.6323 10.9565C54.7848 10.9565 54.993 10.9728 55.1906 11.0007L55.301 10.3161C55.1 10.2841 54.7949 10.2588 54.6174 10.2588C53.7484 10.2588 53.4475 10.7126 53.4504 11.258" fill="#000066"/>
<path fill-rule="evenodd" clip-rule="evenodd" d="M62.5836 10.3365C62.7994 10.3365 63.0009 10.3926 63.2778 10.5325L63.4051 9.74474C63.2908 9.69996 62.8904 9.4375 62.5512 9.4375C62.0315 9.4375 61.5916 9.69577 61.2828 10.1211C60.8318 9.9718 60.6462 10.2735 60.4192 10.5743L60.2173 10.6213C60.2326 10.5224 60.2465 10.4241 60.2421 10.3245H59.5283C59.4311 11.2383 59.2584 12.1635 59.1233 13.0777L59.0879 13.2762H59.8651C59.9948 12.4333 60.0657 11.8938 60.1089 11.5283L60.4015 11.3662C60.4455 11.2032 60.582 11.1485 60.8566 11.1552C60.8207 11.3476 60.8013 11.5504 60.8013 11.7602C60.8013 12.726 61.323 13.3272 62.1589 13.3272C62.3743 13.3272 62.5593 13.299 62.8458 13.2209L62.9819 12.3939C62.7243 12.5204 62.5134 12.58 62.3222 12.58C61.8706 12.58 61.5972 12.2465 61.5972 11.6957C61.5972 10.8963 62.0034 10.3365 62.5836 10.3365" fill="#000066"/>
<path fill-rule="evenodd" clip-rule="evenodd" d="M69.1606 9.64746L68.9879 10.6961C68.7759 10.4166 68.5477 10.2142 68.2464 10.2142C67.8545 10.2142 67.4977 10.5114 67.2641 10.949C66.9388 10.8815 66.6026 10.7667 66.6026 10.7667L66.6024 10.7696C66.6283 10.525 66.6392 10.3761 66.6366 10.3253H65.923C65.8261 11.2391 65.6532 12.1643 65.5182 13.0784L65.4824 13.277H66.2598C66.3648 12.5958 66.445 12.0295 66.5041 11.581C66.7698 11.3408 66.9028 11.132 67.1707 11.1455C67.0519 11.433 66.9825 11.7639 66.9825 12.1033C66.9825 12.8409 67.3555 13.328 67.9204 13.328C68.2052 13.328 68.4236 13.2297 68.6367 13.0022L68.6 13.2768H69.335L69.9268 9.64746H69.1606V9.64746ZM68.1891 12.5951C67.9247 12.5951 67.7908 12.399 67.7908 12.0132C67.7908 11.433 68.0411 11.0217 68.3933 11.0217C68.6603 11.0217 68.805 11.2248 68.805 11.5998C68.805 12.185 68.5506 12.5951 68.1891 12.5951V12.5951Z" fill="#000066"/>
<path fill-rule="evenodd" clip-rule="evenodd" d="M50.7302 13.0608H49.9535L50.3987 10.2709L49.4051 13.0608H48.8755L48.8101 10.2871L48.3423 13.0608H47.6152L48.2226 9.43164H49.3397L49.3709 11.6783L50.1247 9.43164H51.3312L50.7302 13.0608" fill="white"/>
<path fill-rule="evenodd" clip-rule="evenodd" d="M52.6443 11.7468C52.5629 11.7373 52.5269 11.7347 52.4709 11.7347C52.0306 11.7347 51.8078 11.8856 51.8078 12.1838C51.8078 12.3673 51.9166 12.4848 52.0863 12.4848C52.4027 12.4848 52.6308 12.1835 52.6443 11.7468V11.7468ZM53.2092 13.0616C53.1058 13.0616 52.5657 13.0616 52.5657 13.0616L52.5804 12.7559C52.3841 12.9974 52.1221 13.1128 51.7662 13.1128C51.3452 13.1128 51.0566 12.7838 51.0566 12.3063C51.0566 11.5874 51.5587 11.1687 52.4205 11.1687C52.5086 11.1687 52.6214 11.1768 52.7371 11.1917C52.7611 11.094 52.7674 11.0525 52.7674 10.9997C52.7674 10.8044 52.6322 10.7317 52.2693 10.7317C51.8891 10.7272 51.5758 10.8218 51.4469 10.864C51.4551 10.8151 51.5546 10.2003 51.5546 10.2003C51.9417 10.0868 52.1971 10.0439 52.4844 10.0439C53.1514 10.0439 53.5047 10.3437 53.5041 10.9096C53.5054 11.0612 53.4804 11.2488 53.4413 11.4944C53.3738 11.9215 53.229 12.8388 53.2092 13.0616V13.0616Z" fill="white"/>
<path fill-rule="evenodd" clip-rule="evenodd" d="M63.6288 9.52932L63.5016 10.3169C63.2242 10.1775 63.0233 10.1211 62.8078 10.1211C62.2278 10.1211 61.8209 10.6816 61.8209 11.4811C61.8209 12.0319 62.0943 12.3647 62.546 12.3647C62.7373 12.3647 62.9487 12.3055 63.2057 12.1786L63.0692 13.0056C62.7832 13.0835 62.5981 13.112 62.3828 13.112C61.5463 13.112 61.0254 12.5107 61.0254 11.5451C61.0254 10.2476 61.7456 9.34082 62.7751 9.34082C63.1143 9.34082 63.515 9.48454 63.6288 9.52932" fill="white"/>
<path fill-rule="evenodd" clip-rule="evenodd" d="M64.882 11.7468C64.801 11.7373 64.765 11.7347 64.7091 11.7347C64.269 11.7347 64.0461 11.8856 64.0461 12.1838C64.0461 12.3673 64.1548 12.4848 64.3244 12.4848C64.6407 12.4848 64.869 12.1835 64.882 11.7468V11.7468ZM65.4474 13.0616C65.344 13.0616 64.8039 13.0616 64.8039 13.0616L64.8184 12.7559C64.6221 12.9974 64.3601 13.1128 64.0046 13.1128C63.5832 13.1128 63.2949 12.7838 63.2949 12.3063C63.2949 11.5874 63.7965 11.1687 64.6586 11.1687C64.7466 11.1687 64.8593 11.1768 64.9748 11.1917C64.9989 11.094 65.0053 11.0525 65.0053 10.9997C65.0053 10.8044 64.8704 10.7317 64.5073 10.7317C64.1274 10.7272 63.8142 10.8218 63.685 10.864C63.6932 10.8151 63.7928 10.2003 63.7928 10.2003C64.1799 10.0868 64.435 10.0439 64.7223 10.0439C65.3894 10.0439 65.743 10.3437 65.7421 10.9096C65.7437 11.0612 65.7185 11.2488 65.6793 11.4944C65.612 11.9215 65.4673 12.8388 65.4474 13.0616V13.0616Z" fill="white"/>
<path fill-rule="evenodd" clip-rule="evenodd" d="M56.6606 13.0165C56.4481 13.0834 56.2822 13.1125 56.1026 13.1125C55.7055 13.1125 55.4886 12.8842 55.4886 12.4643C55.4832 12.3334 55.5459 11.9907 55.5954 11.6774C55.64 11.4013 55.9321 9.66309 55.9321 9.66309H56.7043L56.614 10.1098H57.0104L56.9048 10.819H56.5071C56.4175 11.3808 56.2896 12.0796 56.288 12.1723C56.288 12.325 56.3695 12.391 56.5542 12.391C56.6427 12.391 56.7111 12.3823 56.7637 12.3631L56.6606 13.0165" fill="white"/>
<path fill-rule="evenodd" clip-rule="evenodd" d="M59.0293 12.9934C58.7639 13.0747 58.5077 13.113 58.2368 13.1128C57.3722 13.1123 56.9219 12.6605 56.9219 11.7961C56.9219 10.7869 57.495 10.0439 58.2727 10.0439C58.9099 10.0439 59.3165 10.4599 59.3165 11.1127C59.3165 11.329 59.2882 11.5401 59.2215 11.8383H57.6836C57.6315 12.2665 57.9057 12.4452 58.3547 12.4452C58.631 12.4452 58.8803 12.388 59.1578 12.2591L59.0293 12.9934V12.9934ZM58.5952 11.243C58.5994 11.1813 58.6771 10.7162 58.2359 10.7162C57.99 10.7162 57.814 10.904 57.7424 11.243H58.5952V11.243Z" fill="white"/>
<path fill-rule="evenodd" clip-rule="evenodd" d="M53.6748 11.0431C53.6748 11.4168 53.8559 11.6738 54.2665 11.8675C54.581 12.0154 54.6297 12.0591 54.6297 12.1933C54.6297 12.3772 54.491 12.4602 54.1835 12.4602C53.9518 12.4602 53.7362 12.4243 53.4874 12.3441C53.4874 12.3441 53.3856 12.9945 53.3809 13.0252C53.5573 13.0639 53.7148 13.0991 54.189 13.1128C55.0089 13.1128 55.3875 12.8008 55.3875 12.1263C55.3875 11.7206 55.2289 11.4827 54.8398 11.304C54.5141 11.1542 54.4767 11.121 54.4767 10.9831C54.4767 10.8235 54.6059 10.7414 54.857 10.7414C55.0092 10.7414 55.2176 10.7584 55.4151 10.7862L55.5256 10.1017C55.3245 10.07 55.0196 10.0439 54.842 10.0439C53.9728 10.0439 53.6722 10.4978 53.6748 11.0431" fill="white"/>
<path fill-rule="evenodd" clip-rule="evenodd" d="M69.5577 13.0608H68.8229L68.8593 12.7862C68.6462 13.0138 68.4278 13.1121 68.1431 13.1121C67.5786 13.1121 67.2051 12.6256 67.2051 11.8872C67.2051 10.9054 67.7842 10.0779 68.4691 10.0779C68.7703 10.0779 68.9984 10.2009 69.2109 10.4805L69.3832 9.43164H70.1493L69.5577 13.0608V13.0608ZM68.4116 12.3788C68.7736 12.3788 69.0276 11.9689 69.0276 11.3843C69.0276 11.0092 68.883 10.8054 68.616 10.8054C68.2636 10.8054 68.0135 11.2168 68.0135 11.7973C68.0135 12.1836 68.1475 12.3788 68.4116 12.3788V12.3788Z" fill="white"/>
<path fill-rule="evenodd" clip-rule="evenodd" d="M66.1455 10.1098C66.0484 11.0234 65.8756 11.9486 65.7405 12.8629L65.7051 13.0613H66.482C66.76 11.2563 66.8268 10.9041 67.2629 10.9481C67.3322 10.5786 67.4614 10.2551 67.5577 10.0921C67.2323 10.0242 67.0506 10.2081 66.8125 10.5575C66.8315 10.4063 66.8657 10.2596 66.8593 10.1098H66.1455" fill="white"/>
<path fill-rule="evenodd" clip-rule="evenodd" d="M59.7513 10.1098C59.6537 11.0234 59.4807 11.9486 59.3458 12.8629L59.3105 13.0613H60.0877C60.3658 11.2563 60.4324 10.9041 60.8678 10.9481C60.9375 10.5786 61.067 10.2551 61.163 10.0921C60.838 10.0242 60.656 10.2081 60.4183 10.5575C60.437 10.4063 60.4715 10.2596 60.4648 10.1098H59.7513" fill="white"/>
<rect x="81.334" width="36.6667" height="22" rx="4" fill="white"/>
<path fill-rule="evenodd" clip-rule="evenodd" d="M90.1758 21.9995H114C116.209 21.9995 118 20.2087 118 17.9995V12.3555C118 12.3555 108.173 19.0178 90.1758 21.9995Z" fill="#E6772F"/>
<mask id="mask0" mask-type="alpha" maskUnits="userSpaceOnUse" x="90" y="12" width="29" height="10">
<path fill-rule="evenodd" clip-rule="evenodd" d="M90.1758 21.9995H114C116.209 21.9995 118 20.2087 118 17.9995V12.3555C118 12.3555 108.173 19.0178 90.1758 21.9995Z" fill="white"/>
</mask>
<g mask="url(#mask0)">
</g>
<path fill-rule="evenodd" clip-rule="evenodd" d="M88.0405 10.9349C87.7653 11.1703 87.4148 11.2732 86.8545 11.2732H86.622V8.46456H86.8545C87.4148 8.46456 87.7518 8.56055 88.0405 8.80762C88.3385 9.06294 88.5176 9.45681 88.5176 9.86419C88.5176 10.2736 88.3385 10.6814 88.0405 10.9349V10.9349ZM87.0281 7.74512H85.7559V11.993H87.0203C87.6932 11.993 88.1789 11.8398 88.6047 11.5017C89.1104 11.1012 89.4104 10.4966 89.4104 9.87013C89.4104 8.61614 88.4314 7.74512 87.0281 7.74512V7.74512Z" fill="#1A1919"/>
<path fill-rule="evenodd" clip-rule="evenodd" d="M89.8086 7.74512H90.6713V11.993H89.8086V7.74512Z" fill="#1A1919"/>
<path fill-rule="evenodd" clip-rule="evenodd" d="M92.7896 9.37265C92.2689 9.18991 92.1167 9.06818 92.1167 8.83859C92.1167 8.57173 92.3887 8.36936 92.7627 8.36936C93.022 8.36936 93.2355 8.46865 93.463 8.71127L93.9134 8.14587C93.5413 7.83249 93.0959 7.67383 92.6104 7.67383C91.8248 7.67383 91.226 8.19684 91.226 8.8884C91.226 9.47557 91.5043 9.77344 92.3167 10.0563C92.6562 10.1693 92.8288 10.2465 92.9161 10.2988C93.0892 10.4058 93.1754 10.5592 93.1754 10.7365C93.1754 11.082 92.8893 11.336 92.5025 11.336C92.0907 11.336 91.7575 11.1388 91.5581 10.7683L91 11.2856C91.399 11.845 91.8773 12.0951 92.5363 12.0951C93.435 12.0951 94.0682 11.5193 94.0682 10.6992C94.0682 10.0235 93.7745 9.7172 92.7896 9.37265" fill="#1A1919"/>
<path fill-rule="evenodd" clip-rule="evenodd" d="M94.3418 9.86944C94.3418 11.1187 95.3665 12.0867 96.6856 12.0867C97.0575 12.0867 97.3764 12.0164 97.769 11.8391V10.8628C97.4221 11.1965 97.1175 11.3281 96.7235 11.3281C95.8519 11.3281 95.2345 10.7246 95.2345 9.86351C95.2345 9.04989 95.8719 8.40532 96.6856 8.40532C97.0961 8.40532 97.4098 8.54453 97.769 8.88314V7.90804C97.3897 7.72447 97.0784 7.64844 96.7033 7.64844C95.3918 7.64844 94.3418 8.6354 94.3418 9.86944" fill="#1A1919"/>
<path fill-rule="evenodd" clip-rule="evenodd" d="M104.782 10.597L103.598 7.74512H102.654L104.536 12.1002H105L106.919 7.74512H105.982L104.782 10.597" fill="#1A1919"/>
<path fill-rule="evenodd" clip-rule="evenodd" d="M107.311 11.993H109.765V11.2732H108.177V10.1266H109.705V9.407H108.177V8.46456H109.765V7.74512H107.311V11.993" fill="#1A1919"/>
<path fill-rule="evenodd" clip-rule="evenodd" d="M111.457 9.69843H111.206V8.4136H111.471C112.012 8.4136 112.302 8.63081 112.302 9.04463C112.302 9.46983 112.012 9.69843 111.457 9.69843V9.69843ZM113.193 8.99845C113.193 8.20297 112.623 7.74512 111.624 7.74512H110.338V11.993H111.206V10.2851H111.318L112.514 11.993H113.579L112.183 10.2026C112.836 10.075 113.193 9.64846 113.193 8.99845V8.99845Z" fill="#1A1919"/>
<path fill-rule="evenodd" clip-rule="evenodd" d="M102.777 9.87961C102.777 11.1026 101.741 12.0939 100.462 12.0939C99.1842 12.0939 98.1484 11.1026 98.1484 9.87961C98.1484 8.65646 99.1842 7.66504 100.462 7.66504C101.741 7.66504 102.777 8.65646 102.777 9.87961" fill="#E6772F"/>
<rect x="122" width="36.6667" height="22" rx="4" fill="#0072CE"/>
<path fill-rule="evenodd" clip-rule="evenodd" d="M152.949 12.7103H151.654C151.525 12.7103 151.439 12.7151 151.366 12.7638C151.291 12.8118 151.262 12.8831 151.262 12.9772C151.262 13.0891 151.326 13.1652 151.418 13.1981C151.493 13.2241 151.573 13.2317 151.692 13.2317L152.077 13.242C152.466 13.2515 152.725 13.3182 152.883 13.4806C152.912 13.5033 152.93 13.5287 152.949 13.5541V12.7103ZM152.949 14.6653C152.777 14.9171 152.44 15.0447 151.985 15.0447H150.612V14.4088H151.979C152.115 14.4088 152.21 14.391 152.267 14.3354C152.316 14.2895 152.351 14.2229 152.351 14.1419C152.351 14.0556 152.316 13.987 152.264 13.9458C152.212 13.9006 152.137 13.88 152.014 13.88C151.346 13.8574 150.514 13.9006 150.514 12.9622C150.514 12.532 150.788 12.0793 151.533 12.0793H152.949V11.4893H151.634C151.237 11.4893 150.948 11.584 150.744 11.7314V11.4893H148.798C148.487 11.4893 148.122 11.5662 147.949 11.7314V11.4893H144.475V11.7314C144.198 11.5325 143.732 11.4893 143.516 11.4893H141.224V11.7314C141.006 11.5202 140.519 11.4893 140.223 11.4893H137.658L137.071 12.1226L136.521 11.4893H132.689V15.6271H136.449L137.054 14.9838L137.623 15.6271L139.941 15.6291V14.6558H140.169C140.476 14.6605 140.839 14.6482 141.159 14.5103V15.627H143.07V14.5485H143.162C143.28 14.5485 143.291 14.5534 143.291 14.6706V15.6269H149.098C149.467 15.6269 149.852 15.5328 150.065 15.3621V15.6269H151.907C152.29 15.6269 152.665 15.5733 152.949 15.4362V14.6653V14.6653ZM150.114 13.4806C150.252 13.6235 150.327 13.8037 150.327 14.1089C150.327 14.7469 149.927 15.0447 149.21 15.0447H147.826V14.4088H149.204C149.339 14.4088 149.435 14.391 149.495 14.3354C149.544 14.2895 149.579 14.2229 149.579 14.1419C149.579 14.0556 149.541 13.987 149.492 13.9458C149.438 13.9006 149.363 13.88 149.239 13.88C148.574 13.8574 147.742 13.9006 147.742 12.9622C147.742 12.532 148.013 12.0793 148.758 12.0793H150.183V12.7104H148.879C148.75 12.7104 148.666 12.7153 148.594 12.764C148.516 12.812 148.488 12.8833 148.488 12.9774C148.488 13.0892 148.554 13.1653 148.643 13.1982C148.718 13.2243 148.799 13.2319 148.92 13.2319L149.302 13.2422C149.688 13.2515 149.953 13.3181 150.114 13.4806V13.4806ZM143.7 13.2975C143.605 13.3538 143.488 13.3586 143.349 13.3586H142.486V12.6925H143.361C143.488 12.6925 143.614 12.6952 143.7 12.7461C143.792 12.7941 143.847 12.886 143.847 13.0129C143.847 13.1398 143.792 13.242 143.7 13.2975V13.2975ZM144.129 13.6666C144.288 13.7248 144.417 13.8291 144.478 13.9155C144.578 14.0603 144.593 14.1954 144.595 14.4568V15.0447H143.882V14.6737C143.882 14.4952 143.899 14.2311 143.767 14.0932C143.663 13.987 143.505 13.9616 143.245 13.9616H142.486V15.0447H141.772V12.0792H143.413C143.772 12.0792 144.035 12.095 144.268 12.2191C144.492 12.3543 144.633 12.5394 144.633 12.8777C144.633 13.351 144.317 13.5925 144.129 13.6666V13.6666ZM145.027 12.0792H147.4V12.6925H145.735V13.2316H147.359V13.8366H145.735V14.4267L147.4 14.4293V15.0447H145.027V12.0792V12.0792ZM140.232 13.4477H139.313V12.6925H140.24C140.497 12.6925 140.675 12.7968 140.675 13.0561C140.675 13.3126 140.505 13.4477 140.232 13.4477V13.4477ZM138.605 14.775L137.514 13.567L138.605 12.3975V14.775V14.775ZM135.787 14.4267H134.039V13.8366H135.6V13.2316H134.039V12.6925H135.821L136.599 13.5567L135.787 14.4267V14.4267ZM141.438 13.0561C141.438 13.8799 140.821 14.05 140.2 14.05H139.313V15.0447H137.932L137.056 14.063L136.147 15.0447H133.331V12.0792H136.19L137.065 13.0512L137.969 12.0792H140.24C140.804 12.0792 141.438 12.2349 141.438 13.0561V13.0561Z" fill="white"/>
<path fill-rule="evenodd" clip-rule="evenodd" d="M129.941 8.66201L129.455 7.48009L128.971 8.66201H129.941ZM140.659 8.19137C140.561 8.25048 140.445 8.25245 140.307 8.25245H139.443V7.59393H140.319C140.443 7.59393 140.572 7.59947 140.656 7.64741C140.748 7.6906 140.805 7.78253 140.805 7.90951C140.805 8.03908 140.751 8.14335 140.659 8.19137V8.19137ZM146.819 8.66201L146.327 7.48009L145.837 8.66201H146.819V8.66201ZM135.336 9.94131H134.607L134.605 7.61933L133.574 9.94131H132.95L131.916 7.61727V9.94131H130.471L130.198 9.28002H128.718L128.442 9.94131H127.67L128.943 6.97655H129.999L131.208 9.78357V6.97655H132.368L133.298 8.98778L134.152 6.97655H135.336V9.94131H135.336ZM138.24 9.94131H135.866V6.97655H138.24V7.59393H136.576V8.12833H138.2V8.73605H136.576V9.32813H138.24V9.94131V9.94131ZM141.588 7.77501C141.588 8.24771 141.272 8.49193 141.087 8.56525C141.243 8.62427 141.376 8.72854 141.439 8.81493C141.539 8.96239 141.556 9.09411 141.556 9.35889V9.94131H140.84L140.837 9.56743C140.837 9.38903 140.854 9.13247 140.725 8.98984C140.621 8.88557 140.462 8.86295 140.207 8.86295H139.444V9.94131H138.733V6.97655H140.368C140.731 6.97655 140.999 6.98611 141.228 7.11855C141.453 7.25099 141.588 7.44432 141.588 7.77501V7.77501ZM142.726 9.94131H142V6.97655H142.726V9.94131V9.94131ZM151.14 9.94131H150.132L148.785 7.71608V9.94131H147.337L147.061 9.28002H145.584L145.316 9.94131H144.484C144.139 9.94131 143.701 9.86512 143.453 9.61339C143.204 9.36167 143.074 9.02069 143.074 8.48155C143.074 8.04185 143.151 7.63989 143.457 7.32226C143.687 7.08564 144.047 6.97655 144.536 6.97655H145.224V7.61181H144.551C144.291 7.61181 144.145 7.65027 144.004 7.78744C143.883 7.91228 143.8 8.14827 143.8 8.45902C143.8 8.77665 143.863 9.00567 143.995 9.15527C144.104 9.2726 144.303 9.30819 144.49 9.30819H144.81L145.811 6.97664H146.876L148.08 9.78089V6.97664H149.162L150.411 9.04144V6.97664H151.14V9.94131V9.94131ZM128.876 10.5236L129.15 9.86512H129.763L130.036 10.5236H132.426V10.0202L132.639 10.5258H133.879L134.093 10.0127V10.5236H140.031L140.028 9.44268H140.143C140.224 9.44546 140.247 9.45288 140.247 9.58532V10.5236H143.319V10.272C143.566 10.4044 143.952 10.5236 144.459 10.5236H145.751L146.027 9.86512H146.64L146.911 10.5236H149.401V9.89812L149.778 10.5236H151.773V6.38867H149.798V6.87702L149.522 6.38867H147.496V6.87702L147.242 6.38867H144.505C144.047 6.38867 143.644 6.45243 143.319 6.63012V6.38867H141.43V6.63012C141.223 6.44698 140.941 6.38867 140.627 6.38867H133.727L133.264 7.45666L132.788 6.38867H130.615V6.87702L130.376 6.38867H128.522L126.768 10.5231L127.661 10.5236H128.876Z" fill="white"/>
</svg>
