<svg width="343" height="51" viewBox="0 0 343 51" fill="none" xmlns="http://www.w3.org/2000/svg">
<path d="M5.472 11.21H0V2.81H5.472V3.746H1.056V6.458H4.44V7.394H1.056V10.274H5.472V11.21Z" fill="#D7D7D7"/>
<path d="M12.9361 11.21L12.0481 9.182H8.13609L7.24809 11.21H6.15609L10.0081 2.69H10.2601L14.1121 11.21H12.9361ZM8.53209 8.27H11.6521L10.0921 4.706L8.53209 8.27Z" fill="#D7D7D7"/>
<path d="M20.551 11.21H17.707V2.81H20.551C21.143 2.81 21.691 2.914 22.195 3.122C22.699 3.322 23.135 3.606 23.503 3.974C23.871 4.342 24.159 4.786 24.367 5.306C24.583 5.826 24.691 6.394 24.691 7.01C24.691 7.626 24.583 8.194 24.367 8.714C24.159 9.234 23.871 9.678 23.503 10.046C23.135 10.414 22.699 10.702 22.195 10.91C21.691 11.11 21.143 11.21 20.551 11.21ZM20.551 3.746H18.763V10.274H20.551C20.967 10.274 21.363 10.194 21.739 10.034C22.115 9.874 22.443 9.654 22.723 9.374C23.003 9.086 23.223 8.742 23.383 8.342C23.551 7.934 23.635 7.49 23.635 7.01C23.635 6.53 23.551 6.09 23.383 5.69C23.223 5.282 23.003 4.938 22.723 4.658C22.443 4.37 22.115 4.146 21.739 3.986C21.363 3.826 20.967 3.746 20.551 3.746Z" fill="#D7D7D7"/>
<path d="M28.8434 11.318C28.4354 11.318 28.0514 11.238 27.6914 11.078C27.3314 10.918 27.0194 10.702 26.7554 10.43C26.4914 10.15 26.2834 9.818 26.1314 9.434C25.9794 9.042 25.9034 8.618 25.9034 8.162C25.9034 7.714 25.9754 7.298 26.1194 6.914C26.2714 6.53 26.4754 6.202 26.7314 5.93C26.9954 5.65 27.3034 5.43 27.6554 5.27C28.0074 5.11 28.3834 5.03 28.7834 5.03C29.1674 5.03 29.5314 5.11 29.8754 5.27C30.2194 5.422 30.5194 5.642 30.7754 5.93C31.0314 6.218 31.2354 6.578 31.3874 7.01C31.5394 7.434 31.6154 7.914 31.6154 8.45V8.522H26.9354C27.0074 9.082 27.2234 9.538 27.5834 9.89C27.9434 10.242 28.3634 10.418 28.8434 10.418C29.1474 10.418 29.4274 10.346 29.6834 10.202C29.9474 10.05 30.1594 9.85 30.3194 9.602H31.4474C31.2314 10.122 30.8874 10.538 30.4154 10.85C29.9514 11.162 29.4274 11.318 28.8434 11.318ZM28.7714 5.942C28.3234 5.942 27.9274 6.106 27.5834 6.434C27.2474 6.762 27.0354 7.182 26.9474 7.694H30.5594C30.4794 7.182 30.2714 6.762 29.9354 6.434C29.5994 6.106 29.2114 5.942 28.7714 5.942Z" fill="#D7D7D7"/>
<path d="M32.7826 6.83C32.7906 6.294 32.9946 5.862 33.3946 5.534C33.8026 5.206 34.3066 5.042 34.9066 5.042C35.6026 5.042 36.1866 5.242 36.6586 5.642C37.1306 6.034 37.3826 6.538 37.4146 7.154H36.4306C36.3986 6.778 36.2426 6.478 35.9626 6.254C35.6906 6.022 35.3426 5.906 34.9186 5.906C34.5666 5.906 34.2866 5.986 34.0786 6.146C33.8786 6.306 33.7786 6.51 33.7786 6.758C33.7786 7.046 33.9186 7.254 34.1986 7.382C34.4786 7.51 34.8026 7.622 35.1706 7.718C35.4346 7.782 35.7026 7.854 35.9746 7.934C36.2546 8.006 36.5026 8.106 36.7186 8.234C36.9426 8.354 37.1266 8.518 37.2706 8.726C37.4146 8.926 37.4866 9.186 37.4866 9.506C37.4866 10.066 37.2706 10.51 36.8386 10.838C36.4066 11.158 35.8786 11.318 35.2546 11.318C34.5346 11.318 33.9386 11.114 33.4666 10.706C32.9946 10.298 32.7426 9.774 32.7106 9.134H33.6946C33.7186 9.526 33.8786 9.846 34.1746 10.094C34.4786 10.342 34.8426 10.466 35.2666 10.466C35.6106 10.466 35.8986 10.39 36.1306 10.238C36.3706 10.086 36.4906 9.874 36.4906 9.602C36.4906 9.29 36.3266 9.074 35.9986 8.954C35.6786 8.826 35.3146 8.71 34.9066 8.606C34.6586 8.55 34.4066 8.482 34.1506 8.402C33.8946 8.322 33.6666 8.218 33.4666 8.09C33.2666 7.962 33.1026 7.798 32.9746 7.598C32.8466 7.39 32.7826 7.134 32.7826 6.83Z" fill="#D7D7D7"/>
<path d="M39.7957 2.078V11.21H38.7877V2.474L39.7957 2.078ZM39.9277 8.21L42.5917 5.15H43.7317L41.1277 8.138L43.7797 11.21H42.4837L39.9277 8.21Z" fill="#D7D7D7"/>
<path d="M45.7013 9.734V6.014H44.1653V5.15H45.7013V3.722L46.6973 3.362V5.15H48.4853V6.014H46.6973V9.686C46.6973 9.894 46.7533 10.054 46.8653 10.166C46.9773 10.27 47.1453 10.322 47.3693 10.322H48.4853V11.21H47.1173C46.6613 11.21 46.3093 11.086 46.0613 10.838C45.8213 10.582 45.7013 10.214 45.7013 9.734Z" fill="#D7D7D7"/>
<path d="M52.2575 11.318C51.8495 11.318 51.4655 11.238 51.1055 11.078C50.7455 10.918 50.4335 10.702 50.1695 10.43C49.9055 10.15 49.6975 9.818 49.5455 9.434C49.3935 9.042 49.3175 8.618 49.3175 8.162C49.3175 7.714 49.3935 7.298 49.5455 6.914C49.6975 6.53 49.9055 6.202 50.1695 5.93C50.4335 5.65 50.7455 5.43 51.1055 5.27C51.4655 5.11 51.8495 5.03 52.2575 5.03C52.6655 5.03 53.0495 5.11 53.4095 5.27C53.7695 5.43 54.0775 5.65 54.3335 5.93C54.5975 6.202 54.8055 6.53 54.9575 6.914C55.1095 7.298 55.1855 7.714 55.1855 8.162C55.1855 8.618 55.1095 9.042 54.9575 9.434C54.8055 9.818 54.5975 10.15 54.3335 10.43C54.0775 10.702 53.7695 10.918 53.4095 11.078C53.0495 11.238 52.6655 11.318 52.2575 11.318ZM52.2575 10.418C52.7855 10.418 53.2375 10.206 53.6135 9.782C53.9895 9.358 54.1775 8.822 54.1775 8.174C54.1775 7.534 53.9895 7.002 53.6135 6.578C53.2375 6.146 52.7855 5.93 52.2575 5.93C51.7215 5.93 51.2655 6.146 50.8895 6.578C50.5135 7.002 50.3255 7.534 50.3255 8.174C50.3255 8.822 50.5135 9.358 50.8895 9.782C51.2655 10.206 51.7215 10.418 52.2575 10.418Z" fill="#D7D7D7"/>
<path d="M57.573 13.922H56.565V5.15H57.573V6.182C57.813 5.83 58.113 5.554 58.473 5.354C58.841 5.146 59.233 5.042 59.649 5.042C60.033 5.042 60.393 5.122 60.729 5.282C61.065 5.442 61.357 5.662 61.605 5.942C61.853 6.214 62.049 6.542 62.193 6.926C62.337 7.302 62.409 7.714 62.409 8.162C62.409 8.61 62.337 9.03 62.193 9.422C62.049 9.806 61.853 10.138 61.605 10.418C61.357 10.69 61.061 10.906 60.717 11.066C60.381 11.226 60.021 11.306 59.637 11.306C59.221 11.306 58.833 11.206 58.473 11.006C58.113 10.798 57.813 10.518 57.573 10.166V13.922ZM59.469 5.954C58.941 5.954 58.489 6.162 58.113 6.578C57.737 6.994 57.549 7.522 57.549 8.162C57.549 8.81 57.737 9.346 58.113 9.77C58.489 10.186 58.941 10.394 59.469 10.394C60.005 10.394 60.461 10.186 60.837 9.77C61.213 9.346 61.401 8.81 61.401 8.162C61.401 7.522 61.213 6.994 60.837 6.578C60.461 6.162 60.005 5.954 59.469 5.954Z" fill="#D7D7D7"/>
<path d="M72.4908 11.21L71.6028 9.182H67.6908L66.8028 11.21H65.7108L69.5628 2.69H69.8148L73.6668 11.21H72.4908ZM68.0868 8.27H71.2068L69.6468 4.706L68.0868 8.27Z" fill="#D7D7D7"/>
<path d="M75.5027 13.922H74.4947V5.15H75.5027V6.182C75.7427 5.83 76.0427 5.554 76.4027 5.354C76.7707 5.146 77.1627 5.042 77.5787 5.042C77.9627 5.042 78.3227 5.122 78.6587 5.282C78.9947 5.442 79.2867 5.662 79.5347 5.942C79.7827 6.214 79.9787 6.542 80.1227 6.926C80.2667 7.302 80.3387 7.714 80.3387 8.162C80.3387 8.61 80.2667 9.03 80.1227 9.422C79.9787 9.806 79.7827 10.138 79.5347 10.418C79.2867 10.69 78.9907 10.906 78.6467 11.066C78.3107 11.226 77.9507 11.306 77.5667 11.306C77.1507 11.306 76.7627 11.206 76.4027 11.006C76.0427 10.798 75.7427 10.518 75.5027 10.166V13.922ZM77.3987 5.954C76.8707 5.954 76.4187 6.162 76.0427 6.578C75.6667 6.994 75.4787 7.522 75.4787 8.162C75.4787 8.81 75.6667 9.346 76.0427 9.77C76.4187 10.186 76.8707 10.394 77.3987 10.394C77.9347 10.394 78.3907 10.186 78.7667 9.77C79.1427 9.346 79.3307 8.81 79.3307 8.162C79.3307 7.522 79.1427 6.994 78.7667 6.578C78.3907 6.162 77.9347 5.954 77.3987 5.954Z" fill="#D7D7D7"/>
<path d="M82.7214 13.922H81.7134V5.15H82.7214V6.182C82.9614 5.83 83.2614 5.554 83.6214 5.354C83.9894 5.146 84.3814 5.042 84.7974 5.042C85.1814 5.042 85.5414 5.122 85.8774 5.282C86.2134 5.442 86.5054 5.662 86.7534 5.942C87.0014 6.214 87.1974 6.542 87.3414 6.926C87.4854 7.302 87.5574 7.714 87.5574 8.162C87.5574 8.61 87.4854 9.03 87.3414 9.422C87.1974 9.806 87.0014 10.138 86.7534 10.418C86.5054 10.69 86.2094 10.906 85.8654 11.066C85.5294 11.226 85.1694 11.306 84.7854 11.306C84.3694 11.306 83.9814 11.206 83.6214 11.006C83.2614 10.798 82.9614 10.518 82.7214 10.166V13.922ZM84.6174 5.954C84.0894 5.954 83.6374 6.162 83.2614 6.578C82.8854 6.994 82.6974 7.522 82.6974 8.162C82.6974 8.81 82.8854 9.346 83.2614 9.77C83.6374 10.186 84.0894 10.394 84.6174 10.394C85.1534 10.394 85.6094 10.186 85.9854 9.77C86.3614 9.346 86.5494 8.81 86.5494 8.162C86.5494 7.522 86.3614 6.994 85.9854 6.578C85.6094 6.162 85.1534 5.954 84.6174 5.954Z" fill="#D7D7D7"/>
<g clip-path="url(#clip0)">
<path d="M78.0041 28.5047C80.886 28.5047 82.9666 30.4555 82.9666 33.071C82.9666 35.7088 80.886 37.682 78.0041 37.682H74.3193V44.0217H72.4121V28.5047H78.0041ZM81.083 33.071C81.083 31.4077 79.8693 30.2558 78.0058 30.2558H74.321V35.9757H78.0058C79.8255 35.9757 81.083 34.7566 81.083 33.071Z" fill="#FF4747"/>
<path d="M69.0588 32.9591H66.1753L63.0982 39.4761L59.9554 32.9591H56.8782L61.5158 42.6253L58.4168 48.922H61.4081L69.0588 32.9591ZM50.4833 41.6508C48.8151 41.6508 47.4701 40.3422 47.4701 38.4809C47.4701 36.6179 48.8134 35.3111 50.4833 35.3111C52.1733 35.3111 53.4964 36.6196 53.4964 38.4809C53.4964 40.3422 52.175 41.6508 50.4833 41.6508ZM50.0069 44.1784C51.3502 44.1784 52.5655 43.6688 53.4745 42.8044V44.0234H56.2268V32.9591H53.4745V34.1781C52.6076 33.2914 51.4158 32.7817 50.1146 32.7817C47.2967 32.7817 44.7397 35.1768 44.7397 38.4792C44.7397 41.7834 47.2546 44.1784 50.0069 44.1784ZM43.3089 27.6163L40.5567 28.503V44.0217H43.3089V27.6163ZM33.7509 35.7536H30.2833V31.2304H33.7509C35.1818 31.2304 36.1783 32.1619 36.1783 33.4911C36.1783 34.8221 35.1818 35.7536 33.7509 35.7536ZM27.292 28.503V44.0217H30.2833V38.369H33.9681C36.9375 38.369 39.1477 36.2632 39.1477 33.4033C39.1477 30.5657 37.0233 28.503 34.0758 28.503H27.292V28.503Z" fill="#FF4747"/>
<path d="M95.5591 42.5375C93.5441 42.5375 91.9399 40.8966 91.9399 38.6135C91.9399 36.3304 93.5441 34.6895 95.5591 34.6895C97.574 34.6895 99.1782 36.3304 99.1782 38.6135C99.1782 40.8966 97.5757 42.5375 95.5591 42.5375ZM95.5591 33.0038C92.5038 33.0038 90.1185 35.3765 90.1185 38.6118C90.1185 41.8488 92.5021 44.2214 95.5591 44.2214C98.616 44.2214 101 41.8488 101 38.6118C101 35.3765 98.616 33.0038 95.5591 33.0038ZM86.1964 33.2259H84.375V44.0234H86.1964V37.7474C86.1964 35.819 87.8444 34.3778 89.8155 34.7549V32.9814C88.1894 32.7593 86.8899 33.5135 86.1964 35.0872V33.2259Z" fill="#FF4747"/>
<g clip-path="url(#clip1)">
<path d="M10.0808 25.922C4.51326 25.922 0 30.5396 0 36.2333C0 41.9293 4.51326 46.5445 10.0808 46.5445C15.6484 46.5445 20.1617 41.9293 20.1617 36.2333C20.1617 30.5396 15.6484 25.922 10.0808 25.922ZM6.06433 32.1766H11.8591L10.9791 33.6176H5.18439L6.06433 32.1766ZM15.7459 39.3782L14.8648 37.9395H12.2927L13.1749 36.4985H13.9872L13.0051 34.8943L10.2655 39.377H2.95759L4.71746 36.4973H3.42567L4.30446 35.0563H9.95463L9.07469 36.4996H6.37982L5.49874 37.9407H9.48426L13.0051 32.1766L17.406 39.3793H15.7459V39.3782Z" fill="#FF4747"/>
</g>
</g>
<path d="M117.648 46.078L116.916 44.446H113.544L112.836 46.078H111L115.08 37.51H115.44L119.52 46.078H117.648ZM114.144 43.09H116.304L115.212 40.63L114.144 43.09Z" fill="white"/>
<path d="M121.908 42.406V46.078H120.276V39.934H121.908V40.87C122.052 40.558 122.284 40.306 122.604 40.114C122.924 39.914 123.288 39.814 123.696 39.814C124.376 39.814 124.904 40.046 125.28 40.51C125.656 40.974 125.844 41.562 125.844 42.274V46.078H124.212V42.478C124.212 42.086 124.104 41.774 123.888 41.542C123.672 41.302 123.392 41.182 123.048 41.182C122.696 41.182 122.416 41.302 122.208 41.542C122.008 41.774 121.908 42.062 121.908 42.406Z" fill="white"/>
<path d="M128.986 42.406V46.078H127.354V39.934H128.986V40.87C129.13 40.558 129.362 40.306 129.682 40.114C130.002 39.914 130.366 39.814 130.774 39.814C131.454 39.814 131.982 40.046 132.358 40.51C132.734 40.974 132.922 41.562 132.922 42.274V46.078H131.29V42.478C131.29 42.086 131.182 41.774 130.966 41.542C130.75 41.302 130.47 41.182 130.126 41.182C129.774 41.182 129.494 41.302 129.286 41.542C129.086 41.774 128.986 42.062 128.986 42.406Z" fill="white"/>
<path d="M138.368 46.078V45.142C138.224 45.454 137.992 45.71 137.672 45.91C137.352 46.102 136.988 46.198 136.58 46.198C135.9 46.198 135.372 45.966 134.996 45.502C134.62 45.038 134.432 44.45 134.432 43.738V39.934H136.064V43.534C136.064 43.926 136.168 44.242 136.376 44.482C136.592 44.722 136.872 44.842 137.216 44.842C137.576 44.842 137.856 44.722 138.056 44.482C138.264 44.242 138.368 43.95 138.368 43.606V39.934H140V46.078H138.368Z" fill="white"/>
<path d="M145.086 46.078V45.178C144.886 45.49 144.622 45.734 144.294 45.91C143.966 46.086 143.59 46.174 143.166 46.174C142.614 46.174 142.142 46.018 141.75 45.706C141.366 45.386 141.174 44.966 141.174 44.446C141.174 43.902 141.362 43.486 141.738 43.198C142.122 42.91 142.61 42.738 143.202 42.682L145.086 42.514V42.322C145.086 41.93 144.982 41.642 144.774 41.458C144.574 41.274 144.322 41.182 144.018 41.182C143.714 41.182 143.466 41.254 143.274 41.398C143.09 41.534 142.946 41.73 142.842 41.986H141.258C141.402 41.338 141.726 40.818 142.23 40.426C142.742 40.026 143.354 39.826 144.066 39.826C144.442 39.826 144.794 39.878 145.122 39.982C145.45 40.086 145.73 40.242 145.962 40.45C146.202 40.65 146.39 40.906 146.526 41.218C146.662 41.522 146.73 41.874 146.73 42.274V46.078H145.086ZM142.782 44.386C142.782 44.57 142.866 44.722 143.034 44.842C143.202 44.962 143.422 45.022 143.694 45.022C143.862 45.022 144.026 44.994 144.186 44.938C144.354 44.874 144.502 44.79 144.63 44.686C144.766 44.582 144.874 44.462 144.954 44.326C145.042 44.182 145.086 44.034 145.086 43.882V43.57L143.502 43.738C143.254 43.762 143.07 43.834 142.95 43.954C142.838 44.066 142.782 44.21 142.782 44.386Z" fill="white"/>
<path d="M149.857 36.838V46.078H148.225V37.33L149.857 36.838Z" fill="white"/>
<path d="M161.126 43.642C161.126 43.994 161.054 44.322 160.91 44.626C160.774 44.922 160.582 45.178 160.334 45.394C160.094 45.61 159.806 45.778 159.47 45.898C159.134 46.018 158.77 46.078 158.378 46.078H154.286V37.678H158.45C158.786 37.678 159.098 37.734 159.386 37.846C159.682 37.958 159.934 38.114 160.142 38.314C160.35 38.506 160.514 38.742 160.634 39.022C160.762 39.294 160.826 39.594 160.826 39.922C160.826 40.298 160.734 40.642 160.55 40.954C160.366 41.258 160.118 41.506 159.806 41.698C160.238 41.874 160.566 42.134 160.79 42.478C161.014 42.822 161.126 43.21 161.126 43.642ZM158.138 39.202H156.05V41.074H158.138C158.402 41.074 158.622 40.99 158.798 40.822C158.974 40.654 159.062 40.438 159.062 40.174C159.062 39.886 158.974 39.654 158.798 39.478C158.622 39.294 158.402 39.202 158.138 39.202ZM156.05 44.59H158.234C158.562 44.59 158.83 44.49 159.038 44.29C159.246 44.082 159.35 43.818 159.35 43.498C159.35 43.21 159.246 42.974 159.038 42.79C158.83 42.598 158.562 42.502 158.234 42.502H156.05V44.59Z" fill="white"/>
<path d="M163.279 39.058C162.991 39.058 162.747 38.958 162.547 38.758C162.347 38.558 162.247 38.314 162.247 38.026C162.247 37.738 162.347 37.494 162.547 37.294C162.747 37.086 162.991 36.982 163.279 36.982C163.567 36.982 163.811 37.086 164.011 37.294C164.211 37.494 164.311 37.738 164.311 38.026C164.311 38.314 164.211 38.558 164.011 38.758C163.811 38.958 163.567 39.058 163.279 39.058ZM162.463 46.078V39.934H164.095V46.078H162.463Z" fill="white"/>
<path d="M167.236 36.838V46.078H165.604V37.33L167.236 36.838Z" fill="white"/>
<path d="M170.388 36.838V46.078H168.756V37.33L170.388 36.838Z" fill="white"/>
<path d="M172.724 39.058C172.436 39.058 172.192 38.958 171.992 38.758C171.792 38.558 171.692 38.314 171.692 38.026C171.692 37.738 171.792 37.494 171.992 37.294C172.192 37.086 172.436 36.982 172.724 36.982C173.012 36.982 173.256 37.086 173.456 37.294C173.656 37.494 173.756 37.738 173.756 38.026C173.756 38.314 173.656 38.558 173.456 38.758C173.256 38.958 173.012 39.058 172.724 39.058ZM171.908 46.078V39.934H173.54V46.078H171.908Z" fill="white"/>
<path d="M176.681 42.406V46.078H175.049V39.934H176.681V40.87C176.825 40.558 177.057 40.306 177.377 40.114C177.697 39.914 178.061 39.814 178.469 39.814C179.149 39.814 179.677 40.046 180.053 40.51C180.429 40.974 180.617 41.562 180.617 42.274V46.078H178.985V42.478C178.985 42.086 178.877 41.774 178.661 41.542C178.445 41.302 178.165 41.182 177.821 41.182C177.469 41.182 177.189 41.302 176.981 41.542C176.781 41.774 176.681 42.062 176.681 42.406Z" fill="white"/>
<path d="M184.635 46.102C184.259 46.102 183.903 46.026 183.567 45.874C183.231 45.714 182.935 45.498 182.679 45.226C182.431 44.946 182.231 44.614 182.079 44.23C181.927 43.838 181.851 43.418 181.851 42.97C181.851 42.514 181.927 42.094 182.079 41.71C182.231 41.326 182.435 40.998 182.691 40.726C182.955 40.454 183.259 40.242 183.603 40.09C183.955 39.93 184.327 39.85 184.719 39.85C185.055 39.85 185.375 39.922 185.679 40.066C185.983 40.21 186.247 40.414 186.471 40.678V39.934H188.115V46.102C188.115 46.51 188.039 46.886 187.887 47.23C187.743 47.582 187.539 47.882 187.275 48.13C187.019 48.378 186.707 48.57 186.339 48.706C185.971 48.85 185.571 48.922 185.139 48.922C184.763 48.922 184.399 48.87 184.047 48.766C183.703 48.662 183.391 48.514 183.111 48.322C182.839 48.13 182.607 47.898 182.415 47.626C182.231 47.362 182.111 47.07 182.055 46.75H183.771C183.875 47.014 184.043 47.218 184.275 47.362C184.507 47.506 184.795 47.578 185.139 47.578C185.531 47.578 185.851 47.442 186.099 47.17C186.347 46.906 186.471 46.59 186.471 46.222V45.298C186.239 45.546 185.963 45.742 185.643 45.886C185.331 46.03 184.995 46.102 184.635 46.102ZM184.995 44.686C185.419 44.686 185.775 44.526 186.063 44.206C186.351 43.886 186.495 43.474 186.495 42.97C186.495 42.466 186.351 42.054 186.063 41.734C185.775 41.406 185.419 41.242 184.995 41.242C184.571 41.242 184.211 41.406 183.915 41.734C183.627 42.054 183.483 42.466 183.483 42.97C183.483 43.474 183.627 43.886 183.915 44.206C184.211 44.526 184.571 44.686 184.995 44.686Z" fill="white"/>
<defs>
<clipPath id="clip0">
<rect width="101" height="23" fill="white" transform="translate(0 25.922)"/>
</clipPath>
<clipPath id="clip1">
<rect width="20.1915" height="20.6531" fill="white" transform="translate(0 25.922)"/>
</clipPath>
</defs>
</svg>
