<svg width="155" height="48" viewBox="0 0 155 48" fill="none" xmlns="http://www.w3.org/2000/svg">
<path d="M24 5C13.5064 5 5 13.5086 5 24C5 34.4957 13.5064 43 24 43C34.4936 43 43 34.4957 43 24C43 13.5086 34.4936 5 24 5ZM16.4298 16.525H27.3515L25.6931 19.1803H14.7714L16.4298 16.525ZM34.6774 29.7949L33.0167 27.144H28.1689L29.8317 24.4887H31.3626L29.5117 21.5328L24.3481 29.7928H10.5744L13.8913 24.4865H11.4566L13.1129 21.8312H23.7621L22.1037 24.4908H17.0245L15.3638 27.1461H22.8756L29.5117 16.525L37.8062 29.7971H34.6774V29.7949Z" fill="#FF4747"/>
<path d="M65.02 28.7704C65.8733 28.7704 66.64 28.517 67.32 28.0104C68 27.5037 68.5 26.8104 68.82 25.9304H71.72C71.5333 26.7304 71.2333 27.4704 70.82 28.1504C70.4067 28.817 69.9067 29.3904 69.32 29.8704C68.7333 30.3504 68.0733 30.7237 67.34 30.9904C66.6067 31.257 65.8333 31.3904 65.02 31.3904C64.0467 31.3904 63.1267 31.2104 62.26 30.8504C61.4067 30.4904 60.6667 29.9904 60.04 29.3504C59.4133 28.7104 58.9133 27.9504 58.54 27.0704C58.18 26.1904 58 25.237 58 24.2104C58 23.1704 58.18 22.2104 58.54 21.3304C58.9133 20.437 59.4133 19.677 60.04 19.0504C60.6667 18.4104 61.4067 17.9104 62.26 17.5504C63.1267 17.177 64.0467 16.9904 65.02 16.9904C65.8333 16.9904 66.6067 17.1237 67.34 17.3904C68.0733 17.657 68.7333 18.0304 69.32 18.5104C69.9067 18.9904 70.4067 19.5704 70.82 20.2504C71.2333 20.917 71.5333 21.6504 71.72 22.4504H68.82C68.5 21.5704 68 20.877 67.32 20.3704C66.64 19.8637 65.8733 19.6104 65.02 19.6104C64.4467 19.6104 63.9067 19.7237 63.4 19.9504C62.9067 20.177 62.4733 20.4904 62.1 20.8904C61.74 21.2904 61.4533 21.777 61.24 22.3504C61.0267 22.9104 60.92 23.5304 60.92 24.2104C60.92 24.877 61.0267 25.4904 61.24 26.0504C61.4533 26.6104 61.74 27.0904 62.1 27.4904C62.4733 27.8904 62.9067 28.2037 63.4 28.4304C63.9067 28.657 64.4467 28.7704 65.02 28.7704Z" fill="white"/>
<path d="M76.9469 25.0704V31.1904H74.2269V16.6104H76.9469V22.5104C77.2002 21.9904 77.5869 21.5704 78.1069 21.2504C78.6402 20.917 79.2469 20.7504 79.9269 20.7504C81.0602 20.7504 81.9402 21.137 82.5669 21.9104C83.1935 22.6837 83.5069 23.6637 83.5069 24.8504V31.1904H80.7869V25.1904C80.7869 24.537 80.6069 24.017 80.2469 23.6304C79.8869 23.2304 79.4202 23.0304 78.8469 23.0304C78.2602 23.0304 77.7935 23.2304 77.4469 23.6304C77.1135 24.017 76.9469 24.497 76.9469 25.0704Z" fill="white"/>
<path d="M91.3438 31.3904C90.6104 31.3904 89.9171 31.257 89.2637 30.9904C88.6104 30.7237 88.0371 30.3637 87.5437 29.9104C87.0637 29.4437 86.6771 28.8904 86.3837 28.2504C86.1037 27.597 85.9637 26.8904 85.9637 26.1304C85.9637 25.357 86.0971 24.6437 86.3638 23.9904C86.6304 23.3237 86.9904 22.7504 87.4438 22.2704C87.9104 21.7904 88.4504 21.417 89.0638 21.1504C89.6904 20.8837 90.3438 20.7504 91.0238 20.7504C91.6504 20.7504 92.2704 20.8704 92.8838 21.1104C93.5104 21.337 94.0638 21.6837 94.5438 22.1504C95.0371 22.617 95.4371 23.217 95.7438 23.9504C96.0504 24.6837 96.2038 25.5437 96.2038 26.5304C96.2038 26.5837 96.2038 26.6437 96.2038 26.7104C96.2038 26.777 96.1971 26.837 96.1838 26.8904H88.7437C88.8904 27.557 89.1971 28.0904 89.6637 28.4904C90.1437 28.8904 90.6971 29.0904 91.3237 29.0904C91.6571 29.0904 91.9837 29.0237 92.3037 28.8904C92.6237 28.7437 92.8704 28.5104 93.0438 28.1904H96.0438C95.6838 29.1504 95.0838 29.9237 94.2438 30.5104C93.4038 31.097 92.4371 31.3904 91.3438 31.3904ZM91.0238 22.9904C90.4771 22.9904 89.9904 23.1837 89.5638 23.5704C89.1504 23.9437 88.8771 24.4637 88.7437 25.1304H93.2638C93.1838 24.477 92.9304 23.957 92.5037 23.5704C92.0904 23.1837 91.5971 22.9904 91.0238 22.9904Z" fill="white"/>
<path d="M103.36 29.0504C103.853 29.0504 104.293 28.9037 104.68 28.6104C105.066 28.317 105.366 27.9237 105.58 27.4304H108.3C108.18 28.0304 107.966 28.577 107.66 29.0704C107.353 29.5504 106.98 29.9637 106.54 30.3104C106.113 30.657 105.626 30.9237 105.08 31.1104C104.533 31.297 103.96 31.3904 103.36 31.3904C102.653 31.3904 101.986 31.257 101.36 30.9904C100.733 30.7237 100.186 30.357 99.7197 29.8904C99.253 29.4237 98.8797 28.8637 98.5997 28.2104C98.333 27.557 98.1997 26.8437 98.1997 26.0704C98.1997 25.3104 98.333 24.6037 98.5997 23.9504C98.8797 23.297 99.253 22.737 99.7197 22.2704C100.186 21.8037 100.733 21.437 101.36 21.1704C101.986 20.9037 102.653 20.7704 103.36 20.7704C103.96 20.7704 104.533 20.8704 105.08 21.0704C105.626 21.2704 106.113 21.5504 106.54 21.9104C106.98 22.257 107.353 22.6837 107.66 23.1904C107.966 23.6837 108.18 24.2304 108.3 24.8304H105.58C105.366 24.337 105.066 23.9437 104.68 23.6504C104.293 23.357 103.853 23.2104 103.36 23.2104C102.68 23.2104 102.1 23.4837 101.62 24.0304C101.153 24.5637 100.92 25.2637 100.92 26.1304C100.92 26.9704 101.153 27.6704 101.62 28.2304C102.1 28.777 102.68 29.0504 103.36 29.0504Z" fill="white"/>
<path d="M113.362 16.6104V31.1904H110.642V16.6104H113.362ZM113.502 26.1304L117.782 20.9504H120.842L116.562 25.9504L120.982 31.1904H117.622L113.502 26.1304Z" fill="white"/>
<path d="M127.071 31.3904C126.365 31.3904 125.691 31.257 125.051 30.9904C124.411 30.7237 123.858 30.357 123.391 29.8904C122.925 29.4237 122.551 28.8637 122.271 28.2104C121.991 27.557 121.851 26.8437 121.851 26.0704C121.851 25.3104 121.991 24.6037 122.271 23.9504C122.551 23.297 122.925 22.737 123.391 22.2704C123.858 21.8037 124.411 21.437 125.051 21.1704C125.691 20.9037 126.365 20.7704 127.071 20.7704C127.791 20.7704 128.465 20.9037 129.091 21.1704C129.731 21.437 130.285 21.8037 130.751 22.2704C131.218 22.737 131.585 23.297 131.851 23.9504C132.131 24.6037 132.271 25.3104 132.271 26.0704C132.271 26.8437 132.131 27.557 131.851 28.2104C131.585 28.8637 131.218 29.4237 130.751 29.8904C130.285 30.357 129.731 30.7237 129.091 30.9904C128.465 31.257 127.791 31.3904 127.071 31.3904ZM127.071 28.9904C127.765 28.9904 128.351 28.7237 128.831 28.1904C129.311 27.6437 129.551 26.9437 129.551 26.0904C129.551 25.237 129.311 24.537 128.831 23.9904C128.351 23.4437 127.765 23.1704 127.071 23.1704C126.378 23.1704 125.785 23.4437 125.291 23.9904C124.811 24.537 124.571 25.237 124.571 26.0904C124.571 26.9437 124.811 27.6437 125.291 28.1904C125.785 28.7237 126.378 28.9904 127.071 28.9904Z" fill="white"/>
<path d="M141.283 31.1904V29.6304C141.043 30.1504 140.656 30.577 140.123 30.9104C139.59 31.2304 138.983 31.3904 138.303 31.3904C137.17 31.3904 136.29 31.0037 135.663 30.2304C135.036 29.457 134.723 28.477 134.723 27.2904V20.9504H137.443V26.9504C137.443 27.6037 137.616 28.1304 137.963 28.5304C138.323 28.9304 138.79 29.1304 139.363 29.1304C139.963 29.1304 140.43 28.9304 140.763 28.5304C141.11 28.1304 141.283 27.6437 141.283 27.0704V20.9504H144.003V31.1904H141.283Z" fill="white"/>
<path d="M148.56 28.5304V23.1904H146.06V20.9504H148.56V18.2704L151.24 17.4504V20.9504H154.4V23.1904H151.24V27.9104C151.24 28.2437 151.333 28.5037 151.52 28.6904C151.72 28.8637 152.007 28.9504 152.38 28.9504H154.4V31.1904H151.54C150.607 31.1904 149.873 30.9437 149.34 30.4504C148.82 29.957 148.56 29.317 148.56 28.5304Z" fill="white"/>
</svg>
