<svg width="50" height="66" viewBox="0 0 50 66" fill="none" xmlns="http://www.w3.org/2000/svg">
<g opacity="0.47">
<path opacity="0.47" d="M31.7129 57.0519C32.0901 57.0519 32.4715 57.0519 32.6071 57.0519C32.6071 57.0519 32.6071 57.0477 32.6071 57.0392C32.302 57.0308 32.0053 57.0308 31.7129 57.0519Z" fill="#1D2031"/>
</g>
<path fill-rule="evenodd" clip-rule="evenodd" d="M37.6196 42.6021H24.5676C23.8479 42.6021 22.8012 42.7217 21.7705 43.3299C20.7331 43.942 19.7424 45.0313 19.1125 46.9157C19.1112 46.9197 19.1099 46.9238 19.1087 46.9278L18.3162 49.6559C18.3154 49.6586 18.3147 49.6613 18.314 49.6641C17.532 52.6505 16.8466 56.1074 16.6622 57.458M37.6196 42.6021C37.6365 42.5993 37.6539 42.5979 37.6716 42.5979H41.0747C41.794 42.5979 42.8419 42.7163 43.8733 43.3239C44.9114 43.9356 45.9022 45.0251 46.53 46.9119C46.5312 46.9158 46.5325 46.9197 46.5336 46.9236L47.0761 48.7918L47.3262 49.6562C47.327 49.6589 47.3277 49.6615 47.3284 49.6642C48.1104 52.6548 48.7957 56.1117 48.9801 57.4579C49.2438 59.3962 49.3236 61.1362 48.9998 62.493C48.8188 63.2526 48.5053 63.9072 48.0092 64.4067C47.5104 64.9087 46.8486 65.2324 46.0105 65.3641C44.9418 65.53 44.0655 65.4635 43.3299 65.2081C42.5925 64.9521 42.0183 64.514 41.5421 63.9727C41.0691 63.435 40.6905 62.7925 40.3421 62.1235C40.1808 61.8136 40.024 61.494 39.8671 61.1745C39.8544 61.1485 39.8416 61.1225 39.8288 61.0965C39.6586 60.7497 39.4875 60.403 39.3063 60.0606C39.1727 59.8098 39.062 59.5371 38.9592 59.2838C38.9216 59.1912 38.8851 59.1011 38.8489 59.0157C38.7075 58.6823 38.5611 58.391 38.3515 58.1506L38.3507 58.1497C38.2162 57.9942 38 57.8566 37.68 57.7429C37.361 57.6295 36.9589 57.5469 36.4759 57.4885C35.5081 57.3715 34.2677 57.3573 32.819 57.3573C31.3704 57.3573 30.13 57.3715 29.1622 57.4885C28.6791 57.5469 28.2771 57.6295 27.9581 57.7429C27.6381 57.8566 27.4219 57.9942 27.2874 58.1497C27.0791 58.3908 26.9325 58.6818 26.7906 59.0147C26.7536 59.1014 26.7163 59.1928 26.6779 59.2869C26.5751 59.5388 26.4646 59.8097 26.3321 60.06C26.1452 60.4135 25.9642 60.7826 25.7831 61.1517C25.486 61.7575 25.1887 62.3634 24.8656 62.9008C24.5994 63.3457 24.3017 63.7648 23.954 64.126C23.5052 64.5972 22.972 64.9755 22.3071 65.2063L22.3061 65.2066C21.5691 65.4599 20.6975 65.5269 19.6291 65.3643C18.4051 65.1764 17.5744 64.5739 17.0708 63.6471C16.7524 63.0612 16.5706 62.3607 16.4873 61.5803C16.404 60.8004 16.4135 59.9279 16.4908 58.9878C16.5295 58.4969 16.5897 57.9865 16.6622 57.458M37.7236 43.234C37.7067 43.2368 37.6893 43.2382 37.6716 43.2382H24.5676C23.9141 43.2382 22.9924 43.3474 22.0937 43.8777C21.2027 44.4035 20.3043 45.3608 19.7178 47.1114L18.9283 49.8293C18.1511 52.7979 17.4724 56.2264 17.2924 57.5441C17.2209 58.0658 17.1623 58.5636 17.1248 59.0384L17.1248 59.0394C17.0495 59.9545 17.042 60.7848 17.1198 61.5128C17.1975 62.2405 17.3633 62.8532 17.6297 63.3433C18.033 64.0855 18.686 64.576 19.7251 64.7355C20.716 64.8863 21.4802 64.8178 22.0992 64.6051C22.6542 64.4124 23.1039 64.0963 23.4939 63.6868L23.4951 63.6855C23.7996 63.3693 24.0695 62.9924 24.3201 62.5736L24.3205 62.573C24.6336 62.0522 24.9056 61.4967 25.1906 60.9145C25.3735 60.5408 25.5618 60.1562 25.7697 59.7628C25.8865 59.5422 25.9785 59.3166 26.0767 59.0759C26.1178 58.9753 26.16 58.872 26.2055 58.7652C26.3538 58.4172 26.5314 58.0517 26.8062 57.7337C27.0382 57.4655 27.3657 57.2784 27.7451 57.1435C28.1255 57.0083 28.5788 56.9183 29.0859 56.857C30.0982 56.7346 31.3773 56.7212 32.819 56.7212C34.2608 56.7212 35.5399 56.7346 36.5522 56.857C37.0593 56.9183 37.5126 57.0083 37.893 57.1435C38.2722 57.2783 38.5994 57.4651 38.8314 57.7331C39.1089 58.0517 39.2867 58.4189 39.4345 58.7674C39.4793 58.873 39.5207 58.9751 39.561 59.0745C39.6593 59.3166 39.7509 59.5422 39.8679 59.7619L39.8683 59.7626C40.0546 60.1148 40.2297 60.4696 40.3998 60.8161C40.4124 60.8418 40.425 60.8674 40.4375 60.893C40.5951 61.214 40.7487 61.5269 40.9063 61.8297C41.2474 62.4847 41.5979 63.073 42.0197 63.5525C42.4383 64.0284 42.9243 64.3939 43.5385 64.6072C44.1543 64.821 44.9212 64.8895 45.912 64.7357C46.6377 64.6216 47.1688 64.3501 47.5579 63.9584C47.9496 63.564 48.2189 63.0262 48.3811 62.3455C48.676 61.1098 48.6117 59.4689 48.3499 57.544C48.1699 56.2304 47.4912 52.8019 46.714 49.8291L46.7152 49.833L47.0207 49.7446L46.713 49.8251C46.7133 49.8264 46.7137 49.8277 46.714 49.8291L46.4652 48.9691L45.9245 47.107C45.9251 47.1089 45.9258 47.1108 45.9264 47.1127L46.2282 47.0123L45.9227 47.101L45.9245 47.107C45.3401 45.3543 44.4418 44.3972 43.5504 43.872C42.6513 43.3423 41.7285 43.234 41.0747 43.234H37.7236Z" fill="white"/>
<path d="M38.8314 57.7331C38.5994 57.4651 38.2722 57.2783 37.893 57.1435C37.5126 57.0083 37.0593 56.9183 36.5522 56.857C35.5399 56.7346 34.2608 56.7212 32.819 56.7212C31.3773 56.7212 30.0982 56.7346 29.0859 56.857C28.5788 56.9183 28.1255 57.0083 27.7451 57.1435C27.3657 57.2784 27.0382 57.4655 26.8062 57.7337C26.5314 58.0517 26.3538 58.4172 26.2055 58.7652C26.16 58.872 26.1178 58.9753 26.0767 59.0759C25.9785 59.3166 25.8865 59.5422 25.7697 59.7628C25.5618 60.1562 25.3735 60.5408 25.1906 60.9145C24.9056 61.4967 24.6336 62.0522 24.3205 62.573L24.3201 62.5736C24.0695 62.9924 23.7996 63.3693 23.4951 63.6855L23.4939 63.6868C23.1039 64.0963 22.6542 64.4124 22.0992 64.6051C21.4802 64.8178 20.716 64.8863 19.7251 64.7355C18.686 64.576 18.033 64.0855 17.6297 63.3433C17.3633 62.8532 17.1975 62.2405 17.1198 61.5128C17.042 60.7848 17.0495 59.9545 17.1248 59.0394L17.1248 59.0384C17.1623 58.5636 17.2209 58.0658 17.2924 57.5441C17.4724 56.2264 18.1511 52.7979 18.9283 49.8293L19.7178 47.1114C20.3043 45.3608 21.2027 44.4035 22.0937 43.8777C22.9924 43.3474 23.9141 43.2382 24.5676 43.2382H37.6716C37.6893 43.2382 37.7067 43.2368 37.7236 43.234H41.0747C41.7285 43.234 42.6513 43.3423 43.5504 43.872C44.4418 44.3972 45.3401 45.3543 45.9245 47.107M38.8314 57.7331V57.7331ZM38.8314 57.7331L38.5912 57.9416M38.8314 57.7331C39.1089 58.0517 39.2867 58.4189 39.4345 58.7674C39.4793 58.873 39.5207 58.9751 39.561 59.0745C39.6593 59.3166 39.7509 59.5422 39.8679 59.7619L39.8683 59.7626C40.0546 60.1148 40.2297 60.4696 40.3998 60.8161C40.4124 60.8418 40.425 60.8674 40.4375 60.893C40.5951 61.214 40.7487 61.5269 40.9063 61.8297C41.2474 62.4847 41.5979 63.073 42.0197 63.5525C42.4383 64.0284 42.9243 64.3939 43.5385 64.6072C44.1543 64.821 44.9212 64.8895 45.912 64.7357M45.912 64.7357V64.7357ZM45.912 64.7357L45.9611 65.0492M45.912 64.7357C46.6377 64.6216 47.1688 64.3501 47.5579 63.9584C47.9496 63.564 48.2189 63.0262 48.3811 62.3455C48.676 61.1098 48.6117 59.4689 48.3499 57.544M48.3499 57.544V57.544ZM48.3499 57.544L48.665 57.501M48.3499 57.544C48.1699 56.2304 47.4912 52.8019 46.714 49.8291M46.714 49.8291L46.7152 49.833L47.0207 49.7446L46.713 49.8251C46.7133 49.8264 46.7137 49.8277 46.714 49.8291ZM46.714 49.8291L46.4652 48.9691M46.4652 48.9691L46.7706 48.8805M46.4652 48.9691L45.9245 47.107M45.9245 47.107C45.9251 47.1089 45.9258 47.1108 45.9264 47.1127L46.2282 47.0123L45.9227 47.101L45.9245 47.107ZM37.6196 42.6021C37.6365 42.5993 37.6539 42.5979 37.6716 42.5979H41.0747C41.794 42.5979 42.8419 42.7163 43.8733 43.3239C44.9114 43.9356 45.9022 45.0251 46.53 46.9119C46.5312 46.9158 46.5325 46.9197 46.5336 46.9236L47.0761 48.7918L47.3262 49.6562C47.327 49.6589 47.3277 49.6615 47.3284 49.6642C48.1104 52.6548 48.7957 56.1117 48.9801 57.4579C49.2438 59.3962 49.3236 61.1362 48.9998 62.493C48.8188 63.2526 48.5053 63.9072 48.0092 64.4067C47.5104 64.9087 46.8486 65.2324 46.0105 65.3641C44.9418 65.53 44.0655 65.4635 43.3299 65.2081C42.5925 64.9521 42.0183 64.514 41.5421 63.9727C41.0691 63.435 40.6905 62.7925 40.3421 62.1235C40.1808 61.8136 40.024 61.494 39.8671 61.1745C39.8544 61.1485 39.8416 61.1225 39.8288 61.0965C39.6586 60.7497 39.4875 60.403 39.3063 60.0606C39.1727 59.8098 39.062 59.5371 38.9592 59.2838C38.9216 59.1912 38.8851 59.1011 38.8489 59.0157C38.7075 58.6823 38.5611 58.391 38.3515 58.1506L38.3507 58.1497C38.2162 57.9942 38 57.8566 37.68 57.7429C37.361 57.6295 36.9589 57.5469 36.4759 57.4885C35.5081 57.3715 34.2677 57.3573 32.819 57.3573C31.3704 57.3573 30.13 57.3715 29.1622 57.4885C28.6791 57.5469 28.2771 57.6295 27.9581 57.7429C27.6381 57.8566 27.4219 57.9942 27.2874 58.1497C27.0791 58.3908 26.9325 58.6818 26.7906 59.0147C26.7536 59.1014 26.7163 59.1928 26.6779 59.2869C26.5751 59.5388 26.4646 59.8097 26.3321 60.06C26.1452 60.4135 25.9642 60.7826 25.7831 61.1517C25.486 61.7575 25.1887 62.3634 24.8656 62.9008C24.5994 63.3457 24.3017 63.7648 23.954 64.126C23.5052 64.5972 22.972 64.9755 22.3071 65.2063L22.3061 65.2066C21.5691 65.4599 20.6975 65.5269 19.6291 65.3643C18.4051 65.1764 17.5744 64.5739 17.0708 63.6471C16.7524 63.0612 16.5706 62.3607 16.4873 61.5803C16.404 60.8004 16.4135 59.9279 16.4908 58.9878C16.5295 58.4969 16.5897 57.9865 16.6622 57.458C16.8466 56.1074 17.532 52.6505 18.314 49.6641C18.3147 49.6613 18.3154 49.6586 18.3162 49.6559L19.1087 46.9278C19.1099 46.9238 19.1112 46.9197 19.1125 46.9157C19.7424 45.0313 20.7331 43.942 21.7705 43.3299C22.8012 42.7217 23.8479 42.6021 24.5676 42.6021H37.6196Z" stroke="white" stroke-linecap="round" stroke-linejoin="round"/>
<path opacity="0.1" d="M26.496 53.4586C28.7761 53.4586 30.6239 51.6116 30.6239 49.3326C30.6239 47.0535 28.7761 45.2065 26.496 45.2065C24.2159 45.2065 22.3682 47.0535 22.3682 49.3326C22.3682 51.6116 24.2159 53.4586 26.496 53.4586Z" fill="white"/>
<path d="M28.2845 48.6122H27.7251C27.4411 48.6122 27.2165 48.3835 27.2165 48.1039V47.5447C27.2165 47.2609 26.9877 47.0364 26.708 47.0364H26.2926C26.0087 47.0364 25.7841 47.2651 25.7841 47.5447V48.1039C25.7841 48.3877 25.5552 48.6122 25.2755 48.6122H24.7161C24.4321 48.6122 24.2075 48.841 24.2075 49.1206V49.5357C24.2075 49.8195 24.4364 50.0441 24.7161 50.0441H25.2755C25.5594 50.0441 25.7841 50.2728 25.7841 50.5524V51.1116C25.7841 51.3954 26.0129 51.6199 26.2926 51.6199H26.708C26.9919 51.6199 27.2165 51.3912 27.2165 51.1116V50.5524C27.2165 50.2686 27.4454 50.0441 27.7251 50.0441H28.2845C28.5684 50.0441 28.7931 49.8153 28.7931 49.5357V49.1248C28.7973 48.841 28.5684 48.6122 28.2845 48.6122Z" fill="white"/>
<path fill-rule="evenodd" clip-rule="evenodd" d="M40.0662 52.6654C40.6723 52.6654 41.1681 52.1741 41.1681 51.564C41.1681 50.9583 40.6765 50.4626 40.0662 50.4626C39.4602 50.4626 38.9644 50.954 38.9644 51.564C38.9686 52.1741 39.4602 52.6654 40.0662 52.6654Z" fill="white"/>
<path fill-rule="evenodd" clip-rule="evenodd" d="M37.0273 49.4461C37.0273 50.0519 37.519 50.5475 38.1292 50.5475C38.7353 50.5475 39.2311 50.0561 39.2311 49.4461C39.2311 48.8404 38.7395 48.3447 38.1292 48.3447C37.5232 48.3447 37.0273 48.8361 37.0273 49.4461Z" fill="white"/>
<path fill-rule="evenodd" clip-rule="evenodd" d="M40.8579 49.4459C40.8579 50.0517 41.3495 50.5473 41.9598 50.5473C42.5658 50.5473 43.0617 50.0559 43.0617 49.4459C43.0617 48.8401 42.5701 48.3445 41.9598 48.3445C41.3495 48.3445 40.8579 48.8359 40.8579 49.4459Z" fill="white"/>
<path fill-rule="evenodd" clip-rule="evenodd" d="M40.0194 46.1841C39.4133 46.1841 38.9175 46.6755 38.9175 47.2855C38.9175 47.8913 39.4091 48.3869 40.0194 48.3869C40.6254 48.3869 41.1213 47.8955 41.1213 47.2855C41.1213 46.6755 40.6296 46.1841 40.0194 46.1841Z" fill="white"/>
<g filter="url(#filter0_d)">
<path d="M32.9048 55.0314C33.46 55.0314 33.9092 54.5823 33.9092 54.0274C33.9092 53.4725 33.46 53.0234 32.9048 53.0234C32.3496 53.0234 31.9004 53.4725 31.9004 54.0274C31.9004 54.5823 32.3496 55.0314 32.9048 55.0314Z" fill="white"/>
</g>
<path fill-rule="evenodd" clip-rule="evenodd" d="M3.28586 0.883545C1.7079 0.883545 0.428711 2.16273 0.428711 3.74069V61.455C0.428711 63.033 1.7079 64.3122 3.28586 64.3122H13.8573C14.1729 64.3122 14.4287 64.0563 14.4287 63.7407C14.4287 63.4252 14.1729 63.1693 13.8573 63.1693H3.28586C2.33908 63.1693 1.57157 62.4018 1.57157 61.455V3.74069C1.57157 2.79392 2.33908 2.0264 3.28586 2.0264H19.8573C20.8041 2.0264 21.5716 2.79392 21.5716 3.74069V40.3122C21.5716 40.6277 21.8274 40.8836 22.143 40.8836C22.4586 40.8836 22.7144 40.6277 22.7144 40.3122V3.74069C22.7144 2.16273 21.4353 0.883545 19.8573 0.883545H3.28586ZM12.4287 5.45498C12.4287 5.13939 12.1729 4.88355 11.8573 4.88355C11.5417 4.88355 11.2859 5.13939 11.2859 5.45498V29.7407C11.2859 30.0563 11.5417 30.3121 11.8573 30.3121C12.1729 30.3121 12.4287 30.0563 12.4287 29.7407V5.45498ZM9.00015 4.88355C9.31574 4.88355 9.57158 5.13939 9.57158 5.45498V11.7407C9.57158 12.0563 9.31574 12.3121 9.00015 12.3121C8.68456 12.3121 8.42872 12.0563 8.42872 11.7407V5.45498C8.42872 5.13939 8.68456 4.88355 9.00015 4.88355ZM14.7144 40.3122C14.7144 42.2057 13.1794 43.7407 11.2859 43.7407C9.39231 43.7407 7.85729 42.2057 7.85729 40.3122C7.85729 38.4186 9.39231 36.8836 11.2859 36.8836C13.1794 36.8836 14.7144 38.4186 14.7144 40.3122ZM15.8573 40.3122C15.8573 42.8369 13.8106 44.8836 11.2859 44.8836C8.76113 44.8836 6.71443 42.8369 6.71443 40.3122C6.71443 37.7874 8.76113 35.7407 11.2859 35.7407C13.8106 35.7407 15.8573 37.7874 15.8573 40.3122ZM8.42872 59.7407C8.42872 60.3719 7.91704 60.8836 7.28586 60.8836C6.65468 60.8836 6.143 60.3719 6.143 59.7407C6.143 59.1096 6.65468 58.5979 7.28586 58.5979C7.91704 58.5979 8.42872 59.1096 8.42872 59.7407ZM11.2859 60.8836C11.917 60.8836 12.4287 60.3719 12.4287 59.7407C12.4287 59.1096 11.917 58.5979 11.2859 58.5979C10.6547 58.5979 10.143 59.1096 10.143 59.7407C10.143 60.3719 10.6547 60.8836 11.2859 60.8836Z" fill="url(#paint0_linear)"/>
<defs>
<filter id="filter0_d" x="21.9004" y="43.0234" width="22.0088" height="22.0079" filterUnits="userSpaceOnUse" color-interpolation-filters="sRGB">
<feFlood flood-opacity="0" result="BackgroundImageFix"/>
<feColorMatrix in="SourceAlpha" type="matrix" values="0 0 0 0 0 0 0 0 0 0 0 0 0 0 0 0 0 0 127 0"/>
<feOffset/>
<feGaussianBlur stdDeviation="5"/>
<feColorMatrix type="matrix" values="0 0 0 0 1 0 0 0 0 0.278431 0 0 0 0 0.278431 0 0 0 0.4 0"/>
<feBlend mode="normal" in2="BackgroundImageFix" result="effect1_dropShadow"/>
<feBlend mode="normal" in="SourceGraphic" in2="effect1_dropShadow" result="shape"/>
</filter>
<linearGradient id="paint0_linear" x1="11.5716" y1="0.883545" x2="11.5716" y2="64.3122" gradientUnits="userSpaceOnUse">
<stop stop-color="#E518FB"/>
<stop offset="1" stop-color="#7E42F5"/>
</linearGradient>
</defs>
</svg>
