<svg width="37" height="22" viewBox="0 0 37 22" fill="none" xmlns="http://www.w3.org/2000/svg">
<rect x="0.333496" width="36.6667" height="22" rx="4" fill="white"/>
<path fill-rule="evenodd" clip-rule="evenodd" d="M9.17578 22H33.0001C35.2093 22 37.0001 20.2091 37.0001 18V12.356C37.0001 12.356 27.1733 19.0183 9.17578 22Z" fill="#E6772F"/>
<mask id="mask0" mask-type="alpha" maskUnits="userSpaceOnUse" x="9" y="12" width="29" height="10">
<path fill-rule="evenodd" clip-rule="evenodd" d="M9.17578 22H33.0001C35.2093 22 37.0001 20.2091 37.0001 18V12.356C37.0001 12.356 27.1733 19.0183 9.17578 22Z" fill="white"/>
</mask>
<g mask="url(#mask0)">
</g>
<path fill-rule="evenodd" clip-rule="evenodd" d="M7.03954 10.9348C6.76427 11.1701 6.41386 11.273 5.85352 11.273H5.621V8.46438H5.85352C6.41386 8.46438 6.75083 8.56037 7.03954 8.80744C7.33755 9.06276 7.51663 9.45662 7.51663 9.86401C7.51663 10.2734 7.33755 10.6813 7.03954 10.9348V10.9348ZM6.02708 7.74493H4.75488V11.9928H6.01933C6.69223 11.9928 7.17794 11.8396 7.60368 11.5015C8.10939 11.101 8.40947 10.4964 8.40947 9.86995C8.40947 8.61595 7.43045 7.74493 6.02708 7.74493V7.74493Z" fill="#1A1919"/>
<path fill-rule="evenodd" clip-rule="evenodd" d="M8.80859 7.74493H9.67126V11.9928H8.80859V7.74493Z" fill="#1A1919"/>
<path fill-rule="evenodd" clip-rule="evenodd" d="M11.7896 9.37296C11.2689 9.19021 11.1167 9.06849 11.1167 8.8389C11.1167 8.57204 11.3887 8.36966 11.7627 8.36966C12.022 8.36966 12.2355 8.46895 12.463 8.71157L12.9134 8.14618C12.5413 7.8328 12.0959 7.67413 11.6104 7.67413C10.8248 7.67413 10.226 8.19714 10.226 8.88871C10.226 9.47588 10.5043 9.77375 11.3167 10.0566C11.6562 10.1696 11.8288 10.2468 11.9161 10.2991C12.0892 10.4061 12.1754 10.5595 12.1754 10.7368C12.1754 11.0823 11.8893 11.3363 11.5025 11.3363C11.0907 11.3363 10.7575 11.1391 10.5581 10.7686L10 11.2859C10.399 11.8453 10.8773 12.0954 11.5363 12.0954C12.435 12.0954 13.0682 11.5196 13.0682 10.6995C13.0682 10.0238 12.7745 9.71751 11.7896 9.37296" fill="#1A1919"/>
<path fill-rule="evenodd" clip-rule="evenodd" d="M13.3403 9.86993C13.3403 11.1191 14.365 12.0871 15.6841 12.0871C16.0561 12.0871 16.3749 12.0169 16.7676 11.8396V10.8633C16.4206 11.197 16.116 11.3286 15.722 11.3286C14.8504 11.3286 14.233 10.7251 14.233 9.86399C14.233 9.05037 14.8704 8.40581 15.6841 8.40581C16.0947 8.40581 16.4084 8.54501 16.7676 8.88362V7.90853C16.3882 7.72496 16.0769 7.64893 15.7019 7.64893C14.3904 7.64893 13.3403 8.63589 13.3403 9.86993" fill="#1A1919"/>
<path fill-rule="evenodd" clip-rule="evenodd" d="M23.7814 10.5968L22.5977 7.74493H21.6538L23.5357 12.1H23.9998L25.9182 7.74493H24.9818L23.7814 10.5968" fill="#1A1919"/>
<path fill-rule="evenodd" clip-rule="evenodd" d="M26.311 11.9928H28.766V11.273H27.1772V10.1264H28.7057V9.40681H27.1772V8.46438H28.766V7.74493H26.311V11.9928" fill="#1A1919"/>
<path fill-rule="evenodd" clip-rule="evenodd" d="M30.4567 9.69825H30.2054V8.41341H30.4709C31.0117 8.41341 31.3015 8.63063 31.3015 9.04445C31.3015 9.46965 31.0117 9.69825 30.4567 9.69825V9.69825ZM32.1929 8.99827C32.1929 8.20279 31.6227 7.74493 30.6232 7.74493H29.3374V11.9928H30.2054V10.2849H30.318L31.514 11.9928H32.579L31.1824 10.2025C31.8351 10.0748 32.1929 9.64828 32.1929 8.99827V8.99827Z" fill="#1A1919"/>
<path fill-rule="evenodd" clip-rule="evenodd" d="M21.7755 9.8798C21.7755 11.1028 20.74 12.094 19.4614 12.094C18.1832 12.094 17.1475 11.1028 17.1475 9.8798C17.1475 8.65664 18.1832 7.66522 19.4614 7.66522C20.74 7.66522 21.7755 8.65664 21.7755 9.8798" fill="#E6772F"/>
</svg>
