<svg width="41" height="40" viewBox="0 0 41 40" fill="none" xmlns="http://www.w3.org/2000/svg">
<path d="M20.5833 0C9.53739 0 0.583252 8.95641 0.583252 20C0.583252 31.0481 9.53739 40 20.5833 40C31.6291 40 40.5833 31.0481 40.5833 20C40.5833 8.95641 31.6291 0 20.5833 0ZM12.6147 12.1316H24.1112L22.3654 14.9266H10.8689L12.6147 12.1316ZM31.8226 26.0999L30.0745 23.3094H24.9716L26.7219 20.5144H28.3333L26.385 17.403L20.9497 26.0976H6.45101L9.94253 20.5121H7.37966L9.12314 17.7171H20.3329L18.5871 20.5167H13.2406L11.4925 23.3117H19.3997L26.385 12.1316L35.1161 26.1022H31.8226V26.0999Z" fill="white"/>
</svg>
