<svg width="49" height="48" viewBox="0 0 49 48" fill="none" xmlns="http://www.w3.org/2000/svg">
<path d="M24.5 5C14.0064 5 5.5 13.5086 5.5 24C5.5 34.4957 14.0064 43 24.5 43C34.9936 43 43.5 34.4957 43.5 24C43.5 13.5086 34.9936 5 24.5 5ZM16.9298 16.525H27.8515L26.1931 19.1803H15.2714L16.9298 16.525ZM35.1774 29.7949L33.5167 27.144H28.6689L30.3317 24.4887H31.8626L30.0117 21.5328L24.8481 29.7928H11.0744L14.3913 24.4865H11.9566L13.6129 21.8312H24.2621L22.6037 24.4908H17.5245L15.8638 27.1461H23.3756L30.0117 16.525L38.3062 29.7971H35.1774V29.7949Z" fill="#FF4747"/>
</svg>
