<svg width="76" height="79" viewBox="0 0 76 79" fill="none" xmlns="http://www.w3.org/2000/svg">
<g clip-path="url(#clip0)">
<g clip-path="url(#clip1)">
<g clip-path="url(#clip2)">
<path d="M36.418 0C31.3074 0 27.1646 4.14285 27.1646 9.25342C27.1646 14.3651 31.3074 18.5068 36.418 18.5068C41.5285 18.5068 45.6714 14.3651 45.6714 9.25342C45.6714 4.14285 41.5285 0 36.418 0ZM32.7314 5.61185H38.0511L37.2429 6.9055H31.9244L32.7314 5.61185ZM41.6185 12.0756L40.8103 10.7854H38.4501L39.2593 9.49282H40.0056L39.1042 8.05305L36.5899 12.0756H29.8811L31.4962 9.4917H30.3105L31.1163 8.19916H36.3022L35.4952 9.4917H33.0214L32.2133 10.7842H35.8717L39.1042 5.61185L43.1436 12.0745H41.6185V12.0756Z" fill="#FF4747"/>
<path d="M50.6673 21.7382C53.3041 21.7382 55.2081 23.4825 55.2081 25.8226C55.2081 28.1817 53.3041 29.9463 50.6673 29.9463H47.2966V35.6166H45.5522V21.7382H50.6673ZM53.4828 25.8226C53.4828 24.3356 52.3724 23.3049 50.6673 23.3049H47.2966V28.42H50.6673C52.333 28.42 53.4828 27.3298 53.4828 25.8226Z" fill="#FF4747"/>
<path d="M42.4829 25.7225H39.8451L37.0285 31.5524L34.1534 25.7225H31.3379L35.5819 34.3679L32.7462 40H35.483L42.4829 25.7225ZM25.4878 33.4957C23.9615 33.4957 22.7319 32.3257 22.7319 30.66C22.7319 28.9943 23.9615 27.8243 25.4878 27.8243C27.0344 27.8243 28.2437 28.9943 28.2437 30.66C28.2437 32.3257 27.0355 33.4957 25.4878 33.4957ZM25.0517 35.756C26.2813 35.756 27.3918 35.2997 28.2246 34.5264V35.6166H30.7434V25.7214H28.2246V26.8116C27.4311 26.0181 26.3409 25.5629 25.1506 25.5629C22.5723 25.5629 20.2323 27.7041 20.2323 30.6589C20.2334 33.6149 22.5341 35.756 25.0517 35.756ZM18.924 20.9435L16.4052 21.737V35.6177H18.924V20.9435ZM10.1797 28.2211H7.00682V24.176H10.1797C11.488 24.176 12.4006 25.0088 12.4006 26.1991C12.4006 27.3882 11.488 28.2211 10.1797 28.2211ZM4.27002 21.7359V35.6177H7.00682V30.56H10.3786C13.0952 30.56 15.1183 28.6763 15.1183 26.1182C15.1183 23.5792 13.175 21.7359 10.4787 21.7359H4.27002V21.7359Z" fill="#FF4747"/>
<path d="M66.7299 34.2892C64.8855 34.2892 63.4188 32.8214 63.4188 30.7792C63.4188 28.737 64.8867 27.2691 66.7299 27.2691C68.5743 27.2691 70.0411 28.737 70.0411 30.7792C70.0411 32.8214 68.5732 34.2892 66.7299 34.2892ZM66.7299 25.7619C63.9336 25.7619 61.7531 27.8839 61.7531 30.7792C61.7531 33.6744 63.9347 35.7964 66.7299 35.7964C69.5263 35.7964 71.7067 33.6744 71.7067 30.7792C71.7067 27.8839 69.5252 25.7619 66.7299 25.7619ZM58.1632 25.9597H56.4976V35.6166H58.1632V30.0048C58.1632 28.2795 59.6704 26.9904 61.4744 27.3275V25.7417C59.9874 25.5438 58.7971 26.2171 58.1632 27.6254V25.9597Z" fill="#FF4747"/>
</g>
</g>
<path d="M8.11873 59.676V58.304C7.26939 58.1733 6.56006 57.828 5.99073 57.268C5.43073 56.6987 5.11339 55.9987 5.03873 55.168H6.90073C6.92873 55.5227 7.05006 55.8353 7.26473 56.106C7.48873 56.3673 7.77339 56.5587 8.11873 56.68V54.538C7.16673 54.2487 6.44339 53.894 5.94873 53.474C5.45406 53.0447 5.20673 52.48 5.20673 51.78C5.20673 51.0427 5.47273 50.4267 6.00473 49.932C6.53673 49.428 7.24139 49.1433 8.11873 49.078V48H9.29473V49.134C10.1254 49.274 10.8161 49.624 11.3667 50.184C11.9174 50.7347 12.2254 51.416 12.2907 52.228H10.4287C10.4007 51.892 10.2841 51.598 10.0787 51.346C9.87339 51.094 9.61206 50.9073 9.29473 50.786V53.026C10.2281 53.3153 10.9654 53.656 11.5067 54.048C12.0481 54.4307 12.3187 54.9673 12.3187 55.658C12.3187 56.3953 12.0387 57.0113 11.4787 57.506C10.9187 57.9913 10.1907 58.2713 9.29473 58.346V59.676H8.11873ZM7.08273 51.654C7.08273 51.8873 7.16673 52.088 7.33473 52.256C7.50273 52.4147 7.76406 52.564 8.11873 52.704V50.674C7.80139 50.7207 7.54939 50.8373 7.36273 51.024C7.17606 51.2013 7.08273 51.4113 7.08273 51.654ZM10.4287 55.812C10.4287 55.588 10.3354 55.4013 10.1487 55.252C9.96206 55.1027 9.67739 54.9673 9.29473 54.846V56.764C9.64006 56.7173 9.91539 56.6147 10.1207 56.456C10.3261 56.288 10.4287 56.0733 10.4287 55.812Z" fill="white"/>
<path d="M13.5273 58.626V56.96H15.8513V50.492H13.5273L14.1713 48.826H17.7693V56.96H20.0933V58.626H13.5273Z" fill="white"/>
<path d="M26.1181 52.55H27.9801V54.818H28.9321V56.47H27.9801V58.626H26.1181V56.47H20.9661V56.05L24.9421 48.784H26.8461L23.4861 54.818H26.1181V52.55Z" fill="white"/>
<path d="M31.3433 56.19C31.698 56.19 31.9966 56.316 32.2393 56.568C32.4913 56.8107 32.6173 57.1047 32.6173 57.45C32.6173 57.7953 32.4913 58.0893 32.2393 58.332C31.9966 58.5747 31.698 58.696 31.3433 58.696C30.998 58.696 30.704 58.5747 30.4613 58.332C30.228 58.0893 30.1113 57.7953 30.1113 57.45C30.1113 57.1047 30.228 56.8107 30.4613 56.568C30.704 56.316 30.998 56.19 31.3433 56.19Z" fill="white"/>
<path d="M32.1794 52.13C32.1794 51.682 32.268 51.2527 32.4454 50.842C32.6227 50.422 32.8654 50.0533 33.1734 49.736C33.4907 49.4187 33.864 49.1667 34.2934 48.98C34.732 48.7933 35.2127 48.7 35.7354 48.7C36.23 48.7 36.6967 48.7887 37.1354 48.966C37.5834 49.134 37.9707 49.372 38.2974 49.68C38.624 49.9787 38.8807 50.338 39.0674 50.758C39.2634 51.1687 39.3614 51.6167 39.3614 52.102C39.3614 52.578 39.268 53.0633 39.0814 53.558C38.904 54.0527 38.5634 54.636 38.0594 55.308L35.6794 58.668H33.6214L36.0434 55.294C35.9594 55.3033 35.866 55.3127 35.7634 55.322C35.67 55.322 35.572 55.322 35.4694 55.322C35.0214 55.322 34.5967 55.2427 34.1954 55.084C33.794 54.9253 33.444 54.706 33.1454 54.426C32.856 54.146 32.6227 53.81 32.4454 53.418C32.268 53.026 32.1794 52.5967 32.1794 52.13ZM35.7494 50.296C35.2454 50.296 34.8207 50.4733 34.4754 50.828C34.13 51.1733 33.9574 51.598 33.9574 52.102C33.9574 52.6153 34.13 53.0447 34.4754 53.39C34.8207 53.7353 35.2454 53.908 35.7494 53.908C36.272 53.908 36.706 53.7353 37.0514 53.39C37.406 53.0447 37.5834 52.6153 37.5834 52.102C37.5834 51.598 37.406 51.1733 37.0514 50.828C36.706 50.4733 36.272 50.296 35.7494 50.296Z" fill="white"/>
<path d="M40.861 52.13C40.861 51.682 40.9497 51.2527 41.127 50.842C41.3043 50.422 41.547 50.0533 41.855 49.736C42.1723 49.4187 42.5457 49.1667 42.975 48.98C43.4137 48.7933 43.8943 48.7 44.417 48.7C44.9117 48.7 45.3783 48.7887 45.817 48.966C46.265 49.134 46.6523 49.372 46.979 49.68C47.3057 49.9787 47.5623 50.338 47.749 50.758C47.945 51.1687 48.043 51.6167 48.043 52.102C48.043 52.578 47.9497 53.0633 47.763 53.558C47.5857 54.0527 47.245 54.636 46.741 55.308L44.361 58.668H42.303L44.725 55.294C44.641 55.3033 44.5477 55.3127 44.445 55.322C44.3517 55.322 44.2537 55.322 44.151 55.322C43.703 55.322 43.2783 55.2427 42.877 55.084C42.4757 54.9253 42.1257 54.706 41.827 54.426C41.5377 54.146 41.3043 53.81 41.127 53.418C40.9497 53.026 40.861 52.5967 40.861 52.13ZM44.431 50.296C43.927 50.296 43.5023 50.4733 43.157 50.828C42.8117 51.1733 42.639 51.598 42.639 52.102C42.639 52.6153 42.8117 53.0447 43.157 53.39C43.5023 53.7353 43.927 53.908 44.431 53.908C44.9537 53.908 45.3877 53.7353 45.733 53.39C46.0877 53.0447 46.265 52.6153 46.265 52.102C46.265 51.598 46.0877 51.1733 45.733 50.828C45.3877 50.4733 44.9537 50.296 44.431 50.296Z" fill="white"/>
<path d="M48.1179 61.242L53.0979 50.226H54.1419L49.1739 61.242H48.1179Z" fill="white"/>
<path d="M54.6427 58.626V52.566H55.6507V53.754C55.8027 53.298 56.0427 52.97 56.3707 52.77C56.6987 52.57 57.0467 52.47 57.4147 52.47C57.8467 52.47 58.2147 52.594 58.5187 52.842C58.8307 53.09 59.0547 53.414 59.1907 53.814C59.3427 53.382 59.5867 53.05 59.9227 52.818C60.2667 52.586 60.6427 52.47 61.0507 52.47C61.3707 52.47 61.6547 52.53 61.9027 52.65C62.1507 52.77 62.3587 52.938 62.5267 53.154C62.6947 53.362 62.8227 53.61 62.9107 53.898C62.9987 54.178 63.0427 54.482 63.0427 54.81V58.626H62.0347V54.906C62.0347 54.45 61.9067 54.074 61.6507 53.778C61.4027 53.482 61.0787 53.334 60.6787 53.334C60.3107 53.334 59.9947 53.486 59.7307 53.79C59.4747 54.086 59.3467 54.45 59.3467 54.882V58.626H58.3387V54.906C58.3387 54.45 58.2107 54.074 57.9547 53.778C57.7067 53.482 57.3827 53.334 56.9827 53.334C56.6147 53.334 56.2987 53.486 56.0347 53.79C55.7787 54.086 55.6507 54.45 55.6507 54.882V58.626H54.6427Z" fill="white"/>
<path d="M67.3626 58.734C66.9546 58.734 66.5706 58.654 66.2106 58.494C65.8506 58.334 65.5386 58.118 65.2746 57.846C65.0106 57.566 64.8026 57.234 64.6506 56.85C64.4986 56.458 64.4226 56.034 64.4226 55.578C64.4226 55.13 64.4986 54.714 64.6506 54.33C64.8026 53.946 65.0106 53.618 65.2746 53.346C65.5386 53.066 65.8506 52.846 66.2106 52.686C66.5706 52.526 66.9546 52.446 67.3626 52.446C67.7706 52.446 68.1546 52.526 68.5146 52.686C68.8746 52.846 69.1826 53.066 69.4386 53.346C69.7026 53.618 69.9106 53.946 70.0626 54.33C70.2146 54.714 70.2906 55.13 70.2906 55.578C70.2906 56.034 70.2146 56.458 70.0626 56.85C69.9106 57.234 69.7026 57.566 69.4386 57.846C69.1826 58.118 68.8746 58.334 68.5146 58.494C68.1546 58.654 67.7706 58.734 67.3626 58.734ZM67.3626 57.834C67.8906 57.834 68.3426 57.622 68.7186 57.198C69.0946 56.774 69.2826 56.238 69.2826 55.59C69.2826 54.95 69.0946 54.418 68.7186 53.994C68.3426 53.562 67.8906 53.346 67.3626 53.346C66.8266 53.346 66.3706 53.562 65.9946 53.994C65.6186 54.418 65.4306 54.95 65.4306 55.59C65.4306 56.238 65.6186 56.774 65.9946 57.198C66.3706 57.622 66.8266 57.834 67.3626 57.834Z" fill="white"/>
<path d="M3.43 76.752C2.954 76.752 2.506 76.6587 2.086 76.472C1.666 76.2853 1.302 76.0333 0.994 75.716C0.686 75.3893 0.443333 75.002 0.266 74.554C0.0886666 74.0967 0 73.602 0 73.07C0 72.5473 0.0886666 72.062 0.266 71.614C0.443333 71.166 0.686 70.7833 0.994 70.466C1.302 70.1393 1.666 69.8827 2.086 69.696C2.506 69.5093 2.954 69.416 3.43 69.416C3.906 69.416 4.354 69.5093 4.774 69.696C5.194 69.8827 5.55333 70.1393 5.852 70.466C6.16 70.7833 6.40267 71.166 6.58 71.614C6.75733 72.062 6.846 72.5473 6.846 73.07C6.846 73.602 6.75733 74.0967 6.58 74.554C6.40267 75.002 6.16 75.3893 5.852 75.716C5.55333 76.0333 5.194 76.2853 4.774 76.472C4.354 76.6587 3.906 76.752 3.43 76.752ZM3.43 75.702C4.046 75.702 4.57333 75.4547 5.012 74.96C5.45067 74.4653 5.67 73.84 5.67 73.084C5.67 72.3373 5.45067 71.7167 5.012 71.222C4.57333 70.718 4.046 70.466 3.43 70.466C2.80467 70.466 2.27267 70.718 1.834 71.222C1.39533 71.7167 1.176 72.3373 1.176 73.084C1.176 73.84 1.39533 74.4653 1.834 74.96C2.27267 75.4547 2.80467 75.702 3.43 75.702Z" fill="white"/>
<path d="M8.45545 76.626V69.556H9.63145V70.984C9.85545 70.3773 10.1961 69.9433 10.6535 69.682C11.1108 69.4113 11.6428 69.3087 12.2495 69.374V70.494C11.8948 70.4287 11.5588 70.438 11.2415 70.522C10.9241 70.606 10.6441 70.746 10.4015 70.942C10.1681 71.1287 9.98145 71.3667 9.84145 71.656C9.70145 71.9453 9.63145 72.258 9.63145 72.594V76.626H8.45545Z" fill="white"/>
<path d="M19.7037 77.676V76.304C18.8544 76.1733 18.145 75.828 17.5757 75.268C17.0157 74.6987 16.6984 73.9987 16.6237 73.168H18.4857C18.5137 73.5227 18.635 73.8353 18.8497 74.106C19.0737 74.3673 19.3584 74.5587 19.7037 74.68V72.538C18.7517 72.2487 18.0284 71.894 17.5337 71.474C17.039 71.0447 16.7917 70.48 16.7917 69.78C16.7917 69.0427 17.0577 68.4267 17.5897 67.932C18.1217 67.428 18.8264 67.1433 19.7037 67.078V66H20.8797V67.134C21.7104 67.274 22.401 67.624 22.9517 68.184C23.5024 68.7347 23.8104 69.416 23.8757 70.228H22.0137C21.9857 69.892 21.869 69.598 21.6637 69.346C21.4584 69.094 21.197 68.9073 20.8797 68.786V71.026C21.813 71.3153 22.5504 71.656 23.0917 72.048C23.633 72.4307 23.9037 72.9673 23.9037 73.658C23.9037 74.3953 23.6237 75.0113 23.0637 75.506C22.5037 75.9913 21.7757 76.2713 20.8797 76.346V77.676H19.7037ZM18.6677 69.654C18.6677 69.8873 18.7517 70.088 18.9197 70.256C19.0877 70.4147 19.349 70.564 19.7037 70.704V68.674C19.3864 68.7207 19.1344 68.8373 18.9477 69.024C18.761 69.2013 18.6677 69.4113 18.6677 69.654ZM22.0137 73.812C22.0137 73.588 21.9204 73.4013 21.7337 73.252C21.547 73.1027 21.2624 72.9673 20.8797 72.846V74.764C21.225 74.7173 21.5004 74.6147 21.7057 74.456C21.911 74.288 22.0137 74.0733 22.0137 73.812Z" fill="white"/>
<path d="M25.2663 70.13C25.2663 69.682 25.3549 69.2527 25.5323 68.842C25.7096 68.422 25.9523 68.0533 26.2603 67.736C26.5776 67.4187 26.9509 67.1667 27.3803 66.98C27.8189 66.7933 28.2996 66.7 28.8223 66.7C29.3169 66.7 29.7836 66.7887 30.2223 66.966C30.6703 67.134 31.0576 67.372 31.3843 67.68C31.7109 67.9787 31.9676 68.338 32.1543 68.758C32.3503 69.1687 32.4483 69.6167 32.4483 70.102C32.4483 70.578 32.3549 71.0633 32.1683 71.558C31.9909 72.0527 31.6503 72.636 31.1463 73.308L28.7663 76.668H26.7083L29.1303 73.294C29.0463 73.3033 28.9529 73.3127 28.8503 73.322C28.7569 73.322 28.6589 73.322 28.5563 73.322C28.1083 73.322 27.6836 73.2427 27.2823 73.084C26.8809 72.9253 26.5309 72.706 26.2323 72.426C25.9429 72.146 25.7096 71.81 25.5323 71.418C25.3549 71.026 25.2663 70.5967 25.2663 70.13ZM28.8363 68.296C28.3323 68.296 27.9076 68.4733 27.5623 68.828C27.2169 69.1733 27.0443 69.598 27.0443 70.102C27.0443 70.6153 27.2169 71.0447 27.5623 71.39C27.9076 71.7353 28.3323 71.908 28.8363 71.908C29.3589 71.908 29.7929 71.7353 30.1383 71.39C30.4929 71.0447 30.6703 70.6153 30.6703 70.102C30.6703 69.598 30.4929 69.1733 30.1383 68.828C29.7929 68.4733 29.3589 68.296 28.8363 68.296Z" fill="white"/>
<path d="M33.9479 70.13C33.9479 69.682 34.0366 69.2527 34.2139 68.842C34.3913 68.422 34.6339 68.0533 34.9419 67.736C35.2593 67.4187 35.6326 67.1667 36.0619 66.98C36.5006 66.7933 36.9813 66.7 37.5039 66.7C37.9986 66.7 38.4653 66.7887 38.9039 66.966C39.3519 67.134 39.7393 67.372 40.0659 67.68C40.3926 67.9787 40.6493 68.338 40.8359 68.758C41.0319 69.1687 41.1299 69.6167 41.1299 70.102C41.1299 70.578 41.0366 71.0633 40.8499 71.558C40.6726 72.0527 40.3319 72.636 39.8279 73.308L37.4479 76.668H35.3899L37.8119 73.294C37.7279 73.3033 37.6346 73.3127 37.5319 73.322C37.4386 73.322 37.3406 73.322 37.2379 73.322C36.7899 73.322 36.3653 73.2427 35.9639 73.084C35.5626 72.9253 35.2126 72.706 34.9139 72.426C34.6246 72.146 34.3913 71.81 34.2139 71.418C34.0366 71.026 33.9479 70.5967 33.9479 70.13ZM37.5179 68.296C37.0139 68.296 36.5893 68.4733 36.2439 68.828C35.8986 69.1733 35.7259 69.598 35.7259 70.102C35.7259 70.6153 35.8986 71.0447 36.2439 71.39C36.5893 71.7353 37.0139 71.908 37.5179 71.908C38.0406 71.908 38.4746 71.7353 38.8199 71.39C39.1746 71.0447 39.3519 70.6153 39.3519 70.102C39.3519 69.598 39.1746 69.1733 38.8199 68.828C38.4746 68.4733 38.0406 68.296 37.5179 68.296Z" fill="white"/>
<path d="M42.4497 74.19C42.8044 74.19 43.1031 74.316 43.3457 74.568C43.5977 74.8107 43.7238 75.1047 43.7238 75.45C43.7238 75.7953 43.5977 76.0893 43.3457 76.332C43.1031 76.5747 42.8044 76.696 42.4497 76.696C42.1044 76.696 41.8104 76.5747 41.5677 76.332C41.3344 76.0893 41.2178 75.7953 41.2178 75.45C41.2178 75.1047 41.3344 74.8107 41.5677 74.568C41.8104 74.316 42.1044 74.19 42.4497 74.19Z" fill="white"/>
<path d="M43.2858 70.13C43.2858 69.682 43.3745 69.2527 43.5518 68.842C43.7291 68.422 43.9718 68.0533 44.2798 67.736C44.5971 67.4187 44.9705 67.1667 45.3998 66.98C45.8385 66.7933 46.3191 66.7 46.8418 66.7C47.3365 66.7 47.8031 66.7887 48.2418 66.966C48.6898 67.134 49.0771 67.372 49.4038 67.68C49.7305 67.9787 49.9871 68.338 50.1738 68.758C50.3698 69.1687 50.4678 69.6167 50.4678 70.102C50.4678 70.578 50.3745 71.0633 50.1878 71.558C50.0105 72.0527 49.6698 72.636 49.1658 73.308L46.7858 76.668H44.7278L47.1498 73.294C47.0658 73.3033 46.9725 73.3127 46.8698 73.322C46.7765 73.322 46.6785 73.322 46.5758 73.322C46.1278 73.322 45.7031 73.2427 45.3018 73.084C44.9005 72.9253 44.5505 72.706 44.2518 72.426C43.9625 72.146 43.7291 71.81 43.5518 71.418C43.3745 71.026 43.2858 70.5967 43.2858 70.13ZM46.8558 68.296C46.3518 68.296 45.9271 68.4733 45.5818 68.828C45.2365 69.1733 45.0638 69.598 45.0638 70.102C45.0638 70.6153 45.2365 71.0447 45.5818 71.39C45.9271 71.7353 46.3518 71.908 46.8558 71.908C47.3785 71.908 47.8125 71.7353 48.1578 71.39C48.5125 71.0447 48.6898 70.6153 48.6898 70.102C48.6898 69.598 48.5125 69.1733 48.1578 68.828C47.8125 68.4733 47.3785 68.296 46.8558 68.296Z" fill="white"/>
<path d="M51.9675 70.13C51.9675 69.682 52.0561 69.2527 52.2335 68.842C52.4108 68.422 52.6535 68.0533 52.9615 67.736C53.2788 67.4187 53.6521 67.1667 54.0815 66.98C54.5201 66.7933 55.0008 66.7 55.5235 66.7C56.0181 66.7 56.4848 66.7887 56.9235 66.966C57.3715 67.134 57.7588 67.372 58.0855 67.68C58.4121 67.9787 58.6688 68.338 58.8555 68.758C59.0515 69.1687 59.1495 69.6167 59.1495 70.102C59.1495 70.578 59.0561 71.0633 58.8695 71.558C58.6921 72.0527 58.3515 72.636 57.8475 73.308L55.4675 76.668H53.4095L55.8315 73.294C55.7475 73.3033 55.6541 73.3127 55.5515 73.322C55.4581 73.322 55.3601 73.322 55.2575 73.322C54.8095 73.322 54.3848 73.2427 53.9835 73.084C53.5821 72.9253 53.2321 72.706 52.9335 72.426C52.6441 72.146 52.4108 71.81 52.2335 71.418C52.0561 71.026 51.9675 70.5967 51.9675 70.13ZM55.5375 68.296C55.0335 68.296 54.6088 68.4733 54.2635 68.828C53.9181 69.1733 53.7455 69.598 53.7455 70.102C53.7455 70.6153 53.9181 71.0447 54.2635 71.39C54.6088 71.7353 55.0335 71.908 55.5375 71.908C56.0601 71.908 56.4941 71.7353 56.8395 71.39C57.1941 71.0447 57.3715 70.6153 57.3715 70.102C57.3715 69.598 57.1941 69.1733 56.8395 68.828C56.4941 68.4733 56.0601 68.296 55.5375 68.296Z" fill="white"/>
<path d="M59.2244 79.242L64.2044 68.226H65.2484L60.2804 79.242H59.2244Z" fill="white"/>
<path d="M71.4045 70.566L67.3605 79.338H66.2325L67.9005 75.906L65.3925 70.566H66.5085L68.4405 74.79L70.3485 70.566H71.4045Z" fill="white"/>
<path d="M72.2883 76.626V70.566H73.2962V71.79C73.4882 71.27 73.7803 70.898 74.1723 70.674C74.5643 70.442 75.0203 70.354 75.5403 70.41V71.37C75.2363 71.314 74.9483 71.322 74.6763 71.394C74.4043 71.466 74.1643 71.586 73.9563 71.754C73.7563 71.914 73.5962 72.118 73.4762 72.366C73.3562 72.614 73.2962 72.882 73.2962 73.17V76.626H72.2883Z" fill="white"/>
</g>
<defs>
<clipPath id="clip0">
<rect width="75.5403" height="79" rx="4" fill="white"/>
</clipPath>
<clipPath id="clip1">
<rect width="68" height="40" fill="white" transform="translate(3.77002)"/>
</clipPath>
<clipPath id="clip2">
<rect width="67.4366" height="40" fill="white" transform="translate(4.27002)"/>
</clipPath>
</defs>
</svg>
