<svg width="76" height="79" viewBox="0 0 76 79" fill="none" xmlns="http://www.w3.org/2000/svg">
<g clip-path="url(#clip0)">
<g clip-path="url(#clip1)">
<g clip-path="url(#clip2)">
<path d="M37.5205 0C32.4149 0 28.2759 4.14355 28.2759 9.25389C28.2759 14.3655 32.4149 18.5071 37.5205 18.5071C42.6254 18.5071 46.7657 14.3655 46.7657 9.25389C46.7657 4.14355 42.626 0 37.5205 0ZM33.837 5.6122H39.1513L38.3438 6.90571H33.0296L33.837 5.6122ZM42.7158 12.0753L41.9083 10.785H39.5496L40.3583 9.49209H41.1034L40.2031 8.05273L37.691 12.0759H30.9884L32.602 9.49209H31.4172L32.2228 8.19922H37.404L36.5979 9.49209H34.1272L33.3191 10.785H36.9746L40.2037 5.6122L44.239 12.0753H42.7158V12.0753Z" fill="#FF4747"/>
<path d="M56.7251 25.7224H54.0902L51.2765 31.5524L48.4037 25.7224H45.5907L49.8303 34.368L46.9969 40H49.731L56.7251 25.7224ZM39.7464 33.4955C38.2212 33.4955 36.9925 32.3256 36.9925 30.6595C36.9925 28.994 38.2212 27.8234 39.7464 27.8234C41.2919 27.8234 42.5002 28.9934 42.5002 30.6595C42.5002 32.3256 41.2919 33.4955 39.7464 33.4955ZM39.3105 35.7564C40.5392 35.7564 41.6482 35.3004 42.4805 34.5266V35.6176H44.9964V25.7224H42.4805V26.8127C41.6877 26.0198 40.5984 25.5638 39.4098 25.5638C36.8341 25.5638 34.4964 27.7056 34.4964 30.6601C34.4964 33.6146 36.794 35.7564 39.3105 35.7564ZM33.1888 20.9432L30.6729 21.7361V35.6176H33.1888V20.9432ZM24.452 28.2208H21.282V24.1754H24.452C25.7595 24.1754 26.6707 25.0084 26.6707 26.1981C26.6707 27.3878 25.7595 28.2208 24.452 28.2208ZM18.5479 21.7361V35.6176H21.282V30.5608H24.6498C27.3636 30.5608 29.3845 28.6769 29.3845 26.1191C29.3845 23.5805 27.4431 21.7368 24.7485 21.7368H18.5479V21.7361Z" fill="#FF4747"/>
</g>
</g>
<path d="M11.564 59.676V58.304C10.7147 58.1733 10.0054 57.828 9.43604 57.268C8.87604 56.6987 8.55871 55.9987 8.48404 55.168H10.346C10.374 55.5227 10.4954 55.8353 10.71 56.106C10.934 56.3673 11.2187 56.5587 11.564 56.68V54.538C10.612 54.2487 9.88871 53.894 9.39404 53.474C8.89937 53.0447 8.65204 52.48 8.65204 51.78C8.65204 51.0427 8.91804 50.4267 9.45004 49.932C9.98204 49.428 10.6867 49.1433 11.564 49.078V48H12.74V49.134C13.5707 49.274 14.2614 49.624 14.812 50.184C15.3627 50.7347 15.6707 51.416 15.736 52.228H13.874C13.846 51.892 13.7294 51.598 13.524 51.346C13.3187 51.094 13.0574 50.9073 12.74 50.786V53.026C13.6734 53.3153 14.4107 53.656 14.952 54.048C15.4934 54.4307 15.764 54.9673 15.764 55.658C15.764 56.3953 15.484 57.0113 14.924 57.506C14.364 57.9913 13.636 58.2713 12.74 58.346V59.676H11.564ZM10.528 51.654C10.528 51.8873 10.612 52.088 10.78 52.256C10.948 52.4147 11.2094 52.564 11.564 52.704V50.674C11.2467 50.7207 10.9947 50.8373 10.808 51.024C10.6214 51.2013 10.528 51.4113 10.528 51.654ZM13.874 55.812C13.874 55.588 13.7807 55.4013 13.594 55.252C13.4074 55.1027 13.1227 54.9673 12.74 54.846V56.764C13.0854 56.7173 13.3607 56.6147 13.566 56.456C13.7714 56.288 13.874 56.0733 13.874 55.812Z" fill="white"/>
<path d="M22.1806 52.55H24.0426V54.818H24.9946V56.47H24.0426V58.626H22.1806V56.47H17.0286V56.05L21.0046 48.784H22.9086L19.5486 54.818H22.1806V52.55Z" fill="white"/>
<path d="M27.4058 56.19C27.7605 56.19 28.0591 56.316 28.3018 56.568C28.5538 56.8107 28.6798 57.1047 28.6798 57.45C28.6798 57.7953 28.5538 58.0893 28.3018 58.332C28.0591 58.5747 27.7605 58.696 27.4058 58.696C27.0605 58.696 26.7665 58.5747 26.5238 58.332C26.2905 58.0893 26.1738 57.7953 26.1738 57.45C26.1738 57.1047 26.2905 56.8107 26.5238 56.568C26.7665 56.316 27.0605 56.19 27.4058 56.19Z" fill="white"/>
<path d="M28.2419 52.13C28.2419 51.682 28.3305 51.2527 28.5079 50.842C28.6852 50.422 28.9279 50.0533 29.2359 49.736C29.5532 49.4187 29.9265 49.1667 30.3559 48.98C30.7945 48.7933 31.2752 48.7 31.7979 48.7C32.2925 48.7 32.7592 48.7887 33.1979 48.966C33.6459 49.134 34.0332 49.372 34.3599 49.68C34.6865 49.9787 34.9432 50.338 35.1299 50.758C35.3259 51.1687 35.4239 51.6167 35.4239 52.102C35.4239 52.578 35.3305 53.0633 35.1439 53.558C34.9665 54.0527 34.6259 54.636 34.1219 55.308L31.7419 58.668H29.6839L32.1059 55.294C32.0219 55.3033 31.9285 55.3127 31.8259 55.322C31.7325 55.322 31.6345 55.322 31.5319 55.322C31.0839 55.322 30.6592 55.2427 30.2579 55.084C29.8565 54.9253 29.5065 54.706 29.2079 54.426C28.9185 54.146 28.6852 53.81 28.5079 53.418C28.3305 53.026 28.2419 52.5967 28.2419 52.13ZM31.8119 50.296C31.3079 50.296 30.8832 50.4733 30.5379 50.828C30.1925 51.1733 30.0199 51.598 30.0199 52.102C30.0199 52.6153 30.1925 53.0447 30.5379 53.39C30.8832 53.7353 31.3079 53.908 31.8119 53.908C32.3345 53.908 32.7685 53.7353 33.1139 53.39C33.4685 53.0447 33.6459 52.6153 33.6459 52.102C33.6459 51.598 33.4685 51.1733 33.1139 50.828C32.7685 50.4733 32.3345 50.296 31.8119 50.296Z" fill="white"/>
<path d="M36.9235 52.13C36.9235 51.682 37.0122 51.2527 37.1895 50.842C37.3668 50.422 37.6095 50.0533 37.9175 49.736C38.2348 49.4187 38.6082 49.1667 39.0375 48.98C39.4762 48.7933 39.9568 48.7 40.4795 48.7C40.9742 48.7 41.4408 48.7887 41.8795 48.966C42.3275 49.134 42.7148 49.372 43.0415 49.68C43.3682 49.9787 43.6248 50.338 43.8115 50.758C44.0075 51.1687 44.1055 51.6167 44.1055 52.102C44.1055 52.578 44.0122 53.0633 43.8255 53.558C43.6482 54.0527 43.3075 54.636 42.8035 55.308L40.4235 58.668H38.3655L40.7875 55.294C40.7035 55.3033 40.6102 55.3127 40.5075 55.322C40.4142 55.322 40.3162 55.322 40.2135 55.322C39.7655 55.322 39.3408 55.2427 38.9395 55.084C38.5382 54.9253 38.1882 54.706 37.8895 54.426C37.6002 54.146 37.3668 53.81 37.1895 53.418C37.0122 53.026 36.9235 52.5967 36.9235 52.13ZM40.4935 50.296C39.9895 50.296 39.5648 50.4733 39.2195 50.828C38.8742 51.1733 38.7015 51.598 38.7015 52.102C38.7015 52.6153 38.8742 53.0447 39.2195 53.39C39.5648 53.7353 39.9895 53.908 40.4935 53.908C41.0162 53.908 41.4502 53.7353 41.7955 53.39C42.1502 53.0447 42.3275 52.6153 42.3275 52.102C42.3275 51.598 42.1502 51.1733 41.7955 50.828C41.4502 50.4733 41.0162 50.296 40.4935 50.296Z" fill="white"/>
<path d="M44.1804 61.242L49.1604 50.226H50.2044L45.2364 61.242H44.1804Z" fill="white"/>
<path d="M50.7052 58.626V52.566H51.7132V53.754C51.8652 53.298 52.1052 52.97 52.4332 52.77C52.7612 52.57 53.1092 52.47 53.4772 52.47C53.9092 52.47 54.2772 52.594 54.5812 52.842C54.8932 53.09 55.1172 53.414 55.2532 53.814C55.4052 53.382 55.6492 53.05 55.9852 52.818C56.3292 52.586 56.7052 52.47 57.1132 52.47C57.4332 52.47 57.7172 52.53 57.9652 52.65C58.2132 52.77 58.4212 52.938 58.5892 53.154C58.7572 53.362 58.8852 53.61 58.9732 53.898C59.0612 54.178 59.1052 54.482 59.1052 54.81V58.626H58.0972V54.906C58.0972 54.45 57.9692 54.074 57.7132 53.778C57.4652 53.482 57.1412 53.334 56.7412 53.334C56.3732 53.334 56.0572 53.486 55.7932 53.79C55.5372 54.086 55.4092 54.45 55.4092 54.882V58.626H54.4012V54.906C54.4012 54.45 54.2732 54.074 54.0172 53.778C53.7692 53.482 53.4452 53.334 53.0452 53.334C52.6772 53.334 52.3612 53.486 52.0972 53.79C51.8412 54.086 51.7132 54.45 51.7132 54.882V58.626H50.7052Z" fill="white"/>
<path d="M63.4251 58.734C63.0171 58.734 62.6331 58.654 62.2731 58.494C61.9131 58.334 61.6011 58.118 61.3371 57.846C61.0731 57.566 60.8651 57.234 60.7131 56.85C60.5611 56.458 60.4851 56.034 60.4851 55.578C60.4851 55.13 60.5611 54.714 60.7131 54.33C60.8651 53.946 61.0731 53.618 61.3371 53.346C61.6011 53.066 61.9131 52.846 62.2731 52.686C62.6331 52.526 63.0171 52.446 63.4251 52.446C63.8331 52.446 64.2171 52.526 64.5771 52.686C64.9371 52.846 65.2451 53.066 65.5011 53.346C65.7651 53.618 65.9731 53.946 66.1251 54.33C66.2771 54.714 66.3531 55.13 66.3531 55.578C66.3531 56.034 66.2771 56.458 66.1251 56.85C65.9731 57.234 65.7651 57.566 65.5011 57.846C65.2451 58.118 64.9371 58.334 64.5771 58.494C64.2171 58.654 63.8331 58.734 63.4251 58.734ZM63.4251 57.834C63.9531 57.834 64.4051 57.622 64.7811 57.198C65.1571 56.774 65.3451 56.238 65.3451 55.59C65.3451 54.95 65.1571 54.418 64.7811 53.994C64.4051 53.562 63.9531 53.346 63.4251 53.346C62.8891 53.346 62.4331 53.562 62.0571 53.994C61.6811 54.418 61.4931 54.95 61.4931 55.59C61.4931 56.238 61.6811 56.774 62.0571 57.198C62.4331 57.622 62.8891 57.834 63.4251 57.834Z" fill="white"/>
<path d="M3.43 76.752C2.954 76.752 2.506 76.6587 2.086 76.472C1.666 76.2853 1.302 76.0333 0.994 75.716C0.686 75.3893 0.443333 75.002 0.266 74.554C0.0886666 74.0967 0 73.602 0 73.07C0 72.5473 0.0886666 72.062 0.266 71.614C0.443333 71.166 0.686 70.7833 0.994 70.466C1.302 70.1393 1.666 69.8827 2.086 69.696C2.506 69.5093 2.954 69.416 3.43 69.416C3.906 69.416 4.354 69.5093 4.774 69.696C5.194 69.8827 5.55333 70.1393 5.852 70.466C6.16 70.7833 6.40267 71.166 6.58 71.614C6.75733 72.062 6.846 72.5473 6.846 73.07C6.846 73.602 6.75733 74.0967 6.58 74.554C6.40267 75.002 6.16 75.3893 5.852 75.716C5.55333 76.0333 5.194 76.2853 4.774 76.472C4.354 76.6587 3.906 76.752 3.43 76.752ZM3.43 75.702C4.046 75.702 4.57333 75.4547 5.012 74.96C5.45067 74.4653 5.67 73.84 5.67 73.084C5.67 72.3373 5.45067 71.7167 5.012 71.222C4.57333 70.718 4.046 70.466 3.43 70.466C2.80467 70.466 2.27267 70.718 1.834 71.222C1.39533 71.7167 1.176 72.3373 1.176 73.084C1.176 73.84 1.39533 74.4653 1.834 74.96C2.27267 75.4547 2.80467 75.702 3.43 75.702Z" fill="white"/>
<path d="M8.45545 76.626V69.556H9.63145V70.984C9.85545 70.3773 10.1961 69.9433 10.6535 69.682C11.1108 69.4113 11.6428 69.3087 12.2495 69.374V70.494C11.8948 70.4287 11.5588 70.438 11.2415 70.522C10.9241 70.606 10.6441 70.746 10.4015 70.942C10.1681 71.1287 9.98145 71.3667 9.84145 71.656C9.70145 71.9453 9.63145 72.258 9.63145 72.594V76.626H8.45545Z" fill="white"/>
<path d="M19.7037 77.676V76.304C18.8544 76.1733 18.145 75.828 17.5757 75.268C17.0157 74.6987 16.6984 73.9987 16.6237 73.168H18.4857C18.5137 73.5227 18.635 73.8353 18.8497 74.106C19.0737 74.3673 19.3584 74.5587 19.7037 74.68V72.538C18.7517 72.2487 18.0284 71.894 17.5337 71.474C17.039 71.0447 16.7917 70.48 16.7917 69.78C16.7917 69.0427 17.0577 68.4267 17.5897 67.932C18.1217 67.428 18.8264 67.1433 19.7037 67.078V66H20.8797V67.134C21.7104 67.274 22.401 67.624 22.9517 68.184C23.5024 68.7347 23.8104 69.416 23.8757 70.228H22.0137C21.9857 69.892 21.869 69.598 21.6637 69.346C21.4584 69.094 21.197 68.9073 20.8797 68.786V71.026C21.813 71.3153 22.5504 71.656 23.0917 72.048C23.633 72.4307 23.9037 72.9673 23.9037 73.658C23.9037 74.3953 23.6237 75.0113 23.0637 75.506C22.5037 75.9913 21.7757 76.2713 20.8797 76.346V77.676H19.7037ZM18.6677 69.654C18.6677 69.8873 18.7517 70.088 18.9197 70.256C19.0877 70.4147 19.349 70.564 19.7037 70.704V68.674C19.3864 68.7207 19.1344 68.8373 18.9477 69.024C18.761 69.2013 18.6677 69.4113 18.6677 69.654ZM22.0137 73.812C22.0137 73.588 21.9204 73.4013 21.7337 73.252C21.547 73.1027 21.2624 72.9673 20.8797 72.846V74.764C21.225 74.7173 21.5004 74.6147 21.7057 74.456C21.911 74.288 22.0137 74.0733 22.0137 73.812Z" fill="white"/>
<path d="M25.1823 76.626V76.206L28.7803 72.16C29.3496 71.5253 29.7043 71.0447 29.8443 70.718C29.9843 70.382 30.0543 70.06 30.0543 69.752C30.0543 69.3413 29.9189 69.01 29.6483 68.758C29.3776 68.4967 29.0603 68.366 28.6963 68.366C28.1923 68.366 27.7769 68.548 27.4503 68.912C27.1236 69.2667 26.9323 69.752 26.8763 70.368H25.0983C25.0983 69.7987 25.1916 69.29 25.3783 68.842C25.5743 68.3847 25.8356 67.9973 26.1623 67.68C26.4889 67.3627 26.8716 67.12 27.3103 66.952C27.7489 66.784 28.2156 66.7 28.7103 66.7C29.1676 66.7 29.5923 66.7747 29.9843 66.924C30.3856 67.0733 30.7309 67.2833 31.0203 67.554C31.3096 67.8153 31.5336 68.1327 31.6923 68.506C31.8603 68.87 31.9443 69.2667 31.9443 69.696C31.9443 69.9387 31.9209 70.172 31.8743 70.396C31.8369 70.62 31.7529 70.858 31.6223 71.11C31.4916 71.362 31.3049 71.6513 31.0623 71.978C30.8196 72.2953 30.5069 72.6687 30.1243 73.098L28.4583 74.96H32.2243V76.626H25.1823Z" fill="white"/>
<path d="M33.4557 70.13C33.4557 69.682 33.5444 69.2527 33.7217 68.842C33.8991 68.422 34.1417 68.0533 34.4497 67.736C34.7671 67.4187 35.1404 67.1667 35.5697 66.98C36.0084 66.7933 36.4891 66.7 37.0117 66.7C37.5064 66.7 37.9731 66.7887 38.4117 66.966C38.8597 67.134 39.2471 67.372 39.5737 67.68C39.9004 67.9787 40.1571 68.338 40.3437 68.758C40.5397 69.1687 40.6377 69.6167 40.6377 70.102C40.6377 70.578 40.5444 71.0633 40.3577 71.558C40.1804 72.0527 39.8397 72.636 39.3357 73.308L36.9557 76.668H34.8977L37.3197 73.294C37.2357 73.3033 37.1424 73.3127 37.0397 73.322C36.9464 73.322 36.8484 73.322 36.7457 73.322C36.2977 73.322 35.8731 73.2427 35.4717 73.084C35.0704 72.9253 34.7204 72.706 34.4217 72.426C34.1324 72.146 33.8991 71.81 33.7217 71.418C33.5444 71.026 33.4557 70.5967 33.4557 70.13ZM37.0257 68.296C36.5217 68.296 36.0971 68.4733 35.7517 68.828C35.4064 69.1733 35.2337 69.598 35.2337 70.102C35.2337 70.6153 35.4064 71.0447 35.7517 71.39C36.0971 71.7353 36.5217 71.908 37.0257 71.908C37.5484 71.908 37.9824 71.7353 38.3277 71.39C38.6824 71.0447 38.8597 70.6153 38.8597 70.102C38.8597 69.598 38.6824 69.1733 38.3277 68.828C37.9824 68.4733 37.5484 68.296 37.0257 68.296Z" fill="white"/>
<path d="M41.9576 74.19C42.3122 74.19 42.6109 74.316 42.8536 74.568C43.1056 74.8107 43.2316 75.1047 43.2316 75.45C43.2316 75.7953 43.1056 76.0893 42.8536 76.332C42.6109 76.5747 42.3122 76.696 41.9576 76.696C41.6122 76.696 41.3182 76.5747 41.0756 76.332C40.8422 76.0893 40.7256 75.7953 40.7256 75.45C40.7256 75.1047 40.8422 74.8107 41.0756 74.568C41.3182 74.316 41.6122 74.19 41.9576 74.19Z" fill="white"/>
<path d="M42.7936 70.13C42.7936 69.682 42.8823 69.2527 43.0596 68.842C43.237 68.422 43.4796 68.0533 43.7876 67.736C44.105 67.4187 44.4783 67.1667 44.9076 66.98C45.3463 66.7933 45.827 66.7 46.3496 66.7C46.8443 66.7 47.311 66.7887 47.7496 66.966C48.1976 67.134 48.585 67.372 48.9116 67.68C49.2383 67.9787 49.495 68.338 49.6816 68.758C49.8776 69.1687 49.9756 69.6167 49.9756 70.102C49.9756 70.578 49.8823 71.0633 49.6956 71.558C49.5183 72.0527 49.1776 72.636 48.6736 73.308L46.2936 76.668H44.2356L46.6576 73.294C46.5736 73.3033 46.4803 73.3127 46.3776 73.322C46.2843 73.322 46.1863 73.322 46.0836 73.322C45.6356 73.322 45.211 73.2427 44.8096 73.084C44.4083 72.9253 44.0583 72.706 43.7596 72.426C43.4703 72.146 43.237 71.81 43.0596 71.418C42.8823 71.026 42.7936 70.5967 42.7936 70.13ZM46.3636 68.296C45.8596 68.296 45.435 68.4733 45.0896 68.828C44.7443 69.1733 44.5716 69.598 44.5716 70.102C44.5716 70.6153 44.7443 71.0447 45.0896 71.39C45.435 71.7353 45.8596 71.908 46.3636 71.908C46.8863 71.908 47.3203 71.7353 47.6656 71.39C48.0203 71.0447 48.1976 70.6153 48.1976 70.102C48.1976 69.598 48.0203 69.1733 47.6656 68.828C47.3203 68.4733 46.8863 68.296 46.3636 68.296Z" fill="white"/>
<path d="M51.4753 70.13C51.4753 69.682 51.5639 69.2527 51.7413 68.842C51.9186 68.422 52.1613 68.0533 52.4693 67.736C52.7866 67.4187 53.1599 67.1667 53.5893 66.98C54.0279 66.7933 54.5086 66.7 55.0313 66.7C55.5259 66.7 55.9926 66.7887 56.4313 66.966C56.8793 67.134 57.2666 67.372 57.5933 67.68C57.9199 67.9787 58.1766 68.338 58.3633 68.758C58.5593 69.1687 58.6573 69.6167 58.6573 70.102C58.6573 70.578 58.5639 71.0633 58.3773 71.558C58.1999 72.0527 57.8593 72.636 57.3553 73.308L54.9753 76.668H52.9173L55.3393 73.294C55.2553 73.3033 55.1619 73.3127 55.0593 73.322C54.9659 73.322 54.8679 73.322 54.7653 73.322C54.3173 73.322 53.8926 73.2427 53.4913 73.084C53.0899 72.9253 52.7399 72.706 52.4413 72.426C52.1519 72.146 51.9186 71.81 51.7413 71.418C51.5639 71.026 51.4753 70.5967 51.4753 70.13ZM55.0453 68.296C54.5413 68.296 54.1166 68.4733 53.7713 68.828C53.4259 69.1733 53.2533 69.598 53.2533 70.102C53.2533 70.6153 53.4259 71.0447 53.7713 71.39C54.1166 71.7353 54.5413 71.908 55.0453 71.908C55.5679 71.908 56.0019 71.7353 56.3473 71.39C56.7019 71.0447 56.8793 70.6153 56.8793 70.102C56.8793 69.598 56.7019 69.1733 56.3473 68.828C56.0019 68.4733 55.5679 68.296 55.0453 68.296Z" fill="white"/>
<path d="M58.7322 79.242L63.7122 68.226H64.7562L59.7882 79.242H58.7322Z" fill="white"/>
<path d="M70.9123 70.566L66.8683 79.338H65.7403L67.4083 75.906L64.9003 70.566H66.0163L67.9483 74.79L69.8563 70.566H70.9123Z" fill="white"/>
<path d="M71.7961 76.626V70.566H72.8041V71.79C72.9961 71.27 73.2881 70.898 73.6801 70.674C74.0721 70.442 74.5281 70.354 75.0481 70.41V71.37C74.7441 71.314 74.4561 71.322 74.1841 71.394C73.9121 71.466 73.6721 71.586 73.4641 71.754C73.2641 71.914 73.1041 72.118 72.9841 72.366C72.8641 72.614 72.8041 72.882 72.8041 73.17V76.626H71.7961Z" fill="white"/>
</g>
<defs>
<clipPath id="clip0">
<rect width="75.0481" height="79" rx="4" fill="white"/>
</clipPath>
<clipPath id="clip1">
<rect width="39" height="40" fill="white" transform="translate(18.0239)"/>
</clipPath>
<clipPath id="clip2">
<rect width="38.1772" height="40" fill="white" transform="translate(18.5479)"/>
</clipPath>
</defs>
</svg>
