<svg width="76" height="108" viewBox="0 0 76 108" fill="none" xmlns="http://www.w3.org/2000/svg">
<g clip-path="url(#clip0)">
<g clip-path="url(#clip1)">
<g clip-path="url(#clip2)">
<path d="M36.9821 0C29.3238 0 23.1152 6.21533 23.1152 13.8808C23.1152 21.5483 29.3238 27.7607 36.9821 27.7607C44.6395 27.7607 50.85 21.5483 50.85 13.8808C50.85 6.21533 44.6405 0 36.9821 0ZM31.457 8.4183H39.4283L38.2172 10.3586H30.2458L31.457 8.4183ZM44.7751 18.1129L43.5639 16.1774H40.0258L41.2389 14.2381H42.3565L41.006 12.0791L37.2379 18.1139H27.184L29.6044 14.2381H27.8273L29.0356 12.2988H36.8075L35.5982 14.2381H31.8922L30.68 16.1774H36.1632L41.007 8.4183L47.06 18.1129H44.7751V18.1129Z" fill="#FF4747"/>
<path d="M65.7892 38.5838H61.837L57.6165 47.3288L53.3072 38.5838H49.0877L55.447 51.5523L51.197 60.0002H55.2982L65.7892 38.5838ZM40.3212 50.2435C38.0335 50.2435 36.1905 48.4886 36.1905 45.9894C36.1905 43.4913 38.0335 41.7354 40.3212 41.7354C42.6395 41.7354 44.452 43.4903 44.452 45.9894C44.452 48.4886 42.6395 50.2435 40.3212 50.2435ZM39.6674 53.6349C41.5105 53.6349 43.174 52.9509 44.4224 51.7902V53.4266H48.1962V38.5838H44.4224V40.2193C43.2332 39.0299 41.5992 38.3459 39.8163 38.3459C35.9528 38.3459 32.4462 41.5587 32.4462 45.9904C32.4462 50.4221 35.8927 53.6349 39.6674 53.6349ZM30.4849 31.415L26.7111 32.6044V53.4266H30.4849V31.415ZM17.3796 42.3315H12.6246V36.2633H17.3796C19.3409 36.2633 20.7077 37.5129 20.7077 39.2974C20.7077 41.0819 19.3409 42.3315 17.3796 42.3315ZM8.52344 32.6044V53.4266H12.6246V45.8414H17.6764C21.7471 45.8414 24.7783 43.0155 24.7783 39.1789C24.7783 35.371 21.8664 32.6054 17.8244 32.6054H8.52344V32.6044Z" fill="#FF4747"/>
</g>
</g>
<path d="M11.564 79.676V78.304C10.7147 78.1733 10.0054 77.828 9.43604 77.268C8.87604 76.6987 8.55871 75.9987 8.48404 75.168H10.346C10.374 75.5227 10.4954 75.8353 10.71 76.106C10.934 76.3673 11.2187 76.5587 11.564 76.68V74.538C10.612 74.2487 9.88871 73.894 9.39404 73.474C8.89937 73.0447 8.65204 72.48 8.65204 71.78C8.65204 71.0427 8.91804 70.4267 9.45004 69.932C9.98204 69.428 10.6867 69.1433 11.564 69.078V68H12.74V69.134C13.5707 69.274 14.2614 69.624 14.812 70.184C15.3627 70.7347 15.6707 71.416 15.736 72.228H13.874C13.846 71.892 13.7294 71.598 13.524 71.346C13.3187 71.094 13.0574 70.9073 12.74 70.786V73.026C13.6734 73.3153 14.4107 73.656 14.952 74.048C15.4934 74.4307 15.764 74.9673 15.764 75.658C15.764 76.3953 15.484 77.0113 14.924 77.506C14.364 77.9913 13.636 78.2713 12.74 78.346V79.676H11.564ZM10.528 71.654C10.528 71.8873 10.612 72.088 10.78 72.256C10.948 72.4147 11.2094 72.564 11.564 72.704V70.674C11.2467 70.7207 10.9947 70.8373 10.808 71.024C10.6214 71.2013 10.528 71.4113 10.528 71.654ZM13.874 75.812C13.874 75.588 13.7807 75.4013 13.594 75.252C13.4074 75.1027 13.1227 74.9673 12.74 74.846V76.764C13.0854 76.7173 13.3607 76.6147 13.566 76.456C13.7714 76.288 13.874 76.0733 13.874 75.812Z" fill="white"/>
<path d="M22.1806 72.55H24.0426V74.818H24.9946V76.47H24.0426V78.626H22.1806V76.47H17.0286V76.05L21.0046 68.784H22.9086L19.5486 74.818H22.1806V72.55Z" fill="white"/>
<path d="M27.4058 76.19C27.7605 76.19 28.0591 76.316 28.3018 76.568C28.5538 76.8107 28.6798 77.1047 28.6798 77.45C28.6798 77.7953 28.5538 78.0893 28.3018 78.332C28.0591 78.5747 27.7605 78.696 27.4058 78.696C27.0605 78.696 26.7665 78.5747 26.5238 78.332C26.2905 78.0893 26.1738 77.7953 26.1738 77.45C26.1738 77.1047 26.2905 76.8107 26.5238 76.568C26.7665 76.316 27.0605 76.19 27.4058 76.19Z" fill="white"/>
<path d="M28.2419 72.13C28.2419 71.682 28.3305 71.2527 28.5079 70.842C28.6852 70.422 28.9279 70.0533 29.2359 69.736C29.5532 69.4187 29.9265 69.1667 30.3559 68.98C30.7945 68.7933 31.2752 68.7 31.7979 68.7C32.2925 68.7 32.7592 68.7887 33.1979 68.966C33.6459 69.134 34.0332 69.372 34.3599 69.68C34.6865 69.9787 34.9432 70.338 35.1299 70.758C35.3259 71.1687 35.4239 71.6167 35.4239 72.102C35.4239 72.578 35.3305 73.0633 35.1439 73.558C34.9665 74.0527 34.6259 74.636 34.1219 75.308L31.7419 78.668H29.6839L32.1059 75.294C32.0219 75.3033 31.9285 75.3127 31.8259 75.322C31.7325 75.322 31.6345 75.322 31.5319 75.322C31.0839 75.322 30.6592 75.2427 30.2579 75.084C29.8565 74.9253 29.5065 74.706 29.2079 74.426C28.9185 74.146 28.6852 73.81 28.5079 73.418C28.3305 73.026 28.2419 72.5967 28.2419 72.13ZM31.8119 70.296C31.3079 70.296 30.8832 70.4733 30.5379 70.828C30.1925 71.1733 30.0199 71.598 30.0199 72.102C30.0199 72.6153 30.1925 73.0447 30.5379 73.39C30.8832 73.7353 31.3079 73.908 31.8119 73.908C32.3345 73.908 32.7685 73.7353 33.1139 73.39C33.4685 73.0447 33.6459 72.6153 33.6459 72.102C33.6459 71.598 33.4685 71.1733 33.1139 70.828C32.7685 70.4733 32.3345 70.296 31.8119 70.296Z" fill="white"/>
<path d="M36.9235 72.13C36.9235 71.682 37.0122 71.2527 37.1895 70.842C37.3668 70.422 37.6095 70.0533 37.9175 69.736C38.2348 69.4187 38.6082 69.1667 39.0375 68.98C39.4762 68.7933 39.9568 68.7 40.4795 68.7C40.9742 68.7 41.4408 68.7887 41.8795 68.966C42.3275 69.134 42.7148 69.372 43.0415 69.68C43.3682 69.9787 43.6248 70.338 43.8115 70.758C44.0075 71.1687 44.1055 71.6167 44.1055 72.102C44.1055 72.578 44.0122 73.0633 43.8255 73.558C43.6482 74.0527 43.3075 74.636 42.8035 75.308L40.4235 78.668H38.3655L40.7875 75.294C40.7035 75.3033 40.6102 75.3127 40.5075 75.322C40.4142 75.322 40.3162 75.322 40.2135 75.322C39.7655 75.322 39.3408 75.2427 38.9395 75.084C38.5382 74.9253 38.1882 74.706 37.8895 74.426C37.6002 74.146 37.3668 73.81 37.1895 73.418C37.0122 73.026 36.9235 72.5967 36.9235 72.13ZM40.4935 70.296C39.9895 70.296 39.5648 70.4733 39.2195 70.828C38.8742 71.1733 38.7015 71.598 38.7015 72.102C38.7015 72.6153 38.8742 73.0447 39.2195 73.39C39.5648 73.7353 39.9895 73.908 40.4935 73.908C41.0162 73.908 41.4502 73.7353 41.7955 73.39C42.1502 73.0447 42.3275 72.6153 42.3275 72.102C42.3275 71.598 42.1502 71.1733 41.7955 70.828C41.4502 70.4733 41.0162 70.296 40.4935 70.296Z" fill="white"/>
<path d="M44.1804 81.242L49.1604 70.226H50.2044L45.2364 81.242H44.1804Z" fill="white"/>
<path d="M50.7052 78.626V72.566H51.7132V73.754C51.8652 73.298 52.1052 72.97 52.4332 72.77C52.7612 72.57 53.1092 72.47 53.4772 72.47C53.9092 72.47 54.2772 72.594 54.5812 72.842C54.8932 73.09 55.1172 73.414 55.2532 73.814C55.4052 73.382 55.6492 73.05 55.9852 72.818C56.3292 72.586 56.7052 72.47 57.1132 72.47C57.4332 72.47 57.7172 72.53 57.9652 72.65C58.2132 72.77 58.4212 72.938 58.5892 73.154C58.7572 73.362 58.8852 73.61 58.9732 73.898C59.0612 74.178 59.1052 74.482 59.1052 74.81V78.626H58.0972V74.906C58.0972 74.45 57.9692 74.074 57.7132 73.778C57.4652 73.482 57.1412 73.334 56.7412 73.334C56.3732 73.334 56.0572 73.486 55.7932 73.79C55.5372 74.086 55.4092 74.45 55.4092 74.882V78.626H54.4012V74.906C54.4012 74.45 54.2732 74.074 54.0172 73.778C53.7692 73.482 53.4452 73.334 53.0452 73.334C52.6772 73.334 52.3612 73.486 52.0972 73.79C51.8412 74.086 51.7132 74.45 51.7132 74.882V78.626H50.7052Z" fill="white"/>
<path d="M63.4251 78.734C63.0171 78.734 62.6331 78.654 62.2731 78.494C61.9131 78.334 61.6011 78.118 61.3371 77.846C61.0731 77.566 60.8651 77.234 60.7131 76.85C60.5611 76.458 60.4851 76.034 60.4851 75.578C60.4851 75.13 60.5611 74.714 60.7131 74.33C60.8651 73.946 61.0731 73.618 61.3371 73.346C61.6011 73.066 61.9131 72.846 62.2731 72.686C62.6331 72.526 63.0171 72.446 63.4251 72.446C63.8331 72.446 64.2171 72.526 64.5771 72.686C64.9371 72.846 65.2451 73.066 65.5011 73.346C65.7651 73.618 65.9731 73.946 66.1251 74.33C66.2771 74.714 66.3531 75.13 66.3531 75.578C66.3531 76.034 66.2771 76.458 66.1251 76.85C65.9731 77.234 65.7651 77.566 65.5011 77.846C65.2451 78.118 64.9371 78.334 64.5771 78.494C64.2171 78.654 63.8331 78.734 63.4251 78.734ZM63.4251 77.834C63.9531 77.834 64.4051 77.622 64.7811 77.198C65.1571 76.774 65.3451 76.238 65.3451 75.59C65.3451 74.95 65.1571 74.418 64.7811 73.994C64.4051 73.562 63.9531 73.346 63.4251 73.346C62.8891 73.346 62.4331 73.562 62.0571 73.994C61.6811 74.418 61.4931 74.95 61.4931 75.59C61.4931 76.238 61.6811 76.774 62.0571 77.198C62.4331 77.622 62.8891 77.834 63.4251 77.834Z" fill="white"/>
<path d="M3.43 96.752C2.954 96.752 2.506 96.6587 2.086 96.472C1.666 96.2853 1.302 96.0333 0.994 95.716C0.686 95.3893 0.443333 95.002 0.266 94.554C0.0886666 94.0967 0 93.602 0 93.07C0 92.5473 0.0886666 92.062 0.266 91.614C0.443333 91.166 0.686 90.7833 0.994 90.466C1.302 90.1393 1.666 89.8827 2.086 89.696C2.506 89.5093 2.954 89.416 3.43 89.416C3.906 89.416 4.354 89.5093 4.774 89.696C5.194 89.8827 5.55333 90.1393 5.852 90.466C6.16 90.7833 6.40267 91.166 6.58 91.614C6.75733 92.062 6.846 92.5473 6.846 93.07C6.846 93.602 6.75733 94.0967 6.58 94.554C6.40267 95.002 6.16 95.3893 5.852 95.716C5.55333 96.0333 5.194 96.2853 4.774 96.472C4.354 96.6587 3.906 96.752 3.43 96.752ZM3.43 95.702C4.046 95.702 4.57333 95.4547 5.012 94.96C5.45067 94.4653 5.67 93.84 5.67 93.084C5.67 92.3373 5.45067 91.7167 5.012 91.222C4.57333 90.718 4.046 90.466 3.43 90.466C2.80467 90.466 2.27267 90.718 1.834 91.222C1.39533 91.7167 1.176 92.3373 1.176 93.084C1.176 93.84 1.39533 94.4653 1.834 94.96C2.27267 95.4547 2.80467 95.702 3.43 95.702Z" fill="white"/>
<path d="M8.45545 96.626V89.556H9.63145V90.984C9.85545 90.3773 10.1961 89.9433 10.6535 89.682C11.1108 89.4113 11.6428 89.3087 12.2495 89.374V90.494C11.8948 90.4287 11.5588 90.438 11.2415 90.522C10.9241 90.606 10.6441 90.746 10.4015 90.942C10.1681 91.1287 9.98145 91.3667 9.84145 91.656C9.70145 91.9453 9.63145 92.258 9.63145 92.594V96.626H8.45545Z" fill="white"/>
<path d="M19.7037 97.676V96.304C18.8544 96.1733 18.145 95.828 17.5757 95.268C17.0157 94.6987 16.6984 93.9987 16.6237 93.168H18.4857C18.5137 93.5227 18.635 93.8353 18.8497 94.106C19.0737 94.3673 19.3584 94.5587 19.7037 94.68V92.538C18.7517 92.2487 18.0284 91.894 17.5337 91.474C17.039 91.0447 16.7917 90.48 16.7917 89.78C16.7917 89.0427 17.0577 88.4267 17.5897 87.932C18.1217 87.428 18.8264 87.1433 19.7037 87.078V86H20.8797V87.134C21.7104 87.274 22.401 87.624 22.9517 88.184C23.5024 88.7347 23.8104 89.416 23.8757 90.228H22.0137C21.9857 89.892 21.869 89.598 21.6637 89.346C21.4584 89.094 21.197 88.9073 20.8797 88.786V91.026C21.813 91.3153 22.5504 91.656 23.0917 92.048C23.633 92.4307 23.9037 92.9673 23.9037 93.658C23.9037 94.3953 23.6237 95.0113 23.0637 95.506C22.5037 95.9913 21.7757 96.2713 20.8797 96.346V97.676H19.7037ZM18.6677 89.654C18.6677 89.8873 18.7517 90.088 18.9197 90.256C19.0877 90.4147 19.349 90.564 19.7037 90.704V88.674C19.3864 88.7207 19.1344 88.8373 18.9477 89.024C18.761 89.2013 18.6677 89.4113 18.6677 89.654ZM22.0137 93.812C22.0137 93.588 21.9204 93.4013 21.7337 93.252C21.547 93.1027 21.2624 92.9673 20.8797 92.846V94.764C21.225 94.7173 21.5004 94.6147 21.7057 94.456C21.911 94.288 22.0137 94.0733 22.0137 93.812Z" fill="white"/>
<path d="M25.1823 96.626V96.206L28.7803 92.16C29.3496 91.5253 29.7043 91.0447 29.8443 90.718C29.9843 90.382 30.0543 90.06 30.0543 89.752C30.0543 89.3413 29.9189 89.01 29.6483 88.758C29.3776 88.4967 29.0603 88.366 28.6963 88.366C28.1923 88.366 27.7769 88.548 27.4503 88.912C27.1236 89.2667 26.9323 89.752 26.8763 90.368H25.0983C25.0983 89.7987 25.1916 89.29 25.3783 88.842C25.5743 88.3847 25.8356 87.9973 26.1623 87.68C26.4889 87.3627 26.8716 87.12 27.3103 86.952C27.7489 86.784 28.2156 86.7 28.7103 86.7C29.1676 86.7 29.5923 86.7747 29.9843 86.924C30.3856 87.0733 30.7309 87.2833 31.0203 87.554C31.3096 87.8153 31.5336 88.1327 31.6923 88.506C31.8603 88.87 31.9443 89.2667 31.9443 89.696C31.9443 89.9387 31.9209 90.172 31.8743 90.396C31.8369 90.62 31.7529 90.858 31.6223 91.11C31.4916 91.362 31.3049 91.6513 31.0623 91.978C30.8196 92.2953 30.5069 92.6687 30.1243 93.098L28.4583 94.96H32.2243V96.626H25.1823Z" fill="white"/>
<path d="M33.4557 90.13C33.4557 89.682 33.5444 89.2527 33.7217 88.842C33.8991 88.422 34.1417 88.0533 34.4497 87.736C34.7671 87.4187 35.1404 87.1667 35.5697 86.98C36.0084 86.7933 36.4891 86.7 37.0117 86.7C37.5064 86.7 37.9731 86.7887 38.4117 86.966C38.8597 87.134 39.2471 87.372 39.5737 87.68C39.9004 87.9787 40.1571 88.338 40.3437 88.758C40.5397 89.1687 40.6377 89.6167 40.6377 90.102C40.6377 90.578 40.5444 91.0633 40.3577 91.558C40.1804 92.0527 39.8397 92.636 39.3357 93.308L36.9557 96.668H34.8977L37.3197 93.294C37.2357 93.3033 37.1424 93.3127 37.0397 93.322C36.9464 93.322 36.8484 93.322 36.7457 93.322C36.2977 93.322 35.8731 93.2427 35.4717 93.084C35.0704 92.9253 34.7204 92.706 34.4217 92.426C34.1324 92.146 33.8991 91.81 33.7217 91.418C33.5444 91.026 33.4557 90.5967 33.4557 90.13ZM37.0257 88.296C36.5217 88.296 36.0971 88.4733 35.7517 88.828C35.4064 89.1733 35.2337 89.598 35.2337 90.102C35.2337 90.6153 35.4064 91.0447 35.7517 91.39C36.0971 91.7353 36.5217 91.908 37.0257 91.908C37.5484 91.908 37.9824 91.7353 38.3277 91.39C38.6824 91.0447 38.8597 90.6153 38.8597 90.102C38.8597 89.598 38.6824 89.1733 38.3277 88.828C37.9824 88.4733 37.5484 88.296 37.0257 88.296Z" fill="white"/>
<path d="M41.9576 94.19C42.3122 94.19 42.6109 94.316 42.8536 94.568C43.1056 94.8107 43.2316 95.1047 43.2316 95.45C43.2316 95.7953 43.1056 96.0893 42.8536 96.332C42.6109 96.5747 42.3122 96.696 41.9576 96.696C41.6122 96.696 41.3182 96.5747 41.0756 96.332C40.8422 96.0893 40.7256 95.7953 40.7256 95.45C40.7256 95.1047 40.8422 94.8107 41.0756 94.568C41.3182 94.316 41.6122 94.19 41.9576 94.19Z" fill="white"/>
<path d="M42.7936 90.13C42.7936 89.682 42.8823 89.2527 43.0596 88.842C43.237 88.422 43.4796 88.0533 43.7876 87.736C44.105 87.4187 44.4783 87.1667 44.9076 86.98C45.3463 86.7933 45.827 86.7 46.3496 86.7C46.8443 86.7 47.311 86.7887 47.7496 86.966C48.1976 87.134 48.585 87.372 48.9116 87.68C49.2383 87.9787 49.495 88.338 49.6816 88.758C49.8776 89.1687 49.9756 89.6167 49.9756 90.102C49.9756 90.578 49.8823 91.0633 49.6956 91.558C49.5183 92.0527 49.1776 92.636 48.6736 93.308L46.2936 96.668H44.2356L46.6576 93.294C46.5736 93.3033 46.4803 93.3127 46.3776 93.322C46.2843 93.322 46.1863 93.322 46.0836 93.322C45.6356 93.322 45.211 93.2427 44.8096 93.084C44.4083 92.9253 44.0583 92.706 43.7596 92.426C43.4703 92.146 43.237 91.81 43.0596 91.418C42.8823 91.026 42.7936 90.5967 42.7936 90.13ZM46.3636 88.296C45.8596 88.296 45.435 88.4733 45.0896 88.828C44.7443 89.1733 44.5716 89.598 44.5716 90.102C44.5716 90.6153 44.7443 91.0447 45.0896 91.39C45.435 91.7353 45.8596 91.908 46.3636 91.908C46.8863 91.908 47.3203 91.7353 47.6656 91.39C48.0203 91.0447 48.1976 90.6153 48.1976 90.102C48.1976 89.598 48.0203 89.1733 47.6656 88.828C47.3203 88.4733 46.8863 88.296 46.3636 88.296Z" fill="white"/>
<path d="M51.4753 90.13C51.4753 89.682 51.5639 89.2527 51.7413 88.842C51.9186 88.422 52.1613 88.0533 52.4693 87.736C52.7866 87.4187 53.1599 87.1667 53.5893 86.98C54.0279 86.7933 54.5086 86.7 55.0313 86.7C55.5259 86.7 55.9926 86.7887 56.4313 86.966C56.8793 87.134 57.2666 87.372 57.5933 87.68C57.9199 87.9787 58.1766 88.338 58.3633 88.758C58.5593 89.1687 58.6573 89.6167 58.6573 90.102C58.6573 90.578 58.5639 91.0633 58.3773 91.558C58.1999 92.0527 57.8593 92.636 57.3553 93.308L54.9753 96.668H52.9173L55.3393 93.294C55.2553 93.3033 55.1619 93.3127 55.0593 93.322C54.9659 93.322 54.8679 93.322 54.7653 93.322C54.3173 93.322 53.8926 93.2427 53.4913 93.084C53.0899 92.9253 52.7399 92.706 52.4413 92.426C52.1519 92.146 51.9186 91.81 51.7413 91.418C51.5639 91.026 51.4753 90.5967 51.4753 90.13ZM55.0453 88.296C54.5413 88.296 54.1166 88.4733 53.7713 88.828C53.4259 89.1733 53.2533 89.598 53.2533 90.102C53.2533 90.6153 53.4259 91.0447 53.7713 91.39C54.1166 91.7353 54.5413 91.908 55.0453 91.908C55.5679 91.908 56.0019 91.7353 56.3473 91.39C56.7019 91.0447 56.8793 90.6153 56.8793 90.102C56.8793 89.598 56.7019 89.1733 56.3473 88.828C56.0019 88.4733 55.5679 88.296 55.0453 88.296Z" fill="white"/>
<path d="M58.7322 99.242L63.7122 88.226H64.7562L59.7882 99.242H58.7322Z" fill="white"/>
<path d="M70.9123 90.566L66.8683 99.338H65.7403L67.4083 95.906L64.9003 90.566H66.0163L67.9483 94.79L69.8563 90.566H70.9123Z" fill="white"/>
<path d="M71.7961 96.626V90.566H72.8041V91.79C72.9961 91.27 73.2881 90.898 73.6801 90.674C74.0721 90.442 74.5281 90.354 75.0481 90.41V91.37C74.7441 91.314 74.4561 91.322 74.1841 91.394C73.9121 91.466 73.6721 91.586 73.4641 91.754C73.2641 91.914 73.1041 92.118 72.9841 92.366C72.8641 92.614 72.8041 92.882 72.8041 93.17V96.626H71.7961Z" fill="white"/>
</g>
<defs>
<clipPath id="clip0">
<rect width="75.0481" height="107.338" rx="4" fill="white"/>
</clipPath>
<clipPath id="clip1">
<rect width="58" height="60" fill="white" transform="translate(8.52344)"/>
</clipPath>
<clipPath id="clip2">
<rect width="57.2658" height="60" fill="white" transform="translate(8.52344)"/>
</clipPath>
</defs>
</svg>
