<svg width="93" height="30" viewBox="0 0 93 30" fill="none" xmlns="http://www.w3.org/2000/svg">
<path d="M92.671 9.17992H88.8019L84.6719 17.6812L80.4554 9.17992H76.3253L82.5497 21.7874L78.3904 29.9999H82.4046L92.671 9.17992ZM67.744 20.5144C65.5045 20.5144 63.7005 18.8083 63.7005 16.3789C63.7005 13.9496 65.5045 12.2435 67.744 12.2435C70.0129 12.2435 71.7875 13.9496 71.7875 16.3789C71.7875 18.8083 70.0129 20.5144 67.744 20.5144ZM67.1046 23.8114C68.9086 23.8114 70.5365 23.1464 71.7582 22.0178V23.6087H75.4511V9.17992H71.7582V10.7693C70.5952 9.61297 68.9951 8.94805 67.2498 8.94805C63.4688 8.94805 60.0369 12.0715 60.0369 16.3805C60.0369 20.6879 63.4116 23.8114 67.1046 23.8114ZM58.117 2.20972L54.4241 3.36604V23.6087H58.117V2.20972ZM45.2914 12.8224H40.6377V6.92409H45.2914C47.2112 6.92409 48.5487 8.13877 48.5487 9.87403C48.5487 11.6093 47.2112 12.8224 45.2914 12.8224ZM36.6235 3.36604V23.6087H40.6377V16.2346H45.5817C49.5666 16.2346 52.5321 13.4874 52.5321 9.75732C52.5321 6.05493 49.6824 3.36604 45.7269 3.36604H36.6235Z" fill="#FF4747"/>
<g clip-path="url(#clip0)">
<path d="M13.5717 0C6.07613 0 0 6.04269 0 13.4935C0 20.9475 6.07613 26.9871 13.5717 26.9871C21.0672 26.9871 27.1433 20.9475 27.1433 13.4935C27.1433 6.04269 21.0672 0 13.5717 0ZM8.16431 8.18489H15.9657L14.781 10.0706H6.97967L8.16431 8.18489ZM21.1985 17.609L20.0123 15.7264H16.5495L17.7372 13.8406H18.8307L17.5086 11.7414L13.8203 17.6075H3.98176L6.35105 13.8391H4.61193L5.79503 11.9533H13.4018L12.2171 13.8421H8.58906L7.40287 15.7279H12.7685L17.5086 8.18489L23.4334 17.6106H21.1985V17.609Z" fill="#FF4747"/>
</g>
<defs>
<clipPath id="clip0">
<rect width="27.1835" height="27.027" fill="white"/>
</clipPath>
</defs>
</svg>
