<svg width="80" height="26" viewBox="0 0 80 26" fill="none" xmlns="http://www.w3.org/2000/svg">
<g clip-path="url(#clip0)">
<path d="M80.0002 7.93006H76.6602L73.0949 15.2737L69.4549 7.93006H65.8895L71.2629 18.8209L67.6722 25.9152H71.1375L80.0002 7.93006ZM58.4815 17.7212C56.5482 17.7212 54.9909 16.2474 54.9909 14.1488C54.9909 12.0503 56.5482 10.5765 58.4815 10.5765C60.4402 10.5765 61.9722 12.0503 61.9722 14.1488C61.9722 16.2474 60.4402 17.7212 58.4815 17.7212ZM57.9295 20.5692C59.4869 20.5692 60.8922 19.9949 61.9469 19.0199V20.3941H65.1349V7.93006H61.9469V9.30302C60.9429 8.30414 59.5615 7.72975 58.0549 7.72975C54.7909 7.72975 51.8282 10.4279 51.8282 14.1502C51.8282 17.8711 54.7415 20.5692 57.9295 20.5692ZM50.1709 1.90894L46.9829 2.90781V20.3941H50.1709V1.90894ZM39.0989 11.0766H35.0815V5.98138H39.0989C40.7562 5.98138 41.9109 7.03067 41.9109 8.52965C41.9109 10.0286 40.7562 11.0766 39.0989 11.0766ZM31.6162 2.90781V20.3941H35.0815V14.0241H39.3495C42.7895 14.0241 45.3495 11.651 45.3495 8.42883C45.3495 5.23057 42.8895 2.90781 39.4749 2.90781H31.6162Z" fill="#FF4747"/>
<g clip-path="url(#clip1)">
<path d="M11.716 0C5.24533 0 0 5.2199 0 11.6562C0 18.0952 5.24533 23.3125 11.716 23.3125C18.1867 23.3125 23.432 18.0952 23.432 11.6562C23.432 5.2199 18.1867 0 11.716 0ZM7.048 7.07041H13.7827L12.76 8.69939H6.02533L7.048 7.07041ZM18.3 15.2113L17.276 13.585H14.2867L15.312 11.956H16.256L15.1147 10.1427L11.9307 15.21H3.43733L5.48267 11.9547H3.98133L5.00267 10.3257H11.5693L10.5467 11.9573H7.41467L6.39067 13.5863H11.0227L15.1147 7.07041L20.2293 15.2127H18.3V15.2113Z" fill="#FF4747"/>
</g>
</g>
<defs>
<clipPath id="clip0">
<rect width="80" height="26" fill="white"/>
</clipPath>
<clipPath id="clip1">
<rect width="23.4667" height="23.3469" fill="white"/>
</clipPath>
</defs>
</svg>
