<svg width="161" height="32" viewBox="0 0 161 32" fill="none" xmlns="http://www.w3.org/2000/svg">
<path d="M111.214 24.3991V18.0856H117.731V15.4694H111.214V11.9235H119.261V9.264H108.153V24.3991H111.214Z" fill="white"/>
<path d="M129.242 24.3991H132.435L124.563 8.61536L116.691 24.3991H119.796L121.305 21.1775H127.69L129.242 24.3991ZM122.398 18.864L124.453 14.4532L126.575 18.864H122.398Z" fill="white"/>
<path d="M139.425 24.6154C140.781 24.6154 142.049 24.3127 143.164 23.7505L143.93 24.6154H147.516L145.329 22.1505C146.619 20.7883 147.407 18.9505 147.407 16.8532C147.407 12.3343 143.842 9.04779 139.425 9.04779C135.008 9.04779 131.443 12.3343 131.443 16.8532C131.443 21.3289 135.008 24.6154 139.425 24.6154ZM139.425 21.891C136.67 21.891 134.439 19.7937 134.439 16.8532C134.439 13.8478 136.67 11.7721 139.425 11.7721C142.202 11.7721 144.411 13.8478 144.411 16.8532C144.411 18.064 144.039 19.1451 143.405 19.9667L141.284 17.5883H137.697L141.24 21.5667C140.671 21.7829 140.059 21.891 139.425 21.891Z" fill="white"/>
<path d="M148.55 14.7127H149.971C151.545 12.3127 151.83 11.5775 151.83 10.9505C151.83 9.82617 150.977 9.06941 149.993 9.06941C149.053 9.06941 148.265 9.80455 148.265 10.7775C148.265 11.6856 148.965 12.3559 149.905 12.3559C149.577 12.9613 149.184 13.6532 148.55 14.7127Z" fill="white"/>
<path d="M151.685 16.6802C151.685 18.9937 153.915 19.5991 155.774 20.0748C157.108 20.4208 158.245 20.7018 158.245 21.4802C158.245 22.1072 157.523 22.5397 156.517 22.5397C155.162 22.5397 154.134 21.7829 153.981 20.6586H151.444C151.685 22.9721 153.74 24.6154 156.517 24.6154C159.032 24.6154 161 23.2964 161 21.2208C161 18.9721 158.77 18.3667 156.911 17.891C155.555 17.5451 154.396 17.2424 154.396 16.4424C154.396 15.7937 155.096 15.4478 155.861 15.4478C157.151 15.4478 158.114 16.1829 158.289 17.3072H160.825C160.585 14.9937 158.595 13.3721 155.905 13.3721C153.522 13.3721 151.685 14.6045 151.685 16.6802Z" fill="white"/>
<g clip-path="url(#clip0)">
<path d="M98.3208 9.75998H94.2159L89.8341 18.7983L85.3605 9.75998H80.9786L87.5825 23.1641L83.1696 31.8955H87.4285L98.3208 9.75998ZM71.8741 21.8106C69.4981 21.8106 67.5841 19.9967 67.5841 17.4139C67.5841 14.831 69.4981 13.0171 71.8741 13.0171C74.2814 13.0171 76.1642 14.831 76.1642 17.4139C76.1642 19.9967 74.2814 21.8106 71.8741 21.8106ZM71.1957 25.3159C73.1097 25.3159 74.8369 24.609 76.1331 23.409V25.1004H80.0511V9.75998H76.1331V11.4498C74.8991 10.2204 73.2015 9.51345 71.3498 9.51345C67.3383 9.51345 63.6971 12.8343 63.6971 17.4155C63.6971 21.9951 67.2777 25.3159 71.1957 25.3159ZM61.6603 2.34937L57.7422 3.57875V25.1004H61.6603V2.34937ZM48.0527 13.6326H43.1154V7.36161H48.0527C50.0896 7.36161 51.5087 8.65304 51.5087 10.4979C51.5087 12.3428 50.0896 13.6326 48.0527 13.6326ZM38.8564 3.57875V25.1004H43.1154V17.2604H48.3608C52.5886 17.2604 55.7348 14.3396 55.7348 10.3739C55.7348 6.43753 52.7115 3.57875 48.5148 3.57875H38.8564Z" fill="#FF4747"/>
<g clip-path="url(#clip1)">
<path d="M14.3991 0C6.44656 0 0 6.42449 0 14.3461C0 22.271 6.44656 28.6922 14.3991 28.6922C22.3516 28.6922 28.7981 22.271 28.7981 14.3461C28.7981 6.42449 22.3516 0 14.3991 0ZM8.66205 8.70204H16.939L15.6821 10.7069H7.40518L8.66205 8.70204ZM22.4908 18.7216L21.2323 16.72H17.5584L18.8186 14.7151H19.9787L18.576 12.4833L14.6629 18.72H4.22451L6.73824 14.7135H4.89309L6.14832 12.7086H14.2188L12.9619 14.7167H9.11268L7.85418 16.7216H13.5469L18.576 8.70204L24.862 18.7233H22.4908V18.7216Z" fill="#FF4747"/>
</g>
</g>
<defs>
<clipPath id="clip0">
<rect width="98.3206" height="32" fill="white"/>
</clipPath>
<clipPath id="clip1">
<rect width="28.8407" height="28.7347" fill="white"/>
</clipPath>
</defs>
</svg>
