<svg width="135" height="31" viewBox="0 0 135 31" fill="none" xmlns="http://www.w3.org/2000/svg">
<g clip-path="url(#clip0)">
<path d="M104.07 4.26428C107.915 4.26428 110.691 6.80883 110.691 10.2203C110.691 13.6609 107.915 16.2346 104.07 16.2346H99.1539V24.5038H96.6094V4.26428H104.07ZM108.178 10.2203C108.178 8.05078 106.558 6.54831 104.072 6.54831H99.1562V14.009H104.072C106.5 14.009 108.178 12.4189 108.178 10.2203Z" fill="#FF4747"/>
<path d="M92.136 10.0743H88.2889L84.1835 18.5749L79.9905 10.0743H75.8851L82.0724 22.6825L77.9378 30.8956H81.9286L92.136 10.0743ZM67.3531 21.4114C65.1275 21.4114 63.333 19.7045 63.333 17.2768C63.333 14.8467 65.1252 13.1421 67.3531 13.1421C69.6079 13.1421 71.3732 14.849 71.3732 17.2768C71.3732 19.7045 69.6102 21.4114 67.3531 21.4114ZM66.7175 24.7083C68.5097 24.7083 70.1312 24.0435 71.344 22.9161V24.5061H75.0159V10.0743H71.344V11.6644C70.1874 10.5078 68.5973 9.843 66.8613 9.843C63.1017 9.843 59.6903 12.967 59.6903 17.2745C59.6903 21.5843 63.0456 24.7083 66.7175 24.7083ZM57.7813 3.10547L54.1094 4.26208V24.5039H57.7813V3.10547ZM45.0294 13.7193H40.403V7.8195H45.0294C46.9384 7.8195 48.2679 9.0345 48.2679 10.7683C48.2679 12.5043 46.9384 13.7193 45.0294 13.7193ZM36.4121 4.26208V24.5039H40.403V17.1308H45.3191C49.2808 17.1308 52.2296 14.3841 52.2296 10.6538C52.2296 6.9526 49.3953 4.26208 45.4629 4.26208H36.4121V4.26208Z" fill="#FF4747"/>
<path d="M127.492 22.5679C124.804 22.5679 122.664 20.4276 122.664 17.4496C122.664 14.4716 124.804 12.3313 127.492 12.3313C130.18 12.3313 132.321 14.4716 132.321 17.4496C132.321 20.4276 130.183 22.5679 127.492 22.5679ZM127.492 10.1326C123.416 10.1326 120.234 13.2274 120.234 17.4474C120.234 21.6696 123.414 24.7643 127.492 24.7643C131.571 24.7643 134.751 21.6696 134.751 17.4474C134.751 13.2274 131.571 10.1326 127.492 10.1326ZM115.001 10.4224H112.571V24.5061H115.001V16.32C115.001 13.8046 117.199 11.9248 119.829 12.4167V10.1035C117.66 9.81374 115.926 10.7974 115.001 12.8501V10.4224Z" fill="#FF4747"/>
<g clip-path="url(#clip1)">
<path d="M13.4495 0.895508C6.02143 0.895508 0 6.91847 0 14.345C0 21.7746 6.02143 27.7945 13.4495 27.7945C20.8775 27.7945 26.899 21.7746 26.899 14.345C26.899 6.91847 20.8775 0.895508 13.4495 0.895508ZM8.09082 9.05367H15.8219L14.648 10.9333H6.91684L8.09082 9.05367ZM21.0077 18.447L19.8321 16.5705H16.4005L17.5775 14.6909H18.6612L17.351 12.5986L13.6959 18.4455H3.94592L6.29388 14.6894H4.57041L5.74286 12.8098H13.2811L12.1071 14.6924H8.51173L7.33622 16.572H12.6536L17.351 9.05367L23.2224 18.4486H21.0077V18.447Z" fill="#FF4747"/>
</g>
</g>
<defs>
<clipPath id="clip0">
<rect width="134.751" height="30" fill="white" transform="translate(0 0.895508)"/>
</clipPath>
<clipPath id="clip1">
<rect width="26.9388" height="26.9388" fill="white" transform="translate(0 0.895508)"/>
</clipPath>
</defs>
</svg>
