<svg width="102" height="112" viewBox="0 0 102 112" fill="none" xmlns="http://www.w3.org/2000/svg">
<g clip-path="url(#clip0)">
<path d="M48.7219 0C41.0561 0 34.8418 6.21428 34.8418 13.8801C34.8418 21.5477 41.0561 27.7603 48.7219 27.7603C56.3878 27.7603 62.6021 21.5477 62.6021 13.8801C62.6021 6.21428 56.3878 0 48.7219 0ZM43.1921 8.41777H51.1716L49.9594 10.3583H41.9816L43.1921 8.41777ZM56.5227 18.1135L55.3105 16.178H51.7701L52.9839 14.2392H54.1034L52.7513 12.0796L48.9799 18.1135H38.9167L41.3393 14.2375H39.5607L40.7695 12.2987H48.5483L47.3378 14.2375H43.6271L42.4149 16.1763H47.9026L52.7513 8.41777L58.8104 18.1118H56.5227V18.1135Z" fill="#FF4747"/>
<path d="M70.0964 32.6074C74.0516 32.6074 76.9075 35.224 76.9075 38.734C76.9075 42.2728 74.0516 44.9197 70.0964 44.9197H65.0404V53.4251H62.4238V32.6074H70.0964ZM74.3197 38.734C74.3197 36.5036 72.654 34.9576 70.0964 34.9576H65.0404V42.6302H70.0964C72.595 42.6302 74.3197 40.9948 74.3197 38.734Z" fill="#FF4747"/>
<path d="M57.8194 38.5835H53.8626L49.6377 47.3284L45.3251 38.5835H41.1019L47.4679 51.5516L43.2143 59.9997H47.3195L57.8194 38.5835ZM32.3267 50.2433C30.0372 50.2433 28.1928 48.4883 28.1928 45.9898C28.1928 43.4912 30.0372 41.7362 32.3267 41.7362C34.6465 41.7362 36.4606 43.4912 36.4606 45.9898C36.4606 48.4883 34.6482 50.2433 32.3267 50.2433ZM31.6726 53.6337C33.5169 53.6337 35.1826 52.9492 36.4319 51.7893V53.4247H40.21V38.5819H36.4319V40.2172C35.2416 39.0269 33.6063 38.3441 31.8209 38.3441C27.9534 38.3441 24.4434 41.5558 24.4434 45.9881C24.445 50.422 27.8961 53.6337 31.6726 53.6337ZM22.481 31.415L18.7028 32.6053V53.4263H22.481V31.415ZM9.36454 42.3313H4.6052V36.2637H9.36454C11.3269 36.2637 12.6959 37.513 12.6959 39.2984C12.6959 41.0821 11.3269 42.3313 9.36454 42.3313ZM0.5 32.6036V53.4263H4.6052V45.8397H9.66294C13.7378 45.8397 16.7724 43.0141 16.7724 39.177C16.7724 35.3685 13.8575 32.6036 9.81299 32.6036H0.5V32.6036Z" fill="#FF4747"/>
<path d="M94.1903 51.4337C91.4238 51.4337 89.2237 49.2319 89.2237 46.1686C89.2237 43.1053 91.4255 40.9035 94.1903 40.9035C96.9569 40.9035 99.1571 43.1053 99.1571 46.1686C99.1571 49.2319 96.9552 51.4337 94.1903 51.4337ZM94.1903 38.6427C89.9958 38.6427 86.7251 41.8257 86.7251 46.1686C86.7251 50.5115 89.9975 53.6946 94.1903 53.6946C98.3849 53.6946 101.656 50.5115 101.656 46.1686C101.656 41.8257 98.3832 38.6427 94.1903 38.6427ZM81.3403 38.9394H78.8418V53.4248H81.3403V45.007C81.3403 42.4192 83.6011 40.4854 86.307 40.9912V38.6124C84.0766 38.3156 82.2912 39.3255 81.3403 41.438V38.9394Z" fill="#FF4747"/>
</g>
<path d="M21.3492 79.676V78.304C20.4999 78.1733 19.7905 77.828 19.2212 77.268C18.6612 76.6987 18.3439 75.9987 18.2692 75.168H20.1312C20.1592 75.5227 20.2805 75.8353 20.4952 76.106C20.7192 76.3673 21.0039 76.5587 21.3492 76.68V74.538C20.3972 74.2487 19.6739 73.894 19.1792 73.474C18.6845 73.0447 18.4372 72.48 18.4372 71.78C18.4372 71.0427 18.7032 70.4267 19.2352 69.932C19.7672 69.428 20.4719 69.1433 21.3492 69.078V68H22.5252V69.134C23.3559 69.274 24.0465 69.624 24.5972 70.184C25.1479 70.7347 25.4559 71.416 25.5212 72.228H23.6592C23.6312 71.892 23.5145 71.598 23.3092 71.346C23.1039 71.094 22.8425 70.9073 22.5252 70.786V73.026C23.4585 73.3153 24.1959 73.656 24.7372 74.048C25.2785 74.4307 25.5492 74.9673 25.5492 75.658C25.5492 76.3953 25.2692 77.0113 24.7092 77.506C24.1492 77.9913 23.4212 78.2713 22.5252 78.346V79.676H21.3492ZM20.3132 71.654C20.3132 71.8873 20.3972 72.088 20.5652 72.256C20.7332 72.4147 20.9945 72.564 21.3492 72.704V70.674C21.0319 70.7207 20.7799 70.8373 20.5932 71.024C20.4065 71.2013 20.3132 71.4113 20.3132 71.654ZM23.6592 75.812C23.6592 75.588 23.5659 75.4013 23.3792 75.252C23.1925 75.1027 22.9079 74.9673 22.5252 74.846V76.764C22.8705 76.7173 23.1459 76.6147 23.3512 76.456C23.5565 76.288 23.6592 76.0733 23.6592 75.812Z" fill="white"/>
<path d="M26.7578 78.626V76.96H29.0818V70.492H26.7578L27.4018 68.826H30.9998V76.96H33.3238V78.626H26.7578Z" fill="white"/>
<path d="M39.3486 72.55H41.2106V74.818H42.1626V76.47H41.2106V78.626H39.3486V76.47H34.1966V76.05L38.1726 68.784H40.0766L36.7166 74.818H39.3486V72.55Z" fill="white"/>
<path d="M44.5738 76.19C44.9284 76.19 45.2271 76.316 45.4698 76.568C45.7218 76.8107 45.8478 77.1047 45.8478 77.45C45.8478 77.7953 45.7218 78.0893 45.4698 78.332C45.2271 78.5747 44.9284 78.696 44.5738 78.696C44.2284 78.696 43.9344 78.5747 43.6918 78.332C43.4584 78.0893 43.3418 77.7953 43.3418 77.45C43.3418 77.1047 43.4584 76.8107 43.6918 76.568C43.9344 76.316 44.2284 76.19 44.5738 76.19Z" fill="white"/>
<path d="M45.4098 72.13C45.4098 71.682 45.4985 71.2527 45.6758 70.842C45.8532 70.422 46.0958 70.0533 46.4038 69.736C46.7212 69.4187 47.0945 69.1667 47.5238 68.98C47.9625 68.7933 48.4432 68.7 48.9658 68.7C49.4605 68.7 49.9272 68.7887 50.3658 68.966C50.8138 69.134 51.2012 69.372 51.5278 69.68C51.8545 69.9787 52.1112 70.338 52.2978 70.758C52.4938 71.1687 52.5918 71.6167 52.5918 72.102C52.5918 72.578 52.4985 73.0633 52.3118 73.558C52.1345 74.0527 51.7938 74.636 51.2898 75.308L48.9098 78.668H46.8518L49.2738 75.294C49.1898 75.3033 49.0965 75.3127 48.9938 75.322C48.9005 75.322 48.8025 75.322 48.6998 75.322C48.2518 75.322 47.8272 75.2427 47.4258 75.084C47.0245 74.9253 46.6745 74.706 46.3758 74.426C46.0865 74.146 45.8532 73.81 45.6758 73.418C45.4985 73.026 45.4098 72.5967 45.4098 72.13ZM48.9798 70.296C48.4758 70.296 48.0512 70.4733 47.7058 70.828C47.3605 71.1733 47.1878 71.598 47.1878 72.102C47.1878 72.6153 47.3605 73.0447 47.7058 73.39C48.0512 73.7353 48.4758 73.908 48.9798 73.908C49.5025 73.908 49.9365 73.7353 50.2818 73.39C50.6365 73.0447 50.8138 72.6153 50.8138 72.102C50.8138 71.598 50.6365 71.1733 50.2818 70.828C49.9365 70.4733 49.5025 70.296 48.9798 70.296Z" fill="white"/>
<path d="M54.0915 72.13C54.0915 71.682 54.1801 71.2527 54.3575 70.842C54.5348 70.422 54.7775 70.0533 55.0855 69.736C55.4028 69.4187 55.7761 69.1667 56.2055 68.98C56.6441 68.7933 57.1248 68.7 57.6475 68.7C58.1421 68.7 58.6088 68.7887 59.0475 68.966C59.4955 69.134 59.8828 69.372 60.2095 69.68C60.5361 69.9787 60.7928 70.338 60.9795 70.758C61.1755 71.1687 61.2735 71.6167 61.2735 72.102C61.2735 72.578 61.1801 73.0633 60.9935 73.558C60.8161 74.0527 60.4755 74.636 59.9715 75.308L57.5915 78.668H55.5335L57.9555 75.294C57.8715 75.3033 57.7781 75.3127 57.6755 75.322C57.5821 75.322 57.4841 75.322 57.3815 75.322C56.9335 75.322 56.5088 75.2427 56.1075 75.084C55.7061 74.9253 55.3561 74.706 55.0575 74.426C54.7681 74.146 54.5348 73.81 54.3575 73.418C54.1801 73.026 54.0915 72.5967 54.0915 72.13ZM57.6615 70.296C57.1575 70.296 56.7328 70.4733 56.3875 70.828C56.0421 71.1733 55.8695 71.598 55.8695 72.102C55.8695 72.6153 56.0421 73.0447 56.3875 73.39C56.7328 73.7353 57.1575 73.908 57.6615 73.908C58.1841 73.908 58.6181 73.7353 58.9635 73.39C59.3181 73.0447 59.4955 72.6153 59.4955 72.102C59.4955 71.598 59.3181 71.1733 58.9635 70.828C58.6181 70.4733 58.1841 70.296 57.6615 70.296Z" fill="white"/>
<path d="M61.3484 81.242L66.3284 70.226H67.3724L62.4044 81.242H61.3484Z" fill="white"/>
<path d="M67.8732 78.626V72.566H68.8812V73.754C69.0332 73.298 69.2732 72.97 69.6012 72.77C69.9292 72.57 70.2772 72.47 70.6452 72.47C71.0772 72.47 71.4452 72.594 71.7492 72.842C72.0612 73.09 72.2852 73.414 72.4212 73.814C72.5732 73.382 72.8172 73.05 73.1532 72.818C73.4972 72.586 73.8732 72.47 74.2812 72.47C74.6012 72.47 74.8852 72.53 75.1332 72.65C75.3812 72.77 75.5892 72.938 75.7572 73.154C75.9252 73.362 76.0532 73.61 76.1412 73.898C76.2292 74.178 76.2732 74.482 76.2732 74.81V78.626H75.2652V74.906C75.2652 74.45 75.1372 74.074 74.8812 73.778C74.6332 73.482 74.3092 73.334 73.9092 73.334C73.5412 73.334 73.2252 73.486 72.9612 73.79C72.7052 74.086 72.5772 74.45 72.5772 74.882V78.626H71.5692V74.906C71.5692 74.45 71.4412 74.074 71.1852 73.778C70.9372 73.482 70.6132 73.334 70.2132 73.334C69.8452 73.334 69.5292 73.486 69.2652 73.79C69.0092 74.086 68.8812 74.45 68.8812 74.882V78.626H67.8732Z" fill="white"/>
<path d="M80.593 78.734C80.185 78.734 79.801 78.654 79.441 78.494C79.081 78.334 78.769 78.118 78.505 77.846C78.241 77.566 78.033 77.234 77.881 76.85C77.729 76.458 77.653 76.034 77.653 75.578C77.653 75.13 77.729 74.714 77.881 74.33C78.033 73.946 78.241 73.618 78.505 73.346C78.769 73.066 79.081 72.846 79.441 72.686C79.801 72.526 80.185 72.446 80.593 72.446C81.001 72.446 81.385 72.526 81.745 72.686C82.105 72.846 82.413 73.066 82.669 73.346C82.933 73.618 83.141 73.946 83.293 74.33C83.445 74.714 83.521 75.13 83.521 75.578C83.521 76.034 83.445 76.458 83.293 76.85C83.141 77.234 82.933 77.566 82.669 77.846C82.413 78.118 82.105 78.334 81.745 78.494C81.385 78.654 81.001 78.734 80.593 78.734ZM80.593 77.834C81.121 77.834 81.573 77.622 81.949 77.198C82.325 76.774 82.513 76.238 82.513 75.59C82.513 74.95 82.325 74.418 81.949 73.994C81.573 73.562 81.121 73.346 80.593 73.346C80.057 73.346 79.601 73.562 79.225 73.994C78.849 74.418 78.661 74.95 78.661 75.59C78.661 76.238 78.849 76.774 79.225 77.198C79.601 77.622 80.057 77.834 80.593 77.834Z" fill="white"/>
<path d="M16.6605 96.752C16.1845 96.752 15.7365 96.6587 15.3165 96.472C14.8965 96.2853 14.5325 96.0333 14.2245 95.716C13.9165 95.3893 13.6738 95.002 13.4965 94.554C13.3191 94.0967 13.2305 93.602 13.2305 93.07C13.2305 92.5473 13.3191 92.062 13.4965 91.614C13.6738 91.166 13.9165 90.7833 14.2245 90.466C14.5325 90.1393 14.8965 89.8827 15.3165 89.696C15.7365 89.5093 16.1845 89.416 16.6605 89.416C17.1365 89.416 17.5845 89.5093 18.0045 89.696C18.4245 89.8827 18.7838 90.1393 19.0825 90.466C19.3905 90.7833 19.6331 91.166 19.8105 91.614C19.9878 92.062 20.0765 92.5473 20.0765 93.07C20.0765 93.602 19.9878 94.0967 19.8105 94.554C19.6331 95.002 19.3905 95.3893 19.0825 95.716C18.7838 96.0333 18.4245 96.2853 18.0045 96.472C17.5845 96.6587 17.1365 96.752 16.6605 96.752ZM16.6605 95.702C17.2765 95.702 17.8038 95.4547 18.2425 94.96C18.6811 94.4653 18.9005 93.84 18.9005 93.084C18.9005 92.3373 18.6811 91.7167 18.2425 91.222C17.8038 90.718 17.2765 90.466 16.6605 90.466C16.0351 90.466 15.5031 90.718 15.0645 91.222C14.6258 91.7167 14.4065 92.3373 14.4065 93.084C14.4065 93.84 14.6258 94.4653 15.0645 94.96C15.5031 95.4547 16.0351 95.702 16.6605 95.702Z" fill="white"/>
<path d="M21.6859 96.626V89.556H22.8619V90.984C23.0859 90.3773 23.4266 89.9433 23.8839 89.682C24.3413 89.4113 24.8733 89.3087 25.4799 89.374V90.494C25.1253 90.4287 24.7893 90.438 24.4719 90.522C24.1546 90.606 23.8746 90.746 23.6319 90.942C23.3986 91.1287 23.2119 91.3667 23.0719 91.656C22.9319 91.9453 22.8619 92.258 22.8619 92.594V96.626H21.6859Z" fill="white"/>
<path d="M32.9342 97.676V96.304C32.0848 96.1733 31.3755 95.828 30.8062 95.268C30.2462 94.6987 29.9288 93.9987 29.8542 93.168H31.7162C31.7442 93.5227 31.8655 93.8353 32.0802 94.106C32.3042 94.3673 32.5888 94.5587 32.9342 94.68V92.538C31.9822 92.2487 31.2588 91.894 30.7642 91.474C30.2695 91.0447 30.0222 90.48 30.0222 89.78C30.0222 89.0427 30.2882 88.4267 30.8202 87.932C31.3522 87.428 32.0568 87.1433 32.9342 87.078V86H34.1102V87.134C34.9408 87.274 35.6315 87.624 36.1822 88.184C36.7328 88.7347 37.0408 89.416 37.1062 90.228H35.2442C35.2162 89.892 35.0995 89.598 34.8942 89.346C34.6888 89.094 34.4275 88.9073 34.1102 88.786V91.026C35.0435 91.3153 35.7808 91.656 36.3222 92.048C36.8635 92.4307 37.1342 92.9673 37.1342 93.658C37.1342 94.3953 36.8542 95.0113 36.2942 95.506C35.7342 95.9913 35.0062 96.2713 34.1102 96.346V97.676H32.9342ZM31.8982 89.654C31.8982 89.8873 31.9822 90.088 32.1502 90.256C32.3182 90.4147 32.5795 90.564 32.9342 90.704V88.674C32.6168 88.7207 32.3648 88.8373 32.1782 89.024C31.9915 89.2013 31.8982 89.4113 31.8982 89.654ZM35.2442 93.812C35.2442 93.588 35.1508 93.4013 34.9642 93.252C34.7775 93.1027 34.4928 92.9673 34.1102 92.846V94.764C34.4555 94.7173 34.7308 94.6147 34.9362 94.456C35.1415 94.288 35.2442 94.0733 35.2442 93.812Z" fill="white"/>
<path d="M38.4967 90.13C38.4967 89.682 38.5854 89.2527 38.7627 88.842C38.9401 88.422 39.1827 88.0533 39.4907 87.736C39.8081 87.4187 40.1814 87.1667 40.6107 86.98C41.0494 86.7933 41.5301 86.7 42.0527 86.7C42.5474 86.7 43.0141 86.7887 43.4527 86.966C43.9007 87.134 44.2881 87.372 44.6147 87.68C44.9414 87.9787 45.1981 88.338 45.3848 88.758C45.5808 89.1687 45.6787 89.6167 45.6787 90.102C45.6787 90.578 45.5854 91.0633 45.3988 91.558C45.2214 92.0527 44.8808 92.636 44.3768 93.308L41.9967 96.668H39.9387L42.3607 93.294C42.2767 93.3033 42.1834 93.3127 42.0807 93.322C41.9874 93.322 41.8894 93.322 41.7867 93.322C41.3387 93.322 40.9141 93.2427 40.5127 93.084C40.1114 92.9253 39.7614 92.706 39.4627 92.426C39.1734 92.146 38.9401 91.81 38.7627 91.418C38.5854 91.026 38.4967 90.5967 38.4967 90.13ZM42.0667 88.296C41.5627 88.296 41.1381 88.4733 40.7927 88.828C40.4474 89.1733 40.2747 89.598 40.2747 90.102C40.2747 90.6153 40.4474 91.0447 40.7927 91.39C41.1381 91.7353 41.5627 91.908 42.0667 91.908C42.5894 91.908 43.0234 91.7353 43.3687 91.39C43.7234 91.0447 43.9007 90.6153 43.9007 90.102C43.9007 89.598 43.7234 89.1733 43.3687 88.828C43.0234 88.4733 42.5894 88.296 42.0667 88.296Z" fill="white"/>
<path d="M47.1784 90.13C47.1784 89.682 47.2671 89.2527 47.4444 88.842C47.6217 88.422 47.8644 88.0533 48.1724 87.736C48.4897 87.4187 48.8631 87.1667 49.2924 86.98C49.7311 86.7933 50.2117 86.7 50.7344 86.7C51.2291 86.7 51.6957 86.7887 52.1344 86.966C52.5824 87.134 52.9697 87.372 53.2964 87.68C53.6231 87.9787 53.8797 88.338 54.0664 88.758C54.2624 89.1687 54.3604 89.6167 54.3604 90.102C54.3604 90.578 54.2671 91.0633 54.0804 91.558C53.9031 92.0527 53.5624 92.636 53.0584 93.308L50.6784 96.668H48.6204L51.0424 93.294C50.9584 93.3033 50.8651 93.3127 50.7624 93.322C50.6691 93.322 50.5711 93.322 50.4684 93.322C50.0204 93.322 49.5957 93.2427 49.1944 93.084C48.7931 92.9253 48.4431 92.706 48.1444 92.426C47.8551 92.146 47.6217 91.81 47.4444 91.418C47.2671 91.026 47.1784 90.5967 47.1784 90.13ZM50.7484 88.296C50.2444 88.296 49.8197 88.4733 49.4744 88.828C49.1291 89.1733 48.9564 89.598 48.9564 90.102C48.9564 90.6153 49.1291 91.0447 49.4744 91.39C49.8197 91.7353 50.2444 91.908 50.7484 91.908C51.2711 91.908 51.7051 91.7353 52.0504 91.39C52.4051 91.0447 52.5824 90.6153 52.5824 90.102C52.5824 89.598 52.4051 89.1733 52.0504 88.828C51.7051 88.4733 51.2711 88.296 50.7484 88.296Z" fill="white"/>
<path d="M55.6802 94.19C56.0349 94.19 56.3336 94.316 56.5762 94.568C56.8282 94.8107 56.9542 95.1047 56.9542 95.45C56.9542 95.7953 56.8282 96.0893 56.5762 96.332C56.3336 96.5747 56.0349 96.696 55.6802 96.696C55.3349 96.696 55.0409 96.5747 54.7982 96.332C54.5649 96.0893 54.4482 95.7953 54.4482 95.45C54.4482 95.1047 54.5649 94.8107 54.7982 94.568C55.0409 94.316 55.3349 94.19 55.6802 94.19Z" fill="white"/>
<path d="M56.5163 90.13C56.5163 89.682 56.6049 89.2527 56.7823 88.842C56.9596 88.422 57.2023 88.0533 57.5103 87.736C57.8276 87.4187 58.2009 87.1667 58.6303 86.98C59.0689 86.7933 59.5496 86.7 60.0723 86.7C60.5669 86.7 61.0336 86.7887 61.4723 86.966C61.9203 87.134 62.3076 87.372 62.6343 87.68C62.9609 87.9787 63.2176 88.338 63.4043 88.758C63.6003 89.1687 63.6983 89.6167 63.6983 90.102C63.6983 90.578 63.6049 91.0633 63.4183 91.558C63.2409 92.0527 62.9003 92.636 62.3963 93.308L60.0163 96.668H57.9583L60.3803 93.294C60.2963 93.3033 60.2029 93.3127 60.1003 93.322C60.0069 93.322 59.9089 93.322 59.8063 93.322C59.3583 93.322 58.9336 93.2427 58.5323 93.084C58.1309 92.9253 57.7809 92.706 57.4823 92.426C57.1929 92.146 56.9596 91.81 56.7823 91.418C56.6049 91.026 56.5163 90.5967 56.5163 90.13ZM60.0863 88.296C59.5823 88.296 59.1576 88.4733 58.8123 88.828C58.4669 89.1733 58.2943 89.598 58.2943 90.102C58.2943 90.6153 58.4669 91.0447 58.8123 91.39C59.1576 91.7353 59.5823 91.908 60.0863 91.908C60.6089 91.908 61.0429 91.7353 61.3883 91.39C61.7429 91.0447 61.9203 90.6153 61.9203 90.102C61.9203 89.598 61.7429 89.1733 61.3883 88.828C61.0429 88.4733 60.6089 88.296 60.0863 88.296Z" fill="white"/>
<path d="M65.1979 90.13C65.1979 89.682 65.2866 89.2527 65.4639 88.842C65.6413 88.422 65.8839 88.0533 66.1919 87.736C66.5093 87.4187 66.8826 87.1667 67.3119 86.98C67.7506 86.7933 68.2313 86.7 68.7539 86.7C69.2486 86.7 69.7153 86.7887 70.1539 86.966C70.6019 87.134 70.9893 87.372 71.3159 87.68C71.6426 87.9787 71.8993 88.338 72.0859 88.758C72.2819 89.1687 72.3799 89.6167 72.3799 90.102C72.3799 90.578 72.2866 91.0633 72.0999 91.558C71.9226 92.0527 71.5819 92.636 71.0779 93.308L68.6979 96.668H66.6399L69.0619 93.294C68.9779 93.3033 68.8846 93.3127 68.7819 93.322C68.6886 93.322 68.5906 93.322 68.4879 93.322C68.0399 93.322 67.6153 93.2427 67.2139 93.084C66.8126 92.9253 66.4626 92.706 66.1639 92.426C65.8746 92.146 65.6413 91.81 65.4639 91.418C65.2866 91.026 65.1979 90.5967 65.1979 90.13ZM68.7679 88.296C68.2639 88.296 67.8393 88.4733 67.4939 88.828C67.1486 89.1733 66.9759 89.598 66.9759 90.102C66.9759 90.6153 67.1486 91.0447 67.4939 91.39C67.8393 91.7353 68.2639 91.908 68.7679 91.908C69.2906 91.908 69.7246 91.7353 70.0699 91.39C70.4246 91.0447 70.6019 90.6153 70.6019 90.102C70.6019 89.598 70.4246 89.1733 70.0699 88.828C69.7246 88.4733 69.2906 88.296 68.7679 88.296Z" fill="white"/>
<path d="M72.4548 99.242L77.4348 88.226H78.4788L73.5108 99.242H72.4548Z" fill="white"/>
<path d="M84.6349 90.566L80.5909 99.338H79.4629L81.1309 95.906L78.6229 90.566H79.7389L81.6709 94.79L83.5789 90.566H84.6349Z" fill="white"/>
<path d="M85.5187 96.626V90.566H86.5267V91.79C86.7187 91.27 87.0107 90.898 87.4027 90.674C87.7947 90.442 88.2507 90.354 88.7707 90.41V91.37C88.4667 91.314 88.1787 91.322 87.9067 91.394C87.6347 91.466 87.3947 91.586 87.1867 91.754C86.9867 91.914 86.8267 92.118 86.7067 92.366C86.5867 92.614 86.5267 92.882 86.5267 93.17V96.626H85.5187Z" fill="white"/>
<defs>
<clipPath id="clip0">
<rect width="101.155" height="60" fill="white" transform="translate(0.5)"/>
</clipPath>
</defs>
</svg>
