<svg width="22" height="22" viewBox="0 0 22 22" fill="none" xmlns="http://www.w3.org/2000/svg">
<rect width="22" height="22" rx="4" fill="white"/>
<path d="M11 5C7.68624 5 5 7.68692 5 11C5 14.3144 7.68624 17 11 17C14.3138 17 17 14.3144 17 11C17 7.68692 14.3138 5 11 5ZM8.60942 8.63947H12.0584L11.5347 9.47798H8.08569L8.60942 8.63947ZM14.3718 12.83L13.8474 11.9928H12.3165L12.8416 11.1543H13.325L12.7405 10.2209L11.1099 12.8293H6.76033L7.80778 11.1536H7.03892L7.56197 10.3151H10.9249L10.4012 11.155H8.7972L8.27279 11.9935H10.6449L12.7405 8.63947L15.3598 12.8307H14.3718V12.83Z" fill="#FF4747"/>
</svg>
