<svg width="229" height="28" viewBox="0 0 229 28" fill="none" xmlns="http://www.w3.org/2000/svg">
<path d="M17.7334 20.4C18.3225 20.4 18.8001 19.9224 18.8001 19.3333C18.8001 18.7442 18.3225 18.2667 17.7334 18.2667C17.1443 18.2667 16.6667 18.7442 16.6667 19.3333C16.6667 19.9224 17.1443 20.4 17.7334 20.4Z" fill="white"/>
<path d="M12.3999 20.4C12.989 20.4 13.4666 19.9224 13.4666 19.3333C13.4666 18.7442 12.989 18.2667 12.3999 18.2667C11.8108 18.2667 11.3333 18.7442 11.3333 19.3333C11.3333 19.9224 11.8108 20.4 12.3999 20.4Z" fill="white"/>
<path d="M7.06665 7.59998H8.06825C8.42292 7.59998 8.73545 7.83358 8.83572 8.17438L11.1083 15.9013C11.2416 16.3546 11.6581 16.6666 12.1312 16.6666H17.985C18.4661 16.6666 18.8874 16.3445 19.0144 15.8805L20.4 10.8H17.7333" stroke="white" stroke-width="2" stroke-miterlimit="10" stroke-linecap="round" stroke-linejoin="round"/>
<path d="M15.6001 10.8V13.7792L16.823 12.5563C17.0315 12.3477 17.3686 12.3477 17.5771 12.5563C17.7857 12.7648 17.7857 13.1019 17.5771 13.3104L15.4438 15.4437C15.3398 15.5477 15.2033 15.6 15.0667 15.6C14.9302 15.6 14.7937 15.5477 14.6897 15.4437L12.5563 13.3104C12.3478 13.1019 12.3478 12.7648 12.5563 12.5563C12.7649 12.3477 13.1019 12.3477 13.3105 12.5563L14.5334 13.7792V10.8H9.7334L11.6001 16.6667H18.8001L20.4001 10.8H15.6001Z" fill="white"/>
<path d="M15.6001 7.59998C15.6001 7.30558 15.3612 7.06665 15.0668 7.06665C14.7724 7.06665 14.5334 7.30558 14.5334 7.59998V10.2667H15.6001V7.59998Z" fill="white"/>
<path d="M15.6001 10.8H18.2668" stroke="white" stroke-width="2" stroke-miterlimit="10" stroke-linejoin="round"/>
<path d="M9.7334 10.8H14.5334" stroke="white" stroke-width="2" stroke-miterlimit="10" stroke-linejoin="round"/>
<path d="M38.988 16.158C38.988 16.5687 38.904 16.9513 38.736 17.306C38.5773 17.6513 38.3533 17.95 38.064 18.202C37.784 18.454 37.448 18.65 37.056 18.79C36.664 18.93 36.2393 19 35.782 19H31.008V9.2H35.866C36.258 9.2 36.622 9.26533 36.958 9.396C37.3033 9.52667 37.5973 9.70867 37.84 9.942C38.0827 10.166 38.274 10.4413 38.414 10.768C38.5633 11.0853 38.638 11.4353 38.638 11.818C38.638 12.2567 38.5307 12.658 38.316 13.022C38.1013 13.3767 37.812 13.666 37.448 13.89C37.952 14.0953 38.3347 14.3987 38.596 14.8C38.8573 15.2013 38.988 15.654 38.988 16.158ZM35.502 10.978H33.066V13.162H35.502C35.81 13.162 36.0667 13.064 36.272 12.868C36.4773 12.672 36.58 12.42 36.58 12.112C36.58 11.776 36.4773 11.5053 36.272 11.3C36.0667 11.0853 35.81 10.978 35.502 10.978ZM33.066 17.264H35.614C35.9967 17.264 36.3093 17.1473 36.552 16.914C36.7947 16.6713 36.916 16.3633 36.916 15.99C36.916 15.654 36.7947 15.3787 36.552 15.164C36.3093 14.94 35.9967 14.828 35.614 14.828H33.066V17.264ZM45.14 19V17.908C44.972 18.272 44.7013 18.5707 44.328 18.804C43.9547 19.028 43.53 19.14 43.054 19.14C42.2607 19.14 41.6447 18.8693 41.206 18.328C40.7673 17.7867 40.548 17.1007 40.548 16.27V11.832H42.452V16.032C42.452 16.4893 42.5733 16.858 42.816 17.138C43.068 17.418 43.3947 17.558 43.796 17.558C44.216 17.558 44.5427 17.418 44.776 17.138C45.0187 16.858 45.14 16.5173 45.14 16.116V11.832H47.044V19H45.14ZM55.7358 11.832L50.9478 22.15H48.9318L50.9338 18.02L47.9658 11.832H50.0378L51.9418 15.962L53.8038 11.832H55.7358Z" fill="white"/>
<rect x="69" width="1" height="28" rx="0.5" fill="#3C3C3C"/>
<g clip-path="url(#clip0)">
<path d="M129.231 10.88H127.175L124.981 15.3992L122.741 10.88H120.547L123.854 17.582L121.644 21.9477H123.777L129.231 10.88ZM115.989 16.9053C114.799 16.9053 113.84 15.9984 113.84 14.7069C113.84 13.4155 114.799 12.5086 115.989 12.5086C117.194 12.5086 118.137 13.4155 118.137 14.7069C118.137 15.9984 117.194 16.9053 115.989 16.9053ZM115.649 18.6579C116.607 18.6579 117.472 18.3045 118.121 17.7045V18.5502H120.083V10.88H118.121V11.7249C117.503 11.1102 116.653 10.7567 115.726 10.7567C113.717 10.7567 111.894 12.4171 111.894 14.7077C111.894 16.9975 113.687 18.6579 115.649 18.6579ZM110.874 7.17468L108.912 7.78938V18.5502H110.874V7.17468ZM104.061 12.8163H101.589V9.68081H104.061C105.081 9.68081 105.791 10.3265 105.791 11.249C105.791 12.1714 105.081 12.8163 104.061 12.8163ZM99.4561 7.78938V18.5502H101.589V14.6302H104.215C106.332 14.6302 107.907 13.1698 107.907 11.1869C107.907 9.21876 106.393 7.78938 104.292 7.78938H99.4561Z" fill="#FF4747"/>
<g clip-path="url(#clip1)">
<path d="M87.2098 6C83.2279 6 80 9.21225 80 13.1731C80 17.1355 83.2279 20.3461 87.2098 20.3461C91.1918 20.3461 94.4197 17.1355 94.4197 13.1731C94.4197 9.21225 91.1918 6 87.2098 6ZM84.3372 10.351H88.4816L87.8523 11.3535H83.7079L84.3372 10.351ZM91.2615 15.3608L90.6314 14.36H88.7918L89.4228 13.3576H90.0037L89.3013 12.2416L87.3419 15.36H82.1153L83.3739 13.3567H82.4501L83.0786 12.3543H87.1196L86.4903 13.3584H84.5629L83.9327 14.3608H86.7832L89.3013 10.351L92.4488 15.3616H91.2615V15.3608Z" fill="#FF4747"/>
</g>
</g>
<rect x="139.231" width="1" height="28" rx="0.5" fill="#3C3C3C"/>
<g clip-path="url(#clip2)">
<path d="M205.735 7.79669C207.786 7.79669 209.266 9.15378 209.266 10.9732C209.266 12.8082 207.786 14.1809 205.735 14.1809H203.113V18.5911H201.756V7.79669H205.735ZM207.926 10.9732C207.926 9.81616 207.062 9.01484 205.736 9.01484H203.114V12.9939H205.736C207.031 12.9939 207.926 12.1458 207.926 10.9732Z" fill="#FF4747"/>
<path d="M199.37 10.8954H197.318L195.128 15.429L192.892 10.8954H190.703L194.003 17.6197L191.797 22H193.926L199.37 10.8954ZM186.152 16.9418C184.965 16.9418 184.008 16.0315 184.008 14.7367C184.008 13.4407 184.964 12.5315 186.152 12.5315C187.355 12.5315 188.296 13.4419 188.296 14.7367C188.296 16.0315 187.356 16.9418 186.152 16.9418ZM185.813 18.7001C186.769 18.7001 187.634 18.3456 188.281 17.7443V18.5923H190.239V10.8954H188.281V11.7434C187.664 11.1265 186.816 10.772 185.89 10.772C183.885 10.772 182.065 12.4381 182.065 14.7355C182.065 17.034 183.855 18.7001 185.813 18.7001ZM181.047 7.17865L179.089 7.79551V18.5911H181.047V7.17865ZM174.246 12.8394H171.779V9.6928H174.246C175.264 9.6928 175.973 10.3408 175.973 11.2655C175.973 12.1914 175.264 12.8394 174.246 12.8394ZM169.65 7.79551V18.5911H171.779V14.6588H174.401C176.514 14.6588 178.086 13.1939 178.086 11.2044C178.086 9.23045 176.575 7.79551 174.477 7.79551H169.65V7.79551Z" fill="#FF4747"/>
<path d="M218.226 17.5586C216.793 17.5586 215.651 16.4171 215.651 14.8289C215.651 13.2406 216.793 12.0991 218.226 12.0991C219.66 12.0991 220.802 13.2406 220.802 14.8289C220.802 16.4171 219.661 17.5586 218.226 17.5586ZM218.226 10.9265C216.052 10.9265 214.355 12.577 214.355 14.8277C214.355 17.0795 216.051 18.7301 218.226 18.7301C220.402 18.7301 222.098 17.0795 222.098 14.8277C222.098 12.577 220.402 10.9265 218.226 10.9265ZM211.564 11.081H210.268V18.5923H211.564V14.2264C211.564 12.8849 212.737 11.8823 214.14 12.1446V10.9109C212.982 10.7564 212.058 11.281 211.564 12.3758V11.081Z" fill="#FF4747"/>
<g clip-path="url(#clip3)">
<path d="M157.404 6C153.442 6 150.231 9.21225 150.231 13.1731C150.231 17.1355 153.442 20.3461 157.404 20.3461C161.365 20.3461 164.577 17.1355 164.577 13.1731C164.577 9.21225 161.365 6 157.404 6ZM154.546 10.351H158.669L158.043 11.3535H153.92L154.546 10.351ZM161.435 15.3608L160.808 14.36H158.978L159.605 13.3576H160.183L159.485 12.2416L157.535 15.36H152.335L153.587 13.3567H152.668L153.294 12.3543H157.314L156.688 13.3584H154.77L154.143 14.3608H156.979L159.485 10.351L162.616 15.3616H161.435V15.3608Z" fill="#FF4747"/>
</g>
</g>
<defs>
<clipPath id="clip0">
<rect width="49.2308" height="16" fill="white" transform="translate(80 6)"/>
</clipPath>
<clipPath id="clip1">
<rect width="14.441" height="14.3673" fill="white" transform="translate(80 6)"/>
</clipPath>
<clipPath id="clip2">
<rect width="71.867" height="16" fill="white" transform="translate(150.231 6)"/>
</clipPath>
<clipPath id="clip3">
<rect width="14.3673" height="14.3673" fill="white" transform="translate(150.231 6)"/>
</clipPath>
</defs>
</svg>
