<svg width="148" height="220" viewBox="0 0 148 220" fill="none" xmlns="http://www.w3.org/2000/svg">
<rect width="148" height="220" fill="#323232"/>
<path d="M38.088 111.896C38.088 112.408 37.9867 112.867 37.784 113.272C37.592 113.677 37.32 114.019 36.968 114.296C36.6267 114.573 36.216 114.787 35.736 114.936C35.256 115.075 34.7387 115.144 34.184 115.144C33.544 115.144 32.952 115.048 32.408 114.856C31.864 114.653 31.3893 114.381 30.984 114.04C30.5893 113.688 30.2747 113.267 30.04 112.776C29.816 112.285 29.6933 111.752 29.672 111.176H31C31.064 111.987 31.3947 112.648 31.992 113.16C32.6 113.661 33.336 113.912 34.2 113.912C34.5307 113.912 34.8453 113.875 35.144 113.8C35.4533 113.715 35.72 113.592 35.944 113.432C36.1787 113.272 36.36 113.075 36.488 112.84C36.6267 112.595 36.696 112.317 36.696 112.008C36.696 111.699 36.616 111.443 36.456 111.24C36.296 111.027 36.0827 110.851 35.816 110.712C35.56 110.573 35.256 110.456 34.904 110.36C34.5627 110.264 34.2053 110.173 33.832 110.088C33.3733 109.981 32.9093 109.864 32.44 109.736C31.9813 109.597 31.5653 109.416 31.192 109.192C30.8187 108.957 30.5147 108.659 30.28 108.296C30.0453 107.923 29.928 107.448 29.928 106.872C29.928 106.445 30.008 106.04 30.168 105.656C30.3387 105.261 30.5787 104.92 30.888 104.632C31.1973 104.333 31.5813 104.099 32.04 103.928C32.4987 103.747 33.016 103.656 33.592 103.656C34.2 103.656 34.7653 103.752 35.288 103.944C35.8107 104.125 36.264 104.381 36.648 104.712C37.032 105.043 37.336 105.443 37.56 105.912C37.784 106.371 37.912 106.867 37.944 107.4H36.6C36.5253 106.653 36.2213 106.045 35.688 105.576C35.1653 105.107 34.4667 104.872 33.592 104.872C32.8773 104.872 32.3173 105.059 31.912 105.432C31.5067 105.805 31.304 106.264 31.304 106.808C31.304 107.107 31.3733 107.363 31.512 107.576C31.6613 107.789 31.8533 107.965 32.088 108.104C32.3227 108.243 32.6 108.365 32.92 108.472C33.24 108.568 33.576 108.653 33.928 108.728C34.3973 108.845 34.8773 108.968 35.368 109.096C35.8693 109.224 36.3173 109.4 36.712 109.624C37.1173 109.837 37.448 110.125 37.704 110.488C37.96 110.851 38.088 111.32 38.088 111.896ZM43.563 115.144C43.019 115.144 42.507 115.037 42.027 114.824C41.547 114.611 41.131 114.323 40.779 113.96C40.427 113.587 40.1497 113.144 39.947 112.632C39.7443 112.109 39.643 111.544 39.643 110.936C39.643 110.339 39.739 109.784 39.931 109.272C40.1337 108.76 40.4057 108.323 40.747 107.96C41.099 107.587 41.5097 107.293 41.979 107.08C42.4483 106.867 42.9497 106.76 43.483 106.76C43.995 106.76 44.4803 106.867 44.939 107.08C45.3977 107.283 45.7977 107.576 46.139 107.96C46.4803 108.344 46.7523 108.824 46.955 109.4C47.1577 109.965 47.259 110.605 47.259 111.32V111.416H41.019C41.115 112.163 41.403 112.771 41.883 113.24C42.363 113.709 42.923 113.944 43.563 113.944C43.9683 113.944 44.3417 113.848 44.683 113.656C45.035 113.453 45.3177 113.187 45.531 112.856H47.035C46.747 113.549 46.2883 114.104 45.659 114.52C45.0403 114.936 44.3417 115.144 43.563 115.144ZM43.467 107.976C42.8697 107.976 42.3417 108.195 41.883 108.632C41.435 109.069 41.1523 109.629 41.035 110.312H45.851C45.7443 109.629 45.467 109.069 45.019 108.632C44.571 108.195 44.0537 107.976 43.467 107.976ZM52.7193 115.144C52.1753 115.144 51.6633 115.037 51.1833 114.824C50.7033 114.611 50.2873 114.323 49.9353 113.96C49.5833 113.587 49.3059 113.144 49.1033 112.632C48.9006 112.109 48.7993 111.544 48.7993 110.936C48.7993 110.339 48.8953 109.784 49.0872 109.272C49.2899 108.76 49.5619 108.323 49.9033 107.96C50.2553 107.587 50.6659 107.293 51.1353 107.08C51.6046 106.867 52.1059 106.76 52.6393 106.76C53.1513 106.76 53.6366 106.867 54.0953 107.08C54.5539 107.283 54.9539 107.576 55.2953 107.96C55.6366 108.344 55.9086 108.824 56.1112 109.4C56.3139 109.965 56.4153 110.605 56.4153 111.32V111.416H50.1753C50.2713 112.163 50.5593 112.771 51.0393 113.24C51.5193 113.709 52.0793 113.944 52.7193 113.944C53.1246 113.944 53.4979 113.848 53.8393 113.656C54.1913 113.453 54.4739 113.187 54.6873 112.856H56.1913C55.9033 113.549 55.4446 114.104 54.8153 114.52C54.1966 114.936 53.4979 115.144 52.7193 115.144ZM52.6233 107.976C52.0259 107.976 51.4979 108.195 51.0393 108.632C50.5913 109.069 50.3086 109.629 50.1913 110.312H55.0073C54.9006 109.629 54.6233 109.069 54.1753 108.632C53.7273 108.195 53.2099 107.976 52.6233 107.976ZM69.8689 115L68.6849 112.296H63.4689L62.2849 115H60.8289L65.9649 103.64H66.3009L71.4369 115H69.8689ZM63.9969 111.08H68.1569L66.0769 106.328L63.9969 111.08ZM73.8848 102.824V115H72.5408V103.352L73.8848 102.824ZM77.3691 102.824V115H76.0251V103.352L77.3691 102.824ZM82.7989 111.048C82.7989 109.277 83.2042 107.741 84.0149 106.44C84.8362 105.139 85.9349 104.195 87.3109 103.608V104.952C86.2549 105.624 85.4602 106.445 84.9269 107.416C84.4042 108.387 84.1429 109.597 84.1429 111.048C84.1429 112.499 84.4042 113.709 84.9269 114.68C85.4602 115.651 86.2549 116.472 87.3109 117.144V118.488C85.9349 117.901 84.8362 116.957 84.0149 115.656C83.2042 114.355 82.7989 112.819 82.7989 111.048ZM96.624 111.336C96.624 111.88 96.5227 112.387 96.32 112.856C96.1173 113.325 95.84 113.731 95.488 114.072C95.136 114.403 94.72 114.664 94.24 114.856C93.76 115.048 93.248 115.144 92.704 115.144C92.16 115.144 91.648 115.048 91.168 114.856C90.6987 114.664 90.288 114.403 89.936 114.072C89.5947 113.741 89.3227 113.363 89.12 112.936C88.9173 112.499 88.816 112.04 88.816 111.56C88.816 110.995 88.9067 110.488 89.088 110.04C89.2693 109.592 89.5093 109.16 89.808 108.744L93.168 103.752H94.72L92.064 107.656C92.192 107.624 92.32 107.603 92.448 107.592C92.576 107.571 92.704 107.56 92.832 107.56C93.3653 107.56 93.8613 107.656 94.32 107.848C94.7893 108.04 95.1893 108.301 95.52 108.632C95.8613 108.963 96.128 109.363 96.32 109.832C96.5227 110.291 96.624 110.792 96.624 111.336ZM92.72 113.928C93.424 113.928 94.0267 113.683 94.528 113.192C95.0293 112.701 95.28 112.083 95.28 111.336C95.28 110.589 95.0293 109.971 94.528 109.48C94.0267 108.989 93.424 108.744 92.72 108.744C92.0053 108.744 91.3973 108.989 90.896 109.48C90.3947 109.971 90.144 110.589 90.144 111.336C90.144 112.083 90.3947 112.701 90.896 113.192C91.3973 113.683 92.0053 113.928 92.72 113.928ZM106.187 111.336C106.187 111.88 106.085 112.387 105.883 112.856C105.68 113.325 105.403 113.731 105.051 114.072C104.699 114.403 104.283 114.664 103.803 114.856C103.323 115.048 102.811 115.144 102.266 115.144C101.723 115.144 101.211 115.048 100.731 114.856C100.261 114.664 99.8505 114.403 99.4985 114.072C99.1572 113.741 98.8852 113.363 98.6825 112.936C98.4798 112.499 98.3785 112.04 98.3785 111.56C98.3785 110.995 98.4692 110.488 98.6505 110.04C98.8318 109.592 99.0718 109.16 99.3705 108.744L102.731 103.752H104.283L101.627 107.656C101.755 107.624 101.883 107.603 102.011 107.592C102.139 107.571 102.267 107.56 102.395 107.56C102.928 107.56 103.424 107.656 103.883 107.848C104.352 108.04 104.752 108.301 105.083 108.632C105.424 108.963 105.691 109.363 105.883 109.832C106.085 110.291 106.187 110.792 106.187 111.336ZM102.283 113.928C102.987 113.928 103.589 113.683 104.091 113.192C104.592 112.701 104.843 112.083 104.843 111.336C104.843 110.589 104.592 109.971 104.091 109.48C103.589 108.989 102.987 108.744 102.283 108.744C101.568 108.744 100.96 108.989 100.459 109.48C99.9572 109.971 99.7065 110.589 99.7065 111.336C99.7065 112.083 99.9572 112.701 100.459 113.192C100.96 113.683 101.568 113.928 102.283 113.928ZM112.169 111.048C112.169 112.819 111.758 114.355 110.937 115.656C110.126 116.957 109.033 117.901 107.657 118.488V117.144C108.713 116.472 109.502 115.651 110.025 114.68C110.558 113.709 110.825 112.499 110.825 111.048C110.825 109.597 110.558 108.387 110.025 107.416C109.502 106.445 108.713 105.624 107.657 104.952V103.608C109.033 104.195 110.126 105.139 110.937 106.44C111.758 107.741 112.169 109.277 112.169 111.048Z" fill="#04FDBE"/>
<path fill-rule="evenodd" clip-rule="evenodd" d="M130.667 13.3333H133.724L129.529 17.5286L130.471 18.4714L134.667 14.2762V17.3333H136V12.6667C136 12.2985 135.702 12 135.333 12H130.667V13.3333ZM124.667 13.3333C124.298 13.3333 124 13.6318 124 14V23.3333C124 23.7015 124.298 24 124.667 24H134C134.368 24 134.667 23.7015 134.667 23.3333V18.6667H133.333V22.6667H125.333V14.6667H129.333V13.3333H124.667Z" fill="white"/>
</svg>
