<svg width="155" height="28" viewBox="0 0 155 28" fill="none" xmlns="http://www.w3.org/2000/svg">
<g clip-path="url(#clip0)">
<path d="M55.2308 10.88H53.1754L50.9814 15.3992L48.7414 10.88H46.5473L49.854 17.582L47.6444 21.9477H49.7769L55.2308 10.88ZM41.9886 16.9053C40.7988 16.9053 39.8405 15.9984 39.8405 14.7069C39.8405 13.4155 40.7988 12.5086 41.9886 12.5086C43.1939 12.5086 44.1367 13.4155 44.1367 14.7069C44.1367 15.9984 43.1939 16.9053 41.9886 16.9053ZM41.6489 18.6579C42.6072 18.6579 43.4721 18.3045 44.1211 17.7045V18.5502H46.0829V10.88H44.1211V11.7249C43.5032 11.1102 42.6532 10.7567 41.726 10.7567C39.7174 10.7567 37.8942 12.4171 37.8942 14.7077C37.8942 16.9975 39.687 18.6579 41.6489 18.6579ZM36.8743 7.17468L34.9125 7.78938V18.5502H36.8743V7.17468ZM30.0608 12.8163H27.5886V9.68081H30.0608C31.0807 9.68081 31.7912 10.3265 31.7912 11.249C31.7912 12.1714 31.0807 12.8163 30.0608 12.8163ZM25.4561 7.78938V18.5502H27.5886V14.6302H30.215C32.332 14.6302 33.9073 13.1698 33.9073 11.1869C33.9073 9.21876 32.3935 7.78938 30.2922 7.78938H25.4561Z" fill="#FF4747"/>
<g clip-path="url(#clip1)">
<path d="M13.2098 6C9.2279 6 6 9.21225 6 13.1731C6 17.1355 9.2279 20.3461 13.2098 20.3461C17.1918 20.3461 20.4197 17.1355 20.4197 13.1731C20.4197 9.21225 17.1918 6 13.2098 6ZM10.3372 10.351H14.4816L13.8523 11.3535H9.7079L10.3372 10.351ZM17.2615 15.3608L16.6314 14.36H14.7918L15.4228 13.3576H16.0037L15.3013 12.2416L13.3419 15.36H8.11528L9.37395 13.3567H8.45005L9.07856 12.3543H13.1196L12.4903 13.3584H10.5629L9.93272 14.3608H12.7832L15.3013 10.351L18.4488 15.3616H17.2615V15.3608Z" fill="#FF4747"/>
</g>
</g>
<rect x="65.2307" width="1" height="28" rx="0.5" fill="#3C3C3C"/>
<g clip-path="url(#clip2)">
<path d="M131.735 7.79669C133.786 7.79669 135.266 9.15378 135.266 10.9732C135.266 12.8082 133.786 14.1809 131.735 14.1809H129.113V18.5911H127.756V7.79669H131.735ZM133.926 10.9732C133.926 9.81616 133.062 9.01484 131.736 9.01484H129.114V12.9939H131.736C133.031 12.9939 133.926 12.1458 133.926 10.9732Z" fill="#FF4747"/>
<path d="M125.37 10.8954H123.318L121.128 15.429L118.892 10.8954H116.703L120.003 17.6197L117.797 22H119.926L125.37 10.8954ZM112.152 16.9418C110.965 16.9418 110.008 16.0315 110.008 14.7367C110.008 13.4407 110.964 12.5315 112.152 12.5315C113.355 12.5315 114.296 13.4419 114.296 14.7367C114.296 16.0315 113.356 16.9418 112.152 16.9418ZM111.813 18.7001C112.769 18.7001 113.634 18.3456 114.281 17.7443V18.5923H116.239V10.8954H114.281V11.7434C113.664 11.1265 112.816 10.772 111.89 10.772C109.885 10.772 108.065 12.4381 108.065 14.7355C108.065 17.034 109.855 18.7001 111.813 18.7001ZM107.047 7.17865L105.089 7.79551V18.5911H107.047V7.17865ZM100.246 12.8394H97.7789V9.6928H100.246C101.264 9.6928 101.973 10.3408 101.973 11.2655C101.973 12.1914 101.264 12.8394 100.246 12.8394ZM95.6504 7.79551V18.5911H97.7789V14.6588H100.401C102.514 14.6588 104.086 13.1939 104.086 11.2044C104.086 9.23045 102.575 7.79551 100.477 7.79551H95.6504V7.79551Z" fill="#FF4747"/>
<path d="M144.226 17.5586C142.793 17.5586 141.651 16.4171 141.651 14.8289C141.651 13.2406 142.793 12.0991 144.226 12.0991C145.66 12.0991 146.802 13.2406 146.802 14.8289C146.802 16.4171 145.661 17.5586 144.226 17.5586ZM144.226 10.9265C142.052 10.9265 140.355 12.577 140.355 14.8277C140.355 17.0795 142.051 18.7301 144.226 18.7301C146.402 18.7301 148.098 17.0795 148.098 14.8277C148.098 12.577 146.402 10.9265 144.226 10.9265ZM137.564 11.081H136.268V18.5923H137.564V14.2264C137.564 12.8849 138.737 11.8823 140.14 12.1446V10.9109C138.982 10.7564 138.058 11.281 137.564 12.3758V11.081Z" fill="#FF4747"/>
<g clip-path="url(#clip3)">
<path d="M83.4038 6C79.4421 6 76.2307 9.21225 76.2307 13.1731C76.2307 17.1355 79.4421 20.3461 83.4038 20.3461C87.3654 20.3461 90.5768 17.1355 90.5768 13.1731C90.5768 9.21225 87.3654 6 83.4038 6ZM80.5458 10.351H84.6691L84.043 11.3535H79.9197L80.5458 10.351ZM87.4348 15.3608L86.8079 14.36H84.9777L85.6054 13.3576H86.1834L85.4846 12.2416L83.5352 15.36H78.3352L79.5874 13.3567H78.6683L79.2936 12.3543H83.314L82.6879 13.3584H80.7703L80.1434 14.3608H82.9793L85.4846 10.351L88.616 15.3616H87.4348V15.3608Z" fill="#FF4747"/>
</g>
</g>
<defs>
<clipPath id="clip0">
<rect width="49.2308" height="16" fill="white" transform="translate(6 6)"/>
</clipPath>
<clipPath id="clip1">
<rect width="14.441" height="14.3673" fill="white" transform="translate(6 6)"/>
</clipPath>
<clipPath id="clip2">
<rect width="71.867" height="16" fill="white" transform="translate(76.2307 6)"/>
</clipPath>
<clipPath id="clip3">
<rect width="14.3673" height="14.3673" fill="white" transform="translate(76.2307 6)"/>
</clipPath>
</defs>
</svg>
