<svg width="84" height="92" viewBox="0 0 84 92" fill="none" xmlns="http://www.w3.org/2000/svg">
<rect x="19" width="65" height="28" rx="4" fill="#1A1A1A" fill-opacity="0.5"/>
<path d="M36.7333 20.4001C37.3224 20.4001 37.8 19.9225 37.8 19.3334C37.8 18.7443 37.3224 18.2667 36.7333 18.2667C36.1442 18.2667 35.6666 18.7443 35.6666 19.3334C35.6666 19.9225 36.1442 20.4001 36.7333 20.4001Z" fill="white"/>
<path d="M31.4 20.4001C31.9891 20.4001 32.4667 19.9225 32.4667 19.3334C32.4667 18.7443 31.9891 18.2667 31.4 18.2667C30.8109 18.2667 30.3334 18.7443 30.3334 19.3334C30.3334 19.9225 30.8109 20.4001 31.4 20.4001Z" fill="white"/>
<path d="M26.0667 7.59998H27.0683C27.4229 7.59998 27.7355 7.83358 27.8357 8.17438L30.1083 15.9013C30.2416 16.3546 30.6581 16.6666 31.1312 16.6666H36.985C37.4661 16.6666 37.8874 16.3445 38.0144 15.8805L39.4 10.8H36.7333" stroke="white" stroke-width="2" stroke-miterlimit="10" stroke-linecap="round" stroke-linejoin="round"/>
<path d="M34.5999 10.8V13.7792L35.8229 12.5563C36.0314 12.3478 36.3685 12.3478 36.577 12.5563C36.7855 12.7648 36.7855 13.1019 36.577 13.3104L34.4437 15.4438C34.3397 15.5478 34.2031 15.6 34.0666 15.6C33.9301 15.6 33.7935 15.5478 33.6895 15.4438L31.5562 13.3104C31.3477 13.1019 31.3477 12.7648 31.5562 12.5563C31.7647 12.3478 32.1018 12.3478 32.3103 12.5563L33.5333 13.7792V10.8H28.7333L30.5999 16.6667H37.7999L39.3999 10.8H34.5999Z" fill="white"/>
<path d="M34.6 7.59998C34.6 7.30558 34.3611 7.06665 34.0667 7.06665C33.7723 7.06665 33.5333 7.30558 33.5333 7.59998V10.2667H34.6V7.59998Z" fill="white"/>
<path d="M34.6 10.8H37.2666" stroke="white" stroke-width="2" stroke-miterlimit="10" stroke-linejoin="round"/>
<path d="M28.7333 10.8H33.5333" stroke="white" stroke-width="2" stroke-miterlimit="10" stroke-linejoin="round"/>
<path d="M57.988 16.158C57.988 16.5687 57.904 16.9513 57.736 17.306C57.5773 17.6513 57.3533 17.95 57.064 18.202C56.784 18.454 56.448 18.65 56.056 18.79C55.664 18.93 55.2393 19 54.782 19H50.008V9.2H54.866C55.258 9.2 55.622 9.26533 55.958 9.396C56.3033 9.52667 56.5973 9.70867 56.84 9.942C57.0827 10.166 57.274 10.4413 57.414 10.768C57.5633 11.0853 57.638 11.4353 57.638 11.818C57.638 12.2567 57.5307 12.658 57.316 13.022C57.1013 13.3767 56.812 13.666 56.448 13.89C56.952 14.0953 57.3347 14.3987 57.596 14.8C57.8573 15.2013 57.988 15.654 57.988 16.158ZM54.502 10.978H52.066V13.162H54.502C54.81 13.162 55.0667 13.064 55.272 12.868C55.4773 12.672 55.58 12.42 55.58 12.112C55.58 11.776 55.4773 11.5053 55.272 11.3C55.0667 11.0853 54.81 10.978 54.502 10.978ZM52.066 17.264H54.614C54.9967 17.264 55.3093 17.1473 55.552 16.914C55.7947 16.6713 55.916 16.3633 55.916 15.99C55.916 15.654 55.7947 15.3787 55.552 15.164C55.3093 14.94 54.9967 14.828 54.614 14.828H52.066V17.264ZM64.14 19V17.908C63.972 18.272 63.7013 18.5707 63.328 18.804C62.9547 19.028 62.53 19.14 62.054 19.14C61.2607 19.14 60.6447 18.8693 60.206 18.328C59.7673 17.7867 59.548 17.1007 59.548 16.27V11.832H61.452V16.032C61.452 16.4893 61.5733 16.858 61.816 17.138C62.068 17.418 62.3947 17.558 62.796 17.558C63.216 17.558 63.5427 17.418 63.776 17.138C64.0187 16.858 64.14 16.5173 64.14 16.116V11.832H66.044V19H64.14ZM74.7358 11.832L69.9478 22.15H67.9318L69.9338 18.02L66.9658 11.832H69.0378L70.9418 15.962L72.8038 11.832H74.7358Z" fill="white"/>
<rect x="22.7692" y="32" width="61.2308" height="28" rx="4" fill="#1A1A1A" fill-opacity="0.5"/>
<g clip-path="url(#clip0)">
<path d="M78 42.88H75.9446L73.7506 47.3992L71.5106 42.88H69.3165L72.6232 49.582L70.4135 53.9477H72.546L78 42.88ZM64.7577 48.9053C63.568 48.9053 62.6096 47.9984 62.6096 46.7069C62.6096 45.4155 63.568 44.5086 64.7577 44.5086C65.9631 44.5086 66.9058 45.4155 66.9058 46.7069C66.9058 47.9984 65.9631 48.9053 64.7577 48.9053ZM64.418 50.6579C65.3764 50.6579 66.2412 50.3045 66.8902 49.7045V50.5502H68.8521V42.88H66.8902V43.7249C66.2724 43.1102 65.4224 42.7567 64.4952 42.7567C62.4866 42.7567 60.6634 44.4171 60.6634 46.7077C60.6634 48.9975 62.4562 50.6579 64.418 50.6579ZM59.6435 39.1747L57.6816 39.7894V50.5502H59.6435V39.1747ZM52.8299 44.8163H50.3577V41.6808H52.8299C53.8498 41.6808 54.5604 42.3265 54.5604 43.249C54.5604 44.1714 53.8498 44.8163 52.8299 44.8163ZM48.2252 39.7894V50.5502H50.3577V46.6302H52.9842C55.1011 46.6302 56.6765 45.1698 56.6765 43.1869C56.6765 41.2188 55.1627 39.7894 53.0613 39.7894H48.2252Z" fill="#FF4747"/>
<g clip-path="url(#clip1)">
<path d="M35.979 38C31.9971 38 28.7692 41.2122 28.7692 45.1731C28.7692 49.1355 31.9971 52.3461 35.979 52.3461C39.961 52.3461 43.1889 49.1355 43.1889 45.1731C43.1889 41.2122 39.961 38 35.979 38ZM33.1064 42.351H37.2508L36.6215 43.3535H32.4771L33.1064 42.351ZM40.0307 47.3608L39.4006 46.36H37.561L38.1919 45.3576H38.7729L38.0705 44.2416L36.1111 47.36H30.8844L32.1431 45.3567H31.2192L31.8477 44.3543H35.8888L35.2594 45.3584H33.332L32.7019 46.3608H35.5523L38.0705 42.351L41.218 47.3616H40.0307V47.3608Z" fill="#FF4747"/>
</g>
</g>
<rect x="0.132935" y="64" width="83.867" height="28" rx="4" fill="#1A1A1A" fill-opacity="0.5"/>
<g clip-path="url(#clip2)">
<path d="M61.637 71.7966C63.6876 71.7966 65.1681 73.1537 65.1681 74.9732C65.1681 76.8082 63.6876 78.1808 61.637 78.1808H59.015V82.5911H57.658V71.7966H61.637ZM63.8277 74.9732C63.8277 73.8161 62.9641 73.0148 61.6382 73.0148H59.0162V76.9938H61.6382C62.933 76.9938 63.8277 76.1458 63.8277 74.9732Z" fill="#FF4747"/>
<path d="M55.272 74.8953H53.2202L51.0307 79.4289L48.7944 74.8953H46.6049L49.9047 81.6197L47.6996 86H49.8281L55.272 74.8953ZM42.0545 80.9417C40.8675 80.9417 39.9104 80.0314 39.9104 78.7366C39.9104 77.4406 40.8663 76.5315 42.0545 76.5315C43.257 76.5315 44.1985 77.4418 44.1985 78.7366C44.1985 80.0314 43.2582 80.9417 42.0545 80.9417ZM41.7155 82.7001C42.6713 82.7001 43.5361 82.3455 44.1829 81.7442V82.5923H46.1413V74.8953H44.1829V75.7433C43.5661 75.1265 42.718 74.7719 41.7922 74.7719C39.7871 74.7719 37.9676 76.4381 37.9676 78.7354C37.9676 81.034 39.7571 82.7001 41.7155 82.7001ZM36.9495 71.1786L34.9911 71.7954V82.5911H36.9495V71.1786ZM30.1485 76.8393H27.6811V73.6927H30.1485C31.1666 73.6927 31.8757 74.3407 31.8757 75.2654C31.8757 76.1913 31.1666 76.8393 30.1485 76.8393ZM25.5526 71.7954V82.5911H27.6811V78.6588H30.303C32.4159 78.6588 33.9886 77.1939 33.9886 75.2043C33.9886 73.2304 32.477 71.7954 30.3797 71.7954H25.5526V71.7954Z" fill="#FF4747"/>
<path d="M74.1287 81.5586C72.695 81.5586 71.5535 80.4171 71.5535 78.8289C71.5535 77.2406 72.695 76.0991 74.1287 76.0991C75.5625 76.0991 76.704 77.2406 76.704 78.8289C76.704 80.4171 75.5637 81.5586 74.1287 81.5586ZM74.1287 74.9265C71.9548 74.9265 70.2575 76.577 70.2575 78.8277C70.2575 81.0795 71.9536 82.7301 74.1287 82.7301C76.3039 82.7301 78 81.0795 78 78.8277C78 76.577 76.3039 74.9265 74.1287 74.9265ZM67.4667 75.081H66.1707V82.5923H67.4667V78.2264C67.4667 76.8849 68.6393 75.8823 70.0419 76.1446V74.9109C68.8848 74.7564 67.9601 75.281 67.4667 76.3758V75.081Z" fill="#FF4747"/>
<g clip-path="url(#clip3)">
<path d="M13.306 70C9.34436 70 6.13293 73.2122 6.13293 77.1731C6.13293 81.1355 9.34436 84.3461 13.306 84.3461C17.2676 84.3461 20.4791 81.1355 20.4791 77.1731C20.4791 73.2122 17.2676 70 13.306 70ZM10.448 74.351H14.5713L13.9452 75.3535H9.82191L10.448 74.351ZM17.337 79.3608L16.7101 78.36H14.8799L15.5076 77.3576H16.0856L15.3868 76.2416L13.4374 79.36H8.23742L9.48967 77.3567H8.57049L9.19579 76.3543H13.2162L12.5901 77.3584H10.6725L10.0456 78.3608H12.8815L15.3868 74.351L18.5182 79.3616H17.337V79.3608Z" fill="#FF4747"/>
</g>
</g>
<defs>
<clipPath id="clip0">
<rect width="49.2308" height="16" fill="white" transform="translate(28.7692 38)"/>
</clipPath>
<clipPath id="clip1">
<rect width="14.441" height="14.3673" fill="white" transform="translate(28.7692 38)"/>
</clipPath>
<clipPath id="clip2">
<rect width="71.867" height="16" fill="white" transform="translate(6.13293 70)"/>
</clipPath>
<clipPath id="clip3">
<rect width="14.3673" height="14.3673" fill="white" transform="translate(6.13293 70)"/>
</clipPath>
</defs>
</svg>
