<svg width="127" height="32" viewBox="0 0 127 32" fill="none" xmlns="http://www.w3.org/2000/svg">
<path d="M16.6666 0C7.82994 0 0.666626 7.16513 0.666626 16C0.666626 24.8385 7.82994 32 16.6666 32C25.5033 32 32.6666 24.8385 32.6666 16C32.6666 7.16513 25.5033 0 16.6666 0ZM10.2918 9.70525H19.489L18.0924 11.9413H8.89514L10.2918 9.70525ZM25.6581 20.8799L24.2597 18.6475H20.1773L21.5775 16.4115H22.8667L21.308 13.9224L16.9598 20.8781H5.36083L8.15405 16.4097H6.10375L7.49854 14.1737H16.4663L15.0697 16.4133H10.7925L9.39406 18.6494H15.7198L21.308 9.70525L28.2929 20.8818H25.6581V20.8799Z" fill="white"/>
<path d="M49.448 21.5H42.152V10.3H49.448V11.548H43.56V15.164H48.072V16.412H43.56V20.252H49.448V21.5ZM59.4001 21.5L58.2161 18.796H53.0001L51.8161 21.5H50.3601L55.4961 10.14H55.8321L60.9681 21.5H59.4001ZM53.5281 17.58H57.6881L55.6081 12.828L53.5281 17.58ZM69.5534 21.5H65.7614V10.3H69.5534C70.3427 10.3 71.0734 10.4387 71.7454 10.716C72.4174 10.9827 72.9987 11.3613 73.4894 11.852C73.98 12.3427 74.364 12.9347 74.6414 13.628C74.9294 14.3213 75.0734 15.0787 75.0734 15.9C75.0734 16.7213 74.9294 17.4787 74.6414 18.172C74.364 18.8653 73.98 19.4573 73.4894 19.948C72.9987 20.4387 72.4174 20.8227 71.7454 21.1C71.0734 21.3667 70.3427 21.5 69.5534 21.5ZM69.5534 11.548H67.1694V20.252H69.5534C70.108 20.252 70.636 20.1453 71.1374 19.932C71.6387 19.7187 72.076 19.4253 72.4494 19.052C72.8227 18.668 73.116 18.2093 73.3294 17.676C73.5534 17.132 73.6654 16.54 73.6654 15.9C73.6654 15.26 73.5534 14.6733 73.3294 14.14C73.116 13.596 72.8227 13.1373 72.4494 12.764C72.076 12.38 71.6387 12.0813 71.1374 11.868C70.636 11.6547 70.108 11.548 69.5534 11.548ZM80.6099 21.644C80.0659 21.644 79.5539 21.5373 79.0739 21.324C78.5939 21.1107 78.1779 20.8227 77.8259 20.46C77.4739 20.0867 77.1965 19.644 76.9939 19.132C76.7912 18.6093 76.6899 18.044 76.6899 17.436C76.6899 16.8387 76.7859 16.284 76.9779 15.772C77.1805 15.26 77.4525 14.8227 77.7939 14.46C78.1459 14.0867 78.5565 13.7933 79.0259 13.58C79.4952 13.3667 79.9965 13.26 80.5299 13.26C81.0419 13.26 81.5272 13.3667 81.9859 13.58C82.4445 13.7827 82.8445 14.076 83.1859 14.46C83.5272 14.844 83.7992 15.324 84.0019 15.9C84.2045 16.4653 84.3059 17.1053 84.3059 17.82V17.916H78.0659C78.1619 18.6627 78.4499 19.2707 78.9299 19.74C79.4099 20.2093 79.9699 20.444 80.6099 20.444C81.0152 20.444 81.3885 20.348 81.7299 20.156C82.0819 19.9533 82.3645 19.6867 82.5779 19.356H84.0819C83.7939 20.0493 83.3352 20.604 82.7059 21.02C82.0872 21.436 81.3885 21.644 80.6099 21.644ZM80.5139 14.476C79.9165 14.476 79.3885 14.6947 78.9299 15.132C78.4819 15.5693 78.1992 16.1293 78.0819 16.812H82.8979C82.7912 16.1293 82.5139 15.5693 82.0659 15.132C81.6179 14.6947 81.1005 14.476 80.5139 14.476ZM85.8621 15.66C85.8728 14.9453 86.1448 14.3693 86.6781 13.932C87.2221 13.4947 87.8941 13.276 88.6941 13.276C89.6221 13.276 90.4008 13.5427 91.0301 14.076C91.6595 14.5987 91.9955 15.2707 92.0381 16.092H90.7261C90.6835 15.5907 90.4755 15.1907 90.1021 14.892C89.7395 14.5827 89.2755 14.428 88.7101 14.428C88.2408 14.428 87.8675 14.5347 87.5901 14.748C87.3235 14.9613 87.1901 15.2333 87.1901 15.564C87.1901 15.948 87.3768 16.2253 87.7501 16.396C88.1235 16.5667 88.5555 16.716 89.0461 16.844C89.3981 16.9293 89.7555 17.0253 90.1181 17.132C90.4915 17.228 90.8221 17.3613 91.1101 17.532C91.4088 17.692 91.6541 17.9107 91.8461 18.188C92.0381 18.4547 92.1341 18.8013 92.1341 19.228C92.1341 19.9747 91.8461 20.5667 91.2701 21.004C90.6941 21.4307 89.9901 21.644 89.1581 21.644C88.1981 21.644 87.4035 21.372 86.7741 20.828C86.1448 20.284 85.8088 19.5853 85.7661 18.732H87.0781C87.1101 19.2547 87.3235 19.6813 87.7181 20.012C88.1235 20.3427 88.6088 20.508 89.1741 20.508C89.6328 20.508 90.0168 20.4067 90.3261 20.204C90.6461 20.0013 90.8061 19.7187 90.8061 19.356C90.8061 18.94 90.5875 18.652 90.1501 18.492C89.7235 18.3213 89.2381 18.1667 88.6941 18.028C88.3635 17.9533 88.0275 17.8627 87.6861 17.756C87.3448 17.6493 87.0408 17.5107 86.7741 17.34C86.5075 17.1693 86.2888 16.9507 86.1181 16.684C85.9475 16.4067 85.8621 16.0653 85.8621 15.66ZM95.2129 9.324V21.5H93.8689V9.852L95.2129 9.324ZM95.3889 17.5L98.9409 13.42H100.461L96.9889 17.404L100.525 21.5H98.7969L95.3889 17.5ZM103.087 19.532V14.572H101.039V13.42H103.087V11.516L104.415 11.036V13.42H106.799V14.572H104.415V19.468C104.415 19.7453 104.49 19.9587 104.639 20.108C104.788 20.2467 105.012 20.316 105.311 20.316H106.799V21.5H104.975C104.367 21.5 103.898 21.3347 103.567 21.004C103.247 20.6627 103.087 20.172 103.087 19.532ZM111.829 21.644C111.285 21.644 110.773 21.5373 110.293 21.324C109.813 21.1107 109.397 20.8227 109.045 20.46C108.693 20.0867 108.415 19.644 108.213 19.132C108.01 18.6093 107.909 18.044 107.909 17.436C107.909 16.8387 108.01 16.284 108.213 15.772C108.415 15.26 108.693 14.8227 109.045 14.46C109.397 14.0867 109.813 13.7933 110.293 13.58C110.773 13.3667 111.285 13.26 111.829 13.26C112.373 13.26 112.885 13.3667 113.365 13.58C113.845 13.7933 114.255 14.0867 114.597 14.46C114.949 14.8227 115.226 15.26 115.429 15.772C115.631 16.284 115.733 16.8387 115.733 17.436C115.733 18.044 115.631 18.6093 115.429 19.132C115.226 19.644 114.949 20.0867 114.597 20.46C114.255 20.8227 113.845 21.1107 113.365 21.324C112.885 21.5373 112.373 21.644 111.829 21.644ZM111.829 20.444C112.533 20.444 113.135 20.1613 113.637 19.596C114.138 19.0307 114.389 18.316 114.389 17.452C114.389 16.5987 114.138 15.8893 113.637 15.324C113.135 14.748 112.533 14.46 111.829 14.46C111.114 14.46 110.506 14.748 110.005 15.324C109.503 15.8893 109.253 16.5987 109.253 17.452C109.253 18.316 109.503 19.0307 110.005 19.596C110.506 20.1613 111.114 20.444 111.829 20.444ZM118.916 25.116H117.572V13.42H118.916V14.796C119.236 14.3267 119.636 13.9587 120.116 13.692C120.607 13.4147 121.129 13.276 121.684 13.276C122.196 13.276 122.676 13.3827 123.124 13.596C123.572 13.8093 123.961 14.1027 124.292 14.476C124.623 14.8387 124.884 15.276 125.076 15.788C125.268 16.2893 125.364 16.8387 125.364 17.436C125.364 18.0333 125.268 18.5933 125.076 19.116C124.884 19.628 124.623 20.0707 124.292 20.444C123.961 20.8067 123.567 21.0947 123.108 21.308C122.66 21.5213 122.18 21.628 121.668 21.628C121.113 21.628 120.596 21.4947 120.116 21.228C119.636 20.9507 119.236 20.5773 118.916 20.108V25.116ZM121.444 14.492C120.74 14.492 120.137 14.7693 119.636 15.324C119.135 15.8787 118.884 16.5827 118.884 17.436C118.884 18.3 119.135 19.0147 119.636 19.58C120.137 20.1347 120.74 20.412 121.444 20.412C122.159 20.412 122.767 20.1347 123.268 19.58C123.769 19.0147 124.02 18.3 124.02 17.436C124.02 16.5827 123.769 15.8787 123.268 15.324C122.767 14.7693 122.159 14.492 121.444 14.492Z" fill="white"/>
</svg>
