<svg width="86" height="61" viewBox="0 0 86 61" fill="none" xmlns="http://www.w3.org/2000/svg">
<path d="M42.6666 0C33.8299 0 26.6666 7.16513 26.6666 16C26.6666 24.8385 33.8299 32 42.6666 32C51.5033 32 58.6666 24.8385 58.6666 16C58.6666 7.16513 51.5033 0 42.6666 0ZM36.2918 9.70525H45.489L44.0924 11.9413H34.8951L36.2918 9.70525ZM51.6581 20.8799L50.2597 18.6475H46.1773L47.5775 16.4115H48.8667L47.308 13.9224L42.9598 20.8781H31.3608L34.1541 16.4097H32.1037L33.4985 14.1737H42.4663L41.0697 16.4133H36.7925L35.3941 18.6494H41.7198L47.308 9.70525L54.2929 20.8818H51.6581V20.8799Z" fill="white"/>
<path d="M8.448 56H1.152V44.8H8.448V46.048H2.56V49.664H7.072V50.912H2.56V54.752H8.448V56ZM18.4001 56L17.2161 53.296H12.0001L10.8161 56H9.36013L14.4961 44.64H14.8321L19.9681 56H18.4001ZM12.5281 52.08H16.6881L14.6081 47.328L12.5281 52.08ZM28.5534 56H24.7614V44.8H28.5534C29.3427 44.8 30.0734 44.9387 30.7454 45.216C31.4174 45.4827 31.9987 45.8613 32.4894 46.352C32.98 46.8427 33.364 47.4347 33.6414 48.128C33.9294 48.8213 34.0734 49.5787 34.0734 50.4C34.0734 51.2213 33.9294 51.9787 33.6414 52.672C33.364 53.3653 32.98 53.9573 32.4894 54.448C31.9987 54.9387 31.4174 55.3227 30.7454 55.6C30.0734 55.8667 29.3427 56 28.5534 56ZM28.5534 46.048H26.1694V54.752H28.5534C29.108 54.752 29.636 54.6453 30.1374 54.432C30.6387 54.2187 31.076 53.9253 31.4494 53.552C31.8227 53.168 32.116 52.7093 32.3294 52.176C32.5534 51.632 32.6654 51.04 32.6654 50.4C32.6654 49.76 32.5534 49.1733 32.3294 48.64C32.116 48.096 31.8227 47.6373 31.4494 47.264C31.076 46.88 30.6387 46.5813 30.1374 46.368C29.636 46.1547 29.108 46.048 28.5534 46.048ZM39.6099 56.144C39.0659 56.144 38.5539 56.0373 38.0739 55.824C37.5939 55.6107 37.1779 55.3227 36.8259 54.96C36.4739 54.5867 36.1965 54.144 35.9939 53.632C35.7912 53.1093 35.6899 52.544 35.6899 51.936C35.6899 51.3387 35.7859 50.784 35.9779 50.272C36.1805 49.76 36.4525 49.3227 36.7939 48.96C37.1459 48.5867 37.5565 48.2933 38.0259 48.08C38.4952 47.8667 38.9965 47.76 39.5299 47.76C40.0419 47.76 40.5272 47.8667 40.9859 48.08C41.4445 48.2827 41.8445 48.576 42.1859 48.96C42.5272 49.344 42.7992 49.824 43.0019 50.4C43.2045 50.9653 43.3059 51.6053 43.3059 52.32V52.416H37.0659C37.1619 53.1627 37.4499 53.7707 37.9299 54.24C38.4099 54.7093 38.9699 54.944 39.6099 54.944C40.0152 54.944 40.3885 54.848 40.7299 54.656C41.0819 54.4533 41.3645 54.1867 41.5779 53.856H43.0819C42.7939 54.5493 42.3352 55.104 41.7059 55.52C41.0872 55.936 40.3885 56.144 39.6099 56.144ZM39.5139 48.976C38.9165 48.976 38.3885 49.1947 37.9299 49.632C37.4819 50.0693 37.1992 50.6293 37.0819 51.312H41.8979C41.7912 50.6293 41.5139 50.0693 41.0659 49.632C40.6179 49.1947 40.1005 48.976 39.5139 48.976ZM44.8621 50.16C44.8728 49.4453 45.1448 48.8693 45.6781 48.432C46.2221 47.9947 46.8941 47.776 47.6941 47.776C48.6221 47.776 49.4008 48.0427 50.0301 48.576C50.6595 49.0987 50.9955 49.7707 51.0381 50.592H49.7261C49.6835 50.0907 49.4755 49.6907 49.1021 49.392C48.7395 49.0827 48.2755 48.928 47.7101 48.928C47.2408 48.928 46.8675 49.0347 46.5901 49.248C46.3235 49.4613 46.1901 49.7333 46.1901 50.064C46.1901 50.448 46.3768 50.7253 46.7501 50.896C47.1235 51.0667 47.5555 51.216 48.0461 51.344C48.3981 51.4293 48.7555 51.5253 49.1181 51.632C49.4915 51.728 49.8221 51.8613 50.1101 52.032C50.4088 52.192 50.6541 52.4107 50.8461 52.688C51.0381 52.9547 51.1341 53.3013 51.1341 53.728C51.1341 54.4747 50.8461 55.0667 50.2701 55.504C49.6941 55.9307 48.9901 56.144 48.1581 56.144C47.1981 56.144 46.4035 55.872 45.7741 55.328C45.1448 54.784 44.8088 54.0853 44.7661 53.232H46.0781C46.1101 53.7547 46.3235 54.1813 46.7181 54.512C47.1235 54.8427 47.6088 55.008 48.1741 55.008C48.6328 55.008 49.0168 54.9067 49.3261 54.704C49.6461 54.5013 49.8061 54.2187 49.8061 53.856C49.8061 53.44 49.5875 53.152 49.1501 52.992C48.7235 52.8213 48.2381 52.6667 47.6941 52.528C47.3635 52.4533 47.0275 52.3627 46.6861 52.256C46.3448 52.1493 46.0408 52.0107 45.7741 51.84C45.5075 51.6693 45.2888 51.4507 45.1181 51.184C44.9475 50.9067 44.8621 50.5653 44.8621 50.16ZM54.2129 43.824V56H52.8689V44.352L54.2129 43.824ZM54.3889 52L57.9409 47.92H59.4609L55.9889 51.904L59.5249 56H57.7969L54.3889 52ZM62.0871 54.032V49.072H60.0391V47.92H62.0871V46.016L63.4151 45.536V47.92H65.7991V49.072H63.4151V53.968C63.4151 54.2453 63.4898 54.4587 63.6391 54.608C63.7885 54.7467 64.0125 54.816 64.3111 54.816H65.7991V56H63.9751C63.3671 56 62.8978 55.8347 62.5671 55.504C62.2471 55.1627 62.0871 54.672 62.0871 54.032ZM70.8286 56.144C70.2846 56.144 69.7726 56.0373 69.2926 55.824C68.8126 55.6107 68.3966 55.3227 68.0446 54.96C67.6926 54.5867 67.4153 54.144 67.2126 53.632C67.01 53.1093 66.9086 52.544 66.9086 51.936C66.9086 51.3387 67.01 50.784 67.2126 50.272C67.4153 49.76 67.6926 49.3227 68.0446 48.96C68.3966 48.5867 68.8126 48.2933 69.2926 48.08C69.7726 47.8667 70.2846 47.76 70.8286 47.76C71.3726 47.76 71.8846 47.8667 72.3646 48.08C72.8446 48.2933 73.2553 48.5867 73.5966 48.96C73.9486 49.3227 74.226 49.76 74.4286 50.272C74.6313 50.784 74.7326 51.3387 74.7326 51.936C74.7326 52.544 74.6313 53.1093 74.4286 53.632C74.226 54.144 73.9486 54.5867 73.5966 54.96C73.2553 55.3227 72.8446 55.6107 72.3646 55.824C71.8846 56.0373 71.3726 56.144 70.8286 56.144ZM70.8286 54.944C71.5326 54.944 72.1353 54.6613 72.6366 54.096C73.138 53.5307 73.3886 52.816 73.3886 51.952C73.3886 51.0987 73.138 50.3893 72.6366 49.824C72.1353 49.248 71.5326 48.96 70.8286 48.96C70.114 48.96 69.506 49.248 69.0046 49.824C68.5033 50.3893 68.2526 51.0987 68.2526 51.952C68.2526 52.816 68.5033 53.5307 69.0046 54.096C69.506 54.6613 70.114 54.944 70.8286 54.944ZM77.916 59.616H76.572V47.92H77.916V49.296C78.236 48.8267 78.636 48.4587 79.116 48.192C79.6067 47.9147 80.1293 47.776 80.684 47.776C81.196 47.776 81.676 47.8827 82.124 48.096C82.572 48.3093 82.9613 48.6027 83.292 48.976C83.6227 49.3387 83.884 49.776 84.076 50.288C84.268 50.7893 84.364 51.3387 84.364 51.936C84.364 52.5333 84.268 53.0933 84.076 53.616C83.884 54.128 83.6227 54.5707 83.292 54.944C82.9613 55.3067 82.5667 55.5947 82.108 55.808C81.66 56.0213 81.18 56.128 80.668 56.128C80.1133 56.128 79.596 55.9947 79.116 55.728C78.636 55.4507 78.236 55.0773 77.916 54.608V59.616ZM80.444 48.992C79.74 48.992 79.1373 49.2693 78.636 49.824C78.1347 50.3787 77.884 51.0827 77.884 51.936C77.884 52.8 78.1347 53.5147 78.636 54.08C79.1373 54.6347 79.74 54.912 80.444 54.912C81.1587 54.912 81.7667 54.6347 82.268 54.08C82.7693 53.5147 83.02 52.8 83.02 51.936C83.02 51.0827 82.7693 50.3787 82.268 49.824C81.7667 49.2693 81.1587 48.992 80.444 48.992Z" fill="white"/>
</svg>
