<svg width="165" height="30" viewBox="0 0 165 30" fill="none" xmlns="http://www.w3.org/2000/svg">
<path d="M104.663 12.856C102.327 12.856 100.439 14.6 100.439 17.016C100.439 19.416 102.327 21.16 104.663 21.16C106.999 21.16 108.887 19.416 108.887 17.016C108.887 14.6 106.999 12.856 104.663 12.856ZM104.663 19.32C103.431 19.32 102.455 18.376 102.455 17.032C102.455 15.656 103.431 14.728 104.663 14.728C105.895 14.728 106.871 15.656 106.871 17.032C106.871 18.376 105.895 19.32 104.663 19.32ZM111.977 13.016H109.945V21H111.977V16.168C111.977 15.24 112.697 14.504 113.641 14.504C114.617 14.504 115.305 15.208 115.305 16.248V21H117.337V16.088C117.337 14.216 116.265 12.84 114.361 12.84C113.337 12.84 112.457 13.288 111.977 14.008V13.016Z" fill="white"/>
<path d="M92.671 9.17992H88.8019L84.6719 17.6812L80.4554 9.17992H76.3253L82.5497 21.7874L78.3904 29.9999H82.4046L92.671 9.17992ZM67.744 20.5144C65.5045 20.5144 63.7005 18.8083 63.7005 16.3789C63.7005 13.9496 65.5045 12.2435 67.744 12.2435C70.0129 12.2435 71.7875 13.9496 71.7875 16.3789C71.7875 18.8083 70.0129 20.5144 67.744 20.5144ZM67.1046 23.8114C68.9086 23.8114 70.5365 23.1464 71.7582 22.0178V23.6087H75.4511V9.17992H71.7582V10.7693C70.5952 9.61297 68.9951 8.94805 67.2498 8.94805C63.4688 8.94805 60.0369 12.0715 60.0369 16.3805C60.0369 20.6879 63.4116 23.8114 67.1046 23.8114ZM58.117 2.20972L54.4241 3.36604V23.6087H58.117V2.20972ZM45.2914 12.8224H40.6377V6.92409H45.2914C47.2112 6.92409 48.5487 8.13877 48.5487 9.87403C48.5487 11.6093 47.2112 12.8224 45.2914 12.8224ZM36.6235 3.36604V23.6087H40.6377V16.2346H45.5817C49.5666 16.2346 52.5321 13.4874 52.5321 9.75732C52.5321 6.05493 49.6824 3.36604 45.7269 3.36604H36.6235Z" fill="#FF4747"/>
<g clip-path="url(#clip0)">
<path d="M13.5717 0C6.07613 0 0 6.04269 0 13.4935C0 20.9475 6.07613 26.9871 13.5717 26.9871C21.0672 26.9871 27.1433 20.9475 27.1433 13.4935C27.1433 6.04269 21.0672 0 13.5717 0ZM8.16431 8.18489H15.9657L14.781 10.0706H6.97967L8.16431 8.18489ZM21.1985 17.609L20.0123 15.7264H16.5495L17.7372 13.8406H18.8307L17.5086 11.7414L13.8203 17.6075H3.98176L6.35105 13.8391H4.61193L5.79503 11.9533H13.4018L12.2171 13.8421H8.58906L7.40287 15.7279H12.7685L17.5086 8.18489L23.4334 17.6106H21.1985V17.609Z" fill="#FF4747"/>
</g>
<path d="M141.504 0C143.094 0.309107 144.595 0.70653 146.141 1.14811C147.024 1.41306 147.907 1.67801 148.746 1.94296C150.115 2.38454 151.484 2.87028 152.72 3.62097C153.294 3.97423 153.824 4.3275 154.266 4.81324C154.751 5.29898 155.149 5.87303 155.458 6.49125C155.988 7.63936 156.164 8.87579 156.253 10.1122C156.297 10.9071 156.297 11.7461 156.12 12.5409C155.988 13.1591 155.767 13.8657 155.414 14.4839C155.105 15.0138 154.619 15.4554 154.089 15.7645C153.559 16.0294 152.941 16.206 152.367 16.1619C151.439 16.1619 150.556 15.8969 149.761 15.4995C149.761 12.7617 149.761 10.0681 149.761 7.33025C149.761 6.84451 149.806 6.35877 149.673 5.87303C149.585 5.47561 149.452 5.12235 149.143 4.8574C148.967 4.68076 148.702 4.59245 148.437 4.54829C148.172 4.50413 147.907 4.59245 147.73 4.81324C147.465 5.1665 147.377 5.56393 147.377 6.00551C147.377 13.2916 147.377 20.5777 147.377 27.8196C145.434 27.2014 143.447 26.5832 141.504 25.965C141.504 17.31 141.504 8.655 141.504 0Z" fill="white"/>
<path d="M132.717 18.414C135.278 17.5308 137.839 16.6035 140.356 15.7203C140.356 16.736 140.356 17.7075 140.356 18.7231C140.356 18.8556 140.356 18.988 140.356 19.1205C138.325 19.827 136.338 20.5777 134.306 21.2843C134.041 21.3726 133.732 21.5051 133.511 21.7258C133.423 21.8142 133.335 21.9908 133.379 22.1233C133.467 22.2999 133.6 22.3882 133.776 22.4324C134.218 22.609 134.704 22.6532 135.189 22.6532C135.719 22.6532 136.249 22.609 136.735 22.4765C137.088 22.3882 137.397 22.2999 137.751 22.1674C138.634 21.8583 139.473 21.5492 140.356 21.2401C140.356 22.0791 140.356 22.9181 140.356 23.8013C140.356 23.9779 140.356 24.1545 140.356 24.3312C139.296 24.5078 138.236 24.6403 137.132 24.6844C134.969 24.7286 132.805 24.4195 130.729 23.713C130.067 23.5363 129.405 23.2714 128.831 22.8298C128.522 22.609 128.257 22.2999 128.08 21.9025C127.948 21.5934 127.992 21.2401 128.124 20.931C128.257 20.6219 128.522 20.4011 128.787 20.2245C129.405 19.7829 130.111 19.4738 130.818 19.1647C131.48 18.8114 132.098 18.6348 132.717 18.414Z" fill="white"/>
<path d="M153.25 17.2658C153.824 17.1775 154.398 17.1775 154.972 17.1775C156.871 17.1775 158.814 17.4424 160.625 18.0165C160.978 18.1048 161.331 18.2814 161.684 18.3698C162.303 18.5906 162.965 18.8997 163.451 19.3412C163.76 19.6062 164.025 20.0036 164.025 20.4452C164.025 20.7985 163.892 21.1517 163.672 21.3725C163.23 21.8583 162.656 22.2115 162.082 22.4765C161.464 22.7856 160.801 23.0064 160.183 23.2272C156.253 24.6402 152.367 26.0533 148.437 27.4222C148.437 26.3182 148.437 25.2143 148.437 24.1545C148.437 24.1103 148.437 24.022 148.481 24.022C151.44 22.9622 154.443 21.9024 157.401 20.8426C157.799 20.7101 158.24 20.5777 158.593 20.3127C158.726 20.2244 158.858 20.0478 158.814 19.827C158.726 19.6503 158.593 19.562 158.417 19.5179C157.975 19.3412 157.489 19.2971 157.004 19.2971C156.253 19.2971 155.502 19.3854 154.796 19.6503C152.676 20.401 150.557 21.1517 148.437 21.9024C148.437 20.7101 148.437 19.562 148.437 18.3698C150.027 17.7515 151.616 17.4424 153.25 17.2658Z" fill="white"/>
<path d="M161.949 25.3468C162.391 25.3027 162.877 25.4793 163.186 25.8767C163.495 26.2742 163.539 26.8041 163.318 27.2456C163.097 27.6872 162.612 28.0405 162.082 27.9963C161.596 27.9963 161.154 27.7314 160.934 27.334C160.713 26.9807 160.713 26.5391 160.845 26.1417C161.022 25.7443 161.464 25.391 161.949 25.3468ZM161.817 25.6118C161.552 25.6559 161.331 25.8326 161.154 26.0534C160.978 26.3183 160.889 26.6274 160.978 26.9365C161.022 27.2015 161.199 27.4664 161.464 27.6431C161.861 27.908 162.347 27.8638 162.744 27.5989C163.097 27.334 163.274 26.8482 163.142 26.4066C163.053 26.0975 162.832 25.8767 162.567 25.7001C162.391 25.5676 162.082 25.5235 161.817 25.6118Z" fill="white"/>
<path d="M161.508 25.921C161.729 25.921 161.994 25.921 162.214 25.921C162.347 25.921 162.479 25.9652 162.612 26.0535C162.7 26.1418 162.7 26.3184 162.7 26.4509C162.7 26.5392 162.612 26.5834 162.568 26.6717C162.612 26.7159 162.7 26.76 162.7 26.8483C162.744 26.9808 162.7 27.1133 162.744 27.2899C162.788 27.3341 162.788 27.3782 162.788 27.4666C162.7 27.4666 162.568 27.4666 162.479 27.4666C162.391 27.2899 162.479 27.1133 162.435 26.9808C162.435 26.8925 162.347 26.8925 162.303 26.8925C162.126 26.8925 161.994 26.8925 161.817 26.8925C161.817 27.1133 161.817 27.2899 161.817 27.5107C161.729 27.5107 161.64 27.5107 161.552 27.5107C161.508 26.9367 161.508 26.4068 161.508 25.921ZM161.773 26.1418C161.773 26.2743 161.773 26.4068 161.773 26.5392C161.905 26.5392 162.082 26.5392 162.214 26.5392C162.303 26.5392 162.391 26.5392 162.435 26.4509C162.479 26.3626 162.479 26.2743 162.435 26.186C162.391 26.1418 162.303 26.0977 162.258 26.0977C162.082 26.1418 161.949 26.1418 161.773 26.1418Z" fill="white"/>
<defs>
<clipPath id="clip0">
<rect width="27.1835" height="27.027" fill="white"/>
</clipPath>
</defs>
</svg>
