<svg width="155" height="30" viewBox="0 0 155 30" fill="none" xmlns="http://www.w3.org/2000/svg">
<path d="M104.663 12.856C102.327 12.856 100.439 14.6 100.439 17.016C100.439 19.416 102.327 21.16 104.663 21.16C106.999 21.16 108.887 19.416 108.887 17.016C108.887 14.6 106.999 12.856 104.663 12.856ZM104.663 19.32C103.431 19.32 102.455 18.376 102.455 17.032C102.455 15.656 103.431 14.728 104.663 14.728C105.895 14.728 106.871 15.656 106.871 17.032C106.871 18.376 105.895 19.32 104.663 19.32ZM111.977 13.016H109.945V21H111.977V16.168C111.977 15.24 112.697 14.504 113.641 14.504C114.617 14.504 115.305 15.208 115.305 16.248V21H117.337V16.088C117.337 14.216 116.265 12.84 114.361 12.84C113.337 12.84 112.457 13.288 111.977 14.008V13.016Z" fill="white"/>
<path d="M92.671 9.17992H88.8019L84.6719 17.6812L80.4554 9.17992H76.3253L82.5497 21.7874L78.3904 29.9999H82.4046L92.671 9.17992ZM67.744 20.5144C65.5045 20.5144 63.7005 18.8083 63.7005 16.3789C63.7005 13.9496 65.5045 12.2435 67.744 12.2435C70.0129 12.2435 71.7875 13.9496 71.7875 16.3789C71.7875 18.8083 70.0129 20.5144 67.744 20.5144ZM67.1046 23.8114C68.9086 23.8114 70.5365 23.1464 71.7582 22.0178V23.6087H75.4511V9.17992H71.7582V10.7693C70.5952 9.61297 68.9951 8.94805 67.2498 8.94805C63.4688 8.94805 60.0369 12.0715 60.0369 16.3805C60.0369 20.6879 63.4116 23.8114 67.1046 23.8114ZM58.117 2.20972L54.4241 3.36604V23.6087H58.117V2.20972ZM45.2914 12.8224H40.6377V6.92409H45.2914C47.2112 6.92409 48.5487 8.13877 48.5487 9.87403C48.5487 11.6093 47.2112 12.8224 45.2914 12.8224ZM36.6235 3.36604V23.6087H40.6377V16.2346H45.5817C49.5666 16.2346 52.5321 13.4874 52.5321 9.75732C52.5321 6.05493 49.6824 3.36604 45.7269 3.36604H36.6235Z" fill="#FF4747"/>
<g clip-path="url(#clip0)">
<path d="M13.5717 0C6.07613 0 0 6.04269 0 13.4935C0 20.9475 6.07613 26.9871 13.5717 26.9871C21.0672 26.9871 27.1433 20.9475 27.1433 13.4935C27.1433 6.04269 21.0672 0 13.5717 0ZM8.16431 8.18489H15.9657L14.781 10.0706H6.97967L8.16431 8.18489ZM21.1985 17.609L20.0123 15.7264H16.5495L17.7372 13.8406H18.8307L17.5086 11.7414L13.8203 17.6075H3.98176L6.35105 13.8391H4.61193L5.79503 11.9533H13.4018L12.2171 13.8421H8.58906L7.40287 15.7279H12.7685L17.5086 8.18489L23.4334 17.6106H21.1985V17.609Z" fill="#FF4747"/>
</g>
<path d="M155 14C155 21.4922 148.947 27.5625 141.478 27.5625C135.283 27.5625 130.069 23.3898 128.468 17.6969L133.65 19.8461C133.999 21.6016 135.55 22.9305 137.401 22.9305C139.535 22.9305 141.315 21.1586 141.222 18.9109L145.822 15.6188C148.658 15.6898 151.037 13.382 151.037 10.5055C151.037 7.68359 148.751 5.39219 145.936 5.39219C143.122 5.39219 140.836 7.68906 140.836 10.5055V10.5711L137.613 15.2578C136.77 15.2086 135.942 15.4438 135.245 15.9195L128 12.9117C128.555 5.92813 134.374 0.4375 141.478 0.4375C148.947 0.4375 155 6.50781 155 14ZM136.476 21.0164L134.815 20.3273C135.12 20.9638 135.647 21.4658 136.296 21.7383C137.76 22.3508 139.442 21.6508 140.052 20.1852C140.346 19.4742 140.351 18.6922 140.057 17.9812C139.764 17.2703 139.214 16.7125 138.506 16.4172C137.804 16.1219 137.053 16.1328 136.389 16.3844L138.103 17.0953C139.181 17.5438 139.693 18.7852 139.241 19.868C138.789 20.9562 137.553 21.4648 136.476 21.0164V21.0164ZM145.936 13.9125C144.064 13.9125 142.54 12.3813 142.54 10.5055C142.54 8.62969 144.064 7.09844 145.936 7.09844C147.809 7.09844 149.333 8.62969 149.333 10.5055C149.333 12.3813 147.815 13.9125 145.936 13.9125V13.9125ZM145.942 13.0594C147.352 13.0594 148.495 11.9109 148.495 10.5C148.495 9.08359 147.352 7.94062 145.942 7.94062C144.532 7.94062 143.389 9.08906 143.389 10.5C143.394 11.9109 144.538 13.0594 145.942 13.0594Z" fill="white"/>
<defs>
<clipPath id="clip0">
<rect width="27.1835" height="27.027" fill="white"/>
</clipPath>
</defs>
</svg>
