<svg width="62" height="20" viewBox="0 0 62 20" fill="none" xmlns="http://www.w3.org/2000/svg">
<g clip-path="url(#clip0)">
<path d="M61.5385 6.10002H58.9692L56.2267 11.749L53.4267 6.10002H50.6841L54.8174 14.4776L52.0554 19.9347H54.721L61.5385 6.10002ZM44.9857 13.6316C43.4985 13.6316 42.3005 12.498 42.3005 10.8837C42.3005 9.2694 43.4985 8.13573 44.9857 8.13573C46.4923 8.13573 47.6708 9.2694 47.6708 10.8837C47.6708 12.498 46.4923 13.6316 44.9857 13.6316ZM44.561 15.8225C45.759 15.8225 46.84 15.3806 47.6513 14.6306V15.6878H50.1036V6.10002H47.6513V7.15614C46.879 6.38777 45.8164 5.94593 44.6574 5.94593C42.1467 5.94593 39.8677 8.02144 39.8677 10.8847C39.8677 13.747 42.1087 15.8225 44.561 15.8225ZM38.5928 1.46838L36.1405 2.23675V15.6878H38.5928V1.46838ZM30.0759 8.52042H26.9856V4.60104H30.0759C31.3508 4.60104 32.239 5.40818 32.239 6.56124C32.239 7.7143 31.3508 8.52042 30.0759 8.52042ZM24.32 2.23675V15.6878H26.9856V10.7878H30.2687C32.9149 10.7878 34.8841 8.96226 34.8841 6.48369C34.8841 4.02349 32.9918 2.23675 30.3651 2.23675H24.32Z" fill="#FF4747"/>
<g clip-path="url(#clip1)">
<path d="M9.01231 0C4.03487 0 0 4.01531 0 8.96633C0 13.9194 4.03487 17.9327 9.01231 17.9327C13.9897 17.9327 18.0246 13.9194 18.0246 8.96633C18.0246 4.01531 13.9897 0 9.01231 0ZM5.42154 5.43878H10.6021L9.81538 6.69184H4.63487L5.42154 5.43878ZM14.0769 11.701L13.2892 10.45H10.9897L11.7785 9.19694H12.5046L11.6267 7.80204L9.17744 11.7H2.6441L4.21744 9.19592H3.06256L3.84821 7.94286H8.89949L8.11282 9.19796H5.70359L4.9159 10.451H8.47897L11.6267 5.43878L15.561 11.702H14.0769V11.701Z" fill="#FF4747"/>
</g>
</g>
<defs>
<clipPath id="clip0">
<rect width="61.5385" height="20" fill="white"/>
</clipPath>
<clipPath id="clip1">
<rect width="18.0513" height="17.9592" fill="white"/>
</clipPath>
</defs>
</svg>
