<svg width="90" height="20" viewBox="0 0 90 20" fill="none" xmlns="http://www.w3.org/2000/svg">
<g clip-path="url(#clip0)">
<path d="M69.3801 2.24585C71.9434 2.24585 73.794 3.94221 73.794 6.2165C73.794 8.51026 71.9434 10.2261 69.3801 10.2261H66.1027V15.7389H64.4063V2.24585H69.3801ZM72.1186 6.2165C72.1186 4.77018 71.0391 3.76853 69.3816 3.76853H66.1042V8.74233H69.3816C71.0001 8.74233 72.1186 7.68229 72.1186 6.2165Z" fill="#FF4747"/>
<path d="M61.4239 6.11917H58.8591L56.1222 11.7862L53.3269 6.11917H50.5899L54.7148 14.5246L51.9584 20H54.619L61.4239 6.11917ZM44.902 13.6772C43.4182 13.6772 42.2219 12.5393 42.2219 10.9208C42.2219 9.30079 43.4167 8.16439 44.902 8.16439C46.4052 8.16439 47.582 9.30228 47.582 10.9208C47.582 12.5393 46.4067 13.6772 44.902 13.6772ZM44.4782 15.8751C45.673 15.8751 46.754 15.4319 47.5625 14.6803V15.7404H50.0105V6.11917H47.5625V7.17921C46.7915 6.40814 45.7314 5.96496 44.5741 5.96496C42.0677 5.96496 39.7934 8.0476 39.7934 10.9193C39.7934 13.7925 42.0303 15.8751 44.4782 15.8751ZM38.5208 1.47327L36.0728 2.24434V15.7389H38.5208V1.47327ZM30.0195 8.54918H26.9352V4.61595H30.0195C31.2921 4.61595 32.1785 5.42595 32.1785 6.58182C32.1785 7.73917 31.2921 8.54918 30.0195 8.54918ZM24.2746 2.24434V15.7389H26.9352V10.8235H30.2126C32.8538 10.8235 34.8196 8.99236 34.8196 6.50546C34.8196 4.03802 32.9301 2.24434 30.3085 2.24434H24.2746V2.24434Z" fill="#FF4747"/>
<path d="M84.9947 14.4483C83.2025 14.4483 81.7757 13.0214 81.7757 11.0361C81.7757 9.05074 83.2025 7.62388 84.9947 7.62388C86.7869 7.62388 88.2138 9.05074 88.2138 11.0361C88.2138 13.0214 86.7884 14.4483 84.9947 14.4483ZM84.9947 6.15809C82.2772 6.15809 80.1557 8.22128 80.1557 11.0346C80.1557 13.8494 82.2757 15.9125 84.9947 15.9125C87.7137 15.9125 89.8338 13.8494 89.8338 11.0346C89.8338 8.22128 87.7137 6.15809 84.9947 6.15809ZM76.6671 6.35124H75.0471V15.7404H76.6671V10.283C76.6671 8.60606 78.1329 7.35288 79.8862 7.68078V6.13863C78.4398 5.94549 77.284 6.60127 76.6671 7.96974V6.35124Z" fill="#FF4747"/>
<g clip-path="url(#clip1)">
<path d="M8.96633 0C4.01429 0 0 4.01531 0 8.96633C0 13.9194 4.01429 17.9327 8.96633 17.9327C13.9184 17.9327 17.9327 13.9194 17.9327 8.96633C17.9327 4.01531 13.9184 0 8.96633 0ZM5.39388 5.43878H10.548L9.76531 6.69184H4.61122L5.39388 5.43878ZM14.0051 11.701L13.2214 10.45H10.9337L11.7184 9.19694H12.4408L11.5673 7.80204L9.13061 11.7H2.63061L4.19592 9.19592H3.04694L3.82857 7.94286H8.85408L8.07143 9.19796H5.67449L4.89082 10.451H8.43572L11.5673 5.43878L15.4816 11.702H14.0051V11.701Z" fill="#FF4747"/>
</g>
</g>
<defs>
<clipPath id="clip0">
<rect width="89.8338" height="20" fill="white"/>
</clipPath>
<clipPath id="clip1">
<rect width="17.9592" height="17.9592" fill="white"/>
</clipPath>
</defs>
</svg>
