<svg width="54" height="81" viewBox="0 0 54 81" fill="none" xmlns="http://www.w3.org/2000/svg">
<path d="M53.3333 0.4375H52.56H0.776001H0V1.29617V79.5815V80.4375H0.776001H52.56H53.3333V79.5815V1.29617V0.4375Z" fill="white"/>
<path d="M52.5331 1.23755V79.6376H0.799805V1.23755H52.5331Z" fill="#231F20"/>
<path d="M49.6001 3.90417H3.4668V16.9708H49.6001V3.90417Z" fill="white"/>
<path d="M49.5999 19.9041H3.46655V67.6375H49.5999V19.9041Z" fill="white"/>
<path d="M3.46631 76.7041V70.3041H12.7996V71.9041H6.93298V72.7041H11.733V74.3041H6.93298V75.1041H12.7996V76.7041H3.46631Z" fill="white"/>
<path d="M20.6982 72.1361C20.6369 71.9121 20.4182 71.7681 20.1329 71.6881C19.8555 71.6028 19.5089 71.5655 19.1222 71.5655C18.2609 71.5655 17.8769 71.7068 17.8769 71.9548C17.8769 72.9388 24.7462 72.3201 24.7462 74.7388C24.7462 76.2775 22.4369 77.0321 19.1569 77.0321C16.0049 77.0321 13.9489 76.0081 13.8662 74.8055H17.6129C17.6955 75.0455 17.9302 75.2161 18.2636 75.3281C18.5782 75.4375 18.9889 75.4961 19.3755 75.4961C20.3542 75.4961 21.0049 75.3228 21.0049 75.0081C21.0049 74.0001 14.1302 74.6908 14.1302 72.1575C14.1302 70.7441 16.3222 70.0375 19.3089 70.0375C22.6235 70.0375 24.1355 70.9761 24.4209 72.1388H20.6982V72.1361Z" fill="white"/>
<path d="M30.133 73.2374H31.677C32.893 73.2374 33.5463 73.0614 33.5463 72.6001C33.5463 72.1307 32.8797 71.9041 31.965 71.9041H30.133V73.2374ZM30.133 74.5707V76.7041H26.3997V70.3041H31.829C35.6557 70.3041 36.9197 70.8907 36.9197 72.1334C36.9197 72.8721 36.3303 73.4881 34.989 73.7041C36.1997 73.9467 36.9357 74.0987 36.9357 75.3894C36.9357 76.2214 36.8877 76.5121 37.333 76.5121V76.7041H33.4983C33.405 76.5681 33.309 76.1761 33.309 75.6347C33.309 74.8294 33.053 74.5707 31.2877 74.5707H30.133Z" fill="white"/>
<path d="M42.9328 71.9041V72.9707H44.4955C45.2421 72.9707 45.7861 72.7787 45.7861 72.4134C45.7861 71.9147 45.0475 71.9041 44.2581 71.9041H42.9328ZM42.9328 74.0374V75.1041H44.4181C45.2608 75.1041 45.8955 75.0054 45.8955 74.5734C45.8955 74.0667 45.1035 74.0374 44.0155 74.0374H42.9328ZM39.1995 76.7041V70.3041H44.6928C47.2795 70.3041 49.3381 70.6507 49.3381 71.9174C49.3381 72.5787 48.5701 73.0561 47.8368 73.3067C49.0795 73.4881 49.7461 74.0854 49.7461 74.7734C49.7461 76.2001 47.7888 76.7041 44.7968 76.7041H39.1995Z" fill="white"/>
<path d="M45.6879 63.6295C46.1199 63.5681 46.2266 63.3895 46.2266 63.1895C46.2266 62.9815 46.1226 62.8695 45.7493 62.8295H45.1173V63.6295H45.6879ZM45.1173 63.8961V65.2295H44.5839V62.5628H45.6346C46.2293 62.5628 46.8346 62.6988 46.8346 63.3015C46.8346 63.6081 46.6159 63.8561 46.1839 63.9281V63.8588C46.1839 63.8588 46.6533 64.1095 46.6986 64.4081C46.7413 64.6668 46.7733 64.9575 46.8719 65.2321H46.2826C46.248 65.0508 46.2026 64.8668 46.1866 64.7095C46.1546 64.4695 46.1546 64.2455 46.0186 64.1201C45.9013 64.0188 45.5839 64.1655 45.5839 64.1655H45.1173V63.8961ZM47.808 63.8535C47.808 62.7841 46.8853 61.9228 45.7359 61.9228C44.5813 61.9228 43.6453 62.7868 43.6453 63.8535C43.6453 64.9228 44.5813 65.7948 45.7359 65.7948C46.8826 65.7975 47.808 64.9228 47.808 63.8535ZM43.2 63.8535C43.2 62.5575 44.3253 61.5042 45.7359 61.5042C47.1279 61.5042 48.2533 62.5575 48.2533 63.8535C48.2533 65.1548 47.1279 66.2081 45.7359 66.2081C44.3253 66.2081 43.2 65.1575 43.2 63.8535Z" fill="#231F20"/>
<path d="M6.93311 30.9281L34.9091 22.5708L37.7144 31.4321L23.7011 35.6135L24.8478 39.2401L37.7944 35.3761L40.5944 44.2401L27.6531 48.0988L28.8638 51.9175L43.3358 47.5921L46.1411 56.4508L17.7118 64.9441L6.93311 30.9281Z" fill="#231F20"/>
<path d="M4.7998 14.3043V6.83759H8.53313V7.90425H6.13314V9.77092H8.26647V11.1043H6.13314V13.2376H8.7998V14.3043H4.7998Z" fill="#231F20"/>
<path d="M9.06641 6.83759H10.6931L11.8157 12.1709H11.8371L13.1011 6.83759H14.6477L12.6931 14.3043H10.8851L9.06641 6.83759Z" fill="#231F20"/>
<path d="M15.1997 14.3043V6.83759H19.1997V7.90425H16.7997V9.77092H18.933V11.1043H16.7997V13.2376H19.1997V14.3043H15.1997Z" fill="#231F20"/>
<path d="M21.8664 14.3043H20.2664V6.83759H23.109C23.6397 6.83759 24.0584 7.00292 24.3704 7.33359C24.6797 7.66425 24.8317 8.15225 24.8317 8.79225C24.8317 9.26692 24.7277 9.67225 24.5224 10.0029C24.3144 10.3336 23.9624 10.5416 23.4664 10.6243V10.8323C23.5437 10.8456 23.6557 10.8643 23.7997 10.8909C23.9437 10.9149 24.085 10.9763 24.2264 11.0669C24.3677 11.1576 24.4904 11.2936 24.5944 11.4749C24.6984 11.6536 24.7517 11.9043 24.7517 12.2243C24.7517 12.3336 24.7517 12.4936 24.757 12.6936C24.7597 12.8963 24.7677 13.1043 24.781 13.3229C24.7944 13.5389 24.813 13.7389 24.837 13.9203C24.861 14.1016 24.8877 14.2296 24.9197 14.3043H23.469C23.3704 14.0856 23.3197 13.8616 23.317 13.6269C23.3144 13.3923 23.3117 13.1603 23.3117 12.9309C23.3117 12.7229 23.309 12.5229 23.3064 12.3336C23.3037 12.1443 23.269 11.9789 23.2077 11.8376C23.1464 11.6963 23.0424 11.5843 22.8957 11.4989C22.749 11.4136 22.533 11.3709 22.253 11.3709H21.869V14.3043H21.8664ZM21.8664 10.0376H22.5704C22.725 10.0376 22.853 10.0029 22.9597 9.93092C23.0664 9.86159 23.149 9.76825 23.2104 9.65892C23.2744 9.54959 23.317 9.42692 23.3437 9.29359C23.3677 9.16025 23.3784 9.02959 23.3784 8.90959C23.3784 8.54159 23.309 8.28292 23.165 8.12825C23.021 7.97892 22.8237 7.90159 22.573 7.90159H21.869V10.0376H21.8664Z" fill="#231F20"/>
<path d="M27.0691 11.7176L25.0664 6.83759H26.8157L27.9597 9.99225L29.1757 6.83759H30.8051L28.6691 11.7176V14.3043H27.0691V11.7176Z" fill="#231F20"/>
<path d="M33.709 14.4349C33.085 14.4349 32.6024 14.3283 32.2584 14.1149C31.917 13.9016 31.669 13.6163 31.5117 13.2589C31.3597 12.9043 31.269 12.4989 31.2424 12.0429C31.2157 11.5896 31.1997 11.1203 31.1997 10.6376C31.1997 10.1469 31.2157 9.67759 31.2424 9.22159C31.269 8.76825 31.3597 8.36292 31.5117 8.01092C31.669 7.65625 31.917 7.37359 32.2584 7.16025C32.6024 6.94425 33.085 6.83759 33.709 6.83759C34.3304 6.83759 34.8157 6.94425 35.157 7.16025C35.4984 7.37359 35.7464 7.65625 35.9037 8.01092C36.0557 8.36292 36.1464 8.76559 36.173 9.22159C36.1997 9.67759 36.213 10.1469 36.213 10.6376C36.213 11.1203 36.1997 11.5869 36.173 12.0429C36.1464 12.4989 36.0557 12.9043 35.9037 13.2589C35.749 13.6163 35.4984 13.9016 35.157 14.1149C34.8157 14.3283 34.3304 14.4349 33.709 14.4349ZM33.709 13.3363C33.9224 13.3363 34.0957 13.2829 34.221 13.1789C34.3464 13.0749 34.445 12.9123 34.5117 12.6963C34.581 12.4776 34.621 12.1976 34.6424 11.8563C34.6637 11.5123 34.6744 11.1069 34.6744 10.6403C34.6744 10.1709 34.6637 9.76559 34.6424 9.42425C34.621 9.08025 34.5784 8.80292 34.5117 8.58425C34.4424 8.36559 34.3464 8.20559 34.221 8.10159C34.093 7.99759 33.9224 7.94159 33.709 7.94159C33.493 7.94159 33.3224 7.99492 33.1944 8.10159C33.0664 8.20559 32.9704 8.36559 32.9037 8.58425C32.8344 8.80292 32.7917 9.08025 32.7704 9.42425C32.7517 9.76559 32.741 10.1736 32.741 10.6403C32.741 11.1096 32.7517 11.5123 32.7704 11.8563C32.7917 12.1976 32.8344 12.4776 32.9037 12.6963C32.9704 12.9123 33.0664 13.0749 33.1944 13.1789C33.3224 13.2829 33.493 13.3363 33.709 13.3363Z" fill="#231F20"/>
<path d="M37.5999 14.3043V6.83759H39.6532L41.5785 11.9043H41.5998V6.83759H42.9332V14.3043H40.8159L38.9519 8.97092H38.9332V14.3043H37.5999Z" fill="#231F20"/>
<path d="M44.2666 14.3043V6.83759H48.2666V7.90425H45.8666V9.77092H47.9999V11.1043H45.8666V13.2376H48.2666V14.3043H44.2666Z" fill="#231F20"/>
</svg>
