<svg width="311" height="84" viewBox="0 0 311 84" fill="none" xmlns="http://www.w3.org/2000/svg">
<path d="M7.266 17V15.908H1.946V12.548H6.006V11.456H1.946V8.292H7.266V7.2H0.714V17H7.266ZM15.9273 17H17.2993L12.5253 6.962L7.7653 17H9.0253L10.1313 14.634H14.8213L15.9273 17ZM10.6213 13.57L12.4833 9.608L14.3313 13.57H10.6213ZM24.2687 17C27.1107 17 29.2387 14.998 29.2387 12.1C29.2387 9.202 27.1107 7.2 24.2687 7.2H20.8527V17H24.2687ZM24.2687 8.292C26.2847 8.292 28.0067 9.846 28.0067 12.1C28.0067 14.354 26.2847 15.908 24.2687 15.908H22.0847V8.292H24.2687ZM36.8067 15.124H35.4907C35.0707 15.698 34.4267 16.076 33.6847 16.076C32.5087 16.076 31.5567 15.236 31.3747 14.004H37.0027V13.892C37.0027 11.456 35.4907 10.042 33.6147 10.042C31.6827 10.042 30.1707 11.54 30.1707 13.584C30.1707 15.628 31.7107 17.126 33.6847 17.126C35.0847 17.126 36.2747 16.342 36.8067 15.124ZM33.6007 11.106C34.6647 11.106 35.5327 11.862 35.7707 12.996H31.4027C31.6407 11.862 32.5367 11.106 33.6007 11.106ZM37.8116 12.086C37.8116 13.5 39.1416 13.822 40.3176 14.102C41.2416 14.312 42.0676 14.508 42.0676 15.18C42.0676 15.782 41.4656 16.132 40.6956 16.132C39.7016 16.132 38.9456 15.53 38.8896 14.662H37.7416C37.8116 16.104 39.0016 17.126 40.6816 17.126C42.1096 17.126 43.2296 16.356 43.2296 15.068C43.2296 13.654 41.8016 13.36 40.6116 13.08C39.7296 12.856 38.9736 12.646 38.9736 12.002C38.9736 11.442 39.4636 11.064 40.2756 11.064C41.2276 11.064 41.9136 11.61 41.9836 12.436H43.1456C43.0616 11.05 41.8436 10.056 40.2336 10.056C38.8756 10.056 37.8256 10.854 37.8116 12.086ZM45.2829 6.738L44.1069 7.2V17H45.2829V6.738ZM45.4509 13.64L48.3069 17H49.8329L46.8369 13.556L49.7769 10.182H48.4469L45.4509 13.64ZM51.4639 15.334C51.4639 16.412 52.0519 17 53.1579 17H54.5999V15.964H53.4379C52.8919 15.964 52.6399 15.712 52.6399 15.25V11.19H54.5999V10.182H52.6399V8.446L51.4639 8.81V10.182H49.7839V11.19H51.4639V15.334ZM58.4581 10.042C56.4841 10.042 54.9441 11.54 54.9441 13.584C54.9441 15.628 56.4841 17.126 58.4581 17.126C60.4321 17.126 61.9721 15.628 61.9721 13.584C61.9721 11.54 60.4321 10.042 58.4581 10.042ZM58.4581 16.062C57.1561 16.062 56.1201 15.026 56.1201 13.584C56.1201 12.142 57.1561 11.106 58.4581 11.106C59.7601 11.106 60.7961 12.142 60.7961 13.584C60.7961 15.026 59.7601 16.062 58.4581 16.062ZM64.2321 20.052V15.922C64.8201 16.664 65.7021 17.112 66.6821 17.112C68.5861 17.112 70.0561 15.614 70.0561 13.584C70.0561 11.554 68.5861 10.056 66.6821 10.056C65.7021 10.056 64.8201 10.504 64.2321 11.246V10.182H63.0561V20.052H64.2321ZM66.5421 11.12C67.8441 11.12 68.8801 12.142 68.8801 13.584C68.8801 15.026 67.8441 16.048 66.5421 16.048C65.2401 16.048 64.2041 15.026 64.2041 13.584C64.2041 12.142 65.2401 11.12 66.5421 11.12ZM81.5113 17H82.8833L78.1093 6.962L73.3493 17H74.6093L75.7153 14.634H80.4053L81.5113 17ZM76.2053 13.57L78.0673 9.608L79.9153 13.57H76.2053ZM84.6716 20.052V15.922C85.2596 16.664 86.1416 17.112 87.1216 17.112C89.0256 17.112 90.4956 15.614 90.4956 13.584C90.4956 11.554 89.0256 10.056 87.1216 10.056C86.1416 10.056 85.2596 10.504 84.6716 11.246V10.182H83.4956V20.052H84.6716ZM86.9816 11.12C88.2836 11.12 89.3196 12.142 89.3196 13.584C89.3196 15.026 88.2836 16.048 86.9816 16.048C85.6796 16.048 84.6436 15.026 84.6436 13.584C84.6436 12.142 85.6796 11.12 86.9816 11.12ZM92.7516 20.052V15.922C93.3396 16.664 94.2216 17.112 95.2016 17.112C97.1056 17.112 98.5756 15.614 98.5756 13.584C98.5756 11.554 97.1056 10.056 95.2016 10.056C94.2216 10.056 93.3396 10.504 92.7516 11.246V10.182H91.5756V20.052H92.7516ZM95.0616 11.12C96.3636 11.12 97.3996 12.142 97.3996 13.584C97.3996 15.026 96.3636 16.048 95.0616 16.048C93.7596 16.048 92.7236 15.026 92.7236 13.584C92.7236 12.142 93.7596 11.12 95.0616 11.12Z" fill="white"/>
<path d="M4.44 56V48.992H11.592V46.088H4.44V42.152H13.272V39.2H1.08V56H4.44ZM15.0019 39.2V56H18.3619V39.2H15.0019ZM23.8931 56V48.992H31.0451V46.088H23.8931V42.152H32.7251V39.2H20.5331V56H23.8931ZM43.6794 56H47.1834L38.5434 38.48L29.9034 56H33.3114L34.9674 52.424H41.9754L43.6794 56ZM36.1674 49.856L38.4234 44.96L40.7514 49.856H36.1674ZM61.3656 49.664C63.7416 46.952 64.2456 45.752 64.2456 44.072C64.2456 41.144 61.8216 38.984 58.6776 38.984C55.2216 38.984 52.4136 41.36 52.4376 45.176H55.3416C55.4856 43.016 56.7816 41.672 58.5816 41.672C60.0216 41.672 61.1976 42.68 61.1976 44.168C61.1976 45.272 60.9336 46.088 59.1336 48.176L52.3896 56H64.7016V53.312H58.1496L61.3656 49.664ZM65.8678 56H77.1478V53.312H73.0678V39.2H66.8758L65.8678 41.888H69.9718V53.312H65.8678V56ZM91.9069 53.216C88.9549 53.216 86.5549 50.888 86.5549 47.624C86.5549 44.288 88.9549 41.984 91.9069 41.984C94.3069 41.984 96.3469 43.472 97.0429 45.848H100.283C99.4909 41.768 96.0589 38.96 91.9069 38.96C87.1309 38.96 83.2669 42.608 83.2669 47.624C83.2669 52.592 87.1309 56.24 91.9069 56.24C96.0589 56.24 99.4909 53.432 100.283 49.352H97.0429C96.3469 51.728 94.3069 53.216 91.9069 53.216ZM104.977 38.24L101.929 39.2V56H104.977V48.752C104.977 47.36 106.057 46.256 107.473 46.256C108.937 46.256 109.969 47.312 109.969 48.872V56H113.017V48.632C113.017 45.824 111.409 43.76 108.553 43.76C107.017 43.76 105.697 44.432 104.977 45.512V38.24ZM120.433 56.168C121.921 56.168 123.265 55.592 124.249 54.608V56H127.297V44.024H124.249V45.416C123.313 44.408 121.993 43.832 120.553 43.832C117.433 43.832 114.601 46.424 114.601 50C114.601 53.576 117.385 56.168 120.433 56.168ZM120.961 53.456C119.113 53.456 117.625 52.04 117.625 50C117.625 47.96 119.113 46.544 120.961 46.544C122.833 46.544 124.297 47.96 124.297 50C124.297 52.04 122.833 53.456 120.961 53.456ZM132.258 44.024H129.21V56H132.258V48.776C132.258 47.384 133.29 46.28 134.634 46.28C136.026 46.28 137.01 47.336 137.01 48.896V56H140.058V48.776C140.058 47.384 141.09 46.28 142.434 46.28C143.826 46.28 144.81 47.336 144.81 48.896V56H147.858V48.656C147.858 45.848 146.25 43.784 143.394 43.784C141.642 43.784 140.13 44.648 139.458 45.944C138.762 44.624 137.49 43.784 135.714 43.784C134.226 43.784 132.93 44.48 132.258 45.56V44.024ZM152.836 61.304V54.584C153.772 55.592 155.092 56.168 156.532 56.168C159.652 56.168 162.484 53.576 162.484 50C162.484 46.424 159.7 43.832 156.652 43.832C155.164 43.832 153.82 44.408 152.836 45.392V44.024H149.788V61.304H152.836ZM156.124 46.544C157.972 46.544 159.46 47.96 159.46 50C159.46 52.04 157.972 53.456 156.124 53.456C154.252 53.456 152.788 52.04 152.788 50C152.788 47.96 154.252 46.544 156.124 46.544ZM165.574 42.536C166.654 42.536 167.542 41.648 167.542 40.568C167.542 39.488 166.654 38.6 165.574 38.6C164.518 38.6 163.63 39.488 163.63 40.568C163.63 41.648 164.518 42.536 165.574 42.536ZM167.11 44.024H164.062V56H167.11V44.024ZM175.03 43.784C171.526 43.784 168.694 46.4 168.694 50.024C168.694 53.624 171.526 56.24 175.03 56.24C178.534 56.24 181.366 53.624 181.366 50.024C181.366 46.4 178.534 43.784 175.03 43.784ZM175.03 53.48C173.182 53.48 171.718 52.064 171.718 50.048C171.718 47.984 173.182 46.592 175.03 46.592C176.878 46.592 178.342 47.984 178.342 50.048C178.342 52.064 176.878 53.48 175.03 53.48ZM186 44.024H182.952V56H186V48.752C186 47.36 187.08 46.256 188.496 46.256C189.96 46.256 190.992 47.312 190.992 48.872V56H194.04V48.632C194.04 45.824 192.432 43.76 189.576 43.76C188.04 43.76 186.72 44.432 186 45.512V44.024ZM195.576 47.432C195.576 50 198.024 50.672 200.064 51.2C201.528 51.584 202.776 51.896 202.776 52.76C202.776 53.456 201.984 53.936 200.88 53.936C199.392 53.936 198.264 53.096 198.096 51.848H195.312C195.576 54.416 197.832 56.24 200.88 56.24C203.64 56.24 205.8 54.776 205.8 52.472C205.8 49.976 203.352 49.304 201.312 48.776C199.824 48.392 198.552 48.056 198.552 47.168C198.552 46.448 199.32 46.064 200.16 46.064C201.576 46.064 202.632 46.88 202.824 48.128H205.608C205.344 45.56 203.16 43.76 200.208 43.76C197.592 43.76 195.576 45.128 195.576 47.432ZM13.272 80V77.096H4.44V72.992H11.592V70.088H4.44V66.152H13.272V63.2H1.08V80H13.272ZM19.9091 80.168C21.3971 80.168 22.7411 79.592 23.7251 78.608V80H26.7731V62.24L23.7251 63.2V69.416C22.7891 68.408 21.4691 67.832 20.0291 67.832C16.9091 67.832 14.0771 70.424 14.0771 74C14.0771 77.576 16.8611 80.168 19.9091 80.168ZM20.4371 77.456C18.5891 77.456 17.1011 76.04 17.1011 74C17.1011 71.96 18.5891 70.544 20.4371 70.544C22.3091 70.544 23.7731 71.96 23.7731 74C23.7731 76.04 22.3091 77.456 20.4371 77.456ZM30.1986 66.536C31.2786 66.536 32.1666 65.648 32.1666 64.568C32.1666 63.488 31.2786 62.6 30.1986 62.6C29.1426 62.6 28.2546 63.488 28.2546 64.568C28.2546 65.648 29.1426 66.536 30.1986 66.536ZM31.7346 68.024H28.6866V80H31.7346V68.024ZM35.8873 76.904C35.8873 78.752 37.1833 80 39.3913 80H42.3673V77.288H40.2553C39.3193 77.288 38.8873 76.856 38.8873 76.064V70.616H42.3673V68.024H38.8873V64.52L35.8873 65.48V68.024H33.1273V70.616H35.8873V76.904ZM45.2689 66.536C46.3489 66.536 47.2369 65.648 47.2369 64.568C47.2369 63.488 46.3489 62.6 45.2689 62.6C44.2129 62.6 43.3249 63.488 43.3249 64.568C43.3249 65.648 44.2129 66.536 45.2689 66.536ZM46.8049 68.024H43.7569V80H46.8049V68.024ZM54.7256 67.784C51.2216 67.784 48.3896 70.4 48.3896 74.024C48.3896 77.624 51.2216 80.24 54.7256 80.24C58.2296 80.24 61.0616 77.624 61.0616 74.024C61.0616 70.4 58.2296 67.784 54.7256 67.784ZM54.7256 77.48C52.8776 77.48 51.4136 76.064 51.4136 74.048C51.4136 71.984 52.8776 70.592 54.7256 70.592C56.5736 70.592 58.0376 71.984 58.0376 74.048C58.0376 76.064 56.5736 77.48 54.7256 77.48ZM65.6955 68.024H62.6475V80H65.6955V72.752C65.6955 71.36 66.7755 70.256 68.1915 70.256C69.6555 70.256 70.6875 71.312 70.6875 72.872V80H73.7355V72.632C73.7355 69.824 72.1275 67.76 69.2715 67.76C67.7355 67.76 66.4155 68.432 65.6955 69.512V68.024Z" fill="white"/>
<path d="M258.261 21.5H260.061V19.6C262.521 19.4 264.361 17.96 264.361 15.7C264.361 13.24 262.121 12.56 260.061 12.02V8.7C261.041 9.06 261.701 9.84 261.801 10.9H264.261C264.101 8.64 262.401 6.92 260.061 6.46V4.82H258.261V6.36C255.941 6.54 254.241 7.98 254.201 10.2C254.201 12.66 256.281 13.42 258.261 13.96V17.3C257.221 16.92 256.501 16.1 256.421 14.98H253.981C254.141 17.32 255.821 19.08 258.261 19.52V21.5ZM256.721 9.98C256.721 9.2 257.341 8.66 258.261 8.52V11.52C257.361 11.2 256.721 10.76 256.721 9.98ZM261.821 16C261.821 16.78 261.081 17.32 260.061 17.46V14.46C261.081 14.78 261.821 15.18 261.821 16ZM266.067 20H268.967L276.027 6H265.167V8.24H272.307L266.067 20ZM276.598 10.7C276.598 13.38 278.778 15.28 281.438 15.28C281.758 15.28 282.058 15.26 282.318 15.22L278.778 20.06H281.578L285.278 15.04C286.598 13.24 287.038 11.98 287.038 10.62C287.038 7.9 284.698 5.82 281.778 5.82C278.758 5.82 276.598 8.08 276.598 10.7ZM281.798 7.98C283.398 7.98 284.618 9.14 284.618 10.66C284.618 12.2 283.398 13.36 281.798 13.36C280.198 13.36 278.998 12.2 278.998 10.66C278.998 9.14 280.198 7.98 281.798 7.98ZM287.922 16.82C287.042 16.82 286.302 17.56 286.302 18.46C286.302 19.36 287.042 20.1 287.922 20.1C288.822 20.1 289.562 19.36 289.562 18.46C289.562 17.56 288.822 16.82 287.922 16.82ZM288.453 10.7C288.453 13.38 290.633 15.28 293.293 15.28C293.613 15.28 293.913 15.26 294.173 15.22L290.633 20.06H293.433L297.133 15.04C298.453 13.24 298.893 11.98 298.893 10.62C298.893 7.9 296.553 5.82 293.633 5.82C290.613 5.82 288.453 8.08 288.453 10.7ZM293.653 7.98C295.253 7.98 296.473 9.14 296.473 10.66C296.473 12.2 295.253 13.36 293.653 13.36C292.053 13.36 290.853 12.2 290.853 10.66C290.853 9.14 292.053 7.98 293.653 7.98ZM300.074 10.7C300.074 13.38 302.254 15.28 304.914 15.28C305.234 15.28 305.534 15.26 305.794 15.22L302.254 20.06H305.054L308.754 15.04C310.074 13.24 310.514 11.98 310.514 10.62C310.514 7.9 308.174 5.82 305.254 5.82C302.234 5.82 300.074 8.08 300.074 10.7ZM305.274 7.98C306.874 7.98 308.094 9.14 308.094 10.66C308.094 12.2 306.874 13.36 305.274 13.36C303.674 13.36 302.474 12.2 302.474 10.66C302.474 9.14 303.674 7.98 305.274 7.98ZM274.937 34.5V32.244H272.801V31.356H274.937V29.136H275.861V31.356H277.997V32.244H275.861V34.5H274.937ZM283.151 34.524V30.804H281.615V29.94H283.151V28.512L284.147 28.152V29.94H285.935V30.804H284.147V34.476C284.147 34.684 284.203 34.844 284.315 34.956C284.427 35.06 284.595 35.112 284.819 35.112H285.935V36H284.567C284.111 36 283.759 35.876 283.511 35.628C283.271 35.372 283.151 35.004 283.151 34.524ZM290.821 36V34.944C290.661 35.296 290.405 35.58 290.053 35.796C289.709 36.004 289.301 36.108 288.829 36.108C288.253 36.108 287.777 35.948 287.401 35.628C287.033 35.3 286.849 34.884 286.849 34.38C286.849 33.9 287.029 33.512 287.389 33.216C287.749 32.912 288.241 32.736 288.865 32.688L290.821 32.544V32.232C290.821 31.792 290.685 31.428 290.413 31.14C290.149 30.844 289.817 30.696 289.417 30.696C288.993 30.696 288.657 30.804 288.409 31.02C288.169 31.228 288.009 31.52 287.929 31.896H286.933C286.997 31.288 287.261 30.792 287.725 30.408C288.189 30.016 288.757 29.82 289.429 29.82C290.173 29.82 290.757 30.048 291.181 30.504C291.605 30.952 291.817 31.524 291.817 32.22V36H290.821ZM287.845 34.38C287.845 34.636 287.953 34.852 288.169 35.028C288.385 35.196 288.669 35.28 289.021 35.28C289.509 35.28 289.929 35.128 290.281 34.824C290.641 34.52 290.821 34.164 290.821 33.756V33.324L289.057 33.456C288.681 33.488 288.385 33.584 288.169 33.744C287.953 33.896 287.845 34.108 287.845 34.38ZM292.769 36L295.025 32.844L292.961 29.94H294.173L295.625 32.04L297.065 29.94H298.193L296.165 32.82L298.433 36H297.221L295.565 33.6L293.897 36H292.769ZM301.86 36.108C301.452 36.108 301.068 36.028 300.708 35.868C300.348 35.708 300.036 35.492 299.772 35.22C299.508 34.94 299.3 34.608 299.148 34.224C298.996 33.832 298.92 33.408 298.92 32.952C298.92 32.504 298.992 32.088 299.136 31.704C299.288 31.32 299.492 30.992 299.748 30.72C300.012 30.44 300.32 30.22 300.672 30.06C301.024 29.9 301.4 29.82 301.8 29.82C302.184 29.82 302.548 29.9 302.892 30.06C303.236 30.212 303.536 30.432 303.792 30.72C304.048 31.008 304.252 31.368 304.404 31.8C304.556 32.224 304.632 32.704 304.632 33.24V33.312H299.952C300.024 33.872 300.24 34.328 300.6 34.68C300.96 35.032 301.38 35.208 301.86 35.208C302.164 35.208 302.444 35.136 302.7 34.992C302.964 34.84 303.176 34.64 303.336 34.392H304.464C304.248 34.912 303.904 35.328 303.432 35.64C302.968 35.952 302.444 36.108 301.86 36.108ZM301.788 30.732C301.34 30.732 300.944 30.896 300.6 31.224C300.264 31.552 300.052 31.972 299.964 32.484H303.576C303.496 31.972 303.288 31.552 302.952 31.224C302.616 30.896 302.228 30.732 301.788 30.732ZM305.799 31.62C305.807 31.084 306.011 30.652 306.411 30.324C306.819 29.996 307.323 29.832 307.923 29.832C308.619 29.832 309.203 30.032 309.675 30.432C310.147 30.824 310.399 31.328 310.431 31.944H309.447C309.415 31.568 309.259 31.268 308.979 31.044C308.707 30.812 308.359 30.696 307.935 30.696C307.583 30.696 307.303 30.776 307.095 30.936C306.895 31.096 306.795 31.3 306.795 31.548C306.795 31.836 306.935 32.044 307.215 32.172C307.495 32.3 307.819 32.412 308.187 32.508C308.451 32.572 308.719 32.644 308.991 32.724C309.271 32.796 309.519 32.896 309.735 33.024C309.959 33.144 310.143 33.308 310.287 33.516C310.431 33.716 310.503 33.976 310.503 34.296C310.503 34.856 310.287 35.3 309.855 35.628C309.423 35.948 308.895 36.108 308.271 36.108C307.551 36.108 306.955 35.904 306.483 35.496C306.011 35.088 305.759 34.564 305.727 33.924H306.711C306.735 34.316 306.895 34.636 307.191 34.884C307.495 35.132 307.859 35.256 308.283 35.256C308.627 35.256 308.915 35.18 309.147 35.028C309.387 34.876 309.507 34.664 309.507 34.392C309.507 34.08 309.343 33.864 309.015 33.744C308.695 33.616 308.331 33.5 307.923 33.396C307.675 33.34 307.423 33.272 307.167 33.192C306.911 33.112 306.683 33.008 306.483 32.88C306.283 32.752 306.119 32.588 305.991 32.388C305.863 32.18 305.799 31.924 305.799 31.62Z" fill="white"/>
</svg>
