<svg width="311" height="84" viewBox="0 0 311 84" fill="none" xmlns="http://www.w3.org/2000/svg">
<path d="M7.742 17V15.306H2.59V12.912H6.762V11.218H2.59V8.922H7.742V7.2H0.63V17H7.742ZM16.1555 17H18.1995L13.1595 6.78L8.11945 17H10.1075L11.0735 14.914H15.1615L16.1555 17ZM11.7735 13.416L13.0895 10.56L14.4475 13.416H11.7735ZM25.2684 17C28.0964 17 30.3784 14.928 30.3784 12.114C30.3784 9.272 28.0964 7.2 25.2684 7.2H21.6984V17H25.2684ZM25.2684 8.922C27.0464 8.922 28.4604 10.224 28.4604 12.114C28.4604 13.976 27.0464 15.306 25.2684 15.306H23.6584V8.922H25.2684ZM38.3207 14.914H36.3467C36.0527 15.348 35.5487 15.558 35.0027 15.558C34.0507 15.558 33.2667 14.97 33.0287 14.088H38.4187C38.4187 13.99 38.4327 13.906 38.4327 13.822C38.4327 11.134 36.5287 9.86 34.7927 9.86C32.7907 9.86 31.1667 11.386 31.1667 13.5C31.1667 15.6 32.8747 17.14 34.9747 17.14C36.5287 17.14 37.7887 16.258 38.3207 14.914ZM34.7927 11.414C35.6187 11.414 36.3467 11.988 36.5007 12.814H33.0427C33.2807 11.96 33.9667 11.414 34.7927 11.414ZM39.1368 12.002C39.1368 13.5 40.5648 13.892 41.7548 14.2C42.6088 14.424 43.3368 14.606 43.3368 15.11C43.3368 15.516 42.8748 15.796 42.2308 15.796C41.3628 15.796 40.7048 15.306 40.6068 14.578H38.9828C39.1368 16.076 40.4528 17.14 42.2308 17.14C43.8408 17.14 45.1008 16.286 45.1008 14.942C45.1008 13.486 43.6728 13.094 42.4828 12.786C41.6148 12.562 40.8728 12.366 40.8728 11.848C40.8728 11.428 41.3208 11.204 41.8108 11.204C42.6368 11.204 43.2528 11.68 43.3648 12.408H44.9888C44.8348 10.91 43.5608 9.86 41.8388 9.86C40.3128 9.86 39.1368 10.658 39.1368 12.002ZM47.6466 6.64L45.8686 7.2V17H47.6466V6.64ZM47.7586 13.556L50.4886 17H52.7006L49.7466 13.43L52.6026 10.014H50.6286L47.7586 13.556ZM54.3483 15.194C54.3483 16.272 55.1043 17 56.3923 17H58.1283V15.418H56.8963C56.3503 15.418 56.0983 15.166 56.0983 14.704V11.526H58.1283V10.014H56.0983V7.97L54.3483 8.53V10.014H52.7383V11.526H54.3483V15.194ZM62.0151 9.874C59.9711 9.874 58.3191 11.4 58.3191 13.514C58.3191 15.614 59.9711 17.14 62.0151 17.14C64.0591 17.14 65.7111 15.614 65.7111 13.514C65.7111 11.4 64.0591 9.874 62.0151 9.874ZM62.0151 15.53C60.9371 15.53 60.0831 14.704 60.0831 13.528C60.0831 12.324 60.9371 11.512 62.0151 11.512C63.0931 11.512 63.9471 12.324 63.9471 13.528C63.9471 14.704 63.0931 15.53 62.0151 15.53ZM68.4142 20.094V16.174C68.9602 16.762 69.7302 17.098 70.5702 17.098C72.3902 17.098 74.0422 15.586 74.0422 13.5C74.0422 11.414 72.4182 9.902 70.6402 9.902C69.7722 9.902 68.9882 10.238 68.4142 10.812V10.014H66.6362V20.094H68.4142ZM70.3322 11.484C71.4102 11.484 72.2782 12.31 72.2782 13.5C72.2782 14.69 71.4102 15.516 70.3322 15.516C69.2402 15.516 68.3862 14.69 68.3862 13.5C68.3862 12.31 69.2402 11.484 70.3322 11.484ZM85.3078 17H87.3518L82.3118 6.78L77.2718 17H79.2598L80.2258 14.914H84.3138L85.3078 17ZM80.9258 13.416L82.2418 10.56L83.5998 13.416H80.9258ZM89.6193 20.094V16.174C90.1653 16.762 90.9353 17.098 91.7753 17.098C93.5953 17.098 95.2473 15.586 95.2473 13.5C95.2473 11.414 93.6233 9.902 91.8453 9.902C90.9772 9.902 90.1933 10.238 89.6193 10.812V10.014H87.8413V20.094H89.6193ZM91.5373 11.484C92.6153 11.484 93.4833 12.31 93.4833 13.5C93.4833 14.69 92.6153 15.516 91.5373 15.516C90.4453 15.516 89.5913 14.69 89.5913 13.5C89.5913 12.31 90.4453 11.484 91.5373 11.484ZM97.9454 20.094V16.174C98.4914 16.762 99.2614 17.098 100.101 17.098C101.921 17.098 103.573 15.586 103.573 13.5C103.573 11.414 101.949 9.902 100.171 9.902C99.3034 9.902 98.5194 10.238 97.9454 10.812V10.014H96.1674V20.094H97.9454ZM99.8634 11.484C100.941 11.484 101.809 12.31 101.809 13.5C101.809 14.69 100.941 15.516 99.8634 15.516C98.7714 15.516 97.9174 14.69 97.9174 13.5C97.9174 12.31 98.7714 11.484 99.8634 11.484Z" fill="white"/>
<path d="M4.44 56V48.992H11.592V46.088H4.44V42.152H13.272V39.2H1.08V56H4.44ZM15.0019 39.2V56H18.3619V39.2H15.0019ZM23.8931 56V48.992H31.0451V46.088H23.8931V42.152H32.7251V39.2H20.5331V56H23.8931ZM43.6794 56H47.1834L38.5434 38.48L29.9034 56H33.3114L34.9674 52.424H41.9754L43.6794 56ZM36.1674 49.856L38.4234 44.96L40.7514 49.856H36.1674ZM61.3656 49.664C63.7416 46.952 64.2456 45.752 64.2456 44.072C64.2456 41.144 61.8216 38.984 58.6776 38.984C55.2216 38.984 52.4136 41.36 52.4376 45.176H55.3416C55.4856 43.016 56.7816 41.672 58.5816 41.672C60.0216 41.672 61.1976 42.68 61.1976 44.168C61.1976 45.272 60.9336 46.088 59.1336 48.176L52.3896 56H64.7016V53.312H58.1496L61.3656 49.664ZM65.8678 56H77.1478V53.312H73.0678V39.2H66.8758L65.8678 41.888H69.9718V53.312H65.8678V56ZM91.9069 53.216C88.9549 53.216 86.5549 50.888 86.5549 47.624C86.5549 44.288 88.9549 41.984 91.9069 41.984C94.3069 41.984 96.3469 43.472 97.0429 45.848H100.283C99.4909 41.768 96.0589 38.96 91.9069 38.96C87.1309 38.96 83.2669 42.608 83.2669 47.624C83.2669 52.592 87.1309 56.24 91.9069 56.24C96.0589 56.24 99.4909 53.432 100.283 49.352H97.0429C96.3469 51.728 94.3069 53.216 91.9069 53.216ZM104.977 38.24L101.929 39.2V56H104.977V48.752C104.977 47.36 106.057 46.256 107.473 46.256C108.937 46.256 109.969 47.312 109.969 48.872V56H113.017V48.632C113.017 45.824 111.409 43.76 108.553 43.76C107.017 43.76 105.697 44.432 104.977 45.512V38.24ZM120.433 56.168C121.921 56.168 123.265 55.592 124.249 54.608V56H127.297V44.024H124.249V45.416C123.313 44.408 121.993 43.832 120.553 43.832C117.433 43.832 114.601 46.424 114.601 50C114.601 53.576 117.385 56.168 120.433 56.168ZM120.961 53.456C119.113 53.456 117.625 52.04 117.625 50C117.625 47.96 119.113 46.544 120.961 46.544C122.833 46.544 124.297 47.96 124.297 50C124.297 52.04 122.833 53.456 120.961 53.456ZM132.258 44.024H129.21V56H132.258V48.776C132.258 47.384 133.29 46.28 134.634 46.28C136.026 46.28 137.01 47.336 137.01 48.896V56H140.058V48.776C140.058 47.384 141.09 46.28 142.434 46.28C143.826 46.28 144.81 47.336 144.81 48.896V56H147.858V48.656C147.858 45.848 146.25 43.784 143.394 43.784C141.642 43.784 140.13 44.648 139.458 45.944C138.762 44.624 137.49 43.784 135.714 43.784C134.226 43.784 132.93 44.48 132.258 45.56V44.024ZM152.836 61.304V54.584C153.772 55.592 155.092 56.168 156.532 56.168C159.652 56.168 162.484 53.576 162.484 50C162.484 46.424 159.7 43.832 156.652 43.832C155.164 43.832 153.82 44.408 152.836 45.392V44.024H149.788V61.304H152.836ZM156.124 46.544C157.972 46.544 159.46 47.96 159.46 50C159.46 52.04 157.972 53.456 156.124 53.456C154.252 53.456 152.788 52.04 152.788 50C152.788 47.96 154.252 46.544 156.124 46.544ZM165.574 42.536C166.654 42.536 167.542 41.648 167.542 40.568C167.542 39.488 166.654 38.6 165.574 38.6C164.518 38.6 163.63 39.488 163.63 40.568C163.63 41.648 164.518 42.536 165.574 42.536ZM167.11 44.024H164.062V56H167.11V44.024ZM175.03 43.784C171.526 43.784 168.694 46.4 168.694 50.024C168.694 53.624 171.526 56.24 175.03 56.24C178.534 56.24 181.366 53.624 181.366 50.024C181.366 46.4 178.534 43.784 175.03 43.784ZM175.03 53.48C173.182 53.48 171.718 52.064 171.718 50.048C171.718 47.984 173.182 46.592 175.03 46.592C176.878 46.592 178.342 47.984 178.342 50.048C178.342 52.064 176.878 53.48 175.03 53.48ZM186 44.024H182.952V56H186V48.752C186 47.36 187.08 46.256 188.496 46.256C189.96 46.256 190.992 47.312 190.992 48.872V56H194.04V48.632C194.04 45.824 192.432 43.76 189.576 43.76C188.04 43.76 186.72 44.432 186 45.512V44.024ZM195.576 47.432C195.576 50 198.024 50.672 200.064 51.2C201.528 51.584 202.776 51.896 202.776 52.76C202.776 53.456 201.984 53.936 200.88 53.936C199.392 53.936 198.264 53.096 198.096 51.848H195.312C195.576 54.416 197.832 56.24 200.88 56.24C203.64 56.24 205.8 54.776 205.8 52.472C205.8 49.976 203.352 49.304 201.312 48.776C199.824 48.392 198.552 48.056 198.552 47.168C198.552 46.448 199.32 46.064 200.16 46.064C201.576 46.064 202.632 46.88 202.824 48.128H205.608C205.344 45.56 203.16 43.76 200.208 43.76C197.592 43.76 195.576 45.128 195.576 47.432ZM13.272 80V77.096H4.44V72.992H11.592V70.088H4.44V66.152H13.272V63.2H1.08V80H13.272ZM19.9091 80.168C21.3971 80.168 22.7411 79.592 23.7251 78.608V80H26.7731V62.24L23.7251 63.2V69.416C22.7891 68.408 21.4691 67.832 20.0291 67.832C16.9091 67.832 14.0771 70.424 14.0771 74C14.0771 77.576 16.8611 80.168 19.9091 80.168ZM20.4371 77.456C18.5891 77.456 17.1011 76.04 17.1011 74C17.1011 71.96 18.5891 70.544 20.4371 70.544C22.3091 70.544 23.7731 71.96 23.7731 74C23.7731 76.04 22.3091 77.456 20.4371 77.456ZM30.1986 66.536C31.2786 66.536 32.1666 65.648 32.1666 64.568C32.1666 63.488 31.2786 62.6 30.1986 62.6C29.1426 62.6 28.2546 63.488 28.2546 64.568C28.2546 65.648 29.1426 66.536 30.1986 66.536ZM31.7346 68.024H28.6866V80H31.7346V68.024ZM35.8873 76.904C35.8873 78.752 37.1833 80 39.3913 80H42.3673V77.288H40.2553C39.3193 77.288 38.8873 76.856 38.8873 76.064V70.616H42.3673V68.024H38.8873V64.52L35.8873 65.48V68.024H33.1273V70.616H35.8873V76.904ZM45.2689 66.536C46.3489 66.536 47.2369 65.648 47.2369 64.568C47.2369 63.488 46.3489 62.6 45.2689 62.6C44.2129 62.6 43.3249 63.488 43.3249 64.568C43.3249 65.648 44.2129 66.536 45.2689 66.536ZM46.8049 68.024H43.7569V80H46.8049V68.024ZM54.7256 67.784C51.2216 67.784 48.3896 70.4 48.3896 74.024C48.3896 77.624 51.2216 80.24 54.7256 80.24C58.2296 80.24 61.0616 77.624 61.0616 74.024C61.0616 70.4 58.2296 67.784 54.7256 67.784ZM54.7256 77.48C52.8776 77.48 51.4136 76.064 51.4136 74.048C51.4136 71.984 52.8776 70.592 54.7256 70.592C56.5736 70.592 58.0376 71.984 58.0376 74.048C58.0376 76.064 56.5736 77.48 54.7256 77.48ZM65.6955 68.024H62.6475V80H65.6955V72.752C65.6955 71.36 66.7755 70.256 68.1915 70.256C69.6555 70.256 70.6875 71.312 70.6875 72.872V80H73.7355V72.632C73.7355 69.824 72.1275 67.76 69.2715 67.76C67.7355 67.76 66.4155 68.432 65.6955 69.512V68.024Z" fill="white"/>
</svg>
