<svg width="311" height="84" viewBox="0 0 311 84" fill="none" xmlns="http://www.w3.org/2000/svg">
<path d="M7.742 17V15.306H2.59V12.912H6.762V11.218H2.59V8.922H7.742V7.2H0.63V17H7.742ZM16.1555 17H18.1995L13.1595 6.78L8.11945 17H10.1075L11.0735 14.914H15.1615L16.1555 17ZM11.7735 13.416L13.0895 10.56L14.4475 13.416H11.7735ZM25.2684 17C28.0964 17 30.3784 14.928 30.3784 12.114C30.3784 9.272 28.0964 7.2 25.2684 7.2H21.6984V17H25.2684ZM25.2684 8.922C27.0464 8.922 28.4604 10.224 28.4604 12.114C28.4604 13.976 27.0464 15.306 25.2684 15.306H23.6584V8.922H25.2684ZM38.3207 14.914H36.3467C36.0527 15.348 35.5487 15.558 35.0027 15.558C34.0507 15.558 33.2667 14.97 33.0287 14.088H38.4187C38.4187 13.99 38.4327 13.906 38.4327 13.822C38.4327 11.134 36.5287 9.86 34.7927 9.86C32.7907 9.86 31.1667 11.386 31.1667 13.5C31.1667 15.6 32.8747 17.14 34.9747 17.14C36.5287 17.14 37.7887 16.258 38.3207 14.914ZM34.7927 11.414C35.6187 11.414 36.3467 11.988 36.5007 12.814H33.0427C33.2807 11.96 33.9667 11.414 34.7927 11.414ZM39.1368 12.002C39.1368 13.5 40.5648 13.892 41.7548 14.2C42.6088 14.424 43.3368 14.606 43.3368 15.11C43.3368 15.516 42.8748 15.796 42.2308 15.796C41.3628 15.796 40.7048 15.306 40.6068 14.578H38.9828C39.1368 16.076 40.4528 17.14 42.2308 17.14C43.8408 17.14 45.1008 16.286 45.1008 14.942C45.1008 13.486 43.6728 13.094 42.4828 12.786C41.6148 12.562 40.8728 12.366 40.8728 11.848C40.8728 11.428 41.3208 11.204 41.8108 11.204C42.6368 11.204 43.2528 11.68 43.3648 12.408H44.9888C44.8348 10.91 43.5608 9.86 41.8388 9.86C40.3128 9.86 39.1368 10.658 39.1368 12.002ZM47.6466 6.64L45.8686 7.2V17H47.6466V6.64ZM47.7586 13.556L50.4886 17H52.7006L49.7466 13.43L52.6026 10.014H50.6286L47.7586 13.556ZM54.3483 15.194C54.3483 16.272 55.1043 17 56.3923 17H58.1283V15.418H56.8963C56.3503 15.418 56.0983 15.166 56.0983 14.704V11.526H58.1283V10.014H56.0983V7.97L54.3483 8.53V10.014H52.7383V11.526H54.3483V15.194ZM62.0151 9.874C59.9711 9.874 58.3191 11.4 58.3191 13.514C58.3191 15.614 59.9711 17.14 62.0151 17.14C64.0591 17.14 65.7111 15.614 65.7111 13.514C65.7111 11.4 64.0591 9.874 62.0151 9.874ZM62.0151 15.53C60.9371 15.53 60.0831 14.704 60.0831 13.528C60.0831 12.324 60.9371 11.512 62.0151 11.512C63.0931 11.512 63.9471 12.324 63.9471 13.528C63.9471 14.704 63.0931 15.53 62.0151 15.53ZM68.4142 20.094V16.174C68.9602 16.762 69.7302 17.098 70.5702 17.098C72.3902 17.098 74.0422 15.586 74.0422 13.5C74.0422 11.414 72.4182 9.902 70.6402 9.902C69.7722 9.902 68.9882 10.238 68.4142 10.812V10.014H66.6362V20.094H68.4142ZM70.3322 11.484C71.4102 11.484 72.2782 12.31 72.2782 13.5C72.2782 14.69 71.4102 15.516 70.3322 15.516C69.2402 15.516 68.3862 14.69 68.3862 13.5C68.3862 12.31 69.2402 11.484 70.3322 11.484ZM85.3078 17H87.3518L82.3118 6.78L77.2718 17H79.2598L80.2258 14.914H84.3138L85.3078 17ZM80.9258 13.416L82.2418 10.56L83.5998 13.416H80.9258ZM89.6193 20.094V16.174C90.1653 16.762 90.9353 17.098 91.7753 17.098C93.5953 17.098 95.2473 15.586 95.2473 13.5C95.2473 11.414 93.6233 9.902 91.8453 9.902C90.9772 9.902 90.1933 10.238 89.6193 10.812V10.014H87.8413V20.094H89.6193ZM91.5373 11.484C92.6153 11.484 93.4833 12.31 93.4833 13.5C93.4833 14.69 92.6153 15.516 91.5373 15.516C90.4453 15.516 89.5913 14.69 89.5913 13.5C89.5913 12.31 90.4453 11.484 91.5373 11.484ZM97.9454 20.094V16.174C98.4914 16.762 99.2614 17.098 100.101 17.098C101.921 17.098 103.573 15.586 103.573 13.5C103.573 11.414 101.949 9.902 100.171 9.902C99.3034 9.902 98.5194 10.238 97.9454 10.812V10.014H96.1674V20.094H97.9454ZM99.8634 11.484C100.941 11.484 101.809 12.31 101.809 13.5C101.809 14.69 100.941 15.516 99.8634 15.516C98.7714 15.516 97.9174 14.69 97.9174 13.5C97.9174 12.31 98.7714 11.484 99.8634 11.484Z" fill="white"/>
<path d="M4.44 56V48.992H11.592V46.088H4.44V42.152H13.272V39.2H1.08V56H4.44ZM15.0019 39.2V56H18.3619V39.2H15.0019ZM23.8931 56V48.992H31.0451V46.088H23.8931V42.152H32.7251V39.2H20.5331V56H23.8931ZM43.6794 56H47.1834L38.5434 38.48L29.9034 56H33.3114L34.9674 52.424H41.9754L43.6794 56ZM36.1674 49.856L38.4234 44.96L40.7514 49.856H36.1674ZM61.3656 49.664C63.7416 46.952 64.2456 45.752 64.2456 44.072C64.2456 41.144 61.8216 38.984 58.6776 38.984C55.2216 38.984 52.4136 41.36 52.4376 45.176H55.3416C55.4856 43.016 56.7816 41.672 58.5816 41.672C60.0216 41.672 61.1976 42.68 61.1976 44.168C61.1976 45.272 60.9336 46.088 59.1336 48.176L52.3896 56H64.7016V53.312H58.1496L61.3656 49.664ZM65.8678 56H77.1478V53.312H73.0678V39.2H66.8758L65.8678 41.888H69.9718V53.312H65.8678V56ZM94.4749 48.968C94.4749 51.896 92.7709 53.336 90.5869 53.336C88.4269 53.336 86.6989 51.872 86.6989 48.944V39.2H83.3869V49.088C83.3869 53.72 86.5069 56.264 90.4909 56.264C94.4749 56.264 97.7869 53.696 97.7869 49.064V39.2H94.4749V48.968ZM102.633 38.24L99.585 39.2V56H102.633V38.24ZM106.786 52.904C106.786 54.752 108.082 56 110.29 56H113.266V53.288H111.154C110.218 53.288 109.786 52.856 109.786 52.064V46.616H113.266V44.024H109.786V40.52L106.786 41.48V44.024H104.026V46.616H106.786V52.904ZM116.167 42.536C117.247 42.536 118.135 41.648 118.135 40.568C118.135 39.488 117.247 38.6 116.167 38.6C115.111 38.6 114.223 39.488 114.223 40.568C114.223 41.648 115.111 42.536 116.167 42.536ZM117.703 44.024H114.655V56H117.703V44.024ZM122.672 44.024H119.624V56H122.672V48.776C122.672 47.384 123.704 46.28 125.048 46.28C126.44 46.28 127.424 47.336 127.424 48.896V56H130.472V48.776C130.472 47.384 131.504 46.28 132.848 46.28C134.24 46.28 135.224 47.336 135.224 48.896V56H138.272V48.656C138.272 45.848 136.664 43.784 133.808 43.784C132.056 43.784 130.544 44.648 129.872 45.944C129.176 44.624 127.904 43.784 126.128 43.784C124.64 43.784 123.344 44.48 122.672 45.56V44.024ZM145.698 56.168C147.186 56.168 148.53 55.592 149.514 54.608V56H152.562V44.024H149.514V45.416C148.578 44.408 147.258 43.832 145.818 43.832C142.698 43.832 139.866 46.424 139.866 50C139.866 53.576 142.65 56.168 145.698 56.168ZM146.226 53.456C144.378 53.456 142.89 52.04 142.89 50C142.89 47.96 144.378 46.544 146.226 46.544C148.098 46.544 149.562 47.96 149.562 50C149.562 52.04 148.098 53.456 146.226 53.456ZM156.708 52.904C156.708 54.752 158.004 56 160.212 56H163.188V53.288H161.076C160.14 53.288 159.708 52.856 159.708 52.064V46.616H163.188V44.024H159.708V40.52L156.708 41.48V44.024H153.948V46.616H156.708V52.904ZM175.779 52.424H172.395C171.891 53.168 171.027 53.528 170.091 53.528C168.459 53.528 167.115 52.52 166.707 51.008H175.947C175.947 50.84 175.971 50.696 175.971 50.552C175.971 45.944 172.707 43.76 169.731 43.76C166.299 43.76 163.515 46.376 163.515 50C163.515 53.6 166.443 56.24 170.043 56.24C172.707 56.24 174.867 54.728 175.779 52.424ZM169.731 46.424C171.147 46.424 172.395 47.408 172.659 48.824H166.731C167.139 47.36 168.315 46.424 169.731 46.424ZM13.272 80V77.096H4.44V72.992H11.592V70.088H4.44V66.152H13.272V63.2H1.08V80H13.272ZM19.9091 80.168C21.3971 80.168 22.7411 79.592 23.7251 78.608V80H26.7731V62.24L23.7251 63.2V69.416C22.7891 68.408 21.4691 67.832 20.0291 67.832C16.9091 67.832 14.0771 70.424 14.0771 74C14.0771 77.576 16.8611 80.168 19.9091 80.168ZM20.4371 77.456C18.5891 77.456 17.1011 76.04 17.1011 74C17.1011 71.96 18.5891 70.544 20.4371 70.544C22.3091 70.544 23.7731 71.96 23.7731 74C23.7731 76.04 22.3091 77.456 20.4371 77.456ZM30.1986 66.536C31.2786 66.536 32.1666 65.648 32.1666 64.568C32.1666 63.488 31.2786 62.6 30.1986 62.6C29.1426 62.6 28.2546 63.488 28.2546 64.568C28.2546 65.648 29.1426 66.536 30.1986 66.536ZM31.7346 68.024H28.6866V80H31.7346V68.024ZM35.8873 76.904C35.8873 78.752 37.1833 80 39.3913 80H42.3673V77.288H40.2553C39.3193 77.288 38.8873 76.856 38.8873 76.064V70.616H42.3673V68.024H38.8873V64.52L35.8873 65.48V68.024H33.1273V70.616H35.8873V76.904ZM45.2689 66.536C46.3489 66.536 47.2369 65.648 47.2369 64.568C47.2369 63.488 46.3489 62.6 45.2689 62.6C44.2129 62.6 43.3249 63.488 43.3249 64.568C43.3249 65.648 44.2129 66.536 45.2689 66.536ZM46.8049 68.024H43.7569V80H46.8049V68.024ZM54.7256 67.784C51.2216 67.784 48.3896 70.4 48.3896 74.024C48.3896 77.624 51.2216 80.24 54.7256 80.24C58.2296 80.24 61.0616 77.624 61.0616 74.024C61.0616 70.4 58.2296 67.784 54.7256 67.784ZM54.7256 77.48C52.8776 77.48 51.4136 76.064 51.4136 74.048C51.4136 71.984 52.8776 70.592 54.7256 70.592C56.5736 70.592 58.0376 71.984 58.0376 74.048C58.0376 76.064 56.5736 77.48 54.7256 77.48ZM65.6955 68.024H62.6475V80H65.6955V72.752C65.6955 71.36 66.7755 70.256 68.1915 70.256C69.6555 70.256 70.6875 71.312 70.6875 72.872V80H73.7355V72.632C73.7355 69.824 72.1275 67.76 69.2715 67.76C67.7355 67.76 66.4155 68.432 65.6955 69.512V68.024Z" fill="white"/>
</svg>
