<svg width="343" height="72" viewBox="0 0 343 72" fill="none" xmlns="http://www.w3.org/2000/svg">
<path d="M5.472 9.57682H0V1.17682H5.472V2.11282H1.056V4.82482H4.44V5.76082H1.056V8.64083H5.472V9.57682Z" fill="#D7D7D7"/>
<path d="M12.9361 9.57682L12.0481 7.54882H8.13609L7.24809 9.57682H6.15609L10.0081 1.05682H10.2601L14.1121 9.57682H12.9361ZM8.53209 6.63682H11.6521L10.0921 3.07282L8.53209 6.63682Z" fill="#D7D7D7"/>
<path d="M20.551 9.57682H17.707V1.17682H20.551C21.143 1.17682 21.691 1.28082 22.195 1.48882C22.699 1.68882 23.135 1.97282 23.503 2.34082C23.871 2.70882 24.159 3.15282 24.367 3.67282C24.583 4.19282 24.691 4.76082 24.691 5.37682C24.691 5.99282 24.583 6.56082 24.367 7.08082C24.159 7.60082 23.871 8.04483 23.503 8.41283C23.135 8.78082 22.699 9.06882 22.195 9.27682C21.691 9.47682 21.143 9.57682 20.551 9.57682ZM20.551 2.11282H18.763V8.64083H20.551C20.967 8.64083 21.363 8.56083 21.739 8.40083C22.115 8.24083 22.443 8.02082 22.723 7.74082C23.003 7.45282 23.223 7.10882 23.383 6.70882C23.551 6.30082 23.635 5.85682 23.635 5.37682C23.635 4.89682 23.551 4.45682 23.383 4.05682C23.223 3.64882 23.003 3.30482 22.723 3.02482C22.443 2.73682 22.115 2.51282 21.739 2.35282C21.363 2.19282 20.967 2.11282 20.551 2.11282Z" fill="#D7D7D7"/>
<path d="M28.8434 9.68482C28.4354 9.68482 28.0514 9.60482 27.6914 9.44482C27.3314 9.28482 27.0194 9.06883 26.7554 8.79683C26.4914 8.51683 26.2834 8.18482 26.1314 7.80082C25.9794 7.40882 25.9034 6.98482 25.9034 6.52882C25.9034 6.08082 25.9754 5.66482 26.1194 5.28082C26.2714 4.89682 26.4754 4.56882 26.7314 4.29682C26.9954 4.01682 27.3034 3.79682 27.6554 3.63682C28.0074 3.47682 28.3834 3.39682 28.7834 3.39682C29.1674 3.39682 29.5314 3.47682 29.8754 3.63682C30.2194 3.78882 30.5194 4.00882 30.7754 4.29682C31.0314 4.58482 31.2354 4.94482 31.3874 5.37682C31.5394 5.80082 31.6154 6.28082 31.6154 6.81682V6.88882H26.9354C27.0074 7.44882 27.2234 7.90482 27.5834 8.25682C27.9434 8.60882 28.3634 8.78482 28.8434 8.78482C29.1474 8.78482 29.4274 8.71282 29.6834 8.56882C29.9474 8.41682 30.1594 8.21683 30.3194 7.96882H31.4474C31.2314 8.48882 30.8874 8.90483 30.4154 9.21683C29.9514 9.52883 29.4274 9.68482 28.8434 9.68482ZM28.7714 4.30882C28.3234 4.30882 27.9274 4.47282 27.5834 4.80082C27.2474 5.12882 27.0354 5.54882 26.9474 6.06082H30.5594C30.4794 5.54882 30.2714 5.12882 29.9354 4.80082C29.5994 4.47282 29.2114 4.30882 28.7714 4.30882Z" fill="#D7D7D7"/>
<path d="M32.7826 5.19682C32.7906 4.66082 32.9946 4.22882 33.3946 3.90082C33.8026 3.57282 34.3066 3.40882 34.9066 3.40882C35.6026 3.40882 36.1866 3.60882 36.6586 4.00882C37.1306 4.40082 37.3826 4.90482 37.4146 5.52082H36.4306C36.3986 5.14482 36.2426 4.84482 35.9626 4.62082C35.6906 4.38882 35.3426 4.27282 34.9186 4.27282C34.5666 4.27282 34.2866 4.35282 34.0786 4.51282C33.8786 4.67282 33.7786 4.87682 33.7786 5.12482C33.7786 5.41282 33.9186 5.62082 34.1986 5.74882C34.4786 5.87682 34.8026 5.98882 35.1706 6.08482C35.4346 6.14882 35.7026 6.22082 35.9746 6.30082C36.2546 6.37282 36.5026 6.47283 36.7186 6.60082C36.9426 6.72082 37.1266 6.88482 37.2706 7.09282C37.4146 7.29282 37.4866 7.55282 37.4866 7.87282C37.4866 8.43282 37.2706 8.87682 36.8386 9.20482C36.4066 9.52482 35.8786 9.68482 35.2546 9.68482C34.5346 9.68482 33.9386 9.48082 33.4666 9.07282C32.9946 8.66482 32.7426 8.14082 32.7106 7.50082H33.6946C33.7186 7.89282 33.8786 8.21282 34.1746 8.46082C34.4786 8.70883 34.8426 8.83282 35.2666 8.83282C35.6106 8.83282 35.8986 8.75682 36.1306 8.60482C36.3706 8.45282 36.4906 8.24082 36.4906 7.96882C36.4906 7.65683 36.3266 7.44082 35.9986 7.32082C35.6786 7.19282 35.3146 7.07682 34.9066 6.97282C34.6586 6.91682 34.4066 6.84882 34.1506 6.76882C33.8946 6.68882 33.6666 6.58482 33.4666 6.45682C33.2666 6.32882 33.1026 6.16482 32.9746 5.96482C32.8466 5.75682 32.7826 5.50082 32.7826 5.19682Z" fill="#D7D7D7"/>
<path d="M39.7957 0.444824V9.57682H38.7877V0.840824L39.7957 0.444824ZM39.9277 6.57682L42.5917 3.51682H43.7317L41.1277 6.50482L43.7797 9.57682H42.4837L39.9277 6.57682Z" fill="#D7D7D7"/>
<path d="M45.7013 8.10082V4.38082H44.1653V3.51682H45.7013V2.08882L46.6973 1.72882V3.51682H48.4853V4.38082H46.6973V8.05282C46.6973 8.26082 46.7533 8.42083 46.8653 8.53283C46.9773 8.63683 47.1453 8.68882 47.3693 8.68882H48.4853V9.57682H47.1173C46.6613 9.57682 46.3093 9.45282 46.0613 9.20482C45.8213 8.94882 45.7013 8.58082 45.7013 8.10082Z" fill="#D7D7D7"/>
<path d="M52.2575 9.68482C51.8495 9.68482 51.4655 9.60482 51.1055 9.44482C50.7455 9.28482 50.4335 9.06883 50.1695 8.79683C49.9055 8.51683 49.6975 8.18482 49.5455 7.80082C49.3935 7.40882 49.3175 6.98482 49.3175 6.52882C49.3175 6.08082 49.3935 5.66482 49.5455 5.28082C49.6975 4.89682 49.9055 4.56882 50.1695 4.29682C50.4335 4.01682 50.7455 3.79682 51.1055 3.63682C51.4655 3.47682 51.8495 3.39682 52.2575 3.39682C52.6655 3.39682 53.0495 3.47682 53.4095 3.63682C53.7695 3.79682 54.0775 4.01682 54.3335 4.29682C54.5975 4.56882 54.8055 4.89682 54.9575 5.28082C55.1095 5.66482 55.1855 6.08082 55.1855 6.52882C55.1855 6.98482 55.1095 7.40882 54.9575 7.80082C54.8055 8.18482 54.5975 8.51683 54.3335 8.79683C54.0775 9.06883 53.7695 9.28482 53.4095 9.44482C53.0495 9.60482 52.6655 9.68482 52.2575 9.68482ZM52.2575 8.78482C52.7855 8.78482 53.2375 8.57282 53.6135 8.14882C53.9895 7.72482 54.1775 7.18882 54.1775 6.54082C54.1775 5.90082 53.9895 5.36882 53.6135 4.94482C53.2375 4.51282 52.7855 4.29682 52.2575 4.29682C51.7215 4.29682 51.2655 4.51282 50.8895 4.94482C50.5135 5.36882 50.3255 5.90082 50.3255 6.54082C50.3255 7.18882 50.5135 7.72482 50.8895 8.14882C51.2655 8.57282 51.7215 8.78482 52.2575 8.78482Z" fill="#D7D7D7"/>
<path d="M57.573 12.2888H56.565V3.51682H57.573V4.54882C57.813 4.19682 58.113 3.92082 58.473 3.72082C58.841 3.51282 59.233 3.40882 59.649 3.40882C60.033 3.40882 60.393 3.48882 60.729 3.64882C61.065 3.80882 61.357 4.02882 61.605 4.30882C61.853 4.58082 62.049 4.90882 62.193 5.29282C62.337 5.66882 62.409 6.08082 62.409 6.52882C62.409 6.97682 62.337 7.39682 62.193 7.78882C62.049 8.17282 61.853 8.50482 61.605 8.78482C61.357 9.05682 61.061 9.27283 60.717 9.43283C60.381 9.59282 60.021 9.67282 59.637 9.67282C59.221 9.67282 58.833 9.57282 58.473 9.37282C58.113 9.16482 57.813 8.88483 57.573 8.53283V12.2888ZM59.469 4.32082C58.941 4.32082 58.489 4.52882 58.113 4.94482C57.737 5.36082 57.549 5.88882 57.549 6.52882C57.549 7.17682 57.737 7.71282 58.113 8.13682C58.489 8.55282 58.941 8.76082 59.469 8.76082C60.005 8.76082 60.461 8.55282 60.837 8.13682C61.213 7.71282 61.401 7.17682 61.401 6.52882C61.401 5.88882 61.213 5.36082 60.837 4.94482C60.461 4.52882 60.005 4.32082 59.469 4.32082Z" fill="#D7D7D7"/>
<path d="M72.4908 9.57682L71.6028 7.54882H67.6908L66.8028 9.57682H65.7108L69.5628 1.05682H69.8148L73.6668 9.57682H72.4908ZM68.0868 6.63682H71.2068L69.6468 3.07282L68.0868 6.63682Z" fill="#D7D7D7"/>
<path d="M75.5027 12.2888H74.4947V3.51682H75.5027V4.54882C75.7427 4.19682 76.0427 3.92082 76.4027 3.72082C76.7707 3.51282 77.1627 3.40882 77.5787 3.40882C77.9627 3.40882 78.3227 3.48882 78.6587 3.64882C78.9947 3.80882 79.2867 4.02882 79.5347 4.30882C79.7827 4.58082 79.9787 4.90882 80.1227 5.29282C80.2667 5.66882 80.3387 6.08082 80.3387 6.52882C80.3387 6.97682 80.2667 7.39682 80.1227 7.78882C79.9787 8.17282 79.7827 8.50482 79.5347 8.78482C79.2867 9.05682 78.9907 9.27283 78.6467 9.43283C78.3107 9.59282 77.9507 9.67282 77.5667 9.67282C77.1507 9.67282 76.7627 9.57282 76.4027 9.37282C76.0427 9.16482 75.7427 8.88483 75.5027 8.53283V12.2888ZM77.3987 4.32082C76.8707 4.32082 76.4187 4.52882 76.0427 4.94482C75.6667 5.36082 75.4787 5.88882 75.4787 6.52882C75.4787 7.17682 75.6667 7.71282 76.0427 8.13682C76.4187 8.55282 76.8707 8.76082 77.3987 8.76082C77.9347 8.76082 78.3907 8.55282 78.7667 8.13682C79.1427 7.71282 79.3307 7.17682 79.3307 6.52882C79.3307 5.88882 79.1427 5.36082 78.7667 4.94482C78.3907 4.52882 77.9347 4.32082 77.3987 4.32082Z" fill="#D7D7D7"/>
<path d="M82.7214 12.2888H81.7134V3.51682H82.7214V4.54882C82.9614 4.19682 83.2614 3.92082 83.6214 3.72082C83.9894 3.51282 84.3814 3.40882 84.7974 3.40882C85.1814 3.40882 85.5414 3.48882 85.8774 3.64882C86.2134 3.80882 86.5054 4.02882 86.7534 4.30882C87.0014 4.58082 87.1974 4.90882 87.3414 5.29282C87.4854 5.66882 87.5574 6.08082 87.5574 6.52882C87.5574 6.97682 87.4854 7.39682 87.3414 7.78882C87.1974 8.17282 87.0014 8.50482 86.7534 8.78482C86.5054 9.05682 86.2094 9.27283 85.8654 9.43283C85.5294 9.59282 85.1694 9.67282 84.7854 9.67282C84.3694 9.67282 83.9814 9.57282 83.6214 9.37282C83.2614 9.16482 82.9614 8.88483 82.7214 8.53283V12.2888ZM84.6174 4.32082C84.0894 4.32082 83.6374 4.52882 83.2614 4.94482C82.8854 5.36082 82.6974 5.88882 82.6974 6.52882C82.6974 7.17682 82.8854 7.71282 83.2614 8.13682C83.6374 8.55282 84.0894 8.76082 84.6174 8.76082C85.1534 8.76082 85.6094 8.55282 85.9854 8.13682C86.3614 7.71282 86.5494 7.17682 86.5494 6.52882C86.5494 5.88882 86.3614 5.36082 85.9854 4.94482C85.6094 4.52882 85.1534 4.32082 84.6174 4.32082Z" fill="#D7D7D7"/>
<path d="M3.36 40.0488V33.0408H10.512V30.1368H3.36V26.2008H12.192V23.2488H0V40.0488H3.36Z" fill="white"/>
<path d="M13.9219 23.2488V40.0488H17.2819V23.2488H13.9219Z" fill="white"/>
<path d="M22.8131 40.0488V33.0408H29.9651V30.1368H22.8131V26.2008H31.6451V23.2488H19.4531V40.0488H22.8131Z" fill="white"/>
<path d="M42.5994 40.0488H46.1034L37.4634 22.5288L28.8234 40.0488H32.2314L33.8874 36.4728H40.8954L42.5994 40.0488ZM35.0874 33.9048L37.3434 29.0088L39.6714 33.9048H35.0874Z" fill="white"/>
<path d="M60.2856 33.7128C62.6616 31.0008 63.1656 29.8008 63.1656 28.1208C63.1656 25.1928 60.7416 23.0328 57.5976 23.0328C54.1416 23.0328 51.3336 25.4088 51.3576 29.2248H54.2616C54.4056 27.0648 55.7016 25.7208 57.5016 25.7208C58.9416 25.7208 60.1176 26.7288 60.1176 28.2168C60.1176 29.3208 59.8536 30.1368 58.0536 32.2248L51.3096 40.0488H63.6216V37.3608H57.0696L60.2856 33.7128Z" fill="white"/>
<path d="M64.7878 40.0488H76.0678V37.3608H71.9878V23.2488H65.7958L64.7878 25.9368H68.8918V37.3608H64.7878V40.0488Z" fill="white"/>
<path d="M93.3949 33.0168C93.3949 35.9448 91.6909 37.3848 89.5069 37.3848C87.3469 37.3848 85.6189 35.9208 85.6189 32.9928V23.2488H82.3069V33.1368C82.3069 37.7688 85.4269 40.3128 89.4109 40.3128C93.3949 40.3128 96.7069 37.7448 96.7069 33.1128V23.2488H93.3949V33.0168Z" fill="white"/>
<path d="M101.553 22.2888L98.505 23.2488V40.0488H101.553V22.2888Z" fill="white"/>
<path d="M105.706 36.9528C105.706 38.8008 107.002 40.0488 109.21 40.0488H112.186V37.3368H110.074C109.138 37.3368 108.706 36.9048 108.706 36.1128V30.6648H112.186V28.0728H108.706V24.5688L105.706 25.5288V28.0728H102.946V30.6648H105.706V36.9528Z" fill="white"/>
<path d="M115.087 26.5848C116.167 26.5848 117.055 25.6968 117.055 24.6168C117.055 23.5368 116.167 22.6488 115.087 22.6488C114.031 22.6488 113.143 23.5368 113.143 24.6168C113.143 25.6968 114.031 26.5848 115.087 26.5848ZM116.623 28.0728H113.575V40.0488H116.623V28.0728Z" fill="white"/>
<path d="M121.592 28.0728H118.544V40.0488H121.592V32.8248C121.592 31.4328 122.624 30.3288 123.968 30.3288C125.36 30.3288 126.344 31.3848 126.344 32.9448V40.0488H129.392V32.8248C129.392 31.4328 130.424 30.3288 131.768 30.3288C133.16 30.3288 134.144 31.3848 134.144 32.9448V40.0488H137.192V32.7048C137.192 29.8968 135.584 27.8328 132.728 27.8328C130.976 27.8328 129.464 28.6968 128.792 29.9928C128.096 28.6728 126.824 27.8328 125.048 27.8328C123.56 27.8328 122.264 28.5288 121.592 29.6088V28.0728Z" fill="white"/>
<path d="M144.618 40.2168C146.106 40.2168 147.45 39.6408 148.434 38.6568V40.0488H151.482V28.0728H148.434V29.4648C147.498 28.4568 146.178 27.8808 144.738 27.8808C141.618 27.8808 138.786 30.4728 138.786 34.0488C138.786 37.6248 141.57 40.2168 144.618 40.2168ZM145.146 37.5048C143.298 37.5048 141.81 36.0888 141.81 34.0488C141.81 32.0088 143.298 30.5928 145.146 30.5928C147.018 30.5928 148.482 32.0088 148.482 34.0488C148.482 36.0888 147.018 37.5048 145.146 37.5048Z" fill="white"/>
<path d="M155.628 36.9528C155.628 38.8008 156.924 40.0488 159.132 40.0488H162.108V37.3368H159.996C159.06 37.3368 158.628 36.9048 158.628 36.1128V30.6648H162.108V28.0728H158.628V24.5688L155.628 25.5288V28.0728H152.868V30.6648H155.628V36.9528Z" fill="white"/>
<path d="M174.699 36.4728H171.315C170.811 37.2168 169.947 37.5768 169.011 37.5768C167.379 37.5768 166.035 36.5688 165.627 35.0568H174.867C174.867 34.8888 174.891 34.7448 174.891 34.6008C174.891 29.9928 171.627 27.8088 168.651 27.8088C165.219 27.8088 162.435 30.4248 162.435 34.0488C162.435 37.6488 165.363 40.2888 168.963 40.2888C171.627 40.2888 173.787 38.7768 174.699 36.4728ZM168.651 30.4728C170.067 30.4728 171.315 31.4568 171.579 32.8728H165.651C166.059 31.4088 167.235 30.4728 168.651 30.4728Z" fill="white"/>
<path d="M12.192 71.0488V68.1448H3.36V64.0408H10.512V61.1368H3.36V57.2008H12.192V54.2488H0V71.0488H12.192Z" fill="white"/>
<path d="M18.8291 71.2168C20.3171 71.2168 21.6611 70.6408 22.6451 69.6568V71.0488H25.6931V53.2888L22.6451 54.2488V60.4648C21.7091 59.4568 20.3891 58.8808 18.9491 58.8808C15.8291 58.8808 12.9971 61.4728 12.9971 65.0488C12.9971 68.6248 15.7811 71.2168 18.8291 71.2168ZM19.3571 68.5048C17.5091 68.5048 16.0211 67.0888 16.0211 65.0488C16.0211 63.0088 17.5091 61.5928 19.3571 61.5928C21.2291 61.5928 22.6931 63.0088 22.6931 65.0488C22.6931 67.0888 21.2291 68.5048 19.3571 68.5048Z" fill="white"/>
<path d="M29.1186 57.5848C30.1986 57.5848 31.0866 56.6968 31.0866 55.6168C31.0866 54.5368 30.1986 53.6488 29.1186 53.6488C28.0626 53.6488 27.1746 54.5368 27.1746 55.6168C27.1746 56.6968 28.0626 57.5848 29.1186 57.5848ZM30.6546 59.0728H27.6066V71.0488H30.6546V59.0728Z" fill="white"/>
<path d="M34.8073 67.9528C34.8073 69.8008 36.1033 71.0488 38.3113 71.0488H41.2873V68.3368H39.1753C38.2393 68.3368 37.8073 67.9048 37.8073 67.1128V61.6648H41.2873V59.0728H37.8073V55.5688L34.8073 56.5288V59.0728H32.0473V61.6648H34.8073V67.9528Z" fill="white"/>
<path d="M44.1889 57.5848C45.2689 57.5848 46.1569 56.6968 46.1569 55.6168C46.1569 54.5368 45.2689 53.6488 44.1889 53.6488C43.1329 53.6488 42.2449 54.5368 42.2449 55.6168C42.2449 56.6968 43.1329 57.5848 44.1889 57.5848ZM45.7249 59.0728H42.6769V71.0488H45.7249V59.0728Z" fill="white"/>
<path d="M53.6456 58.8328C50.1416 58.8328 47.3096 61.4488 47.3096 65.0728C47.3096 68.6728 50.1416 71.2888 53.6456 71.2888C57.1496 71.2888 59.9816 68.6728 59.9816 65.0728C59.9816 61.4488 57.1496 58.8328 53.6456 58.8328ZM53.6456 68.5288C51.7976 68.5288 50.3336 67.1128 50.3336 65.0968C50.3336 63.0328 51.7976 61.6408 53.6456 61.6408C55.4936 61.6408 56.9576 63.0328 56.9576 65.0968C56.9576 67.1128 55.4936 68.5288 53.6456 68.5288Z" fill="white"/>
<path d="M64.6155 59.0728H61.5675V71.0488H64.6155V63.8008C64.6155 62.4088 65.6955 61.3048 67.1115 61.3048C68.5755 61.3048 69.6075 62.3608 69.6075 63.9208V71.0488H72.6555V63.6808C72.6555 60.8728 71.0475 58.8088 68.1915 58.8088C66.6555 58.8088 65.3355 59.4808 64.6155 60.5608V59.0728Z" fill="white"/>
<path d="M286.699 22.5V20.54C285.486 20.3533 284.473 19.86 283.659 19.06C282.859 18.2467 282.406 17.2467 282.299 16.06H284.959C284.999 16.5667 285.173 17.0133 285.479 17.4C285.799 17.7733 286.206 18.0467 286.699 18.22V15.16C285.339 14.7467 284.306 14.24 283.599 13.64C282.893 13.0267 282.539 12.22 282.539 11.22C282.539 10.1667 282.919 9.28667 283.679 8.58001C284.439 7.86001 285.446 7.45334 286.699 7.36001V5.82001H288.379V7.44001C289.566 7.64001 290.553 8.14001 291.339 8.94001C292.126 9.72667 292.566 10.7 292.659 11.86H289.999C289.959 11.38 289.793 10.96 289.499 10.6C289.206 10.24 288.833 9.97334 288.379 9.80001V13C289.713 13.4133 290.766 13.9 291.539 14.46C292.313 15.0067 292.699 15.7733 292.699 16.76C292.699 17.8133 292.299 18.6933 291.499 19.4C290.699 20.0933 289.659 20.4933 288.379 20.6V22.5H286.699ZM285.219 11.04C285.219 11.3733 285.339 11.66 285.579 11.9C285.819 12.1267 286.193 12.34 286.699 12.54V9.64001C286.246 9.70667 285.886 9.87334 285.619 10.14C285.353 10.3933 285.219 10.6933 285.219 11.04ZM289.999 16.98C289.999 16.66 289.866 16.3933 289.599 16.18C289.333 15.9667 288.926 15.7733 288.379 15.6V18.34C288.873 18.2733 289.266 18.1267 289.559 17.9C289.853 17.66 289.999 17.3533 289.999 16.98Z" fill="white"/>
<path d="M306.05 11.72C306.05 11.08 306.177 10.4667 306.43 9.88001C306.684 9.28001 307.03 8.75334 307.47 8.30001C307.924 7.84667 308.457 7.48667 309.07 7.22001C309.697 6.95334 310.384 6.82001 311.13 6.82001C311.837 6.82001 312.504 6.94667 313.13 7.20001C313.77 7.44001 314.324 7.78001 314.79 8.22001C315.257 8.64667 315.624 9.16001 315.89 9.76001C316.17 10.3467 316.31 10.9867 316.31 11.68C316.31 12.36 316.177 13.0533 315.91 13.76C315.657 14.4667 315.17 15.3 314.45 16.26L311.05 21.06H308.11L311.57 16.24C311.45 16.2533 311.317 16.2667 311.17 16.28C311.037 16.28 310.897 16.28 310.75 16.28C310.11 16.28 309.504 16.1667 308.93 15.94C308.357 15.7133 307.857 15.4 307.43 15C307.017 14.6 306.684 14.12 306.43 13.56C306.177 13 306.05 12.3867 306.05 11.72ZM311.15 9.10001C310.43 9.10001 309.824 9.35334 309.33 9.86001C308.837 10.3533 308.59 10.96 308.59 11.68C308.59 12.4133 308.837 13.0267 309.33 13.52C309.824 14.0133 310.43 14.26 311.15 14.26C311.897 14.26 312.517 14.0133 313.01 13.52C313.517 13.0267 313.77 12.4133 313.77 11.68C313.77 10.96 313.517 10.3533 313.01 9.86001C312.517 9.35334 311.897 9.10001 311.15 9.10001Z" fill="white"/>
<path d="M318.196 17.52C318.703 17.52 319.129 17.7 319.476 18.06C319.836 18.4067 320.016 18.8267 320.016 19.32C320.016 19.8133 319.836 20.2333 319.476 20.58C319.129 20.9267 318.703 21.1 318.196 21.1C317.703 21.1 317.283 20.9267 316.936 20.58C316.603 20.2333 316.436 19.8133 316.436 19.32C316.436 18.8267 316.603 18.4067 316.936 18.06C317.283 17.7 317.703 17.52 318.196 17.52Z" fill="white"/>
<path d="M319.39 11.72C319.39 11.08 319.517 10.4667 319.77 9.88001C320.024 9.28001 320.37 8.75334 320.81 8.30001C321.264 7.84667 321.797 7.48667 322.41 7.22001C323.037 6.95334 323.724 6.82001 324.47 6.82001C325.177 6.82001 325.844 6.94667 326.47 7.20001C327.11 7.44001 327.664 7.78001 328.13 8.22001C328.597 8.64667 328.964 9.16001 329.23 9.76001C329.51 10.3467 329.65 10.9867 329.65 11.68C329.65 12.36 329.517 13.0533 329.25 13.76C328.997 14.4667 328.51 15.3 327.79 16.26L324.39 21.06H321.45L324.91 16.24C324.79 16.2533 324.657 16.2667 324.51 16.28C324.377 16.28 324.237 16.28 324.09 16.28C323.45 16.28 322.844 16.1667 322.27 15.94C321.697 15.7133 321.197 15.4 320.77 15C320.357 14.6 320.024 14.12 319.77 13.56C319.517 13 319.39 12.3867 319.39 11.72ZM324.49 9.10001C323.77 9.10001 323.164 9.35334 322.67 9.86001C322.177 10.3533 321.93 10.96 321.93 11.68C321.93 12.4133 322.177 13.0267 322.67 13.52C323.164 14.0133 323.77 14.26 324.49 14.26C325.237 14.26 325.857 14.0133 326.35 13.52C326.857 13.0267 327.11 12.4133 327.11 11.68C327.11 10.96 326.857 10.3533 326.35 9.86001C325.857 9.35334 325.237 9.10001 324.49 9.10001Z" fill="white"/>
<path d="M331.793 11.72C331.793 11.08 331.919 10.4667 332.173 9.88001C332.426 9.28001 332.773 8.75334 333.213 8.30001C333.666 7.84667 334.199 7.48667 334.813 7.22001C335.439 6.95334 336.126 6.82001 336.873 6.82001C337.579 6.82001 338.246 6.94667 338.873 7.20001C339.513 7.44001 340.066 7.78001 340.533 8.22001C340.999 8.64667 341.366 9.16001 341.633 9.76001C341.913 10.3467 342.053 10.9867 342.053 11.68C342.053 12.36 341.919 13.0533 341.653 13.76C341.399 14.4667 340.913 15.3 340.193 16.26L336.793 21.06H333.853L337.313 16.24C337.193 16.2533 337.059 16.2667 336.913 16.28C336.779 16.28 336.639 16.28 336.493 16.28C335.853 16.28 335.246 16.1667 334.673 15.94C334.099 15.7133 333.599 15.4 333.173 15C332.759 14.6 332.426 14.12 332.173 13.56C331.919 13 331.793 12.3867 331.793 11.72ZM336.893 9.10001C336.173 9.10001 335.566 9.35334 335.073 9.86001C334.579 10.3533 334.333 10.96 334.333 11.68C334.333 12.4133 334.579 13.0267 335.073 13.52C335.566 14.0133 336.173 14.26 336.893 14.26C337.639 14.26 338.259 14.0133 338.753 13.52C339.259 13.0267 339.513 12.4133 339.513 11.68C339.513 10.96 339.259 10.3533 338.753 9.86001C338.259 9.35334 337.639 9.10001 336.893 9.10001Z" fill="white"/>
<path d="M306.936 35.5V33.244H304.8V32.356H306.936V30.136H307.86V32.356H309.996V33.244H307.86V35.5H306.936Z" fill="white"/>
<path d="M315.151 35.524V31.804H313.615V30.94H315.151V29.512L316.147 29.152V30.94H317.935V31.804H316.147V35.476C316.147 35.684 316.203 35.844 316.315 35.956C316.427 36.06 316.595 36.112 316.819 36.112H317.935V37H316.567C316.111 37 315.759 36.876 315.511 36.628C315.271 36.372 315.151 36.004 315.151 35.524Z" fill="white"/>
<path d="M322.82 37V35.944C322.66 36.296 322.404 36.58 322.052 36.796C321.708 37.004 321.3 37.108 320.828 37.108C320.252 37.108 319.776 36.948 319.4 36.628C319.032 36.3 318.848 35.884 318.848 35.38C318.848 34.9 319.028 34.512 319.388 34.216C319.748 33.912 320.24 33.736 320.864 33.688L322.82 33.544V33.232C322.82 32.792 322.684 32.428 322.412 32.14C322.148 31.844 321.816 31.696 321.416 31.696C320.992 31.696 320.656 31.804 320.408 32.02C320.168 32.228 320.008 32.52 319.928 32.896H318.932C318.996 32.288 319.26 31.792 319.724 31.408C320.188 31.016 320.756 30.82 321.428 30.82C322.172 30.82 322.756 31.048 323.18 31.504C323.604 31.952 323.816 32.524 323.816 33.22V37H322.82ZM319.844 35.38C319.844 35.636 319.952 35.852 320.168 36.028C320.384 36.196 320.668 36.28 321.02 36.28C321.508 36.28 321.928 36.128 322.28 35.824C322.64 35.52 322.82 35.164 322.82 34.756V34.324L321.056 34.456C320.68 34.488 320.384 34.584 320.168 34.744C319.952 34.896 319.844 35.108 319.844 35.38Z" fill="white"/>
<path d="M324.769 37L327.025 33.844L324.961 30.94H326.173L327.625 33.04L329.065 30.94H330.193L328.165 33.82L330.433 37H329.221L327.565 34.6L325.897 37H324.769Z" fill="white"/>
<path d="M333.859 37.108C333.451 37.108 333.067 37.028 332.707 36.868C332.347 36.708 332.035 36.492 331.771 36.22C331.507 35.94 331.299 35.608 331.147 35.224C330.995 34.832 330.919 34.408 330.919 33.952C330.919 33.504 330.991 33.088 331.135 32.704C331.287 32.32 331.491 31.992 331.747 31.72C332.011 31.44 332.319 31.22 332.671 31.06C333.023 30.9 333.399 30.82 333.799 30.82C334.183 30.82 334.547 30.9 334.891 31.06C335.235 31.212 335.535 31.432 335.791 31.72C336.047 32.008 336.251 32.368 336.403 32.8C336.555 33.224 336.631 33.704 336.631 34.24V34.312H331.951C332.023 34.872 332.239 35.328 332.599 35.68C332.959 36.032 333.379 36.208 333.859 36.208C334.163 36.208 334.443 36.136 334.699 35.992C334.963 35.84 335.175 35.64 335.335 35.392H336.463C336.247 35.912 335.903 36.328 335.431 36.64C334.967 36.952 334.443 37.108 333.859 37.108ZM333.787 31.732C333.339 31.732 332.943 31.896 332.599 32.224C332.263 32.552 332.051 32.972 331.963 33.484H335.575C335.495 32.972 335.287 32.552 334.951 32.224C334.615 31.896 334.227 31.732 333.787 31.732Z" fill="white"/>
<path d="M337.799 32.62C337.807 32.084 338.011 31.652 338.411 31.324C338.819 30.996 339.323 30.832 339.923 30.832C340.619 30.832 341.203 31.032 341.675 31.432C342.147 31.824 342.399 32.328 342.431 32.944H341.447C341.415 32.568 341.259 32.268 340.979 32.044C340.707 31.812 340.359 31.696 339.935 31.696C339.583 31.696 339.303 31.776 339.095 31.936C338.895 32.096 338.795 32.3 338.795 32.548C338.795 32.836 338.935 33.044 339.215 33.172C339.495 33.3 339.819 33.412 340.187 33.508C340.451 33.572 340.719 33.644 340.991 33.724C341.271 33.796 341.519 33.896 341.735 34.024C341.959 34.144 342.143 34.308 342.287 34.516C342.431 34.716 342.503 34.976 342.503 35.296C342.503 35.856 342.287 36.3 341.855 36.628C341.423 36.948 340.895 37.108 340.271 37.108C339.551 37.108 338.955 36.904 338.483 36.496C338.011 36.088 337.759 35.564 337.727 34.924H338.711C338.735 35.316 338.895 35.636 339.191 35.884C339.495 36.132 339.859 36.256 340.283 36.256C340.627 36.256 340.915 36.18 341.147 36.028C341.387 35.876 341.507 35.664 341.507 35.392C341.507 35.08 341.343 34.864 341.015 34.744C340.695 34.616 340.331 34.5 339.923 34.396C339.675 34.34 339.423 34.272 339.167 34.192C338.911 34.112 338.683 34.008 338.483 33.88C338.283 33.752 338.119 33.588 337.991 33.388C337.863 33.18 337.799 32.924 337.799 32.62Z" fill="white"/>
<path d="M293.74 11.72C293.74 11.08 293.866 10.4667 294.12 9.88001C294.373 9.28001 294.72 8.75334 295.16 8.30001C295.613 7.84667 296.146 7.48667 296.76 7.22001C297.386 6.95334 298.073 6.82001 298.82 6.82001C299.526 6.82001 300.193 6.94667 300.82 7.20001C301.46 7.44001 302.013 7.78001 302.48 8.22001C302.946 8.64667 303.313 9.16001 303.58 9.76001C303.86 10.3467 304 10.9867 304 11.68C304 12.36 303.866 13.0533 303.6 13.76C303.346 14.4667 302.86 15.3 302.14 16.26L298.74 21.06H295.8L299.26 16.24C299.14 16.2533 299.006 16.2667 298.86 16.28C298.726 16.28 298.586 16.28 298.44 16.28C297.8 16.28 297.193 16.1667 296.62 15.94C296.046 15.7133 295.546 15.4 295.12 15C294.706 14.6 294.373 14.12 294.12 13.56C293.866 13 293.74 12.3867 293.74 11.72ZM298.84 9.10001C298.12 9.10001 297.513 9.35334 297.02 9.86001C296.526 10.3533 296.28 10.96 296.28 11.68C296.28 12.4133 296.526 13.0267 297.02 13.52C297.513 14.0133 298.12 14.26 298.84 14.26C299.586 14.26 300.206 14.0133 300.7 13.52C301.206 13.0267 301.46 12.4133 301.46 11.68C301.46 10.96 301.206 10.3533 300.7 9.86001C300.206 9.35334 299.586 9.10001 298.84 9.10001Z" fill="white"/>
</svg>
