<svg width="129" height="57" viewBox="0 0 129 57" fill="none" xmlns="http://www.w3.org/2000/svg">
<rect width="129" height="57" fill="black"/>
<path d="M16.7987 12C7.53669 12 0 19.4015 0 28.4973C0 37.5931 7.53669 44.9946 16.7987 44.9946C26.0607 44.9946 33.5974 37.5931 33.5974 28.4973C33.5974 19.4015 26.0607 12 16.7987 12ZM16.7987 42.7086C8.80741 42.7086 2.33331 36.3453 2.33331 28.4973C2.33331 20.6494 8.80741 14.2861 16.7987 14.2861C24.79 14.2861 31.2696 20.644 31.2696 28.4973C31.2696 36.3506 24.79 42.7086 16.7987 42.7086Z" fill="white"/>
<path d="M27.8518 31.2297H28.0216V31.5847H28.1037V31.2297H28.279V31.1544H27.8518V31.2297Z" fill="white"/>
<path d="M7.81058 32.8112H6.8411C6.62201 32.8112 6.51794 32.6929 6.51794 32.4616V32.0851C6.51794 31.9775 6.54533 31.8914 6.60558 31.8215C6.66583 31.7516 6.74251 31.7193 6.8411 31.7193H7.60244C7.78319 31.7193 7.90368 31.8054 7.95846 31.9775L8.06253 32.3379H8.75811V31.9399C8.75811 31.6709 8.67051 31.4558 8.48426 31.2729C8.29804 31.0953 8.07348 31.0093 7.81058 31.0093H6.68774C6.42483 31.0093 6.19479 31.1007 6.00308 31.289C5.81686 31.4719 5.72374 31.6924 5.72374 31.9506V32.5961C5.72374 32.8597 5.81686 33.0802 6.00308 33.2685C6.19479 33.4514 6.42483 33.5428 6.68774 33.5428H7.65721C7.87083 33.5428 7.98037 33.6665 7.98037 33.9031V34.3927C7.98037 34.4948 7.95298 34.5863 7.89273 34.6508C7.83248 34.7208 7.7558 34.7584 7.65721 34.7584H6.88492C6.69322 34.7584 6.57271 34.6724 6.52342 34.5003L6.41936 34.0914H5.71826V34.5325C5.71826 34.8015 5.8059 35.022 5.99213 35.1995C6.17287 35.377 6.39744 35.4685 6.6713 35.4685H7.81058C8.07348 35.4685 8.30352 35.377 8.48974 35.1887C8.67599 35.0058 8.76907 34.7799 8.76907 34.5164V33.7633C8.76907 33.5052 8.67599 33.2846 8.48426 33.0964C8.29804 32.9081 8.07348 32.8112 7.81058 32.8112Z" fill="white"/>
<path d="M11.7595 31.0093H9.70557V35.463H10.5053V33.8279H11.7541C12.0224 33.8279 12.247 33.7364 12.4442 33.5481C12.6304 33.3653 12.7236 33.1393 12.7236 32.8812V31.9452C12.7236 31.687 12.6304 31.4665 12.4442 31.2836C12.258 31.1007 12.0279 31.0093 11.7595 31.0093ZM11.9293 32.7467C11.9293 32.8543 11.8965 32.9404 11.8363 33.0102C11.776 33.0802 11.6993 33.1125 11.6062 33.1125H10.5108V31.7301H11.6062C11.6993 31.7301 11.776 31.7623 11.8363 31.8323C11.8965 31.9022 11.9293 31.9882 11.9293 32.0958V32.7467Z" fill="white"/>
<path d="M20.3534 33.2738C20.4684 33.1125 20.5232 32.9242 20.5232 32.7252V31.9506C20.5232 31.6978 20.4302 31.4719 20.2384 31.289C20.0522 31.1061 19.8222 31.0093 19.5538 31.0093H17.5491V35.463H18.3543V33.7203H19.1156L19.8551 35.463H20.7095L19.9153 33.6235C20.0851 33.5481 20.2329 33.4352 20.3534 33.2738ZM19.718 32.6445C19.718 32.7521 19.6907 32.8381 19.6304 32.9081C19.5702 32.9726 19.4935 33.0049 19.4004 33.0049H18.3488V31.7301H19.4004C19.4935 31.7301 19.5702 31.7623 19.6304 31.8323C19.6907 31.9022 19.718 31.9882 19.718 32.0958V32.6445Z" fill="white"/>
<path d="M21.0271 31.7301H22.1829V35.463H22.988V31.7301H24.1492V31.0093H21.0271V31.7301Z" fill="white"/>
<path d="M26.8219 32.8112H25.8524C25.6388 32.8112 25.5292 32.6929 25.5292 32.4616V32.0851C25.5292 31.9775 25.5566 31.8914 25.6169 31.8215C25.6717 31.7516 25.7538 31.7193 25.8524 31.7193H26.6138C26.7945 31.7193 26.9095 31.8054 26.9698 31.9775L27.0739 32.3379H27.7695V31.9399C27.7695 31.6709 27.6764 31.4558 27.4956 31.2729C27.3093 31.0953 27.0848 31.0093 26.8165 31.0093H25.6936C25.4252 31.0093 25.1952 31.1007 25.0089 31.289C24.8227 31.4719 24.7241 31.6924 24.7241 31.9506V32.5961C24.7241 32.8597 24.8227 33.0802 25.0089 33.2685C25.1952 33.4514 25.4252 33.5428 25.6936 33.5428H26.6576C26.8767 33.5428 26.9808 33.6665 26.9808 33.9031V34.3927C26.9808 34.4948 26.9534 34.5863 26.8931 34.6508C26.8329 34.7208 26.7562 34.7584 26.6576 34.7584H25.8908C25.699 34.7584 25.5786 34.6724 25.5292 34.5003L25.4252 34.0914H24.7241V34.5325C24.7241 34.8015 24.8172 35.022 24.998 35.1995C25.1842 35.377 25.4033 35.4685 25.6771 35.4685H26.811C27.0793 35.4685 27.3093 35.377 27.4956 35.1887C27.6818 35.0058 27.7749 34.7799 27.7749 34.5164V33.7633C27.7749 33.5052 27.6818 33.2846 27.4846 33.0964C27.3094 32.9081 27.0848 32.8112 26.8219 32.8112Z" fill="white"/>
<path d="M19.1595 19.6381H10.5219L9.2019 21.6983L17.834 21.6928L19.1595 19.6381Z" fill="white"/>
<path d="M22.4294 25.8185H21.1368L19.8058 27.884H23.7549L25.0859 29.9495H27.6054L20.9232 19.5627L15.5555 27.8894H9.68387L11.0313 25.8238H14.6791L16.0046 23.7584H7.87092L6.54543 25.8238H8.4953L5.83887 29.9495H16.7714L20.9232 23.4733L22.4294 25.8185Z" fill="white"/>
<path d="M28.7993 31.1544L28.624 31.4126L28.4542 31.1544H28.3831V31.5847H28.4542V31.3158C28.4542 31.2997 28.4433 31.2889 28.4433 31.2674C28.4542 31.2835 28.4652 31.2997 28.4707 31.3104L28.6131 31.5256H28.624L28.7609 31.3158C28.7719 31.2997 28.7719 31.2889 28.7829 31.2674C28.7829 31.2889 28.7829 31.3051 28.7829 31.3158V31.5847H28.8596V31.1544H28.7993Z" fill="white"/>
<path d="M15.6049 31.0093H14.5203C14.252 31.0093 14.022 31.1007 13.8302 31.289C13.644 31.4719 13.5454 31.6924 13.5454 31.9506V34.511C13.5454 34.7799 13.644 35.0058 13.8302 35.1887C14.0165 35.3716 14.2465 35.4685 14.5203 35.4685H15.6049C15.8732 35.4685 16.0978 35.377 16.2895 35.1887C16.4812 35.0058 16.5743 34.7799 16.5743 34.511V31.9506C16.5743 31.6924 16.4812 31.4665 16.2895 31.289C16.0978 31.1007 15.8787 31.0093 15.6049 31.0093ZM15.7747 34.3765C15.7747 34.4787 15.7473 34.5648 15.6815 34.6347C15.6213 34.7046 15.5446 34.7423 15.4515 34.7423H14.6847C14.5861 34.7423 14.5094 34.7046 14.4492 34.6347C14.3889 34.5648 14.3616 34.4787 14.3616 34.3765V32.0904C14.3616 31.9829 14.3889 31.8968 14.4492 31.8269C14.5094 31.757 14.5861 31.7247 14.6847 31.7247H15.4515C15.5446 31.7247 15.6213 31.757 15.6815 31.8269C15.7418 31.8968 15.7747 31.9829 15.7747 32.0904V34.3765Z" fill="white"/>
<path d="M118.161 24.5976H118.861L119.114 23.9252H118.161V23.3013H119.344L119.59 22.6343H117.191V25.7057H118.161V24.5976Z" fill="white"/>
<path d="M120.866 22.6343H119.892V25.7057H120.866V22.6343Z" fill="white"/>
<path d="M122.51 24.5976H123.21L123.457 23.9252H122.51V23.3013H123.687L123.934 22.6343H121.535V25.7057H122.51V24.5976Z" fill="white"/>
<path d="M124.394 25.7057L124.515 25.2915H125.615L125.741 25.7057H126.727L125.588 22.6343H124.574L123.435 25.7057H124.394ZM125.062 23.425L125.45 24.7052H124.684L125.062 23.425Z" fill="white"/>
<path d="M126.382 23.4197C126.426 23.4628 126.475 23.495 126.53 23.5166C126.584 23.5435 126.645 23.5542 126.711 23.5542C126.777 23.5542 126.837 23.5435 126.891 23.5166C126.946 23.495 126.995 23.4574 127.039 23.4197C127.083 23.3767 127.116 23.3283 127.138 23.2745C127.165 23.2207 127.176 23.1616 127.176 23.097C127.176 23.0325 127.165 22.9733 127.138 22.9195C127.111 22.8657 127.078 22.8173 127.039 22.7742C126.995 22.7313 126.946 22.6989 126.891 22.6775C126.837 22.6506 126.777 22.6398 126.711 22.6398C126.645 22.6398 126.584 22.6506 126.53 22.6775C126.475 22.7044 126.426 22.7366 126.382 22.7742C126.338 22.8173 126.305 22.8657 126.283 22.9195C126.256 22.9733 126.245 23.0325 126.245 23.097C126.245 23.1616 126.256 23.2207 126.283 23.2745C126.305 23.3283 126.343 23.3767 126.382 23.4197ZM126.387 22.9464C126.404 22.9034 126.431 22.8603 126.464 22.828C126.497 22.7958 126.536 22.7689 126.579 22.7527C126.623 22.7366 126.667 22.7258 126.716 22.7258C126.766 22.7258 126.81 22.7366 126.853 22.7527C126.896 22.7689 126.935 22.7958 126.968 22.828C127.001 22.8603 127.023 22.898 127.045 22.9464C127.061 22.9894 127.072 23.0432 127.072 23.097C127.072 23.1508 127.061 23.1992 127.045 23.2476C127.028 23.2906 127.001 23.3337 126.968 23.3659C126.935 23.3982 126.896 23.4251 126.853 23.4413C126.81 23.4574 126.766 23.4682 126.716 23.4682C126.667 23.4682 126.623 23.4574 126.579 23.4413C126.536 23.4251 126.497 23.3982 126.464 23.3659C126.431 23.3337 126.409 23.2961 126.387 23.2476C126.371 23.2046 126.36 23.1508 126.36 23.097C126.36 23.0432 126.371 22.9894 126.387 22.9464Z" fill="white"/>
<path d="M126.634 23.1291H126.694L126.831 23.3551H126.935L126.793 23.1291C126.836 23.1237 126.869 23.113 126.896 23.0915C126.918 23.0699 126.935 23.0377 126.935 22.9893C126.935 22.9355 126.918 22.8925 126.885 22.871C126.852 22.8494 126.804 22.8333 126.738 22.8333H126.541V23.3551H126.639V23.1291H126.634ZM126.634 22.9032H126.722C126.733 22.9032 126.749 22.9032 126.76 22.9032C126.771 22.9032 126.782 22.9086 126.793 22.9139C126.804 22.9194 126.809 22.9247 126.82 22.9355C126.826 22.9463 126.831 22.957 126.831 22.9732C126.831 22.9893 126.826 23.0054 126.82 23.0162C126.815 23.027 126.804 23.0323 126.799 23.0377C126.788 23.043 126.777 23.0484 126.766 23.0484C126.755 23.0484 126.738 23.0484 126.722 23.0484H126.634V22.9032Z" fill="white"/>
<path d="M118.221 31.1438C118.264 31.1922 118.325 31.2298 118.391 31.2567C118.457 31.2836 118.538 31.2943 118.626 31.2943C118.714 31.2943 118.791 31.2836 118.861 31.2567C118.927 31.2298 118.988 31.1922 119.032 31.1438C119.076 31.0954 119.113 31.0362 119.135 30.9716C119.157 30.9017 119.168 30.8264 119.168 30.7404C119.168 30.6543 119.157 30.579 119.135 30.509C119.113 30.4391 119.076 30.3799 119.032 30.3369C118.988 30.2885 118.927 30.2509 118.861 30.2294C118.796 30.2025 118.714 30.1917 118.626 30.1917C118.538 30.1917 118.457 30.2025 118.391 30.2294C118.325 30.2562 118.264 30.2939 118.221 30.3369C118.177 30.3854 118.139 30.4445 118.117 30.509C118.095 30.579 118.084 30.6543 118.084 30.7404C118.084 30.8264 118.095 30.9017 118.117 30.9716C118.139 31.0416 118.177 31.1007 118.221 31.1438ZM118.396 30.6112C118.407 30.5682 118.418 30.5359 118.44 30.5037C118.462 30.4714 118.484 30.4499 118.517 30.4283C118.549 30.4123 118.588 30.4014 118.632 30.4014C118.676 30.4014 118.714 30.4123 118.747 30.4283C118.78 30.4445 118.801 30.4714 118.823 30.5037C118.845 30.5359 118.856 30.5736 118.867 30.6112C118.878 30.6543 118.883 30.6973 118.883 30.7404C118.883 30.7833 118.878 30.8264 118.867 30.8695C118.856 30.9125 118.845 30.9447 118.823 30.9771C118.801 31.0093 118.78 31.0362 118.747 31.0523C118.714 31.0738 118.676 31.0792 118.632 31.0792C118.588 31.0792 118.549 31.0685 118.517 31.0523C118.484 31.0362 118.462 31.0093 118.44 30.9771C118.418 30.9447 118.407 30.9071 118.396 30.8695C118.385 30.8264 118.38 30.7833 118.38 30.7404C118.38 30.6973 118.385 30.6543 118.396 30.6112Z" fill="white"/>
<path d="M119.699 30.8479H120.116V30.6436H119.699V30.4069H120.138V30.2079H119.409V31.2782H119.699V30.8479Z" fill="white"/>
<path d="M120.642 30.8479H121.064V30.6436H120.642V30.4069H121.08V30.2079H120.351V31.2782H120.642V30.8479Z" fill="white"/>
<path d="M121.611 30.2079H121.321V31.2782H121.611V30.2079Z" fill="white"/>
<path d="M122.071 31.1707C122.132 31.2138 122.197 31.246 122.274 31.2622C122.351 31.2837 122.422 31.2891 122.493 31.2891C122.564 31.2891 122.63 31.2837 122.679 31.2729C122.729 31.2622 122.772 31.2514 122.816 31.246L122.799 31.0201C122.761 31.0362 122.718 31.047 122.668 31.0578C122.619 31.0686 122.575 31.0739 122.525 31.0739C122.471 31.0739 122.422 31.0686 122.378 31.0524C122.334 31.0362 122.296 31.0148 122.263 30.9879C122.23 30.961 122.208 30.9233 122.186 30.8803C122.17 30.8372 122.159 30.7888 122.159 30.7404C122.159 30.692 122.17 30.6436 122.181 30.6005C122.197 30.5576 122.219 30.5199 122.252 30.493C122.279 30.4607 122.318 30.4392 122.362 30.4231C122.405 30.4069 122.449 30.3962 122.503 30.3962C122.553 30.3962 122.602 30.4016 122.646 30.4123C122.69 30.4231 122.74 30.4445 122.783 30.4714L122.805 30.2402C122.751 30.224 122.701 30.2133 122.646 30.2025C122.591 30.1918 122.536 30.1864 122.482 30.1864C122.395 30.1864 122.307 30.1971 122.235 30.2187C122.159 30.2402 122.093 30.2778 122.038 30.3209C121.983 30.3693 121.939 30.4231 121.907 30.493C121.874 30.5629 121.858 30.6436 121.858 30.735C121.858 30.8372 121.874 30.9233 121.912 30.9932C121.961 31.0739 122.011 31.1277 122.071 31.1707Z" fill="white"/>
<path d="M123.331 30.2079H123.041V31.2782H123.331V30.2079Z" fill="white"/>
<path d="M123.917 31.0471H124.328L124.41 31.273H124.728L124.306 30.2025H123.95L123.534 31.273H123.83L123.917 31.0471ZM124.125 30.4285L124.257 30.848H123.982L124.125 30.4285Z" fill="white"/>
<path d="M125.659 31.0631H125.21V30.2079H124.919V31.2782H125.659V31.0631Z" fill="white"/>
<path d="M118.823 32.8814H118.374V32.0208H118.084V33.0912H118.823V32.8814Z" fill="white"/>
<path d="M119.333 32.0208H119.042V33.0912H119.333V32.0208Z" fill="white"/>
<path d="M119.765 32.1445C119.71 32.1929 119.667 32.2467 119.634 32.3166C119.601 32.3865 119.585 32.4672 119.585 32.5586C119.585 32.6608 119.601 32.7469 119.64 32.8168C119.677 32.8868 119.727 32.946 119.787 32.9836C119.848 33.0266 119.914 33.0589 119.99 33.075C120.067 33.0965 120.138 33.1019 120.209 33.1019C120.28 33.1019 120.346 33.0965 120.395 33.0858C120.445 33.075 120.489 33.0643 120.532 33.0589L120.516 32.833C120.478 32.8491 120.434 32.8598 120.384 32.8706C120.335 32.8814 120.291 32.8868 120.242 32.8868C120.188 32.8868 120.138 32.8814 120.094 32.8653C120.05 32.8491 120.012 32.8276 119.979 32.8007C119.946 32.7738 119.925 32.7362 119.903 32.6931C119.886 32.6501 119.875 32.6017 119.875 32.5533C119.875 32.5048 119.881 32.4565 119.897 32.4134C119.914 32.3704 119.935 32.3327 119.968 32.3058C119.995 32.2736 120.034 32.252 120.078 32.2359C120.122 32.2198 120.166 32.209 120.22 32.209C120.269 32.209 120.318 32.2144 120.362 32.2252C120.406 32.2359 120.456 32.2574 120.5 32.2843L120.521 32.0531C120.467 32.0369 120.417 32.0262 120.362 32.0154C120.307 32.0046 120.252 31.9993 120.199 31.9993C120.111 31.9993 120.028 32.01 119.951 32.0315C119.886 32.0638 119.82 32.096 119.765 32.1445Z" fill="white"/>
<path d="M121.031 32.6501H121.48V32.4457H121.031V32.2251H121.507V32.0208H120.74V33.0912H121.524V32.8921H121.031V32.6501Z" fill="white"/>
<path d="M122.044 32.3596L122.427 33.0912H122.783V32.0208H122.52L122.525 32.7469H122.52L122.154 32.0208H121.781V33.0912H122.049L122.044 32.3596Z" fill="white"/>
<path d="M123.172 32.58C123.21 32.6016 123.249 32.6231 123.298 32.6338C123.342 32.6446 123.386 32.6607 123.424 32.6715C123.462 32.6823 123.495 32.6984 123.517 32.7145C123.545 32.7307 123.556 32.7576 123.556 32.7898C123.556 32.8114 123.55 32.8275 123.539 32.8436C123.528 32.8597 123.517 32.8705 123.501 32.8759C123.484 32.8813 123.462 32.8866 123.44 32.8921C123.418 32.8921 123.397 32.8974 123.375 32.8974C123.315 32.8974 123.26 32.8921 123.21 32.8759C123.161 32.8652 123.117 32.8436 123.079 32.8275L123.052 33.0642C123.101 33.0803 123.156 33.0911 123.21 33.0964C123.271 33.1018 123.326 33.1072 123.375 33.1072C123.435 33.1072 123.495 33.1018 123.55 33.0911C123.611 33.0803 123.66 33.0642 123.703 33.0373C123.747 33.0104 123.786 32.9727 123.813 32.9297C123.841 32.8866 123.852 32.8275 123.852 32.7576C123.852 32.693 123.841 32.6392 123.813 32.6016C123.786 32.564 123.758 32.5316 123.72 32.5102C123.682 32.4886 123.644 32.4671 123.594 32.4564C123.55 32.4456 123.506 32.4348 123.468 32.4187C123.429 32.408 123.397 32.3918 123.375 32.3811C123.348 32.3649 123.337 32.3434 123.337 32.3165C123.337 32.295 123.342 32.2735 123.359 32.2627C123.37 32.2519 123.386 32.2412 123.407 32.2304C123.429 32.225 123.446 32.2197 123.473 32.2197C123.495 32.2197 123.517 32.2197 123.534 32.2197C123.578 32.2197 123.616 32.225 123.66 32.2304C123.703 32.2358 123.742 32.2519 123.775 32.2681L123.791 32.0475C123.753 32.0368 123.714 32.0261 123.665 32.0206C123.616 32.0153 123.567 32.0099 123.512 32.0099C123.457 32.0099 123.402 32.0153 123.342 32.0261C123.287 32.0368 123.232 32.053 123.188 32.0798C123.145 32.1067 123.106 32.139 123.079 32.182C123.052 32.225 123.036 32.2788 123.036 32.3434C123.036 32.408 123.047 32.4617 123.074 32.4994C123.101 32.5263 123.134 32.5585 123.172 32.58Z" fill="white"/>
<path d="M124.864 32.2251V32.0208H124.098V33.0912H124.881V32.8921H124.388V32.6501H124.837V32.4457H124.388V32.2251H124.864Z" fill="white"/>
<path d="M125.133 32.0208V33.0912H125.527C125.621 33.0912 125.708 33.0804 125.785 33.0643C125.862 33.0428 125.933 33.0159 125.987 32.9728C126.042 32.9298 126.092 32.876 126.124 32.8061C126.157 32.7361 126.174 32.6554 126.174 32.5533C126.174 32.4511 126.157 32.365 126.124 32.2951C126.092 32.2251 126.048 32.1713 125.993 32.1337C125.939 32.0906 125.867 32.0637 125.79 32.0476C125.713 32.0315 125.626 32.0208 125.527 32.0208H125.133ZM125.785 32.3166C125.845 32.3704 125.873 32.4511 125.873 32.5587C125.873 32.6662 125.845 32.7469 125.785 32.8007C125.724 32.8545 125.643 32.8814 125.533 32.8814H125.417V32.2359H125.533C125.643 32.2359 125.73 32.2628 125.785 32.3166Z" fill="white"/>
<path d="M118.374 34.5327H118.49C118.626 34.5327 118.731 34.5004 118.807 34.4412C118.883 34.382 118.922 34.296 118.922 34.1884C118.922 34.0701 118.883 33.9786 118.802 33.9248C118.725 33.8656 118.599 33.8387 118.429 33.8387H118.084V34.9092H118.374V34.5327ZM118.374 34.0377H118.451C118.479 34.0377 118.5 34.0377 118.522 34.0432C118.544 34.0485 118.56 34.0539 118.577 34.0646C118.593 34.0754 118.604 34.0915 118.615 34.1077C118.626 34.1239 118.632 34.1508 118.632 34.1777C118.632 34.2046 118.626 34.226 118.615 34.2475C118.604 34.2691 118.593 34.2798 118.577 34.296C118.56 34.3067 118.544 34.3175 118.522 34.3229C118.5 34.3282 118.479 34.3282 118.451 34.3282H118.374V34.0377Z" fill="white"/>
<path d="M119.903 34.5273C119.892 34.5004 119.886 34.4789 119.875 34.4573C119.864 34.4358 119.853 34.4197 119.837 34.4089C119.82 34.3982 119.804 34.3874 119.782 34.382V34.3766C119.853 34.3605 119.908 34.3282 119.941 34.2852C119.974 34.2368 119.99 34.183 119.99 34.1077C119.99 34.0593 119.979 34.0216 119.963 33.9894C119.947 33.957 119.919 33.9302 119.886 33.9033C119.853 33.8818 119.815 33.8656 119.771 33.8549C119.727 33.8441 119.683 33.8387 119.634 33.8387H119.114V34.9092H119.404V34.4842H119.464C119.492 34.4842 119.513 34.4896 119.535 34.495C119.552 34.5004 119.574 34.5111 119.585 34.5327C119.601 34.5487 119.612 34.5756 119.629 34.6025C119.64 34.6294 119.656 34.6725 119.673 34.7155L119.732 34.9092H120.034L119.93 34.6187C119.925 34.581 119.914 34.5542 119.903 34.5273ZM119.683 34.226C119.673 34.2422 119.651 34.2529 119.634 34.2637C119.612 34.2744 119.59 34.2744 119.563 34.2798C119.535 34.2798 119.513 34.2798 119.492 34.2798H119.415V34.0377H119.492C119.519 34.0377 119.546 34.0377 119.574 34.0432C119.601 34.0485 119.623 34.0539 119.64 34.0593C119.662 34.0701 119.673 34.0808 119.689 34.097C119.699 34.1131 119.705 34.1346 119.705 34.1561C119.7 34.1884 119.694 34.2099 119.683 34.226Z" fill="white"/>
<path d="M121.162 33.9678C121.118 33.9194 121.057 33.8818 120.992 33.8603C120.927 33.8334 120.844 33.8226 120.756 33.8226C120.669 33.8226 120.587 33.8334 120.521 33.8603C120.455 33.8871 120.395 33.9248 120.351 33.9678C120.307 34.0163 120.269 34.0754 120.247 34.1399C120.225 34.2099 120.214 34.2852 120.214 34.3713C120.214 34.4573 120.225 34.5326 120.247 34.6026C120.269 34.6725 120.307 34.7316 120.351 34.7747C120.395 34.8231 120.455 34.8607 120.521 34.8876C120.587 34.9145 120.669 34.9253 120.756 34.9253C120.844 34.9253 120.921 34.9145 120.992 34.8876C121.057 34.8607 121.118 34.8231 121.162 34.7747C121.206 34.7263 121.244 34.6671 121.266 34.6026C121.288 34.5326 121.299 34.4573 121.299 34.3713C121.299 34.2852 121.288 34.2099 121.266 34.1399C121.244 34.07 121.206 34.0163 121.162 33.9678ZM120.987 34.5004C120.976 34.5434 120.965 34.5757 120.943 34.608C120.921 34.6402 120.899 34.6671 120.866 34.6833C120.833 34.7047 120.795 34.7102 120.751 34.7102C120.708 34.7102 120.669 34.6994 120.636 34.6833C120.603 34.6671 120.581 34.6402 120.559 34.608C120.537 34.5757 120.526 34.538 120.515 34.5004C120.504 34.4573 120.499 34.4143 120.499 34.3713C120.499 34.3228 120.504 34.2798 120.515 34.2421C120.526 34.1992 120.537 34.1668 120.559 34.1346C120.581 34.1023 120.603 34.0808 120.636 34.0592C120.669 34.0432 120.708 34.0323 120.751 34.0323C120.795 34.0323 120.833 34.0432 120.866 34.0592C120.899 34.0754 120.921 34.1023 120.943 34.1346C120.965 34.1668 120.976 34.2045 120.987 34.2421C120.998 34.2852 121.003 34.3282 121.003 34.3713C121.003 34.4143 120.998 34.4573 120.987 34.5004Z" fill="white"/>
<path d="M122.4 33.9462C122.345 33.9032 122.274 33.8763 122.197 33.8601C122.121 33.844 122.033 33.8333 121.934 33.8333H121.54V34.9037H121.934C122.027 34.9037 122.115 34.8929 122.192 34.8768C122.268 34.8553 122.34 34.8284 122.395 34.7853C122.449 34.7423 122.498 34.6885 122.531 34.6186C122.564 34.5487 122.58 34.468 122.58 34.3658C122.58 34.2636 122.564 34.1775 122.531 34.1076C122.504 34.043 122.46 33.9893 122.4 33.9462ZM122.197 34.6132C122.137 34.667 122.055 34.6939 121.945 34.6939H121.83V34.0484H121.945C122.055 34.0484 122.137 34.0753 122.197 34.1291C122.257 34.1829 122.285 34.2636 122.285 34.3712C122.285 34.4787 122.252 34.5594 122.197 34.6132Z" fill="white"/>
<path d="M122.948 34.8231C122.992 34.8554 123.041 34.8823 123.101 34.8984C123.161 34.9145 123.227 34.9253 123.293 34.9253C123.364 34.9253 123.429 34.9145 123.484 34.8984C123.545 34.8823 123.594 34.8554 123.638 34.8231C123.681 34.7908 123.714 34.7424 123.736 34.694C123.758 34.6402 123.769 34.5756 123.769 34.5058V33.8387H123.479V34.4573C123.479 34.495 123.473 34.5272 123.468 34.5595C123.462 34.5918 123.451 34.6187 123.44 34.6402C123.424 34.6617 123.407 34.6832 123.386 34.6994C123.364 34.7155 123.331 34.7209 123.293 34.7209C123.254 34.7209 123.227 34.7155 123.199 34.6994C123.177 34.6832 123.155 34.6671 123.144 34.6402C123.128 34.6187 123.122 34.5864 123.117 34.5595C123.112 34.5272 123.106 34.495 123.106 34.4573V33.8387H122.816V34.5003C122.816 34.5756 122.827 34.6348 122.849 34.6886C122.876 34.7424 122.909 34.7908 122.948 34.8231Z" fill="white"/>
<path d="M124.805 34.6995C124.755 34.7102 124.711 34.7156 124.662 34.7156C124.607 34.7156 124.558 34.7102 124.514 34.6941C124.471 34.678 124.432 34.6564 124.399 34.6295C124.366 34.6026 124.344 34.565 124.322 34.5219C124.306 34.479 124.295 34.4305 124.295 34.3821C124.295 34.3337 124.306 34.2853 124.317 34.2423C124.333 34.1992 124.355 34.1616 124.388 34.1347C124.416 34.1024 124.454 34.0809 124.498 34.0647C124.541 34.0486 124.585 34.0378 124.64 34.0378C124.689 34.0378 124.739 34.0432 124.783 34.054C124.826 34.0647 124.875 34.0863 124.919 34.1132L124.941 33.8819C124.886 33.8657 124.837 33.855 124.783 33.8442C124.728 33.8335 124.673 33.8281 124.618 33.8281C124.53 33.8281 124.449 33.8389 124.372 33.8604C124.295 33.8818 124.229 33.9195 124.175 33.9626C124.12 34.0109 124.076 34.0647 124.043 34.1347C124.01 34.2046 123.993 34.2853 123.993 34.3767C123.993 34.479 124.01 34.565 124.048 34.6349C124.087 34.7049 124.136 34.764 124.197 34.8017C124.256 34.8447 124.322 34.8769 124.399 34.8931C124.476 34.9146 124.547 34.92 124.618 34.92C124.689 34.92 124.755 34.9146 124.805 34.9038C124.853 34.8931 124.897 34.8824 124.941 34.8769L124.925 34.6511C124.892 34.6726 124.848 34.6887 124.805 34.6995Z" fill="white"/>
<path d="M125.079 34.0485H125.347V34.9092H125.637V34.0485H125.906V33.8387H125.079V34.0485Z" fill="white"/>
<path d="M115.175 20.0901V37.0607H129V20.0901H115.175ZM128.852 36.9101H115.329V28.648H128.852V36.9101ZM128.852 28.4975H115.329V20.2353H128.852V28.4975Z" fill="white"/>
<path d="M39.1569 20.0901H52.0503L51.3986 23.8016H43.2758L42.7171 26.9214H49.2624L48.6106 30.6329H42.0379L40.8986 37.0607H36.1006L39.1569 20.0901Z" fill="white"/>
<path d="M53.7265 20.0901H58.5026L55.4463 37.0607H50.6702L53.7265 20.0901Z" fill="white"/>
<path d="M60.1784 20.0901H73.0718L72.4201 23.8016H64.3028L63.7441 26.9214H70.2894L69.6376 30.6329H63.0704L61.9311 37.0607H57.1331L60.1784 20.0901Z" fill="white"/>
<path d="M77.0702 20.0631H82.427L85.215 37.0553H80.4662L80.0773 34.0807H74.0907L72.6337 37.0553H68.0273L77.0702 20.0631ZM79.6172 30.536L78.8175 24.4201H78.7189L75.8105 30.536H79.6172Z" fill="white"/>
<path d="M109.54 20.0901L103.98 21.1013L103.454 24.1834L106.499 24.0436L104.149 37.0553H108.564L111.604 20.0901H109.54Z" fill="white"/>
<path d="M88.649 34.4895L94.3672 29.1322C95.6268 27.9433 97.6369 26.136 97.6369 24.56C97.6369 23.6778 96.9582 23.2529 96.1361 23.2529C94.6083 23.2529 94.2466 24.5169 94.0493 25.7057H89.7611C89.7831 25.6358 89.9087 24.8505 89.9306 24.7752C90.5823 21.3488 93.5679 19.848 97.0071 19.848C99.7236 19.848 102.216 20.9185 102.216 23.9199C102.216 27.2549 98.749 29.8206 96.4489 31.8485L94.8275 33.2793L94.8056 33.3977H100.792L100.14 37.0607H88.1946L88.649 34.4895Z" fill="white"/>
</svg>
