<svg width="144" height="57" viewBox="0 0 144 57" fill="none" xmlns="http://www.w3.org/2000/svg">
<rect width="144" height="57" fill="black"/>
<rect x="16" y="10" width="115" height="37" rx="2" fill="#8A50FF"/>
<path d="M39.1943 26.07H37.8643C37.5563 25.482 37.1083 25.02 36.5203 24.684C35.9416 24.348 35.3163 24.18 34.6443 24.18C34.1683 24.18 33.7109 24.278 33.2723 24.474C32.8336 24.6607 32.4509 24.9267 32.1243 25.272C31.7976 25.6173 31.5363 26.0327 31.3403 26.518C31.1443 26.994 31.0463 27.5213 31.0463 28.1C31.0463 28.6787 31.1443 29.2107 31.3403 29.696C31.5363 30.172 31.8023 30.5827 32.1383 30.928C32.4743 31.2733 32.8616 31.544 33.3003 31.74C33.7483 31.9267 34.2196 32.02 34.7143 32.02C35.6289 32.02 36.3943 31.74 37.0103 31.18C37.6356 30.62 38.0229 29.878 38.1723 28.954H35.2043V27.862H39.4743V28.1C39.4743 28.8373 39.3529 29.5187 39.1103 30.144C38.8676 30.76 38.5363 31.292 38.1163 31.74C37.6963 32.188 37.1923 32.538 36.6043 32.79C36.0256 33.0327 35.3956 33.154 34.7143 33.154C34.0516 33.154 33.4216 33.0327 32.8243 32.79C32.2269 32.538 31.7043 32.1927 31.2563 31.754C30.8176 31.306 30.4676 30.774 30.2063 30.158C29.9449 29.5327 29.8143 28.8467 29.8143 28.1C29.8143 27.3533 29.9403 26.672 30.1923 26.056C30.4536 25.4307 30.8036 24.8987 31.2423 24.46C31.6809 24.012 32.1943 23.6667 32.7823 23.424C33.3703 23.172 33.9909 23.046 34.6443 23.046C35.1483 23.046 35.6336 23.116 36.1003 23.256C36.5763 23.396 37.0103 23.5967 37.4023 23.858C37.8036 24.1193 38.1583 24.4367 38.4663 24.81C38.7743 25.1833 39.0169 25.6033 39.1943 26.07ZM44.3168 33.126C43.8408 33.126 43.3928 33.0327 42.9728 32.846C42.5528 32.6593 42.1888 32.4073 41.8808 32.09C41.5728 31.7633 41.3302 31.376 41.1528 30.928C40.9755 30.4707 40.8868 29.976 40.8868 29.444C40.8868 28.9213 40.9708 28.436 41.1388 27.988C41.3162 27.54 41.5542 27.1573 41.8528 26.84C42.1608 26.5133 42.5202 26.2567 42.9308 26.07C43.3415 25.8833 43.7802 25.79 44.2468 25.79C44.6948 25.79 45.1195 25.8833 45.5208 26.07C45.9222 26.2473 46.2722 26.504 46.5708 26.84C46.8695 27.176 47.1075 27.596 47.2848 28.1C47.4622 28.5947 47.5508 29.1547 47.5508 29.78V29.864H42.0908C42.1748 30.5173 42.4268 31.0493 42.8468 31.46C43.2668 31.8707 43.7568 32.076 44.3168 32.076C44.6715 32.076 44.9982 31.992 45.2968 31.824C45.6048 31.6467 45.8522 31.4133 46.0388 31.124H47.3548C47.1028 31.7307 46.7015 32.216 46.1508 32.58C45.6095 32.944 44.9982 33.126 44.3168 33.126ZM44.2328 26.854C43.7102 26.854 43.2482 27.0453 42.8468 27.428C42.4548 27.8107 42.2075 28.3007 42.1048 28.898H46.3188C46.2255 28.3007 45.9828 27.8107 45.5908 27.428C45.1988 27.0453 44.7462 26.854 44.2328 26.854ZM50.0391 31.278V26.938H48.2471V25.93H50.0391V24.264L51.2011 23.844V25.93H53.2871V26.938H51.2011V31.222C51.2011 31.4647 51.2665 31.6513 51.3971 31.782C51.5278 31.9033 51.7238 31.964 51.9851 31.964H53.2871V33H51.6911C51.1591 33 50.7485 32.8553 50.4591 32.566C50.1791 32.2673 50.0391 31.838 50.0391 31.278ZM58.9669 31.278V26.938H57.1749V25.93H58.9669V24.264L60.1289 23.844V25.93H62.2149V26.938H60.1289V31.222C60.1289 31.4647 60.1942 31.6513 60.3249 31.782C60.4555 31.9033 60.6515 31.964 60.9129 31.964H62.2149V33H60.6189C60.0869 33 59.6762 32.8553 59.3869 32.566C59.1069 32.2673 58.9669 31.838 58.9669 31.278ZM64.7644 28.632V33H63.5884V22.808L64.7644 22.346V27.316C64.9417 26.784 65.2217 26.4013 65.6044 26.168C65.9964 25.9253 66.4117 25.804 66.8504 25.804C67.2424 25.804 67.5924 25.874 67.9004 26.014C68.2084 26.154 68.4697 26.35 68.6844 26.602C68.8991 26.8447 69.0624 27.134 69.1744 27.47C69.2864 27.806 69.3424 28.1653 69.3424 28.548V33H68.1664V28.66C68.1664 28.1 68.0124 27.652 67.7044 27.316C67.4057 26.98 67.0184 26.812 66.5424 26.812C66.0197 26.812 65.5904 26.9893 65.2544 27.344C64.9277 27.6893 64.7644 28.1187 64.7644 28.632ZM74.3813 33.126C73.9053 33.126 73.4573 33.0327 73.0373 32.846C72.6173 32.6593 72.2533 32.4073 71.9453 32.09C71.6373 31.7633 71.3946 31.376 71.2173 30.928C71.04 30.4707 70.9513 29.976 70.9513 29.444C70.9513 28.9213 71.0353 28.436 71.2033 27.988C71.3806 27.54 71.6186 27.1573 71.9173 26.84C72.2253 26.5133 72.5846 26.2567 72.9953 26.07C73.406 25.8833 73.8446 25.79 74.3113 25.79C74.7593 25.79 75.184 25.8833 75.5853 26.07C75.9866 26.2473 76.3366 26.504 76.6353 26.84C76.934 27.176 77.172 27.596 77.3493 28.1C77.5266 28.5947 77.6153 29.1547 77.6153 29.78V29.864H72.1553C72.2393 30.5173 72.4913 31.0493 72.9113 31.46C73.3313 31.8707 73.8213 32.076 74.3813 32.076C74.736 32.076 75.0626 31.992 75.3613 31.824C75.6693 31.6467 75.9166 31.4133 76.1033 31.124H77.4193C77.1673 31.7307 76.766 32.216 76.2153 32.58C75.674 32.944 75.0626 33.126 74.3813 33.126ZM74.2973 26.854C73.7746 26.854 73.3126 27.0453 72.9113 27.428C72.5193 27.8107 72.272 28.3007 72.1693 28.898H76.3833C76.29 28.3007 76.0473 27.8107 75.6553 27.428C75.2633 27.0453 74.8106 26.854 74.2973 26.854ZM85.3412 33.07C84.8932 33.07 84.4732 32.9813 84.0812 32.804C83.6892 32.6173 83.3486 32.3653 83.0592 32.048C82.7699 31.7213 82.5412 31.334 82.3732 30.886C82.2052 30.438 82.1212 29.9527 82.1212 29.43C82.1212 28.9073 82.2052 28.4267 82.3732 27.988C82.5412 27.54 82.7699 27.1573 83.0592 26.84C83.3486 26.5133 83.6892 26.2613 84.0812 26.084C84.4826 25.8973 84.9072 25.804 85.3552 25.804C85.8406 25.804 86.2932 25.9253 86.7132 26.168C87.1332 26.4013 87.4832 26.7233 87.7632 27.134V25.93H88.9392V32.762C88.9392 33.322 88.8552 33.8213 88.6872 34.26C88.5286 34.708 88.2999 35.0767 88.0012 35.366C87.7119 35.6647 87.3666 35.8887 86.9652 36.038C86.5639 36.1967 86.1252 36.276 85.6492 36.276C85.2572 36.276 84.8792 36.22 84.5152 36.108C84.1606 35.996 83.8386 35.842 83.5492 35.646C83.2599 35.45 83.0126 35.2073 82.8072 34.918C82.6019 34.638 82.4572 34.33 82.3732 33.994H83.6332C83.7546 34.3673 84.0019 34.666 84.3752 34.89C84.7579 35.114 85.1779 35.226 85.6352 35.226C86.2512 35.226 86.7599 35.0207 87.1612 34.61C87.5626 34.2087 87.7632 33.5973 87.7632 32.776V31.74C87.4832 32.1507 87.1286 32.4773 86.6992 32.72C86.2792 32.9533 85.8266 33.07 85.3412 33.07ZM85.5512 32.006C86.1672 32.006 86.6946 31.768 87.1332 31.292C87.5719 30.8067 87.7912 30.186 87.7912 29.43C87.7912 28.6833 87.5719 28.072 87.1332 27.596C86.6946 27.1107 86.1672 26.868 85.5512 26.868C84.9259 26.868 84.3939 27.1107 83.9552 27.596C83.5166 28.072 83.2972 28.6833 83.2972 29.43C83.2972 30.186 83.5166 30.8067 83.9552 31.292C84.3939 31.768 84.9259 32.006 85.5512 32.006ZM95.1351 33V31.768C94.9484 32.1787 94.6498 32.51 94.2391 32.762C93.8378 33.0047 93.3618 33.126 92.8111 33.126C92.1391 33.126 91.5838 32.9393 91.1451 32.566C90.7158 32.1833 90.5011 31.698 90.5011 31.11C90.5011 30.55 90.7111 30.0973 91.1311 29.752C91.5511 29.3973 92.1251 29.192 92.8531 29.136L95.1351 28.968V28.604C95.1351 28.0907 94.9764 27.666 94.6591 27.33C94.3511 26.9847 93.9638 26.812 93.4971 26.812C93.0024 26.812 92.6104 26.938 92.3211 27.19C92.0411 27.4327 91.8544 27.7733 91.7611 28.212H90.5991C90.6738 27.5027 90.9818 26.924 91.5231 26.476C92.0644 26.0187 92.7271 25.79 93.5111 25.79C94.3791 25.79 95.0604 26.056 95.5551 26.588C96.0498 27.1107 96.2971 27.778 96.2971 28.59V33H95.1351ZM91.6631 31.11C91.6631 31.4087 91.7891 31.6607 92.0411 31.866C92.2931 32.062 92.6244 32.16 93.0351 32.16C93.6044 32.16 94.0944 31.9827 94.5051 31.628C94.9251 31.2733 95.1351 30.858 95.1351 30.382V29.878L93.0771 30.032C92.6384 30.0693 92.2931 30.1813 92.0411 30.368C91.7891 30.5453 91.6631 30.7927 91.6631 31.11ZM98.1782 33V25.93H99.3542V27.316C99.5316 26.784 99.8116 26.4013 100.194 26.168C100.577 25.9347 100.983 25.818 101.412 25.818C101.916 25.818 102.346 25.9627 102.7 26.252C103.064 26.5413 103.326 26.9193 103.484 27.386C103.662 26.882 103.946 26.4947 104.338 26.224C104.74 25.9533 105.178 25.818 105.654 25.818C106.028 25.818 106.359 25.888 106.648 26.028C106.938 26.168 107.18 26.364 107.376 26.616C107.572 26.8587 107.722 27.148 107.824 27.484C107.927 27.8107 107.978 28.1653 107.978 28.548V33H106.802V28.66C106.802 28.128 106.653 27.6893 106.354 27.344C106.065 26.9987 105.687 26.826 105.22 26.826C104.791 26.826 104.422 27.0033 104.114 27.358C103.816 27.7033 103.666 28.128 103.666 28.632V33H102.49V28.66C102.49 28.128 102.341 27.6893 102.042 27.344C101.753 26.9987 101.375 26.826 100.908 26.826C100.479 26.826 100.11 27.0033 99.8022 27.358C99.5036 27.7033 99.3542 28.128 99.3542 28.632V33H98.1782ZM113.018 33.126C112.542 33.126 112.094 33.0327 111.674 32.846C111.254 32.6593 110.89 32.4073 110.582 32.09C110.274 31.7633 110.031 31.376 109.854 30.928C109.677 30.4707 109.588 29.976 109.588 29.444C109.588 28.9213 109.672 28.436 109.84 27.988C110.017 27.54 110.255 27.1573 110.554 26.84C110.862 26.5133 111.221 26.2567 111.632 26.07C112.043 25.8833 112.481 25.79 112.948 25.79C113.396 25.79 113.821 25.8833 114.222 26.07C114.623 26.2473 114.973 26.504 115.272 26.84C115.571 27.176 115.809 27.596 115.986 28.1C116.163 28.5947 116.252 29.1547 116.252 29.78V29.864H110.792C110.876 30.5173 111.128 31.0493 111.548 31.46C111.968 31.8707 112.458 32.076 113.018 32.076C113.373 32.076 113.699 31.992 113.998 31.824C114.306 31.6467 114.553 31.4133 114.74 31.124H116.056C115.804 31.7307 115.403 32.216 114.852 32.58C114.311 32.944 113.699 33.126 113.018 33.126ZM112.934 26.854C112.411 26.854 111.949 27.0453 111.548 27.428C111.156 27.8107 110.909 28.3007 110.806 28.898H115.02C114.927 28.3007 114.684 27.8107 114.292 27.428C113.9 27.0453 113.447 26.854 112.934 26.854Z" fill="white"/>
</svg>
