<svg width="129" height="33" viewBox="0 0 129 33" fill="none" xmlns="http://www.w3.org/2000/svg">
<path d="M16.7987 0C7.53669 0 0 7.40147 0 16.4973C0 25.5931 7.53669 32.9946 16.7987 32.9946C26.0607 32.9946 33.5974 25.5931 33.5974 16.4973C33.5974 7.40147 26.0607 0 16.7987 0ZM16.7987 30.7086C8.80741 30.7086 2.33331 24.3453 2.33331 16.4973C2.33331 8.64938 8.80741 2.28607 16.7987 2.28607C24.79 2.28607 31.2696 8.64402 31.2696 16.4973C31.2696 24.3506 24.79 30.7086 16.7987 30.7086Z" fill="white"/>
<path d="M27.8518 19.2297H28.0216V19.5847H28.1037V19.2297H28.279V19.1544H27.8518V19.2297Z" fill="white"/>
<path d="M7.81058 20.8112H6.8411C6.62201 20.8112 6.51794 20.6929 6.51794 20.4616V20.0851C6.51794 19.9775 6.54533 19.8914 6.60558 19.8215C6.66583 19.7516 6.74251 19.7193 6.8411 19.7193H7.60244C7.78319 19.7193 7.90368 19.8054 7.95846 19.9775L8.06253 20.3379H8.75811V19.9399C8.75811 19.6709 8.67051 19.4558 8.48426 19.2729C8.29804 19.0953 8.07348 19.0093 7.81058 19.0093H6.68774C6.42483 19.0093 6.19479 19.1007 6.00308 19.289C5.81686 19.4719 5.72374 19.6924 5.72374 19.9506V20.5961C5.72374 20.8597 5.81686 21.0802 6.00308 21.2685C6.19479 21.4514 6.42483 21.5428 6.68774 21.5428H7.65721C7.87083 21.5428 7.98037 21.6665 7.98037 21.9031V22.3927C7.98037 22.4948 7.95298 22.5863 7.89273 22.6508C7.83248 22.7208 7.7558 22.7584 7.65721 22.7584H6.88492C6.69322 22.7584 6.57271 22.6724 6.52342 22.5003L6.41936 22.0914H5.71826V22.5325C5.71826 22.8015 5.8059 23.022 5.99213 23.1995C6.17287 23.377 6.39744 23.4685 6.6713 23.4685H7.81058C8.07348 23.4685 8.30352 23.377 8.48974 23.1887C8.67599 23.0058 8.76907 22.7799 8.76907 22.5164V21.7633C8.76907 21.5052 8.67599 21.2846 8.48426 21.0964C8.29804 20.9081 8.07348 20.8112 7.81058 20.8112Z" fill="white"/>
<path d="M11.7595 19.0093H9.70557V23.463H10.5053V21.8279H11.7541C12.0224 21.8279 12.247 21.7364 12.4442 21.5481C12.6304 21.3653 12.7236 21.1393 12.7236 20.8812V19.9452C12.7236 19.687 12.6304 19.4665 12.4442 19.2836C12.258 19.1007 12.0279 19.0093 11.7595 19.0093ZM11.9293 20.7467C11.9293 20.8543 11.8965 20.9404 11.8363 21.0102C11.776 21.0802 11.6993 21.1125 11.6062 21.1125H10.5108V19.7301H11.6062C11.6993 19.7301 11.776 19.7623 11.8363 19.8323C11.8965 19.9022 11.9293 19.9882 11.9293 20.0958V20.7467Z" fill="white"/>
<path d="M20.3534 21.2738C20.4684 21.1125 20.5232 20.9242 20.5232 20.7252V19.9506C20.5232 19.6978 20.4302 19.4719 20.2384 19.289C20.0522 19.1061 19.8222 19.0093 19.5538 19.0093H17.5491V23.463H18.3543V21.7203H19.1156L19.8551 23.463H20.7095L19.9153 21.6235C20.0851 21.5481 20.2329 21.4352 20.3534 21.2738ZM19.718 20.6445C19.718 20.7521 19.6907 20.8381 19.6304 20.9081C19.5702 20.9726 19.4935 21.0049 19.4004 21.0049H18.3488V19.7301H19.4004C19.4935 19.7301 19.5702 19.7623 19.6304 19.8323C19.6907 19.9022 19.718 19.9882 19.718 20.0958V20.6445Z" fill="white"/>
<path d="M21.0271 19.7301H22.1829V23.463H22.988V19.7301H24.1492V19.0093H21.0271V19.7301Z" fill="white"/>
<path d="M26.8219 20.8112H25.8524C25.6388 20.8112 25.5292 20.6929 25.5292 20.4616V20.0851C25.5292 19.9775 25.5566 19.8914 25.6169 19.8215C25.6717 19.7516 25.7538 19.7193 25.8524 19.7193H26.6138C26.7945 19.7193 26.9095 19.8054 26.9698 19.9775L27.0739 20.3379H27.7695V19.9399C27.7695 19.6709 27.6764 19.4558 27.4956 19.2729C27.3093 19.0953 27.0848 19.0093 26.8165 19.0093H25.6936C25.4252 19.0093 25.1952 19.1007 25.0089 19.289C24.8227 19.4719 24.7241 19.6924 24.7241 19.9506V20.5961C24.7241 20.8597 24.8227 21.0802 25.0089 21.2685C25.1952 21.4514 25.4252 21.5428 25.6936 21.5428H26.6576C26.8767 21.5428 26.9808 21.6665 26.9808 21.9031V22.3927C26.9808 22.4948 26.9534 22.5863 26.8931 22.6508C26.8329 22.7208 26.7562 22.7584 26.6576 22.7584H25.8908C25.699 22.7584 25.5786 22.6724 25.5292 22.5003L25.4252 22.0914H24.7241V22.5325C24.7241 22.8015 24.8172 23.022 24.998 23.1995C25.1842 23.377 25.4033 23.4685 25.6771 23.4685H26.811C27.0793 23.4685 27.3093 23.377 27.4956 23.1887C27.6818 23.0058 27.7749 22.7799 27.7749 22.5164V21.7633C27.7749 21.5052 27.6818 21.2846 27.4846 21.0964C27.3094 20.9081 27.0848 20.8112 26.8219 20.8112Z" fill="white"/>
<path d="M19.1595 7.63806H10.5219L9.2019 9.69825L17.834 9.69281L19.1595 7.63806Z" fill="white"/>
<path d="M22.4294 13.8185H21.1368L19.8058 15.884H23.7549L25.0859 17.9495H27.6054L20.9232 7.56274L15.5555 15.8894H9.68387L11.0313 13.8238H14.6791L16.0046 11.7584H7.87092L6.54543 13.8238H8.4953L5.83887 17.9495H16.7714L20.9232 11.4733L22.4294 13.8185Z" fill="white"/>
<path d="M28.7993 19.1544L28.624 19.4126L28.4542 19.1544H28.3831V19.5847H28.4542V19.3158C28.4542 19.2997 28.4433 19.2889 28.4433 19.2674C28.4542 19.2835 28.4652 19.2997 28.4707 19.3104L28.6131 19.5256H28.624L28.7609 19.3158C28.7719 19.2997 28.7719 19.2889 28.7829 19.2674C28.7829 19.2889 28.7829 19.3051 28.7829 19.3158V19.5847H28.8596V19.1544H28.7993Z" fill="white"/>
<path d="M15.6049 19.0093H14.5203C14.252 19.0093 14.022 19.1007 13.8302 19.289C13.644 19.4719 13.5454 19.6924 13.5454 19.9506V22.511C13.5454 22.7799 13.644 23.0058 13.8302 23.1887C14.0165 23.3716 14.2465 23.4685 14.5203 23.4685H15.6049C15.8732 23.4685 16.0978 23.377 16.2895 23.1887C16.4812 23.0058 16.5743 22.7799 16.5743 22.511V19.9506C16.5743 19.6924 16.4812 19.4665 16.2895 19.289C16.0978 19.1007 15.8787 19.0093 15.6049 19.0093ZM15.7747 22.3765C15.7747 22.4787 15.7473 22.5648 15.6815 22.6347C15.6213 22.7046 15.5446 22.7423 15.4515 22.7423H14.6847C14.5861 22.7423 14.5094 22.7046 14.4492 22.6347C14.3889 22.5648 14.3616 22.4787 14.3616 22.3765V20.0904C14.3616 19.9829 14.3889 19.8968 14.4492 19.8269C14.5094 19.757 14.5861 19.7247 14.6847 19.7247H15.4515C15.5446 19.7247 15.6213 19.757 15.6815 19.8269C15.7418 19.8968 15.7747 19.9829 15.7747 20.0904V22.3765Z" fill="white"/>
<path d="M118.161 12.5976H118.861L119.114 11.9252H118.161V11.3013H119.344L119.59 10.6343H117.191V13.7057H118.161V12.5976Z" fill="white"/>
<path d="M120.866 10.6343H119.892V13.7057H120.866V10.6343Z" fill="white"/>
<path d="M122.51 12.5976H123.21L123.457 11.9252H122.51V11.3013H123.687L123.934 10.6343H121.535V13.7057H122.51V12.5976Z" fill="white"/>
<path d="M124.394 13.7057L124.515 13.2915H125.615L125.741 13.7057H126.727L125.588 10.6343H124.574L123.435 13.7057H124.394ZM125.062 11.425L125.45 12.7052H124.684L125.062 11.425Z" fill="white"/>
<path d="M126.382 11.4197C126.426 11.4628 126.475 11.495 126.53 11.5166C126.584 11.5435 126.645 11.5542 126.711 11.5542C126.777 11.5542 126.837 11.5435 126.891 11.5166C126.946 11.495 126.995 11.4574 127.039 11.4197C127.083 11.3767 127.116 11.3283 127.138 11.2745C127.165 11.2207 127.176 11.1616 127.176 11.097C127.176 11.0325 127.165 10.9733 127.138 10.9195C127.111 10.8657 127.078 10.8173 127.039 10.7742C126.995 10.7313 126.946 10.6989 126.891 10.6775C126.837 10.6506 126.777 10.6398 126.711 10.6398C126.645 10.6398 126.584 10.6506 126.53 10.6775C126.475 10.7044 126.426 10.7366 126.382 10.7742C126.338 10.8173 126.305 10.8657 126.283 10.9195C126.256 10.9733 126.245 11.0325 126.245 11.097C126.245 11.1616 126.256 11.2207 126.283 11.2745C126.305 11.3283 126.343 11.3767 126.382 11.4197ZM126.387 10.9464C126.404 10.9034 126.431 10.8603 126.464 10.828C126.497 10.7958 126.536 10.7689 126.579 10.7527C126.623 10.7366 126.667 10.7258 126.716 10.7258C126.766 10.7258 126.81 10.7366 126.853 10.7527C126.896 10.7689 126.935 10.7958 126.968 10.828C127.001 10.8603 127.023 10.898 127.045 10.9464C127.061 10.9894 127.072 11.0432 127.072 11.097C127.072 11.1508 127.061 11.1992 127.045 11.2476C127.028 11.2906 127.001 11.3337 126.968 11.3659C126.935 11.3982 126.896 11.4251 126.853 11.4413C126.81 11.4574 126.766 11.4682 126.716 11.4682C126.667 11.4682 126.623 11.4574 126.579 11.4413C126.536 11.4251 126.497 11.3982 126.464 11.3659C126.431 11.3337 126.409 11.2961 126.387 11.2476C126.371 11.2046 126.36 11.1508 126.36 11.097C126.36 11.0432 126.371 10.9894 126.387 10.9464Z" fill="white"/>
<path d="M126.634 11.1291H126.694L126.831 11.3551H126.935L126.793 11.1291C126.836 11.1237 126.869 11.113 126.896 11.0915C126.918 11.0699 126.935 11.0377 126.935 10.9893C126.935 10.9355 126.918 10.8925 126.885 10.871C126.852 10.8494 126.804 10.8333 126.738 10.8333H126.541V11.3551H126.639V11.1291H126.634ZM126.634 10.9032H126.722C126.733 10.9032 126.749 10.9032 126.76 10.9032C126.771 10.9032 126.782 10.9086 126.793 10.9139C126.804 10.9194 126.809 10.9247 126.82 10.9355C126.826 10.9463 126.831 10.957 126.831 10.9732C126.831 10.9893 126.826 11.0054 126.82 11.0162C126.815 11.027 126.804 11.0323 126.799 11.0377C126.788 11.043 126.777 11.0484 126.766 11.0484C126.755 11.0484 126.738 11.0484 126.722 11.0484H126.634V10.9032Z" fill="white"/>
<path d="M118.221 19.1438C118.264 19.1922 118.325 19.2298 118.391 19.2567C118.457 19.2836 118.538 19.2943 118.626 19.2943C118.714 19.2943 118.791 19.2836 118.861 19.2567C118.927 19.2298 118.988 19.1922 119.032 19.1438C119.076 19.0954 119.113 19.0362 119.135 18.9716C119.157 18.9017 119.168 18.8264 119.168 18.7404C119.168 18.6543 119.157 18.579 119.135 18.509C119.113 18.4391 119.076 18.3799 119.032 18.3369C118.988 18.2885 118.927 18.2509 118.861 18.2294C118.796 18.2025 118.714 18.1917 118.626 18.1917C118.538 18.1917 118.457 18.2025 118.391 18.2294C118.325 18.2562 118.264 18.2939 118.221 18.3369C118.177 18.3854 118.139 18.4445 118.117 18.509C118.095 18.579 118.084 18.6543 118.084 18.7404C118.084 18.8264 118.095 18.9017 118.117 18.9716C118.139 19.0416 118.177 19.1007 118.221 19.1438ZM118.396 18.6112C118.407 18.5682 118.418 18.5359 118.44 18.5037C118.462 18.4714 118.484 18.4499 118.517 18.4283C118.549 18.4123 118.588 18.4014 118.632 18.4014C118.676 18.4014 118.714 18.4123 118.747 18.4283C118.78 18.4445 118.801 18.4714 118.823 18.5037C118.845 18.5359 118.856 18.5736 118.867 18.6112C118.878 18.6543 118.883 18.6973 118.883 18.7404C118.883 18.7833 118.878 18.8264 118.867 18.8695C118.856 18.9125 118.845 18.9447 118.823 18.9771C118.801 19.0093 118.78 19.0362 118.747 19.0523C118.714 19.0738 118.676 19.0792 118.632 19.0792C118.588 19.0792 118.549 19.0685 118.517 19.0523C118.484 19.0362 118.462 19.0093 118.44 18.9771C118.418 18.9447 118.407 18.9071 118.396 18.8695C118.385 18.8264 118.38 18.7833 118.38 18.7404C118.38 18.6973 118.385 18.6543 118.396 18.6112Z" fill="white"/>
<path d="M119.699 18.8479H120.116V18.6436H119.699V18.4069H120.138V18.2079H119.409V19.2782H119.699V18.8479Z" fill="white"/>
<path d="M120.642 18.8479H121.064V18.6436H120.642V18.4069H121.08V18.2079H120.351V19.2782H120.642V18.8479Z" fill="white"/>
<path d="M121.611 18.2079H121.321V19.2782H121.611V18.2079Z" fill="white"/>
<path d="M122.071 19.1707C122.132 19.2138 122.197 19.246 122.274 19.2622C122.351 19.2837 122.422 19.2891 122.493 19.2891C122.564 19.2891 122.63 19.2837 122.679 19.2729C122.729 19.2622 122.772 19.2514 122.816 19.246L122.799 19.0201C122.761 19.0362 122.718 19.047 122.668 19.0578C122.619 19.0686 122.575 19.0739 122.525 19.0739C122.471 19.0739 122.422 19.0686 122.378 19.0524C122.334 19.0362 122.296 19.0148 122.263 18.9879C122.23 18.961 122.208 18.9233 122.186 18.8803C122.17 18.8372 122.159 18.7888 122.159 18.7404C122.159 18.692 122.17 18.6436 122.181 18.6005C122.197 18.5576 122.219 18.5199 122.252 18.493C122.279 18.4607 122.318 18.4392 122.362 18.4231C122.405 18.4069 122.449 18.3962 122.503 18.3962C122.553 18.3962 122.602 18.4016 122.646 18.4123C122.69 18.4231 122.74 18.4445 122.783 18.4714L122.805 18.2402C122.751 18.224 122.701 18.2133 122.646 18.2025C122.591 18.1918 122.536 18.1864 122.482 18.1864C122.395 18.1864 122.307 18.1971 122.235 18.2187C122.159 18.2402 122.093 18.2778 122.038 18.3209C121.983 18.3693 121.939 18.4231 121.907 18.493C121.874 18.5629 121.858 18.6436 121.858 18.735C121.858 18.8372 121.874 18.9233 121.912 18.9932C121.961 19.0739 122.011 19.1277 122.071 19.1707Z" fill="white"/>
<path d="M123.331 18.2079H123.041V19.2782H123.331V18.2079Z" fill="white"/>
<path d="M123.917 19.0471H124.328L124.41 19.273H124.728L124.306 18.2025H123.95L123.534 19.273H123.83L123.917 19.0471ZM124.125 18.4285L124.257 18.848H123.982L124.125 18.4285Z" fill="white"/>
<path d="M125.659 19.0631H125.21V18.2079H124.919V19.2782H125.659V19.0631Z" fill="white"/>
<path d="M118.823 20.8814H118.374V20.0208H118.084V21.0912H118.823V20.8814Z" fill="white"/>
<path d="M119.333 20.0208H119.042V21.0912H119.333V20.0208Z" fill="white"/>
<path d="M119.765 20.1445C119.71 20.1929 119.667 20.2467 119.634 20.3166C119.601 20.3865 119.585 20.4672 119.585 20.5586C119.585 20.6608 119.601 20.7469 119.64 20.8168C119.677 20.8868 119.727 20.946 119.787 20.9836C119.848 21.0266 119.914 21.0589 119.99 21.075C120.067 21.0965 120.138 21.1019 120.209 21.1019C120.28 21.1019 120.346 21.0965 120.395 21.0858C120.445 21.075 120.489 21.0643 120.532 21.0589L120.516 20.833C120.478 20.8491 120.434 20.8598 120.384 20.8706C120.335 20.8814 120.291 20.8868 120.242 20.8868C120.188 20.8868 120.138 20.8814 120.094 20.8653C120.05 20.8491 120.012 20.8276 119.979 20.8007C119.946 20.7738 119.925 20.7362 119.903 20.6931C119.886 20.6501 119.875 20.6017 119.875 20.5533C119.875 20.5048 119.881 20.4565 119.897 20.4134C119.914 20.3704 119.935 20.3327 119.968 20.3058C119.995 20.2736 120.034 20.252 120.078 20.2359C120.122 20.2198 120.166 20.209 120.22 20.209C120.269 20.209 120.318 20.2144 120.362 20.2252C120.406 20.2359 120.456 20.2574 120.5 20.2843L120.521 20.0531C120.467 20.0369 120.417 20.0262 120.362 20.0154C120.307 20.0046 120.252 19.9993 120.199 19.9993C120.111 19.9993 120.028 20.01 119.951 20.0315C119.886 20.0638 119.82 20.096 119.765 20.1445Z" fill="white"/>
<path d="M121.031 20.6501H121.48V20.4457H121.031V20.2251H121.507V20.0208H120.74V21.0912H121.524V20.8921H121.031V20.6501Z" fill="white"/>
<path d="M122.044 20.3596L122.427 21.0912H122.783V20.0208H122.52L122.525 20.7469H122.52L122.154 20.0208H121.781V21.0912H122.049L122.044 20.3596Z" fill="white"/>
<path d="M123.172 20.58C123.21 20.6016 123.249 20.6231 123.298 20.6338C123.342 20.6446 123.386 20.6607 123.424 20.6715C123.462 20.6823 123.495 20.6984 123.517 20.7145C123.545 20.7307 123.556 20.7576 123.556 20.7898C123.556 20.8114 123.55 20.8275 123.539 20.8436C123.528 20.8597 123.517 20.8705 123.501 20.8759C123.484 20.8813 123.462 20.8866 123.44 20.8921C123.418 20.8921 123.397 20.8974 123.375 20.8974C123.315 20.8974 123.26 20.8921 123.21 20.8759C123.161 20.8652 123.117 20.8436 123.079 20.8275L123.052 21.0642C123.101 21.0803 123.156 21.0911 123.21 21.0964C123.271 21.1018 123.326 21.1072 123.375 21.1072C123.435 21.1072 123.495 21.1018 123.55 21.0911C123.611 21.0803 123.66 21.0642 123.703 21.0373C123.747 21.0104 123.786 20.9727 123.813 20.9297C123.841 20.8866 123.852 20.8275 123.852 20.7576C123.852 20.693 123.841 20.6392 123.813 20.6016C123.786 20.564 123.758 20.5316 123.72 20.5102C123.682 20.4886 123.644 20.4671 123.594 20.4564C123.55 20.4456 123.506 20.4348 123.468 20.4187C123.429 20.408 123.397 20.3918 123.375 20.3811C123.348 20.3649 123.337 20.3434 123.337 20.3165C123.337 20.295 123.342 20.2735 123.359 20.2627C123.37 20.2519 123.386 20.2412 123.407 20.2304C123.429 20.225 123.446 20.2197 123.473 20.2197C123.495 20.2197 123.517 20.2197 123.534 20.2197C123.578 20.2197 123.616 20.225 123.66 20.2304C123.703 20.2358 123.742 20.2519 123.775 20.2681L123.791 20.0475C123.753 20.0368 123.714 20.0261 123.665 20.0206C123.616 20.0153 123.567 20.0099 123.512 20.0099C123.457 20.0099 123.402 20.0153 123.342 20.0261C123.287 20.0368 123.232 20.053 123.188 20.0798C123.145 20.1067 123.106 20.139 123.079 20.182C123.052 20.225 123.036 20.2788 123.036 20.3434C123.036 20.408 123.047 20.4617 123.074 20.4994C123.101 20.5263 123.134 20.5585 123.172 20.58Z" fill="white"/>
<path d="M124.864 20.2251V20.0208H124.098V21.0912H124.881V20.8921H124.388V20.6501H124.837V20.4457H124.388V20.2251H124.864Z" fill="white"/>
<path d="M125.133 20.0208V21.0912H125.527C125.621 21.0912 125.708 21.0804 125.785 21.0643C125.862 21.0428 125.933 21.0159 125.987 20.9728C126.042 20.9298 126.092 20.876 126.124 20.8061C126.157 20.7361 126.174 20.6554 126.174 20.5533C126.174 20.4511 126.157 20.365 126.124 20.2951C126.092 20.2251 126.048 20.1713 125.993 20.1337C125.939 20.0906 125.867 20.0637 125.79 20.0476C125.713 20.0315 125.626 20.0208 125.527 20.0208H125.133ZM125.785 20.3166C125.845 20.3704 125.873 20.4511 125.873 20.5587C125.873 20.6662 125.845 20.7469 125.785 20.8007C125.724 20.8545 125.643 20.8814 125.533 20.8814H125.417V20.2359H125.533C125.643 20.2359 125.73 20.2628 125.785 20.3166Z" fill="white"/>
<path d="M118.374 22.5327H118.49C118.626 22.5327 118.731 22.5004 118.807 22.4412C118.883 22.382 118.922 22.296 118.922 22.1884C118.922 22.0701 118.883 21.9786 118.802 21.9248C118.725 21.8656 118.599 21.8387 118.429 21.8387H118.084V22.9092H118.374V22.5327ZM118.374 22.0377H118.451C118.479 22.0377 118.5 22.0377 118.522 22.0432C118.544 22.0485 118.56 22.0539 118.577 22.0646C118.593 22.0754 118.604 22.0915 118.615 22.1077C118.626 22.1239 118.632 22.1508 118.632 22.1777C118.632 22.2046 118.626 22.226 118.615 22.2475C118.604 22.2691 118.593 22.2798 118.577 22.296C118.56 22.3067 118.544 22.3175 118.522 22.3229C118.5 22.3282 118.479 22.3282 118.451 22.3282H118.374V22.0377Z" fill="white"/>
<path d="M119.903 22.5273C119.892 22.5004 119.886 22.4789 119.875 22.4573C119.864 22.4358 119.853 22.4197 119.837 22.4089C119.82 22.3982 119.804 22.3874 119.782 22.382V22.3766C119.853 22.3605 119.908 22.3282 119.941 22.2852C119.974 22.2368 119.99 22.183 119.99 22.1077C119.99 22.0593 119.979 22.0216 119.963 21.9894C119.947 21.957 119.919 21.9302 119.886 21.9033C119.853 21.8818 119.815 21.8656 119.771 21.8549C119.727 21.8441 119.683 21.8387 119.634 21.8387H119.114V22.9092H119.404V22.4842H119.464C119.492 22.4842 119.513 22.4896 119.535 22.495C119.552 22.5004 119.574 22.5111 119.585 22.5327C119.601 22.5487 119.612 22.5756 119.629 22.6025C119.64 22.6294 119.656 22.6725 119.673 22.7155L119.732 22.9092H120.034L119.93 22.6187C119.925 22.581 119.914 22.5542 119.903 22.5273ZM119.683 22.226C119.673 22.2422 119.651 22.2529 119.634 22.2637C119.612 22.2744 119.59 22.2744 119.563 22.2798C119.535 22.2798 119.513 22.2798 119.492 22.2798H119.415V22.0377H119.492C119.519 22.0377 119.546 22.0377 119.574 22.0432C119.601 22.0485 119.623 22.0539 119.64 22.0593C119.662 22.0701 119.673 22.0808 119.689 22.097C119.699 22.1131 119.705 22.1346 119.705 22.1561C119.7 22.1884 119.694 22.2099 119.683 22.226Z" fill="white"/>
<path d="M121.162 21.9678C121.118 21.9194 121.057 21.8818 120.992 21.8603C120.927 21.8334 120.844 21.8226 120.756 21.8226C120.669 21.8226 120.587 21.8334 120.521 21.8603C120.455 21.8871 120.395 21.9248 120.351 21.9678C120.307 22.0163 120.269 22.0754 120.247 22.1399C120.225 22.2099 120.214 22.2852 120.214 22.3713C120.214 22.4573 120.225 22.5326 120.247 22.6026C120.269 22.6725 120.307 22.7316 120.351 22.7747C120.395 22.8231 120.455 22.8607 120.521 22.8876C120.587 22.9145 120.669 22.9253 120.756 22.9253C120.844 22.9253 120.921 22.9145 120.992 22.8876C121.057 22.8607 121.118 22.8231 121.162 22.7747C121.206 22.7263 121.244 22.6671 121.266 22.6026C121.288 22.5326 121.299 22.4573 121.299 22.3713C121.299 22.2852 121.288 22.2099 121.266 22.1399C121.244 22.07 121.206 22.0163 121.162 21.9678ZM120.987 22.5004C120.976 22.5434 120.965 22.5757 120.943 22.608C120.921 22.6402 120.899 22.6671 120.866 22.6833C120.833 22.7047 120.795 22.7102 120.751 22.7102C120.708 22.7102 120.669 22.6994 120.636 22.6833C120.603 22.6671 120.581 22.6402 120.559 22.608C120.537 22.5757 120.526 22.538 120.515 22.5004C120.504 22.4573 120.499 22.4143 120.499 22.3713C120.499 22.3228 120.504 22.2798 120.515 22.2421C120.526 22.1992 120.537 22.1668 120.559 22.1346C120.581 22.1023 120.603 22.0808 120.636 22.0592C120.669 22.0432 120.708 22.0323 120.751 22.0323C120.795 22.0323 120.833 22.0432 120.866 22.0592C120.899 22.0754 120.921 22.1023 120.943 22.1346C120.965 22.1668 120.976 22.2045 120.987 22.2421C120.998 22.2852 121.003 22.3282 121.003 22.3713C121.003 22.4143 120.998 22.4573 120.987 22.5004Z" fill="white"/>
<path d="M122.4 21.9462C122.345 21.9032 122.274 21.8763 122.197 21.8601C122.121 21.844 122.033 21.8333 121.934 21.8333H121.54V22.9037H121.934C122.027 22.9037 122.115 22.8929 122.192 22.8768C122.268 22.8553 122.34 22.8284 122.395 22.7853C122.449 22.7423 122.498 22.6885 122.531 22.6186C122.564 22.5487 122.58 22.468 122.58 22.3658C122.58 22.2636 122.564 22.1775 122.531 22.1076C122.504 22.043 122.46 21.9893 122.4 21.9462ZM122.197 22.6132C122.137 22.667 122.055 22.6939 121.945 22.6939H121.83V22.0484H121.945C122.055 22.0484 122.137 22.0753 122.197 22.1291C122.257 22.1829 122.285 22.2636 122.285 22.3712C122.285 22.4787 122.252 22.5594 122.197 22.6132Z" fill="white"/>
<path d="M122.948 22.8231C122.992 22.8554 123.041 22.8823 123.101 22.8984C123.161 22.9145 123.227 22.9253 123.293 22.9253C123.364 22.9253 123.429 22.9145 123.484 22.8984C123.545 22.8823 123.594 22.8554 123.638 22.8231C123.681 22.7908 123.714 22.7424 123.736 22.694C123.758 22.6402 123.769 22.5756 123.769 22.5058V21.8387H123.479V22.4573C123.479 22.495 123.473 22.5272 123.468 22.5595C123.462 22.5918 123.451 22.6187 123.44 22.6402C123.424 22.6617 123.407 22.6832 123.386 22.6994C123.364 22.7155 123.331 22.7209 123.293 22.7209C123.254 22.7209 123.227 22.7155 123.199 22.6994C123.177 22.6832 123.155 22.6671 123.144 22.6402C123.128 22.6187 123.122 22.5864 123.117 22.5595C123.112 22.5272 123.106 22.495 123.106 22.4573V21.8387H122.816V22.5003C122.816 22.5756 122.827 22.6348 122.849 22.6886C122.876 22.7424 122.909 22.7908 122.948 22.8231Z" fill="white"/>
<path d="M124.805 22.6995C124.755 22.7102 124.711 22.7156 124.662 22.7156C124.607 22.7156 124.558 22.7102 124.514 22.6941C124.471 22.678 124.432 22.6564 124.399 22.6295C124.366 22.6026 124.344 22.565 124.322 22.5219C124.306 22.479 124.295 22.4305 124.295 22.3821C124.295 22.3337 124.306 22.2853 124.317 22.2423C124.333 22.1992 124.355 22.1616 124.388 22.1347C124.416 22.1024 124.454 22.0809 124.498 22.0647C124.541 22.0486 124.585 22.0378 124.64 22.0378C124.689 22.0378 124.739 22.0432 124.783 22.054C124.826 22.0647 124.875 22.0863 124.919 22.1132L124.941 21.8819C124.886 21.8657 124.837 21.855 124.783 21.8442C124.728 21.8335 124.673 21.8281 124.618 21.8281C124.53 21.8281 124.449 21.8389 124.372 21.8604C124.295 21.8818 124.229 21.9195 124.175 21.9626C124.12 22.0109 124.076 22.0647 124.043 22.1347C124.01 22.2046 123.993 22.2853 123.993 22.3767C123.993 22.479 124.01 22.565 124.048 22.6349C124.087 22.7049 124.136 22.764 124.197 22.8017C124.256 22.8447 124.322 22.8769 124.399 22.8931C124.476 22.9146 124.547 22.92 124.618 22.92C124.689 22.92 124.755 22.9146 124.805 22.9038C124.853 22.8931 124.897 22.8824 124.941 22.8769L124.925 22.6511C124.892 22.6726 124.848 22.6887 124.805 22.6995Z" fill="white"/>
<path d="M125.079 22.0485H125.347V22.9092H125.637V22.0485H125.906V21.8387H125.079V22.0485Z" fill="white"/>
<path d="M115.175 8.09009V25.0607H129V8.09009H115.175ZM128.852 24.9101H115.329V16.648H128.852V24.9101ZM128.852 16.4975H115.329V8.23532H128.852V16.4975Z" fill="white"/>
<path d="M39.1569 8.09009H52.0503L51.3986 11.8016H43.2758L42.7171 14.9214H49.2624L48.6106 18.6329H42.0379L40.8986 25.0607H36.1006L39.1569 8.09009Z" fill="white"/>
<path d="M53.7265 8.09009H58.5026L55.4463 25.0607H50.6702L53.7265 8.09009Z" fill="white"/>
<path d="M60.1784 8.09009H73.0718L72.4201 11.8016H64.3028L63.7441 14.9214H70.2894L69.6376 18.6329H63.0704L61.9311 25.0607H57.1331L60.1784 8.09009Z" fill="white"/>
<path d="M77.0702 8.06311H82.427L85.215 25.0553H80.4662L80.0773 22.0807H74.0907L72.6337 25.0553H68.0273L77.0702 8.06311ZM79.6172 18.536L78.8175 12.4201H78.7189L75.8105 18.536H79.6172Z" fill="white"/>
<path d="M109.54 8.09009L103.98 9.10133L103.454 12.1834L106.499 12.0436L104.149 25.0553H108.564L111.604 8.09009H109.54Z" fill="white"/>
<path d="M88.649 22.4895L94.3672 17.1322C95.6268 15.9433 97.6369 14.136 97.6369 12.56C97.6369 11.6778 96.9582 11.2529 96.1361 11.2529C94.6083 11.2529 94.2466 12.5169 94.0493 13.7057H89.7611C89.7831 13.6358 89.9087 12.8505 89.9306 12.7752C90.5823 9.34878 93.5679 7.84802 97.0071 7.84802C99.7236 7.84802 102.216 8.91846 102.216 11.9199C102.216 15.2549 98.749 17.8206 96.4489 19.8485L94.8275 21.2793L94.8056 21.3977H100.792L100.14 25.0607H88.1946L88.649 22.4895Z" fill="white"/>
</svg>
