<svg width="216" height="47" viewBox="0 0 216 47" fill="none" xmlns="http://www.w3.org/2000/svg">
<path d="M5.472 9.132H0V0.732H5.472V1.668H1.056V4.38H4.44V5.316H1.056V8.196H5.472V9.132Z" fill="#D7D7D7"/>
<path d="M12.9361 9.132L12.0481 7.104H8.13609L7.24809 9.132H6.15609L10.0081 0.612H10.2601L14.1121 9.132H12.9361ZM8.53209 6.192H11.6521L10.0921 2.628L8.53209 6.192Z" fill="#D7D7D7"/>
<path d="M20.551 9.132H17.707V0.732H20.551C21.143 0.732 21.691 0.836 22.195 1.044C22.699 1.244 23.135 1.528 23.503 1.896C23.871 2.264 24.159 2.708 24.367 3.228C24.583 3.748 24.691 4.316 24.691 4.932C24.691 5.548 24.583 6.116 24.367 6.636C24.159 7.156 23.871 7.6 23.503 7.968C23.135 8.336 22.699 8.624 22.195 8.832C21.691 9.032 21.143 9.132 20.551 9.132ZM20.551 1.668H18.763V8.196H20.551C20.967 8.196 21.363 8.116 21.739 7.956C22.115 7.796 22.443 7.576 22.723 7.296C23.003 7.008 23.223 6.664 23.383 6.264C23.551 5.856 23.635 5.412 23.635 4.932C23.635 4.452 23.551 4.012 23.383 3.612C23.223 3.204 23.003 2.86 22.723 2.58C22.443 2.292 22.115 2.068 21.739 1.908C21.363 1.748 20.967 1.668 20.551 1.668Z" fill="#D7D7D7"/>
<path d="M28.8434 9.24C28.4354 9.24 28.0514 9.16 27.6914 9C27.3314 8.84 27.0194 8.624 26.7554 8.352C26.4914 8.072 26.2834 7.74 26.1314 7.356C25.9794 6.964 25.9034 6.54 25.9034 6.084C25.9034 5.636 25.9754 5.22 26.1194 4.836C26.2714 4.452 26.4754 4.124 26.7314 3.852C26.9954 3.572 27.3034 3.352 27.6554 3.192C28.0074 3.032 28.3834 2.952 28.7834 2.952C29.1674 2.952 29.5314 3.032 29.8754 3.192C30.2194 3.344 30.5194 3.564 30.7754 3.852C31.0314 4.14 31.2354 4.5 31.3874 4.932C31.5394 5.356 31.6154 5.836 31.6154 6.372V6.444H26.9354C27.0074 7.004 27.2234 7.46 27.5834 7.812C27.9434 8.164 28.3634 8.34 28.8434 8.34C29.1474 8.34 29.4274 8.268 29.6834 8.124C29.9474 7.972 30.1594 7.772 30.3194 7.524H31.4474C31.2314 8.044 30.8874 8.46 30.4154 8.772C29.9514 9.084 29.4274 9.24 28.8434 9.24ZM28.7714 3.864C28.3234 3.864 27.9274 4.028 27.5834 4.356C27.2474 4.684 27.0354 5.104 26.9474 5.616H30.5594C30.4794 5.104 30.2714 4.684 29.9354 4.356C29.5994 4.028 29.2114 3.864 28.7714 3.864Z" fill="#D7D7D7"/>
<path d="M32.7826 4.752C32.7906 4.216 32.9946 3.784 33.3946 3.456C33.8026 3.128 34.3066 2.964 34.9066 2.964C35.6026 2.964 36.1866 3.164 36.6586 3.564C37.1306 3.956 37.3826 4.46 37.4146 5.076H36.4306C36.3986 4.7 36.2426 4.4 35.9626 4.176C35.6906 3.944 35.3426 3.828 34.9186 3.828C34.5666 3.828 34.2866 3.908 34.0786 4.068C33.8786 4.228 33.7786 4.432 33.7786 4.68C33.7786 4.968 33.9186 5.176 34.1986 5.304C34.4786 5.432 34.8026 5.544 35.1706 5.64C35.4346 5.704 35.7026 5.776 35.9746 5.856C36.2546 5.928 36.5026 6.028 36.7186 6.156C36.9426 6.276 37.1266 6.44 37.2706 6.648C37.4146 6.848 37.4866 7.108 37.4866 7.428C37.4866 7.988 37.2706 8.432 36.8386 8.76C36.4066 9.08 35.8786 9.24 35.2546 9.24C34.5346 9.24 33.9386 9.036 33.4666 8.628C32.9946 8.22 32.7426 7.696 32.7106 7.056H33.6946C33.7186 7.448 33.8786 7.768 34.1746 8.016C34.4786 8.264 34.8426 8.388 35.2666 8.388C35.6106 8.388 35.8986 8.312 36.1306 8.16C36.3706 8.008 36.4906 7.796 36.4906 7.524C36.4906 7.212 36.3266 6.996 35.9986 6.876C35.6786 6.748 35.3146 6.632 34.9066 6.528C34.6586 6.472 34.4066 6.404 34.1506 6.324C33.8946 6.244 33.6666 6.14 33.4666 6.012C33.2666 5.884 33.1026 5.72 32.9746 5.52C32.8466 5.312 32.7826 5.056 32.7826 4.752Z" fill="#D7D7D7"/>
<path d="M39.7957 0V9.132H38.7877V0.396L39.7957 0ZM39.9277 6.132L42.5917 3.072H43.7317L41.1277 6.06L43.7797 9.132H42.4837L39.9277 6.132Z" fill="#D7D7D7"/>
<path d="M45.7013 7.656V3.936H44.1653V3.072H45.7013V1.644L46.6973 1.284V3.072H48.4853V3.936H46.6973V7.608C46.6973 7.816 46.7533 7.976 46.8653 8.088C46.9773 8.192 47.1453 8.244 47.3693 8.244H48.4853V9.132H47.1173C46.6613 9.132 46.3093 9.008 46.0613 8.76C45.8213 8.504 45.7013 8.136 45.7013 7.656Z" fill="#D7D7D7"/>
<path d="M52.2575 9.24C51.8495 9.24 51.4655 9.16 51.1055 9C50.7455 8.84 50.4335 8.624 50.1695 8.352C49.9055 8.072 49.6975 7.74 49.5455 7.356C49.3935 6.964 49.3175 6.54 49.3175 6.084C49.3175 5.636 49.3935 5.22 49.5455 4.836C49.6975 4.452 49.9055 4.124 50.1695 3.852C50.4335 3.572 50.7455 3.352 51.1055 3.192C51.4655 3.032 51.8495 2.952 52.2575 2.952C52.6655 2.952 53.0495 3.032 53.4095 3.192C53.7695 3.352 54.0775 3.572 54.3335 3.852C54.5975 4.124 54.8055 4.452 54.9575 4.836C55.1095 5.22 55.1855 5.636 55.1855 6.084C55.1855 6.54 55.1095 6.964 54.9575 7.356C54.8055 7.74 54.5975 8.072 54.3335 8.352C54.0775 8.624 53.7695 8.84 53.4095 9C53.0495 9.16 52.6655 9.24 52.2575 9.24ZM52.2575 8.34C52.7855 8.34 53.2375 8.128 53.6135 7.704C53.9895 7.28 54.1775 6.744 54.1775 6.096C54.1775 5.456 53.9895 4.924 53.6135 4.5C53.2375 4.068 52.7855 3.852 52.2575 3.852C51.7215 3.852 51.2655 4.068 50.8895 4.5C50.5135 4.924 50.3255 5.456 50.3255 6.096C50.3255 6.744 50.5135 7.28 50.8895 7.704C51.2655 8.128 51.7215 8.34 52.2575 8.34Z" fill="#D7D7D7"/>
<path d="M57.573 11.844H56.565V3.072H57.573V4.104C57.813 3.752 58.113 3.476 58.473 3.276C58.841 3.068 59.233 2.964 59.649 2.964C60.033 2.964 60.393 3.044 60.729 3.204C61.065 3.364 61.357 3.584 61.605 3.864C61.853 4.136 62.049 4.464 62.193 4.848C62.337 5.224 62.409 5.636 62.409 6.084C62.409 6.532 62.337 6.952 62.193 7.344C62.049 7.728 61.853 8.06 61.605 8.34C61.357 8.612 61.061 8.828 60.717 8.988C60.381 9.148 60.021 9.228 59.637 9.228C59.221 9.228 58.833 9.128 58.473 8.928C58.113 8.72 57.813 8.44 57.573 8.088V11.844ZM59.469 3.876C58.941 3.876 58.489 4.084 58.113 4.5C57.737 4.916 57.549 5.444 57.549 6.084C57.549 6.732 57.737 7.268 58.113 7.692C58.489 8.108 58.941 8.316 59.469 8.316C60.005 8.316 60.461 8.108 60.837 7.692C61.213 7.268 61.401 6.732 61.401 6.084C61.401 5.444 61.213 4.916 60.837 4.5C60.461 4.084 60.005 3.876 59.469 3.876Z" fill="#D7D7D7"/>
<path d="M72.4908 9.132L71.6028 7.104H67.6908L66.8028 9.132H65.7108L69.5628 0.612H69.8148L73.6668 9.132H72.4908ZM68.0868 6.192H71.2068L69.6468 2.628L68.0868 6.192Z" fill="#D7D7D7"/>
<path d="M75.5027 11.844H74.4947V3.072H75.5027V4.104C75.7427 3.752 76.0427 3.476 76.4027 3.276C76.7707 3.068 77.1627 2.964 77.5787 2.964C77.9627 2.964 78.3227 3.044 78.6587 3.204C78.9947 3.364 79.2867 3.584 79.5347 3.864C79.7827 4.136 79.9787 4.464 80.1227 4.848C80.2667 5.224 80.3387 5.636 80.3387 6.084C80.3387 6.532 80.2667 6.952 80.1227 7.344C79.9787 7.728 79.7827 8.06 79.5347 8.34C79.2867 8.612 78.9907 8.828 78.6467 8.988C78.3107 9.148 77.9507 9.228 77.5667 9.228C77.1507 9.228 76.7627 9.128 76.4027 8.928C76.0427 8.72 75.7427 8.44 75.5027 8.088V11.844ZM77.3987 3.876C76.8707 3.876 76.4187 4.084 76.0427 4.5C75.6667 4.916 75.4787 5.444 75.4787 6.084C75.4787 6.732 75.6667 7.268 76.0427 7.692C76.4187 8.108 76.8707 8.316 77.3987 8.316C77.9347 8.316 78.3907 8.108 78.7667 7.692C79.1427 7.268 79.3307 6.732 79.3307 6.084C79.3307 5.444 79.1427 4.916 78.7667 4.5C78.3907 4.084 77.9347 3.876 77.3987 3.876Z" fill="#D7D7D7"/>
<path d="M82.7214 11.844H81.7134V3.072H82.7214V4.104C82.9614 3.752 83.2614 3.476 83.6214 3.276C83.9894 3.068 84.3814 2.964 84.7974 2.964C85.1814 2.964 85.5414 3.044 85.8774 3.204C86.2134 3.364 86.5054 3.584 86.7534 3.864C87.0014 4.136 87.1974 4.464 87.3414 4.848C87.4854 5.224 87.5574 5.636 87.5574 6.084C87.5574 6.532 87.4854 6.952 87.3414 7.344C87.1974 7.728 87.0014 8.06 86.7534 8.34C86.5054 8.612 86.2094 8.828 85.8654 8.988C85.5294 9.148 85.1694 9.228 84.7854 9.228C84.3694 9.228 83.9814 9.128 83.6214 8.928C83.2614 8.72 82.9614 8.44 82.7214 8.088V11.844ZM84.6174 3.876C84.0894 3.876 83.6374 4.084 83.2614 4.5C82.8854 4.916 82.6974 5.444 82.6974 6.084C82.6974 6.732 82.8854 7.268 83.2614 7.692C83.6374 8.108 84.0894 8.316 84.6174 8.316C85.1534 8.316 85.6094 8.108 85.9854 7.692C86.3614 7.268 86.5494 6.732 86.5494 6.084C86.5494 5.444 86.3614 4.916 85.9854 4.5C85.6094 4.084 85.1534 3.876 84.6174 3.876Z" fill="#D7D7D7"/>
<path d="M71.0478 30.882H68.0816L64.9152 37.3996L61.6825 30.882H58.5162L63.2882 40.5478L60.0994 46.8441H63.1769L71.0478 30.882ZM51.9371 39.5718C50.2202 39.5718 48.8371 38.2638 48.8371 36.4013C48.8371 34.5388 50.2202 33.2308 51.9371 33.2308C53.6766 33.2308 55.0372 34.5388 55.0372 36.4013C55.0372 38.2638 53.6766 39.5718 51.9371 39.5718ZM51.4469 42.0995C52.83 42.0995 54.0781 41.5897 55.0147 40.7244V41.9441H57.846V30.882H55.0147V32.1006C54.1231 31.214 52.8963 30.7043 51.5582 30.7043C48.6595 30.7043 46.0283 33.0989 46.0283 36.4025C46.0283 39.7048 48.6157 42.0995 51.4469 42.0995ZM44.5565 25.5382L41.7252 26.4247V41.9441H44.5565V25.5382ZM34.7235 33.6746H31.1557V29.1526H34.7235C36.1953 29.1526 37.2208 30.0838 37.2208 31.4142C37.2208 32.7445 36.1953 33.6746 34.7235 33.6746ZM28.0781 26.4247V41.9441H31.1557V36.2906H34.9461C38.0011 36.2906 40.2747 34.1844 40.2747 31.3247C40.2747 28.4862 38.0899 26.4247 35.0574 26.4247H28.0781Z" fill="#FF4747"/>
<g clip-path="url(#clip0)">
<path d="M10.4049 23.844C4.65837 23.844 0 28.4767 0 34.189C0 39.9037 4.65837 44.5341 10.4049 44.5341C16.1515 44.5341 20.8099 39.9037 20.8099 34.189C20.8099 28.4767 16.1515 23.844 10.4049 23.844ZM6.25931 30.1191H12.2403L11.3321 31.5648H5.35108L6.25931 30.1191ZM16.2522 37.3442L15.3428 35.9009H12.6879L13.5985 34.4551H14.4369L13.4233 32.8457L10.5956 37.3431H3.05269L4.86914 34.4539H3.53581L4.44285 33.0082H10.2747L9.36646 34.4563H6.58494L5.67553 35.902H9.7892L13.4233 30.1191L17.9656 37.3454H16.2522V37.3442Z" fill="#FF4747"/>
</g>
<path d="M87.6959 44L86.9639 42.368H83.5919L82.8839 44H81.0479L85.1279 35.432H85.4879L89.5679 44H87.6959ZM84.1919 41.012H86.3519L85.2599 38.552L84.1919 41.012Z" fill="white"/>
<path d="M91.9554 40.328V44H90.3234V37.856H91.9554V38.792C92.0994 38.48 92.3314 38.228 92.6514 38.036C92.9714 37.836 93.3354 37.736 93.7434 37.736C94.4234 37.736 94.9514 37.968 95.3274 38.432C95.7034 38.896 95.8914 39.484 95.8914 40.196V44H94.2594V40.4C94.2594 40.008 94.1514 39.696 93.9354 39.464C93.7194 39.224 93.4394 39.104 93.0954 39.104C92.7434 39.104 92.4634 39.224 92.2554 39.464C92.0554 39.696 91.9554 39.984 91.9554 40.328Z" fill="white"/>
<path d="M99.0335 40.328V44H97.4015V37.856H99.0335V38.792C99.1775 38.48 99.4095 38.228 99.7295 38.036C100.05 37.836 100.414 37.736 100.822 37.736C101.502 37.736 102.03 37.968 102.406 38.432C102.782 38.896 102.97 39.484 102.97 40.196V44H101.338V40.4C101.338 40.008 101.23 39.696 101.014 39.464C100.798 39.224 100.518 39.104 100.174 39.104C99.8215 39.104 99.5415 39.224 99.3335 39.464C99.1335 39.696 99.0335 39.984 99.0335 40.328Z" fill="white"/>
<path d="M108.416 44V43.064C108.272 43.376 108.04 43.632 107.72 43.832C107.4 44.024 107.036 44.12 106.628 44.12C105.948 44.12 105.42 43.888 105.044 43.424C104.668 42.96 104.48 42.372 104.48 41.66V37.856H106.112V41.456C106.112 41.848 106.216 42.164 106.424 42.404C106.64 42.644 106.92 42.764 107.264 42.764C107.624 42.764 107.904 42.644 108.104 42.404C108.312 42.164 108.416 41.872 108.416 41.528V37.856H110.048V44H108.416Z" fill="white"/>
<path d="M115.134 44V43.1C114.934 43.412 114.67 43.656 114.342 43.832C114.014 44.008 113.638 44.096 113.214 44.096C112.662 44.096 112.19 43.94 111.798 43.628C111.414 43.308 111.222 42.888 111.222 42.368C111.222 41.824 111.41 41.408 111.786 41.12C112.17 40.832 112.658 40.66 113.25 40.604L115.134 40.436V40.244C115.134 39.852 115.03 39.564 114.822 39.38C114.622 39.196 114.37 39.104 114.066 39.104C113.762 39.104 113.514 39.176 113.322 39.32C113.138 39.456 112.994 39.652 112.89 39.908H111.306C111.45 39.26 111.774 38.74 112.278 38.348C112.79 37.948 113.402 37.748 114.114 37.748C114.49 37.748 114.842 37.8 115.17 37.904C115.498 38.008 115.778 38.164 116.01 38.372C116.25 38.572 116.438 38.828 116.574 39.14C116.71 39.444 116.778 39.796 116.778 40.196V44H115.134ZM112.83 42.308C112.83 42.492 112.914 42.644 113.082 42.764C113.25 42.884 113.47 42.944 113.742 42.944C113.91 42.944 114.074 42.916 114.234 42.86C114.402 42.796 114.55 42.712 114.678 42.608C114.814 42.504 114.922 42.384 115.002 42.248C115.09 42.104 115.134 41.956 115.134 41.804V41.492L113.55 41.66C113.302 41.684 113.118 41.756 112.998 41.876C112.886 41.988 112.83 42.132 112.83 42.308Z" fill="white"/>
<path d="M119.905 34.76V44H118.273V35.252L119.905 34.76Z" fill="white"/>
<path d="M131.174 41.564C131.174 41.916 131.102 42.244 130.958 42.548C130.822 42.844 130.63 43.1 130.382 43.316C130.142 43.532 129.854 43.7 129.518 43.82C129.182 43.94 128.818 44 128.426 44H124.334V35.6H128.498C128.834 35.6 129.146 35.656 129.434 35.768C129.73 35.88 129.982 36.036 130.19 36.236C130.398 36.428 130.562 36.664 130.682 36.944C130.81 37.216 130.874 37.516 130.874 37.844C130.874 38.22 130.782 38.564 130.598 38.876C130.414 39.18 130.166 39.428 129.854 39.62C130.286 39.796 130.614 40.056 130.838 40.4C131.062 40.744 131.174 41.132 131.174 41.564ZM128.186 37.124H126.098V38.996H128.186C128.45 38.996 128.67 38.912 128.846 38.744C129.022 38.576 129.11 38.36 129.11 38.096C129.11 37.808 129.022 37.576 128.846 37.4C128.67 37.216 128.45 37.124 128.186 37.124ZM126.098 42.512H128.282C128.61 42.512 128.878 42.412 129.086 42.212C129.294 42.004 129.398 41.74 129.398 41.42C129.398 41.132 129.294 40.896 129.086 40.712C128.878 40.52 128.61 40.424 128.282 40.424H126.098V42.512Z" fill="white"/>
<path d="M133.327 36.98C133.039 36.98 132.795 36.88 132.595 36.68C132.395 36.48 132.295 36.236 132.295 35.948C132.295 35.66 132.395 35.416 132.595 35.216C132.795 35.008 133.039 34.904 133.327 34.904C133.615 34.904 133.859 35.008 134.059 35.216C134.259 35.416 134.359 35.66 134.359 35.948C134.359 36.236 134.259 36.48 134.059 36.68C133.859 36.88 133.615 36.98 133.327 36.98ZM132.511 44V37.856H134.143V44H132.511Z" fill="white"/>
<path d="M137.284 34.76V44H135.652V35.252L137.284 34.76Z" fill="white"/>
<path d="M140.436 34.76V44H138.804V35.252L140.436 34.76Z" fill="white"/>
<path d="M142.772 36.98C142.484 36.98 142.24 36.88 142.04 36.68C141.84 36.48 141.74 36.236 141.74 35.948C141.74 35.66 141.84 35.416 142.04 35.216C142.24 35.008 142.484 34.904 142.772 34.904C143.06 34.904 143.304 35.008 143.504 35.216C143.704 35.416 143.804 35.66 143.804 35.948C143.804 36.236 143.704 36.48 143.504 36.68C143.304 36.88 143.06 36.98 142.772 36.98ZM141.956 44V37.856H143.588V44H141.956Z" fill="white"/>
<path d="M146.729 40.328V44H145.097V37.856H146.729V38.792C146.873 38.48 147.105 38.228 147.425 38.036C147.745 37.836 148.109 37.736 148.517 37.736C149.197 37.736 149.725 37.968 150.101 38.432C150.477 38.896 150.665 39.484 150.665 40.196V44H149.033V40.4C149.033 40.008 148.925 39.696 148.709 39.464C148.493 39.224 148.213 39.104 147.869 39.104C147.517 39.104 147.237 39.224 147.029 39.464C146.829 39.696 146.729 39.984 146.729 40.328Z" fill="white"/>
<path d="M154.683 44.024C154.307 44.024 153.951 43.948 153.615 43.796C153.279 43.636 152.983 43.42 152.727 43.148C152.479 42.868 152.279 42.536 152.127 42.152C151.975 41.76 151.899 41.34 151.899 40.892C151.899 40.436 151.975 40.016 152.127 39.632C152.279 39.248 152.483 38.92 152.739 38.648C153.003 38.376 153.307 38.164 153.651 38.012C154.003 37.852 154.375 37.772 154.767 37.772C155.103 37.772 155.423 37.844 155.727 37.988C156.031 38.132 156.295 38.336 156.519 38.6V37.856H158.163V44.024C158.163 44.432 158.087 44.808 157.935 45.152C157.791 45.504 157.587 45.804 157.323 46.052C157.067 46.3 156.755 46.492 156.387 46.628C156.019 46.772 155.619 46.844 155.187 46.844C154.811 46.844 154.447 46.792 154.095 46.688C153.751 46.584 153.439 46.436 153.159 46.244C152.887 46.052 152.655 45.82 152.463 45.548C152.279 45.284 152.159 44.992 152.103 44.672H153.819C153.923 44.936 154.091 45.14 154.323 45.284C154.555 45.428 154.843 45.5 155.187 45.5C155.579 45.5 155.899 45.364 156.147 45.092C156.395 44.828 156.519 44.512 156.519 44.144V43.22C156.287 43.468 156.011 43.664 155.691 43.808C155.379 43.952 155.043 44.024 154.683 44.024ZM155.043 42.608C155.467 42.608 155.823 42.448 156.111 42.128C156.399 41.808 156.543 41.396 156.543 40.892C156.543 40.388 156.399 39.976 156.111 39.656C155.823 39.328 155.467 39.164 155.043 39.164C154.619 39.164 154.259 39.328 153.963 39.656C153.675 39.976 153.531 40.388 153.531 40.892C153.531 41.396 153.675 41.808 153.963 42.128C154.259 42.448 154.619 42.608 155.043 42.608Z" fill="white"/>
<defs>
<clipPath id="clip0">
<rect width="20.8407" height="20.7207" fill="white" transform="translate(0 23.844)"/>
</clipPath>
</defs>
</svg>
