<svg width="33" height="32" viewBox="0 0 33 32" fill="none" xmlns="http://www.w3.org/2000/svg">
<path d="M23.9673 28.7999C25.1455 28.7999 26.1006 27.8447 26.1006 26.6665C26.1006 25.4883 25.1455 24.5332 23.9673 24.5332C22.7891 24.5332 21.834 25.4883 21.834 26.6665C21.834 27.8447 22.7891 28.7999 23.9673 28.7999Z" fill="white"/>
<path d="M13.2993 28.7999C14.4776 28.7999 15.4327 27.8447 15.4327 26.6665C15.4327 25.4883 14.4776 24.5332 13.2993 24.5332C12.1211 24.5332 11.166 25.4883 11.166 26.6665C11.166 27.8447 12.1211 28.7999 13.2993 28.7999Z" fill="white"/>
<path d="M2.63281 3.2002H4.63601C5.34535 3.2002 5.97041 3.6674 6.17095 4.349L10.716 19.8029C10.9827 20.7095 11.8157 21.3335 12.7619 21.3335H24.4696C25.4317 21.3335 26.2744 20.6893 26.5283 19.7613L29.2995 9.60019H23.9661" stroke="white" stroke-width="2" stroke-miterlimit="10" stroke-linecap="round" stroke-linejoin="round"/>
<path d="M19.7001 9.6001V15.5585L22.146 13.1126C22.5631 12.6956 23.2372 12.6956 23.6543 13.1126C24.0713 13.5297 24.0713 14.2038 23.6543 14.6209L19.3876 18.8876C19.1796 19.0956 18.9065 19.2001 18.6335 19.2001C18.3604 19.2001 18.0873 19.0956 17.8793 18.8876L13.6127 14.6209C13.1956 14.2038 13.1956 13.5297 13.6127 13.1126C14.0297 12.6956 14.7039 12.6956 15.1209 13.1126L17.5668 15.5585V9.6001H7.9668L11.7001 21.3334H26.1001L29.3001 9.6001H19.7001Z" fill="white"/>
<path d="M19.6997 3.19997C19.6997 2.61117 19.2219 2.1333 18.6331 2.1333C18.0443 2.1333 17.5664 2.61117 17.5664 3.19997V8.5333H19.6997V3.19997Z" fill="white"/>
<path d="M19.6992 9.6001H25.0326" stroke="white" stroke-width="2" stroke-miterlimit="10" stroke-linejoin="round"/>
<path d="M7.9668 9.6001H17.5668" stroke="white" stroke-width="2" stroke-miterlimit="10" stroke-linejoin="round"/>
</svg>
