<svg width="96" height="46" viewBox="0 0 96 46" fill="none" xmlns="http://www.w3.org/2000/svg">
<path d="M34.6696 10.094C34.6696 12.628 36.4196 14.154 38.5896 14.154C40.7596 14.154 42.5096 12.74 42.5096 10.374V4.2H40.5776V10.108C40.5776 11.634 39.7096 12.376 38.5896 12.376C37.4836 12.376 36.6016 11.62 36.6016 10.094H34.6696ZM47.0629 6.874C45.0189 6.874 43.3669 8.4 43.3669 10.514C43.3669 12.614 45.0189 14.14 47.0629 14.14C49.1069 14.14 50.7589 12.614 50.7589 10.514C50.7589 8.4 49.1069 6.874 47.0629 6.874ZM47.0629 12.53C45.9849 12.53 45.1309 11.704 45.1309 10.528C45.1309 9.324 45.9849 8.512 47.0629 8.512C48.1409 8.512 48.9949 9.324 48.9949 10.528C48.9949 11.704 48.1409 12.53 47.0629 12.53ZM52.566 6.146C53.196 6.146 53.714 5.628 53.714 4.998C53.714 4.368 53.196 3.85 52.566 3.85C51.95 3.85 51.432 4.368 51.432 4.998C51.432 5.628 51.95 6.146 52.566 6.146ZM53.462 7.014H51.684V14H53.462V7.014ZM56.3605 7.014H54.5825V14H56.3605V9.772C56.3605 8.96 56.9905 8.316 57.8165 8.316C58.6705 8.316 59.2725 8.932 59.2725 9.842V14H61.0505V9.702C61.0505 8.064 60.1125 6.86 58.4465 6.86C57.5505 6.86 56.7805 7.252 56.3605 7.882V7.014Z" fill="white"/>
<g clip-path="url(#clip0)">
<path d="M72.4631 28.2458C75.0263 28.2458 76.8769 29.9422 76.8769 32.2165C76.8769 34.5103 75.0263 36.2261 72.4631 36.2261H69.1856V41.7389H67.4893V28.2458H72.4631ZM75.2015 32.2165C75.2015 30.7702 74.122 29.7685 72.4646 29.7685H69.1871V34.7423H72.4646C74.0831 34.7423 75.2015 33.6823 75.2015 32.2165Z" fill="#FF4747"/>
<path d="M64.5067 32.1193H61.9419L59.205 37.7863L56.4097 32.1193H53.6727L57.7976 40.5247L55.0412 46.0001H57.7018L64.5067 32.1193ZM47.9848 39.6773C46.501 39.6773 45.3047 38.5394 45.3047 36.9209C45.3047 35.3009 46.4995 34.1645 47.9848 34.1645C49.488 34.1645 50.6648 35.3024 50.6648 36.9209C50.6648 38.5394 49.4895 39.6773 47.9848 39.6773ZM47.561 41.8752C48.7558 41.8752 49.8368 41.4321 50.6453 40.6805V41.7405H53.0933V32.1193H50.6453V33.1793C49.8743 32.4083 48.8142 31.9651 47.6569 31.9651C45.1505 31.9651 42.8762 34.0477 42.8762 36.9194C42.8762 39.7926 45.1131 41.8752 47.561 41.8752ZM41.6036 27.4734L39.1556 28.2445V41.739H41.6036V27.4734ZM33.1023 34.5493H30.018V30.6161H33.1023C34.3749 30.6161 35.2613 31.4261 35.2613 32.5819C35.2613 33.7393 34.3749 34.5493 33.1023 34.5493ZM27.3574 28.2445V41.739H30.018V36.8236H33.2954C35.9365 36.8236 37.9024 34.9925 37.9024 32.5056C37.9024 30.0381 36.0129 28.2445 33.3913 28.2445H27.3574V28.2445Z" fill="#FF4747"/>
<path d="M88.078 40.4483C86.2858 40.4483 84.8589 39.0214 84.8589 37.0361C84.8589 35.0507 86.2858 33.6239 88.078 33.6239C89.8702 33.6239 91.297 35.0507 91.297 37.0361C91.297 39.0214 89.8716 40.4483 88.078 40.4483ZM88.078 32.1581C85.3605 32.1581 83.2389 34.2213 83.2389 37.0346C83.2389 39.8494 85.359 41.9125 88.078 41.9125C90.7969 41.9125 92.917 39.8494 92.917 37.0346C92.917 34.2213 90.7969 32.1581 88.078 32.1581ZM79.7504 32.3512H78.1304V41.7404H79.7504V36.283C79.7504 34.6061 81.2162 33.3529 82.9694 33.6808V32.1386C81.5231 31.9455 80.3672 32.6013 79.7504 33.9697V32.3512Z" fill="#FF4747"/>
<g clip-path="url(#clip1)">
<path d="M12.0493 26C7.09729 26 3.08301 30.0153 3.08301 34.9663C3.08301 39.9194 7.09729 43.9327 12.0493 43.9327C17.0014 43.9327 21.0157 39.9194 21.0157 34.9663C21.0157 30.0153 17.0014 26 12.0493 26ZM8.47689 31.4388H13.631L12.8483 32.6918H7.69423L8.47689 31.4388ZM17.0881 37.701L16.3044 36.45H14.0167L14.8014 35.1969H15.5238L14.6504 33.802L12.2136 37.7H5.71362L7.27893 35.1959H6.12995L6.91158 33.9429H11.9371L11.1544 35.198H8.7575L7.97382 36.451H11.5187L14.6504 31.4388L18.5646 37.702H17.0881V37.701Z" fill="#FF4747"/>
</g>
</g>
<defs>
<clipPath id="clip0">
<rect width="89.8338" height="20" fill="white" transform="translate(3.08301 26)"/>
</clipPath>
<clipPath id="clip1">
<rect width="17.9592" height="17.9592" fill="white" transform="translate(3.08301 26)"/>
</clipPath>
</defs>
</svg>
