<svg width="88" height="16" viewBox="0 0 88 16" fill="none" xmlns="http://www.w3.org/2000/svg">
<path d="M0 9.24806C0 12.1441 2 13.8881 4.48 13.8881C6.96 13.8881 8.96 12.2721 8.96 9.56806V2.51206H6.752V9.26406C6.752 11.0081 5.76 11.8561 4.48 11.8561C3.216 11.8561 2.208 10.9921 2.208 9.24806H0Z" fill="white"/>
<path d="M14.1638 5.56806C11.8278 5.56806 9.93975 7.31206 9.93975 9.72806C9.93975 12.1281 11.8278 13.8721 14.1638 13.8721C16.4998 13.8721 18.3878 12.1281 18.3878 9.72806C18.3878 7.31206 16.4998 5.56806 14.1638 5.56806ZM14.1638 12.0321C12.9318 12.0321 11.9558 11.0881 11.9558 9.74406C11.9558 8.36806 12.9318 7.44006 14.1638 7.44006C15.3958 7.44006 16.3717 8.36806 16.3717 9.74406C16.3717 11.0881 15.3958 12.0321 14.1638 12.0321Z" fill="white"/>
<path d="M20.453 4.73606C21.173 4.73606 21.765 4.14406 21.765 3.42406C21.765 2.70406 21.173 2.11206 20.453 2.11206C19.749 2.11206 19.157 2.70406 19.157 3.42406C19.157 4.14406 19.749 4.73606 20.453 4.73606ZM21.477 5.72806H19.445V13.7121H21.477V5.72806Z" fill="white"/>
<path d="M24.7895 5.72806H22.7575V13.7121H24.7895V8.88006C24.7895 7.95206 25.5095 7.21606 26.4535 7.21606C27.4295 7.21606 28.1175 7.92006 28.1175 8.96006V13.7121H30.1495V8.80006C30.1495 6.92806 29.0775 5.55206 27.1735 5.55206C26.1495 5.55206 25.2695 6.00006 24.7895 6.72006V5.72806Z" fill="white"/>
<g clip-path="url(#clip0)">
<path d="M87.3802 4.87999H85.3249L83.1308 9.39917L80.8908 4.87999H78.6968L82.0034 11.582L79.7938 15.9477H81.9263L87.3802 4.87999ZM74.138 10.9053C72.9482 10.9053 71.9899 9.99836 71.9899 8.70693C71.9899 7.4155 72.9482 6.50856 74.138 6.50856C75.3433 6.50856 76.2861 7.4155 76.2861 8.70693C76.2861 9.99836 75.3433 10.9053 74.138 10.9053ZM73.7983 12.6579C74.7567 12.6579 75.6215 12.3045 76.2705 11.7045V12.5502H78.2323V4.87999H76.2705V5.72489C75.6527 5.11019 74.8026 4.75672 73.8754 4.75672C71.8668 4.75672 70.0436 6.41713 70.0436 8.70774C70.0436 10.9975 71.8364 12.6579 73.7983 12.6579ZM69.0237 1.17468L67.0619 1.78938V12.5502H69.0237V1.17468ZM62.2102 6.81632H59.738V3.68081H62.2102C63.2301 3.68081 63.9406 4.32652 63.9406 5.24897C63.9406 6.17142 63.2301 6.81632 62.2102 6.81632ZM57.6055 1.78938V12.5502H59.738V8.63019H62.3644C64.4814 8.63019 66.0568 7.16978 66.0568 5.18693C66.0568 3.21876 64.5429 1.78938 62.4416 1.78938H57.6055Z" fill="#FF4747"/>
<g clip-path="url(#clip1)">
<path d="M45.3593 0C41.3773 0 38.1494 3.21225 38.1494 7.17306C38.1494 11.1355 41.3773 14.3461 45.3593 14.3461C49.3412 14.3461 52.5691 11.1355 52.5691 7.17306C52.5691 3.21225 49.3412 0 45.3593 0ZM42.4866 4.35102H46.6311L46.0017 5.35347H41.8573L42.4866 4.35102ZM49.411 9.36082L48.7808 8.36H46.9412L47.5722 7.35755H48.1531L47.4507 6.24163L45.4914 9.36H40.2647L41.5234 7.35673H40.5995L41.228 6.35429H45.269L44.6397 7.35837H42.7123L42.0821 8.36082H44.9326L47.4507 4.35102L50.5982 9.36163H49.411V9.36082Z" fill="#FF4747"/>
</g>
</g>
<defs>
<clipPath id="clip0">
<rect width="49.2308" height="16" fill="white" transform="translate(38.1494)"/>
</clipPath>
<clipPath id="clip1">
<rect width="14.441" height="14.3673" fill="white" transform="translate(38.1494)"/>
</clipPath>
</defs>
</svg>
