<svg width="96" height="46" viewBox="0 0 96 46" fill="none" xmlns="http://www.w3.org/2000/svg">
<path d="M34.6696 10.094C34.6696 12.628 36.4196 14.154 38.5896 14.154C40.7596 14.154 42.5096 12.74 42.5096 10.374V4.2H40.5776V10.108C40.5776 11.634 39.7096 12.376 38.5896 12.376C37.4836 12.376 36.6016 11.62 36.6016 10.094H34.6696ZM47.0629 6.874C45.0189 6.874 43.3669 8.4 43.3669 10.514C43.3669 12.614 45.0189 14.14 47.0629 14.14C49.1069 14.14 50.7589 12.614 50.7589 10.514C50.7589 8.4 49.1069 6.874 47.0629 6.874ZM47.0629 12.53C45.9849 12.53 45.1309 11.704 45.1309 10.528C45.1309 9.324 45.9849 8.512 47.0629 8.512C48.1409 8.512 48.9949 9.324 48.9949 10.528C48.9949 11.704 48.1409 12.53 47.0629 12.53ZM52.566 6.146C53.196 6.146 53.714 5.628 53.714 4.998C53.714 4.368 53.196 3.85 52.566 3.85C51.95 3.85 51.432 4.368 51.432 4.998C51.432 5.628 51.95 6.146 52.566 6.146ZM53.462 7.014H51.684V14H53.462V7.014ZM56.3605 7.014H54.5825V14H56.3605V9.772C56.3605 8.96 56.9905 8.316 57.8165 8.316C58.6705 8.316 59.2725 8.932 59.2725 9.842V14H61.0505V9.702C61.0505 8.064 60.1125 6.86 58.4465 6.86C57.5505 6.86 56.7805 7.252 56.3605 7.882V7.014Z" fill="white"/>
<g clip-path="url(#clip0)">
<path d="M78.7692 32.0999H76.2L73.4575 37.7489L70.6574 32.0999H67.9149L72.0482 40.4774L69.2862 45.9346H71.9518L78.7692 32.0999ZM62.2164 39.6315C60.7292 39.6315 59.5313 38.4979 59.5313 36.8836C59.5313 35.2693 60.7292 34.1356 62.2164 34.1356C63.7231 34.1356 64.9016 35.2693 64.9016 36.8836C64.9016 38.4979 63.7231 39.6315 62.2164 39.6315ZM61.7918 41.8223C62.9898 41.8223 64.0708 41.3805 64.8821 40.6305V41.6876H67.3344V32.0999H64.8821V33.156C64.1098 32.3876 63.0472 31.9458 61.8882 31.9458C59.3775 31.9458 57.0985 34.0213 57.0985 36.8846C57.0985 39.7468 59.3395 41.8223 61.7918 41.8223ZM55.8236 27.4683L53.3713 28.2366V41.6876H55.8236V27.4683ZM47.3067 34.5203H44.2164V30.6009H47.3067C48.5816 30.6009 49.4698 31.4081 49.4698 32.5611C49.4698 33.7142 48.5816 34.5203 47.3067 34.5203ZM41.5508 28.2366V41.6876H44.2164V36.7876H47.4995C50.1457 36.7876 52.1149 34.9621 52.1149 32.4836C52.1149 30.0234 50.2226 28.2366 47.5959 28.2366H41.5508Z" fill="#FF4747"/>
<g clip-path="url(#clip1)">
<path d="M26.2433 26C21.2658 26 17.231 30.0153 17.231 34.9663C17.231 39.9194 21.2658 43.9327 26.2433 43.9327C31.2207 43.9327 35.2556 39.9194 35.2556 34.9663C35.2556 30.0153 31.2207 26 26.2433 26ZM22.6525 31.4388H27.833L27.0463 32.6918H21.8658L22.6525 31.4388ZM31.3079 37.701L30.5202 36.45H28.2207L29.0094 35.1969H29.7356L28.8576 33.802L26.4084 37.7H19.8751L21.4484 35.1959H20.2935L21.0792 33.9429H26.1304L25.3438 35.198H22.9345L22.1469 36.451H25.7099L28.8576 31.4388L32.792 37.702H31.3079V37.701Z" fill="#FF4747"/>
</g>
</g>
<defs>
<clipPath id="clip0">
<rect width="61.5385" height="20" fill="white" transform="translate(17.231 26)"/>
</clipPath>
<clipPath id="clip1">
<rect width="18.0513" height="17.9592" fill="white" transform="translate(17.231 26)"/>
</clipPath>
</defs>
</svg>
