<svg width="327" height="211" viewBox="0 0 327 211" fill="none" xmlns="http://www.w3.org/2000/svg">
<g clip-path="url(#clip0)">
<path d="M106.916 8.544C106.916 9.056 106.815 9.51467 106.612 9.92C106.42 10.3253 106.148 10.6667 105.796 10.944C105.455 11.2213 105.044 11.4347 104.564 11.584C104.084 11.7227 103.567 11.792 103.012 11.792C102.372 11.792 101.78 11.696 101.236 11.504C100.692 11.3013 100.218 11.0293 99.8125 10.688C99.4178 10.336 99.1032 9.91467 98.8685 9.424C98.6445 8.93333 98.5218 8.4 98.5005 7.824H99.8285C99.8925 8.63467 100.223 9.296 100.82 9.808C101.428 10.3093 102.164 10.56 103.028 10.56C103.359 10.56 103.674 10.5227 103.972 10.448C104.282 10.3627 104.548 10.24 104.772 10.08C105.007 9.92 105.188 9.72267 105.316 9.488C105.455 9.24267 105.524 8.96533 105.524 8.656C105.524 8.34667 105.444 8.09067 105.284 7.888C105.124 7.67467 104.911 7.49867 104.644 7.36C104.388 7.22133 104.084 7.104 103.732 7.008C103.391 6.912 103.034 6.82133 102.66 6.736C102.202 6.62933 101.738 6.512 101.268 6.384C100.81 6.24533 100.394 6.064 100.02 5.84C99.6472 5.60533 99.3432 5.30667 99.1085 4.944C98.8738 4.57067 98.7565 4.096 98.7565 3.52C98.7565 3.09333 98.8365 2.688 98.9965 2.304C99.1672 1.90933 99.4072 1.568 99.7165 1.28C100.026 0.981333 100.41 0.746667 100.868 0.576C101.327 0.394667 101.844 0.304 102.42 0.304C103.028 0.304 103.594 0.4 104.116 0.592C104.639 0.773334 105.092 1.02933 105.476 1.36C105.86 1.69067 106.164 2.09067 106.388 2.56C106.612 3.01867 106.74 3.51467 106.772 4.048H105.428C105.354 3.30133 105.05 2.69333 104.516 2.224C103.994 1.75467 103.295 1.52 102.42 1.52C101.706 1.52 101.146 1.70667 100.74 2.08C100.335 2.45333 100.132 2.912 100.132 3.456C100.132 3.75467 100.202 4.01067 100.34 4.224C100.49 4.43733 100.682 4.61333 100.916 4.752C101.151 4.89067 101.428 5.01333 101.748 5.12C102.068 5.216 102.404 5.30133 102.756 5.376C103.226 5.49333 103.706 5.616 104.196 5.744C104.698 5.872 105.146 6.048 105.54 6.272C105.946 6.48533 106.276 6.77333 106.532 7.136C106.788 7.49867 106.916 7.968 106.916 8.544Z" fill="#5288FD"/>
<path d="M109.927 2.208C109.661 2.208 109.431 2.112 109.239 1.92C109.047 1.71733 108.951 1.48267 108.951 1.216C108.951 0.949334 109.047 0.714667 109.239 0.512C109.431 0.309333 109.661 0.208 109.927 0.208C110.194 0.208 110.423 0.309333 110.615 0.512C110.807 0.714667 110.903 0.949334 110.903 1.216C110.903 1.48267 110.807 1.71733 110.615 1.92C110.423 2.112 110.194 2.208 109.927 2.208ZM109.255 11.648V3.568H110.599V11.648H109.255Z" fill="#5288FD"/>
<path d="M116.596 11.728C116.084 11.728 115.604 11.6267 115.156 11.424C114.708 11.2107 114.319 10.9227 113.988 10.56C113.657 10.1867 113.396 9.744 113.204 9.232C113.012 8.72 112.916 8.16533 112.916 7.568C112.916 6.97067 113.012 6.42133 113.204 5.92C113.396 5.408 113.657 4.97067 113.988 4.608C114.319 4.23467 114.708 3.94667 115.156 3.744C115.615 3.53067 116.1 3.424 116.612 3.424C117.167 3.424 117.684 3.56267 118.164 3.84C118.644 4.10667 119.044 4.47467 119.364 4.944V3.568H120.708V11.376C120.708 12.016 120.612 12.5867 120.42 13.088C120.239 13.6 119.977 14.0213 119.636 14.352C119.305 14.6933 118.911 14.9493 118.452 15.12C117.993 15.3013 117.492 15.392 116.948 15.392C116.5 15.392 116.068 15.328 115.652 15.2C115.247 15.072 114.879 14.896 114.548 14.672C114.217 14.448 113.935 14.1707 113.7 13.84C113.465 13.52 113.3 13.168 113.204 12.784H114.644C114.783 13.2107 115.065 13.552 115.492 13.808C115.929 14.064 116.409 14.192 116.932 14.192C117.636 14.192 118.217 13.9573 118.676 13.488C119.135 13.0293 119.364 12.3307 119.364 11.392V10.208C119.044 10.6773 118.639 11.0507 118.148 11.328C117.668 11.5947 117.151 11.728 116.596 11.728ZM116.836 10.512C117.54 10.512 118.143 10.24 118.644 9.696C119.145 9.14133 119.396 8.432 119.396 7.568C119.396 6.71467 119.145 6.016 118.644 5.472C118.143 4.91733 117.54 4.64 116.836 4.64C116.121 4.64 115.513 4.91733 115.012 5.472C114.511 6.016 114.26 6.71467 114.26 7.568C114.26 8.432 114.511 9.14133 115.012 9.696C115.513 10.24 116.121 10.512 116.836 10.512Z" fill="#5288FD"/>
<path d="M124.669 6.656V11.648H123.325V3.568H124.669V5.152C124.872 4.544 125.192 4.10667 125.629 3.84C126.077 3.56267 126.552 3.424 127.053 3.424C127.501 3.424 127.901 3.504 128.253 3.664C128.605 3.824 128.904 4.048 129.149 4.336C129.394 4.61333 129.581 4.944 129.709 5.328C129.837 5.712 129.901 6.12267 129.901 6.56V11.648H128.557V6.688C128.557 6.048 128.381 5.536 128.029 5.152C127.688 4.768 127.245 4.576 126.701 4.576C126.104 4.576 125.613 4.77867 125.229 5.184C124.856 5.57867 124.669 6.06933 124.669 6.656Z" fill="#5288FD"/>
<path d="M137.285 2.208C137.018 2.208 136.789 2.112 136.597 1.92C136.405 1.71733 136.309 1.48267 136.309 1.216C136.309 0.949334 136.405 0.714667 136.597 0.512C136.789 0.309333 137.018 0.208 137.285 0.208C137.552 0.208 137.781 0.309333 137.973 0.512C138.165 0.714667 138.261 0.949334 138.261 1.216C138.261 1.48267 138.165 1.71733 137.973 1.92C137.781 2.112 137.552 2.208 137.285 2.208ZM136.613 11.648V3.568H137.957V11.648H136.613Z" fill="#5288FD"/>
<path d="M141.921 6.656V11.648H140.577V3.568H141.921V5.152C142.124 4.544 142.444 4.10667 142.881 3.84C143.329 3.56267 143.804 3.424 144.305 3.424C144.753 3.424 145.153 3.504 145.505 3.664C145.857 3.824 146.156 4.048 146.401 4.336C146.647 4.61333 146.833 4.944 146.961 5.328C147.089 5.712 147.153 6.12267 147.153 6.56V11.648H145.809V6.688C145.809 6.048 145.633 5.536 145.281 5.152C144.94 4.768 144.497 4.576 143.953 4.576C143.356 4.576 142.865 4.77867 142.481 5.184C142.108 5.57867 141.921 6.06933 141.921 6.656Z" fill="#5288FD"/>
<path d="M160.521 11.712L158.393 5.824L156.281 11.712H155.689L153.097 3.568H154.473L156.137 9.088L158.121 3.52H158.777L160.761 9.056L162.409 3.568H163.673L161.113 11.712H160.521Z" fill="#5288FD"/>
<path d="M166.205 2.208C165.938 2.208 165.709 2.112 165.517 1.92C165.325 1.71733 165.229 1.48267 165.229 1.216C165.229 0.949334 165.325 0.714667 165.517 0.512C165.709 0.309333 165.938 0.208 166.205 0.208C166.472 0.208 166.701 0.309333 166.893 0.512C167.085 0.714667 167.181 0.949334 167.181 1.216C167.181 1.48267 167.085 1.71733 166.893 1.92C166.701 2.112 166.472 2.208 166.205 2.208ZM165.533 11.648V3.568H166.877V11.648H165.533Z" fill="#5288FD"/>
<path d="M170.809 9.68V4.72H168.761V3.568H170.809V1.664L172.137 1.184V3.568H174.521V4.72H172.137V9.616C172.137 9.89333 172.212 10.1067 172.361 10.256C172.511 10.3947 172.735 10.464 173.033 10.464H174.521V11.648H172.697C172.089 11.648 171.62 11.4827 171.289 11.152C170.969 10.8107 170.809 10.32 170.809 9.68Z" fill="#5288FD"/>
<path d="M177.915 6.656V11.648H176.571V0H177.915V5.152C178.118 4.544 178.438 4.10667 178.875 3.84C179.323 3.56267 179.798 3.424 180.299 3.424C180.747 3.424 181.147 3.504 181.499 3.664C181.851 3.824 182.15 4.048 182.395 4.336C182.64 4.61333 182.827 4.944 182.955 5.328C183.083 5.712 183.147 6.12267 183.147 6.56V11.648H181.803V6.688C181.803 6.048 181.627 5.536 181.275 5.152C180.934 4.768 180.491 4.576 179.947 4.576C179.35 4.576 178.859 4.77867 178.475 5.184C178.102 5.57867 177.915 6.06933 177.915 6.656Z" fill="#5288FD"/>
<path d="M197.235 11.648H189.939V0.448H197.235V1.696H191.347V5.312H195.859V6.56H191.347V10.4H197.235V11.648Z" fill="#5288FD"/>
<path d="M207.667 11.648L206.483 8.944H201.267L200.083 11.648H198.627L203.763 0.288H204.099L209.235 11.648H207.667ZM201.795 7.728H205.955L203.875 2.976L201.795 7.728Z" fill="#5288FD"/>
<path d="M214.989 0.448H216.397V11.648H214.989V0.448Z" fill="#5288FD"/>
<path d="M222.979 11.648H219.187V0.448H222.979C223.769 0.448 224.499 0.586667 225.171 0.864C225.843 1.13067 226.425 1.50933 226.915 2C227.406 2.49067 227.79 3.08267 228.067 3.776C228.355 4.46933 228.499 5.22667 228.499 6.048C228.499 6.86933 228.355 7.62667 228.067 8.32C227.79 9.01333 227.406 9.60533 226.915 10.096C226.425 10.5867 225.843 10.9707 225.171 11.248C224.499 11.5147 223.769 11.648 222.979 11.648ZM222.979 1.696H220.595V10.4H222.979C223.534 10.4 224.062 10.2933 224.563 10.08C225.065 9.86667 225.502 9.57333 225.875 9.2C226.249 8.816 226.542 8.35733 226.755 7.824C226.979 7.28 227.091 6.688 227.091 6.048C227.091 5.408 226.979 4.82133 226.755 4.288C226.542 3.744 226.249 3.28533 225.875 2.912C225.502 2.528 225.065 2.22933 224.563 2.016C224.062 1.80267 223.534 1.696 222.979 1.696Z" fill="#5288FD"/>
<path d="M79.1424 39.04H77.7344V27.84H85.0304V29.088H79.1424V32.704H83.6544V33.952H79.1424V39.04Z" fill="#5288FD"/>
<path d="M89.9535 39.184C89.4095 39.184 88.8975 39.0773 88.4175 38.864C87.9375 38.6506 87.5215 38.3626 87.1695 38C86.8175 37.6266 86.5402 37.184 86.3375 36.672C86.1348 36.1493 86.0335 35.584 86.0335 34.976C86.0335 34.3786 86.1348 33.824 86.3375 33.312C86.5402 32.8 86.8175 32.3626 87.1695 32C87.5215 31.6266 87.9375 31.3333 88.4175 31.12C88.8975 30.9066 89.4095 30.8 89.9535 30.8C90.4975 30.8 91.0095 30.9066 91.4895 31.12C91.9695 31.3333 92.3802 31.6266 92.7215 32C93.0735 32.3626 93.3508 32.8 93.5535 33.312C93.7562 33.824 93.8575 34.3786 93.8575 34.976C93.8575 35.584 93.7562 36.1493 93.5535 36.672C93.3508 37.184 93.0735 37.6266 92.7215 38C92.3802 38.3626 91.9695 38.6506 91.4895 38.864C91.0095 39.0773 90.4975 39.184 89.9535 39.184ZM89.9535 37.984C90.6575 37.984 91.2602 37.7013 91.7615 37.136C92.2628 36.5706 92.5135 35.856 92.5135 34.992C92.5135 34.1386 92.2628 33.4293 91.7615 32.864C91.2602 32.288 90.6575 32 89.9535 32C89.2388 32 88.6308 32.288 88.1295 32.864C87.6282 33.4293 87.3775 34.1386 87.3775 34.992C87.3775 35.856 87.6282 36.5706 88.1295 37.136C88.6308 37.7013 89.2388 37.984 89.9535 37.984Z" fill="#5288FD"/>
<path d="M96.1769 39.04V30.96H97.5209V32.592C97.7769 31.8986 98.1662 31.4026 98.6889 31.104C99.2115 30.7946 99.8195 30.6773 100.513 30.752V32.032C100.108 31.9573 99.7235 31.968 99.3609 32.064C98.9982 32.16 98.6782 32.32 98.4009 32.544C98.1342 32.7573 97.9209 33.0293 97.7609 33.36C97.6009 33.6906 97.5209 34.048 97.5209 34.432V39.04H96.1769Z" fill="#5288FD"/>
<path d="M105.361 39.12C104.849 39.12 104.369 39.0186 103.921 38.816C103.473 38.6026 103.084 38.3146 102.753 37.952C102.422 37.5786 102.161 37.136 101.969 36.624C101.777 36.112 101.681 35.5573 101.681 34.96C101.681 34.3626 101.777 33.8133 101.969 33.312C102.161 32.8 102.422 32.3626 102.753 32C103.084 31.6266 103.473 31.3386 103.921 31.136C104.38 30.9226 104.865 30.816 105.377 30.816C105.932 30.816 106.449 30.9546 106.929 31.232C107.409 31.4986 107.809 31.8666 108.129 32.336V30.96H109.473V38.768C109.473 39.408 109.377 39.9786 109.185 40.48C109.004 40.992 108.742 41.4133 108.401 41.744C108.07 42.0853 107.676 42.3413 107.217 42.512C106.758 42.6933 106.257 42.784 105.713 42.784C105.265 42.784 104.833 42.72 104.417 42.592C104.012 42.464 103.644 42.288 103.313 42.064C102.982 41.84 102.7 41.5626 102.465 41.232C102.23 40.912 102.065 40.56 101.969 40.176H103.409C103.548 40.6026 103.83 40.944 104.257 41.2C104.694 41.456 105.174 41.584 105.697 41.584C106.401 41.584 106.982 41.3493 107.441 40.88C107.9 40.4213 108.129 39.7226 108.129 38.784V37.6C107.809 38.0693 107.404 38.4426 106.913 38.72C106.433 38.9866 105.916 39.12 105.361 39.12ZM105.601 37.904C106.305 37.904 106.908 37.632 107.409 37.088C107.91 36.5333 108.161 35.824 108.161 34.96C108.161 34.1066 107.91 33.408 107.409 32.864C106.908 32.3093 106.305 32.032 105.601 32.032C104.886 32.032 104.278 32.3093 103.777 32.864C103.276 33.408 103.025 34.1066 103.025 34.96C103.025 35.824 103.276 36.5333 103.777 37.088C104.278 37.632 104.886 37.904 105.601 37.904Z" fill="#5288FD"/>
<path d="M115.706 39.184C115.162 39.184 114.65 39.0773 114.17 38.864C113.69 38.6506 113.274 38.3626 112.922 38C112.57 37.6266 112.293 37.184 112.09 36.672C111.887 36.1493 111.786 35.584 111.786 34.976C111.786 34.3786 111.887 33.824 112.09 33.312C112.293 32.8 112.57 32.3626 112.922 32C113.274 31.6266 113.69 31.3333 114.17 31.12C114.65 30.9066 115.162 30.8 115.706 30.8C116.25 30.8 116.762 30.9066 117.242 31.12C117.722 31.3333 118.133 31.6266 118.474 32C118.826 32.3626 119.103 32.8 119.306 33.312C119.509 33.824 119.61 34.3786 119.61 34.976C119.61 35.584 119.509 36.1493 119.306 36.672C119.103 37.184 118.826 37.6266 118.474 38C118.133 38.3626 117.722 38.6506 117.242 38.864C116.762 39.0773 116.25 39.184 115.706 39.184ZM115.706 37.984C116.41 37.984 117.013 37.7013 117.514 37.136C118.015 36.5706 118.266 35.856 118.266 34.992C118.266 34.1386 118.015 33.4293 117.514 32.864C117.013 32.288 116.41 32 115.706 32C114.991 32 114.383 32.288 113.882 32.864C113.381 33.4293 113.13 34.1386 113.13 34.992C113.13 35.856 113.381 36.5706 113.882 37.136C114.383 37.7013 114.991 37.984 115.706 37.984Z" fill="#5288FD"/>
<path d="M122.929 37.072V32.112H120.881V30.96H122.929V29.056L124.257 28.576V30.96H126.641V32.112H124.257V37.008C124.257 37.2853 124.332 37.4986 124.481 37.648C124.63 37.7866 124.854 37.856 125.153 37.856H126.641V39.04H124.817C124.209 39.04 123.74 38.8746 123.409 38.544C123.089 38.2026 122.929 37.712 122.929 37.072Z" fill="#5288FD"/>
<path d="M139.836 30.96L134.444 42.656H132.94L135.164 38.08L131.82 30.96H133.308L135.884 36.592L138.428 30.96H139.836Z" fill="#5288FD"/>
<path d="M144.626 39.184C144.082 39.184 143.57 39.0773 143.09 38.864C142.61 38.6506 142.194 38.3626 141.842 38C141.49 37.6266 141.213 37.184 141.01 36.672C140.807 36.1493 140.706 35.584 140.706 34.976C140.706 34.3786 140.807 33.824 141.01 33.312C141.213 32.8 141.49 32.3626 141.842 32C142.194 31.6266 142.61 31.3333 143.09 31.12C143.57 30.9066 144.082 30.8 144.626 30.8C145.17 30.8 145.682 30.9066 146.162 31.12C146.642 31.3333 147.053 31.6266 147.394 32C147.746 32.3626 148.023 32.8 148.226 33.312C148.429 33.824 148.53 34.3786 148.53 34.976C148.53 35.584 148.429 36.1493 148.226 36.672C148.023 37.184 147.746 37.6266 147.394 38C147.053 38.3626 146.642 38.6506 146.162 38.864C145.682 39.0773 145.17 39.184 144.626 39.184ZM144.626 37.984C145.33 37.984 145.933 37.7013 146.434 37.136C146.935 36.5706 147.186 35.856 147.186 34.992C147.186 34.1386 146.935 33.4293 146.434 32.864C145.933 32.288 145.33 32 144.626 32C143.911 32 143.303 32.288 142.802 32.864C142.301 33.4293 142.05 34.1386 142.05 34.992C142.05 35.856 142.301 36.5706 142.802 37.136C143.303 37.7013 143.911 37.984 144.626 37.984Z" fill="#5288FD"/>
<path d="M156.081 39.04V37.456C155.879 38.064 155.553 38.5066 155.105 38.784C154.668 39.0506 154.199 39.184 153.697 39.184C153.249 39.184 152.849 39.104 152.497 38.944C152.145 38.784 151.847 38.5653 151.601 38.288C151.356 38 151.169 37.664 151.041 37.28C150.913 36.896 150.849 36.4853 150.849 36.048V30.96H152.193V35.92C152.193 36.56 152.364 37.072 152.705 37.456C153.057 37.84 153.505 38.032 154.049 38.032C154.647 38.032 155.132 37.8346 155.505 37.44C155.889 37.0346 156.081 36.5386 156.081 35.952V30.96H157.425V39.04H156.081Z" fill="#5288FD"/>
<path d="M160.048 39.04V30.96H161.392V32.592C161.648 31.8986 162.037 31.4026 162.56 31.104C163.083 30.7946 163.691 30.6773 164.384 30.752V32.032C163.979 31.9573 163.595 31.968 163.232 32.064C162.869 32.16 162.549 32.32 162.272 32.544C162.005 32.7573 161.792 33.0293 161.632 33.36C161.472 33.6906 161.392 34.048 161.392 34.432V39.04H160.048Z" fill="#5288FD"/>
<path d="M171.93 42.656H170.586V30.96H171.93V32.336C172.25 31.8666 172.65 31.4986 173.13 31.232C173.621 30.9546 174.144 30.816 174.698 30.816C175.21 30.816 175.69 30.9226 176.138 31.136C176.586 31.3493 176.976 31.6426 177.306 32.016C177.637 32.3786 177.898 32.816 178.09 33.328C178.282 33.8293 178.378 34.3786 178.378 34.976C178.378 35.5733 178.282 36.1333 178.09 36.656C177.898 37.168 177.637 37.6106 177.306 37.984C176.976 38.3466 176.581 38.6346 176.122 38.848C175.674 39.0613 175.194 39.168 174.682 39.168C174.128 39.168 173.61 39.0346 173.13 38.768C172.65 38.4906 172.25 38.1173 171.93 37.648V42.656ZM174.458 32.032C173.754 32.032 173.152 32.3093 172.65 32.864C172.149 33.4186 171.898 34.1226 171.898 34.976C171.898 35.84 172.149 36.5546 172.65 37.12C173.152 37.6746 173.754 37.952 174.458 37.952C175.173 37.952 175.781 37.6746 176.282 37.12C176.784 36.5546 177.034 35.84 177.034 34.976C177.034 34.1226 176.784 33.4186 176.282 32.864C175.781 32.3093 175.173 32.032 174.458 32.032Z" fill="#5288FD"/>
<path d="M185.635 39.04V37.632C185.422 38.1013 185.081 38.48 184.611 38.768C184.153 39.0453 183.609 39.184 182.979 39.184C182.211 39.184 181.577 38.9706 181.075 38.544C180.585 38.1066 180.339 37.552 180.339 36.88C180.339 36.24 180.579 35.7226 181.059 35.328C181.539 34.9226 182.195 34.688 183.027 34.624L185.635 34.432V34.016C185.635 33.4293 185.454 32.944 185.091 32.56C184.739 32.1653 184.297 31.968 183.763 31.968C183.198 31.968 182.75 32.112 182.419 32.4C182.099 32.6773 181.886 33.0666 181.779 33.568H180.451C180.537 32.7573 180.889 32.096 181.507 31.584C182.126 31.0613 182.883 30.8 183.779 30.8C184.771 30.8 185.55 31.104 186.115 31.712C186.681 32.3093 186.963 33.072 186.963 34V39.04H185.635ZM181.667 36.88C181.667 37.2213 181.811 37.5093 182.099 37.744C182.387 37.968 182.766 38.08 183.235 38.08C183.886 38.08 184.446 37.8773 184.915 37.472C185.395 37.0666 185.635 36.592 185.635 36.048V35.472L183.283 35.648C182.782 35.6906 182.387 35.8186 182.099 36.032C181.811 36.2346 181.667 36.5173 181.667 36.88Z" fill="#5288FD"/>
<path d="M189.305 33.2C189.316 32.4853 189.588 31.9093 190.121 31.472C190.665 31.0346 191.337 30.816 192.137 30.816C193.065 30.816 193.844 31.0826 194.473 31.616C195.102 32.1386 195.438 32.8106 195.481 33.632H194.169C194.126 33.1306 193.918 32.7306 193.545 32.432C193.182 32.1226 192.718 31.968 192.153 31.968C191.684 31.968 191.31 32.0746 191.033 32.288C190.766 32.5013 190.633 32.7733 190.633 33.104C190.633 33.488 190.82 33.7653 191.193 33.936C191.566 34.1066 191.998 34.256 192.489 34.384C192.841 34.4693 193.198 34.5653 193.561 34.672C193.934 34.768 194.265 34.9013 194.553 35.072C194.852 35.232 195.097 35.4506 195.289 35.728C195.481 35.9946 195.577 36.3413 195.577 36.768C195.577 37.5146 195.289 38.1066 194.713 38.544C194.137 38.9706 193.433 39.184 192.601 39.184C191.641 39.184 190.846 38.912 190.217 38.368C189.588 37.824 189.252 37.1253 189.209 36.272H190.521C190.553 36.7946 190.766 37.2213 191.161 37.552C191.566 37.8826 192.052 38.048 192.617 38.048C193.076 38.048 193.46 37.9466 193.769 37.744C194.089 37.5413 194.249 37.2586 194.249 36.896C194.249 36.48 194.03 36.192 193.593 36.032C193.166 35.8613 192.681 35.7066 192.137 35.568C191.806 35.4933 191.47 35.4026 191.129 35.296C190.788 35.1893 190.484 35.0506 190.217 34.88C189.95 34.7093 189.732 34.4906 189.561 34.224C189.39 33.9466 189.305 33.6053 189.305 33.2Z" fill="#5288FD"/>
<path d="M197.504 33.2C197.515 32.4853 197.787 31.9093 198.32 31.472C198.864 31.0346 199.536 30.816 200.336 30.816C201.264 30.816 202.043 31.0826 202.672 31.616C203.301 32.1386 203.637 32.8106 203.68 33.632H202.368C202.325 33.1306 202.117 32.7306 201.744 32.432C201.381 32.1226 200.917 31.968 200.352 31.968C199.883 31.968 199.509 32.0746 199.232 32.288C198.965 32.5013 198.832 32.7733 198.832 33.104C198.832 33.488 199.019 33.7653 199.392 33.936C199.765 34.1066 200.197 34.256 200.688 34.384C201.04 34.4693 201.397 34.5653 201.76 34.672C202.133 34.768 202.464 34.9013 202.752 35.072C203.051 35.232 203.296 35.4506 203.488 35.728C203.68 35.9946 203.776 36.3413 203.776 36.768C203.776 37.5146 203.488 38.1066 202.912 38.544C202.336 38.9706 201.632 39.184 200.8 39.184C199.84 39.184 199.045 38.912 198.416 38.368C197.787 37.824 197.451 37.1253 197.408 36.272H198.72C198.752 36.7946 198.965 37.2213 199.36 37.552C199.765 37.8826 200.251 38.048 200.816 38.048C201.275 38.048 201.659 37.9466 201.968 37.744C202.288 37.5413 202.448 37.2586 202.448 36.896C202.448 36.48 202.229 36.192 201.792 36.032C201.365 35.8613 200.88 35.7066 200.336 35.568C200.005 35.4933 199.669 35.4026 199.328 35.296C198.987 35.1893 198.683 35.0506 198.416 34.88C198.149 34.7093 197.931 34.4906 197.76 34.224C197.589 33.9466 197.504 33.6053 197.504 33.2Z" fill="#5288FD"/>
<path d="M212.334 39.104L210.206 33.216L208.094 39.104H207.502L204.91 30.96H206.286L207.95 36.48L209.934 30.912H210.59L212.574 36.448L214.222 30.96H215.486L212.926 39.104H212.334Z" fill="#5288FD"/>
<path d="M220.649 39.184C220.105 39.184 219.593 39.0773 219.113 38.864C218.633 38.6506 218.217 38.3626 217.865 38C217.513 37.6266 217.236 37.184 217.033 36.672C216.83 36.1493 216.729 35.584 216.729 34.976C216.729 34.3786 216.83 33.824 217.033 33.312C217.236 32.8 217.513 32.3626 217.865 32C218.217 31.6266 218.633 31.3333 219.113 31.12C219.593 30.9066 220.105 30.8 220.649 30.8C221.193 30.8 221.705 30.9066 222.185 31.12C222.665 31.3333 223.076 31.6266 223.417 32C223.769 32.3626 224.046 32.8 224.249 33.312C224.452 33.824 224.553 34.3786 224.553 34.976C224.553 35.584 224.452 36.1493 224.249 36.672C224.046 37.184 223.769 37.6266 223.417 38C223.076 38.3626 222.665 38.6506 222.185 38.864C221.705 39.0773 221.193 39.184 220.649 39.184ZM220.649 37.984C221.353 37.984 221.956 37.7013 222.457 37.136C222.958 36.5706 223.209 35.856 223.209 34.992C223.209 34.1386 222.958 33.4293 222.457 32.864C221.956 32.288 221.353 32 220.649 32C219.934 32 219.326 32.288 218.825 32.864C218.324 33.4293 218.073 34.1386 218.073 34.992C218.073 35.856 218.324 36.5706 218.825 37.136C219.326 37.7013 219.934 37.984 220.649 37.984Z" fill="#5288FD"/>
<path d="M226.872 39.04V30.96H228.216V32.592C228.472 31.8986 228.862 31.4026 229.384 31.104C229.907 30.7946 230.515 30.6773 231.208 30.752V32.032C230.803 31.9573 230.419 31.968 230.056 32.064C229.694 32.16 229.374 32.32 229.096 32.544C228.83 32.7573 228.617 33.0293 228.457 33.36C228.297 33.6906 228.216 34.048 228.216 34.432V39.04H226.872Z" fill="#5288FD"/>
<path d="M236.057 39.168C235.545 39.168 235.065 39.0613 234.617 38.848C234.169 38.6346 233.779 38.3466 233.449 37.984C233.118 37.6106 232.857 37.168 232.665 36.656C232.473 36.1333 232.377 35.5733 232.377 34.976C232.377 34.3786 232.473 33.8293 232.665 33.328C232.857 32.816 233.118 32.3786 233.449 32.016C233.779 31.6426 234.169 31.3493 234.617 31.136C235.075 30.9226 235.561 30.816 236.073 30.816C236.627 30.816 237.145 30.9546 237.625 31.232C238.105 31.4986 238.505 31.8666 238.825 32.336V27.392H240.169V39.04H238.825V37.632C238.505 38.112 238.099 38.4906 237.609 38.768C237.129 39.0346 236.611 39.168 236.057 39.168ZM236.297 37.952C237.001 37.952 237.603 37.6746 238.105 37.12C238.606 36.5546 238.857 35.84 238.857 34.976C238.857 34.1226 238.606 33.4186 238.105 32.864C237.603 32.3093 237.001 32.032 236.297 32.032C235.582 32.032 234.974 32.3093 234.473 32.864C233.971 33.4186 233.721 34.1226 233.721 34.976C233.721 35.84 233.971 36.5546 234.473 37.12C234.974 37.6746 235.582 37.952 236.297 37.952Z" fill="#5288FD"/>
<path d="M249.266 30.832C249.266 31.2266 249.202 31.6053 249.074 31.968C248.946 32.32 248.759 32.64 248.514 32.928C248.279 33.2053 247.986 33.44 247.634 33.632C247.282 33.8133 246.876 33.9306 246.418 33.984L246.29 35.888H245.362L245.234 33.088H245.73C246.444 33.088 247.004 32.8693 247.41 32.432C247.815 31.9946 248.018 31.4826 248.018 30.896C248.018 30.3413 247.82 29.8453 247.426 29.408C247.031 28.9706 246.482 28.752 245.778 28.752C245.106 28.752 244.567 28.9653 244.162 29.392C243.767 29.808 243.538 30.3786 243.474 31.104H242.338C242.348 30.6346 242.439 30.192 242.61 29.776C242.78 29.36 243.015 28.9973 243.314 28.688C243.612 28.3786 243.975 28.1333 244.402 27.952C244.828 27.7706 245.303 27.68 245.826 27.68C246.38 27.68 246.871 27.7653 247.298 27.936C247.724 28.1066 248.082 28.3413 248.37 28.64C248.668 28.928 248.892 29.264 249.042 29.648C249.191 30.0213 249.266 30.416 249.266 30.832ZM245.778 39.12C245.522 39.12 245.303 39.0293 245.122 38.848C244.951 38.656 244.866 38.432 244.866 38.176C244.866 37.92 244.951 37.7013 245.122 37.52C245.303 37.328 245.522 37.232 245.778 37.232C246.034 37.232 246.252 37.328 246.434 37.52C246.626 37.7013 246.722 37.92 246.722 38.176C246.722 38.432 246.626 38.656 246.434 38.848C246.252 39.0293 246.034 39.12 245.778 39.12Z" fill="#5288FD"/>
<path fill-rule="evenodd" clip-rule="evenodd" d="M103 75.4319H0V77.4319H103V75.4319ZM327 75.4319H251V77.4319H327V75.4319Z" fill="#2F2F2F"/>
<path d="M120.062 82.5759C119.518 82.5759 119.006 82.4693 118.526 82.2559C118.046 82.0426 117.63 81.7546 117.278 81.3919C116.926 81.0186 116.648 80.5759 116.446 80.0639C116.243 79.5413 116.142 78.9759 116.142 78.3679C116.142 77.7706 116.243 77.2159 116.446 76.7039C116.648 76.1919 116.926 75.7546 117.278 75.3919C117.63 75.0186 118.046 74.7253 118.526 74.5119C119.006 74.2986 119.518 74.1919 120.062 74.1919C120.606 74.1919 121.118 74.2986 121.598 74.5119C122.078 74.7253 122.488 75.0186 122.83 75.3919C123.182 75.7546 123.459 76.1919 123.662 76.7039C123.864 77.2159 123.966 77.7706 123.966 78.3679C123.966 78.9759 123.864 79.5413 123.662 80.0639C123.459 80.5759 123.182 81.0186 122.83 81.3919C122.488 81.7546 122.078 82.0426 121.598 82.2559C121.118 82.4693 120.606 82.5759 120.062 82.5759ZM120.062 81.3759C120.766 81.3759 121.368 81.0933 121.87 80.5279C122.371 79.9626 122.622 79.2479 122.622 78.3839C122.622 77.5306 122.371 76.8213 121.87 76.2559C121.368 75.6799 120.766 75.3919 120.062 75.3919C119.347 75.3919 118.739 75.6799 118.238 76.2559C117.736 76.8213 117.486 77.5306 117.486 78.3839C117.486 79.2479 117.736 79.9626 118.238 80.5279C118.739 81.0933 119.347 81.3759 120.062 81.3759Z" fill="#908E97"/>
<path d="M126.285 82.4319V74.3519H127.629V75.9839C127.885 75.2906 128.274 74.7946 128.797 74.4959C129.32 74.1866 129.928 74.0693 130.621 74.1439V75.4239C130.216 75.3493 129.832 75.3599 129.469 75.4559C129.106 75.5519 128.786 75.7119 128.509 75.9359C128.242 76.1493 128.029 76.4213 127.869 76.7519C127.709 77.0826 127.629 77.4399 127.629 77.8239V82.4319H126.285Z" fill="#908E97"/>
<path d="M140.375 81.3279C140.898 81.3279 141.367 81.1626 141.783 80.8319C142.199 80.5013 142.503 80.0639 142.695 79.5199H144.071C143.858 80.4159 143.41 81.1519 142.727 81.7279C142.055 82.2933 141.271 82.5759 140.375 82.5759C139.842 82.5759 139.335 82.4693 138.855 82.2559C138.386 82.0426 137.98 81.7546 137.639 81.3919C137.298 81.0186 137.026 80.5759 136.823 80.0639C136.62 79.5413 136.519 78.9759 136.519 78.3679C136.519 77.7706 136.62 77.2159 136.823 76.7039C137.026 76.1919 137.298 75.7546 137.639 75.3919C137.98 75.0186 138.386 74.7253 138.855 74.5119C139.335 74.2986 139.842 74.1919 140.375 74.1919C141.271 74.1919 142.055 74.4799 142.727 75.0559C143.41 75.6213 143.858 76.3519 144.071 77.2479H142.695C142.503 76.7039 142.199 76.2666 141.783 75.9359C141.367 75.6053 140.898 75.4399 140.375 75.4399C139.671 75.4399 139.074 75.7173 138.583 76.2719C138.103 76.8266 137.863 77.5253 137.863 78.3679C137.863 79.2319 138.103 79.9413 138.583 80.4959C139.074 81.0506 139.671 81.3279 140.375 81.3279Z" fill="#908E97"/>
<path d="M149.857 82.5759C149.313 82.5759 148.801 82.4693 148.321 82.2559C147.841 82.0426 147.425 81.7546 147.073 81.3919C146.721 81.0186 146.443 80.5759 146.241 80.0639C146.038 79.5413 145.937 78.9759 145.937 78.3679C145.937 77.7706 146.038 77.2159 146.241 76.7039C146.443 76.1919 146.721 75.7546 147.073 75.3919C147.425 75.0186 147.841 74.7253 148.321 74.5119C148.801 74.2986 149.313 74.1919 149.857 74.1919C150.401 74.1919 150.913 74.2986 151.393 74.5119C151.873 74.7253 152.283 75.0186 152.625 75.3919C152.977 75.7546 153.254 76.1919 153.457 76.7039C153.659 77.2159 153.761 77.7706 153.761 78.3679C153.761 78.9759 153.659 79.5413 153.457 80.0639C153.254 80.5759 152.977 81.0186 152.625 81.3919C152.283 81.7546 151.873 82.0426 151.393 82.2559C150.913 82.4693 150.401 82.5759 149.857 82.5759ZM149.857 81.3759C150.561 81.3759 151.163 81.0933 151.665 80.5279C152.166 79.9626 152.417 79.2479 152.417 78.3839C152.417 77.5306 152.166 76.8213 151.665 76.2559C151.163 75.6799 150.561 75.3919 149.857 75.3919C149.142 75.3919 148.534 75.6799 148.033 76.2559C147.531 76.8213 147.281 77.5306 147.281 78.3839C147.281 79.2479 147.531 79.9626 148.033 80.5279C148.534 81.0933 149.142 81.3759 149.857 81.3759Z" fill="#908E97"/>
<path d="M157.424 77.4399V82.4319H156.08V74.3519H157.424V75.9359C157.627 75.3279 157.947 74.8906 158.384 74.6239C158.832 74.3466 159.307 74.2079 159.808 74.2079C160.256 74.2079 160.656 74.2879 161.008 74.4479C161.36 74.6079 161.659 74.8319 161.904 75.1199C162.149 75.3973 162.336 75.7279 162.464 76.1119C162.592 76.4959 162.656 76.9066 162.656 77.3439V82.4319H161.312V77.4719C161.312 76.8319 161.136 76.3199 160.784 75.9359C160.443 75.5519 160 75.3599 159.456 75.3599C158.859 75.3599 158.368 75.5626 157.984 75.9679C157.611 76.3626 157.424 76.8533 157.424 77.4399Z" fill="#908E97"/>
<path d="M166.434 80.4639V75.5039H164.386V74.3519H166.434V72.4479L167.762 71.9679V74.3519H170.146V75.5039H167.762V80.3999C167.762 80.6773 167.837 80.8906 167.986 81.0399C168.136 81.1786 168.36 81.2479 168.658 81.2479H170.146V82.4319H168.322C167.714 82.4319 167.245 82.2666 166.914 81.9359C166.594 81.5946 166.434 81.1039 166.434 80.4639Z" fill="#908E97"/>
<path d="M172.868 72.9919C172.602 72.9919 172.372 72.8959 172.18 72.7039C171.988 72.5013 171.892 72.2666 171.892 71.9999C171.892 71.7333 171.988 71.4986 172.18 71.2959C172.372 71.0933 172.602 70.9919 172.868 70.9919C173.135 70.9919 173.364 71.0933 173.556 71.2959C173.748 71.4986 173.844 71.7333 173.844 71.9999C173.844 72.2666 173.748 72.5013 173.556 72.7039C173.364 72.8959 173.135 72.9919 172.868 72.9919ZM172.196 82.4319V74.3519H173.54V82.4319H172.196Z" fill="#908E97"/>
<path d="M177.505 77.4399V82.4319H176.161V74.3519H177.505V75.9359C177.707 75.3279 178.027 74.8906 178.465 74.6239C178.913 74.3466 179.387 74.2079 179.889 74.2079C180.337 74.2079 180.737 74.2879 181.089 74.4479C181.441 74.6079 181.739 74.8319 181.985 75.1199C182.23 75.3973 182.417 75.7279 182.545 76.1119C182.673 76.4959 182.737 76.9066 182.737 77.3439V82.4319H181.393V77.4719C181.393 76.8319 181.217 76.3199 180.865 75.9359C180.523 75.5519 180.081 75.3599 179.537 75.3599C178.939 75.3599 178.449 75.5626 178.065 75.9679C177.691 76.3626 177.505 76.8533 177.505 77.4399Z" fill="#908E97"/>
<path d="M190.591 82.4319V80.8479C190.389 81.4559 190.063 81.8986 189.615 82.1759C189.178 82.4426 188.709 82.5759 188.207 82.5759C187.759 82.5759 187.359 82.4959 187.007 82.3359C186.655 82.1759 186.357 81.9573 186.111 81.6799C185.866 81.3919 185.679 81.0559 185.551 80.6719C185.423 80.2879 185.359 79.8773 185.359 79.4399V74.3519H186.703V79.3119C186.703 79.9519 186.874 80.4639 187.215 80.8479C187.567 81.2319 188.015 81.4239 188.559 81.4239C189.157 81.4239 189.642 81.2266 190.015 80.8319C190.399 80.4266 190.591 79.9306 190.591 79.3439V74.3519H191.935V82.4319H190.591Z" fill="#908E97"/>
<path d="M198.174 82.5759C197.63 82.5759 197.118 82.4693 196.638 82.2559C196.158 82.0426 195.742 81.7546 195.39 81.3919C195.038 81.0186 194.761 80.5759 194.558 80.0639C194.355 79.5413 194.254 78.9759 194.254 78.3679C194.254 77.7706 194.35 77.2159 194.542 76.7039C194.745 76.1919 195.017 75.7546 195.358 75.3919C195.71 75.0186 196.121 74.7253 196.59 74.5119C197.059 74.2986 197.561 74.1919 198.094 74.1919C198.606 74.1919 199.091 74.2986 199.55 74.5119C200.009 74.7146 200.409 75.0079 200.75 75.3919C201.091 75.7759 201.363 76.2559 201.566 76.8319C201.769 77.3973 201.87 78.0373 201.87 78.7519V78.8479H195.63C195.726 79.5946 196.014 80.2026 196.494 80.6719C196.974 81.1413 197.534 81.3759 198.174 81.3759C198.579 81.3759 198.953 81.2799 199.294 81.0879C199.646 80.8853 199.929 80.6186 200.142 80.2879H201.646C201.358 80.9813 200.899 81.5359 200.27 81.9519C199.651 82.3679 198.953 82.5759 198.174 82.5759ZM198.078 75.4079C197.481 75.4079 196.953 75.6266 196.494 76.0639C196.046 76.5013 195.763 77.0613 195.646 77.7439H200.462C200.355 77.0613 200.078 76.5013 199.63 76.0639C199.182 75.6266 198.665 75.4079 198.078 75.4079Z" fill="#908E97"/>
<path d="M214.94 82.4959L212.812 76.6079L210.7 82.4959H210.108L207.516 74.3519H208.892L210.556 79.8719L212.54 74.3039H213.196L215.18 79.8399L216.828 74.3519H218.092L215.532 82.4959H214.94Z" fill="#908E97"/>
<path d="M220.623 72.9919C220.357 72.9919 220.127 72.8959 219.935 72.7039C219.743 72.5013 219.647 72.2666 219.647 71.9999C219.647 71.7333 219.743 71.4986 219.935 71.2959C220.127 71.0933 220.357 70.9919 220.623 70.9919C220.89 70.9919 221.119 71.0933 221.311 71.2959C221.503 71.4986 221.599 71.7333 221.599 71.9999C221.599 72.2666 221.503 72.5013 221.311 72.7039C221.119 72.8959 220.89 72.9919 220.623 72.9919ZM219.951 82.4319V74.3519H221.295V82.4319H219.951Z" fill="#908E97"/>
<path d="M225.228 80.4639V75.5039H223.18V74.3519H225.228V72.4479L226.556 71.9679V74.3519H228.94V75.5039H226.556V80.3999C226.556 80.6773 226.63 80.8906 226.78 81.0399C226.929 81.1786 227.153 81.2479 227.452 81.2479H228.94V82.4319H227.116C226.508 82.4319 226.038 82.2666 225.708 81.9359C225.388 81.5946 225.228 81.1039 225.228 80.4639Z" fill="#908E97"/>
<path d="M232.333 77.4399V82.4319H230.989V70.7839H232.333V75.9359C232.536 75.3279 232.856 74.8906 233.293 74.6239C233.741 74.3466 234.216 74.2079 234.717 74.2079C235.165 74.2079 235.565 74.2879 235.917 74.4479C236.269 74.6079 236.568 74.8319 236.813 75.1199C237.059 75.3973 237.245 75.7279 237.373 76.1119C237.501 76.4959 237.565 76.9066 237.565 77.3439V82.4319H236.221V77.4719C236.221 76.8319 236.045 76.3199 235.693 75.9359C235.352 75.5519 234.909 75.3599 234.365 75.3599C233.768 75.3599 233.277 75.5626 232.893 75.9679C232.52 76.3626 232.333 76.8533 232.333 77.4399Z" fill="#908E97"/>
<path d="M51.5 126.576C51.5 117.739 58.6634 110.576 67.5 110.576H99.5C108.337 110.576 115.5 117.739 115.5 126.576V158.576C115.5 167.413 108.337 174.576 99.5 174.576H67.5C58.6634 174.576 51.5 167.413 51.5 158.576V126.576Z" fill="white"/>
<path fill-rule="evenodd" clip-rule="evenodd" d="M87.4952 131.243C87.69 132.539 87.1525 133.808 86.4456 134.706C85.6881 135.669 84.3828 136.414 83.122 136.375C82.8915 135.135 83.4825 133.858 84.1993 132.997C84.9881 132.049 86.3396 131.321 87.4952 131.243ZM91.2925 149.481C91.9441 148.5 92.1866 148.004 92.6928 146.894C89.0149 145.518 88.4238 140.374 92.0639 138.401C90.9527 137.03 89.3937 136.237 87.9227 136.237C86.8602 136.237 86.1325 136.509 85.4712 136.757C84.9205 136.963 84.4159 137.152 83.8023 137.152C83.1392 137.152 82.5519 136.945 81.9367 136.728C81.2601 136.489 80.5497 136.238 79.6677 136.238C78.0139 136.238 76.2553 137.233 75.1405 138.932C73.5716 141.322 73.8374 145.819 76.3813 149.65C77.291 151.021 78.5059 152.561 80.0945 152.576C80.7526 152.582 81.1908 152.389 81.6652 152.179C82.2086 151.94 82.7993 151.679 83.8223 151.674C84.851 151.668 85.4318 151.932 85.9677 152.175C86.4298 152.384 86.8585 152.579 87.5123 152.573C89.1008 152.558 90.3828 150.851 91.2925 149.481Z" fill="#141724"/>
<path d="M131.5 126.576C131.5 117.739 138.663 110.576 147.5 110.576H179.5C188.337 110.576 195.5 117.739 195.5 126.576V158.576C195.5 167.413 188.337 174.576 179.5 174.576H147.5C138.663 174.576 131.5 167.413 131.5 158.576V126.576Z" fill="#1877F2"/>
<path fill-rule="evenodd" clip-rule="evenodd" d="M160.851 136.449V139.203H158.833V142.57H160.851V152.576H164.996V142.57H167.776C167.776 142.57 168.037 140.956 168.163 139.19H165.011V136.888C165.011 136.544 165.462 136.081 165.91 136.081H168.167V132.576H165.097C160.748 132.576 160.851 135.946 160.851 136.449" fill="white"/>
<path d="M211.5 126.576C211.5 117.739 218.663 110.576 227.5 110.576H259.5C268.337 110.576 275.5 117.739 275.5 126.576V158.576C275.5 167.413 268.337 174.576 259.5 174.576H227.5C218.663 174.576 211.5 167.413 211.5 158.576V126.576Z" fill="white"/>
<path d="M243.5 136.034C245.503 136.034 246.854 136.899 247.625 137.622L250.635 134.683C248.786 132.964 246.38 131.909 243.5 131.909C239.328 131.909 235.725 134.303 233.971 137.788L237.42 140.466C238.285 137.895 240.679 136.034 243.5 136.034V136.034Z" fill="#EA4335"/>
<path d="M253.739 142.813C253.739 141.936 253.667 141.296 253.513 140.632H243.499V144.591H249.377C249.259 145.575 248.619 147.056 247.196 148.052L250.562 150.659C252.577 148.798 253.739 146.06 253.739 142.813V142.813Z" fill="#4285F4"/>
<path d="M237.432 144.686C237.207 144.022 237.076 143.311 237.076 142.576C237.076 141.841 237.207 141.13 237.42 140.466L233.971 137.788C233.248 139.234 232.833 140.857 232.833 142.576C232.833 144.295 233.248 145.918 233.971 147.364L237.432 144.686V144.686Z" fill="#FBBC05"/>
<path d="M243.5 153.243C246.38 153.243 248.798 152.295 250.564 150.659L247.198 148.052C246.297 148.68 245.089 149.119 243.5 149.119C240.68 149.119 238.286 147.258 237.432 144.686L233.983 147.364C235.737 150.849 239.329 153.243 243.5 153.243V153.243Z" fill="#34A853"/>
<path d="M34.8984 209.952V198.688H35.3624L42.5144 207.04V198.752H43.8264V210.016H43.3784L36.2104 201.616V209.952H34.8984Z" fill="#5288FD"/>
<path d="M50.1644 210.096C49.6204 210.096 49.1084 209.989 48.6284 209.776C48.1484 209.563 47.7324 209.275 47.3804 208.912C47.0284 208.539 46.7511 208.096 46.5484 207.584C46.3458 207.061 46.2444 206.496 46.2444 205.888C46.2444 205.291 46.3404 204.736 46.5324 204.224C46.7351 203.712 47.0071 203.275 47.3484 202.912C47.7004 202.539 48.1111 202.245 48.5804 202.032C49.0498 201.819 49.5511 201.712 50.0844 201.712C50.5964 201.712 51.0818 201.819 51.5404 202.032C51.9991 202.235 52.3991 202.528 52.7404 202.912C53.0818 203.296 53.3538 203.776 53.5564 204.352C53.7591 204.917 53.8604 205.557 53.8604 206.272V206.368H47.6204C47.7164 207.115 48.0044 207.723 48.4844 208.192C48.9644 208.661 49.5244 208.896 50.1644 208.896C50.5698 208.896 50.9431 208.8 51.2844 208.608C51.6364 208.405 51.9191 208.139 52.1324 207.808H53.6364C53.3484 208.501 52.8898 209.056 52.2604 209.472C51.6418 209.888 50.9431 210.096 50.1644 210.096ZM50.0684 202.928C49.4711 202.928 48.9431 203.147 48.4844 203.584C48.0364 204.021 47.7538 204.581 47.6364 205.264H52.4524C52.3458 204.581 52.0684 204.021 51.6204 203.584C51.1724 203.147 50.6551 202.928 50.0684 202.928Z" fill="#5288FD"/>
<path d="M62.5282 210.016L60.4002 204.128L58.2882 210.016H57.6962L55.1042 201.872H56.4802L58.1442 207.392L60.1282 201.824H60.7842L62.7682 207.36L64.4162 201.872H65.6802L63.1202 210.016H62.5282Z" fill="#5288FD"/>
<path d="M72.9411 207.984V203.024H70.8931V201.872H72.9411V199.968L74.2691 199.488V201.872H76.6531V203.024H74.2691V207.92C74.2691 208.197 74.3437 208.411 74.4931 208.56C74.6424 208.699 74.8664 208.768 75.1651 208.768H76.6531V209.952H74.8291C74.2211 209.952 73.7517 209.787 73.4211 209.456C73.1011 209.115 72.9411 208.624 72.9411 207.984Z" fill="#5288FD"/>
<path d="M82.1626 210.096C81.6186 210.096 81.1066 209.989 80.6266 209.776C80.1466 209.563 79.7306 209.275 79.3786 208.912C79.0266 208.539 78.7492 208.096 78.5466 207.584C78.3439 207.061 78.2426 206.496 78.2426 205.888C78.2426 205.291 78.3439 204.736 78.5466 204.224C78.7492 203.712 79.0266 203.275 79.3786 202.912C79.7306 202.539 80.1466 202.245 80.6266 202.032C81.1066 201.819 81.6186 201.712 82.1626 201.712C82.7066 201.712 83.2186 201.819 83.6986 202.032C84.1786 202.245 84.5892 202.539 84.9306 202.912C85.2826 203.275 85.5599 203.712 85.7626 204.224C85.9652 204.736 86.0666 205.291 86.0666 205.888C86.0666 206.496 85.9652 207.061 85.7626 207.584C85.5599 208.096 85.2826 208.539 84.9306 208.912C84.5892 209.275 84.1786 209.563 83.6986 209.776C83.2186 209.989 82.7066 210.096 82.1626 210.096ZM82.1626 208.896C82.8666 208.896 83.4692 208.613 83.9706 208.048C84.4719 207.483 84.7226 206.768 84.7226 205.904C84.7226 205.051 84.4719 204.341 83.9706 203.776C83.4692 203.2 82.8666 202.912 82.1626 202.912C81.4479 202.912 80.8399 203.2 80.3386 203.776C79.8372 204.341 79.5866 205.051 79.5866 205.904C79.5866 206.768 79.8372 207.483 80.3386 208.048C80.8399 208.613 81.4479 208.896 82.1626 208.896Z" fill="#5288FD"/>
<path d="M99.8513 209.952H92.5553V198.752H99.8513V200H93.9633V203.616H98.4753V204.864H93.9633V208.704H99.8513V209.952Z" fill="#5288FD"/>
<path d="M110.283 209.952L109.099 207.248H103.883L102.699 209.952H101.243L106.379 198.592H106.715L111.851 209.952H110.283ZM104.411 206.032H108.571L106.491 201.28L104.411 206.032Z" fill="#5288FD"/>
<path d="M117.837 201.744C117.837 202.139 117.773 202.517 117.645 202.88C117.517 203.232 117.331 203.552 117.085 203.84C116.851 204.117 116.557 204.352 116.205 204.544C115.853 204.725 115.448 204.843 114.989 204.896L114.861 206.8H113.933L113.805 204H114.301C115.016 204 115.576 203.781 115.981 203.344C116.387 202.907 116.589 202.395 116.589 201.808C116.589 201.253 116.392 200.757 115.997 200.32C115.603 199.883 115.053 199.664 114.349 199.664C113.677 199.664 113.139 199.877 112.733 200.304C112.339 200.72 112.109 201.291 112.045 202.016H110.909C110.92 201.547 111.011 201.104 111.181 200.688C111.352 200.272 111.587 199.909 111.885 199.6C112.184 199.291 112.547 199.045 112.973 198.864C113.4 198.683 113.875 198.592 114.397 198.592C114.952 198.592 115.443 198.677 115.869 198.848C116.296 199.019 116.653 199.253 116.941 199.552C117.24 199.84 117.464 200.176 117.613 200.56C117.763 200.933 117.837 201.328 117.837 201.744ZM114.349 210.032C114.093 210.032 113.875 209.941 113.693 209.76C113.523 209.568 113.437 209.344 113.437 209.088C113.437 208.832 113.523 208.613 113.693 208.432C113.875 208.24 114.093 208.144 114.349 208.144C114.605 208.144 114.824 208.24 115.005 208.432C115.197 208.613 115.293 208.832 115.293 209.088C115.293 209.344 115.197 209.568 115.005 209.76C114.824 209.941 114.605 210.032 114.349 210.032Z" fill="#5288FD"/>
<path d="M129.426 208.832C130.322 208.832 131.127 208.555 131.842 208C132.556 207.445 133.047 206.704 133.314 205.776H134.754C134.604 206.437 134.359 207.04 134.018 207.584C133.687 208.117 133.287 208.571 132.818 208.944C132.348 209.317 131.82 209.611 131.234 209.824C130.658 210.027 130.055 210.128 129.426 210.128C128.679 210.128 127.97 209.989 127.298 209.712C126.626 209.424 126.039 209.029 125.538 208.528C125.036 208.016 124.636 207.408 124.338 206.704C124.05 205.989 123.906 205.205 123.906 204.352C123.906 203.499 124.05 202.72 124.338 202.016C124.636 201.301 125.036 200.693 125.538 200.192C126.039 199.68 126.626 199.285 127.298 199.008C127.97 198.72 128.679 198.576 129.426 198.576C130.055 198.576 130.658 198.683 131.234 198.896C131.82 199.099 132.348 199.387 132.818 199.76C133.287 200.133 133.687 200.592 134.018 201.136C134.359 201.669 134.604 202.267 134.754 202.928H133.314C133.047 202 132.556 201.259 131.842 200.704C131.127 200.149 130.322 199.872 129.426 199.872C128.871 199.872 128.343 199.984 127.842 200.208C127.34 200.421 126.903 200.725 126.53 201.12C126.156 201.515 125.858 201.989 125.634 202.544C125.42 203.088 125.314 203.691 125.314 204.352C125.314 205.013 125.42 205.621 125.634 206.176C125.858 206.72 126.156 207.189 126.53 207.584C126.903 207.979 127.34 208.288 127.842 208.512C128.343 208.725 128.871 208.832 129.426 208.832Z" fill="#5288FD"/>
<path d="M137.094 209.952V201.872H138.438V203.504C138.694 202.811 139.083 202.315 139.606 202.016C140.129 201.707 140.737 201.589 141.43 201.664V202.944C141.025 202.869 140.641 202.88 140.278 202.976C139.915 203.072 139.595 203.232 139.318 203.456C139.051 203.669 138.838 203.941 138.678 204.272C138.518 204.603 138.438 204.96 138.438 205.344V209.952H137.094Z" fill="#5288FD"/>
<path d="M146.518 210.096C145.974 210.096 145.462 209.989 144.982 209.776C144.502 209.563 144.086 209.275 143.734 208.912C143.382 208.539 143.105 208.096 142.902 207.584C142.7 207.061 142.598 206.496 142.598 205.888C142.598 205.291 142.694 204.736 142.886 204.224C143.089 203.712 143.361 203.275 143.702 202.912C144.054 202.539 144.465 202.245 144.934 202.032C145.404 201.819 145.905 201.712 146.438 201.712C146.95 201.712 147.436 201.819 147.894 202.032C148.353 202.235 148.753 202.528 149.094 202.912C149.436 203.296 149.708 203.776 149.91 204.352C150.113 204.917 150.214 205.557 150.214 206.272V206.368H143.974C144.07 207.115 144.358 207.723 144.838 208.192C145.318 208.661 145.878 208.896 146.518 208.896C146.924 208.896 147.297 208.8 147.638 208.608C147.99 208.405 148.273 208.139 148.486 207.808H149.99C149.702 208.501 149.244 209.056 148.614 209.472C147.996 209.888 147.297 210.096 146.518 210.096ZM146.422 202.928C145.825 202.928 145.297 203.147 144.838 203.584C144.39 204.021 144.108 204.581 143.99 205.264H148.806C148.7 204.581 148.422 204.021 147.974 203.584C147.526 203.147 147.009 202.928 146.422 202.928Z" fill="#5288FD"/>
<path d="M157.482 209.952V208.544C157.269 209.013 156.928 209.392 156.458 209.68C156 209.957 155.456 210.096 154.826 210.096C154.058 210.096 153.424 209.883 152.922 209.456C152.432 209.019 152.186 208.464 152.186 207.792C152.186 207.152 152.426 206.635 152.906 206.24C153.386 205.835 154.042 205.6 154.874 205.536L157.482 205.344V204.928C157.482 204.341 157.301 203.856 156.938 203.472C156.586 203.077 156.144 202.88 155.61 202.88C155.045 202.88 154.597 203.024 154.266 203.312C153.946 203.589 153.733 203.979 153.626 204.48H152.298C152.384 203.669 152.736 203.008 153.354 202.496C153.973 201.973 154.73 201.712 155.626 201.712C156.618 201.712 157.397 202.016 157.962 202.624C158.528 203.221 158.81 203.984 158.81 204.912V209.952H157.482ZM153.514 207.792C153.514 208.133 153.658 208.421 153.946 208.656C154.234 208.88 154.613 208.992 155.082 208.992C155.733 208.992 156.293 208.789 156.762 208.384C157.242 207.979 157.482 207.504 157.482 206.96V206.384L155.13 206.56C154.629 206.603 154.234 206.731 153.946 206.944C153.658 207.147 153.514 207.429 153.514 207.792Z" fill="#5288FD"/>
<path d="M162.596 207.984V203.024H160.548V201.872H162.596V199.968L163.924 199.488V201.872H166.308V203.024H163.924V207.92C163.924 208.197 163.999 208.411 164.148 208.56C164.297 208.699 164.521 208.768 164.82 208.768H166.308V209.952H164.484C163.876 209.952 163.407 209.787 163.076 209.456C162.756 209.115 162.596 208.624 162.596 207.984Z" fill="#5288FD"/>
<path d="M171.818 210.096C171.274 210.096 170.762 209.989 170.282 209.776C169.802 209.563 169.386 209.275 169.034 208.912C168.682 208.539 168.404 208.096 168.202 207.584C167.999 207.061 167.898 206.496 167.898 205.888C167.898 205.291 167.994 204.736 168.186 204.224C168.388 203.712 168.66 203.275 169.002 202.912C169.354 202.539 169.764 202.245 170.234 202.032C170.703 201.819 171.204 201.712 171.738 201.712C172.25 201.712 172.735 201.819 173.194 202.032C173.652 202.235 174.052 202.528 174.394 202.912C174.735 203.296 175.007 203.776 175.21 204.352C175.412 204.917 175.514 205.557 175.514 206.272V206.368H169.274C169.37 207.115 169.658 207.723 170.138 208.192C170.618 208.661 171.178 208.896 171.818 208.896C172.223 208.896 172.596 208.8 172.938 208.608C173.29 208.405 173.572 208.139 173.786 207.808H175.29C175.002 208.501 174.543 209.056 173.914 209.472C173.295 209.888 172.596 210.096 171.818 210.096ZM171.722 202.928C171.124 202.928 170.596 203.147 170.138 203.584C169.69 204.021 169.407 204.581 169.29 205.264H174.106C173.999 204.581 173.722 204.021 173.274 203.584C172.826 203.147 172.308 202.928 171.722 202.928Z" fill="#5288FD"/>
<path d="M186.871 209.952V208.544C186.658 209.013 186.317 209.392 185.847 209.68C185.389 209.957 184.845 210.096 184.215 210.096C183.447 210.096 182.813 209.883 182.311 209.456C181.821 209.019 181.575 208.464 181.575 207.792C181.575 207.152 181.815 206.635 182.295 206.24C182.775 205.835 183.431 205.6 184.263 205.536L186.871 205.344V204.928C186.871 204.341 186.69 203.856 186.327 203.472C185.975 203.077 185.533 202.88 184.999 202.88C184.434 202.88 183.986 203.024 183.655 203.312C183.335 203.589 183.122 203.979 183.015 204.48H181.687C181.773 203.669 182.125 203.008 182.743 202.496C183.362 201.973 184.119 201.712 185.015 201.712C186.007 201.712 186.786 202.016 187.351 202.624C187.917 203.221 188.199 203.984 188.199 204.912V209.952H186.871ZM182.903 207.792C182.903 208.133 183.047 208.421 183.335 208.656C183.623 208.88 184.002 208.992 184.471 208.992C185.122 208.992 185.682 208.789 186.151 208.384C186.631 207.979 186.871 207.504 186.871 206.96V206.384L184.519 206.56C184.018 206.603 183.623 206.731 183.335 206.944C183.047 207.147 182.903 207.429 182.903 207.792Z" fill="#5288FD"/>
<path d="M192.173 204.96V209.952H190.829V201.872H192.173V203.456C192.376 202.848 192.696 202.411 193.133 202.144C193.581 201.867 194.056 201.728 194.557 201.728C195.005 201.728 195.405 201.808 195.757 201.968C196.109 202.128 196.408 202.352 196.653 202.64C196.898 202.917 197.085 203.248 197.213 203.632C197.341 204.016 197.405 204.427 197.405 204.864V209.952H196.061V204.992C196.061 204.352 195.885 203.84 195.533 203.456C195.192 203.072 194.749 202.88 194.205 202.88C193.608 202.88 193.117 203.083 192.733 203.488C192.36 203.883 192.173 204.373 192.173 204.96Z" fill="#5288FD"/>
<path d="M211.493 209.952H204.197V198.752H211.493V200H205.605V203.616H210.117V204.864H205.605V208.704H211.493V209.952Z" fill="#5288FD"/>
<path d="M221.925 209.952L220.741 207.248H215.525L214.341 209.952H212.885L218.021 198.592H218.357L223.493 209.952H221.925ZM216.053 206.032H220.213L218.133 201.28L216.053 206.032Z" fill="#5288FD"/>
<path d="M237.167 209.952L235.983 207.248H230.767L229.583 209.952H228.127L233.263 198.592H233.599L238.735 209.952H237.167ZM231.295 206.032H235.455L233.375 201.28L231.295 206.032Z" fill="#5288FD"/>
<path d="M243.714 208.848C244.237 208.848 244.706 208.683 245.122 208.352C245.538 208.021 245.842 207.584 246.034 207.04H247.41C247.197 207.936 246.749 208.672 246.066 209.248C245.394 209.813 244.61 210.096 243.714 210.096C243.181 210.096 242.674 209.989 242.194 209.776C241.725 209.563 241.32 209.275 240.978 208.912C240.637 208.539 240.365 208.096 240.162 207.584C239.96 207.061 239.858 206.496 239.858 205.888C239.858 205.291 239.96 204.736 240.162 204.224C240.365 203.712 240.637 203.275 240.978 202.912C241.32 202.539 241.725 202.245 242.194 202.032C242.674 201.819 243.181 201.712 243.714 201.712C244.61 201.712 245.394 202 246.066 202.576C246.749 203.141 247.197 203.872 247.41 204.768H246.034C245.842 204.224 245.538 203.787 245.122 203.456C244.706 203.125 244.237 202.96 243.714 202.96C243.01 202.96 242.413 203.237 241.922 203.792C241.442 204.347 241.202 205.045 241.202 205.888C241.202 206.752 241.442 207.461 241.922 208.016C242.413 208.571 243.01 208.848 243.714 208.848Z" fill="#5288FD"/>
<path d="M253.132 208.848C253.654 208.848 254.124 208.683 254.54 208.352C254.956 208.021 255.26 207.584 255.452 207.04H256.828C256.614 207.936 256.166 208.672 255.484 209.248C254.812 209.813 254.028 210.096 253.132 210.096C252.598 210.096 252.092 209.989 251.612 209.776C251.142 209.563 250.737 209.275 250.396 208.912C250.054 208.539 249.782 208.096 249.58 207.584C249.377 207.061 249.276 206.496 249.276 205.888C249.276 205.291 249.377 204.736 249.58 204.224C249.782 203.712 250.054 203.275 250.396 202.912C250.737 202.539 251.142 202.245 251.612 202.032C252.092 201.819 252.598 201.712 253.132 201.712C254.028 201.712 254.812 202 255.484 202.576C256.166 203.141 256.614 203.872 256.828 204.768H255.452C255.26 204.224 254.956 203.787 254.54 203.456C254.124 203.125 253.654 202.96 253.132 202.96C252.428 202.96 251.83 203.237 251.34 203.792C250.86 204.347 250.62 205.045 250.62 205.888C250.62 206.752 250.86 207.461 251.34 208.016C251.83 208.571 252.428 208.848 253.132 208.848Z" fill="#5288FD"/>
<path d="M262.613 210.096C262.069 210.096 261.557 209.989 261.077 209.776C260.597 209.563 260.181 209.275 259.829 208.912C259.477 208.539 259.2 208.096 258.997 207.584C258.795 207.061 258.693 206.496 258.693 205.888C258.693 205.291 258.795 204.736 258.997 204.224C259.2 203.712 259.477 203.275 259.829 202.912C260.181 202.539 260.597 202.245 261.077 202.032C261.557 201.819 262.069 201.712 262.613 201.712C263.157 201.712 263.669 201.819 264.149 202.032C264.629 202.245 265.04 202.539 265.381 202.912C265.733 203.275 266.011 203.712 266.213 204.224C266.416 204.736 266.517 205.291 266.517 205.888C266.517 206.496 266.416 207.061 266.213 207.584C266.011 208.096 265.733 208.539 265.381 208.912C265.04 209.275 264.629 209.563 264.149 209.776C263.669 209.989 263.157 210.096 262.613 210.096ZM262.613 208.896C263.317 208.896 263.92 208.613 264.421 208.048C264.923 207.483 265.173 206.768 265.173 205.904C265.173 205.051 264.923 204.341 264.421 203.776C263.92 203.2 263.317 202.912 262.613 202.912C261.899 202.912 261.291 203.2 260.789 203.776C260.288 204.341 260.037 205.051 260.037 205.904C260.037 206.768 260.288 207.483 260.789 208.048C261.291 208.613 261.899 208.896 262.613 208.896Z" fill="#5288FD"/>
<path d="M274.069 209.952V208.368C273.866 208.976 273.541 209.419 273.093 209.696C272.655 209.963 272.186 210.096 271.685 210.096C271.237 210.096 270.837 210.016 270.485 209.856C270.133 209.696 269.834 209.477 269.589 209.2C269.343 208.912 269.157 208.576 269.029 208.192C268.901 207.808 268.837 207.397 268.837 206.96V201.872H270.181V206.832C270.181 207.472 270.351 207.984 270.693 208.368C271.045 208.752 271.493 208.944 272.037 208.944C272.634 208.944 273.119 208.747 273.493 208.352C273.877 207.947 274.069 207.451 274.069 206.864V201.872H275.413V209.952H274.069Z" fill="#5288FD"/>
<path d="M279.379 204.96V209.952H278.035V201.872H279.379V203.456C279.582 202.848 279.902 202.411 280.339 202.144C280.787 201.867 281.262 201.728 281.763 201.728C282.211 201.728 282.611 201.808 282.963 201.968C283.315 202.128 283.614 202.352 283.859 202.64C284.105 202.917 284.291 203.248 284.419 203.632C284.547 204.016 284.611 204.427 284.611 204.864V209.952H283.267V204.992C283.267 204.352 283.091 203.84 282.739 203.456C282.398 203.072 281.955 202.88 281.411 202.88C280.814 202.88 280.323 203.083 279.939 203.488C279.566 203.883 279.379 204.373 279.379 204.96Z" fill="#5288FD"/>
<path d="M288.39 207.984V203.024H286.342V201.872H288.39V199.968L289.718 199.488V201.872H292.102V203.024H289.718V207.92C289.718 208.197 289.792 208.411 289.942 208.56C290.091 208.699 290.315 208.768 290.614 208.768H292.102V209.952H290.278C289.67 209.952 289.2 209.787 288.87 209.456C288.55 209.115 288.39 208.624 288.39 207.984Z" fill="#5288FD"/>
</g>
<defs>
<clipPath id="clip0">
<rect width="327" height="210.128" fill="white"/>
</clipPath>
</defs>
</svg>
