<svg width="38" height="22" viewBox="0 0 38 22" fill="none" xmlns="http://www.w3.org/2000/svg">
<rect x="0.666504" width="36.6667" height="22" rx="4" fill="white"/>
<path fill-rule="evenodd" clip-rule="evenodd" d="M21.2471 11.178C21.2471 15.13 18.0436 18.3333 14.0917 18.3333C10.1397 18.3333 6.93604 15.13 6.93604 11.178C6.93604 7.22606 10.1397 4.0224 14.0917 4.0224C18.0436 4.0224 21.2471 7.22606 21.2471 11.178" fill="#CC0000"/>
<path fill-rule="evenodd" clip-rule="evenodd" d="M23.6985 4.0224C21.8492 4.0224 20.1648 4.72383 18.8946 5.87453C18.6363 6.10906 18.3951 6.36236 18.1724 6.63206H19.6181C19.8156 6.87246 19.9975 7.1252 20.1636 7.38992H17.6268C17.475 7.63315 17.3371 7.88589 17.2145 8.14778H20.5757C20.6906 8.39305 20.7917 8.64567 20.8787 8.9053H16.9115C16.8289 9.15204 16.7592 9.40489 16.7036 9.66271H21.0864C21.1913 10.1512 21.2472 10.658 21.2472 11.178C21.2472 11.9724 21.1177 12.737 20.8787 13.4511H16.9115C16.9985 13.7105 17.0996 13.9635 17.2143 14.2091H20.5757C20.4529 14.4703 20.3156 14.7233 20.163 14.9668H17.6268C17.7922 15.2308 17.9745 15.4838 18.1724 15.7239H19.6177C19.3955 15.9938 19.1541 16.2471 18.8949 16.4816C20.1649 17.6323 21.8492 18.3333 23.6985 18.3333C27.6503 18.3333 30.8539 15.13 30.8539 11.178C30.8539 7.2264 27.6503 4.0224 23.6985 4.0224" fill="#FF9900"/>
<path fill-rule="evenodd" clip-rule="evenodd" d="M12.4208 11.9614C12.3392 11.9521 12.3033 11.9492 12.2473 11.9492C11.807 11.9492 11.5843 12.1003 11.5843 12.3987C11.5843 12.5824 11.693 12.6992 11.8626 12.6992C12.1791 12.6992 12.4072 12.398 12.4208 11.9614V11.9614ZM12.9858 13.2766C12.8822 13.2766 12.3419 13.2766 12.3419 13.2766L12.3568 12.9707C12.1605 13.2123 11.8984 13.3276 11.5426 13.3276C11.1217 13.3276 10.833 12.999 10.833 12.5215C10.833 11.8026 11.335 11.3834 12.1968 11.3834C12.2851 11.3834 12.3979 11.3916 12.5135 11.4062C12.5375 11.3087 12.5438 11.2673 12.5438 11.2147C12.5438 11.0193 12.4085 10.946 12.0457 10.946C11.6656 10.9422 11.3522 11.0368 11.2234 11.0791C11.2315 11.0301 11.3311 10.4152 11.3311 10.4152C11.7181 10.3015 11.9734 10.259 12.2608 10.259C12.9279 10.259 13.2813 10.5584 13.2805 11.1245C13.2819 11.2764 13.2566 11.463 13.2176 11.7093C13.1502 12.1368 13.0055 13.0535 12.9858 13.2766V13.2766Z" fill="#000066"/>
<path fill-rule="evenodd" clip-rule="evenodd" d="M10.5077 13.2766H9.73073L10.176 10.4867L9.18218 13.2766H8.65285L8.58738 10.5023L8.11968 13.2766H7.39258L7.99993 9.64709H9.11705L9.18455 11.6787L9.86609 9.64709H11.1085L10.5077 13.2766" fill="#000066"/>
<path fill-rule="evenodd" clip-rule="evenodd" d="M24.6581 11.9614C24.5766 11.9521 24.5411 11.9492 24.4852 11.9492C24.0445 11.9492 23.8221 12.1003 23.8221 12.3987C23.8221 12.5824 23.9303 12.6992 24.1004 12.6992C24.4167 12.6992 24.6449 12.398 24.6581 11.9614V11.9614ZM25.2235 13.2766C25.1197 13.2766 24.5799 13.2766 24.5799 13.2766L24.5944 12.9707C24.3981 13.2123 24.1362 13.3276 23.7806 13.3276C23.3592 13.3276 23.0708 12.999 23.0708 12.5215C23.0708 11.8026 23.573 11.3834 24.4345 11.3834C24.5227 11.3834 24.6354 11.3916 24.7511 11.4062C24.7751 11.3087 24.7814 11.2673 24.7814 11.2147C24.7814 11.0193 24.6461 10.946 24.2832 10.946C23.9032 10.9422 23.5898 11.0368 23.4606 11.0791C23.4692 11.0301 23.569 10.4152 23.569 10.4152C23.9558 10.3015 24.2113 10.259 24.4982 10.259C25.1658 10.259 25.5188 10.5584 25.5181 11.1245C25.5194 11.2764 25.4944 11.463 25.4552 11.7093C25.388 12.1368 25.243 13.0535 25.2235 13.2766V13.2766Z" fill="#000066"/>
<path fill-rule="evenodd" clip-rule="evenodd" d="M16.4379 13.2317C16.2252 13.2987 16.0596 13.3276 15.8798 13.3276C15.4827 13.3276 15.266 13.0994 15.266 12.6791C15.2604 12.5486 15.3231 12.2054 15.3724 11.8924C15.4174 11.6166 15.7094 9.87811 15.7094 9.87811H16.4814L16.3912 10.3249H16.8577L16.7524 11.0344H16.2844C16.1947 11.5956 16.0668 12.2949 16.0653 12.3876C16.0653 12.5398 16.1465 12.6063 16.3314 12.6063C16.4199 12.6063 16.4885 12.5972 16.5408 12.5785L16.4379 13.2317" fill="#000066"/>
<path fill-rule="evenodd" clip-rule="evenodd" d="M18.8056 13.2079C18.5403 13.2889 18.2846 13.3285 18.0134 13.3276C17.1489 13.3265 16.6982 12.8753 16.6982 12.0108C16.6982 11.0019 17.2714 10.259 18.0498 10.259C18.6863 10.259 19.093 10.6749 19.093 11.3269C19.093 11.5437 19.0652 11.7549 18.9977 12.053H17.4601C17.4082 12.4812 17.682 12.6595 18.1315 12.6595C18.4076 12.6595 18.657 12.6026 18.9342 12.474L18.8056 13.2079V13.2079ZM18.3716 11.4581C18.376 11.3964 18.4534 10.9311 18.012 10.9311C17.7664 10.9311 17.5903 11.1186 17.519 11.4581H18.3716V11.4581Z" fill="#000066"/>
<path fill-rule="evenodd" clip-rule="evenodd" d="M13.4518 11.2581C13.4518 11.6312 13.6328 11.8887 14.0432 12.0822C14.3577 12.2302 14.4067 12.2739 14.4067 12.4079C14.4067 12.5917 14.2678 12.6751 13.9606 12.6751C13.7287 12.6751 13.5131 12.6387 13.2645 12.5583C13.2645 12.5583 13.1626 13.2092 13.1577 13.2403C13.3342 13.2785 13.4916 13.3142 13.9661 13.3276C14.7857 13.3276 15.1643 13.0155 15.1643 12.341C15.1643 11.9355 15.006 11.6975 14.6168 11.5183C14.2912 11.369 14.2536 11.3355 14.2536 11.1978C14.2536 11.0382 14.3828 10.9567 14.6337 10.9567C14.7863 10.9567 14.9945 10.973 15.192 11.0009L15.3025 10.3163C15.1014 10.2843 14.7964 10.259 14.6188 10.259C13.7499 10.259 13.449 10.7128 13.4518 11.2581" fill="#000066"/>
<path fill-rule="evenodd" clip-rule="evenodd" d="M22.5836 10.3369C22.7994 10.3369 23.0009 10.393 23.2778 10.5329L23.4051 9.74517C23.2908 9.70039 22.8904 9.43793 22.5512 9.43793C22.0315 9.43793 21.5916 9.6962 21.2828 10.1215C20.8318 9.97223 20.6462 10.2739 20.4192 10.5747L20.2173 10.6218C20.2326 10.5228 20.2465 10.4245 20.2421 10.3249H19.5283C19.4311 11.2387 19.2584 12.1639 19.1233 13.0781L19.0879 13.2766H19.8651C19.9948 12.4338 20.0657 11.8942 20.1089 11.5288L20.4015 11.3666C20.4455 11.2037 20.582 11.1489 20.8566 11.1556C20.8207 11.3481 20.8013 11.5508 20.8013 11.7606C20.8013 12.7264 21.323 13.3276 22.1589 13.3276C22.3743 13.3276 22.5593 13.2994 22.8458 13.2214L22.9819 12.3943C22.7243 12.5208 22.5134 12.5804 22.3222 12.5804C21.8706 12.5804 21.5972 12.2469 21.5972 11.6961C21.5972 10.8968 22.0034 10.3369 22.5836 10.3369" fill="#000066"/>
<path fill-rule="evenodd" clip-rule="evenodd" d="M29.1606 9.64709L28.9879 10.6957C28.7759 10.4163 28.5477 10.2139 28.2464 10.2139C27.8545 10.2139 27.4977 10.511 27.2641 10.9486C26.9388 10.8811 26.6026 10.7664 26.6026 10.7664L26.6024 10.7692C26.6283 10.5246 26.6392 10.3758 26.6366 10.3249H25.923C25.8261 11.2387 25.6532 12.1639 25.5182 13.0781L25.4824 13.2766H26.2598C26.3648 12.5954 26.445 12.0291 26.5041 11.5806C26.7698 11.3405 26.9028 11.1316 27.1707 11.1452C27.0519 11.4326 26.9825 11.7635 26.9825 12.103C26.9825 12.8406 27.3555 13.3276 27.9204 13.3276C28.2052 13.3276 28.4236 13.2294 28.6367 13.0018L28.6 13.2764H29.335L29.9268 9.64709H29.1606V9.64709ZM28.1891 12.5947C27.9247 12.5947 27.7908 12.3987 27.7908 12.0128C27.7908 11.4326 28.0411 11.0214 28.3933 11.0214C28.6603 11.0214 28.805 11.2244 28.805 11.5994C28.805 12.1846 28.5506 12.5947 28.1891 12.5947V12.5947Z" fill="#000066"/>
<path fill-rule="evenodd" clip-rule="evenodd" d="M10.7312 13.0612H9.95448L10.3997 10.2713L9.40604 13.0612H8.87649L8.81113 10.2875L8.34331 13.0612H7.61621L8.22356 9.43201H9.34068L9.37189 11.6787L10.1257 9.43201H11.3321L10.7312 13.0612" fill="white"/>
<path fill-rule="evenodd" clip-rule="evenodd" d="M12.6443 11.7464C12.5629 11.7369 12.5269 11.7343 12.4709 11.7343C12.0306 11.7343 11.8078 11.8852 11.8078 12.1834C11.8078 12.3669 11.9166 12.4844 12.0863 12.4844C12.4027 12.4844 12.6308 12.1832 12.6443 11.7464V11.7464ZM13.2092 13.0612C13.1058 13.0612 12.5657 13.0612 12.5657 13.0612L12.5804 12.7556C12.3841 12.997 12.1221 13.1125 11.7662 13.1125C11.3452 13.1125 11.0566 12.7834 11.0566 12.306C11.0566 11.587 11.5587 11.1684 12.4205 11.1684C12.5086 11.1684 12.6214 11.1764 12.7371 11.1913C12.7611 11.0936 12.7674 11.0521 12.7674 10.9993C12.7674 10.804 12.6322 10.7313 12.2693 10.7313C11.8891 10.7268 11.5758 10.8215 11.4469 10.8636C11.4551 10.8148 11.5546 10.2 11.5546 10.2C11.9417 10.0864 12.1971 10.0436 12.4844 10.0436C13.1514 10.0436 13.5047 10.3434 13.5041 10.9092C13.5054 11.0608 13.4804 11.2484 13.4413 11.4941C13.3738 11.9212 13.229 12.8385 13.2092 13.0612V13.0612Z" fill="white"/>
<path fill-rule="evenodd" clip-rule="evenodd" d="M23.6283 9.52975L23.5011 10.3174C23.2237 10.1779 23.0228 10.1215 22.8073 10.1215C22.2273 10.1215 21.8204 10.682 21.8204 11.4815C21.8204 12.0323 22.0938 12.3651 22.5455 12.3651C22.7368 12.3651 22.9482 12.306 23.2052 12.179L23.0687 13.0061C22.7827 13.084 22.5976 13.1125 22.3823 13.1125C21.5459 13.1125 21.0249 12.5111 21.0249 11.5455C21.0249 10.248 21.7451 9.34125 22.7746 9.34125C23.1138 9.34125 23.5145 9.48497 23.6283 9.52975" fill="white"/>
<path fill-rule="evenodd" clip-rule="evenodd" d="M24.8815 11.7464C24.8005 11.7369 24.7645 11.7343 24.7086 11.7343C24.2685 11.7343 24.0456 11.8852 24.0456 12.1834C24.0456 12.3669 24.1543 12.4844 24.3239 12.4844C24.6402 12.4844 24.8685 12.1832 24.8815 11.7464V11.7464ZM25.4469 13.0612C25.3436 13.0612 24.8034 13.0612 24.8034 13.0612L24.818 12.7556C24.6217 12.997 24.3596 13.1125 24.0041 13.1125C23.5827 13.1125 23.2944 12.7834 23.2944 12.306C23.2944 11.587 23.7961 11.1684 24.6581 11.1684C24.7462 11.1684 24.8588 11.1764 24.9744 11.1913C24.9984 11.0936 25.0048 11.0521 25.0048 10.9993C25.0048 10.804 24.8699 10.7313 24.5068 10.7313C24.1269 10.7268 23.8137 10.8215 23.6846 10.8636C23.6927 10.8148 23.7923 10.2 23.7923 10.2C24.1794 10.0864 24.4345 10.0436 24.7218 10.0436C25.3889 10.0436 25.7425 10.3434 25.7416 10.9092C25.7432 11.0608 25.718 11.2484 25.6788 11.4941C25.6116 11.9212 25.4668 12.8385 25.4469 13.0612V13.0612Z" fill="white"/>
<path fill-rule="evenodd" clip-rule="evenodd" d="M16.6615 13.0164C16.4491 13.0834 16.2832 13.1124 16.1036 13.1124C15.7065 13.1124 15.4896 12.8841 15.4896 12.4642C15.4842 12.3333 15.5469 11.9907 15.5963 11.6773C15.641 11.4013 15.9331 9.66302 15.9331 9.66302H16.7053L16.615 10.1097H17.0114L16.9058 10.8189H16.5081C16.4184 11.3807 16.2905 12.0795 16.289 12.1723C16.289 12.3249 16.3705 12.391 16.5551 12.391C16.6437 12.391 16.7121 12.3823 16.7647 12.363L16.6615 13.0164" fill="white"/>
<path fill-rule="evenodd" clip-rule="evenodd" d="M19.0293 12.993C18.7639 13.0743 18.5077 13.1127 18.2368 13.1125C17.3722 13.1119 16.9219 12.6601 16.9219 11.7958C16.9219 10.7865 17.495 10.0436 18.2727 10.0436C18.9099 10.0436 19.3165 10.4595 19.3165 11.1123C19.3165 11.3286 19.2882 11.5397 19.2215 11.8379H17.6836C17.6315 12.2662 17.9057 12.4448 18.3547 12.4448C18.631 12.4448 18.8803 12.3876 19.1578 12.2587L19.0293 12.993V12.993ZM18.5952 11.2427C18.5994 11.1809 18.6771 10.7158 18.2359 10.7158C17.99 10.7158 17.814 10.9037 17.7424 11.2427H18.5952V11.2427Z" fill="white"/>
<path fill-rule="evenodd" clip-rule="evenodd" d="M13.6752 11.0428C13.6752 11.4165 13.8564 11.6734 14.267 11.8671C14.5815 12.015 14.6302 12.0588 14.6302 12.1929C14.6302 12.3769 14.4915 12.4599 14.184 12.4599C13.9523 12.4599 13.7366 12.4239 13.4879 12.3437C13.4879 12.3437 13.3861 12.9942 13.3813 13.0248C13.5578 13.0635 13.7153 13.0988 14.1895 13.1125C15.0094 13.1125 15.3879 12.8005 15.3879 12.1259C15.3879 11.7202 15.2294 11.4823 14.8403 11.3036C14.5146 11.1538 14.4772 11.1207 14.4772 10.9827C14.4772 10.8232 14.6063 10.7411 14.8575 10.7411C15.0097 10.7411 15.2181 10.758 15.4155 10.7858L15.5261 10.1014C15.325 10.0696 15.0201 10.0436 14.8425 10.0436C13.9733 10.0436 13.6726 10.4975 13.6752 11.0428" fill="white"/>
<path fill-rule="evenodd" clip-rule="evenodd" d="M29.5587 13.0612H28.8239L28.8603 12.7865C28.6471 13.0142 28.4288 13.1124 28.1441 13.1124C27.5796 13.1124 27.2061 12.6259 27.2061 11.8875C27.2061 10.9058 27.7851 10.0783 28.4701 10.0783C28.7713 10.0783 28.9994 10.2013 29.2119 10.4808L29.3842 9.43201H30.1503L29.5587 13.0612V13.0612ZM28.4126 12.3792C28.7746 12.3792 29.0286 11.9693 29.0286 11.3847C29.0286 11.0096 28.8839 10.8058 28.617 10.8058C28.2646 10.8058 28.0145 11.2172 28.0145 11.7976C28.0145 12.1839 28.1485 12.3792 28.4126 12.3792V12.3792Z" fill="white"/>
<path fill-rule="evenodd" clip-rule="evenodd" d="M26.147 10.1097C26.0499 11.0233 25.8771 11.9485 25.7419 12.8627L25.7065 13.0612H26.4835C26.7615 11.2562 26.8283 10.904 27.2643 10.948C27.3336 10.5785 27.4629 10.255 27.5591 10.0919C27.2338 10.0241 27.0521 10.208 26.8139 10.5574C26.8329 10.4062 26.8672 10.2595 26.8607 10.1097H26.147" fill="white"/>
<path fill-rule="evenodd" clip-rule="evenodd" d="M19.7523 10.1097C19.6547 11.0233 19.4817 11.9485 19.3468 12.8627L19.3115 13.0612H20.0887C20.3668 11.2562 20.4334 10.904 20.8687 10.948C20.9385 10.5785 21.068 10.255 21.164 10.0919C20.839 10.0241 20.6569 10.208 20.4193 10.5574C20.438 10.4062 20.4725 10.2595 20.4657 10.1097H19.7523" fill="white"/>
</svg>
