<svg width="311" height="142" viewBox="0 0 311 142" fill="none" xmlns="http://www.w3.org/2000/svg">
<path d="M6.708 10.72H5.64C5.52 9.952 5.272 9.38 4.896 9.004C4.528 8.628 4.116 8.44 3.66 8.44C3.388 8.44 3.124 8.508 2.868 8.644C2.62 8.78 2.4 8.988 2.208 9.268C2.024 9.54 1.876 9.888 1.764 10.312C1.652 10.736 1.596 11.232 1.596 11.8C1.596 12.368 1.652 12.864 1.764 13.288C1.876 13.712 2.024 14.064 2.208 14.344C2.4 14.616 2.62 14.82 2.868 14.956C3.124 15.092 3.388 15.16 3.66 15.16C4.116 15.16 4.528 14.972 4.896 14.596C5.272 14.22 5.524 13.644 5.652 12.868H6.708C6.636 13.404 6.504 13.88 6.312 14.296C6.12 14.704 5.888 15.044 5.616 15.316C5.352 15.58 5.052 15.784 4.716 15.928C4.38 16.064 4.028 16.132 3.66 16.132C3.236 16.132 2.832 16.04 2.448 15.856C2.072 15.672 1.74 15.4 1.452 15.04C1.172 14.68 0.948 14.228 0.78 13.684C0.62 13.14 0.54 12.512 0.54 11.8C0.54 11.088 0.62 10.46 0.78 9.916C0.948 9.372 1.172 8.92 1.452 8.56C1.74 8.2 2.072 7.928 2.448 7.744C2.832 7.56 3.236 7.468 3.66 7.468C4.028 7.468 4.376 7.536 4.704 7.672C5.04 7.808 5.344 8.012 5.616 8.284C5.888 8.556 6.116 8.896 6.3 9.304C6.492 9.712 6.628 10.184 6.708 10.72ZM10.7953 16.132C10.3633 16.132 9.95131 16.04 9.55931 15.856C9.17531 15.672 8.83931 15.4 8.55131 15.04C8.26331 14.68 8.03531 14.228 7.86731 13.684C7.69931 13.14 7.61531 12.512 7.61531 11.8C7.61531 11.088 7.69931 10.46 7.86731 9.916C8.03531 9.372 8.26331 8.92 8.55131 8.56C8.83931 8.2 9.17531 7.928 9.55931 7.744C9.95131 7.56 10.3633 7.468 10.7953 7.468C11.2273 7.468 11.6353 7.56 12.0193 7.744C12.4113 7.928 12.7513 8.2 13.0393 8.56C13.3273 8.92 13.5553 9.372 13.7233 9.916C13.8913 10.46 13.9753 11.088 13.9753 11.8C13.9753 12.512 13.8913 13.14 13.7233 13.684C13.5553 14.228 13.3273 14.68 13.0393 15.04C12.7513 15.4 12.4113 15.672 12.0193 15.856C11.6353 16.04 11.2273 16.132 10.7953 16.132ZM10.7953 15.16C11.0833 15.16 11.3553 15.092 11.6113 14.956C11.8673 14.82 12.0913 14.616 12.2833 14.344C12.4833 14.064 12.6393 13.712 12.7513 13.288C12.8633 12.864 12.9193 12.368 12.9193 11.8C12.9193 11.232 12.8633 10.736 12.7513 10.312C12.6393 9.888 12.4833 9.54 12.2833 9.268C12.0913 8.988 11.8673 8.78 11.6113 8.644C11.3553 8.508 11.0833 8.44 10.7953 8.44C10.5153 8.44 10.2433 8.508 9.97931 8.644C9.72331 8.78 9.49931 8.988 9.30731 9.268C9.11531 9.54 8.95931 9.888 8.83931 10.312C8.72731 10.736 8.67131 11.232 8.67131 11.8C8.67131 12.368 8.72731 12.864 8.83931 13.288C8.95931 13.712 9.11531 14.064 9.30731 14.344C9.49931 14.616 9.72331 14.82 9.97931 14.956C10.2433 15.092 10.5153 15.16 10.7953 15.16ZM17.9546 12.964L16.0346 10.048V16H15.0506V7.48H15.4466L18.0026 11.356L20.5346 7.48H20.9306V16H19.9346V9.988L17.9546 12.964ZM22.4619 16V15.064H24.6459V8.536H22.4619V7.6H27.8979V8.536H25.7139V15.064H27.8979V16H22.4619ZM29.5373 16V7.576H29.8733L34.2773 13.528V7.6H35.2253V16.024H34.8773L30.4853 10.06V16H29.5373ZM39.6606 16.132C39.2286 16.132 38.8206 16.04 38.4366 15.856C38.0526 15.672 37.7206 15.4 37.4406 15.04C37.1606 14.68 36.9366 14.228 36.7686 13.684C36.6006 13.14 36.5166 12.512 36.5166 11.8C36.5166 11.088 36.5966 10.46 36.7566 9.916C36.9246 9.372 37.1486 8.92 37.4286 8.56C37.7166 8.2 38.0486 7.928 38.4246 7.744C38.8086 7.56 39.2126 7.468 39.6366 7.468C40.0046 7.468 40.3526 7.536 40.6806 7.672C41.0166 7.8 41.3166 7.988 41.5806 8.236C41.8446 8.476 42.0726 8.776 42.2646 9.136C42.4566 9.496 42.5966 9.904 42.6846 10.36H41.6166C41.4806 9.76 41.2286 9.292 40.8606 8.956C40.5006 8.612 40.0926 8.44 39.6366 8.44C39.3646 8.44 39.1006 8.508 38.8446 8.644C38.5966 8.78 38.3766 8.988 38.1846 9.268C38.0006 9.54 37.8526 9.888 37.7406 10.312C37.6286 10.736 37.5726 11.232 37.5726 11.8C37.5726 12.368 37.6286 12.864 37.7406 13.288C37.8526 13.712 38.0046 14.064 38.1966 14.344C38.3886 14.616 38.6126 14.82 38.8686 14.956C39.1246 15.092 39.3926 15.16 39.6726 15.16C40.1766 15.16 40.6246 14.944 41.0166 14.512C41.4086 14.08 41.6486 13.42 41.7366 12.532H40.0446V11.596H42.7446V11.8C42.7446 12.536 42.6606 13.176 42.4926 13.72C42.3326 14.264 42.1126 14.716 41.8326 15.076C41.5526 15.428 41.2246 15.692 40.8486 15.868C40.4726 16.044 40.0766 16.132 39.6606 16.132ZM54.1472 16.108C53.7152 16.108 53.3112 16.036 52.9352 15.892C52.5592 15.74 52.2352 15.536 51.9632 15.28C51.6992 15.016 51.4872 14.7 51.3272 14.332C51.1672 13.964 51.0792 13.564 51.0632 13.132H52.0592C52.1072 13.74 52.3272 14.236 52.7192 14.62C53.1112 14.996 53.5952 15.184 54.1712 15.184C54.3792 15.184 54.5832 15.156 54.7832 15.1C54.9912 15.044 55.1752 14.964 55.3352 14.86C55.4952 14.748 55.6232 14.612 55.7192 14.452C55.8152 14.284 55.8632 14.092 55.8632 13.876C55.8632 13.644 55.8072 13.448 55.6952 13.288C55.5832 13.12 55.4312 12.976 55.2392 12.856C55.0552 12.736 54.8392 12.636 54.5912 12.556C54.3512 12.468 54.0992 12.384 53.8352 12.304C53.5232 12.208 53.2072 12.1 52.8872 11.98C52.5752 11.86 52.2912 11.708 52.0352 11.524C51.7872 11.34 51.5832 11.108 51.4232 10.828C51.2712 10.548 51.1952 10.2 51.1952 9.784C51.1952 9.48 51.2552 9.192 51.3752 8.92C51.4952 8.64 51.6672 8.396 51.8912 8.188C52.1152 7.972 52.3872 7.804 52.7072 7.684C53.0272 7.556 53.3832 7.492 53.7752 7.492C54.1912 7.492 54.5752 7.564 54.9272 7.708C55.2872 7.844 55.5952 8.036 55.8512 8.284C56.1152 8.532 56.3232 8.832 56.4752 9.184C56.6272 9.528 56.7152 9.9 56.7392 10.3H55.7312C55.6752 9.74 55.4752 9.284 55.1312 8.932C54.7872 8.58 54.3272 8.404 53.7512 8.404C53.3032 8.404 52.9352 8.536 52.6472 8.8C52.3672 9.056 52.2272 9.368 52.2272 9.736C52.2272 9.968 52.2792 10.168 52.3832 10.336C52.4872 10.504 52.6232 10.648 52.7912 10.768C52.9672 10.888 53.1712 10.992 53.4032 11.08C53.6352 11.16 53.8752 11.24 54.1232 11.32C54.4432 11.424 54.7672 11.532 55.0952 11.644C55.4312 11.756 55.7312 11.9 55.9952 12.076C56.2672 12.252 56.4872 12.48 56.6552 12.76C56.8232 13.032 56.9072 13.376 56.9072 13.792C56.9072 14.16 56.8312 14.488 56.6792 14.776C56.5352 15.064 56.3392 15.308 56.0912 15.508C55.8432 15.7 55.5512 15.848 55.2152 15.952C54.8792 16.056 54.5232 16.108 54.1472 16.108ZM61.1625 16.132C60.7305 16.132 60.3185 16.04 59.9265 15.856C59.5425 15.672 59.2065 15.4 58.9185 15.04C58.6305 14.68 58.4025 14.228 58.2345 13.684C58.0665 13.14 57.9825 12.512 57.9825 11.8C57.9825 11.088 58.0665 10.46 58.2345 9.916C58.4025 9.372 58.6305 8.92 58.9185 8.56C59.2065 8.2 59.5425 7.928 59.9265 7.744C60.3185 7.56 60.7305 7.468 61.1625 7.468C61.5945 7.468 62.0025 7.56 62.3865 7.744C62.7785 7.928 63.1185 8.2 63.4065 8.56C63.6945 8.92 63.9225 9.372 64.0905 9.916C64.2585 10.46 64.3425 11.088 64.3425 11.8C64.3425 12.512 64.2585 13.14 64.0905 13.684C63.9225 14.228 63.6945 14.68 63.4065 15.04C63.1185 15.4 62.7785 15.672 62.3865 15.856C62.0025 16.04 61.5945 16.132 61.1625 16.132ZM61.1625 15.16C61.4505 15.16 61.7225 15.092 61.9785 14.956C62.2345 14.82 62.4585 14.616 62.6505 14.344C62.8505 14.064 63.0065 13.712 63.1185 13.288C63.2305 12.864 63.2865 12.368 63.2865 11.8C63.2865 11.232 63.2305 10.736 63.1185 10.312C63.0065 9.888 62.8505 9.54 62.6505 9.268C62.4585 8.988 62.2345 8.78 61.9785 8.644C61.7225 8.508 61.4505 8.44 61.1625 8.44C60.8825 8.44 60.6105 8.508 60.3465 8.644C60.0905 8.78 59.8665 8.988 59.6745 9.268C59.4825 9.54 59.3265 9.888 59.2065 10.312C59.0945 10.736 59.0385 11.232 59.0385 11.8C59.0385 12.368 59.0945 12.864 59.2065 13.288C59.3265 13.712 59.4825 14.064 59.6745 14.344C59.8665 14.616 60.0905 14.82 60.3465 14.956C60.6105 15.092 60.8825 15.16 61.1625 15.16ZM68.3578 16.132C67.9258 16.132 67.5138 16.04 67.1218 15.856C66.7378 15.672 66.4018 15.4 66.1138 15.04C65.8258 14.68 65.5978 14.228 65.4298 13.684C65.2618 13.14 65.1778 12.512 65.1778 11.8C65.1778 11.088 65.2618 10.46 65.4298 9.916C65.5978 9.372 65.8258 8.92 66.1138 8.56C66.4018 8.2 66.7378 7.928 67.1218 7.744C67.5138 7.56 67.9258 7.468 68.3578 7.468C68.7898 7.468 69.1978 7.56 69.5818 7.744C69.9738 7.928 70.3138 8.2 70.6018 8.56C70.8898 8.92 71.1178 9.372 71.2858 9.916C71.4538 10.46 71.5378 11.088 71.5378 11.8C71.5378 12.512 71.4538 13.14 71.2858 13.684C71.1178 14.228 70.8898 14.68 70.6018 15.04C70.3138 15.4 69.9738 15.672 69.5818 15.856C69.1978 16.04 68.7898 16.132 68.3578 16.132ZM68.3578 15.16C68.6458 15.16 68.9178 15.092 69.1738 14.956C69.4298 14.82 69.6538 14.616 69.8458 14.344C70.0458 14.064 70.2018 13.712 70.3138 13.288C70.4258 12.864 70.4818 12.368 70.4818 11.8C70.4818 11.232 70.4258 10.736 70.3138 10.312C70.2018 9.888 70.0458 9.54 69.8458 9.268C69.6538 8.988 69.4298 8.78 69.1738 8.644C68.9178 8.508 68.6458 8.44 68.3578 8.44C68.0778 8.44 67.8058 8.508 67.5418 8.644C67.2858 8.78 67.0618 8.988 66.8698 9.268C66.6778 9.54 66.5218 9.888 66.4018 10.312C66.2898 10.736 66.2338 11.232 66.2338 11.8C66.2338 12.368 66.2898 12.864 66.4018 13.288C66.5218 13.712 66.6778 14.064 66.8698 14.344C67.0618 14.616 67.2858 14.82 67.5418 14.956C67.8058 15.092 68.0778 15.16 68.3578 15.16ZM72.7091 16V7.576H73.0451L77.4491 13.528V7.6H78.3971V16.024H78.0491L73.6571 10.06V16H72.7091Z" fill="white"/>
<path d="M4.44 56V48.992H11.592V46.088H4.44V42.152H13.272V39.2H1.08V56H4.44ZM25.8499 48.968C25.8499 51.896 24.1459 53.336 21.9619 53.336C19.8019 53.336 18.0739 51.872 18.0739 48.944V39.2H14.7619V49.088C14.7619 53.72 17.8819 56.264 21.8659 56.264C25.8499 56.264 29.1619 53.696 29.1619 49.064V39.2H25.8499V48.968ZM39.192 56V42.104H44.664V39.2H30.36V42.104H35.832V56H39.192ZM53.3025 56L57.8145 49.664L62.3025 56H66.2625L59.7825 47.12L65.5425 39.2H62.0625L58.1025 44.768L54.1425 39.2H50.1825L56.1105 47.336L49.8225 56H53.3025ZM67.1034 39.2V56H70.4154V49.88H74.4954C77.7834 49.88 80.2314 47.6 80.2314 44.504C80.2314 41.432 77.8794 39.2 74.6154 39.2H67.1034ZM74.2554 47.048H70.4154V42.152H74.2554C75.8394 42.152 76.9434 43.16 76.9434 44.6C76.9434 46.04 75.8394 47.048 74.2554 47.048ZM99.843 51.128C99.843 47.696 96.387 46.952 93.531 46.232C91.515 45.704 89.787 45.2 89.787 43.736C89.787 42.512 90.939 41.744 92.595 41.744C94.731 41.744 96.315 42.968 96.507 44.888H99.699C99.435 41.408 96.459 38.96 92.547 38.96C89.139 38.96 86.547 40.88 86.499 43.976C86.499 47.72 90.267 48.44 93.171 49.208C95.019 49.688 96.531 50.192 96.531 51.488C96.531 52.712 95.211 53.48 93.555 53.48C91.275 53.48 89.547 52.16 89.379 50.192H86.211C86.451 53.744 89.403 56.24 93.507 56.24C97.059 56.24 99.843 54.32 99.843 51.128ZM113.177 52.424H109.793C109.289 53.168 108.425 53.528 107.489 53.528C105.857 53.528 104.513 52.52 104.105 51.008H113.345C113.345 50.84 113.369 50.696 113.369 50.552C113.369 45.944 110.105 43.76 107.129 43.76C103.697 43.76 100.913 46.376 100.913 50C100.913 53.6 103.841 56.24 107.441 56.24C110.105 56.24 112.265 54.728 113.177 52.424ZM107.129 46.424C108.545 46.424 109.793 47.408 110.057 48.824H104.129C104.537 47.36 105.713 46.424 107.129 46.424ZM120.339 56.168C121.827 56.168 123.171 55.592 124.155 54.608V56H127.203V44.024H124.155V45.416C123.219 44.408 121.899 43.832 120.459 43.832C117.339 43.832 114.507 46.424 114.507 50C114.507 53.576 117.291 56.168 120.339 56.168ZM120.867 53.456C119.019 53.456 117.531 52.04 117.531 50C117.531 47.96 119.019 46.544 120.867 46.544C122.739 46.544 124.203 47.96 124.203 50C124.203 52.04 122.739 53.456 120.867 53.456ZM128.732 47.432C128.732 50 131.18 50.672 133.22 51.2C134.684 51.584 135.932 51.896 135.932 52.76C135.932 53.456 135.14 53.936 134.036 53.936C132.548 53.936 131.42 53.096 131.252 51.848H128.468C128.732 54.416 130.988 56.24 134.036 56.24C136.796 56.24 138.956 54.776 138.956 52.472C138.956 49.976 136.508 49.304 134.468 48.776C132.98 48.392 131.708 48.056 131.708 47.168C131.708 46.448 132.476 46.064 133.316 46.064C134.732 46.064 135.788 46.88 135.98 48.128H138.764C138.5 45.56 136.316 43.76 133.364 43.76C130.748 43.76 128.732 45.128 128.732 47.432ZM146.273 43.784C142.769 43.784 139.937 46.4 139.937 50.024C139.937 53.624 142.769 56.24 146.273 56.24C149.777 56.24 152.609 53.624 152.609 50.024C152.609 46.4 149.777 43.784 146.273 43.784ZM146.273 53.48C144.425 53.48 142.961 52.064 142.961 50.048C142.961 47.984 144.425 46.592 146.273 46.592C148.121 46.592 149.585 47.984 149.585 50.048C149.585 52.064 148.121 53.48 146.273 53.48ZM157.242 44.024H154.194V56H157.242V48.752C157.242 47.36 158.322 46.256 159.738 46.256C161.202 46.256 162.234 47.312 162.234 48.872V56H165.282V48.632C165.282 45.824 163.674 43.76 160.818 43.76C159.282 43.76 157.962 44.432 157.242 45.512V44.024ZM184.313 51.224C184.313 49.52 183.209 48.08 181.577 47.24C182.993 46.472 183.905 45.224 183.905 43.76C183.905 40.952 181.361 38.936 178.145 38.936C174.881 38.936 172.361 40.952 172.361 43.784C172.361 45.224 173.273 46.448 174.689 47.216C173.009 48.056 171.905 49.496 171.905 51.224C171.905 54.248 174.617 56.24 178.121 56.24C181.601 56.24 184.313 54.248 184.313 51.224ZM178.145 41.528C179.753 41.528 181.001 42.44 181.001 43.76C181.001 45.104 179.801 46.016 178.145 46.016C176.489 46.016 175.241 45.104 175.241 43.76C175.241 42.44 176.441 41.528 178.145 41.528ZM178.121 53.648C176.249 53.648 174.905 52.592 174.905 51.08C174.905 49.544 176.249 48.512 178.121 48.512C179.969 48.512 181.313 49.544 181.313 51.08C181.313 52.592 179.969 53.648 178.121 53.648ZM204.672 51.128C204.672 49.424 203.64 47.984 202.008 47.24C203.28 46.472 204.072 45.224 204.072 43.736C204.072 41.096 201.96 39.2 199.056 39.2H191.064V56H199.056C202.32 56 204.672 53.96 204.672 51.128ZM198.576 42.104C199.872 42.104 200.784 42.92 200.784 44.072C200.784 45.2 199.872 45.992 198.576 45.992H194.376V42.104H198.576ZM194.376 53.144V48.728H198.816C200.328 48.728 201.384 49.616 201.384 50.888C201.384 52.208 200.328 53.144 198.816 53.144H194.376ZM212.226 43.784C208.722 43.784 205.89 46.4 205.89 50.024C205.89 53.624 208.722 56.24 212.226 56.24C215.73 56.24 218.562 53.624 218.562 50.024C218.562 46.4 215.73 43.784 212.226 43.784ZM212.226 53.48C210.378 53.48 208.914 52.064 208.914 50.048C208.914 47.984 210.378 46.592 212.226 46.592C214.074 46.592 215.538 47.984 215.538 50.048C215.538 52.064 214.074 53.48 212.226 53.48ZM226.03 43.784C222.526 43.784 219.694 46.4 219.694 50.024C219.694 53.624 222.526 56.24 226.03 56.24C229.534 56.24 232.366 53.624 232.366 50.024C232.366 46.4 229.534 43.784 226.03 43.784ZM226.03 53.48C224.182 53.48 222.718 52.064 222.718 50.048C222.718 47.984 224.182 46.592 226.03 46.592C227.878 46.592 229.342 47.984 229.342 50.048C229.342 52.064 227.878 53.48 226.03 53.48ZM233.568 47.432C233.568 50 236.016 50.672 238.056 51.2C239.52 51.584 240.768 51.896 240.768 52.76C240.768 53.456 239.976 53.936 238.872 53.936C237.384 53.936 236.256 53.096 236.088 51.848H233.304C233.568 54.416 235.824 56.24 238.872 56.24C241.632 56.24 243.792 54.776 243.792 52.472C243.792 49.976 241.344 49.304 239.304 48.776C237.816 48.392 236.544 48.056 236.544 47.168C236.544 46.448 237.312 46.064 238.152 46.064C239.568 46.064 240.624 46.88 240.816 48.128H243.6C243.336 45.56 241.152 43.76 238.2 43.76C235.584 43.76 233.568 45.128 233.568 47.432ZM246.872 52.904C246.872 54.752 248.168 56 250.376 56H253.352V53.288H251.24C250.304 53.288 249.872 52.856 249.872 52.064V46.616H253.352V44.024H249.872V40.52L246.872 41.48V44.024H244.112V46.616H246.872V52.904Z" fill="white"/>
<path d="M5.572 81.998L2.17 76.958V84H1.008V74.06H1.484L5.6 80.066L9.73 74.06H10.178V84H8.974V76.986L5.572 81.998ZM15.2993 84.126C14.8233 84.126 14.3753 84.0327 13.9553 83.846C13.5353 83.6593 13.1713 83.4073 12.8633 83.09C12.5553 82.7633 12.3126 82.376 12.1353 81.928C11.9579 81.4707 11.8693 80.976 11.8693 80.444C11.8693 79.9213 11.9533 79.436 12.1213 78.988C12.2986 78.54 12.5366 78.1573 12.8353 77.84C13.1433 77.5133 13.5026 77.2567 13.9133 77.07C14.3239 76.8833 14.7626 76.79 15.2293 76.79C15.6773 76.79 16.1019 76.8833 16.5033 77.07C16.9046 77.2473 17.2546 77.504 17.5533 77.84C17.8519 78.176 18.0899 78.596 18.2673 79.1C18.4446 79.5947 18.5333 80.1547 18.5333 80.78V80.864H13.0733C13.1573 81.5173 13.4093 82.0493 13.8293 82.46C14.2493 82.8707 14.7393 83.076 15.2993 83.076C15.6539 83.076 15.9806 82.992 16.2793 82.824C16.5873 82.6467 16.8346 82.4133 17.0213 82.124H18.3373C18.0853 82.7307 17.6839 83.216 17.1333 83.58C16.5919 83.944 15.9806 84.126 15.2993 84.126ZM15.2153 77.854C14.6926 77.854 14.2306 78.0453 13.8293 78.428C13.4373 78.8107 13.1899 79.3007 13.0873 79.898H17.3013C17.2079 79.3007 16.9653 78.8107 16.5733 78.428C16.1813 78.0453 15.7286 77.854 15.2153 77.854ZM20.147 84V76.93H21.323V78.316C21.5003 77.784 21.7803 77.4013 22.163 77.168C22.5457 76.9347 22.9517 76.818 23.381 76.818C23.885 76.818 24.3143 76.9627 24.669 77.252C25.033 77.5413 25.2943 77.9193 25.453 78.386C25.6303 77.882 25.915 77.4947 26.307 77.224C26.7083 76.9533 27.147 76.818 27.623 76.818C27.9963 76.818 28.3277 76.888 28.617 77.028C28.9063 77.168 29.149 77.364 29.345 77.616C29.541 77.8587 29.6903 78.148 29.793 78.484C29.8957 78.8107 29.947 79.1653 29.947 79.548V84H28.771V79.66C28.771 79.128 28.6217 78.6893 28.323 78.344C28.0337 77.9987 27.6557 77.826 27.189 77.826C26.7597 77.826 26.391 78.0033 26.083 78.358C25.7843 78.7033 25.635 79.128 25.635 79.632V84H24.459V79.66C24.459 79.128 24.3097 78.6893 24.011 78.344C23.7217 77.9987 23.3437 77.826 22.877 77.826C22.4477 77.826 22.079 78.0033 21.771 78.358C21.4723 78.7033 21.323 79.128 21.323 79.632V84H20.147ZM32.9988 84H31.8228V73.808L32.9988 73.346V78.092C33.2788 77.6907 33.6288 77.378 34.0488 77.154C34.4781 76.9207 34.9354 76.804 35.4208 76.804C35.8688 76.804 36.2888 76.8973 36.6808 77.084C37.0728 77.2707 37.4134 77.5273 37.7028 77.854C37.9921 78.1713 38.2208 78.554 38.3888 79.002C38.5568 79.4407 38.6408 79.9213 38.6408 80.444C38.6408 80.9667 38.5568 81.4567 38.3888 81.914C38.2208 82.362 37.9921 82.7493 37.7028 83.076C37.4134 83.3933 37.0681 83.6453 36.6668 83.832C36.2748 84.0187 35.8548 84.112 35.4068 84.112C34.9214 84.112 34.4641 83.9813 34.0348 83.72C33.6148 83.4587 33.2694 83.104 32.9988 82.656V84ZM35.2108 77.868C34.5948 77.868 34.0674 78.1107 33.6288 78.596C33.1901 79.0813 32.9708 79.6973 32.9708 80.444C32.9708 81.2 33.1901 81.8253 33.6288 82.32C34.0674 82.8053 34.5948 83.048 35.2108 83.048C35.8361 83.048 36.3681 82.8053 36.8068 82.32C37.2454 81.8253 37.4648 81.2 37.4648 80.444C37.4648 79.6973 37.2454 79.0813 36.8068 78.596C36.3681 78.1107 35.8361 77.868 35.2108 77.868ZM43.4086 84.126C42.9326 84.126 42.4846 84.0327 42.0646 83.846C41.6446 83.6593 41.2806 83.4073 40.9726 83.09C40.6646 82.7633 40.422 82.376 40.2446 81.928C40.0673 81.4707 39.9786 80.976 39.9786 80.444C39.9786 79.9213 40.0626 79.436 40.2306 78.988C40.408 78.54 40.646 78.1573 40.9446 77.84C41.2526 77.5133 41.612 77.2567 42.0226 77.07C42.4333 76.8833 42.872 76.79 43.3386 76.79C43.7866 76.79 44.2113 76.8833 44.6126 77.07C45.014 77.2473 45.364 77.504 45.6626 77.84C45.9613 78.176 46.1993 78.596 46.3766 79.1C46.554 79.5947 46.6426 80.1547 46.6426 80.78V80.864H41.1826C41.2666 81.5173 41.5186 82.0493 41.9386 82.46C42.3586 82.8707 42.8486 83.076 43.4086 83.076C43.7633 83.076 44.09 82.992 44.3886 82.824C44.6966 82.6467 44.944 82.4133 45.1306 82.124H46.4466C46.1946 82.7307 45.7933 83.216 45.2426 83.58C44.7013 83.944 44.09 84.126 43.4086 84.126ZM43.3246 77.854C42.802 77.854 42.34 78.0453 41.9386 78.428C41.5466 78.8107 41.2993 79.3007 41.1966 79.898H45.4106C45.3173 79.3007 45.0746 78.8107 44.6826 78.428C44.2906 78.0453 43.838 77.854 43.3246 77.854ZM48.2564 84V76.93H49.4324V78.358C49.6564 77.7513 49.997 77.3173 50.4544 77.056C50.9117 76.7853 51.4437 76.6827 52.0504 76.748V77.868C51.6957 77.8027 51.3597 77.812 51.0424 77.896C50.725 77.98 50.445 78.12 50.2024 78.316C49.969 78.5027 49.7824 78.7407 49.6424 79.03C49.5024 79.3193 49.4324 79.632 49.4324 79.968V84H48.2564ZM52.8032 78.89C52.8125 78.2647 53.0505 77.7607 53.5172 77.378C53.9932 76.9953 54.5812 76.804 55.2812 76.804C56.0932 76.804 56.7745 77.0373 57.3252 77.504C57.8759 77.9613 58.1699 78.5493 58.2072 79.268H57.0592C57.0219 78.8293 56.8399 78.4793 56.5132 78.218C56.1959 77.9473 55.7899 77.812 55.2952 77.812C54.8845 77.812 54.5579 77.9053 54.3152 78.092C54.0819 78.2787 53.9652 78.5167 53.9652 78.806C53.9652 79.142 54.1285 79.3847 54.4552 79.534C54.7819 79.6833 55.1599 79.814 55.5892 79.926C55.8972 80.0007 56.2099 80.0847 56.5272 80.178C56.8539 80.262 57.1432 80.3787 57.3952 80.528C57.6565 80.668 57.8712 80.8593 58.0392 81.102C58.2072 81.3353 58.2912 81.6387 58.2912 82.012C58.2912 82.6653 58.0392 83.1833 57.5352 83.566C57.0312 83.9393 56.4152 84.126 55.6872 84.126C54.8472 84.126 54.1519 83.888 53.6012 83.412C53.0505 82.936 52.7565 82.3247 52.7192 81.578H53.8672C53.8952 82.0353 54.0819 82.4087 54.4272 82.698C54.7819 82.9873 55.2065 83.132 55.7012 83.132C56.1025 83.132 56.4385 83.0433 56.7092 82.866C56.9892 82.6887 57.1292 82.4413 57.1292 82.124C57.1292 81.76 56.9379 81.508 56.5552 81.368C56.1819 81.2187 55.7572 81.0833 55.2812 80.962C54.9919 80.8967 54.6979 80.8173 54.3992 80.724C54.1005 80.6307 53.8345 80.5093 53.6012 80.36C53.3679 80.2107 53.1765 80.0193 53.0272 79.786C52.8779 79.5433 52.8032 79.2447 52.8032 78.89ZM65.9213 84.07C65.4733 84.07 65.0533 83.9813 64.6613 83.804C64.2693 83.6173 63.9286 83.3653 63.6393 83.048C63.35 82.7213 63.1213 82.334 62.9533 81.886C62.7853 81.438 62.7013 80.9527 62.7013 80.43C62.7013 79.9073 62.7853 79.4267 62.9533 78.988C63.1213 78.54 63.35 78.1573 63.6393 77.84C63.9286 77.5133 64.2693 77.2613 64.6613 77.084C65.0626 76.8973 65.4873 76.804 65.9353 76.804C66.4206 76.804 66.8733 76.9253 67.2933 77.168C67.7133 77.4013 68.0633 77.7233 68.3433 78.134V76.93H69.5193V83.762C69.5193 84.322 69.4353 84.8213 69.2673 85.26C69.1086 85.708 68.88 86.0767 68.5813 86.366C68.292 86.6647 67.9466 86.8887 67.5453 87.038C67.144 87.1967 66.7053 87.276 66.2293 87.276C65.8373 87.276 65.4593 87.22 65.0953 87.108C64.7406 86.996 64.4186 86.842 64.1293 86.646C63.84 86.45 63.5926 86.2073 63.3873 85.918C63.182 85.638 63.0373 85.33 62.9533 84.994H64.2133C64.3346 85.3673 64.582 85.666 64.9553 85.89C65.338 86.114 65.758 86.226 66.2153 86.226C66.8313 86.226 67.34 86.0207 67.7413 85.61C68.1426 85.2087 68.3433 84.5973 68.3433 83.776V82.74C68.0633 83.1507 67.7086 83.4773 67.2793 83.72C66.8593 83.9533 66.4066 84.07 65.9213 84.07ZM66.1313 83.006C66.7473 83.006 67.2746 82.768 67.7133 82.292C68.152 81.8067 68.3713 81.186 68.3713 80.43C68.3713 79.6833 68.152 79.072 67.7133 78.596C67.2746 78.1107 66.7473 77.868 66.1313 77.868C65.506 77.868 64.974 78.1107 64.5353 78.596C64.0966 79.072 63.8773 79.6833 63.8773 80.43C63.8773 81.186 64.0966 81.8067 64.5353 82.292C64.974 82.768 65.506 83.006 66.1313 83.006ZM74.5532 84.126C74.0772 84.126 73.6292 84.0327 73.2092 83.846C72.7892 83.6593 72.4252 83.4073 72.1172 83.09C71.8092 82.7633 71.5665 82.376 71.3892 81.928C71.2118 81.4707 71.1232 80.976 71.1232 80.444C71.1232 79.9213 71.2072 79.436 71.3752 78.988C71.5525 78.54 71.7905 78.1573 72.0892 77.84C72.3972 77.5133 72.7565 77.2567 73.1672 77.07C73.5778 76.8833 74.0165 76.79 74.4832 76.79C74.9312 76.79 75.3558 76.8833 75.7572 77.07C76.1585 77.2473 76.5085 77.504 76.8072 77.84C77.1058 78.176 77.3438 78.596 77.5212 79.1C77.6985 79.5947 77.7872 80.1547 77.7872 80.78V80.864H72.3272C72.4112 81.5173 72.6632 82.0493 73.0832 82.46C73.5032 82.8707 73.9932 83.076 74.5532 83.076C74.9078 83.076 75.2345 82.992 75.5332 82.824C75.8412 82.6467 76.0885 82.4133 76.2752 82.124H77.5912C77.3392 82.7307 76.9378 83.216 76.3872 83.58C75.8458 83.944 75.2345 84.126 74.5532 84.126ZM74.4692 77.854C73.9465 77.854 73.4845 78.0453 73.0832 78.428C72.6912 78.8107 72.4438 79.3007 72.3412 79.898H76.5552C76.4618 79.3007 76.2192 78.8107 75.8272 78.428C75.4352 78.0453 74.9825 77.854 74.4692 77.854ZM80.2755 82.278V77.938H78.4835V76.93H80.2755V75.264L81.4375 74.844V76.93H83.5235V77.938H81.4375V82.222C81.4375 82.4647 81.5028 82.6513 81.6335 82.782C81.7641 82.9033 81.9601 82.964 82.2215 82.964H83.5235V84H81.9275C81.3955 84 80.9848 83.8553 80.6955 83.566C80.4155 83.2673 80.2755 82.838 80.2755 82.278ZM88.0552 84V76.93H89.2312V78.316C89.4085 77.784 89.6885 77.4013 90.0712 77.168C90.4539 76.9347 90.8599 76.818 91.2892 76.818C91.7932 76.818 92.2225 76.9627 92.5772 77.252C92.9412 77.5413 93.2025 77.9193 93.3612 78.386C93.5385 77.882 93.8232 77.4947 94.2152 77.224C94.6165 76.9533 95.0552 76.818 95.5312 76.818C95.9045 76.818 96.2359 76.888 96.5252 77.028C96.8145 77.168 97.0572 77.364 97.2532 77.616C97.4492 77.8587 97.5985 78.148 97.7012 78.484C97.8039 78.8107 97.8552 79.1653 97.8552 79.548V84H96.6792V79.66C96.6792 79.128 96.5299 78.6893 96.2312 78.344C95.9419 77.9987 95.5639 77.826 95.0972 77.826C94.6679 77.826 94.2992 78.0033 93.9912 78.358C93.6925 78.7033 93.5432 79.128 93.5432 79.632V84H92.3672V79.66C92.3672 79.128 92.2179 78.6893 91.9192 78.344C91.6299 77.9987 91.2519 77.826 90.7852 77.826C90.3559 77.826 89.9872 78.0033 89.6792 78.358C89.3805 78.7033 89.2312 79.128 89.2312 79.632V84H88.0552ZM102.895 84.126C102.419 84.126 101.971 84.0327 101.551 83.846C101.131 83.6593 100.767 83.4073 100.459 83.09C100.151 82.7633 99.9083 82.376 99.731 81.928C99.5536 81.4707 99.465 80.976 99.465 80.444C99.465 79.9213 99.5536 79.436 99.731 78.988C99.9083 78.54 100.151 78.1573 100.459 77.84C100.767 77.5133 101.131 77.2567 101.551 77.07C101.971 76.8833 102.419 76.79 102.895 76.79C103.371 76.79 103.819 76.8833 104.239 77.07C104.659 77.2567 105.018 77.5133 105.317 77.84C105.625 78.1573 105.868 78.54 106.045 78.988C106.222 79.436 106.311 79.9213 106.311 80.444C106.311 80.976 106.222 81.4707 106.045 81.928C105.868 82.376 105.625 82.7633 105.317 83.09C105.018 83.4073 104.659 83.6593 104.239 83.846C103.819 84.0327 103.371 84.126 102.895 84.126ZM102.895 83.076C103.511 83.076 104.038 82.8287 104.477 82.334C104.916 81.8393 105.135 81.214 105.135 80.458C105.135 79.7113 104.916 79.0907 104.477 78.596C104.038 78.092 103.511 77.84 102.895 77.84C102.27 77.84 101.738 78.092 101.299 78.596C100.86 79.0907 100.641 79.7113 100.641 80.458C100.641 81.214 100.86 81.8393 101.299 82.334C101.738 82.8287 102.27 83.076 102.895 83.076ZM107.92 84V76.93H109.096V78.358C109.32 77.7513 109.661 77.3173 110.118 77.056C110.576 76.7853 111.108 76.6827 111.714 76.748V77.868C111.36 77.8027 111.024 77.812 110.706 77.896C110.389 77.98 110.109 78.12 109.866 78.316C109.633 78.5027 109.446 78.7407 109.306 79.03C109.166 79.3193 109.096 79.632 109.096 79.968V84H107.92ZM115.747 84.126C115.271 84.126 114.823 84.0327 114.403 83.846C113.983 83.6593 113.619 83.4073 113.311 83.09C113.003 82.7633 112.76 82.376 112.583 81.928C112.405 81.4707 112.317 80.976 112.317 80.444C112.317 79.9213 112.401 79.436 112.569 78.988C112.746 78.54 112.984 78.1573 113.283 77.84C113.591 77.5133 113.95 77.2567 114.361 77.07C114.771 76.8833 115.21 76.79 115.677 76.79C116.125 76.79 116.549 76.8833 116.951 77.07C117.352 77.2473 117.702 77.504 118.001 77.84C118.299 78.176 118.537 78.596 118.715 79.1C118.892 79.5947 118.981 80.1547 118.981 80.78V80.864H113.521C113.605 81.5173 113.857 82.0493 114.277 82.46C114.697 82.8707 115.187 83.076 115.747 83.076C116.101 83.076 116.428 82.992 116.727 82.824C117.035 82.6467 117.282 82.4133 117.469 82.124H118.785C118.533 82.7307 118.131 83.216 117.581 83.58C117.039 83.944 116.428 84.126 115.747 84.126ZM115.663 77.854C115.14 77.854 114.678 78.0453 114.277 78.428C113.885 78.8107 113.637 79.3007 113.535 79.898H117.749C117.655 79.3007 117.413 78.8107 117.021 78.428C116.629 78.0453 116.176 77.854 115.663 77.854ZM126.916 84.126C126.44 84.126 125.992 84.0327 125.572 83.846C125.152 83.6593 124.788 83.4073 124.48 83.09C124.172 82.7633 123.93 82.376 123.752 81.928C123.575 81.4707 123.486 80.976 123.486 80.444C123.486 79.9213 123.57 79.436 123.738 78.988C123.916 78.54 124.154 78.1573 124.452 77.84C124.76 77.5133 125.12 77.2567 125.53 77.07C125.941 76.8833 126.38 76.79 126.846 76.79C127.294 76.79 127.719 76.8833 128.12 77.07C128.522 77.2473 128.872 77.504 129.17 77.84C129.469 78.176 129.707 78.596 129.884 79.1C130.062 79.5947 130.15 80.1547 130.15 80.78V80.864H124.69C124.774 81.5173 125.026 82.0493 125.446 82.46C125.866 82.8707 126.356 83.076 126.916 83.076C127.271 83.076 127.598 82.992 127.896 82.824C128.204 82.6467 128.452 82.4133 128.638 82.124H129.954C129.702 82.7307 129.301 83.216 128.75 83.58C128.209 83.944 127.598 84.126 126.916 84.126ZM126.832 77.854C126.31 77.854 125.848 78.0453 125.446 78.428C125.054 78.8107 124.807 79.3007 124.704 79.898H128.918C128.825 79.3007 128.582 78.8107 128.19 78.428C127.798 78.0453 127.346 77.854 126.832 77.854ZM136.09 84V82.768C135.904 83.1787 135.605 83.51 135.194 83.762C134.793 84.0047 134.317 84.126 133.766 84.126C133.094 84.126 132.539 83.9393 132.1 83.566C131.671 83.1833 131.456 82.698 131.456 82.11C131.456 81.55 131.666 81.0973 132.086 80.752C132.506 80.3973 133.08 80.192 133.808 80.136L136.09 79.968V79.604C136.09 79.0907 135.932 78.666 135.614 78.33C135.306 77.9847 134.919 77.812 134.452 77.812C133.958 77.812 133.566 77.938 133.276 78.19C132.996 78.4327 132.81 78.7733 132.716 79.212H131.554C131.629 78.5027 131.937 77.924 132.478 77.476C133.02 77.0187 133.682 76.79 134.466 76.79C135.334 76.79 136.016 77.056 136.51 77.588C137.005 78.1107 137.252 78.778 137.252 79.59V84H136.09ZM132.618 82.11C132.618 82.4087 132.744 82.6607 132.996 82.866C133.248 83.062 133.58 83.16 133.99 83.16C134.56 83.16 135.05 82.9827 135.46 82.628C135.88 82.2733 136.09 81.858 136.09 81.382V80.878L134.032 81.032C133.594 81.0693 133.248 81.1813 132.996 81.368C132.744 81.5453 132.618 81.7927 132.618 82.11ZM142.241 83.034C142.699 83.034 143.109 82.8893 143.473 82.6C143.837 82.3107 144.103 81.928 144.271 81.452H145.475C145.289 82.236 144.897 82.88 144.299 83.384C143.711 83.8787 143.025 84.126 142.241 84.126C141.775 84.126 141.331 84.0327 140.911 83.846C140.501 83.6593 140.146 83.4073 139.847 83.09C139.549 82.7633 139.311 82.376 139.133 81.928C138.956 81.4707 138.867 80.976 138.867 80.444C138.867 79.9213 138.956 79.436 139.133 78.988C139.311 78.54 139.549 78.1573 139.847 77.84C140.146 77.5133 140.501 77.2567 140.911 77.07C141.331 76.8833 141.775 76.79 142.241 76.79C143.025 76.79 143.711 77.042 144.299 77.546C144.897 78.0407 145.289 78.68 145.475 79.464H144.271C144.103 78.988 143.837 78.6053 143.473 78.316C143.109 78.0267 142.699 77.882 142.241 77.882C141.625 77.882 141.103 78.1247 140.673 78.61C140.253 79.0953 140.043 79.7067 140.043 80.444C140.043 81.2 140.253 81.8207 140.673 82.306C141.103 82.7913 141.625 83.034 142.241 83.034ZM148.13 79.632V84H146.954V73.808L148.13 73.346V78.316C148.307 77.784 148.587 77.4013 148.97 77.168C149.362 76.9253 149.777 76.804 150.216 76.804C150.608 76.804 150.958 76.874 151.266 77.014C151.574 77.154 151.835 77.35 152.05 77.602C152.264 77.8447 152.428 78.134 152.54 78.47C152.652 78.806 152.708 79.1653 152.708 79.548V84H151.532V79.66C151.532 79.1 151.378 78.652 151.07 78.316C150.771 77.98 150.384 77.812 149.908 77.812C149.385 77.812 148.956 77.9893 148.62 78.344C148.293 78.6893 148.13 79.1187 148.13 79.632ZM164.755 81.284C164.755 81.732 164.666 82.1333 164.489 82.488C164.321 82.8427 164.083 83.1413 163.775 83.384C163.476 83.6267 163.117 83.8133 162.697 83.944C162.277 84.0653 161.824 84.126 161.339 84.126C160.779 84.126 160.261 84.042 159.785 83.874C159.309 83.6967 158.893 83.4587 158.539 83.16C158.193 82.852 157.918 82.4833 157.713 82.054C157.517 81.6247 157.409 81.158 157.391 80.654H158.553C158.609 81.3633 158.898 81.942 159.421 82.39C159.953 82.8287 160.597 83.048 161.353 83.048C161.642 83.048 161.917 83.0153 162.179 82.95C162.449 82.8753 162.683 82.768 162.879 82.628C163.084 82.488 163.243 82.3153 163.355 82.11C163.476 81.8953 163.537 81.6527 163.537 81.382C163.537 81.1113 163.467 80.8873 163.327 80.71C163.187 80.5233 163 80.3693 162.767 80.248C162.543 80.1267 162.277 80.024 161.969 79.94C161.67 79.856 161.357 79.7767 161.031 79.702C160.629 79.6087 160.223 79.506 159.813 79.394C159.411 79.2727 159.047 79.114 158.721 78.918C158.394 78.7127 158.128 78.4513 157.923 78.134C157.717 77.8073 157.615 77.392 157.615 76.888C157.615 76.5147 157.685 76.16 157.825 75.824C157.974 75.4787 158.184 75.18 158.455 74.928C158.725 74.6667 159.061 74.4613 159.463 74.312C159.864 74.1533 160.317 74.074 160.821 74.074C161.353 74.074 161.847 74.158 162.305 74.326C162.762 74.4847 163.159 74.7087 163.495 74.998C163.831 75.2873 164.097 75.6373 164.293 76.048C164.489 76.4493 164.601 76.8833 164.629 77.35H163.453C163.387 76.6967 163.121 76.1647 162.655 75.754C162.197 75.3433 161.586 75.138 160.821 75.138C160.195 75.138 159.705 75.3013 159.351 75.628C158.996 75.9547 158.819 76.356 158.819 76.832C158.819 77.0933 158.879 77.3173 159.001 77.504C159.131 77.6907 159.299 77.8447 159.505 77.966C159.71 78.0873 159.953 78.1947 160.233 78.288C160.513 78.372 160.807 78.4467 161.115 78.512C161.525 78.6147 161.945 78.722 162.375 78.834C162.813 78.946 163.205 79.1 163.551 79.296C163.905 79.4827 164.195 79.7347 164.419 80.052C164.643 80.3693 164.755 80.78 164.755 81.284ZM169.545 84.126C169.069 84.126 168.621 84.0327 168.201 83.846C167.781 83.6593 167.417 83.4073 167.109 83.09C166.801 82.7633 166.559 82.376 166.381 81.928C166.204 81.4707 166.115 80.976 166.115 80.444C166.115 79.9213 166.199 79.436 166.367 78.988C166.545 78.54 166.783 78.1573 167.081 77.84C167.389 77.5133 167.749 77.2567 168.159 77.07C168.57 76.8833 169.009 76.79 169.475 76.79C169.923 76.79 170.348 76.8833 170.749 77.07C171.151 77.2473 171.501 77.504 171.799 77.84C172.098 78.176 172.336 78.596 172.513 79.1C172.691 79.5947 172.779 80.1547 172.779 80.78V80.864H167.319C167.403 81.5173 167.655 82.0493 168.075 82.46C168.495 82.8707 168.985 83.076 169.545 83.076C169.9 83.076 170.227 82.992 170.525 82.824C170.833 82.6467 171.081 82.4133 171.267 82.124H172.583C172.331 82.7307 171.93 83.216 171.379 83.58C170.838 83.944 170.227 84.126 169.545 84.126ZM169.461 77.854C168.939 77.854 168.477 78.0453 168.075 78.428C167.683 78.8107 167.436 79.3007 167.333 79.898H171.547C171.454 79.3007 171.211 78.8107 170.819 78.428C170.427 78.0453 169.975 77.854 169.461 77.854ZM178.719 84V82.768C178.532 83.1787 178.234 83.51 177.823 83.762C177.422 84.0047 176.946 84.126 176.395 84.126C175.723 84.126 175.168 83.9393 174.729 83.566C174.3 83.1833 174.085 82.698 174.085 82.11C174.085 81.55 174.295 81.0973 174.715 80.752C175.135 80.3973 175.709 80.192 176.437 80.136L178.719 79.968V79.604C178.719 79.0907 178.56 78.666 178.243 78.33C177.935 77.9847 177.548 77.812 177.081 77.812C176.586 77.812 176.194 77.938 175.905 78.19C175.625 78.4327 175.438 78.7733 175.345 79.212H174.183C174.258 78.5027 174.566 77.924 175.107 77.476C175.648 77.0187 176.311 76.79 177.095 76.79C177.963 76.79 178.644 77.056 179.139 77.588C179.634 78.1107 179.881 78.778 179.881 79.59V84H178.719ZM175.247 82.11C175.247 82.4087 175.373 82.6607 175.625 82.866C175.877 83.062 176.208 83.16 176.619 83.16C177.188 83.16 177.678 82.9827 178.089 82.628C178.509 82.2733 178.719 81.858 178.719 81.382V80.878L176.661 81.032C176.222 81.0693 175.877 81.1813 175.625 81.368C175.373 81.5453 175.247 81.7927 175.247 82.11ZM181.51 78.89C181.52 78.2647 181.758 77.7607 182.224 77.378C182.7 76.9953 183.288 76.804 183.988 76.804C184.8 76.804 185.482 77.0373 186.032 77.504C186.583 77.9613 186.877 78.5493 186.914 79.268H185.766C185.729 78.8293 185.547 78.4793 185.22 78.218C184.903 77.9473 184.497 77.812 184.002 77.812C183.592 77.812 183.265 77.9053 183.022 78.092C182.789 78.2787 182.672 78.5167 182.672 78.806C182.672 79.142 182.836 79.3847 183.162 79.534C183.489 79.6833 183.867 79.814 184.296 79.926C184.604 80.0007 184.917 80.0847 185.234 80.178C185.561 80.262 185.85 80.3787 186.102 80.528C186.364 80.668 186.578 80.8593 186.746 81.102C186.914 81.3353 186.998 81.6387 186.998 82.012C186.998 82.6653 186.746 83.1833 186.242 83.566C185.738 83.9393 185.122 84.126 184.394 84.126C183.554 84.126 182.859 83.888 182.308 83.412C181.758 82.936 181.464 82.3247 181.426 81.578H182.574C182.602 82.0353 182.789 82.4087 183.134 82.698C183.489 82.9873 183.914 83.132 184.408 83.132C184.81 83.132 185.146 83.0433 185.416 82.866C185.696 82.6887 185.836 82.4413 185.836 82.124C185.836 81.76 185.645 81.508 185.262 81.368C184.889 81.2187 184.464 81.0833 183.988 80.962C183.699 80.8967 183.405 80.8173 183.106 80.724C182.808 80.6307 182.542 80.5093 182.308 80.36C182.075 80.2107 181.884 80.0193 181.734 79.786C181.585 79.5433 181.51 79.2447 181.51 78.89ZM191.68 84.126C191.204 84.126 190.756 84.0327 190.336 83.846C189.916 83.6593 189.552 83.4073 189.244 83.09C188.936 82.7633 188.693 82.376 188.516 81.928C188.339 81.4707 188.25 80.976 188.25 80.444C188.25 79.9213 188.339 79.436 188.516 78.988C188.693 78.54 188.936 78.1573 189.244 77.84C189.552 77.5133 189.916 77.2567 190.336 77.07C190.756 76.8833 191.204 76.79 191.68 76.79C192.156 76.79 192.604 76.8833 193.024 77.07C193.444 77.2567 193.803 77.5133 194.102 77.84C194.41 78.1573 194.653 78.54 194.83 78.988C195.007 79.436 195.096 79.9213 195.096 80.444C195.096 80.976 195.007 81.4707 194.83 81.928C194.653 82.376 194.41 82.7633 194.102 83.09C193.803 83.4073 193.444 83.6593 193.024 83.846C192.604 84.0327 192.156 84.126 191.68 84.126ZM191.68 83.076C192.296 83.076 192.823 82.8287 193.262 82.334C193.701 81.8393 193.92 81.214 193.92 80.458C193.92 79.7113 193.701 79.0907 193.262 78.596C192.823 78.092 192.296 77.84 191.68 77.84C191.055 77.84 190.523 78.092 190.084 78.596C189.645 79.0907 189.426 79.7113 189.426 80.458C189.426 81.214 189.645 81.8393 190.084 82.334C190.523 82.8287 191.055 83.076 191.68 83.076ZM197.882 79.632V84H196.706V76.93H197.882V78.316C198.059 77.784 198.339 77.4013 198.722 77.168C199.114 76.9253 199.529 76.804 199.968 76.804C200.36 76.804 200.71 76.874 201.018 77.014C201.326 77.154 201.587 77.35 201.802 77.602C202.016 77.8447 202.18 78.134 202.292 78.47C202.404 78.806 202.46 79.1653 202.46 79.548V84H201.284V79.66C201.284 79.1 201.13 78.652 200.822 78.316C200.523 77.98 200.136 77.812 199.66 77.812C199.137 77.812 198.708 77.9893 198.372 78.344C198.045 78.6893 197.882 79.1187 197.882 79.632ZM204.852 82.348C205.086 82.348 205.286 82.4367 205.454 82.614C205.632 82.782 205.72 82.9827 205.72 83.216C205.72 83.4493 205.632 83.65 205.454 83.818C205.286 83.986 205.086 84.07 204.852 84.07C204.619 84.07 204.418 83.986 204.25 83.818C204.092 83.65 204.012 83.4493 204.012 83.216C204.012 82.9827 204.092 82.782 204.25 82.614C204.418 82.4367 204.619 82.348 204.852 82.348ZM216.648 80.36V74.2H217.88V80.36C217.88 80.9853 217.777 81.536 217.572 82.012C217.376 82.488 217.105 82.8847 216.76 83.202C216.424 83.5193 216.027 83.7573 215.57 83.916C215.113 84.0747 214.632 84.154 214.128 84.154C213.615 84.154 213.129 84.0747 212.672 83.916C212.215 83.7573 211.813 83.5193 211.468 83.202C211.132 82.8847 210.861 82.488 210.656 82.012C210.46 81.536 210.362 80.9853 210.362 80.36V74.2H211.608V80.36C211.608 80.8173 211.673 81.214 211.804 81.55C211.944 81.8767 212.126 82.152 212.35 82.376C212.583 82.5907 212.849 82.754 213.148 82.866C213.456 82.9687 213.783 83.02 214.128 83.02C214.464 83.02 214.786 82.9687 215.094 82.866C215.402 82.754 215.668 82.5907 215.892 82.376C216.125 82.152 216.307 81.8767 216.438 81.55C216.578 81.214 216.648 80.8173 216.648 80.36ZM220.864 79.632V84H219.688V76.93H220.864V78.316C221.041 77.784 221.321 77.4013 221.704 77.168C222.096 76.9253 222.511 76.804 222.95 76.804C223.342 76.804 223.692 76.874 224 77.014C224.308 77.154 224.569 77.35 224.784 77.602C224.999 77.8447 225.162 78.134 225.274 78.47C225.386 78.806 225.442 79.1653 225.442 79.548V84H224.266V79.66C224.266 79.1 224.112 78.652 223.804 78.316C223.505 77.98 223.118 77.812 222.642 77.812C222.119 77.812 221.69 77.9893 221.354 78.344C221.027 78.6893 220.864 79.1187 220.864 79.632ZM228.493 73.346V84H227.317V73.808L228.493 73.346ZM233.53 84.126C233.054 84.126 232.606 84.0327 232.186 83.846C231.766 83.6593 231.402 83.4073 231.094 83.09C230.786 82.7633 230.543 82.376 230.366 81.928C230.188 81.4707 230.1 80.976 230.1 80.444C230.1 79.9213 230.188 79.436 230.366 78.988C230.543 78.54 230.786 78.1573 231.094 77.84C231.402 77.5133 231.766 77.2567 232.186 77.07C232.606 76.8833 233.054 76.79 233.53 76.79C234.006 76.79 234.454 76.8833 234.874 77.07C235.294 77.2567 235.653 77.5133 235.952 77.84C236.26 78.1573 236.502 78.54 236.68 78.988C236.857 79.436 236.946 79.9213 236.946 80.444C236.946 80.976 236.857 81.4707 236.68 81.928C236.502 82.376 236.26 82.7633 235.952 83.09C235.653 83.4073 235.294 83.6593 234.874 83.846C234.454 84.0327 234.006 84.126 233.53 84.126ZM233.53 83.076C234.146 83.076 234.673 82.8287 235.112 82.334C235.55 81.8393 235.77 81.214 235.77 80.458C235.77 79.7113 235.55 79.0907 235.112 78.596C234.673 78.092 234.146 77.84 233.53 77.84C232.904 77.84 232.372 78.092 231.934 78.596C231.495 79.0907 231.276 79.7113 231.276 80.458C231.276 81.214 231.495 81.8393 231.934 82.334C232.372 82.8287 232.904 83.076 233.53 83.076ZM241.663 83.034C242.121 83.034 242.531 82.8893 242.895 82.6C243.259 82.3107 243.525 81.928 243.693 81.452H244.897C244.711 82.236 244.319 82.88 243.721 83.384C243.133 83.8787 242.447 84.126 241.663 84.126C241.197 84.126 240.753 84.0327 240.333 83.846C239.923 83.6593 239.568 83.4073 239.269 83.09C238.971 82.7633 238.733 82.376 238.555 81.928C238.378 81.4707 238.289 80.976 238.289 80.444C238.289 79.9213 238.378 79.436 238.555 78.988C238.733 78.54 238.971 78.1573 239.269 77.84C239.568 77.5133 239.923 77.2567 240.333 77.07C240.753 76.8833 241.197 76.79 241.663 76.79C242.447 76.79 243.133 77.042 243.721 77.546C244.319 78.0407 244.711 78.68 244.897 79.464H243.693C243.525 78.988 243.259 78.6053 242.895 78.316C242.531 78.0267 242.121 77.882 241.663 77.882C241.047 77.882 240.525 78.1247 240.095 78.61C239.675 79.0953 239.465 79.7067 239.465 80.444C239.465 81.2 239.675 81.8207 240.095 82.306C240.525 82.7913 241.047 83.034 241.663 83.034ZM247.552 73.346V84H246.376V73.808L247.552 73.346ZM247.706 80.5L250.814 76.93H252.144L249.106 80.416L252.2 84H250.688L247.706 80.5ZM257.628 73.346V84H256.452V73.808L257.628 73.346ZM262.665 84.126C262.189 84.126 261.741 84.0327 261.321 83.846C260.901 83.6593 260.537 83.4073 260.229 83.09C259.921 82.7633 259.678 82.376 259.501 81.928C259.323 81.4707 259.235 80.976 259.235 80.444C259.235 79.9213 259.319 79.436 259.486 78.988C259.664 78.54 259.902 78.1573 260.201 77.84C260.509 77.5133 260.868 77.2567 261.279 77.07C261.689 76.8833 262.128 76.79 262.595 76.79C263.043 76.79 263.467 76.8833 263.869 77.07C264.27 77.2473 264.62 77.504 264.919 77.84C265.217 78.176 265.455 78.596 265.632 79.1C265.81 79.5947 265.899 80.1547 265.899 80.78V80.864H260.439C260.523 81.5173 260.775 82.0493 261.195 82.46C261.615 82.8707 262.105 83.076 262.665 83.076C263.019 83.076 263.346 82.992 263.645 82.824C263.953 82.6467 264.2 82.4133 264.387 82.124H265.703C265.451 82.7307 265.049 83.216 264.499 83.58C263.957 83.944 263.346 84.126 262.665 84.126ZM262.581 77.854C262.058 77.854 261.596 78.0453 261.195 78.428C260.803 78.8107 260.555 79.3007 260.453 79.898H264.667C264.573 79.3007 264.331 78.8107 263.939 78.428C263.547 78.0453 263.094 77.854 262.581 77.854ZM266.248 76.93H267.55L269.888 82.208L272.198 76.93H273.458L270.07 84.098H269.608L266.248 76.93ZM277.239 84.126C276.763 84.126 276.315 84.0327 275.895 83.846C275.475 83.6593 275.111 83.4073 274.803 83.09C274.495 82.7633 274.252 82.376 274.075 81.928C273.897 81.4707 273.809 80.976 273.809 80.444C273.809 79.9213 273.893 79.436 274.061 78.988C274.238 78.54 274.476 78.1573 274.775 77.84C275.083 77.5133 275.442 77.2567 275.853 77.07C276.263 76.8833 276.702 76.79 277.169 76.79C277.617 76.79 278.041 76.8833 278.443 77.07C278.844 77.2473 279.194 77.504 279.493 77.84C279.791 78.176 280.029 78.596 280.207 79.1C280.384 79.5947 280.473 80.1547 280.473 80.78V80.864H275.013C275.097 81.5173 275.349 82.0493 275.769 82.46C276.189 82.8707 276.679 83.076 277.239 83.076C277.593 83.076 277.92 82.992 278.219 82.824C278.527 82.6467 278.774 82.4133 278.961 82.124H280.277C280.025 82.7307 279.623 83.216 279.073 83.58C278.531 83.944 277.92 84.126 277.239 84.126ZM277.155 77.854C276.632 77.854 276.17 78.0453 275.769 78.428C275.377 78.8107 275.129 79.3007 275.027 79.898H279.241C279.147 79.3007 278.905 78.8107 278.513 78.428C278.121 78.0453 277.668 77.854 277.155 77.854ZM283.262 73.346V84H282.086V73.808L283.262 73.346ZM291.317 84.14C290.384 84.14 289.623 83.86 289.035 83.3C288.447 82.74 288.121 82.0167 288.055 81.13H289.259C289.325 81.7087 289.53 82.18 289.875 82.544C290.23 82.8987 290.701 83.076 291.289 83.076C291.868 83.076 292.339 82.8847 292.703 82.502C293.077 82.11 293.263 81.6247 293.263 81.046C293.263 80.458 293.067 79.9867 292.675 79.632C292.293 79.2773 291.756 79.1 291.065 79.1H289.693V78.68L292.353 75.25H288.279V74.2H294.117V74.62L291.429 78.106C292.353 78.134 293.091 78.414 293.641 78.946C294.192 79.478 294.467 80.15 294.467 80.962C294.467 81.4193 294.388 81.844 294.229 82.236C294.08 82.628 293.865 82.964 293.585 83.244C293.305 83.524 292.969 83.7433 292.577 83.902C292.195 84.0607 291.775 84.14 291.317 84.14ZM299.839 84.14C299.279 84.14 298.761 84.0233 298.285 83.79C297.809 83.5473 297.403 83.2067 297.067 82.768C296.731 82.3293 296.465 81.7973 296.269 81.172C296.082 80.5467 295.989 79.856 295.989 79.1C295.989 78.344 296.082 77.6533 296.269 77.028C296.465 76.4027 296.731 75.8707 297.067 75.432C297.403 74.9933 297.809 74.6573 298.285 74.424C298.761 74.1813 299.279 74.06 299.839 74.06C300.399 74.06 300.917 74.1813 301.393 74.424C301.869 74.6573 302.275 74.9933 302.611 75.432C302.956 75.8707 303.222 76.4027 303.409 77.028C303.605 77.6533 303.703 78.344 303.703 79.1C303.703 79.856 303.605 80.5467 303.409 81.172C303.222 81.7973 302.956 82.3293 302.611 82.768C302.275 83.2067 301.869 83.5473 301.393 83.79C300.917 84.0233 300.399 84.14 299.839 84.14ZM299.839 83.076C300.651 83.076 301.295 82.7167 301.771 81.998C302.256 81.2793 302.499 80.3133 302.499 79.1C302.499 77.8867 302.256 76.9207 301.771 76.202C301.295 75.4833 300.651 75.124 299.839 75.124C299.027 75.124 298.383 75.4833 297.907 76.202C297.431 76.9207 297.193 77.8867 297.193 79.1C297.193 80.3133 297.431 81.2793 297.907 81.998C298.383 82.7167 299.027 83.076 299.839 83.076ZM0.938 102V94.93H2.114V96.358C2.338 95.7513 2.67867 95.3173 3.136 95.056C3.59333 94.7853 4.12533 94.6827 4.732 94.748V95.868C4.37733 95.8027 4.04133 95.812 3.724 95.896C3.40667 95.98 3.12667 96.12 2.884 96.316C2.65067 96.5027 2.464 96.7407 2.324 97.03C2.184 97.3193 2.114 97.632 2.114 97.968V102H0.938ZM8.76411 102.126C8.28811 102.126 7.84011 102.033 7.42011 101.846C7.00011 101.659 6.63611 101.407 6.32811 101.09C6.02011 100.763 5.77744 100.376 5.60011 99.928C5.42278 99.4707 5.33411 98.976 5.33411 98.444C5.33411 97.9213 5.41811 97.436 5.58611 96.988C5.76344 96.54 6.00144 96.1573 6.30011 95.84C6.60811 95.5133 6.96744 95.2567 7.37811 95.07C7.78878 94.8833 8.22744 94.79 8.69411 94.79C9.14211 94.79 9.56678 94.8833 9.96811 95.07C10.3694 95.2473 10.7194 95.504 11.0181 95.84C11.3168 96.176 11.5548 96.596 11.7321 97.1C11.9094 97.5947 11.9981 98.1547 11.9981 98.78V98.864H6.53811C6.62211 99.5173 6.87411 100.049 7.29411 100.46C7.71411 100.871 8.20411 101.076 8.76411 101.076C9.11878 101.076 9.44544 100.992 9.74411 100.824C10.0521 100.647 10.2994 100.413 10.4861 100.124H11.8021C11.5501 100.731 11.1488 101.216 10.5981 101.58C10.0568 101.944 9.44544 102.126 8.76411 102.126ZM8.68011 95.854C8.15744 95.854 7.69544 96.0453 7.29411 96.428C6.90211 96.8107 6.65478 97.3007 6.55211 97.898H10.7661C10.6728 97.3007 10.4301 96.8107 10.0381 96.428C9.64611 96.0453 9.19344 95.854 8.68011 95.854ZM19.1624 102.056L17.3004 96.904L15.4524 102.056H14.9344L12.6664 94.93H13.8704L15.3264 99.76L17.0624 94.888H17.6364L19.3724 99.732L20.8144 94.93H21.9204L19.6804 102.056H19.1624ZM27.3167 102V100.768C27.1301 101.179 26.8314 101.51 26.4207 101.762C26.0194 102.005 25.5434 102.126 24.9927 102.126C24.3207 102.126 23.7654 101.939 23.3267 101.566C22.8974 101.183 22.6827 100.698 22.6827 100.11C22.6827 99.55 22.8927 99.0973 23.3127 98.752C23.7327 98.3973 24.3067 98.192 25.0347 98.136L27.3167 97.968V97.604C27.3167 97.0907 27.1581 96.666 26.8407 96.33C26.5327 95.9847 26.1454 95.812 25.6787 95.812C25.1841 95.812 24.7921 95.938 24.5027 96.19C24.2227 96.4327 24.0361 96.7733 23.9427 97.212H22.7807C22.8554 96.5027 23.1634 95.924 23.7047 95.476C24.2461 95.0187 24.9087 94.79 25.6927 94.79C26.5607 94.79 27.2421 95.056 27.7367 95.588C28.2314 96.1107 28.4787 96.778 28.4787 97.59V102H27.3167ZM23.8447 100.11C23.8447 100.409 23.9707 100.661 24.2227 100.866C24.4747 101.062 24.8061 101.16 25.2167 101.16C25.7861 101.16 26.2761 100.983 26.6867 100.628C27.1067 100.273 27.3167 99.858 27.3167 99.382V98.878L25.2587 99.032C24.8201 99.0693 24.4747 99.1813 24.2227 99.368C23.9707 99.5453 23.8447 99.7927 23.8447 100.11ZM30.3599 102V94.93H31.5359V96.358C31.7599 95.7513 32.1005 95.3173 32.5579 95.056C33.0152 94.7853 33.5472 94.6827 34.1539 94.748V95.868C33.7992 95.8027 33.4632 95.812 33.1459 95.896C32.8285 95.98 32.5485 96.12 32.3059 96.316C32.0725 96.5027 31.8859 96.7407 31.7459 97.03C31.6059 97.3193 31.5359 97.632 31.5359 97.968V102H30.3599ZM37.976 102.112C37.528 102.112 37.108 102.019 36.716 101.832C36.324 101.645 35.9833 101.393 35.694 101.076C35.4047 100.749 35.176 100.362 35.008 99.914C34.84 99.4567 34.756 98.9667 34.756 98.444C34.756 97.9213 34.84 97.4407 35.008 97.002C35.176 96.554 35.4047 96.1713 35.694 95.854C35.9833 95.5273 36.324 95.2707 36.716 95.084C37.1173 94.8973 37.542 94.804 37.99 94.804C38.4753 94.804 38.928 94.9253 39.348 95.168C39.768 95.4013 40.118 95.7233 40.398 96.134V91.808L41.574 91.346V102H40.398V100.768C40.118 101.188 39.7633 101.519 39.334 101.762C38.914 101.995 38.4613 102.112 37.976 102.112ZM38.186 101.048C38.802 101.048 39.3293 100.805 39.768 100.32C40.2067 99.8253 40.426 99.2 40.426 98.444C40.426 97.6973 40.2067 97.0813 39.768 96.596C39.3293 96.1107 38.802 95.868 38.186 95.868C37.5607 95.868 37.0287 96.1107 36.59 96.596C36.1513 97.0813 35.932 97.6973 35.932 98.444C35.932 99.2 36.1513 99.8253 36.59 100.32C37.0287 100.805 37.5607 101.048 38.186 101.048ZM43.1919 96.89C43.2012 96.2647 43.4392 95.7607 43.9059 95.378C44.3819 94.9953 44.9699 94.804 45.6699 94.804C46.4819 94.804 47.1632 95.0373 47.7139 95.504C48.2645 95.9613 48.5585 96.5493 48.5959 97.268H47.4479C47.4105 96.8293 47.2285 96.4793 46.9019 96.218C46.5845 95.9473 46.1785 95.812 45.6839 95.812C45.2732 95.812 44.9465 95.9053 44.7039 96.092C44.4705 96.2787 44.3539 96.5167 44.3539 96.806C44.3539 97.142 44.5172 97.3847 44.8439 97.534C45.1705 97.6833 45.5485 97.814 45.9779 97.926C46.2859 98.0007 46.5985 98.0847 46.9159 98.178C47.2425 98.262 47.5319 98.3787 47.7839 98.528C48.0452 98.668 48.2599 98.8593 48.4279 99.102C48.5959 99.3353 48.6799 99.6387 48.6799 100.012C48.6799 100.665 48.4279 101.183 47.9239 101.566C47.4199 101.939 46.8039 102.126 46.0759 102.126C45.2359 102.126 44.5405 101.888 43.9899 101.412C43.4392 100.936 43.1452 100.325 43.1079 99.578H44.2559C44.2839 100.035 44.4705 100.409 44.8159 100.698C45.1705 100.987 45.5952 101.132 46.0899 101.132C46.4912 101.132 46.8272 101.043 47.0979 100.866C47.3779 100.689 47.5179 100.441 47.5179 100.124C47.5179 99.76 47.3265 99.508 46.9439 99.368C46.5705 99.2187 46.1459 99.0833 45.6699 98.962C45.3805 98.8967 45.0865 98.8173 44.7879 98.724C44.4892 98.6307 44.2232 98.5093 43.9899 98.36C43.7565 98.2107 43.5652 98.0193 43.4159 97.786C43.2665 97.5433 43.1919 97.2447 43.1919 96.89ZM57.738 95.938H55.666V102H54.49V95.938H52.712V94.93H54.49V93.502C54.49 92.9513 54.6346 92.5313 54.924 92.242C55.2133 91.9527 55.624 91.808 56.156 91.808H57.738V92.844H56.436C56.1746 92.844 55.9786 92.9093 55.848 93.04C55.7266 93.1613 55.666 93.3433 55.666 93.586V94.93H57.738V95.938ZM63.3011 102V100.768C63.1144 101.179 62.8158 101.51 62.4051 101.762C62.0038 102.005 61.5278 102.126 60.9771 102.126C60.3051 102.126 59.7498 101.939 59.3111 101.566C58.8818 101.183 58.6671 100.698 58.6671 100.11C58.6671 99.55 58.8771 99.0973 59.2971 98.752C59.7171 98.3973 60.2911 98.192 61.0191 98.136L63.3011 97.968V97.604C63.3011 97.0907 63.1424 96.666 62.8251 96.33C62.5171 95.9847 62.1298 95.812 61.6631 95.812C61.1684 95.812 60.7764 95.938 60.4871 96.19C60.2071 96.4327 60.0204 96.7733 59.9271 97.212H58.7651C58.8398 96.5027 59.1478 95.924 59.6891 95.476C60.2304 95.0187 60.8931 94.79 61.6771 94.79C62.5451 94.79 63.2264 95.056 63.7211 95.588C64.2158 96.1107 64.4631 96.778 64.4631 97.59V102H63.3011ZM59.8291 100.11C59.8291 100.409 59.9551 100.661 60.2071 100.866C60.4591 101.062 60.7904 101.16 61.2011 101.16C61.7704 101.16 62.2604 100.983 62.6711 100.628C63.0911 100.273 63.3011 99.858 63.3011 99.382V98.878L61.2431 99.032C60.8044 99.0693 60.4591 99.1813 60.2071 99.368C59.9551 99.5453 59.8291 99.7927 59.8291 100.11ZM66.0923 96.89C66.1016 96.2647 66.3396 95.7607 66.8063 95.378C67.2823 94.9953 67.8703 94.804 68.5703 94.804C69.3823 94.804 70.0636 95.0373 70.6143 95.504C71.1649 95.9613 71.4589 96.5493 71.4963 97.268H70.3483C70.3109 96.8293 70.1289 96.4793 69.8023 96.218C69.4849 95.9473 69.0789 95.812 68.5843 95.812C68.1736 95.812 67.8469 95.9053 67.6043 96.092C67.3709 96.2787 67.2542 96.5167 67.2542 96.806C67.2542 97.142 67.4176 97.3847 67.7443 97.534C68.0709 97.6833 68.4489 97.814 68.8783 97.926C69.1863 98.0007 69.4989 98.0847 69.8163 98.178C70.1429 98.262 70.4323 98.3787 70.6843 98.528C70.9456 98.668 71.1603 98.8593 71.3283 99.102C71.4963 99.3353 71.5803 99.6387 71.5803 100.012C71.5803 100.665 71.3283 101.183 70.8243 101.566C70.3203 101.939 69.7043 102.126 68.9763 102.126C68.1363 102.126 67.4409 101.888 66.8903 101.412C66.3396 100.936 66.0456 100.325 66.0083 99.578H67.1562C67.1843 100.035 67.3709 100.409 67.7163 100.698C68.0709 100.987 68.4956 101.132 68.9903 101.132C69.3916 101.132 69.7276 101.043 69.9983 100.866C70.2783 100.689 70.4183 100.441 70.4183 100.124C70.4183 99.76 70.2269 99.508 69.8443 99.368C69.4709 99.2187 69.0463 99.0833 68.5703 98.962C68.2809 98.8967 67.9869 98.8173 67.6883 98.724C67.3896 98.6307 67.1236 98.5093 66.8903 98.36C66.6569 98.2107 66.4656 98.0193 66.3163 97.786C66.1669 97.5433 66.0923 97.2447 66.0923 96.89ZM74.1094 100.278V95.938H72.3174V94.93H74.1094V93.264L75.2714 92.844V94.93H77.3574V95.938H75.2714V100.222C75.2714 100.465 75.3368 100.651 75.4674 100.782C75.5981 100.903 75.7941 100.964 76.0554 100.964H77.3574V102H75.7614C75.2294 102 74.8188 101.855 74.5294 101.566C74.2494 101.267 74.1094 100.838 74.1094 100.278ZM81.7583 102.126C81.2823 102.126 80.8343 102.033 80.4143 101.846C79.9943 101.659 79.6303 101.407 79.3223 101.09C79.0143 100.763 78.7716 100.376 78.5943 99.928C78.4169 99.4707 78.3283 98.976 78.3283 98.444C78.3283 97.9213 78.4123 97.436 78.5802 96.988C78.7576 96.54 78.9956 96.1573 79.2943 95.84C79.6023 95.5133 79.9616 95.2567 80.3723 95.07C80.7829 94.8833 81.2216 94.79 81.6883 94.79C82.1363 94.79 82.5609 94.8833 82.9623 95.07C83.3636 95.2473 83.7136 95.504 84.0123 95.84C84.3109 96.176 84.5489 96.596 84.7262 97.1C84.9036 97.5947 84.9923 98.1547 84.9923 98.78V98.864H79.5323C79.6163 99.5173 79.8683 100.049 80.2883 100.46C80.7083 100.871 81.1983 101.076 81.7583 101.076C82.1129 101.076 82.4396 100.992 82.7383 100.824C83.0463 100.647 83.2936 100.413 83.4803 100.124H84.7963C84.5443 100.731 84.1429 101.216 83.5923 101.58C83.0509 101.944 82.4396 102.126 81.7583 102.126ZM81.6743 95.854C81.1516 95.854 80.6896 96.0453 80.2883 96.428C79.8963 96.8107 79.6489 97.3007 79.5463 97.898H83.7603C83.6669 97.3007 83.4243 96.8107 83.0323 96.428C82.6403 96.0453 82.1876 95.854 81.6743 95.854ZM86.606 102V94.93H87.782V96.358C88.006 95.7513 88.3466 95.3173 88.804 95.056C89.2613 94.7853 89.7933 94.6827 90.4 94.748V95.868C90.0453 95.8027 89.7093 95.812 89.392 95.896C89.0746 95.98 88.7946 96.12 88.552 96.316C88.3186 96.5027 88.132 96.7407 87.992 97.03C87.852 97.3193 87.782 97.632 87.782 97.968V102H86.606ZM100.811 102.056L98.9488 96.904L97.1008 102.056H96.5828L94.3148 94.93H95.5188L96.9748 99.76L98.7108 94.888H99.2848L101.021 99.732L102.463 94.93H103.569L101.329 102.056H100.811ZM105.364 93.74C105.131 93.74 104.93 93.656 104.762 93.488C104.594 93.3107 104.51 93.1053 104.51 92.872C104.51 92.6387 104.594 92.4333 104.762 92.256C104.93 92.0787 105.131 91.99 105.364 91.99C105.597 91.99 105.798 92.0787 105.966 92.256C106.134 92.4333 106.218 92.6387 106.218 92.872C106.218 93.1053 106.134 93.3107 105.966 93.488C105.798 93.656 105.597 93.74 105.364 93.74ZM104.776 102V94.93H105.952V102H104.776ZM108.973 100.278V95.938H107.181V94.93H108.973V93.264L110.135 92.844V94.93H112.221V95.938H110.135V100.222C110.135 100.465 110.2 100.651 110.331 100.782C110.461 100.903 110.657 100.964 110.919 100.964H112.221V102H110.625C110.093 102 109.682 101.855 109.393 101.566C109.113 101.267 108.973 100.838 108.973 100.278ZM114.77 97.632V102H113.594V91.808L114.77 91.346V96.316C114.948 95.784 115.228 95.4013 115.61 95.168C116.002 94.9253 116.418 94.804 116.856 94.804C117.248 94.804 117.598 94.874 117.906 95.014C118.214 95.154 118.476 95.35 118.69 95.602C118.905 95.8447 119.068 96.134 119.18 96.47C119.292 96.806 119.348 97.1653 119.348 97.548V102H118.172V97.66C118.172 97.1 118.018 96.652 117.71 96.316C117.412 95.98 117.024 95.812 116.548 95.812C116.026 95.812 115.596 95.9893 115.26 96.344C114.934 96.6893 114.77 97.1187 114.77 97.632ZM125.529 100.278V95.938H123.737V94.93H125.529V93.264L126.691 92.844V94.93H128.777V95.938H126.691V100.222C126.691 100.465 126.757 100.651 126.887 100.782C127.018 100.903 127.214 100.964 127.475 100.964H128.777V102H127.181C126.649 102 126.239 101.855 125.949 101.566C125.669 101.267 125.529 100.838 125.529 100.278ZM131.327 97.632V102H130.151V91.808L131.327 91.346V96.316C131.504 95.784 131.784 95.4013 132.167 95.168C132.559 94.9253 132.974 94.804 133.413 94.804C133.805 94.804 134.155 94.874 134.463 95.014C134.771 95.154 135.032 95.35 135.247 95.602C135.462 95.8447 135.625 96.134 135.737 96.47C135.849 96.806 135.905 97.1653 135.905 97.548V102H134.729V97.66C134.729 97.1 134.575 96.652 134.267 96.316C133.968 95.98 133.581 95.812 133.105 95.812C132.582 95.812 132.153 95.9893 131.817 96.344C131.49 96.6893 131.327 97.1187 131.327 97.632ZM140.944 102.126C140.468 102.126 140.02 102.033 139.6 101.846C139.18 101.659 138.816 101.407 138.508 101.09C138.2 100.763 137.957 100.376 137.78 99.928C137.602 99.4707 137.514 98.976 137.514 98.444C137.514 97.9213 137.598 97.436 137.766 96.988C137.943 96.54 138.181 96.1573 138.48 95.84C138.788 95.5133 139.147 95.2567 139.558 95.07C139.968 94.8833 140.407 94.79 140.874 94.79C141.322 94.79 141.746 94.8833 142.148 95.07C142.549 95.2473 142.899 95.504 143.198 95.84C143.496 96.176 143.734 96.596 143.912 97.1C144.089 97.5947 144.178 98.1547 144.178 98.78V98.864H138.718C138.802 99.5173 139.054 100.049 139.474 100.46C139.894 100.871 140.384 101.076 140.944 101.076C141.298 101.076 141.625 100.992 141.924 100.824C142.232 100.647 142.479 100.413 142.666 100.124H143.982C143.73 100.731 143.328 101.216 142.778 101.58C142.236 101.944 141.625 102.126 140.944 102.126ZM140.86 95.854C140.337 95.854 139.875 96.0453 139.474 96.428C139.082 96.8107 138.834 97.3007 138.732 97.898H142.946C142.852 97.3007 142.61 96.8107 142.218 96.428C141.826 96.0453 141.373 95.854 140.86 95.854ZM155.404 102H149.02V92.2H155.404V93.292H150.252V96.456H154.2V97.548H150.252V100.908H155.404V102ZM164.112 102L163.076 99.634H158.512L157.476 102H156.202L160.696 92.06H160.99L165.484 102H164.112ZM158.974 98.57H162.614L160.794 94.412L158.974 98.57ZM169.678 92.2H173.22C173.668 92.2 174.083 92.2747 174.466 92.424C174.849 92.564 175.175 92.7647 175.446 93.026C175.726 93.278 175.945 93.5813 176.104 93.936C176.263 94.2907 176.342 94.6733 176.342 95.084C176.342 95.4947 176.263 95.882 176.104 96.246C175.945 96.6007 175.726 96.9087 175.446 97.17C175.175 97.422 174.849 97.6227 174.466 97.772C174.083 97.912 173.668 97.982 173.22 97.982H170.91V102H169.678V92.2ZM173.206 96.918C173.766 96.918 174.223 96.7453 174.578 96.4C174.933 96.0547 175.11 95.616 175.11 95.084C175.11 94.552 174.937 94.1227 174.592 93.796C174.247 93.46 173.785 93.292 173.206 93.292H170.91V96.918H173.206ZM179.178 91.346V102H178.002V91.808L179.178 91.346ZM185.377 102V100.768C185.191 101.179 184.892 101.51 184.481 101.762C184.08 102.005 183.604 102.126 183.053 102.126C182.381 102.126 181.826 101.939 181.387 101.566C180.958 101.183 180.743 100.698 180.743 100.11C180.743 99.55 180.953 99.0973 181.373 98.752C181.793 98.3973 182.367 98.192 183.095 98.136L185.377 97.968V97.604C185.377 97.0907 185.219 96.666 184.901 96.33C184.593 95.9847 184.206 95.812 183.739 95.812C183.245 95.812 182.853 95.938 182.563 96.19C182.283 96.4327 182.097 96.7733 182.003 97.212H180.841C180.916 96.5027 181.224 95.924 181.765 95.476C182.307 95.0187 182.969 94.79 183.753 94.79C184.621 94.79 185.303 95.056 185.797 95.588C186.292 96.1107 186.539 96.778 186.539 97.59V102H185.377ZM181.905 100.11C181.905 100.409 182.031 100.661 182.283 100.866C182.535 101.062 182.867 101.16 183.277 101.16C183.847 101.16 184.337 100.983 184.747 100.628C185.167 100.273 185.377 99.858 185.377 99.382V98.878L183.319 99.032C182.881 99.0693 182.535 99.1813 182.283 99.368C182.031 99.5453 181.905 99.7927 181.905 100.11ZM194.321 94.93L189.603 105.164H188.287L190.233 101.16L187.307 94.93H188.609L190.863 99.858L193.089 94.93H194.321ZM205.524 99.284C205.524 99.732 205.436 100.133 205.258 100.488C205.09 100.843 204.852 101.141 204.544 101.384C204.246 101.627 203.886 101.813 203.466 101.944C203.046 102.065 202.594 102.126 202.108 102.126C201.548 102.126 201.03 102.042 200.554 101.874C200.078 101.697 199.663 101.459 199.308 101.16C198.963 100.852 198.688 100.483 198.482 100.054C198.286 99.6247 198.179 99.158 198.16 98.654H199.322C199.378 99.3633 199.668 99.942 200.19 100.39C200.722 100.829 201.366 101.048 202.122 101.048C202.412 101.048 202.687 101.015 202.948 100.95C203.219 100.875 203.452 100.768 203.648 100.628C203.854 100.488 204.012 100.315 204.124 100.11C204.246 99.8953 204.306 99.6527 204.306 99.382C204.306 99.1113 204.236 98.8873 204.096 98.71C203.956 98.5233 203.77 98.3693 203.536 98.248C203.312 98.1267 203.046 98.024 202.738 97.94C202.44 97.856 202.127 97.7767 201.8 97.702C201.399 97.6087 200.993 97.506 200.582 97.394C200.181 97.2727 199.817 97.114 199.49 96.918C199.164 96.7127 198.898 96.4513 198.692 96.134C198.487 95.8073 198.384 95.392 198.384 94.888C198.384 94.5147 198.454 94.16 198.594 93.824C198.744 93.4787 198.954 93.18 199.224 92.928C199.495 92.6667 199.831 92.4613 200.232 92.312C200.634 92.1533 201.086 92.074 201.59 92.074C202.122 92.074 202.617 92.158 203.074 92.326C203.532 92.4847 203.928 92.7087 204.264 92.998C204.6 93.2873 204.866 93.6373 205.062 94.048C205.258 94.4493 205.37 94.8833 205.398 95.35H204.222C204.157 94.6967 203.891 94.1647 203.424 93.754C202.967 93.3433 202.356 93.138 201.59 93.138C200.965 93.138 200.475 93.3013 200.12 93.628C199.766 93.9547 199.588 94.356 199.588 94.832C199.588 95.0933 199.649 95.3173 199.77 95.504C199.901 95.6907 200.069 95.8447 200.274 95.966C200.48 96.0873 200.722 96.1947 201.002 96.288C201.282 96.372 201.576 96.4467 201.884 96.512C202.295 96.6147 202.715 96.722 203.144 96.834C203.583 96.946 203.975 97.1 204.32 97.296C204.675 97.4827 204.964 97.7347 205.188 98.052C205.412 98.3693 205.524 98.78 205.524 99.284ZM210.315 102.126C209.839 102.126 209.391 102.033 208.971 101.846C208.551 101.659 208.187 101.407 207.879 101.09C207.571 100.763 207.328 100.376 207.151 99.928C206.974 99.4707 206.885 98.976 206.885 98.444C206.885 97.9213 206.969 97.436 207.137 96.988C207.314 96.54 207.552 96.1573 207.851 95.84C208.159 95.5133 208.518 95.2567 208.929 95.07C209.34 94.8833 209.778 94.79 210.245 94.79C210.693 94.79 211.118 94.8833 211.519 95.07C211.92 95.2473 212.27 95.504 212.569 95.84C212.868 96.176 213.106 96.596 213.283 97.1C213.46 97.5947 213.549 98.1547 213.549 98.78V98.864H208.089C208.173 99.5173 208.425 100.049 208.845 100.46C209.265 100.871 209.755 101.076 210.315 101.076C210.67 101.076 210.996 100.992 211.295 100.824C211.603 100.647 211.85 100.413 212.037 100.124H213.353C213.101 100.731 212.7 101.216 212.149 101.58C211.608 101.944 210.996 102.126 210.315 102.126ZM210.231 95.854C209.708 95.854 209.246 96.0453 208.845 96.428C208.453 96.8107 208.206 97.3007 208.103 97.898H212.317C212.224 97.3007 211.981 96.8107 211.589 96.428C211.197 96.0453 210.744 95.854 210.231 95.854ZM219.489 102V100.768C219.302 101.179 219.003 101.51 218.593 101.762C218.191 102.005 217.715 102.126 217.165 102.126C216.493 102.126 215.937 101.939 215.499 101.566C215.069 101.183 214.855 100.698 214.855 100.11C214.855 99.55 215.065 99.0973 215.485 98.752C215.905 98.3973 216.479 98.192 217.207 98.136L219.489 97.968V97.604C219.489 97.0907 219.33 96.666 219.013 96.33C218.705 95.9847 218.317 95.812 217.851 95.812C217.356 95.812 216.964 95.938 216.675 96.19C216.395 96.4327 216.208 96.7733 216.115 97.212H214.953C215.027 96.5027 215.335 95.924 215.877 95.476C216.418 95.0187 217.081 94.79 217.865 94.79C218.733 94.79 219.414 95.056 219.909 95.588C220.403 96.1107 220.651 96.778 220.651 97.59V102H219.489ZM216.017 100.11C216.017 100.409 216.143 100.661 216.395 100.866C216.647 101.062 216.978 101.16 217.389 101.16C217.958 101.16 218.448 100.983 218.859 100.628C219.279 100.273 219.489 99.858 219.489 99.382V98.878L217.431 99.032C216.992 99.0693 216.647 99.1813 216.395 99.368C216.143 99.5453 216.017 99.7927 216.017 100.11ZM222.28 96.89C222.289 96.2647 222.527 95.7607 222.994 95.378C223.47 94.9953 224.058 94.804 224.758 94.804C225.57 94.804 226.251 95.0373 226.802 95.504C227.352 95.9613 227.646 96.5493 227.684 97.268H226.536C226.498 96.8293 226.316 96.4793 225.99 96.218C225.672 95.9473 225.266 95.812 224.772 95.812C224.361 95.812 224.034 95.9053 223.792 96.092C223.558 96.2787 223.442 96.5167 223.442 96.806C223.442 97.142 223.605 97.3847 223.932 97.534C224.258 97.6833 224.636 97.814 225.066 97.926C225.374 98.0007 225.686 98.0847 226.004 98.178C226.33 98.262 226.62 98.3787 226.872 98.528C227.133 98.668 227.348 98.8593 227.516 99.102C227.684 99.3353 227.768 99.6387 227.768 100.012C227.768 100.665 227.516 101.183 227.012 101.566C226.508 101.939 225.892 102.126 225.164 102.126C224.324 102.126 223.628 101.888 223.078 101.412C222.527 100.936 222.233 100.325 222.196 99.578H223.344C223.372 100.035 223.558 100.409 223.904 100.698C224.258 100.987 224.683 101.132 225.178 101.132C225.579 101.132 225.915 101.043 226.186 100.866C226.466 100.689 226.606 100.441 226.606 100.124C226.606 99.76 226.414 99.508 226.032 99.368C225.658 99.2187 225.234 99.0833 224.758 98.962C224.468 98.8967 224.174 98.8173 223.876 98.724C223.577 98.6307 223.311 98.5093 223.078 98.36C222.844 98.2107 222.653 98.0193 222.504 97.786C222.354 97.5433 222.28 97.2447 222.28 96.89ZM232.45 102.126C231.974 102.126 231.526 102.033 231.106 101.846C230.686 101.659 230.322 101.407 230.014 101.09C229.706 100.763 229.463 100.376 229.286 99.928C229.108 99.4707 229.02 98.976 229.02 98.444C229.02 97.9213 229.108 97.436 229.286 96.988C229.463 96.54 229.706 96.1573 230.014 95.84C230.322 95.5133 230.686 95.2567 231.106 95.07C231.526 94.8833 231.974 94.79 232.45 94.79C232.926 94.79 233.374 94.8833 233.794 95.07C234.214 95.2567 234.573 95.5133 234.872 95.84C235.18 96.1573 235.422 96.54 235.6 96.988C235.777 97.436 235.866 97.9213 235.866 98.444C235.866 98.976 235.777 99.4707 235.6 99.928C235.422 100.376 235.18 100.763 234.872 101.09C234.573 101.407 234.214 101.659 233.794 101.846C233.374 102.033 232.926 102.126 232.45 102.126ZM232.45 101.076C233.066 101.076 233.593 100.829 234.032 100.334C234.47 99.8393 234.69 99.214 234.69 98.458C234.69 97.7113 234.47 97.0907 234.032 96.596C233.593 96.092 233.066 95.84 232.45 95.84C231.824 95.84 231.292 96.092 230.854 96.596C230.415 97.0907 230.196 97.7113 230.196 98.458C230.196 99.214 230.415 99.8393 230.854 100.334C231.292 100.829 231.824 101.076 232.45 101.076ZM238.651 97.632V102H237.475V94.93H238.651V96.316C238.828 95.784 239.108 95.4013 239.491 95.168C239.883 94.9253 240.298 94.804 240.737 94.804C241.129 94.804 241.479 94.874 241.787 95.014C242.095 95.154 242.356 95.35 242.571 95.602C242.786 95.8447 242.949 96.134 243.061 96.47C243.173 96.806 243.229 97.1653 243.229 97.548V102H242.053V97.66C242.053 97.1 241.899 96.652 241.591 96.316C241.292 95.98 240.905 95.812 240.429 95.812C239.906 95.812 239.477 95.9893 239.141 96.344C238.814 96.6893 238.651 97.1187 238.651 97.632ZM251.356 102.14C250.899 102.14 250.47 102.075 250.068 101.944C249.667 101.804 249.317 101.617 249.018 101.384C248.729 101.141 248.496 100.847 248.318 100.502C248.15 100.157 248.066 99.774 248.066 99.354C248.066 98.822 248.22 98.346 248.528 97.926C248.836 97.4967 249.238 97.1653 249.732 96.932C249.312 96.6987 248.976 96.3907 248.724 96.008C248.472 95.616 248.346 95.182 248.346 94.706C248.346 94.342 248.421 94.0013 248.57 93.684C248.729 93.3573 248.944 93.0773 249.214 92.844C249.485 92.6013 249.802 92.41 250.166 92.27C250.54 92.13 250.936 92.06 251.356 92.06C251.776 92.06 252.168 92.13 252.532 92.27C252.906 92.41 253.228 92.6013 253.498 92.844C253.769 93.0773 253.984 93.3573 254.142 93.684C254.301 94.0013 254.38 94.342 254.38 94.706C254.38 95.182 254.254 95.616 254.002 96.008C253.75 96.4 253.41 96.708 252.98 96.932C253.484 97.1653 253.886 97.4967 254.184 97.926C254.492 98.346 254.646 98.822 254.646 99.354C254.646 99.774 254.562 100.157 254.394 100.502C254.226 100.847 253.993 101.141 253.694 101.384C253.396 101.617 253.046 101.804 252.644 101.944C252.243 102.075 251.814 102.14 251.356 102.14ZM251.356 96.428C251.87 96.428 252.304 96.274 252.658 95.966C253.022 95.6487 253.204 95.2473 253.204 94.762C253.204 94.2767 253.022 93.88 252.658 93.572C252.294 93.2547 251.86 93.096 251.356 93.096C250.852 93.096 250.418 93.2547 250.054 93.572C249.69 93.88 249.508 94.2767 249.508 94.762C249.508 95.2473 249.69 95.6487 250.054 95.966C250.418 96.274 250.852 96.428 251.356 96.428ZM251.356 101.104C251.944 101.104 252.444 100.936 252.854 100.6C253.265 100.255 253.47 99.816 253.47 99.284C253.47 98.752 253.265 98.3133 252.854 97.968C252.444 97.6227 251.944 97.45 251.356 97.45C250.768 97.45 250.269 97.6227 249.858 97.968C249.448 98.3133 249.242 98.752 249.242 99.284C249.242 99.816 249.448 100.255 249.858 100.6C250.269 100.936 250.768 101.104 251.356 101.104ZM260.803 102H259.571V92.2H265.954V93.292H260.803V96.456H264.751V97.548H260.803V102ZM273.879 98.36V92.2H275.111V98.36C275.111 98.9853 275.008 99.536 274.803 100.012C274.607 100.488 274.336 100.885 273.991 101.202C273.655 101.519 273.258 101.757 272.801 101.916C272.343 102.075 271.863 102.154 271.359 102.154C270.845 102.154 270.36 102.075 269.903 101.916C269.445 101.757 269.044 101.519 268.699 101.202C268.363 100.885 268.092 100.488 267.887 100.012C267.691 99.536 267.593 98.9853 267.593 98.36V92.2H268.839V98.36C268.839 98.8173 268.904 99.214 269.035 99.55C269.175 99.8767 269.357 100.152 269.581 100.376C269.814 100.591 270.08 100.754 270.379 100.866C270.687 100.969 271.013 101.02 271.359 101.02C271.695 101.02 272.017 100.969 272.325 100.866C272.633 100.754 272.899 100.591 273.123 100.376C273.356 100.152 273.538 99.8767 273.669 99.55C273.809 99.214 273.879 98.8173 273.879 98.36ZM280.796 102H279.55V93.292H276.302V92.2H284.044V93.292H280.796V102ZM287.618 102L291.174 96.96L287.8 92.2H289.27L291.93 95.98L294.59 92.2H295.99L292.616 96.946L296.186 102H294.73L291.874 97.926L289.004 102H287.618ZM297.291 92.2H300.833C301.281 92.2 301.697 92.2747 302.079 92.424C302.462 92.564 302.789 92.7647 303.059 93.026C303.339 93.278 303.559 93.5813 303.717 93.936C303.876 94.2907 303.955 94.6733 303.955 95.084C303.955 95.4947 303.876 95.882 303.717 96.246C303.559 96.6007 303.339 96.9087 303.059 97.17C302.789 97.422 302.462 97.6227 302.079 97.772C301.697 97.912 301.281 97.982 300.833 97.982H298.523V102H297.291V92.2ZM300.819 96.918C301.379 96.918 301.837 96.7453 302.191 96.4C302.546 96.0547 302.723 95.616 302.723 95.084C302.723 94.552 302.551 94.1227 302.205 93.796C301.86 93.46 301.398 93.292 300.819 93.292H298.523V96.918H300.819ZM7.994 117.256C7.994 118.04 7.70933 118.693 7.14 119.216C6.58 119.739 5.81467 120 4.844 120H1.008V110.2H4.634C5.56733 110.2 6.30467 110.447 6.846 110.942C7.38733 111.437 7.658 112.048 7.658 112.776C7.658 113.233 7.54133 113.649 7.308 114.022C7.084 114.386 6.77133 114.685 6.37 114.918C6.874 115.123 7.27067 115.431 7.56 115.842C7.84933 116.253 7.994 116.724 7.994 117.256ZM4.648 111.292H2.24V114.456H4.648C5.18933 114.456 5.62333 114.307 5.95 114.008C6.286 113.7 6.454 113.308 6.454 112.832C6.454 112.393 6.286 112.029 5.95 111.74C5.62333 111.441 5.18933 111.292 4.648 111.292ZM2.24 118.922H4.872C5.44133 118.922 5.89867 118.763 6.244 118.446C6.58933 118.129 6.762 117.732 6.762 117.256C6.762 116.743 6.58933 116.327 6.244 116.01C5.89867 115.683 5.44133 115.52 4.872 115.52H2.24V118.922ZM12.6879 120.126C12.2119 120.126 11.7639 120.033 11.3439 119.846C10.9239 119.659 10.5599 119.407 10.2519 119.09C9.94394 118.763 9.70127 118.376 9.52394 117.928C9.3466 117.471 9.25794 116.976 9.25794 116.444C9.25794 115.921 9.3466 115.436 9.52394 114.988C9.70127 114.54 9.94394 114.157 10.2519 113.84C10.5599 113.513 10.9239 113.257 11.3439 113.07C11.7639 112.883 12.2119 112.79 12.6879 112.79C13.1639 112.79 13.6119 112.883 14.0319 113.07C14.4519 113.257 14.8113 113.513 15.1099 113.84C15.4179 114.157 15.6606 114.54 15.8379 114.988C16.0153 115.436 16.1039 115.921 16.1039 116.444C16.1039 116.976 16.0153 117.471 15.8379 117.928C15.6606 118.376 15.4179 118.763 15.1099 119.09C14.8113 119.407 14.4519 119.659 14.0319 119.846C13.6119 120.033 13.1639 120.126 12.6879 120.126ZM12.6879 119.076C13.3039 119.076 13.8313 118.829 14.2699 118.334C14.7086 117.839 14.9279 117.214 14.9279 116.458C14.9279 115.711 14.7086 115.091 14.2699 114.596C13.8313 114.092 13.3039 113.84 12.6879 113.84C12.0626 113.84 11.5306 114.092 11.0919 114.596C10.6533 115.091 10.4339 115.711 10.4339 116.458C10.4339 117.214 10.6533 117.839 11.0919 118.334C11.5306 118.829 12.0626 119.076 12.6879 119.076ZM20.8774 120.126C20.4014 120.126 19.9534 120.033 19.5334 119.846C19.1134 119.659 18.7494 119.407 18.4414 119.09C18.1334 118.763 17.8907 118.376 17.7134 117.928C17.5361 117.471 17.4474 116.976 17.4474 116.444C17.4474 115.921 17.5361 115.436 17.7134 114.988C17.8907 114.54 18.1334 114.157 18.4414 113.84C18.7494 113.513 19.1134 113.257 19.5334 113.07C19.9534 112.883 20.4014 112.79 20.8774 112.79C21.3534 112.79 21.8014 112.883 22.2214 113.07C22.6414 113.257 23.0007 113.513 23.2994 113.84C23.6074 114.157 23.8501 114.54 24.0274 114.988C24.2047 115.436 24.2934 115.921 24.2934 116.444C24.2934 116.976 24.2047 117.471 24.0274 117.928C23.8501 118.376 23.6074 118.763 23.2994 119.09C23.0007 119.407 22.6414 119.659 22.2214 119.846C21.8014 120.033 21.3534 120.126 20.8774 120.126ZM20.8774 119.076C21.4934 119.076 22.0207 118.829 22.4594 118.334C22.8981 117.839 23.1174 117.214 23.1174 116.458C23.1174 115.711 22.8981 115.091 22.4594 114.596C22.0207 114.092 21.4934 113.84 20.8774 113.84C20.2521 113.84 19.7201 114.092 19.2814 114.596C18.8427 115.091 18.6234 115.711 18.6234 116.458C18.6234 117.214 18.8427 117.839 19.2814 118.334C19.7201 118.829 20.2521 119.076 20.8774 119.076ZM25.6508 114.89C25.6602 114.265 25.8982 113.761 26.3648 113.378C26.8408 112.995 27.4288 112.804 28.1288 112.804C28.9408 112.804 29.6222 113.037 30.1728 113.504C30.7235 113.961 31.0175 114.549 31.0548 115.268H29.9068C29.8695 114.829 29.6875 114.479 29.3608 114.218C29.0435 113.947 28.6375 113.812 28.1428 113.812C27.7322 113.812 27.4055 113.905 27.1628 114.092C26.9295 114.279 26.8128 114.517 26.8128 114.806C26.8128 115.142 26.9762 115.385 27.3028 115.534C27.6295 115.683 28.0075 115.814 28.4368 115.926C28.7448 116.001 29.0575 116.085 29.3748 116.178C29.7015 116.262 29.9908 116.379 30.2428 116.528C30.5042 116.668 30.7188 116.859 30.8868 117.102C31.0548 117.335 31.1388 117.639 31.1388 118.012C31.1388 118.665 30.8868 119.183 30.3828 119.566C29.8788 119.939 29.2628 120.126 28.5348 120.126C27.6948 120.126 26.9995 119.888 26.4488 119.412C25.8982 118.936 25.6042 118.325 25.5668 117.578H26.7148C26.7428 118.035 26.9295 118.409 27.2748 118.698C27.6295 118.987 28.0542 119.132 28.5488 119.132C28.9502 119.132 29.2862 119.043 29.5568 118.866C29.8368 118.689 29.9768 118.441 29.9768 118.124C29.9768 117.76 29.7855 117.508 29.4028 117.368C29.0295 117.219 28.6048 117.083 28.1288 116.962C27.8395 116.897 27.5455 116.817 27.2468 116.724C26.9482 116.631 26.6822 116.509 26.4488 116.36C26.2155 116.211 26.0242 116.019 25.8748 115.786C25.7255 115.543 25.6508 115.245 25.6508 114.89ZM33.668 118.278V113.938H31.876V112.93H33.668V111.264L34.83 110.844V112.93H36.916V113.938H34.83V118.222C34.83 118.465 34.8954 118.651 35.026 118.782C35.1567 118.903 35.3527 118.964 35.614 118.964H36.916V120H35.32C34.788 120 34.3774 119.855 34.088 119.566C33.808 119.267 33.668 118.838 33.668 118.278Z" fill="white"/>
</svg>
