<svg width="311" height="142" viewBox="0 0 311 142" fill="none" xmlns="http://www.w3.org/2000/svg">
<path d="M2.268 16H1.212V7.6H6.324V8.536H2.268V11.248H5.292V12.184H2.268V16ZM13.5193 16H8.40731V7.6H13.5193V8.536H9.46331V11.248H12.4873V12.184H9.46331V15.064H13.5193V16ZM20.9306 13.648C20.9306 14.32 20.6866 14.88 20.1986 15.328C19.7186 15.776 19.0626 16 18.2306 16H15.3026V7.6H18.0506C18.8506 7.6 19.4826 7.812 19.9466 8.236C20.4106 8.66 20.6426 9.184 20.6426 9.808C20.6426 10.2 20.5426 10.556 20.3426 10.876C20.1506 11.188 19.8826 11.444 19.5386 11.644C19.9706 11.82 20.3106 12.084 20.5586 12.436C20.8066 12.788 20.9306 13.192 20.9306 13.648ZM18.0626 8.536H16.3586V11.248H18.0626C18.5266 11.248 18.8986 11.12 19.1786 10.864C19.4666 10.6 19.6106 10.264 19.6106 9.856C19.6106 9.48 19.4666 9.168 19.1786 8.92C18.8986 8.664 18.5266 8.536 18.0626 8.536ZM16.3586 15.076H18.2546C18.7426 15.076 19.1346 14.94 19.4306 14.668C19.7266 14.396 19.8746 14.056 19.8746 13.648C19.8746 13.208 19.7266 12.852 19.4306 12.58C19.1346 12.3 18.7426 12.16 18.2546 12.16H16.3586V15.076ZM29.8013 16V15.1H32.0333V8.5H29.7533L30.0533 7.6H33.0653V15.1H35.2253V16H29.8013ZM48.7879 12.244H44.7559V11.356H48.7879V12.244ZM62.5425 12.52L60.3465 15.1H63.8745V16H58.6425V15.64L61.6305 12.148C62.0385 11.676 62.3145 11.276 62.4585 10.948C62.6105 10.62 62.6865 10.292 62.6865 9.964C62.6865 9.508 62.5305 9.132 62.2185 8.836C61.9065 8.54 61.5345 8.392 61.1025 8.392C60.6465 8.392 60.2585 8.576 59.9385 8.944C59.6265 9.312 59.4665 9.78 59.4585 10.348H58.4385C58.4385 9.94 58.5065 9.56 58.6425 9.208C58.7865 8.848 58.9825 8.544 59.2305 8.296C59.4785 8.04 59.7665 7.84 60.0945 7.696C60.4305 7.552 60.7905 7.48 61.1745 7.48C61.5345 7.48 61.8705 7.54 62.1825 7.66C62.4945 7.78 62.7625 7.948 62.9865 8.164C63.2105 8.38 63.3865 8.636 63.5145 8.932C63.6505 9.228 63.7185 9.552 63.7185 9.904C63.7185 10.416 63.6185 10.868 63.4185 11.26C63.2185 11.652 62.9265 12.072 62.5425 12.52ZM71.1778 13.732C71.1778 14.092 71.1058 14.42 70.9618 14.716C70.8178 15.012 70.6178 15.264 70.3618 15.472C70.1058 15.672 69.8058 15.832 69.4618 15.952C69.1178 16.064 68.7498 16.12 68.3578 16.12C67.9658 16.12 67.5978 16.064 67.2538 15.952C66.9098 15.832 66.6098 15.672 66.3538 15.472C66.1058 15.264 65.9058 15.012 65.7538 14.716C65.6098 14.42 65.5378 14.092 65.5378 13.732C65.5378 13.276 65.6698 12.868 65.9338 12.508C66.1978 12.14 66.5418 11.856 66.9658 11.656C66.6058 11.456 66.3178 11.192 66.1018 10.864C65.8858 10.528 65.7778 10.156 65.7778 9.748C65.7778 9.436 65.8418 9.144 65.9698 8.872C66.1058 8.592 66.2898 8.352 66.5218 8.152C66.7538 7.944 67.0258 7.78 67.3378 7.66C67.6578 7.54 67.9978 7.48 68.3578 7.48C68.7178 7.48 69.0538 7.54 69.3658 7.66C69.6858 7.78 69.9618 7.944 70.1938 8.152C70.4258 8.352 70.6098 8.592 70.7458 8.872C70.8818 9.144 70.9498 9.436 70.9498 9.748C70.9498 10.156 70.8418 10.528 70.6258 10.864C70.4098 11.2 70.1178 11.464 69.7498 11.656C70.1818 11.856 70.5258 12.14 70.7818 12.508C71.0458 12.868 71.1778 13.276 71.1778 13.732ZM68.3578 8.368C67.9258 8.368 67.5538 8.504 67.2418 8.776C66.9298 9.04 66.7738 9.38 66.7738 9.796C66.7738 10.212 66.9298 10.556 67.2418 10.828C67.5538 11.092 67.9258 11.224 68.3578 11.224C68.7978 11.224 69.1698 11.092 69.4738 10.828C69.7858 10.556 69.9418 10.212 69.9418 9.796C69.9418 9.38 69.7858 9.04 69.4738 8.776C69.1618 8.504 68.7898 8.368 68.3578 8.368ZM68.3578 15.232C68.8618 15.232 69.2898 15.088 69.6418 14.8C69.9938 14.504 70.1698 14.128 70.1698 13.672C70.1698 13.216 69.9938 12.84 69.6418 12.544C69.2898 12.248 68.8618 12.1 68.3578 12.1C67.8538 12.1 67.4258 12.248 67.0738 12.544C66.7218 12.84 66.5458 13.216 66.5458 13.672C66.5458 14.128 66.7218 14.504 67.0738 14.8C67.4258 15.088 67.8538 15.232 68.3578 15.232ZM74.6291 17.476C74.8211 17.148 74.9811 16.864 75.1091 16.624C75.2451 16.384 75.3651 16.16 75.4691 15.952C75.2691 15.944 75.1051 15.872 74.9771 15.736C74.8571 15.6 74.7971 15.44 74.7971 15.256C74.7971 15.032 74.8691 14.848 75.0131 14.704C75.1571 14.56 75.3371 14.488 75.5531 14.488C75.7531 14.488 75.9291 14.564 76.0811 14.716C76.2331 14.86 76.3091 15.048 76.3091 15.28C76.3091 15.456 76.2371 15.692 76.0931 15.988C75.9571 16.284 75.6731 16.78 75.2411 17.476H74.6291ZM91.3238 12.52L89.1278 15.1H92.6558V16H87.4238V15.64L90.4118 12.148C90.8198 11.676 91.0958 11.276 91.2398 10.948C91.3918 10.62 91.4678 10.292 91.4678 9.964C91.4678 9.508 91.3118 9.132 90.9998 8.836C90.6878 8.54 90.3158 8.392 89.8838 8.392C89.4278 8.392 89.0398 8.576 88.7198 8.944C88.4078 9.312 88.2478 9.78 88.2398 10.348H87.2198C87.2198 9.94 87.2878 9.56 87.4238 9.208C87.5678 8.848 87.7638 8.544 88.0118 8.296C88.2598 8.04 88.5478 7.84 88.8758 7.696C89.2118 7.552 89.5718 7.48 89.9558 7.48C90.3158 7.48 90.6518 7.54 90.9638 7.66C91.2758 7.78 91.5438 7.948 91.7678 8.164C91.9918 8.38 92.1678 8.636 92.2958 8.932C92.4318 9.228 92.4998 9.552 92.4998 9.904C92.4998 10.416 92.3998 10.868 92.1998 11.26C91.9998 11.652 91.7078 12.072 91.3238 12.52ZM97.1391 16.12C96.6831 16.12 96.2631 16.02 95.8791 15.82C95.4951 15.612 95.1671 15.32 94.8951 14.944C94.6231 14.568 94.4071 14.112 94.2471 13.576C94.0951 13.04 94.0191 12.448 94.0191 11.8C94.0191 11.152 94.0951 10.56 94.2471 10.024C94.4071 9.488 94.6231 9.032 94.8951 8.656C95.1671 8.28 95.4951 7.992 95.8791 7.792C96.2631 7.584 96.6831 7.48 97.1391 7.48C97.5951 7.48 98.0151 7.584 98.3991 7.792C98.7831 7.992 99.1111 8.28 99.3831 8.656C99.6631 9.032 99.8791 9.488 100.031 10.024C100.191 10.56 100.271 11.152 100.271 11.8C100.271 12.448 100.191 13.04 100.031 13.576C99.8791 14.112 99.6631 14.568 99.3831 14.944C99.1111 15.32 98.7831 15.612 98.3991 15.82C98.0151 16.02 97.5951 16.12 97.1391 16.12ZM97.1391 15.208C97.7791 15.208 98.2871 14.9 98.6631 14.284C99.0471 13.668 99.2391 12.84 99.2391 11.8C99.2391 10.76 99.0471 9.932 98.6631 9.316C98.2871 8.7 97.7791 8.392 97.1391 8.392C96.4991 8.392 95.9911 8.7 95.6151 9.316C95.2391 9.932 95.0511 10.76 95.0511 11.8C95.0511 12.84 95.2391 13.668 95.6151 14.284C95.9911 14.9 96.4991 15.208 97.1391 15.208ZM97.1511 11.008C97.3671 11.008 97.5471 11.084 97.6911 11.236C97.8431 11.388 97.9191 11.572 97.9191 11.788C97.9191 11.996 97.8431 12.18 97.6911 12.34C97.5471 12.5 97.3671 12.58 97.1511 12.58C96.9351 12.58 96.7511 12.5 96.5991 12.34C96.4551 12.18 96.3831 11.996 96.3831 11.788C96.3831 11.572 96.4551 11.388 96.5991 11.236C96.7511 11.084 96.9351 11.008 97.1511 11.008ZM105.714 12.52L103.518 15.1H107.046V16H101.814V15.64L104.802 12.148C105.21 11.676 105.486 11.276 105.63 10.948C105.782 10.62 105.858 10.292 105.858 9.964C105.858 9.508 105.702 9.132 105.39 8.836C105.078 8.54 104.706 8.392 104.274 8.392C103.818 8.392 103.43 8.576 103.11 8.944C102.798 9.312 102.638 9.78 102.63 10.348H101.61C101.61 9.94 101.678 9.56 101.814 9.208C101.958 8.848 102.154 8.544 102.402 8.296C102.65 8.04 102.938 7.84 103.266 7.696C103.602 7.552 103.962 7.48 104.346 7.48C104.706 7.48 105.042 7.54 105.354 7.66C105.666 7.78 105.934 7.948 106.158 8.164C106.382 8.38 106.558 8.636 106.686 8.932C106.822 9.228 106.89 9.552 106.89 9.904C106.89 10.416 106.79 10.868 106.59 11.26C106.39 11.652 106.098 12.072 105.714 12.52ZM108.95 16V15.1H111.182V8.5H108.902L109.202 7.6H112.214V15.1H114.374V16H108.95Z" fill="white"/>
<path d="M1.08 39.2V56H4.392V49.88H8.472C11.76 49.88 14.208 47.6 14.208 44.504C14.208 41.432 11.856 39.2 8.592 39.2H1.08ZM8.232 47.048H4.392V42.152H8.232C9.816 42.152 10.92 43.16 10.92 44.6C10.92 46.04 9.816 47.048 8.232 47.048ZM17.2845 42.536C18.3645 42.536 19.2525 41.648 19.2525 40.568C19.2525 39.488 18.3645 38.6 17.2845 38.6C16.2285 38.6 15.3405 39.488 15.3405 40.568C15.3405 41.648 16.2285 42.536 17.2845 42.536ZM18.8205 44.024H15.7725V56H18.8205V44.024ZM26.2373 56.168C27.7253 56.168 29.0693 55.592 30.0533 54.608V55.784C30.0533 57.632 28.5893 58.952 26.8372 58.952C25.4453 58.952 24.2213 58.16 23.8853 56.888H20.8133C21.2213 59.648 23.8613 61.544 27.0053 61.544C30.3653 61.544 33.1013 59.192 33.1013 56.024V44.024H30.0533V45.416C29.1173 44.408 27.7973 43.832 26.3573 43.832C23.2373 43.832 20.4053 46.424 20.4053 50C20.4053 53.576 23.1893 56.168 26.2373 56.168ZM26.7653 53.456C24.9173 53.456 23.4293 52.04 23.4293 50C23.4293 47.96 24.9173 46.544 26.7653 46.544C28.6373 46.544 30.1013 47.96 30.1013 50C30.1013 52.04 28.6373 53.456 26.7653 53.456ZM43.5338 56V48.992H50.6858V46.088H43.5338V42.152H52.3658V39.2H40.1738V56H43.5338ZM64.9436 48.968C64.9436 51.896 63.2396 53.336 61.0556 53.336C58.8956 53.336 57.1676 51.872 57.1676 48.944V39.2H53.8556V49.088C53.8556 53.72 56.9756 56.264 60.9596 56.264C64.9436 56.264 68.2556 53.696 68.2556 49.064V39.2H64.9436V48.968ZM78.2858 56V42.104H83.7578V39.2H69.4538V42.104H74.9258V56H78.2858ZM89.7323 47.432C89.7323 50 92.1803 50.672 94.2203 51.2C95.6843 51.584 96.9323 51.896 96.9323 52.76C96.9323 53.456 96.1403 53.936 95.0363 53.936C93.5483 53.936 92.4203 53.096 92.2523 51.848H89.4683C89.7323 54.416 91.9883 56.24 95.0363 56.24C97.7963 56.24 99.9563 54.776 99.9563 52.472C99.9563 49.976 97.5083 49.304 95.4683 48.776C93.9803 48.392 92.7083 48.056 92.7083 47.168C92.7083 46.448 93.4763 46.064 94.3163 46.064C95.7323 46.064 96.7883 46.88 96.9803 48.128H99.7643C99.5003 45.56 97.3163 43.76 94.3643 43.76C91.7483 43.76 89.7323 45.128 89.7323 47.432ZM103.036 52.904C103.036 54.752 104.332 56 106.54 56H109.516V53.288H107.404C106.468 53.288 106.036 52.856 106.036 52.064V46.616H109.516V44.024H106.036V40.52L103.036 41.48V44.024H100.276V46.616H103.036V52.904ZM115.675 56.168C117.163 56.168 118.507 55.592 119.491 54.608V56H122.539V44.024H119.491V45.416C118.555 44.408 117.235 43.832 115.795 43.832C112.675 43.832 109.843 46.424 109.843 50C109.843 53.576 112.627 56.168 115.675 56.168ZM116.203 53.456C114.355 53.456 112.867 52.04 112.867 50C112.867 47.96 114.355 46.544 116.203 46.544C118.075 46.544 119.539 47.96 119.539 50C119.539 52.04 118.075 53.456 116.203 53.456ZM129.948 56.168C131.436 56.168 132.78 55.592 133.764 54.608V56H136.812V38.24L133.764 39.2V45.416C132.828 44.408 131.508 43.832 130.068 43.832C126.948 43.832 124.116 46.424 124.116 50C124.116 53.576 126.9 56.168 129.948 56.168ZM130.476 53.456C128.628 53.456 127.14 52.04 127.14 50C127.14 47.96 128.628 46.544 130.476 46.544C132.348 46.544 133.812 47.96 133.812 50C133.812 52.04 132.348 53.456 130.476 53.456ZM140.238 42.536C141.318 42.536 142.206 41.648 142.206 40.568C142.206 39.488 141.318 38.6 140.238 38.6C139.182 38.6 138.294 39.488 138.294 40.568C138.294 41.648 139.182 42.536 140.238 42.536ZM141.774 44.024H138.726V56H141.774V44.024ZM151.734 56H154.782V44.024H151.734V51.272C151.734 52.664 150.654 53.768 149.238 53.768C147.774 53.768 146.742 52.712 146.742 51.152V44.024H143.694V51.392C143.694 54.2 145.302 56.264 148.158 56.264C149.694 56.264 151.014 55.592 151.734 54.512V56ZM159.75 44.024H156.702V56H159.75V48.776C159.75 47.384 160.782 46.28 162.126 46.28C163.518 46.28 164.502 47.336 164.502 48.896V56H167.55V48.776C167.55 47.384 168.582 46.28 169.926 46.28C171.318 46.28 172.302 47.336 172.302 48.896V56H175.35V48.656C175.35 45.848 173.742 43.784 170.886 43.784C169.134 43.784 167.622 44.648 166.95 45.944C166.254 44.624 164.982 43.784 163.206 43.784C161.718 43.784 160.422 44.48 159.75 45.56V44.024ZM195.327 51.128C195.327 47.696 191.871 46.952 189.015 46.232C186.999 45.704 185.271 45.2 185.271 43.736C185.271 42.512 186.423 41.744 188.079 41.744C190.215 41.744 191.799 42.968 191.991 44.888H195.183C194.919 41.408 191.943 38.96 188.031 38.96C184.623 38.96 182.031 40.88 181.983 43.976C181.983 47.72 185.751 48.44 188.655 49.208C190.503 49.688 192.015 50.192 192.015 51.488C192.015 52.712 190.695 53.48 189.039 53.48C186.759 53.48 185.031 52.16 184.863 50.192H181.695C181.935 53.744 184.887 56.24 188.991 56.24C192.543 56.24 195.327 54.32 195.327 51.128ZM208.661 52.424H205.277C204.773 53.168 203.909 53.528 202.973 53.528C201.341 53.528 199.997 52.52 199.589 51.008H208.829C208.829 50.84 208.853 50.696 208.853 50.552C208.853 45.944 205.589 43.76 202.613 43.76C199.181 43.76 196.397 46.376 196.397 50C196.397 53.6 199.325 56.24 202.925 56.24C205.589 56.24 207.749 54.728 208.661 52.424ZM202.613 46.424C204.029 46.424 205.277 47.408 205.541 48.824H199.613C200.021 47.36 201.197 46.424 202.613 46.424ZM211.715 52.904C211.715 54.752 213.011 56 215.219 56H218.195V53.288H216.083C215.147 53.288 214.715 52.856 214.715 52.064V46.616H218.195V44.024H214.715V40.52L211.715 41.48V44.024H208.955V46.616H211.715V52.904Z" fill="white"/>
<path d="M5.572 81.998L2.17 76.958V84H1.008V74.06H1.484L5.6 80.066L9.73 74.06H10.178V84H8.974V76.986L5.572 81.998ZM15.2993 84.126C14.8233 84.126 14.3753 84.0327 13.9553 83.846C13.5353 83.6593 13.1713 83.4073 12.8633 83.09C12.5553 82.7633 12.3126 82.376 12.1353 81.928C11.9579 81.4707 11.8693 80.976 11.8693 80.444C11.8693 79.9213 11.9533 79.436 12.1213 78.988C12.2986 78.54 12.5366 78.1573 12.8353 77.84C13.1433 77.5133 13.5026 77.2567 13.9133 77.07C14.3239 76.8833 14.7626 76.79 15.2293 76.79C15.6773 76.79 16.1019 76.8833 16.5033 77.07C16.9046 77.2473 17.2546 77.504 17.5533 77.84C17.8519 78.176 18.0899 78.596 18.2673 79.1C18.4446 79.5947 18.5333 80.1547 18.5333 80.78V80.864H13.0733C13.1573 81.5173 13.4093 82.0493 13.8293 82.46C14.2493 82.8707 14.7393 83.076 15.2993 83.076C15.6539 83.076 15.9806 82.992 16.2793 82.824C16.5873 82.6467 16.8346 82.4133 17.0213 82.124H18.3373C18.0853 82.7307 17.6839 83.216 17.1333 83.58C16.5919 83.944 15.9806 84.126 15.2993 84.126ZM15.2153 77.854C14.6926 77.854 14.2306 78.0453 13.8293 78.428C13.4373 78.8107 13.1899 79.3007 13.0873 79.898H17.3013C17.2079 79.3007 16.9653 78.8107 16.5733 78.428C16.1813 78.0453 15.7286 77.854 15.2153 77.854ZM20.147 84V76.93H21.323V78.316C21.5003 77.784 21.7803 77.4013 22.163 77.168C22.5457 76.9347 22.9517 76.818 23.381 76.818C23.885 76.818 24.3143 76.9627 24.669 77.252C25.033 77.5413 25.2943 77.9193 25.453 78.386C25.6303 77.882 25.915 77.4947 26.307 77.224C26.7083 76.9533 27.147 76.818 27.623 76.818C27.9963 76.818 28.3277 76.888 28.617 77.028C28.9063 77.168 29.149 77.364 29.345 77.616C29.541 77.8587 29.6903 78.148 29.793 78.484C29.8957 78.8107 29.947 79.1653 29.947 79.548V84H28.771V79.66C28.771 79.128 28.6217 78.6893 28.323 78.344C28.0337 77.9987 27.6557 77.826 27.189 77.826C26.7597 77.826 26.391 78.0033 26.083 78.358C25.7843 78.7033 25.635 79.128 25.635 79.632V84H24.459V79.66C24.459 79.128 24.3097 78.6893 24.011 78.344C23.7217 77.9987 23.3437 77.826 22.877 77.826C22.4477 77.826 22.079 78.0033 21.771 78.358C21.4723 78.7033 21.323 79.128 21.323 79.632V84H20.147ZM32.9988 84H31.8228V73.808L32.9988 73.346V78.092C33.2788 77.6907 33.6288 77.378 34.0488 77.154C34.4781 76.9207 34.9354 76.804 35.4208 76.804C35.8688 76.804 36.2888 76.8973 36.6808 77.084C37.0728 77.2707 37.4134 77.5273 37.7028 77.854C37.9921 78.1713 38.2208 78.554 38.3888 79.002C38.5568 79.4407 38.6408 79.9213 38.6408 80.444C38.6408 80.9667 38.5568 81.4567 38.3888 81.914C38.2208 82.362 37.9921 82.7493 37.7028 83.076C37.4134 83.3933 37.0681 83.6453 36.6668 83.832C36.2748 84.0187 35.8548 84.112 35.4068 84.112C34.9214 84.112 34.4641 83.9813 34.0348 83.72C33.6148 83.4587 33.2694 83.104 32.9988 82.656V84ZM35.2108 77.868C34.5948 77.868 34.0674 78.1107 33.6288 78.596C33.1901 79.0813 32.9708 79.6973 32.9708 80.444C32.9708 81.2 33.1901 81.8253 33.6288 82.32C34.0674 82.8053 34.5948 83.048 35.2108 83.048C35.8361 83.048 36.3681 82.8053 36.8068 82.32C37.2454 81.8253 37.4648 81.2 37.4648 80.444C37.4648 79.6973 37.2454 79.0813 36.8068 78.596C36.3681 78.1107 35.8361 77.868 35.2108 77.868ZM43.4086 84.126C42.9326 84.126 42.4846 84.0327 42.0646 83.846C41.6446 83.6593 41.2806 83.4073 40.9726 83.09C40.6646 82.7633 40.422 82.376 40.2446 81.928C40.0673 81.4707 39.9786 80.976 39.9786 80.444C39.9786 79.9213 40.0626 79.436 40.2306 78.988C40.408 78.54 40.646 78.1573 40.9446 77.84C41.2526 77.5133 41.612 77.2567 42.0226 77.07C42.4333 76.8833 42.872 76.79 43.3386 76.79C43.7866 76.79 44.2113 76.8833 44.6126 77.07C45.014 77.2473 45.364 77.504 45.6626 77.84C45.9613 78.176 46.1993 78.596 46.3766 79.1C46.554 79.5947 46.6426 80.1547 46.6426 80.78V80.864H41.1826C41.2666 81.5173 41.5186 82.0493 41.9386 82.46C42.3586 82.8707 42.8486 83.076 43.4086 83.076C43.7633 83.076 44.09 82.992 44.3886 82.824C44.6966 82.6467 44.944 82.4133 45.1306 82.124H46.4466C46.1946 82.7307 45.7933 83.216 45.2426 83.58C44.7013 83.944 44.09 84.126 43.4086 84.126ZM43.3246 77.854C42.802 77.854 42.34 78.0453 41.9386 78.428C41.5466 78.8107 41.2993 79.3007 41.1966 79.898H45.4106C45.3173 79.3007 45.0746 78.8107 44.6826 78.428C44.2906 78.0453 43.838 77.854 43.3246 77.854ZM48.2564 84V76.93H49.4324V78.358C49.6564 77.7513 49.997 77.3173 50.4544 77.056C50.9117 76.7853 51.4437 76.6827 52.0504 76.748V77.868C51.6957 77.8027 51.3597 77.812 51.0424 77.896C50.725 77.98 50.445 78.12 50.2024 78.316C49.969 78.5027 49.7824 78.7407 49.6424 79.03C49.5024 79.3193 49.4324 79.632 49.4324 79.968V84H48.2564ZM52.8032 78.89C52.8125 78.2647 53.0505 77.7607 53.5172 77.378C53.9932 76.9953 54.5812 76.804 55.2812 76.804C56.0932 76.804 56.7745 77.0373 57.3252 77.504C57.8759 77.9613 58.1699 78.5493 58.2072 79.268H57.0592C57.0219 78.8293 56.8399 78.4793 56.5132 78.218C56.1959 77.9473 55.7899 77.812 55.2952 77.812C54.8845 77.812 54.5579 77.9053 54.3152 78.092C54.0819 78.2787 53.9652 78.5167 53.9652 78.806C53.9652 79.142 54.1285 79.3847 54.4552 79.534C54.7819 79.6833 55.1599 79.814 55.5892 79.926C55.8972 80.0007 56.2099 80.0847 56.5272 80.178C56.8539 80.262 57.1432 80.3787 57.3952 80.528C57.6565 80.668 57.8712 80.8593 58.0392 81.102C58.2072 81.3353 58.2912 81.6387 58.2912 82.012C58.2912 82.6653 58.0392 83.1833 57.5352 83.566C57.0312 83.9393 56.4152 84.126 55.6872 84.126C54.8472 84.126 54.1519 83.888 53.6012 83.412C53.0505 82.936 52.7565 82.3247 52.7192 81.578H53.8672C53.8952 82.0353 54.0819 82.4087 54.4272 82.698C54.7819 82.9873 55.2065 83.132 55.7012 83.132C56.1025 83.132 56.4385 83.0433 56.7092 82.866C56.9892 82.6887 57.1292 82.4413 57.1292 82.124C57.1292 81.76 56.9379 81.508 56.5552 81.368C56.1819 81.2187 55.7572 81.0833 55.2812 80.962C54.9919 80.8967 54.6979 80.8173 54.3992 80.724C54.1005 80.6307 53.8345 80.5093 53.6012 80.36C53.3679 80.2107 53.1765 80.0193 53.0272 79.786C52.8779 79.5433 52.8032 79.2447 52.8032 78.89ZM65.9213 84.07C65.4733 84.07 65.0533 83.9813 64.6613 83.804C64.2693 83.6173 63.9286 83.3653 63.6393 83.048C63.35 82.7213 63.1213 82.334 62.9533 81.886C62.7853 81.438 62.7013 80.9527 62.7013 80.43C62.7013 79.9073 62.7853 79.4267 62.9533 78.988C63.1213 78.54 63.35 78.1573 63.6393 77.84C63.9286 77.5133 64.2693 77.2613 64.6613 77.084C65.0626 76.8973 65.4873 76.804 65.9353 76.804C66.4206 76.804 66.8733 76.9253 67.2933 77.168C67.7133 77.4013 68.0633 77.7233 68.3433 78.134V76.93H69.5193V83.762C69.5193 84.322 69.4353 84.8213 69.2673 85.26C69.1086 85.708 68.88 86.0767 68.5813 86.366C68.292 86.6647 67.9466 86.8887 67.5453 87.038C67.144 87.1967 66.7053 87.276 66.2293 87.276C65.8373 87.276 65.4593 87.22 65.0953 87.108C64.7406 86.996 64.4186 86.842 64.1293 86.646C63.84 86.45 63.5926 86.2073 63.3873 85.918C63.182 85.638 63.0373 85.33 62.9533 84.994H64.2133C64.3346 85.3673 64.582 85.666 64.9553 85.89C65.338 86.114 65.758 86.226 66.2153 86.226C66.8313 86.226 67.34 86.0207 67.7413 85.61C68.1426 85.2087 68.3433 84.5973 68.3433 83.776V82.74C68.0633 83.1507 67.7086 83.4773 67.2793 83.72C66.8593 83.9533 66.4066 84.07 65.9213 84.07ZM66.1313 83.006C66.7473 83.006 67.2746 82.768 67.7133 82.292C68.152 81.8067 68.3713 81.186 68.3713 80.43C68.3713 79.6833 68.152 79.072 67.7133 78.596C67.2746 78.1107 66.7473 77.868 66.1313 77.868C65.506 77.868 64.974 78.1107 64.5353 78.596C64.0966 79.072 63.8773 79.6833 63.8773 80.43C63.8773 81.186 64.0966 81.8067 64.5353 82.292C64.974 82.768 65.506 83.006 66.1313 83.006ZM74.5532 84.126C74.0772 84.126 73.6292 84.0327 73.2092 83.846C72.7892 83.6593 72.4252 83.4073 72.1172 83.09C71.8092 82.7633 71.5665 82.376 71.3892 81.928C71.2118 81.4707 71.1232 80.976 71.1232 80.444C71.1232 79.9213 71.2072 79.436 71.3752 78.988C71.5525 78.54 71.7905 78.1573 72.0892 77.84C72.3972 77.5133 72.7565 77.2567 73.1672 77.07C73.5778 76.8833 74.0165 76.79 74.4832 76.79C74.9312 76.79 75.3558 76.8833 75.7572 77.07C76.1585 77.2473 76.5085 77.504 76.8072 77.84C77.1058 78.176 77.3438 78.596 77.5212 79.1C77.6985 79.5947 77.7872 80.1547 77.7872 80.78V80.864H72.3272C72.4112 81.5173 72.6632 82.0493 73.0832 82.46C73.5032 82.8707 73.9932 83.076 74.5532 83.076C74.9078 83.076 75.2345 82.992 75.5332 82.824C75.8412 82.6467 76.0885 82.4133 76.2752 82.124H77.5912C77.3392 82.7307 76.9378 83.216 76.3872 83.58C75.8458 83.944 75.2345 84.126 74.5532 84.126ZM74.4692 77.854C73.9465 77.854 73.4845 78.0453 73.0832 78.428C72.6912 78.8107 72.4438 79.3007 72.3412 79.898H76.5552C76.4618 79.3007 76.2192 78.8107 75.8272 78.428C75.4352 78.0453 74.9825 77.854 74.4692 77.854ZM80.2755 82.278V77.938H78.4835V76.93H80.2755V75.264L81.4375 74.844V76.93H83.5235V77.938H81.4375V82.222C81.4375 82.4647 81.5028 82.6513 81.6335 82.782C81.7641 82.9033 81.9601 82.964 82.2215 82.964H83.5235V84H81.9275C81.3955 84 80.9848 83.8553 80.6955 83.566C80.4155 83.2673 80.2755 82.838 80.2755 82.278ZM88.0552 84V76.93H89.2312V78.316C89.4085 77.784 89.6885 77.4013 90.0712 77.168C90.4539 76.9347 90.8599 76.818 91.2892 76.818C91.7932 76.818 92.2225 76.9627 92.5772 77.252C92.9412 77.5413 93.2025 77.9193 93.3612 78.386C93.5385 77.882 93.8232 77.4947 94.2152 77.224C94.6165 76.9533 95.0552 76.818 95.5312 76.818C95.9045 76.818 96.2359 76.888 96.5252 77.028C96.8145 77.168 97.0572 77.364 97.2532 77.616C97.4492 77.8587 97.5985 78.148 97.7012 78.484C97.8039 78.8107 97.8552 79.1653 97.8552 79.548V84H96.6792V79.66C96.6792 79.128 96.5299 78.6893 96.2312 78.344C95.9419 77.9987 95.5639 77.826 95.0972 77.826C94.6679 77.826 94.2992 78.0033 93.9912 78.358C93.6925 78.7033 93.5432 79.128 93.5432 79.632V84H92.3672V79.66C92.3672 79.128 92.2179 78.6893 91.9192 78.344C91.6299 77.9987 91.2519 77.826 90.7852 77.826C90.3559 77.826 89.9872 78.0033 89.6792 78.358C89.3805 78.7033 89.2312 79.128 89.2312 79.632V84H88.0552ZM102.895 84.126C102.419 84.126 101.971 84.0327 101.551 83.846C101.131 83.6593 100.767 83.4073 100.459 83.09C100.151 82.7633 99.9083 82.376 99.731 81.928C99.5536 81.4707 99.465 80.976 99.465 80.444C99.465 79.9213 99.5536 79.436 99.731 78.988C99.9083 78.54 100.151 78.1573 100.459 77.84C100.767 77.5133 101.131 77.2567 101.551 77.07C101.971 76.8833 102.419 76.79 102.895 76.79C103.371 76.79 103.819 76.8833 104.239 77.07C104.659 77.2567 105.018 77.5133 105.317 77.84C105.625 78.1573 105.868 78.54 106.045 78.988C106.222 79.436 106.311 79.9213 106.311 80.444C106.311 80.976 106.222 81.4707 106.045 81.928C105.868 82.376 105.625 82.7633 105.317 83.09C105.018 83.4073 104.659 83.6593 104.239 83.846C103.819 84.0327 103.371 84.126 102.895 84.126ZM102.895 83.076C103.511 83.076 104.038 82.8287 104.477 82.334C104.916 81.8393 105.135 81.214 105.135 80.458C105.135 79.7113 104.916 79.0907 104.477 78.596C104.038 78.092 103.511 77.84 102.895 77.84C102.27 77.84 101.738 78.092 101.299 78.596C100.86 79.0907 100.641 79.7113 100.641 80.458C100.641 81.214 100.86 81.8393 101.299 82.334C101.738 82.8287 102.27 83.076 102.895 83.076ZM107.92 84V76.93H109.096V78.358C109.32 77.7513 109.661 77.3173 110.118 77.056C110.576 76.7853 111.108 76.6827 111.714 76.748V77.868C111.36 77.8027 111.024 77.812 110.706 77.896C110.389 77.98 110.109 78.12 109.866 78.316C109.633 78.5027 109.446 78.7407 109.306 79.03C109.166 79.3193 109.096 79.632 109.096 79.968V84H107.92ZM115.747 84.126C115.271 84.126 114.823 84.0327 114.403 83.846C113.983 83.6593 113.619 83.4073 113.311 83.09C113.003 82.7633 112.76 82.376 112.583 81.928C112.405 81.4707 112.317 80.976 112.317 80.444C112.317 79.9213 112.401 79.436 112.569 78.988C112.746 78.54 112.984 78.1573 113.283 77.84C113.591 77.5133 113.95 77.2567 114.361 77.07C114.771 76.8833 115.21 76.79 115.677 76.79C116.125 76.79 116.549 76.8833 116.951 77.07C117.352 77.2473 117.702 77.504 118.001 77.84C118.299 78.176 118.537 78.596 118.715 79.1C118.892 79.5947 118.981 80.1547 118.981 80.78V80.864H113.521C113.605 81.5173 113.857 82.0493 114.277 82.46C114.697 82.8707 115.187 83.076 115.747 83.076C116.101 83.076 116.428 82.992 116.727 82.824C117.035 82.6467 117.282 82.4133 117.469 82.124H118.785C118.533 82.7307 118.131 83.216 117.581 83.58C117.039 83.944 116.428 84.126 115.747 84.126ZM115.663 77.854C115.14 77.854 114.678 78.0453 114.277 78.428C113.885 78.8107 113.637 79.3007 113.535 79.898H117.749C117.655 79.3007 117.413 78.8107 117.021 78.428C116.629 78.0453 116.176 77.854 115.663 77.854ZM129.576 84.056L127.714 78.904L125.866 84.056H125.348L123.08 76.93H124.284L125.74 81.76L127.476 76.888H128.05L129.786 81.732L131.228 76.93H132.334L130.094 84.056H129.576ZM137.731 84V82.768C137.544 83.1787 137.245 83.51 136.835 83.762C136.433 84.0047 135.957 84.126 135.407 84.126C134.735 84.126 134.179 83.9393 133.741 83.566C133.311 83.1833 133.097 82.698 133.097 82.11C133.097 81.55 133.307 81.0973 133.727 80.752C134.147 80.3973 134.721 80.192 135.449 80.136L137.731 79.968V79.604C137.731 79.0907 137.572 78.666 137.255 78.33C136.947 77.9847 136.559 77.812 136.093 77.812C135.598 77.812 135.206 77.938 134.917 78.19C134.637 78.4327 134.45 78.7733 134.357 79.212H133.195C133.269 78.5027 133.577 77.924 134.119 77.476C134.66 77.0187 135.323 76.79 136.107 76.79C136.975 76.79 137.656 77.056 138.151 77.588C138.645 78.1107 138.893 78.778 138.893 79.59V84H137.731ZM134.259 82.11C134.259 82.4087 134.385 82.6607 134.637 82.866C134.889 83.062 135.22 83.16 135.631 83.16C136.2 83.16 136.69 82.9827 137.101 82.628C137.521 82.2733 137.731 81.858 137.731 81.382V80.878L135.673 81.032C135.234 81.0693 134.889 81.1813 134.637 81.368C134.385 81.5453 134.259 81.7927 134.259 82.11ZM146.675 76.93L141.957 87.164H140.641L142.587 83.16L139.661 76.93H140.963L143.217 81.858L145.443 76.93H146.675ZM147.317 78.89C147.326 78.2647 147.564 77.7607 148.031 77.378C148.507 76.9953 149.095 76.804 149.795 76.804C150.607 76.804 151.288 77.0373 151.839 77.504C152.39 77.9613 152.684 78.5493 152.721 79.268H151.573C151.536 78.8293 151.354 78.4793 151.027 78.218C150.71 77.9473 150.304 77.812 149.809 77.812C149.398 77.812 149.072 77.9053 148.829 78.092C148.596 78.2787 148.479 78.5167 148.479 78.806C148.479 79.142 148.642 79.3847 148.969 79.534C149.296 79.6833 149.674 79.814 150.103 79.926C150.411 80.0007 150.724 80.0847 151.041 80.178C151.368 80.262 151.657 80.3787 151.909 80.528C152.17 80.668 152.385 80.8593 152.553 81.102C152.721 81.3353 152.805 81.6387 152.805 82.012C152.805 82.6653 152.553 83.1833 152.049 83.566C151.545 83.9393 150.929 84.126 150.201 84.126C149.361 84.126 148.666 83.888 148.115 83.412C147.564 82.936 147.27 82.3247 147.233 81.578H148.381C148.409 82.0353 148.596 82.4087 148.941 82.698C149.296 82.9873 149.72 83.132 150.215 83.132C150.616 83.132 150.952 83.0433 151.223 82.866C151.503 82.6887 151.643 82.4413 151.643 82.124C151.643 81.76 151.452 81.508 151.069 81.368C150.696 81.2187 150.271 81.0833 149.795 80.962C149.506 80.8967 149.212 80.8173 148.913 80.724C148.614 80.6307 148.348 80.5093 148.115 80.36C147.882 80.2107 147.69 80.0193 147.541 79.786C147.392 79.5433 147.317 79.2447 147.317 78.89ZM158.629 82.278V77.938H156.837V76.93H158.629V75.264L159.791 74.844V76.93H161.877V77.938H159.791V82.222C159.791 82.4647 159.856 82.6513 159.987 82.782C160.118 82.9033 160.314 82.964 160.575 82.964H161.877V84H160.281C159.749 84 159.338 83.8553 159.049 83.566C158.769 83.2673 158.629 82.838 158.629 82.278ZM166.278 84.126C165.802 84.126 165.354 84.0327 164.934 83.846C164.514 83.6593 164.15 83.4073 163.842 83.09C163.534 82.7633 163.291 82.376 163.114 81.928C162.936 81.4707 162.848 80.976 162.848 80.444C162.848 79.9213 162.936 79.436 163.114 78.988C163.291 78.54 163.534 78.1573 163.842 77.84C164.15 77.5133 164.514 77.2567 164.934 77.07C165.354 76.8833 165.802 76.79 166.278 76.79C166.754 76.79 167.202 76.8833 167.622 77.07C168.042 77.2567 168.401 77.5133 168.7 77.84C169.008 78.1573 169.25 78.54 169.428 78.988C169.605 79.436 169.694 79.9213 169.694 80.444C169.694 80.976 169.605 81.4707 169.428 81.928C169.25 82.376 169.008 82.7633 168.7 83.09C168.401 83.4073 168.042 83.6593 167.622 83.846C167.202 84.0327 166.754 84.126 166.278 84.126ZM166.278 83.076C166.894 83.076 167.421 82.8287 167.86 82.334C168.298 81.8393 168.518 81.214 168.518 80.458C168.518 79.7113 168.298 79.0907 167.86 78.596C167.421 78.092 166.894 77.84 166.278 77.84C165.652 77.84 165.12 78.092 164.682 78.596C164.243 79.0907 164.024 79.7113 164.024 80.458C164.024 81.214 164.243 81.8393 164.682 82.334C165.12 82.8287 165.652 83.076 166.278 83.076ZM174.209 78.89C174.219 78.2647 174.457 77.7607 174.923 77.378C175.399 76.9953 175.987 76.804 176.687 76.804C177.499 76.804 178.181 77.0373 178.731 77.504C179.282 77.9613 179.576 78.5493 179.613 79.268H178.465C178.428 78.8293 178.246 78.4793 177.919 78.218C177.602 77.9473 177.196 77.812 176.701 77.812C176.291 77.812 175.964 77.9053 175.721 78.092C175.488 78.2787 175.371 78.5167 175.371 78.806C175.371 79.142 175.535 79.3847 175.861 79.534C176.188 79.6833 176.566 79.814 176.995 79.926C177.303 80.0007 177.616 80.0847 177.933 80.178C178.26 80.262 178.549 80.3787 178.801 80.528C179.063 80.668 179.277 80.8593 179.445 81.102C179.613 81.3353 179.697 81.6387 179.697 82.012C179.697 82.6653 179.445 83.1833 178.941 83.566C178.437 83.9393 177.821 84.126 177.093 84.126C176.253 84.126 175.558 83.888 175.007 83.412C174.457 82.936 174.163 82.3247 174.125 81.578H175.273C175.301 82.0353 175.488 82.4087 175.833 82.698C176.188 82.9873 176.613 83.132 177.107 83.132C177.509 83.132 177.845 83.0433 178.115 82.866C178.395 82.6887 178.535 82.4413 178.535 82.124C178.535 81.76 178.344 81.508 177.961 81.368C177.588 81.2187 177.163 81.0833 176.687 80.962C176.398 80.8967 176.104 80.8173 175.805 80.724C175.507 80.6307 175.241 80.5093 175.007 80.36C174.774 80.2107 174.583 80.0193 174.433 79.786C174.284 79.5433 174.209 79.2447 174.209 78.89ZM182.391 79.632V84H181.215V73.808L182.391 73.346V78.316C182.569 77.784 182.849 77.4013 183.231 77.168C183.623 76.9253 184.039 76.804 184.477 76.804C184.869 76.804 185.219 76.874 185.527 77.014C185.835 77.154 186.097 77.35 186.311 77.602C186.526 77.8447 186.689 78.134 186.801 78.47C186.913 78.806 186.969 79.1653 186.969 79.548V84H185.793V79.66C185.793 79.1 185.639 78.652 185.331 78.316C185.033 77.98 184.645 77.812 184.169 77.812C183.647 77.812 183.217 77.9893 182.881 78.344C182.555 78.6893 182.391 79.1187 182.391 79.632ZM192.008 84.126C191.532 84.126 191.084 84.0327 190.664 83.846C190.244 83.6593 189.88 83.4073 189.572 83.09C189.264 82.7633 189.022 82.376 188.844 81.928C188.667 81.4707 188.578 80.976 188.578 80.444C188.578 79.9213 188.667 79.436 188.844 78.988C189.022 78.54 189.264 78.1573 189.572 77.84C189.88 77.5133 190.244 77.2567 190.664 77.07C191.084 76.8833 191.532 76.79 192.008 76.79C192.484 76.79 192.932 76.8833 193.352 77.07C193.772 77.2567 194.132 77.5133 194.43 77.84C194.738 78.1573 194.981 78.54 195.158 78.988C195.336 79.436 195.424 79.9213 195.424 80.444C195.424 80.976 195.336 81.4707 195.158 81.928C194.981 82.376 194.738 82.7633 194.43 83.09C194.132 83.4073 193.772 83.6593 193.352 83.846C192.932 84.0327 192.484 84.126 192.008 84.126ZM192.008 83.076C192.624 83.076 193.152 82.8287 193.59 82.334C194.029 81.8393 194.248 81.214 194.248 80.458C194.248 79.7113 194.029 79.0907 193.59 78.596C193.152 78.092 192.624 77.84 192.008 77.84C191.383 77.84 190.851 78.092 190.412 78.596C189.974 79.0907 189.754 79.7113 189.754 80.458C189.754 81.214 189.974 81.8393 190.412 82.334C190.851 82.8287 191.383 83.076 192.008 83.076ZM202.584 84.056L200.722 78.904L198.874 84.056H198.356L196.088 76.93H197.292L198.748 81.76L200.484 76.888H201.058L202.794 81.732L204.236 76.93H205.342L203.102 84.056H202.584ZM212.872 84.126C212.396 84.126 211.948 84.0327 211.528 83.846C211.108 83.6593 210.744 83.4073 210.436 83.09C210.128 82.7633 209.885 82.376 209.708 81.928C209.53 81.4707 209.442 80.976 209.442 80.444C209.442 79.9213 209.53 79.436 209.708 78.988C209.885 78.54 210.128 78.1573 210.436 77.84C210.744 77.5133 211.108 77.2567 211.528 77.07C211.948 76.8833 212.396 76.79 212.872 76.79C213.348 76.79 213.796 76.8833 214.216 77.07C214.636 77.2567 214.995 77.5133 215.294 77.84C215.602 78.1573 215.844 78.54 216.022 78.988C216.199 79.436 216.288 79.9213 216.288 80.444C216.288 80.976 216.199 81.4707 216.022 81.928C215.844 82.376 215.602 82.7633 215.294 83.09C214.995 83.4073 214.636 83.6593 214.216 83.846C213.796 84.0327 213.348 84.126 212.872 84.126ZM212.872 83.076C213.488 83.076 214.015 82.8287 214.454 82.334C214.892 81.8393 215.112 81.214 215.112 80.458C215.112 79.7113 214.892 79.0907 214.454 78.596C214.015 78.092 213.488 77.84 212.872 77.84C212.246 77.84 211.714 78.092 211.276 78.596C210.837 79.0907 210.618 79.7113 210.618 80.458C210.618 81.214 210.837 81.8393 211.276 82.334C211.714 82.8287 212.246 83.076 212.872 83.076ZM222.142 77.938H220.07V84H218.894V77.938H217.116V76.93H218.894V75.502C218.894 74.9513 219.039 74.5313 219.328 74.242C219.618 73.9527 220.028 73.808 220.56 73.808H222.142V74.844H220.84C220.579 74.844 220.383 74.9093 220.252 75.04C220.131 75.1613 220.07 75.3433 220.07 75.586V76.93H222.142V77.938ZM227.898 77.938H225.826V84H224.65V77.938H222.872V76.93H224.65V75.502C224.65 74.9513 224.795 74.5313 225.084 74.242C225.373 73.9527 225.784 73.808 226.316 73.808H227.898V74.844H226.596C226.335 74.844 226.139 74.9093 226.008 75.04C225.887 75.1613 225.826 75.3433 225.826 75.586V76.93H227.898V77.938ZM233.578 82.278V77.938H231.786V76.93H233.578V75.264L234.74 74.844V76.93H236.826V77.938H234.74V82.222C234.74 82.4647 234.806 82.6513 234.936 82.782C235.067 82.9033 235.263 82.964 235.524 82.964H236.826V84H235.23C234.698 84 234.288 83.8553 233.998 83.566C233.718 83.2673 233.578 82.838 233.578 82.278ZM239.376 79.632V84H238.2V73.808L239.376 73.346V78.316C239.553 77.784 239.833 77.4013 240.216 77.168C240.608 76.9253 241.023 76.804 241.462 76.804C241.854 76.804 242.204 76.874 242.512 77.014C242.82 77.154 243.081 77.35 243.296 77.602C243.51 77.8447 243.674 78.134 243.786 78.47C243.898 78.806 243.954 79.1653 243.954 79.548V84H242.778V79.66C242.778 79.1 242.624 78.652 242.316 78.316C242.017 77.98 241.63 77.812 241.154 77.812C240.631 77.812 240.202 77.9893 239.866 78.344C239.539 78.6893 239.376 79.1187 239.376 79.632ZM248.993 84.126C248.517 84.126 248.069 84.0327 247.649 83.846C247.229 83.6593 246.865 83.4073 246.557 83.09C246.249 82.7633 246.006 82.376 245.829 81.928C245.651 81.4707 245.563 80.976 245.563 80.444C245.563 79.9213 245.647 79.436 245.815 78.988C245.992 78.54 246.23 78.1573 246.529 77.84C246.837 77.5133 247.196 77.2567 247.607 77.07C248.017 76.8833 248.456 76.79 248.923 76.79C249.371 76.79 249.795 76.8833 250.197 77.07C250.598 77.2473 250.948 77.504 251.247 77.84C251.545 78.176 251.783 78.596 251.961 79.1C252.138 79.5947 252.227 80.1547 252.227 80.78V80.864H246.767C246.851 81.5173 247.103 82.0493 247.523 82.46C247.943 82.8707 248.433 83.076 248.993 83.076C249.347 83.076 249.674 82.992 249.973 82.824C250.281 82.6467 250.528 82.4133 250.715 82.124H252.031C251.779 82.7307 251.377 83.216 250.827 83.58C250.285 83.944 249.674 84.126 248.993 84.126ZM248.909 77.854C248.386 77.854 247.924 78.0453 247.523 78.428C247.131 78.8107 246.883 79.3007 246.781 79.898H250.995C250.901 79.3007 250.659 78.8107 250.267 78.428C249.875 78.0453 249.422 77.854 248.909 77.854ZM254.428 75.74C254.195 75.74 253.994 75.656 253.826 75.488C253.658 75.3107 253.574 75.1053 253.574 74.872C253.574 74.6387 253.658 74.4333 253.826 74.256C253.994 74.0787 254.195 73.99 254.428 73.99C254.662 73.99 254.862 74.0787 255.03 74.256C255.198 74.4333 255.282 74.6387 255.282 74.872C255.282 75.1053 255.198 75.3107 255.03 75.488C254.862 75.656 254.662 75.74 254.428 75.74ZM253.84 84V76.93H255.016V84H253.84ZM256.889 84V76.93H258.065V78.358C258.289 77.7513 258.63 77.3173 259.087 77.056C259.545 76.7853 260.077 76.6827 260.683 76.748V77.868C260.329 77.8027 259.993 77.812 259.675 77.896C259.358 77.98 259.078 78.12 258.835 78.316C258.602 78.5027 258.415 78.7407 258.275 79.03C258.135 79.3193 258.065 79.632 258.065 79.968V84H256.889ZM265.018 78.89C265.027 78.2647 265.265 77.7607 265.732 77.378C266.208 76.9953 266.796 76.804 267.496 76.804C268.308 76.804 268.989 77.0373 269.54 77.504C270.091 77.9613 270.385 78.5493 270.422 79.268H269.274C269.237 78.8293 269.055 78.4793 268.728 78.218C268.411 77.9473 268.005 77.812 267.51 77.812C267.099 77.812 266.773 77.9053 266.53 78.092C266.297 78.2787 266.18 78.5167 266.18 78.806C266.18 79.142 266.343 79.3847 266.67 79.534C266.997 79.6833 267.375 79.814 267.804 79.926C268.112 80.0007 268.425 80.0847 268.742 80.178C269.069 80.262 269.358 80.3787 269.61 80.528C269.871 80.668 270.086 80.8593 270.254 81.102C270.422 81.3353 270.506 81.6387 270.506 82.012C270.506 82.6653 270.254 83.1833 269.75 83.566C269.246 83.9393 268.63 84.126 267.902 84.126C267.062 84.126 266.367 83.888 265.816 83.412C265.265 82.936 264.971 82.3247 264.934 81.578H266.082C266.11 82.0353 266.297 82.4087 266.642 82.698C266.997 82.9873 267.421 83.132 267.916 83.132C268.317 83.132 268.653 83.0433 268.924 82.866C269.204 82.6887 269.344 82.4413 269.344 82.124C269.344 81.76 269.153 81.508 268.77 81.368C268.397 81.2187 267.972 81.0833 267.496 80.962C267.207 80.8967 266.913 80.8173 266.614 80.724C266.315 80.6307 266.049 80.5093 265.816 80.36C265.583 80.2107 265.391 80.0193 265.242 79.786C265.093 79.5433 265.018 79.2447 265.018 78.89ZM273.035 82.278V77.938H271.243V76.93H273.035V75.264L274.197 74.844V76.93H276.283V77.938H274.197V82.222C274.197 82.4647 274.263 82.6513 274.393 82.782C274.524 82.9033 274.72 82.964 274.981 82.964H276.283V84H274.687C274.155 84 273.745 83.8553 273.455 83.566C273.175 83.2673 273.035 82.838 273.035 82.278ZM283.831 76.93L279.113 87.164H277.797L279.743 83.16L276.817 76.93H278.119L280.373 81.858L282.599 76.93H283.831ZM286.038 73.346V84H284.862V73.808L286.038 73.346ZM291.075 84.126C290.599 84.126 290.151 84.0327 289.731 83.846C289.311 83.6593 288.947 83.4073 288.639 83.09C288.331 82.7633 288.088 82.376 287.911 81.928C287.733 81.4707 287.645 80.976 287.645 80.444C287.645 79.9213 287.729 79.436 287.897 78.988C288.074 78.54 288.312 78.1573 288.611 77.84C288.919 77.5133 289.278 77.2567 289.689 77.07C290.099 76.8833 290.538 76.79 291.005 76.79C291.453 76.79 291.877 76.8833 292.279 77.07C292.68 77.2473 293.03 77.504 293.329 77.84C293.627 78.176 293.865 78.596 294.043 79.1C294.22 79.5947 294.309 80.1547 294.309 80.78V80.864H288.849C288.933 81.5173 289.185 82.0493 289.605 82.46C290.025 82.8707 290.515 83.076 291.075 83.076C291.429 83.076 291.756 82.992 292.055 82.824C292.363 82.6467 292.61 82.4133 292.797 82.124H294.113C293.861 82.7307 293.459 83.216 292.909 83.58C292.367 83.944 291.756 84.126 291.075 84.126ZM290.991 77.854C290.468 77.854 290.006 78.0453 289.605 78.428C289.213 78.8107 288.965 79.3007 288.863 79.898H293.077C292.983 79.3007 292.741 78.8107 292.349 78.428C291.957 78.0453 291.504 77.854 290.991 77.854ZM6.762 102.056L4.9 96.904L3.052 102.056H2.534L0.266 94.93H1.47L2.926 99.76L4.662 94.888H5.236L6.972 99.732L8.414 94.93H9.52L7.28 102.056H6.762ZM11.3151 93.74C11.0817 93.74 10.8811 93.656 10.7131 93.488C10.5451 93.3107 10.4611 93.1053 10.4611 92.872C10.4611 92.6387 10.5451 92.4333 10.7131 92.256C10.8811 92.0787 11.0817 91.99 11.3151 91.99C11.5484 91.99 11.7491 92.0787 11.9171 92.256C12.0851 92.4333 12.1691 92.6387 12.1691 92.872C12.1691 93.1053 12.0851 93.3107 11.9171 93.488C11.7491 93.656 11.5484 93.74 11.3151 93.74ZM10.7271 102V94.93H11.9031V102H10.7271ZM14.9239 100.278V95.938H13.1319V94.93H14.9239V93.264L16.0859 92.844V94.93H18.1719V95.938H16.0859V100.222C16.0859 100.465 16.1512 100.651 16.2819 100.782C16.4126 100.903 16.6086 100.964 16.8699 100.964H18.1719V102H16.5759C16.0439 102 15.6332 101.855 15.3439 101.566C15.0639 101.267 14.9239 100.838 14.9239 100.278ZM20.7214 97.632V102H19.5454V91.808L20.7214 91.346V96.316C20.8988 95.784 21.1788 95.4013 21.5614 95.168C21.9534 94.9253 22.3688 94.804 22.8074 94.804C23.1994 94.804 23.5494 94.874 23.8574 95.014C24.1654 95.154 24.4268 95.35 24.6414 95.602C24.8561 95.8447 25.0194 96.134 25.1314 96.47C25.2434 96.806 25.2994 97.1653 25.2994 97.548V102H24.1234V97.66C24.1234 97.1 23.9694 96.652 23.6614 96.316C23.3628 95.98 22.9754 95.812 22.4994 95.812C21.9768 95.812 21.5474 95.9893 21.2114 96.344C20.8848 96.6893 20.7214 97.1187 20.7214 97.632ZM31.4805 100.278V95.938H29.6885V94.93H31.4805V93.264L32.6425 92.844V94.93H34.7285V95.938H32.6425V100.222C32.6425 100.465 32.7079 100.651 32.8385 100.782C32.9692 100.903 33.1652 100.964 33.4265 100.964H34.7285V102H33.1325C32.6005 102 32.1899 101.855 31.9005 101.566C31.6205 101.267 31.4805 100.838 31.4805 100.278ZM37.2781 97.632V102H36.1021V91.808L37.2781 91.346V96.316C37.4554 95.784 37.7354 95.4013 38.1181 95.168C38.5101 94.9253 38.9254 94.804 39.3641 94.804C39.7561 94.804 40.1061 94.874 40.4141 95.014C40.7221 95.154 40.9834 95.35 41.1981 95.602C41.4127 95.8447 41.5761 96.134 41.6881 96.47C41.8001 96.806 41.8561 97.1653 41.8561 97.548V102H40.6801V97.66C40.6801 97.1 40.5261 96.652 40.2181 96.316C39.9194 95.98 39.5321 95.812 39.0561 95.812C38.5334 95.812 38.1041 95.9893 37.7681 96.344C37.4414 96.6893 37.2781 97.1187 37.2781 97.632ZM46.895 102.126C46.419 102.126 45.971 102.033 45.551 101.846C45.131 101.659 44.767 101.407 44.459 101.09C44.151 100.763 43.9083 100.376 43.731 99.928C43.5536 99.4707 43.465 98.976 43.465 98.444C43.465 97.9213 43.549 97.436 43.717 96.988C43.8943 96.54 44.1323 96.1573 44.431 95.84C44.739 95.5133 45.0983 95.2567 45.509 95.07C45.9196 94.8833 46.3583 94.79 46.825 94.79C47.273 94.79 47.6976 94.8833 48.099 95.07C48.5003 95.2473 48.8503 95.504 49.149 95.84C49.4476 96.176 49.6856 96.596 49.863 97.1C50.0403 97.5947 50.129 98.1547 50.129 98.78V98.864H44.669C44.753 99.5173 45.005 100.049 45.425 100.46C45.845 100.871 46.335 101.076 46.895 101.076C47.2496 101.076 47.5763 100.992 47.875 100.824C48.183 100.647 48.4303 100.413 48.617 100.124H49.933C49.681 100.731 49.2796 101.216 48.729 101.58C48.1876 101.944 47.5763 102.126 46.895 102.126ZM46.811 95.854C46.2883 95.854 45.8263 96.0453 45.425 96.428C45.033 96.8107 44.7856 97.3007 44.683 97.898H48.897C48.8036 97.3007 48.561 96.8107 48.169 96.428C47.777 96.0453 47.3243 95.854 46.811 95.854ZM58.0649 102.126C57.5889 102.126 57.1409 102.033 56.7209 101.846C56.3009 101.659 55.9369 101.407 55.6289 101.09C55.3209 100.763 55.0782 100.376 54.9009 99.928C54.7236 99.4707 54.6349 98.976 54.6349 98.444C54.6349 97.9213 54.7189 97.436 54.8869 96.988C55.0642 96.54 55.3022 96.1573 55.6009 95.84C55.9089 95.5133 56.2682 95.2567 56.6789 95.07C57.0896 94.8833 57.5282 94.79 57.9949 94.79C58.4429 94.79 58.8676 94.8833 59.2689 95.07C59.6702 95.2473 60.0202 95.504 60.3189 95.84C60.6176 96.176 60.8556 96.596 61.0329 97.1C61.2102 97.5947 61.2989 98.1547 61.2989 98.78V98.864H55.8389C55.9229 99.5173 56.1749 100.049 56.5949 100.46C57.0149 100.871 57.5049 101.076 58.0649 101.076C58.4196 101.076 58.7462 100.992 59.0449 100.824C59.3529 100.647 59.6002 100.413 59.7869 100.124H61.1029C60.8509 100.731 60.4496 101.216 59.8989 101.58C59.3576 101.944 58.7462 102.126 58.0649 102.126ZM57.9809 95.854C57.4582 95.854 56.9962 96.0453 56.5949 96.428C56.2029 96.8107 55.9556 97.3007 55.8529 97.898H60.0669C59.9736 97.3007 59.7309 96.8107 59.3389 96.428C58.9469 96.0453 58.4942 95.854 57.9809 95.854ZM61.8692 102L64.5012 98.318L62.0932 94.93H63.5072L65.2012 97.38L66.8812 94.93H68.1972L65.8312 98.29L68.4772 102H67.0632L65.1312 99.2L63.1852 102H61.8692ZM72.419 101.034C72.8764 101.034 73.287 100.889 73.651 100.6C74.015 100.311 74.281 99.928 74.449 99.452H75.653C75.4664 100.236 75.0744 100.88 74.477 101.384C73.889 101.879 73.203 102.126 72.419 102.126C71.9524 102.126 71.509 102.033 71.089 101.846C70.6784 101.659 70.3237 101.407 70.025 101.09C69.7264 100.763 69.4884 100.376 69.311 99.928C69.1337 99.4707 69.045 98.976 69.045 98.444C69.045 97.9213 69.1337 97.436 69.311 96.988C69.4884 96.54 69.7264 96.1573 70.025 95.84C70.3237 95.5133 70.6784 95.2567 71.089 95.07C71.509 94.8833 71.9524 94.79 72.419 94.79C73.203 94.79 73.889 95.042 74.477 95.546C75.0744 96.0407 75.4664 96.68 75.653 97.464H74.449C74.281 96.988 74.015 96.6053 73.651 96.316C73.287 96.0267 72.8764 95.882 72.419 95.882C71.803 95.882 71.2804 96.1247 70.851 96.61C70.431 97.0953 70.221 97.7067 70.221 98.444C70.221 99.2 70.431 99.8207 70.851 100.306C71.2804 100.791 71.803 101.034 72.419 101.034ZM78.3074 91.346V102H77.1314V91.808L78.3074 91.346ZM84.7582 102V100.614C84.5809 101.146 84.2962 101.533 83.9042 101.776C83.5215 102.009 83.1109 102.126 82.6722 102.126C82.2802 102.126 81.9302 102.056 81.6222 101.916C81.3142 101.776 81.0529 101.585 80.8382 101.342C80.6235 101.09 80.4602 100.796 80.3482 100.46C80.2362 100.124 80.1802 99.7647 80.1802 99.382V94.93H81.3562V99.27C81.3562 99.83 81.5055 100.278 81.8042 100.614C82.1122 100.95 82.5042 101.118 82.9802 101.118C83.5029 101.118 83.9275 100.945 84.2542 100.6C84.5902 100.245 84.7582 99.8113 84.7582 99.298V94.93H85.9342V102H84.7582ZM87.5571 96.89C87.5664 96.2647 87.8044 95.7607 88.2711 95.378C88.7471 94.9953 89.3351 94.804 90.0351 94.804C90.8471 94.804 91.5284 95.0373 92.0791 95.504C92.6298 95.9613 92.9238 96.5493 92.9611 97.268H91.8131C91.7758 96.8293 91.5938 96.4793 91.2671 96.218C90.9498 95.9473 90.5438 95.812 90.0491 95.812C89.6384 95.812 89.3118 95.9053 89.0691 96.092C88.8358 96.2787 88.7191 96.5167 88.7191 96.806C88.7191 97.142 88.8824 97.3847 89.2091 97.534C89.5358 97.6833 89.9138 97.814 90.3431 97.926C90.6511 98.0007 90.9638 98.0847 91.2811 98.178C91.6078 98.262 91.8971 98.3787 92.1491 98.528C92.4104 98.668 92.6251 98.8593 92.7931 99.102C92.9611 99.3353 93.0451 99.6387 93.0451 100.012C93.0451 100.665 92.7931 101.183 92.2891 101.566C91.7851 101.939 91.1691 102.126 90.4411 102.126C89.6011 102.126 88.9058 101.888 88.3551 101.412C87.8044 100.936 87.5104 100.325 87.4731 99.578H88.6211C88.6491 100.035 88.8358 100.409 89.1811 100.698C89.5358 100.987 89.9604 101.132 90.4551 101.132C90.8564 101.132 91.1924 101.043 91.4631 100.866C91.7431 100.689 91.8831 100.441 91.8831 100.124C91.8831 99.76 91.6918 99.508 91.3091 99.368C90.9358 99.2187 90.5111 99.0833 90.0351 98.962C89.7458 98.8967 89.4518 98.8173 89.1531 98.724C88.8544 98.6307 88.5884 98.5093 88.3551 98.36C88.1218 98.2107 87.9304 98.0193 87.7811 97.786C87.6318 97.5433 87.5571 97.2447 87.5571 96.89ZM95.151 93.74C94.9177 93.74 94.717 93.656 94.549 93.488C94.381 93.3107 94.297 93.1053 94.297 92.872C94.297 92.6387 94.381 92.4333 94.549 92.256C94.717 92.0787 94.9177 91.99 95.151 91.99C95.3843 91.99 95.585 92.0787 95.753 92.256C95.921 92.4333 96.005 92.6387 96.005 92.872C96.005 93.1053 95.921 93.3107 95.753 93.488C95.585 93.656 95.3843 93.74 95.151 93.74ZM94.563 102V94.93H95.739V102H94.563ZM96.7718 94.93H98.0738L100.412 100.208L102.722 94.93H103.982L100.594 102.098H100.132L96.7718 94.93ZM107.762 102.126C107.286 102.126 106.838 102.033 106.418 101.846C105.998 101.659 105.634 101.407 105.326 101.09C105.018 100.763 104.775 100.376 104.598 99.928C104.421 99.4707 104.332 98.976 104.332 98.444C104.332 97.9213 104.416 97.436 104.584 96.988C104.761 96.54 104.999 96.1573 105.298 95.84C105.606 95.5133 105.965 95.2567 106.376 95.07C106.787 94.8833 107.225 94.79 107.692 94.79C108.14 94.79 108.565 94.8833 108.966 95.07C109.367 95.2473 109.717 95.504 110.016 95.84C110.315 96.176 110.553 96.596 110.73 97.1C110.907 97.5947 110.996 98.1547 110.996 98.78V98.864H105.536C105.62 99.5173 105.872 100.049 106.292 100.46C106.712 100.871 107.202 101.076 107.762 101.076C108.117 101.076 108.443 100.992 108.742 100.824C109.05 100.647 109.297 100.413 109.484 100.124H110.8C110.548 100.731 110.147 101.216 109.596 101.58C109.055 101.944 108.443 102.126 107.762 102.126ZM107.678 95.854C107.155 95.854 106.693 96.0453 106.292 96.428C105.9 96.8107 105.653 97.3007 105.55 97.898H109.764C109.671 97.3007 109.428 96.8107 109.036 96.428C108.644 96.0453 108.191 95.854 107.678 95.854ZM115.838 92.2H119.38C119.828 92.2 120.243 92.2747 120.626 92.424C121.009 92.564 121.335 92.7647 121.606 93.026C121.886 93.278 122.105 93.5813 122.264 93.936C122.423 94.2907 122.502 94.6733 122.502 95.084C122.502 95.4947 122.423 95.882 122.264 96.246C122.105 96.6007 121.886 96.9087 121.606 97.17C121.335 97.422 121.009 97.6227 120.626 97.772C120.243 97.912 119.828 97.982 119.38 97.982H117.07V102H115.838V92.2ZM119.366 96.918C119.926 96.918 120.383 96.7453 120.738 96.4C121.093 96.0547 121.27 95.616 121.27 95.084C121.27 94.552 121.097 94.1227 120.752 93.796C120.407 93.46 119.945 93.292 119.366 93.292H117.07V96.918H119.366ZM124.751 93.74C124.517 93.74 124.317 93.656 124.149 93.488C123.981 93.3107 123.897 93.1053 123.897 92.872C123.897 92.6387 123.981 92.4333 124.149 92.256C124.317 92.0787 124.517 91.99 124.751 91.99C124.984 91.99 125.185 92.0787 125.353 92.256C125.521 92.4333 125.605 92.6387 125.605 92.872C125.605 93.1053 125.521 93.3107 125.353 93.488C125.185 93.656 124.984 93.74 124.751 93.74ZM124.163 102V94.93H125.339V102H124.163ZM130.165 102.07C129.717 102.07 129.297 101.981 128.905 101.804C128.513 101.617 128.173 101.365 127.883 101.048C127.594 100.721 127.365 100.334 127.197 99.886C127.029 99.438 126.945 98.9527 126.945 98.43C126.945 97.9073 127.029 97.4267 127.197 96.988C127.365 96.54 127.594 96.1573 127.883 95.84C128.173 95.5133 128.513 95.2613 128.905 95.084C129.307 94.8973 129.731 94.804 130.179 94.804C130.665 94.804 131.117 94.9253 131.537 95.168C131.957 95.4013 132.307 95.7233 132.587 96.134V94.93H133.763V101.762C133.763 102.322 133.679 102.821 133.511 103.26C133.353 103.708 133.124 104.077 132.825 104.366C132.536 104.665 132.191 104.889 131.789 105.038C131.388 105.197 130.949 105.276 130.473 105.276C130.081 105.276 129.703 105.22 129.339 105.108C128.985 104.996 128.663 104.842 128.373 104.646C128.084 104.45 127.837 104.207 127.631 103.918C127.426 103.638 127.281 103.33 127.197 102.994H128.457C128.579 103.367 128.826 103.666 129.199 103.89C129.582 104.114 130.002 104.226 130.459 104.226C131.075 104.226 131.584 104.021 131.985 103.61C132.387 103.209 132.587 102.597 132.587 101.776V100.74C132.307 101.151 131.953 101.477 131.523 101.72C131.103 101.953 130.651 102.07 130.165 102.07ZM130.375 101.006C130.991 101.006 131.519 100.768 131.957 100.292C132.396 99.8067 132.615 99.186 132.615 98.43C132.615 97.6833 132.396 97.072 131.957 96.596C131.519 96.1107 130.991 95.868 130.375 95.868C129.75 95.868 129.218 96.1107 128.779 96.596C128.341 97.072 128.121 97.6833 128.121 98.43C128.121 99.186 128.341 99.8067 128.779 100.292C129.218 100.768 129.75 101.006 130.375 101.006ZM138.848 102V92.2H140.08V102H138.848ZM140.318 97.1L144.658 92.2H146.058L141.816 97.058L146.1 102H144.56L140.318 97.1ZM147.665 93.74C147.431 93.74 147.231 93.656 147.063 93.488C146.895 93.3107 146.811 93.1053 146.811 92.872C146.811 92.6387 146.895 92.4333 147.063 92.256C147.231 92.0787 147.431 91.99 147.665 91.99C147.898 91.99 148.099 92.0787 148.267 92.256C148.435 92.4333 148.519 92.6387 148.519 92.872C148.519 93.1053 148.435 93.3107 148.267 93.488C148.099 93.656 147.898 93.74 147.665 93.74ZM147.077 102V94.93H148.253V102H147.077ZM151.274 100.278V95.938H149.482V94.93H151.274V93.264L152.436 92.844V94.93H154.522V95.938H152.436V100.222C152.436 100.465 152.501 100.651 152.632 100.782C152.762 100.903 152.958 100.964 153.22 100.964H154.522V102H152.926C152.394 102 151.983 101.855 151.694 101.566C151.414 101.267 151.274 100.838 151.274 100.278ZM155.514 103.722C155.728 103.349 155.91 103.027 156.06 102.756C156.209 102.495 156.344 102.247 156.466 102.014C156.232 102.005 156.046 101.925 155.906 101.776C155.775 101.617 155.71 101.435 155.71 101.23C155.71 100.978 155.789 100.773 155.948 100.614C156.116 100.446 156.316 100.362 156.55 100.362C156.783 100.362 156.984 100.446 157.152 100.614C157.32 100.782 157.404 100.997 157.404 101.258C157.404 101.454 157.324 101.715 157.166 102.042C157.016 102.378 156.694 102.938 156.2 103.722H155.514ZM166.736 101.02C167.52 101.02 168.225 100.777 168.85 100.292C169.475 99.8067 169.905 99.158 170.138 98.346H171.398C171.267 98.9247 171.053 99.452 170.754 99.928C170.465 100.395 170.115 100.791 169.704 101.118C169.293 101.445 168.831 101.701 168.318 101.888C167.814 102.065 167.287 102.154 166.736 102.154C166.083 102.154 165.462 102.033 164.874 101.79C164.286 101.538 163.773 101.193 163.334 100.754C162.895 100.306 162.545 99.774 162.284 99.158C162.032 98.5327 161.906 97.8467 161.906 97.1C161.906 96.3533 162.032 95.672 162.284 95.056C162.545 94.4307 162.895 93.8987 163.334 93.46C163.773 93.012 164.286 92.6667 164.874 92.424C165.462 92.172 166.083 92.046 166.736 92.046C167.287 92.046 167.814 92.1393 168.318 92.326C168.831 92.5033 169.293 92.7553 169.704 93.082C170.115 93.4087 170.465 93.81 170.754 94.286C171.053 94.7527 171.267 95.2753 171.398 95.854H170.138C169.905 95.042 169.475 94.3933 168.85 93.908C168.225 93.4227 167.52 93.18 166.736 93.18C166.251 93.18 165.789 93.278 165.35 93.474C164.911 93.6607 164.529 93.9267 164.202 94.272C163.875 94.6173 163.614 95.0327 163.418 95.518C163.231 95.994 163.138 96.5213 163.138 97.1C163.138 97.6787 163.231 98.2107 163.418 98.696C163.614 99.172 163.875 99.5827 164.202 99.928C164.529 100.273 164.911 100.544 165.35 100.74C165.789 100.927 166.251 101.02 166.736 101.02ZM173.026 102V94.93H174.202V96.358C174.426 95.7513 174.767 95.3173 175.224 95.056C175.681 94.7853 176.213 94.6827 176.82 94.748V95.868C176.465 95.8027 176.129 95.812 175.812 95.896C175.495 95.98 175.215 96.12 174.972 96.316C174.739 96.5027 174.552 96.7407 174.412 97.03C174.272 97.3193 174.202 97.632 174.202 97.968V102H173.026ZM180.852 102.126C180.376 102.126 179.928 102.033 179.508 101.846C179.088 101.659 178.724 101.407 178.416 101.09C178.108 100.763 177.865 100.376 177.688 99.928C177.511 99.4707 177.422 98.976 177.422 98.444C177.422 97.9213 177.506 97.436 177.674 96.988C177.851 96.54 178.089 96.1573 178.388 95.84C178.696 95.5133 179.055 95.2567 179.466 95.07C179.877 94.8833 180.315 94.79 180.782 94.79C181.23 94.79 181.655 94.8833 182.056 95.07C182.457 95.2473 182.807 95.504 183.106 95.84C183.405 96.176 183.643 96.596 183.82 97.1C183.997 97.5947 184.086 98.1547 184.086 98.78V98.864H178.626C178.71 99.5173 178.962 100.049 179.382 100.46C179.802 100.871 180.292 101.076 180.852 101.076C181.207 101.076 181.533 100.992 181.832 100.824C182.14 100.647 182.387 100.413 182.574 100.124H183.89C183.638 100.731 183.237 101.216 182.686 101.58C182.145 101.944 181.533 102.126 180.852 102.126ZM180.768 95.854C180.245 95.854 179.783 96.0453 179.382 96.428C178.99 96.8107 178.743 97.3007 178.64 97.898H182.854C182.761 97.3007 182.518 96.8107 182.126 96.428C181.734 96.0453 181.281 95.854 180.768 95.854ZM185.448 96.89C185.457 96.2647 185.695 95.7607 186.162 95.378C186.638 94.9953 187.226 94.804 187.926 94.804C188.738 94.804 189.419 95.0373 189.97 95.504C190.52 95.9613 190.814 96.5493 190.852 97.268H189.704C189.666 96.8293 189.484 96.4793 189.158 96.218C188.84 95.9473 188.434 95.812 187.94 95.812C187.529 95.812 187.202 95.9053 186.96 96.092C186.726 96.2787 186.61 96.5167 186.61 96.806C186.61 97.142 186.773 97.3847 187.1 97.534C187.426 97.6833 187.804 97.814 188.234 97.926C188.542 98.0007 188.854 98.0847 189.172 98.178C189.498 98.262 189.788 98.3787 190.04 98.528C190.301 98.668 190.516 98.8593 190.684 99.102C190.852 99.3353 190.936 99.6387 190.936 100.012C190.936 100.665 190.684 101.183 190.18 101.566C189.676 101.939 189.06 102.126 188.332 102.126C187.492 102.126 186.796 101.888 186.246 101.412C185.695 100.936 185.401 100.325 185.364 99.578H186.512C186.54 100.035 186.726 100.409 187.072 100.698C187.426 100.987 187.851 101.132 188.346 101.132C188.747 101.132 189.083 101.043 189.354 100.866C189.634 100.689 189.774 100.441 189.774 100.124C189.774 99.76 189.582 99.508 189.2 99.368C188.826 99.2187 188.402 99.0833 187.926 98.962C187.636 98.8967 187.342 98.8173 187.044 98.724C186.745 98.6307 186.479 98.5093 186.246 98.36C186.012 98.2107 185.821 98.0193 185.672 97.786C185.522 97.5433 185.448 97.2447 185.448 96.89ZM193.465 100.278V95.938H191.673V94.93H193.465V93.264L194.627 92.844V94.93H196.713V95.938H194.627V100.222C194.627 100.465 194.692 100.651 194.823 100.782C194.954 100.903 195.15 100.964 195.411 100.964H196.713V102H195.117C194.585 102 194.174 101.855 193.885 101.566C193.605 101.267 193.465 100.838 193.465 100.278ZM197.705 103.722C197.92 103.349 198.102 103.027 198.251 102.756C198.4 102.495 198.536 102.247 198.657 102.014C198.424 102.005 198.237 101.925 198.097 101.776C197.966 101.617 197.901 101.435 197.901 101.23C197.901 100.978 197.98 100.773 198.139 100.614C198.307 100.446 198.508 100.362 198.741 100.362C198.974 100.362 199.175 100.446 199.343 100.614C199.511 100.782 199.595 100.997 199.595 101.258C199.595 101.454 199.516 101.715 199.357 102.042C199.208 102.378 198.886 102.938 198.391 103.722H197.705ZM211.307 99.284C211.307 99.732 211.219 100.133 211.041 100.488C210.873 100.843 210.635 101.141 210.327 101.384C210.029 101.627 209.669 101.813 209.249 101.944C208.829 102.065 208.377 102.126 207.891 102.126C207.331 102.126 206.813 102.042 206.337 101.874C205.861 101.697 205.446 101.459 205.091 101.16C204.746 100.852 204.471 100.483 204.265 100.054C204.069 99.6247 203.962 99.158 203.943 98.654H205.105C205.161 99.3633 205.451 99.942 205.973 100.39C206.505 100.829 207.149 101.048 207.905 101.048C208.195 101.048 208.47 101.015 208.731 100.95C209.002 100.875 209.235 100.768 209.431 100.628C209.637 100.488 209.795 100.315 209.907 100.11C210.029 99.8953 210.089 99.6527 210.089 99.382C210.089 99.1113 210.019 98.8873 209.879 98.71C209.739 98.5233 209.553 98.3693 209.319 98.248C209.095 98.1267 208.829 98.024 208.521 97.94C208.223 97.856 207.91 97.7767 207.583 97.702C207.182 97.6087 206.776 97.506 206.365 97.394C205.964 97.2727 205.6 97.114 205.273 96.918C204.947 96.7127 204.681 96.4513 204.475 96.134C204.27 95.8073 204.167 95.392 204.167 94.888C204.167 94.5147 204.237 94.16 204.377 93.824C204.527 93.4787 204.737 93.18 205.007 92.928C205.278 92.6667 205.614 92.4613 206.015 92.312C206.417 92.1533 206.869 92.074 207.373 92.074C207.905 92.074 208.4 92.158 208.857 92.326C209.315 92.4847 209.711 92.7087 210.047 92.998C210.383 93.2873 210.649 93.6373 210.845 94.048C211.041 94.4493 211.153 94.8833 211.181 95.35H210.005C209.94 94.6967 209.674 94.1647 209.207 93.754C208.75 93.3433 208.139 93.138 207.373 93.138C206.748 93.138 206.258 93.3013 205.903 93.628C205.549 93.9547 205.371 94.356 205.371 94.832C205.371 95.0933 205.432 95.3173 205.553 95.504C205.684 95.6907 205.852 95.8447 206.057 95.966C206.263 96.0873 206.505 96.1947 206.785 96.288C207.065 96.372 207.359 96.4467 207.667 96.512C208.078 96.6147 208.498 96.722 208.927 96.834C209.366 96.946 209.758 97.1 210.103 97.296C210.458 97.4827 210.747 97.7347 210.971 98.052C211.195 98.3693 211.307 98.78 211.307 99.284ZM214.082 100.278V95.938H212.29V94.93H214.082V93.264L215.244 92.844V94.93H217.33V95.938H215.244V100.222C215.244 100.465 215.309 100.651 215.44 100.782C215.571 100.903 215.767 100.964 216.028 100.964H217.33V102H215.734C215.202 102 214.791 101.855 214.502 101.566C214.222 101.267 214.082 100.838 214.082 100.278ZM223.03 102V100.768C222.843 101.179 222.544 101.51 222.134 101.762C221.732 102.005 221.256 102.126 220.706 102.126C220.034 102.126 219.478 101.939 219.04 101.566C218.61 101.183 218.396 100.698 218.396 100.11C218.396 99.55 218.606 99.0973 219.026 98.752C219.446 98.3973 220.02 98.192 220.748 98.136L223.03 97.968V97.604C223.03 97.0907 222.871 96.666 222.554 96.33C222.246 95.9847 221.858 95.812 221.392 95.812C220.897 95.812 220.505 95.938 220.216 96.19C219.936 96.4327 219.749 96.7733 219.656 97.212H218.494C218.568 96.5027 218.876 95.924 219.418 95.476C219.959 95.0187 220.622 94.79 221.406 94.79C222.274 94.79 222.955 95.056 223.45 95.588C223.944 96.1107 224.192 96.778 224.192 97.59V102H223.03ZM219.558 100.11C219.558 100.409 219.684 100.661 219.936 100.866C220.188 101.062 220.519 101.16 220.93 101.16C221.499 101.16 221.989 100.983 222.4 100.628C222.82 100.273 223.03 99.858 223.03 99.382V98.878L220.972 99.032C220.533 99.0693 220.188 99.1813 219.936 99.368C219.684 99.5453 219.558 99.7927 219.558 100.11ZM229.027 102.112C228.579 102.112 228.159 102.019 227.767 101.832C227.375 101.645 227.034 101.393 226.745 101.076C226.455 100.749 226.227 100.362 226.059 99.914C225.891 99.4567 225.807 98.9667 225.807 98.444C225.807 97.9213 225.891 97.4407 226.059 97.002C226.227 96.554 226.455 96.1713 226.745 95.854C227.034 95.5273 227.375 95.2707 227.767 95.084C228.168 94.8973 228.593 94.804 229.041 94.804C229.526 94.804 229.979 94.9253 230.399 95.168C230.819 95.4013 231.169 95.7233 231.449 96.134V91.808L232.625 91.346V102H231.449V100.768C231.169 101.188 230.814 101.519 230.385 101.762C229.965 101.995 229.512 102.112 229.027 102.112ZM229.237 101.048C229.853 101.048 230.38 100.805 230.819 100.32C231.257 99.8253 231.477 99.2 231.477 98.444C231.477 97.6973 231.257 97.0813 230.819 96.596C230.38 96.1107 229.853 95.868 229.237 95.868C228.611 95.868 228.079 96.1107 227.641 96.596C227.202 97.0813 226.983 97.6973 226.983 98.444C226.983 99.2 227.202 99.8253 227.641 100.32C228.079 100.805 228.611 101.048 229.237 101.048ZM235.083 93.74C234.849 93.74 234.649 93.656 234.481 93.488C234.313 93.3107 234.229 93.1053 234.229 92.872C234.229 92.6387 234.313 92.4333 234.481 92.256C234.649 92.0787 234.849 91.99 235.083 91.99C235.316 91.99 235.517 92.0787 235.685 92.256C235.853 92.4333 235.937 92.6387 235.937 92.872C235.937 93.1053 235.853 93.3107 235.685 93.488C235.517 93.656 235.316 93.74 235.083 93.74ZM234.495 102V94.93H235.671V102H234.495ZM242.121 102V100.614C241.944 101.146 241.659 101.533 241.267 101.776C240.885 102.009 240.474 102.126 240.035 102.126C239.643 102.126 239.293 102.056 238.985 101.916C238.677 101.776 238.416 101.585 238.201 101.342C237.987 101.09 237.823 100.796 237.711 100.46C237.599 100.124 237.543 99.7647 237.543 99.382V94.93H238.719V99.27C238.719 99.83 238.869 100.278 239.167 100.614C239.475 100.95 239.867 101.118 240.343 101.118C240.866 101.118 241.291 100.945 241.617 100.6C241.953 100.245 242.121 99.8113 242.121 99.298V94.93H243.297V102H242.121ZM245.172 102V94.93H246.348V96.316C246.526 95.784 246.806 95.4013 247.188 95.168C247.571 94.9347 247.977 94.818 248.406 94.818C248.91 94.818 249.34 94.9627 249.694 95.252C250.058 95.5413 250.32 95.9193 250.478 96.386C250.656 95.882 250.94 95.4947 251.332 95.224C251.734 94.9533 252.172 94.818 252.648 94.818C253.022 94.818 253.353 94.888 253.642 95.028C253.932 95.168 254.174 95.364 254.37 95.616C254.566 95.8587 254.716 96.148 254.818 96.484C254.921 96.8107 254.972 97.1653 254.972 97.548V102H253.796V97.66C253.796 97.128 253.647 96.6893 253.348 96.344C253.059 95.9987 252.681 95.826 252.214 95.826C251.785 95.826 251.416 96.0033 251.108 96.358C250.81 96.7033 250.66 97.128 250.66 97.632V102H249.484V97.66C249.484 97.128 249.335 96.6893 249.036 96.344C248.747 95.9987 248.369 95.826 247.902 95.826C247.473 95.826 247.104 96.0033 246.796 96.358C246.498 96.7033 246.348 97.128 246.348 97.632V102H245.172ZM263.884 102H262.638V93.292H259.39V92.2H267.132V93.292H263.884V102ZM269.563 97.632V102H268.387V91.808L269.563 91.346V96.316C269.741 95.784 270.021 95.4013 270.403 95.168C270.795 94.9253 271.211 94.804 271.649 94.804C272.041 94.804 272.391 94.874 272.699 95.014C273.007 95.154 273.269 95.35 273.483 95.602C273.698 95.8447 273.861 96.134 273.973 96.47C274.085 96.806 274.141 97.1653 274.141 97.548V102H272.965V97.66C272.965 97.1 272.811 96.652 272.503 96.316C272.205 95.98 271.817 95.812 271.341 95.812C270.819 95.812 270.389 95.9893 270.053 96.344C269.727 96.6893 269.563 97.1187 269.563 97.632ZM279.18 102.126C278.704 102.126 278.256 102.033 277.836 101.846C277.416 101.659 277.052 101.407 276.744 101.09C276.436 100.763 276.193 100.376 276.016 99.928C275.839 99.4707 275.75 98.976 275.75 98.444C275.75 97.9213 275.834 97.436 276.002 96.988C276.179 96.54 276.417 96.1573 276.716 95.84C277.024 95.5133 277.383 95.2567 277.794 95.07C278.205 94.8833 278.643 94.79 279.11 94.79C279.558 94.79 279.983 94.8833 280.384 95.07C280.785 95.2473 281.135 95.504 281.434 95.84C281.733 96.176 281.971 96.596 282.148 97.1C282.325 97.5947 282.414 98.1547 282.414 98.78V98.864H276.954C277.038 99.5173 277.29 100.049 277.71 100.46C278.13 100.871 278.62 101.076 279.18 101.076C279.535 101.076 279.861 100.992 280.16 100.824C280.468 100.647 280.715 100.413 280.902 100.124H282.218C281.966 100.731 281.565 101.216 281.014 101.58C280.473 101.944 279.861 102.126 279.18 102.126ZM279.096 95.854C278.573 95.854 278.111 96.0453 277.71 96.428C277.318 96.8107 277.071 97.3007 276.968 97.898H281.182C281.089 97.3007 280.846 96.8107 280.454 96.428C280.062 96.0453 279.609 95.854 279.096 95.854ZM284.028 102V94.93H285.204V96.316C285.381 95.784 285.661 95.4013 286.044 95.168C286.427 94.9347 286.833 94.818 287.262 94.818C287.766 94.818 288.195 94.9627 288.55 95.252C288.914 95.5413 289.175 95.9193 289.334 96.386C289.511 95.882 289.796 95.4947 290.188 95.224C290.589 94.9533 291.028 94.818 291.504 94.818C291.877 94.818 292.209 94.888 292.498 95.028C292.787 95.168 293.03 95.364 293.226 95.616C293.422 95.8587 293.571 96.148 293.674 96.484C293.777 96.8107 293.828 97.1653 293.828 97.548V102H292.652V97.66C292.652 97.128 292.503 96.6893 292.204 96.344C291.915 95.9987 291.537 95.826 291.07 95.826C290.641 95.826 290.272 96.0033 289.964 96.358C289.665 96.7033 289.516 97.128 289.516 97.632V102H288.34V97.66C288.34 97.128 288.191 96.6893 287.892 96.344C287.603 95.9987 287.225 95.826 286.758 95.826C286.329 95.826 285.96 96.0033 285.652 96.358C285.353 96.7033 285.204 97.128 285.204 97.632V102H284.028ZM298.868 102.126C298.392 102.126 297.944 102.033 297.524 101.846C297.104 101.659 296.74 101.407 296.432 101.09C296.124 100.763 295.881 100.376 295.704 99.928C295.526 99.4707 295.438 98.976 295.438 98.444C295.438 97.9213 295.522 97.436 295.69 96.988C295.867 96.54 296.105 96.1573 296.404 95.84C296.712 95.5133 297.071 95.2567 297.482 95.07C297.892 94.8833 298.331 94.79 298.798 94.79C299.246 94.79 299.67 94.8833 300.072 95.07C300.473 95.2473 300.823 95.504 301.122 95.84C301.42 96.176 301.658 96.596 301.836 97.1C302.013 97.5947 302.102 98.1547 302.102 98.78V98.864H296.642C296.726 99.5173 296.978 100.049 297.398 100.46C297.818 100.871 298.308 101.076 298.868 101.076C299.222 101.076 299.549 100.992 299.848 100.824C300.156 100.647 300.403 100.413 300.59 100.124H301.906C301.654 100.731 301.252 101.216 300.702 101.58C300.16 101.944 299.549 102.126 298.868 102.126ZM298.784 95.854C298.261 95.854 297.799 96.0453 297.398 96.428C297.006 96.8107 296.758 97.3007 296.656 97.898H300.87C300.776 97.3007 300.534 96.8107 300.142 96.428C299.75 96.0453 299.297 95.854 298.784 95.854ZM5.264 120V118.768C5.07733 119.179 4.77867 119.51 4.368 119.762C3.96667 120.005 3.49067 120.126 2.94 120.126C2.268 120.126 1.71267 119.939 1.274 119.566C0.844667 119.183 0.63 118.698 0.63 118.11C0.63 117.55 0.84 117.097 1.26 116.752C1.68 116.397 2.254 116.192 2.982 116.136L5.264 115.968V115.604C5.264 115.091 5.10533 114.666 4.788 114.33C4.48 113.985 4.09267 113.812 3.626 113.812C3.13133 113.812 2.73933 113.938 2.45 114.19C2.17 114.433 1.98333 114.773 1.89 115.212H0.728C0.802667 114.503 1.11067 113.924 1.652 113.476C2.19333 113.019 2.856 112.79 3.64 112.79C4.508 112.79 5.18933 113.056 5.684 113.588C6.17867 114.111 6.426 114.778 6.426 115.59V120H5.264ZM1.792 118.11C1.792 118.409 1.918 118.661 2.17 118.866C2.422 119.062 2.75333 119.16 3.164 119.16C3.73333 119.16 4.22333 118.983 4.634 118.628C5.054 118.273 5.264 117.858 5.264 117.382V116.878L3.206 117.032C2.76733 117.069 2.422 117.181 2.17 117.368C1.918 117.545 1.792 117.793 1.792 118.11ZM9.48314 115.632V120H8.30714V112.93H9.48314V114.316C9.66047 113.784 9.94047 113.401 10.3231 113.168C10.7151 112.925 11.1305 112.804 11.5691 112.804C11.9611 112.804 12.3111 112.874 12.6191 113.014C12.9271 113.154 13.1885 113.35 13.4031 113.602C13.6178 113.845 13.7811 114.134 13.8931 114.47C14.0051 114.806 14.0611 115.165 14.0611 115.548V120H12.8851V115.66C12.8851 115.1 12.7311 114.652 12.4231 114.316C12.1245 113.98 11.7371 113.812 11.2611 113.812C10.7385 113.812 10.3091 113.989 9.97314 114.344C9.64647 114.689 9.48314 115.119 9.48314 115.632ZM18.89 120.112C18.442 120.112 18.022 120.019 17.63 119.832C17.238 119.645 16.8974 119.393 16.608 119.076C16.3187 118.749 16.09 118.362 15.922 117.914C15.754 117.457 15.67 116.967 15.67 116.444C15.67 115.921 15.754 115.441 15.922 115.002C16.09 114.554 16.3187 114.171 16.608 113.854C16.8974 113.527 17.238 113.271 17.63 113.084C18.0314 112.897 18.456 112.804 18.904 112.804C19.3894 112.804 19.842 112.925 20.262 113.168C20.682 113.401 21.032 113.723 21.312 114.134V109.808L22.488 109.346V120H21.312V118.768C21.032 119.188 20.6774 119.519 20.248 119.762C19.828 119.995 19.3754 120.112 18.89 120.112ZM19.1 119.048C19.716 119.048 20.2434 118.805 20.682 118.32C21.1207 117.825 21.34 117.2 21.34 116.444C21.34 115.697 21.1207 115.081 20.682 114.596C20.2434 114.111 19.716 113.868 19.1 113.868C18.4747 113.868 17.9427 114.111 17.504 114.596C17.0654 115.081 16.846 115.697 16.846 116.444C16.846 117.2 17.0654 117.825 17.504 118.32C17.9427 118.805 18.4747 119.048 19.1 119.048ZM31.3941 120H30.1481V111.292H26.9001V110.2H34.6421V111.292H31.3941V120ZM36.485 111.74C36.2517 111.74 36.051 111.656 35.883 111.488C35.715 111.311 35.631 111.105 35.631 110.872C35.631 110.639 35.715 110.433 35.883 110.256C36.051 110.079 36.2517 109.99 36.485 109.99C36.7183 109.99 36.919 110.079 37.087 110.256C37.255 110.433 37.339 110.639 37.339 110.872C37.339 111.105 37.255 111.311 37.087 111.488C36.919 111.656 36.7183 111.74 36.485 111.74ZM35.897 120V112.93H37.073V120H35.897ZM43.3278 113.938H41.2558V120H40.0798V113.938H38.3018V112.93H40.0798V111.502C40.0798 110.951 40.2245 110.531 40.5138 110.242C40.8031 109.953 41.2138 109.808 41.7458 109.808H43.3278V110.844H42.0258C41.7645 110.844 41.5685 110.909 41.4378 111.04C41.3165 111.161 41.2558 111.343 41.2558 111.586V112.93H43.3278V113.938ZM47.5922 120.126C47.1162 120.126 46.6682 120.033 46.2482 119.846C45.8282 119.659 45.4642 119.407 45.1562 119.09C44.8482 118.763 44.6056 118.376 44.4282 117.928C44.2509 117.471 44.1622 116.976 44.1622 116.444C44.1622 115.921 44.2509 115.436 44.4282 114.988C44.6056 114.54 44.8482 114.157 45.1562 113.84C45.4642 113.513 45.8282 113.257 46.2482 113.07C46.6682 112.883 47.1162 112.79 47.5922 112.79C48.0682 112.79 48.5162 112.883 48.9362 113.07C49.3562 113.257 49.7156 113.513 50.0142 113.84C50.3222 114.157 50.5649 114.54 50.7422 114.988C50.9196 115.436 51.0082 115.921 51.0082 116.444C51.0082 116.976 50.9196 117.471 50.7422 117.928C50.5649 118.376 50.3222 118.763 50.0142 119.09C49.7156 119.407 49.3562 119.659 48.9362 119.846C48.5162 120.033 48.0682 120.126 47.5922 120.126ZM47.5922 119.076C48.2082 119.076 48.7356 118.829 49.1742 118.334C49.6129 117.839 49.8322 117.214 49.8322 116.458C49.8322 115.711 49.6129 115.091 49.1742 114.596C48.7356 114.092 48.2082 113.84 47.5922 113.84C46.9669 113.84 46.4349 114.092 45.9962 114.596C45.5576 115.091 45.3382 115.711 45.3382 116.458C45.3382 117.214 45.5576 117.839 45.9962 118.334C46.4349 118.829 46.9669 119.076 47.5922 119.076Z" fill="white"/>
<rect x="271" y="3" width="40" height="17" rx="2" fill="#29FFC9"/>
<path d="M277.892 15L277.272 13.31H274.682L274.052 15H273.192L275.902 7.9H276.112L278.822 15H277.892ZM274.952 12.58H277.002L275.972 9.81L274.952 12.58ZM284.598 10.6H283.708C283.608 9.96 283.401 9.48333 283.088 9.17C282.781 8.85667 282.438 8.7 282.058 8.7C281.831 8.7 281.611 8.75667 281.398 8.87C281.191 8.98333 281.008 9.15667 280.848 9.39C280.694 9.61667 280.571 9.90667 280.478 10.26C280.384 10.6133 280.338 11.0267 280.338 11.5C280.338 11.9733 280.384 12.3867 280.478 12.74C280.571 13.0933 280.694 13.3867 280.848 13.62C281.008 13.8467 281.191 14.0167 281.398 14.13C281.611 14.2433 281.831 14.3 282.058 14.3C282.438 14.3 282.781 14.1433 283.088 13.83C283.401 13.5167 283.611 13.0367 283.718 12.39H284.598C284.538 12.8367 284.428 13.2333 284.268 13.58C284.108 13.92 283.914 14.2033 283.688 14.43C283.468 14.65 283.218 14.82 282.938 14.94C282.658 15.0533 282.364 15.11 282.058 15.11C281.704 15.11 281.368 15.0333 281.048 14.88C280.734 14.7267 280.458 14.5 280.218 14.2C279.984 13.9 279.798 13.5233 279.658 13.07C279.524 12.6167 279.458 12.0933 279.458 11.5C279.458 10.9067 279.524 10.3833 279.658 9.93C279.798 9.47667 279.984 9.1 280.218 8.8C280.458 8.5 280.734 8.27333 281.048 8.12C281.368 7.96667 281.704 7.89 282.058 7.89C282.364 7.89 282.654 7.94667 282.928 8.06C283.208 8.17333 283.461 8.34333 283.688 8.57C283.914 8.79667 284.104 9.08 284.258 9.42C284.418 9.76 284.531 10.1533 284.598 10.6ZM287.564 15V8.78H285.394V8H290.624V8.78H288.454V15H287.564ZM291.73 15V14.22H293.55V8.78H291.73V8H296.26V8.78H294.44V14.22H296.26V15H291.73ZM299.886 15.1L297.176 8H298.106L300.026 13.14L301.946 8H302.806L300.096 15.1H299.886ZM308.262 15H304.002V8H308.262V8.78H304.882V11.04H307.402V11.82H304.882V14.22H308.262V15Z" fill="#252525"/>
</svg>
