<svg width="82" height="68" viewBox="0 0 82 68" fill="none" xmlns="http://www.w3.org/2000/svg">
<path fill-rule="evenodd" clip-rule="evenodd" d="M50.5669 14.475C51.603 14.7471 52.4456 15.5326 52.7963 16.5395C53.0177 17.161 53.0097 18.0759 52.7883 18.6467C52.3803 19.6977 51.5896 20.4325 50.5669 20.7032C48.9109 21.1327 47.1469 20.1338 46.6682 18.4893C46.5255 17.9892 46.5322 17.1397 46.6975 16.6182C47.1895 14.9965 48.9109 14.0389 50.5669 14.475V14.475ZM43.4916 0.037252C43.4636 0.0585907 43.4489 7.23774 43.4489 16.0026C43.4489 30.4543 43.4569 31.9187 43.5556 31.9613C43.7343 32.0267 48.8757 32.004 49.5131 31.932C52.2051 31.6266 54.5838 29.9902 55.8692 27.5616C56.0332 27.2468 56.2545 26.7254 56.3692 26.4039C56.7826 25.161 56.7759 25.489 56.7759 15.968C56.7759 8.36736 56.7625 7.23108 56.6679 6.75229C56.0119 3.30208 53.3758 0.694752 49.9197 0.102602C49.4557 0.0239153 48.741 0.00124284 46.4343 0.00124284C44.8343 -0.00542552 43.5129 0.0159132 43.4916 0.037252V0.037252ZM32.1939 6.63097C31.7792 6.70965 31.1445 7.03107 30.8019 7.32447C30.1085 7.92463 29.7592 8.78084 29.8165 9.7891C29.8445 10.3092 29.8739 10.4533 30.0872 10.8747C30.4005 11.5175 30.8659 11.9883 31.5086 12.3031C31.9512 12.5245 32.0646 12.5458 32.6446 12.5671C33.1646 12.5885 33.3513 12.5671 33.7006 12.4458C35.1366 11.9603 36.0073 10.5666 35.758 9.1316C35.4793 7.43917 33.8579 6.29621 32.1939 6.63097V6.63097ZM37.6127 16.0036V29.4257L34.9139 29.391C32.4286 29.363 32.1632 29.3483 31.6632 29.2269C29.5285 28.6761 27.9498 27.0344 27.5004 24.8898C27.3578 24.219 27.3578 7.73882 27.4924 7.08266C27.8925 5.21818 29.1858 3.67513 30.9219 2.98162C31.7925 2.63219 32.2005 2.58818 35.0353 2.58151L37.598 2.57485V16.0036H37.6127ZM31.6211 0.103116C28.4357 0.673928 25.8729 3.03052 25.0649 6.13131C24.7729 7.25293 24.7516 7.91043 24.7876 16.5966C24.8009 24.5693 24.8089 24.7547 24.9436 25.3749C25.6796 28.6984 28.037 31.0616 31.3931 31.8405C31.8277 31.9405 32.3851 31.9619 35.9718 31.9765C39.6772 32.0045 40.0626 31.9979 40.1626 31.8978C40.2626 31.7978 40.2692 30.5188 40.2692 16.0258C40.2692 5.27509 40.2492 0.217812 40.2066 0.124455C40.1426 0.00175724 40.0279 -0.00491112 36.1425 0.00175724C32.9851 0.00975927 32.0357 0.031098 31.6211 0.103116V0.103116Z" fill="white"/>
<path d="M76.8598 44.1391C75.0951 44.7198 74.0477 46.4161 74.3437 48.2604C74.5259 49.4445 75.209 50.378 76.2564 50.9131C77.6795 51.6189 79.1937 51.4368 80.3321 50.4122C81.186 49.638 81.5503 48.8297 81.5503 47.6798C81.5503 46.5983 81.2315 45.7899 80.5143 45.0727C79.6149 44.1733 77.9983 43.7634 76.8598 44.1391ZM78.8749 45.8013C79.558 46.1542 79.9337 46.7235 79.9906 47.4977C80.0589 48.5109 79.6263 49.2395 78.7269 49.6152C77.2013 50.2528 75.4708 48.7841 75.9034 47.2016C76.0856 46.4958 76.393 46.0973 76.9622 45.8127C77.577 45.5167 78.2943 45.5053 78.8749 45.8013Z" fill="white"/>
<path d="M0.546875 47.6798V51.1635L1.26412 51.1294L1.96997 51.0952L2.0269 48.8979L2.08382 46.7007L3.73462 48.9207L5.38541 51.1521L6.0685 51.1294L6.75159 51.0952V47.6798V44.2643L6.04573 44.2302L5.32849 44.196V46.4388V48.693L3.65492 46.4502L1.96997 44.2074H1.26412H0.546875V47.6798Z" fill="white"/>
<path d="M11.9316 47.6798V51.1522H12.6717H13.4117V47.6798V44.2074H12.6717H11.9316V47.6798Z" fill="white"/>
<path d="M18.5921 44.3554C18.558 44.4351 18.5466 45.9834 18.558 47.7936L18.5921 51.0952L19.3094 51.1294L20.0152 51.1635V48.8638V46.5527L21.723 48.8524L23.4307 51.1521H24.1138H24.7968V47.6798V44.2074H24.0568H23.3168L23.2941 46.3933L23.2599 48.5792L21.6205 46.3933L19.9925 44.2074H19.3208C18.8768 44.2074 18.6263 44.2529 18.5921 44.3554Z" fill="white"/>
<path d="M29.6578 44.2871C29.6123 44.3213 29.5781 44.6628 29.5781 45.0271V45.6875H30.7166H31.8551V48.4198V51.1522H32.5951H33.3351V48.4198V45.6875H34.4167H35.4982V44.9474V44.2074H32.6179C31.024 44.2074 29.692 44.2416 29.6578 44.2871Z" fill="white"/>
<path d="M40.5078 47.6798V51.1522H43.1832H45.8587V50.4691V49.786H43.8663H41.874V48.9891V48.1921H43.6956H45.5171V47.566V46.9398H43.6956H41.874V46.2567V45.5736L43.8436 45.5508L45.8017 45.5167L45.8359 44.8564L45.87 44.2074H43.1832H40.5078V47.6798Z" fill="white"/>
<path d="M51.4945 44.3554C51.4603 44.4351 51.4489 45.9834 51.4603 47.7936L51.4945 51.0952L52.2117 51.1294L52.9176 51.1635V48.8524V46.5527L54.6253 48.8524L56.333 51.1521H57.0161H57.6992V47.6798V44.2074H56.9592H56.2192L56.1964 46.3933L56.1622 48.5792L54.5228 46.3933L52.8948 44.2074H52.2231C51.7791 44.2074 51.5286 44.2529 51.4945 44.3554Z" fill="white"/>
<path d="M63.5049 47.6684V51.1522H65.0191C66.7723 51.1522 67.6034 50.9814 68.3548 50.4577C70.5748 48.9321 70.2333 45.6647 67.74 44.5148C67.2732 44.2985 66.9545 44.2644 65.3606 44.2302L63.5049 44.1847V47.6684ZM67.2277 45.9038C68.184 46.3478 68.5939 47.566 68.1157 48.5792C67.7514 49.3306 67.0114 49.6721 65.7135 49.6721H64.8711V47.6798V45.6875H65.816C66.4877 45.6875 66.8862 45.7558 67.2277 45.9038Z" fill="white"/>
<path d="M60.0674 54.2374C58.4849 54.4423 57.0732 55.1824 55.9119 56.4233C53.3731 59.1556 53.4528 63.3111 56.1055 65.9524C57.0846 66.9428 57.9726 67.4552 59.2477 67.7739C61.3425 68.309 63.46 67.8878 65.1905 66.5785C65.8622 66.0776 66.7389 65.0985 66.6706 64.9277C66.6478 64.8822 66.181 64.461 65.6231 63.9714L64.6213 63.0948L64.3139 63.4933C62.8453 65.4173 59.8738 65.6222 58.1547 63.9031C57.9043 63.6526 57.5627 63.1859 57.3919 62.8557C57.1073 62.3092 57.0732 62.1385 57.0732 61.1138C57.0732 60.1347 57.1073 59.8957 57.3578 59.4061C58.2003 57.6642 60.2837 56.7193 62.0939 57.243C62.9363 57.4821 63.7333 57.983 64.2342 58.5864L64.6213 59.0532L65.1222 58.6433C65.3955 58.427 65.8736 58.0058 66.181 57.7326L66.7502 57.2202L66.3062 56.6738C64.8262 54.875 62.4354 53.9414 60.0674 54.2374Z" fill="white"/>
<path d="M3.75777 54.6815C1.04819 55.3987 -0.352137 57.2089 0.251257 59.2581C0.683879 60.7723 2.11836 61.5123 5.93227 62.1954C8.49385 62.6508 9.24524 63.0265 9.24524 63.8348C9.24524 64.3927 8.91508 64.8025 8.19784 65.1327C7.58306 65.4173 7.44644 65.4401 5.89811 65.4401C4.06516 65.4401 3.34792 65.2921 1.99313 64.6773C1.57189 64.4838 1.20758 64.3471 1.18481 64.3699C1.04819 64.5407 -0.0333627 66.5558 0.000791707 66.5786C0.11464 66.7038 1.93621 67.3641 2.6876 67.569C3.93993 67.8992 6.61535 67.9789 7.98153 67.7284C10.5317 67.2503 11.7954 66.0776 11.9093 64.1081C12.0004 62.48 11.545 61.6376 10.1446 60.9089C9.14278 60.3852 8.27753 60.1348 6.06888 59.6908C4.14486 59.3151 3.59839 59.1329 3.19992 58.7572C2.84699 58.4271 2.84699 57.835 3.2113 57.4707C4.03101 56.651 6.96828 56.6169 9.24524 57.4138C9.62094 57.539 9.96248 57.6073 10.008 57.5618C10.0877 57.4707 10.9074 55.5467 10.9074 55.4329C10.9074 55.3304 9.16555 54.8181 8.18646 54.6359C6.86582 54.3854 4.81656 54.4082 3.75777 54.6815Z" fill="white"/>
<path d="M13.4576 54.7611C13.4918 54.875 14.2887 57.7098 15.2337 61.0569C16.1786 64.404 16.9755 67.2388 17.0097 67.3413C17.0666 67.5235 17.2488 67.5462 18.6491 67.5462H20.2316L20.3568 67.1136C21.4839 63.0379 22.6224 59.2126 22.6793 59.3492C22.7135 59.4403 23.2486 61.3074 23.8633 63.5046L24.979 67.4893L26.5729 67.5235L28.1668 67.5576L29.977 61.2049C30.9674 57.7098 31.7985 54.7839 31.8327 54.7042C31.8668 54.6017 31.5481 54.5676 30.4437 54.5676H29.0206L28.8613 55.1027C28.7702 55.41 28.2237 57.4593 27.6431 59.6566C27.0511 61.8652 26.5501 63.6754 26.5046 63.6754C26.4705 63.6754 25.9354 61.9449 25.3206 59.8273C24.7058 57.7212 24.1024 55.6719 23.9772 55.2734L23.7609 54.5562L22.5996 54.5903L21.4384 54.6245L20.1064 59.1784C19.3777 61.6831 18.7743 63.7551 18.763 63.7893C18.7516 63.8234 18.2392 61.9791 17.6359 59.6907C17.0211 57.4024 16.4518 55.319 16.3835 55.0457L16.2469 54.5676H14.8238C13.5146 54.5676 13.4007 54.579 13.4576 54.7611Z" fill="white"/>
<path d="M35.043 61.0569V67.5463H36.523H38.003L37.9802 61.0797L37.9461 54.6245L36.5002 54.5904L35.043 54.5562V61.0569Z" fill="white"/>
<path d="M41.0771 55.9907V57.4138H43.1264H45.1757V62.48V67.5463H46.5988H48.0219V62.48V57.4138L50.0484 57.391L52.0635 57.3569V55.9907V54.6245L46.576 54.5904L41.0771 54.5676V55.9907Z" fill="white"/>
<path d="M69.6533 61.0569V67.5463H71.0195H72.3857V64.9847V62.4231H75.4026H78.4196V64.9847V67.5463H79.7858H81.152L81.1292 61.0797L81.095 54.6245L79.763 54.5904L78.4196 54.5562V57.1292V59.6908H75.4026H72.3857V57.1292V54.5676H71.0195H69.6533V61.0569Z" fill="white"/>
</svg>
