<svg width="347" height="94" viewBox="0 0 347 94" fill="none" xmlns="http://www.w3.org/2000/svg">
<rect x="2" y="2" width="343" height="90" rx="4" fill="#2D2D2D"/>
<path d="M19.008 22.2H23.46C23.9267 22.2 24.356 22.2793 24.748 22.438C25.14 22.5967 25.476 22.816 25.756 23.096C26.0453 23.3667 26.2693 23.6933 26.428 24.076C26.5867 24.4587 26.666 24.8787 26.666 25.336C26.666 25.7933 26.582 26.218 26.414 26.61C26.246 26.9927 26.0173 27.3287 25.728 27.618C25.4387 27.898 25.0887 28.1173 24.678 28.276C24.2767 28.4347 23.8427 28.514 23.376 28.514H21.066V32H19.008V22.2ZM23.194 26.792C23.614 26.792 23.9547 26.6613 24.216 26.4C24.4773 26.1387 24.608 25.8027 24.608 25.392C24.608 24.9907 24.4773 24.6593 24.216 24.398C23.9547 24.1367 23.614 24.006 23.194 24.006H21.066V26.792H23.194ZM32.5628 32V30.95C32.3294 31.314 32.0214 31.5987 31.6388 31.804C31.2561 32.0093 30.8174 32.112 30.3228 32.112C29.6787 32.112 29.1281 31.93 28.6708 31.566C28.2227 31.1927 27.9987 30.7027 27.9987 30.096C27.9987 29.4613 28.2181 28.976 28.6567 28.64C29.1048 28.304 29.6741 28.1033 30.3648 28.038L32.5628 27.842V27.618C32.5628 27.1607 32.4414 26.8247 32.1988 26.61C31.9654 26.3953 31.6714 26.288 31.3168 26.288C30.9621 26.288 30.6728 26.372 30.4488 26.54C30.2341 26.6987 30.0661 26.9273 29.9448 27.226H28.0968C28.2647 26.47 28.6427 25.8633 29.2308 25.406C29.8281 24.9393 30.5421 24.706 31.3728 24.706C31.8114 24.706 32.2221 24.7667 32.6048 24.888C32.9874 25.0093 33.3141 25.1913 33.5848 25.434C33.8648 25.6673 34.0841 25.966 34.2428 26.33C34.4014 26.6847 34.4808 27.0953 34.4808 27.562V32H32.5628ZM29.8748 30.026C29.8748 30.2407 29.9728 30.418 30.1688 30.558C30.3648 30.698 30.6214 30.768 30.9388 30.768C31.1348 30.768 31.3261 30.7353 31.5128 30.67C31.7088 30.5953 31.8814 30.4973 32.0308 30.376C32.1894 30.2547 32.3154 30.1147 32.4088 29.956C32.5114 29.788 32.5628 29.6153 32.5628 29.438V29.074L30.7148 29.27C30.4254 29.298 30.2108 29.382 30.0708 29.522C29.9401 29.6527 29.8748 29.8207 29.8748 30.026ZM43.2846 24.832L38.4966 35.15H36.4806L38.4826 31.02L35.5146 24.832H37.5866L39.4906 28.962L41.3526 24.832H43.2846ZM44.7559 32V24.832H46.6599V25.952C46.8092 25.5787 47.0659 25.2753 47.4299 25.042C47.8032 24.8087 48.2232 24.692 48.6899 24.692C49.1939 24.692 49.6279 24.818 49.9919 25.07C50.3559 25.322 50.6312 25.658 50.8179 26.078C50.9766 25.6767 51.2519 25.3453 51.6439 25.084C52.0359 24.8227 52.4839 24.692 52.9879 24.692C53.7999 24.692 54.4252 24.9627 54.8639 25.504C55.3119 26.0453 55.5359 26.7313 55.5359 27.562V32H53.6319V27.8C53.6319 27.3427 53.5106 26.9787 53.2679 26.708C53.0346 26.428 52.7219 26.288 52.3299 26.288C51.9566 26.288 51.6579 26.428 51.4339 26.708C51.2099 26.9787 51.0979 27.3147 51.0979 27.716V32H49.1799V27.8C49.1799 27.3427 49.0632 26.9787 48.8299 26.708C48.6059 26.428 48.2979 26.288 47.9059 26.288C47.5232 26.288 47.2199 26.428 46.9959 26.708C46.7719 26.9787 46.6599 27.3147 46.6599 27.716V32H44.7559ZM61.3044 32.14C60.791 32.14 60.3057 32.0467 59.8484 31.86C59.391 31.6733 58.9897 31.4213 58.6444 31.104C58.3084 30.7773 58.0377 30.39 57.8324 29.942C57.6364 29.4847 57.5384 28.99 57.5384 28.458C57.5384 27.9167 57.6317 27.4173 57.8184 26.96C58.005 26.4933 58.257 26.092 58.5744 25.756C58.901 25.42 59.279 25.1587 59.7084 24.972C60.147 24.7853 60.6044 24.692 61.0804 24.692C61.519 24.692 61.953 24.776 62.3824 24.944C62.821 25.1027 63.2084 25.3453 63.5444 25.672C63.8897 25.9987 64.1697 26.4187 64.3844 26.932C64.599 27.4453 64.7064 28.0473 64.7064 28.738C64.7064 28.7753 64.7064 28.8173 64.7064 28.864C64.7064 28.9107 64.7017 28.9527 64.6924 28.99H59.4844C59.587 29.4567 59.8017 29.83 60.1284 30.11C60.4644 30.39 60.8517 30.53 61.2904 30.53C61.5237 30.53 61.7524 30.4833 61.9764 30.39C62.2004 30.2873 62.373 30.124 62.4944 29.9H64.5944C64.3424 30.572 63.9224 31.1133 63.3344 31.524C62.7464 31.9347 62.0697 32.14 61.3044 32.14ZM61.0804 26.26C60.6977 26.26 60.357 26.3953 60.0584 26.666C59.769 26.9273 59.5777 27.2913 59.4844 27.758H62.6484C62.5924 27.3007 62.415 26.9367 62.1164 26.666C61.827 26.3953 61.4817 26.26 61.0804 26.26ZM68.5895 27.716V32H66.6855V24.832H68.5895V25.924C68.7575 25.56 69.0282 25.266 69.4015 25.042C69.7748 24.8087 70.1995 24.692 70.6755 24.692C71.4689 24.692 72.0849 24.9627 72.5235 25.504C72.9622 26.0453 73.1815 26.7313 73.1815 27.562V32H71.2775V27.8C71.2775 27.3427 71.1515 26.9787 70.8995 26.708C70.6475 26.428 70.3208 26.288 69.9195 26.288C69.5088 26.288 69.1822 26.428 68.9395 26.708C68.7062 26.9787 68.5895 27.3147 68.5895 27.716ZM76.3716 30.138V26.4H74.6216V24.832H76.3716V22.956L78.2476 22.382V24.832H80.4596V26.4H78.2476V29.704C78.2476 29.9373 78.3129 30.1193 78.4436 30.25C78.5836 30.3713 78.7842 30.432 79.0456 30.432H80.4596V32H78.4576C77.8042 32 77.2909 31.8273 76.9176 31.482C76.5536 31.1367 76.3716 30.6887 76.3716 30.138ZM23.964 48.39L20.926 44.666V50H19.008V40.102H19.526L24.034 45.618L28.514 40.102H29.004V50H27.03V44.68L24.006 48.39H23.964ZM34.8973 50.14C34.3839 50.14 33.8986 50.0467 33.4413 49.86C32.9839 49.6733 32.5826 49.4213 32.2373 49.104C31.9013 48.7773 31.6306 48.39 31.4253 47.942C31.2293 47.4847 31.1313 46.99 31.1313 46.458C31.1313 45.9167 31.2246 45.4173 31.4112 44.96C31.5979 44.4933 31.8499 44.092 32.1673 43.756C32.4939 43.42 32.8719 43.1587 33.3013 42.972C33.7399 42.7853 34.1973 42.692 34.6733 42.692C35.1119 42.692 35.5459 42.776 35.9753 42.944C36.4139 43.1027 36.8013 43.3453 37.1373 43.672C37.4826 43.9987 37.7626 44.4187 37.9773 44.932C38.1919 45.4453 38.2993 46.0473 38.2993 46.738C38.2993 46.7753 38.2993 46.8173 38.2993 46.864C38.2993 46.9107 38.2946 46.9527 38.2852 46.99H33.0773C33.1799 47.4567 33.3946 47.83 33.7213 48.11C34.0573 48.39 34.4446 48.53 34.8833 48.53C35.1166 48.53 35.3453 48.4833 35.5693 48.39C35.7933 48.2873 35.9659 48.124 36.0873 47.9H38.1873C37.9353 48.572 37.5153 49.1133 36.9273 49.524C36.3393 49.9347 35.6626 50.14 34.8973 50.14ZM34.6733 44.26C34.2906 44.26 33.9499 44.3953 33.6513 44.666C33.3619 44.9273 33.1706 45.2913 33.0773 45.758H36.2413C36.1853 45.3007 36.0079 44.9367 35.7093 44.666C35.4199 44.3953 35.0746 44.26 34.6733 44.26ZM41.153 48.138V44.4H39.403V42.832H41.153V40.956L43.029 40.382V42.832H45.241V44.4H43.029V47.704C43.029 47.9373 43.0943 48.1193 43.225 48.25C43.365 48.3713 43.5656 48.432 43.827 48.432H45.241V50H43.239C42.5856 50 42.0723 49.8273 41.699 49.482C41.335 49.1367 41.153 48.6887 41.153 48.138ZM48.9431 45.716V50H47.0391V39.794H48.9431V43.924C49.1204 43.56 49.3911 43.266 49.7551 43.042C50.1284 42.8087 50.5531 42.692 51.0291 42.692C51.8224 42.692 52.4384 42.9627 52.8771 43.504C53.3158 44.0453 53.5351 44.7313 53.5351 45.562V50H51.6311V45.8C51.6311 45.3427 51.5051 44.9787 51.2531 44.708C51.0011 44.428 50.6744 44.288 50.2731 44.288C49.8624 44.288 49.5358 44.428 49.2931 44.708C49.0598 44.9787 48.9431 45.3147 48.9431 45.716ZM59.1689 50.14C58.6743 50.14 58.2029 50.0467 57.7549 49.86C57.3069 49.6733 56.9196 49.4167 56.5929 49.09C56.2663 48.7633 56.0049 48.3713 55.8089 47.914C55.6129 47.4567 55.5149 46.9573 55.5149 46.416C55.5149 45.884 55.6129 45.3893 55.8089 44.932C56.0049 44.4747 56.2663 44.0827 56.5929 43.756C56.9196 43.4293 57.3069 43.1727 57.7549 42.986C58.2029 42.7993 58.6743 42.706 59.1689 42.706C59.6729 42.706 60.1443 42.7993 60.5829 42.986C61.0309 43.1727 61.4183 43.4293 61.7449 43.756C62.0716 44.0827 62.3283 44.4747 62.5149 44.932C62.7109 45.3893 62.8089 45.884 62.8089 46.416C62.8089 46.9573 62.7109 47.4567 62.5149 47.914C62.3283 48.3713 62.0716 48.7633 61.7449 49.09C61.4183 49.4167 61.0309 49.6733 60.5829 49.86C60.1443 50.0467 59.6729 50.14 59.1689 50.14ZM59.1689 48.46C59.6543 48.46 60.0649 48.2733 60.4009 47.9C60.7369 47.5173 60.9049 47.0273 60.9049 46.43C60.9049 45.8327 60.7369 45.3427 60.4009 44.96C60.0649 44.5773 59.6543 44.386 59.1689 44.386C58.6836 44.386 58.2683 44.5773 57.9229 44.96C57.5869 45.3427 57.4189 45.8327 57.4189 46.43C57.4189 47.0273 57.5869 47.5173 57.9229 47.9C58.2683 48.2733 58.6836 48.46 59.1689 48.46ZM67.7111 50.098C67.2725 50.098 66.8571 50.0047 66.4651 49.818C66.0731 49.6313 65.7278 49.3747 65.4291 49.048C65.1398 48.7213 64.9065 48.334 64.7291 47.886C64.5518 47.4287 64.4631 46.934 64.4631 46.402C64.4631 45.87 64.5518 45.38 64.7291 44.932C64.9065 44.484 65.1445 44.0967 65.4431 43.77C65.7511 43.4433 66.1058 43.1913 66.5071 43.014C66.9178 42.8273 67.3518 42.734 67.8091 42.734C68.2105 42.734 68.5885 42.8227 68.9431 43C69.3071 43.1773 69.6198 43.4247 69.8811 43.742V39.794H71.7851V50H69.8811V49.118C69.6011 49.426 69.2745 49.6687 68.9011 49.846C68.5371 50.014 68.1405 50.098 67.7111 50.098ZM68.1311 48.446C68.6258 48.446 69.0411 48.2593 69.3771 47.886C69.7131 47.5033 69.8811 47.0087 69.8811 46.402C69.8811 45.814 69.7131 45.3287 69.3771 44.946C69.0411 44.554 68.6258 44.358 68.1311 44.358C67.6365 44.358 67.2165 44.554 66.8711 44.946C66.5351 45.3287 66.3671 45.814 66.3671 46.402C66.3671 47.0087 66.5351 47.5033 66.8711 47.886C67.2165 48.2593 67.6365 48.446 68.1311 48.446Z" fill="white"/>
<path d="M24.9 73H18.864V64.6H24.9V66.148H20.664V68.02H24.156V69.556H20.664V71.476H24.9V73ZM31.1874 73H28.1874V64.6H31.1874C31.7714 64.6 32.3234 64.708 32.8434 64.924C33.3714 65.132 33.8274 65.424 34.2114 65.8C34.5954 66.168 34.8994 66.612 35.1234 67.132C35.3554 67.652 35.4714 68.212 35.4714 68.812C35.4714 69.412 35.3554 69.968 35.1234 70.48C34.8994 70.992 34.5954 71.436 34.2114 71.812C33.8274 72.18 33.3714 72.472 32.8434 72.688C32.3234 72.896 31.7714 73 31.1874 73ZM31.1394 66.16H29.9874V71.464H31.1394C31.4994 71.464 31.8354 71.4 32.1474 71.272C32.4674 71.136 32.7394 70.952 32.9634 70.72C33.1954 70.488 33.3754 70.208 33.5034 69.88C33.6394 69.552 33.7074 69.196 33.7074 68.812C33.7074 68.42 33.6394 68.06 33.5034 67.732C33.3754 67.404 33.1954 67.124 32.9634 66.892C32.7394 66.66 32.4674 66.48 32.1474 66.352C31.8354 66.224 31.4994 66.16 31.1394 66.16ZM38.7179 64.6H40.5179V73H38.7179V64.6ZM47.861 73H46.049V66.124H43.433V64.6H50.477V66.124H47.861V73Z" fill="#FF4747"/>
<path d="M134.026 35H127.642V25.2H134.026V26.292H128.874V29.456H132.822V30.548H128.874V33.908H134.026V35ZM137.45 30.632V35H136.274V27.93H137.45V29.316C137.628 28.784 137.908 28.4013 138.29 28.168C138.682 27.9253 139.098 27.804 139.536 27.804C139.928 27.804 140.278 27.874 140.586 28.014C140.894 28.154 141.156 28.35 141.37 28.602C141.585 28.8447 141.748 29.134 141.86 29.47C141.972 29.806 142.028 30.1653 142.028 30.548V35H140.852V30.66C140.852 30.1 140.698 29.652 140.39 29.316C140.092 28.98 139.704 28.812 139.228 28.812C138.706 28.812 138.276 28.9893 137.94 29.344C137.614 29.6893 137.45 30.1187 137.45 30.632ZM147.397 35.112C146.949 35.112 146.529 35.0187 146.137 34.832C145.745 34.6453 145.405 34.3933 145.115 34.076C144.826 33.7493 144.597 33.362 144.429 32.914C144.261 32.4567 144.177 31.9667 144.177 31.444C144.177 30.9213 144.261 30.4407 144.429 30.002C144.597 29.554 144.826 29.1713 145.115 28.854C145.405 28.5273 145.745 28.2707 146.137 28.084C146.539 27.8973 146.963 27.804 147.411 27.804C147.897 27.804 148.349 27.9253 148.769 28.168C149.189 28.4013 149.539 28.7233 149.819 29.134V24.808H150.995V35H149.819V33.768C149.539 34.188 149.185 34.5193 148.755 34.762C148.335 34.9953 147.883 35.112 147.397 35.112ZM147.607 34.048C148.223 34.048 148.751 33.8053 149.189 33.32C149.628 32.8253 149.847 32.2 149.847 31.444C149.847 30.6973 149.628 30.0813 149.189 29.596C148.751 29.1107 148.223 28.868 147.607 28.868C146.982 28.868 146.45 29.1107 146.011 29.596C145.573 30.0813 145.353 30.6973 145.353 31.444C145.353 32.2 145.573 32.8253 146.011 33.32C146.45 33.8053 146.982 34.048 147.607 34.048ZM153.993 26.74C153.76 26.74 153.559 26.656 153.391 26.488C153.223 26.3107 153.139 26.1053 153.139 25.872C153.139 25.6387 153.223 25.4333 153.391 25.256C153.559 25.0787 153.76 24.99 153.993 24.99C154.227 24.99 154.427 25.0787 154.595 25.256C154.763 25.4333 154.847 25.6387 154.847 25.872C154.847 26.1053 154.763 26.3107 154.595 26.488C154.427 26.656 154.227 26.74 153.993 26.74ZM153.405 35V27.93H154.581V35H153.405ZM158.17 30.632V35H156.994V27.93H158.17V29.316C158.347 28.784 158.627 28.4013 159.01 28.168C159.402 27.9253 159.817 27.804 160.256 27.804C160.648 27.804 160.998 27.874 161.306 28.014C161.614 28.154 161.875 28.35 162.09 28.602C162.305 28.8447 162.468 29.134 162.58 29.47C162.692 29.806 162.748 30.1653 162.748 30.548V35H161.572V30.66C161.572 30.1 161.418 29.652 161.11 29.316C160.811 28.98 160.424 28.812 159.948 28.812C159.425 28.812 158.996 28.9893 158.66 29.344C158.333 29.6893 158.17 30.1187 158.17 30.632ZM168.117 35.07C167.669 35.07 167.249 34.9813 166.857 34.804C166.465 34.6173 166.124 34.3653 165.835 34.048C165.546 33.7213 165.317 33.334 165.149 32.886C164.981 32.438 164.897 31.9527 164.897 31.43C164.897 30.9073 164.981 30.4267 165.149 29.988C165.317 29.54 165.546 29.1573 165.835 28.84C166.124 28.5133 166.465 28.2613 166.857 28.084C167.258 27.8973 167.683 27.804 168.131 27.804C168.616 27.804 169.069 27.9253 169.489 28.168C169.909 28.4013 170.259 28.7233 170.539 29.134V27.93H171.715V34.762C171.715 35.322 171.631 35.8213 171.463 36.26C171.304 36.708 171.076 37.0767 170.777 37.366C170.488 37.6647 170.142 37.8887 169.741 38.038C169.34 38.1967 168.901 38.276 168.425 38.276C168.033 38.276 167.655 38.22 167.291 38.108C166.936 37.996 166.614 37.842 166.325 37.646C166.036 37.45 165.788 37.2073 165.583 36.918C165.378 36.638 165.233 36.33 165.149 35.994H166.409C166.53 36.3673 166.778 36.666 167.151 36.89C167.534 37.114 167.954 37.226 168.411 37.226C169.027 37.226 169.536 37.0207 169.937 36.61C170.338 36.2087 170.539 35.5973 170.539 34.776V33.74C170.259 34.1507 169.904 34.4773 169.475 34.72C169.055 34.9533 168.602 35.07 168.117 35.07ZM168.327 34.006C168.943 34.006 169.47 33.768 169.909 33.292C170.348 32.8067 170.567 32.186 170.567 31.43C170.567 30.6833 170.348 30.072 169.909 29.596C169.47 29.1107 168.943 28.868 168.327 28.868C167.702 28.868 167.17 29.1107 166.731 29.596C166.292 30.072 166.073 30.6833 166.073 31.43C166.073 32.186 166.292 32.8067 166.731 33.292C167.17 33.768 167.702 34.006 168.327 34.006ZM178.411 26.74C178.178 26.74 177.977 26.656 177.809 26.488C177.641 26.3107 177.557 26.1053 177.557 25.872C177.557 25.6387 177.641 25.4333 177.809 25.256C177.977 25.0787 178.178 24.99 178.411 24.99C178.644 24.99 178.845 25.0787 179.013 25.256C179.181 25.4333 179.265 25.6387 179.265 25.872C179.265 26.1053 179.181 26.3107 179.013 26.488C178.845 26.656 178.644 26.74 178.411 26.74ZM177.823 35V27.93H178.999V35H177.823ZM182.588 30.632V35H181.412V27.93H182.588V29.316C182.765 28.784 183.045 28.4013 183.428 28.168C183.82 27.9253 184.235 27.804 184.674 27.804C185.066 27.804 185.416 27.874 185.724 28.014C186.032 28.154 186.293 28.35 186.508 28.602C186.722 28.8447 186.886 29.134 186.998 29.47C187.11 29.806 187.166 30.1653 187.166 30.548V35H185.99V30.66C185.99 30.1 185.836 29.652 185.528 29.316C185.229 28.98 184.842 28.812 184.366 28.812C183.843 28.812 183.414 28.9893 183.078 29.344C182.751 29.6893 182.588 30.1187 182.588 30.632ZM197.059 35.14C196.499 35.14 195.981 35.0233 195.505 34.79C195.029 34.5473 194.623 34.2067 194.287 33.768C193.951 33.3293 193.685 32.7973 193.489 32.172C193.302 31.5467 193.209 30.856 193.209 30.1C193.209 29.344 193.302 28.6533 193.489 28.028C193.685 27.4027 193.951 26.8707 194.287 26.432C194.623 25.9933 195.029 25.6573 195.505 25.424C195.981 25.1813 196.499 25.06 197.059 25.06C197.619 25.06 198.137 25.1813 198.613 25.424C199.089 25.6573 199.495 25.9933 199.831 26.432C200.176 26.8707 200.442 27.4027 200.629 28.028C200.825 28.6533 200.923 29.344 200.923 30.1C200.923 30.856 200.825 31.5467 200.629 32.172C200.442 32.7973 200.176 33.3293 199.831 33.768C199.495 34.2067 199.089 34.5473 198.613 34.79C198.137 35.0233 197.619 35.14 197.059 35.14ZM197.059 34.076C197.871 34.076 198.515 33.7167 198.991 32.998C199.476 32.2793 199.719 31.3133 199.719 30.1C199.719 28.8867 199.476 27.9207 198.991 27.202C198.515 26.4833 197.871 26.124 197.059 26.124C196.247 26.124 195.603 26.4833 195.127 27.202C194.651 27.9207 194.413 28.8867 194.413 30.1C194.413 31.3133 194.651 32.2793 195.127 32.998C195.603 33.7167 196.247 34.076 197.059 34.076ZM207.893 28.798H209.083V31.584H210.315V32.634H209.083V35H207.893V32.634H202.713V32.214L206.815 25.144H208.047L204.323 31.584H207.893V28.798ZM217.388 28.798H218.578V31.584H219.81V32.634H218.578V35H217.388V32.634H212.208V32.214L216.31 25.144H217.542L213.818 31.584H217.388V28.798ZM226.883 28.798H228.073V31.584H229.305V32.634H228.073V35H226.883V32.634H221.703V32.214L225.805 25.144H227.037L223.313 31.584H226.883V28.798ZM142.223 58H135.839V48.2H142.223V49.292H137.071V52.456H141.019V53.548H137.071V56.908H142.223V58ZM143.701 58L146.333 54.318L143.925 50.93H145.339L147.033 53.38L148.713 50.93H150.029L147.663 54.29L150.309 58H148.895L146.963 55.2L145.017 58H143.701ZM153.132 61.164H151.956V50.93H153.132V52.134C153.412 51.7233 153.762 51.4013 154.182 51.168C154.611 50.9253 155.069 50.804 155.554 50.804C156.002 50.804 156.422 50.8973 156.814 51.084C157.206 51.2707 157.547 51.5273 157.836 51.854C158.125 52.1713 158.354 52.554 158.522 53.002C158.69 53.4407 158.774 53.9213 158.774 54.444C158.774 54.9667 158.69 55.4567 158.522 55.914C158.354 56.362 158.125 56.7493 157.836 57.076C157.547 57.3933 157.201 57.6453 156.8 57.832C156.408 58.0187 155.988 58.112 155.54 58.112C155.055 58.112 154.602 57.9953 154.182 57.762C153.762 57.5193 153.412 57.1927 153.132 56.782V61.164ZM155.344 51.868C154.728 51.868 154.201 52.1107 153.762 52.596C153.323 53.0813 153.104 53.6973 153.104 54.444C153.104 55.2 153.323 55.8253 153.762 56.32C154.201 56.8053 154.728 57.048 155.344 57.048C155.969 57.048 156.501 56.8053 156.94 56.32C157.379 55.8253 157.598 55.2 157.598 54.444C157.598 53.6973 157.379 53.0813 156.94 52.596C156.501 52.1107 155.969 51.868 155.344 51.868ZM161.506 49.74C161.273 49.74 161.072 49.656 160.904 49.488C160.736 49.3107 160.652 49.1053 160.652 48.872C160.652 48.6387 160.736 48.4333 160.904 48.256C161.072 48.0787 161.273 47.99 161.506 47.99C161.739 47.99 161.94 48.0787 162.108 48.256C162.276 48.4333 162.36 48.6387 162.36 48.872C162.36 49.1053 162.276 49.3107 162.108 49.488C161.94 49.656 161.739 49.74 161.506 49.74ZM160.918 58V50.93H162.094V58H160.918ZM164.507 58V50.93H165.683V52.358C165.907 51.7513 166.247 51.3173 166.705 51.056C167.162 50.7853 167.694 50.6827 168.301 50.748V51.868C167.946 51.8027 167.61 51.812 167.293 51.896C166.975 51.98 166.695 52.12 166.453 52.316C166.219 52.5027 166.033 52.7407 165.893 53.03C165.753 53.3193 165.683 53.632 165.683 53.968V58H164.507ZM172.873 58.126C172.397 58.126 171.949 58.0327 171.529 57.846C171.109 57.6593 170.745 57.4073 170.437 57.09C170.129 56.7633 169.886 56.376 169.709 55.928C169.531 55.4707 169.443 54.976 169.443 54.444C169.443 53.9213 169.527 53.436 169.695 52.988C169.872 52.54 170.11 52.1573 170.409 51.84C170.717 51.5133 171.076 51.2567 171.487 51.07C171.897 50.8833 172.336 50.79 172.803 50.79C173.251 50.79 173.675 50.8833 174.077 51.07C174.478 51.2473 174.828 51.504 175.127 51.84C175.425 52.176 175.663 52.596 175.841 53.1C176.018 53.5947 176.107 54.1547 176.107 54.78V54.864H170.647C170.731 55.5173 170.983 56.0493 171.403 56.46C171.823 56.8707 172.313 57.076 172.873 57.076C173.227 57.076 173.554 56.992 173.853 56.824C174.161 56.6467 174.408 56.4133 174.595 56.124H175.911C175.659 56.7307 175.257 57.216 174.707 57.58C174.165 57.944 173.554 58.126 172.873 58.126ZM172.789 51.854C172.266 51.854 171.804 52.0453 171.403 52.428C171.011 52.8107 170.763 53.3007 170.661 53.898H174.875C174.781 53.3007 174.539 52.8107 174.147 52.428C173.755 52.0453 173.302 51.854 172.789 51.854ZM178.008 52.89C178.018 52.2647 178.256 51.7607 178.722 51.378C179.198 50.9953 179.786 50.804 180.486 50.804C181.298 50.804 181.98 51.0373 182.53 51.504C183.081 51.9613 183.375 52.5493 183.412 53.268H182.264C182.227 52.8293 182.045 52.4793 181.718 52.218C181.401 51.9473 180.995 51.812 180.5 51.812C180.09 51.812 179.763 51.9053 179.52 52.092C179.287 52.2787 179.17 52.5167 179.17 52.806C179.17 53.142 179.334 53.3847 179.66 53.534C179.987 53.6833 180.365 53.814 180.794 53.926C181.102 54.0007 181.415 54.0847 181.732 54.178C182.059 54.262 182.348 54.3787 182.6 54.528C182.862 54.668 183.076 54.8593 183.244 55.102C183.412 55.3353 183.496 55.6387 183.496 56.012C183.496 56.6653 183.244 57.1833 182.74 57.566C182.236 57.9393 181.62 58.126 180.892 58.126C180.052 58.126 179.357 57.888 178.806 57.412C178.256 56.936 177.962 56.3247 177.924 55.578H179.072C179.1 56.0353 179.287 56.4087 179.632 56.698C179.987 56.9873 180.412 57.132 180.906 57.132C181.308 57.132 181.644 57.0433 181.914 56.866C182.194 56.6887 182.334 56.4413 182.334 56.124C182.334 55.76 182.143 55.508 181.76 55.368C181.387 55.2187 180.962 55.0833 180.486 54.962C180.197 54.8967 179.903 54.8173 179.604 54.724C179.306 54.6307 179.04 54.5093 178.806 54.36C178.573 54.2107 178.382 54.0193 178.232 53.786C178.083 53.5433 178.008 53.2447 178.008 52.89ZM193.033 58.14C192.473 58.14 191.955 58.0233 191.479 57.79C191.003 57.5473 190.597 57.2067 190.261 56.768C189.925 56.3293 189.659 55.7973 189.463 55.172C189.276 54.5467 189.183 53.856 189.183 53.1C189.183 52.344 189.276 51.6533 189.463 51.028C189.659 50.4027 189.925 49.8707 190.261 49.432C190.597 48.9933 191.003 48.6573 191.479 48.424C191.955 48.1813 192.473 48.06 193.033 48.06C193.593 48.06 194.111 48.1813 194.587 48.424C195.063 48.6573 195.469 48.9933 195.805 49.432C196.15 49.8707 196.416 50.4027 196.603 51.028C196.799 51.6533 196.897 52.344 196.897 53.1C196.897 53.856 196.799 54.5467 196.603 55.172C196.416 55.7973 196.15 56.3293 195.805 56.768C195.469 57.2067 195.063 57.5473 194.587 57.79C194.111 58.0233 193.593 58.14 193.033 58.14ZM193.033 57.076C193.845 57.076 194.489 56.7167 194.965 55.998C195.45 55.2793 195.693 54.3133 195.693 53.1C195.693 51.8867 195.45 50.9207 194.965 50.202C194.489 49.4833 193.845 49.124 193.033 49.124C192.221 49.124 191.577 49.4833 191.101 50.202C190.625 50.9207 190.387 51.8867 190.387 53.1C190.387 54.3133 190.625 55.2793 191.101 55.998C191.577 56.7167 192.221 57.076 193.033 57.076ZM203.866 51.798H205.056V54.584H206.288V55.634H205.056V58H203.866V55.634H198.686V55.214L202.788 48.144H204.02L200.296 54.584H203.866V51.798ZM206.838 61.052L212.648 48.2H213.866L208.07 61.052H206.838ZM215.274 58V57.58L218.76 53.506C219.236 52.9553 219.558 52.4887 219.726 52.106C219.903 51.7233 219.992 51.3407 219.992 50.958C219.992 50.426 219.81 49.9873 219.446 49.642C219.082 49.2967 218.648 49.124 218.144 49.124C217.612 49.124 217.159 49.3387 216.786 49.768C216.422 50.1973 216.235 50.7433 216.226 51.406H215.036C215.036 50.93 215.115 50.4867 215.274 50.076C215.442 49.656 215.67 49.3013 215.96 49.012C216.249 48.7133 216.585 48.48 216.968 48.312C217.36 48.144 217.78 48.06 218.228 48.06C218.648 48.06 219.04 48.13 219.404 48.27C219.768 48.41 220.08 48.606 220.342 48.858C220.603 49.11 220.808 49.4087 220.958 49.754C221.116 50.0993 221.196 50.4773 221.196 50.888C221.196 51.4853 221.079 52.0127 220.846 52.47C220.612 52.9273 220.272 53.4173 219.824 53.94L217.262 56.95H221.378V58H215.274ZM223.306 58V57.58L226.792 53.506C227.268 52.9553 227.59 52.4887 227.758 52.106C227.935 51.7233 228.024 51.3407 228.024 50.958C228.024 50.426 227.842 49.9873 227.478 49.642C227.114 49.2967 226.68 49.124 226.176 49.124C225.644 49.124 225.191 49.3387 224.818 49.768C224.454 50.1973 224.267 50.7433 224.258 51.406H223.068C223.068 50.93 223.147 50.4867 223.306 50.076C223.474 49.656 223.702 49.3013 223.992 49.012C224.281 48.7133 224.617 48.48 225 48.312C225.392 48.144 225.812 48.06 226.26 48.06C226.68 48.06 227.072 48.13 227.436 48.27C227.8 48.41 228.112 48.606 228.374 48.858C228.635 49.11 228.84 49.4087 228.99 49.754C229.148 50.0993 229.228 50.4773 229.228 50.888C229.228 51.4853 229.111 52.0127 228.878 52.47C228.644 52.9273 228.304 53.4173 227.856 53.94L225.294 56.95H229.41V58H223.306Z" fill="white"/>
<rect x="252" y="18" width="77" height="46" rx="4" fill="#0072CE"/>
<path fill-rule="evenodd" clip-rule="evenodd" d="M316.994 44.5769H314.274C314.002 44.5769 313.821 44.587 313.669 44.6889C313.512 44.7893 313.451 44.9383 313.451 45.135C313.451 45.369 313.584 45.5281 313.778 45.5969C313.935 45.6513 314.104 45.6672 314.353 45.6672L315.162 45.6887C315.978 45.7087 316.523 45.848 316.856 46.1877C316.916 46.235 316.952 46.2881 316.994 46.3412V44.5769ZM316.994 48.6648C316.631 49.1912 315.925 49.458 314.968 49.458H312.086V48.1284H314.957C315.241 48.1284 315.441 48.0912 315.561 47.9749C315.665 47.8789 315.737 47.7396 315.737 47.5704C315.737 47.3898 315.665 47.2464 315.555 47.1604C315.447 47.0658 315.289 47.0228 315.029 47.0228C313.627 46.9755 311.879 47.0658 311.879 45.1036C311.879 44.2043 312.454 43.2576 314.021 43.2576H316.994V42.0239H314.231C313.398 42.0239 312.792 42.2221 312.363 42.5303V42.0239H308.277C307.624 42.0239 306.857 42.1847 306.494 42.5303V42.0239H299.197V42.5303C298.617 42.1144 297.637 42.0239 297.185 42.0239H292.372V42.5303C291.912 42.0886 290.891 42.0239 290.268 42.0239H284.882L283.649 43.3481L282.494 42.0239H274.448V50.6758H282.343L283.613 49.3306L284.81 50.6758L289.676 50.6801V48.6448H290.154C290.8 48.6547 291.562 48.6289 292.233 48.3406V50.6756H296.247V48.4206H296.441C296.688 48.4206 296.712 48.4307 296.712 48.6758V50.6754H308.906C309.68 50.6754 310.489 50.4787 310.937 50.1217V50.6754H314.805C315.61 50.6754 316.396 50.5634 316.994 50.2766V48.6648V48.6648ZM311.04 46.1877C311.33 46.4863 311.486 46.8633 311.486 47.5014C311.486 48.8353 310.647 49.458 309.141 49.458H306.234V48.1284H309.13C309.413 48.1284 309.614 48.0912 309.739 47.9749C309.842 47.8789 309.916 47.7396 309.916 47.5704C309.916 47.3898 309.836 47.2464 309.734 47.1604C309.619 47.0658 309.462 47.0228 309.202 47.0228C307.806 46.9755 306.058 47.0658 306.058 45.1036C306.058 44.2043 306.627 43.2576 308.192 43.2576H311.184V44.5773H308.446C308.175 44.5773 307.998 44.5874 307.848 44.6893C307.685 44.7897 307.624 44.9387 307.624 45.1354C307.624 45.3693 307.763 45.5284 307.951 45.5973C308.108 45.6517 308.277 45.6676 308.532 45.6676L309.335 45.6891C310.145 45.7087 310.702 45.8478 311.04 46.1877V46.1877ZM297.571 45.8048C297.371 45.9224 297.124 45.9325 296.834 45.9325H295.02V44.5399H296.858C297.124 44.5399 297.39 44.5455 297.571 44.6519C297.764 44.7523 297.88 44.9443 297.88 45.2097C297.88 45.475 297.764 45.6887 297.571 45.8048V45.8048ZM298.472 46.5765C298.805 46.6982 299.076 46.9164 299.203 47.097C299.414 47.3997 299.445 47.6822 299.451 48.2288V49.458H297.952V48.6822C297.952 48.3092 297.988 47.7568 297.711 47.4685C297.493 47.2464 297.16 47.1933 296.616 47.1933H295.021V49.458H293.521V43.2574H296.967C297.723 43.2574 298.273 43.2905 298.763 43.55C299.234 43.8326 299.53 44.2196 299.53 44.9269C299.53 45.9166 298.865 46.4216 298.472 46.5765V46.5765ZM300.358 43.2574H305.34V44.5397H301.844V45.667H305.254V46.9321H301.844V48.1658L305.34 48.1714V49.458H300.358V43.2574V43.2574ZM290.287 46.1189H288.358V44.5399H290.304C290.843 44.5399 291.217 44.7579 291.217 45.3001C291.217 45.8364 290.861 46.1189 290.287 46.1189V46.1189ZM286.871 48.894L284.58 46.3684L286.871 43.9229V48.894V48.894ZM280.953 48.1658H277.283V46.9321H280.56V45.667H277.283V44.5397H281.025L282.658 46.3467L280.953 48.1658V48.1658ZM292.82 45.3002C292.82 47.0226 291.525 47.3782 290.221 47.3782H288.358V49.458H285.457L283.619 47.4053L281.709 49.458H275.796V43.2574H281.8L283.636 45.2899L285.535 43.2574H290.304C291.489 43.2574 292.82 43.5829 292.82 45.3002V45.3002Z" fill="white"/>
<path fill-rule="evenodd" clip-rule="evenodd" d="M268.674 36.1119L267.652 33.6406L266.637 36.1119H268.674ZM291.181 35.1278C290.976 35.2514 290.733 35.2555 290.442 35.2555H288.629V33.8786H290.467C290.727 33.8786 290.999 33.8902 291.175 33.9904C291.369 34.0807 291.488 34.2729 291.488 34.5385C291.488 34.8094 291.374 35.0274 291.181 35.1278V35.1278ZM304.117 36.1119L303.084 33.6406L302.057 36.1119H304.117V36.1119ZM280.003 38.7868H278.473L278.467 33.9317L276.303 38.7868H274.992L272.822 33.9274V38.7868H269.786L269.213 37.4041H266.105L265.526 38.7868H263.904L266.577 32.5877H268.795L271.334 38.4569V32.5877H273.77L275.723 36.793L277.518 32.5877H280.003V38.7868H280.003ZM286.102 38.7868H281.116V32.5877H286.102V33.8786H282.608V34.996H286.018V36.2667H282.608V37.5047H286.102V38.7868V38.7868ZM293.133 34.2572C293.133 35.2456 292.468 35.7562 292.081 35.9096C292.408 36.033 292.687 36.251 292.819 36.4316C293.03 36.7399 293.066 37.0153 293.066 37.569V38.7868H291.561L291.555 38.005C291.555 37.632 291.591 37.0956 291.32 36.7973C291.101 36.5793 290.769 36.532 290.232 36.532H288.629V38.7868H287.137V32.5877H290.57C291.333 32.5877 291.895 32.6077 292.377 32.8846C292.85 33.1615 293.133 33.5658 293.133 34.2572V34.2572ZM295.521 38.7868H293.998V32.5877H295.521V38.7868V38.7868ZM313.191 38.7868H311.076L308.246 34.134V38.7868H305.206L304.626 37.4041H301.525L300.961 38.7868H299.215C298.489 38.7868 297.57 38.6275 297.05 38.1011C296.526 37.5748 296.253 36.8618 296.253 35.7345C296.253 34.8152 296.416 33.9747 297.057 33.3106C297.54 32.8158 298.296 32.5877 299.324 32.5877H300.769V33.916H299.355C298.81 33.916 298.502 33.9964 298.206 34.2832C297.951 34.5442 297.777 35.0377 297.777 35.6874C297.777 36.3516 297.91 36.8304 298.187 37.1432C298.417 37.3886 298.835 37.463 299.228 37.463H299.898L302.002 32.5879H304.238L306.765 38.4513V32.5879H309.038L311.662 36.9052V32.5879H313.191V38.7868V38.7868ZM266.437 40.0044L267.013 38.6275H268.3L268.873 40.0044H273.891V38.9517L274.339 40.0089H276.944L277.392 38.936V40.0044H289.863L289.857 37.7442H290.098C290.267 37.75 290.317 37.7655 290.317 38.0424V40.0044H296.767V39.4782C297.287 39.7549 298.096 40.0044 299.161 40.0044H301.874L302.455 38.6275H303.743L304.31 40.0044H309.539V38.6965L310.331 40.0044H314.521V31.3585H310.375V32.3796L309.794 31.3585H305.539V32.3796L305.005 31.3585H299.258C298.296 31.3585 297.45 31.4918 296.767 31.8634V31.3585H292.8V31.8634C292.366 31.4804 291.773 31.3585 291.114 31.3585H276.624L275.651 33.5916L274.653 31.3585H270.089V32.3796L269.587 31.3585H265.695L262.01 40.0033L263.887 40.0044H266.437Z" fill="white"/>
<rect x="1" y="1" width="345" height="92" rx="5" stroke="white" stroke-opacity="0.2" stroke-width="2"/>
</svg>
