<svg width="347" height="97" viewBox="0 0 347 97" fill="none" xmlns="http://www.w3.org/2000/svg">
<rect x="2" y="2" width="343" height="93" rx="4" fill="#2D2D2D"/>
<path d="M18.72 22.8V34H20.928V29.92H23.648C25.84 29.92 27.472 28.4 27.472 26.336C27.472 24.288 25.904 22.8 23.728 22.8H18.72ZM23.488 28.032H20.928V24.768H23.488C24.544 24.768 25.28 25.44 25.28 26.4C25.28 27.36 24.544 28.032 23.488 28.032ZM32.2346 34.112C33.2266 34.112 34.1226 33.728 34.7786 33.072V34H36.8106V26.016H34.7786V26.944C34.1546 26.272 33.2746 25.888 32.3146 25.888C30.2346 25.888 28.3466 27.616 28.3466 30C28.3466 32.384 30.2026 34.112 32.2346 34.112ZM32.5866 32.304C31.3546 32.304 30.3626 31.36 30.3626 30C30.3626 28.64 31.3546 27.696 32.5866 27.696C33.8346 27.696 34.8106 28.64 34.8106 30C34.8106 31.36 33.8346 32.304 32.5866 32.304ZM46.8183 26.016H44.6903L42.4183 30.72L40.0982 26.016H37.8262L41.2503 32.992L38.9622 37.536H41.1703L46.8183 26.016ZM49.8701 26.016H47.8381V34H49.8701V29.184C49.8701 28.256 50.5581 27.52 51.4541 27.52C52.3821 27.52 53.0381 28.224 53.0381 29.264V34H55.0701V29.184C55.0701 28.256 55.7581 27.52 56.6541 27.52C57.5821 27.52 58.2381 28.224 58.2381 29.264V34H60.2701V29.104C60.2701 27.232 59.1981 25.856 57.2941 25.856C56.1261 25.856 55.1181 26.432 54.6701 27.296C54.2061 26.416 53.3581 25.856 52.1741 25.856C51.1821 25.856 50.3181 26.32 49.8701 27.04V26.016ZM70.0489 31.616H67.7929C67.4569 32.112 66.8809 32.352 66.2569 32.352C65.1689 32.352 64.2729 31.68 64.0009 30.672H70.1609C70.1609 30.56 70.1769 30.464 70.1769 30.368C70.1769 27.296 68.0009 25.84 66.0169 25.84C63.7289 25.84 61.8729 27.584 61.8729 30C61.8729 32.4 63.8249 34.16 66.2249 34.16C68.0009 34.16 69.4409 33.152 70.0489 31.616ZM66.0169 27.616C66.9609 27.616 67.7929 28.272 67.9689 29.216H64.0169C64.2889 28.24 65.0729 27.616 66.0169 27.616ZM73.8095 26.016H71.7775V34H73.8095V29.168C73.8095 28.24 74.5295 27.504 75.4735 27.504C76.4495 27.504 77.1375 28.208 77.1375 29.248V34H79.1695V29.088C79.1695 27.216 78.0975 25.84 76.1935 25.84C75.1695 25.84 74.2895 26.288 73.8095 27.008V26.016ZM81.993 31.936C81.993 33.168 82.857 34 84.329 34H86.313V32.192H84.905C84.281 32.192 83.993 31.904 83.993 31.376V27.744H86.313V26.016H83.993V23.68L81.993 24.32V26.016H80.153V27.744H81.993V31.936ZM93.7107 26.016H91.6787V34H93.7107V29.184C93.7107 28.256 94.3987 27.52 95.2947 27.52C96.2227 27.52 96.8787 28.224 96.8787 29.264V34H98.9107V29.184C98.9107 28.256 99.5988 27.52 100.495 27.52C101.423 27.52 102.079 28.224 102.079 29.264V34H104.111V29.104C104.111 27.232 103.039 25.856 101.135 25.856C99.9668 25.856 98.9588 26.432 98.5107 27.296C98.0468 26.416 97.1988 25.856 96.0148 25.856C95.0227 25.856 94.1587 26.32 93.7107 27.04V26.016ZM113.89 31.616H111.634C111.298 32.112 110.722 32.352 110.098 32.352C109.01 32.352 108.114 31.68 107.842 30.672H114.002C114.002 30.56 114.018 30.464 114.018 30.368C114.018 27.296 111.842 25.84 109.858 25.84C107.57 25.84 105.714 27.584 105.714 30C105.714 32.4 107.666 34.16 110.066 34.16C111.842 34.16 113.282 33.152 113.89 31.616ZM109.858 27.616C110.802 27.616 111.634 28.272 111.81 29.216H107.858C108.13 28.24 108.914 27.616 109.858 27.616ZM116.466 31.936C116.466 33.168 117.33 34 118.802 34H120.786V32.192H119.378C118.754 32.192 118.466 31.904 118.466 31.376V27.744H120.786V26.016H118.466V23.68L116.466 24.32V26.016H114.626V27.744H116.466V31.936ZM124.284 22.16L122.252 22.8V34H124.284V29.168C124.284 28.24 125.004 27.504 125.948 27.504C126.924 27.504 127.612 28.208 127.612 29.248V34H129.644V29.088C129.644 27.216 128.572 25.84 126.668 25.84C125.644 25.84 124.764 26.288 124.284 27.008V22.16ZM135.464 25.856C133.128 25.856 131.24 27.6 131.24 30.016C131.24 32.416 133.128 34.16 135.464 34.16C137.8 34.16 139.688 32.416 139.688 30.016C139.688 27.6 137.8 25.856 135.464 25.856ZM135.464 32.32C134.232 32.32 133.256 31.376 133.256 30.032C133.256 28.656 134.232 27.728 135.464 27.728C136.696 27.728 137.672 28.656 137.672 30.032C137.672 31.376 136.696 32.32 135.464 32.32ZM144.871 34.112C145.863 34.112 146.759 33.728 147.415 33.072V34H149.447V22.16L147.415 22.8V26.944C146.791 26.272 145.911 25.888 144.951 25.888C142.871 25.888 140.983 27.616 140.983 30C140.983 32.384 142.839 34.112 144.871 34.112ZM145.223 32.304C143.991 32.304 142.999 31.36 142.999 30C142.999 28.64 143.991 27.696 145.223 27.696C146.471 27.696 147.447 28.64 147.447 30C147.447 31.36 146.471 32.304 145.223 32.304Z" fill="white"/>
<path d="M24.804 59L23.916 56.972H20.004L19.116 59H18.024L21.876 50.48H22.128L25.98 59H24.804ZM20.4 56.06H23.52L21.96 52.496L20.4 56.06ZM27.3479 59V52.94H28.3559V54.128C28.5079 53.672 28.7479 53.344 29.0759 53.144C29.4039 52.944 29.7519 52.844 30.1199 52.844C30.5519 52.844 30.9199 52.968 31.2239 53.216C31.5359 53.464 31.7599 53.788 31.8959 54.188C32.0479 53.756 32.2919 53.424 32.6279 53.192C32.9719 52.96 33.3479 52.844 33.7559 52.844C34.0759 52.844 34.3599 52.904 34.6079 53.024C34.8559 53.144 35.0639 53.312 35.2319 53.528C35.3999 53.736 35.5279 53.984 35.6159 54.272C35.7039 54.552 35.7479 54.856 35.7479 55.184V59H34.7399V55.28C34.7399 54.824 34.6119 54.448 34.3559 54.152C34.1079 53.856 33.7839 53.708 33.3839 53.708C33.0159 53.708 32.6999 53.86 32.4359 54.164C32.1799 54.46 32.0519 54.824 32.0519 55.256V59H31.0439V55.28C31.0439 54.824 30.9159 54.448 30.6599 54.152C30.4119 53.856 30.0879 53.708 29.6879 53.708C29.3199 53.708 29.0039 53.86 28.7399 54.164C28.4839 54.46 28.3559 54.824 28.3559 55.256V59H27.3479ZM40.6077 59.108C40.1997 59.108 39.8157 59.028 39.4557 58.868C39.0957 58.708 38.7837 58.492 38.5197 58.22C38.2557 57.94 38.0477 57.608 37.8957 57.224C37.7437 56.832 37.6677 56.408 37.6677 55.952C37.6677 55.504 37.7397 55.088 37.8837 54.704C38.0357 54.32 38.2397 53.992 38.4957 53.72C38.7597 53.44 39.0677 53.22 39.4197 53.06C39.7717 52.9 40.1477 52.82 40.5477 52.82C40.9317 52.82 41.2957 52.9 41.6397 53.06C41.9837 53.212 42.2837 53.432 42.5397 53.72C42.7957 54.008 42.9997 54.368 43.1517 54.8C43.3037 55.224 43.3797 55.704 43.3797 56.24V56.312H38.6997C38.7717 56.872 38.9877 57.328 39.3477 57.68C39.7077 58.032 40.1277 58.208 40.6077 58.208C40.9117 58.208 41.1917 58.136 41.4477 57.992C41.7117 57.84 41.9237 57.64 42.0837 57.392H43.2117C42.9957 57.912 42.6517 58.328 42.1797 58.64C41.7157 58.952 41.1917 59.108 40.6077 59.108ZM40.5357 53.732C40.0877 53.732 39.6917 53.896 39.3477 54.224C39.0117 54.552 38.7997 54.972 38.7117 55.484H42.3237C42.2437 54.972 42.0357 54.552 41.6997 54.224C41.3637 53.896 40.9757 53.732 40.5357 53.732ZM44.4085 59L46.6645 55.844L44.6005 52.94H45.8125L47.2645 55.04L48.7045 52.94H49.8325L47.8045 55.82L50.0725 59H48.8605L47.2045 56.6L45.5365 59H44.4085ZM57.5207 59.108C57.1127 59.108 56.7287 59.028 56.3687 58.868C56.0087 58.708 55.6967 58.492 55.4327 58.22C55.1687 57.94 54.9607 57.608 54.8087 57.224C54.6567 56.832 54.5807 56.408 54.5807 55.952C54.5807 55.504 54.6527 55.088 54.7967 54.704C54.9487 54.32 55.1527 53.992 55.4087 53.72C55.6727 53.44 55.9807 53.22 56.3327 53.06C56.6847 52.9 57.0607 52.82 57.4607 52.82C57.8447 52.82 58.2087 52.9 58.5527 53.06C58.8967 53.212 59.1967 53.432 59.4527 53.72C59.7087 54.008 59.9127 54.368 60.0647 54.8C60.2167 55.224 60.2927 55.704 60.2927 56.24V56.312H55.6127C55.6847 56.872 55.9007 57.328 56.2607 57.68C56.6207 58.032 57.0407 58.208 57.5207 58.208C57.8247 58.208 58.1047 58.136 58.3607 57.992C58.6247 57.84 58.8367 57.64 58.9967 57.392H60.1247C59.9087 57.912 59.5647 58.328 59.0927 58.64C58.6287 58.952 58.1047 59.108 57.5207 59.108ZM57.4487 53.732C57.0007 53.732 56.6047 53.896 56.2607 54.224C55.9247 54.552 55.7127 54.972 55.6247 55.484H59.2367C59.1567 54.972 58.9487 54.552 58.6127 54.224C58.2767 53.896 57.8887 53.732 57.4487 53.732ZM63.2239 55.256V59H62.2159V52.94H63.2239V54.128C63.3759 53.672 63.6159 53.344 63.9439 53.144C64.2799 52.936 64.6359 52.832 65.0119 52.832C65.3479 52.832 65.6479 52.892 65.9119 53.012C66.1759 53.132 66.3999 53.3 66.5839 53.516C66.7679 53.724 66.9079 53.972 67.0039 54.26C67.0999 54.548 67.1479 54.856 67.1479 55.184V59H66.1399V55.28C66.1399 54.8 66.0079 54.416 65.7439 54.128C65.4879 53.84 65.1559 53.696 64.7479 53.696C64.2999 53.696 63.9319 53.848 63.6439 54.152C63.3639 54.448 63.2239 54.816 63.2239 55.256ZM71.8269 59.096C71.4429 59.096 71.0829 59.016 70.7469 58.856C70.4109 58.696 70.1189 58.48 69.8709 58.208C69.6229 57.928 69.4269 57.596 69.2829 57.212C69.1389 56.82 69.0669 56.4 69.0669 55.952C69.0669 55.504 69.1389 55.092 69.2829 54.716C69.4269 54.332 69.6229 54.004 69.8709 53.732C70.1189 53.452 70.4109 53.232 70.7469 53.072C71.0909 52.912 71.4549 52.832 71.8389 52.832C72.2549 52.832 72.6429 52.936 73.0029 53.144C73.3629 53.344 73.6629 53.62 73.9029 53.972V50.264H74.9109V59H73.9029V57.944C73.6629 58.304 73.3589 58.588 72.9909 58.796C72.6309 58.996 72.2429 59.096 71.8269 59.096ZM72.0069 58.184C72.5349 58.184 72.9869 57.976 73.3629 57.56C73.7389 57.136 73.9269 56.6 73.9269 55.952C73.9269 55.312 73.7389 54.784 73.3629 54.368C72.9869 53.952 72.5349 53.744 72.0069 53.744C71.4709 53.744 71.0149 53.952 70.6389 54.368C70.2629 54.784 70.0749 55.312 70.0749 55.952C70.0749 56.6 70.2629 57.136 70.6389 57.56C71.0149 57.976 71.4709 58.184 72.0069 58.184ZM77.5577 51.92C77.3577 51.92 77.1857 51.848 77.0417 51.704C76.8977 51.552 76.8257 51.376 76.8257 51.176C76.8257 50.976 76.8977 50.8 77.0417 50.648C77.1857 50.496 77.3577 50.42 77.5577 50.42C77.7577 50.42 77.9297 50.496 78.0737 50.648C78.2177 50.8 78.2897 50.976 78.2897 51.176C78.2897 51.376 78.2177 51.552 78.0737 51.704C77.9297 51.848 77.7577 51.92 77.5577 51.92ZM77.0537 59V52.94H78.0617V59H77.0537ZM81.215 55.256V59H80.207V52.94H81.215V54.128C81.367 53.672 81.607 53.344 81.935 53.144C82.271 52.936 82.627 52.832 83.003 52.832C83.339 52.832 83.639 52.892 83.903 53.012C84.167 53.132 84.391 53.3 84.575 53.516C84.759 53.724 84.899 53.972 84.995 54.26C85.091 54.548 85.139 54.856 85.139 55.184V59H84.131V55.28C84.131 54.8 83.999 54.416 83.735 54.128C83.479 53.84 83.147 53.696 82.739 53.696C82.291 53.696 81.923 53.848 81.635 54.152C81.355 54.448 81.215 54.816 81.215 55.256ZM89.818 59.06C89.434 59.06 89.074 58.984 88.738 58.832C88.402 58.672 88.11 58.456 87.862 58.184C87.614 57.904 87.418 57.572 87.274 57.188C87.13 56.804 87.058 56.388 87.058 55.94C87.058 55.492 87.13 55.08 87.274 54.704C87.418 54.32 87.614 53.992 87.862 53.72C88.11 53.44 88.402 53.224 88.738 53.072C89.082 52.912 89.446 52.832 89.83 52.832C90.246 52.832 90.634 52.936 90.994 53.144C91.354 53.344 91.654 53.62 91.894 53.972V52.94H92.902V58.796C92.902 59.276 92.83 59.704 92.686 60.08C92.55 60.464 92.354 60.78 92.098 61.028C91.85 61.284 91.554 61.476 91.21 61.604C90.866 61.74 90.49 61.808 90.082 61.808C89.746 61.808 89.422 61.76 89.11 61.664C88.806 61.568 88.53 61.436 88.282 61.268C88.034 61.1 87.822 60.892 87.646 60.644C87.47 60.404 87.346 60.14 87.274 59.852H88.354C88.458 60.172 88.67 60.428 88.99 60.62C89.318 60.812 89.678 60.908 90.07 60.908C90.598 60.908 91.034 60.732 91.378 60.38C91.722 60.036 91.894 59.512 91.894 58.808V57.92C91.654 58.272 91.35 58.552 90.982 58.76C90.622 58.96 90.234 59.06 89.818 59.06ZM89.998 58.148C90.526 58.148 90.978 57.944 91.354 57.536C91.73 57.12 91.918 56.588 91.918 55.94C91.918 55.3 91.73 54.776 91.354 54.368C90.978 53.952 90.526 53.744 89.998 53.744C89.462 53.744 89.006 53.952 88.63 54.368C88.254 54.776 88.066 55.3 88.066 55.94C88.066 56.588 88.254 57.12 88.63 57.536C89.006 57.944 89.462 58.148 89.998 58.148ZM98.7958 51.92C98.5958 51.92 98.4238 51.848 98.2798 51.704C98.1358 51.552 98.0638 51.376 98.0638 51.176C98.0638 50.976 98.1358 50.8 98.2798 50.648C98.4238 50.496 98.5958 50.42 98.7958 50.42C98.9958 50.42 99.1678 50.496 99.3118 50.648C99.4558 50.8 99.5278 50.976 99.5278 51.176C99.5278 51.376 99.4558 51.552 99.3118 51.704C99.1678 51.848 98.9958 51.92 98.7958 51.92ZM98.2918 59V52.94H99.2998V59H98.2918ZM102.453 55.256V59H101.445V52.94H102.453V54.128C102.605 53.672 102.845 53.344 103.173 53.144C103.509 52.936 103.865 52.832 104.241 52.832C104.577 52.832 104.877 52.892 105.141 53.012C105.405 53.132 105.629 53.3 105.813 53.516C105.997 53.724 106.137 53.972 106.233 54.26C106.329 54.548 106.377 54.856 106.377 55.184V59H105.369V55.28C105.369 54.8 105.237 54.416 104.973 54.128C104.717 53.84 104.385 53.696 103.977 53.696C103.529 53.696 103.161 53.848 102.873 54.152C102.593 54.448 102.453 54.816 102.453 55.256ZM112.215 57.584C112.415 57.584 112.587 57.66 112.731 57.812C112.883 57.956 112.959 58.128 112.959 58.328C112.959 58.528 112.883 58.7 112.731 58.844C112.587 58.988 112.415 59.06 112.215 59.06C112.015 59.06 111.843 58.988 111.699 58.844C111.563 58.7 111.495 58.528 111.495 58.328C111.495 58.128 111.563 57.956 111.699 57.812C111.843 57.66 112.015 57.584 112.215 57.584ZM115.275 57.584C115.475 57.584 115.647 57.66 115.791 57.812C115.943 57.956 116.019 58.128 116.019 58.328C116.019 58.528 115.943 58.7 115.791 58.844C115.647 58.988 115.475 59.06 115.275 59.06C115.075 59.06 114.903 58.988 114.759 58.844C114.623 58.7 114.555 58.528 114.555 58.328C114.555 58.128 114.623 57.956 114.759 57.812C114.903 57.66 115.075 57.584 115.275 57.584ZM118.334 57.584C118.534 57.584 118.706 57.66 118.85 57.812C119.002 57.956 119.078 58.128 119.078 58.328C119.078 58.528 119.002 58.7 118.85 58.844C118.706 58.988 118.534 59.06 118.334 59.06C118.134 59.06 117.962 58.988 117.818 58.844C117.682 58.7 117.614 58.528 117.614 58.328C117.614 58.128 117.682 57.956 117.818 57.812C117.962 57.66 118.134 57.584 118.334 57.584ZM123.827 59.12C123.347 59.12 122.903 59.02 122.495 58.82C122.087 58.612 121.739 58.32 121.451 57.944C121.163 57.568 120.935 57.112 120.767 56.576C120.607 56.04 120.527 55.448 120.527 54.8C120.527 54.152 120.607 53.56 120.767 53.024C120.935 52.488 121.163 52.032 121.451 51.656C121.739 51.28 122.087 50.992 122.495 50.792C122.903 50.584 123.347 50.48 123.827 50.48C124.307 50.48 124.751 50.584 125.159 50.792C125.567 50.992 125.915 51.28 126.203 51.656C126.499 52.032 126.727 52.488 126.887 53.024C127.055 53.56 127.139 54.152 127.139 54.8C127.139 55.448 127.055 56.04 126.887 56.576C126.727 57.112 126.499 57.568 126.203 57.944C125.915 58.32 125.567 58.612 125.159 58.82C124.751 59.02 124.307 59.12 123.827 59.12ZM123.827 58.208C124.523 58.208 125.075 57.9 125.483 57.284C125.899 56.668 126.107 55.84 126.107 54.8C126.107 53.76 125.899 52.932 125.483 52.316C125.075 51.7 124.523 51.392 123.827 51.392C123.131 51.392 122.579 51.7 122.171 52.316C121.763 52.932 121.559 53.76 121.559 54.8C121.559 55.84 121.763 56.668 122.171 57.284C122.579 57.9 123.131 58.208 123.827 58.208ZM133.19 53.684H134.21V56.072H135.266V56.972H134.21V59H133.19V56.972H128.75V56.612L132.266 50.552H133.322L130.13 56.072H133.19V53.684ZM141.406 53.684H142.426V56.072H143.482V56.972H142.426V59H141.406V56.972H136.966V56.612L140.482 50.552H141.538L138.346 56.072H141.406V53.684ZM149.621 53.684H150.641V56.072H151.697V56.972H150.641V59H149.621V56.972H145.181V56.612L148.697 50.552H149.753L146.561 56.072H149.621V53.684ZM24.336 75H18.864V66.6H24.336V67.536H19.92V70.248H23.304V71.184H19.92V74.064H24.336V75ZM25.6801 75L27.9361 71.844L25.8721 68.94H27.0841L28.5361 71.04L29.9761 68.94H31.1041L29.0761 71.82L31.3441 75H30.1321L28.4761 72.6L26.8081 75H25.6801ZM33.8412 77.712H32.8332V68.94H33.8412V69.972C34.0812 69.62 34.3812 69.344 34.7412 69.144C35.1092 68.936 35.5012 68.832 35.9172 68.832C36.3012 68.832 36.6612 68.912 36.9972 69.072C37.3332 69.232 37.6252 69.452 37.8732 69.732C38.1212 70.004 38.3172 70.332 38.4612 70.716C38.6052 71.092 38.6772 71.504 38.6772 71.952C38.6772 72.4 38.6052 72.82 38.4612 73.212C38.3172 73.596 38.1212 73.928 37.8732 74.208C37.6252 74.48 37.3292 74.696 36.9852 74.856C36.6492 75.016 36.2892 75.096 35.9052 75.096C35.4892 75.096 35.1012 74.996 34.7412 74.796C34.3812 74.588 34.0812 74.308 33.8412 73.956V77.712ZM35.7372 69.744C35.2092 69.744 34.7572 69.952 34.3812 70.368C34.0052 70.784 33.8172 71.312 33.8172 71.952C33.8172 72.6 34.0052 73.136 34.3812 73.56C34.7572 73.976 35.2092 74.184 35.7372 74.184C36.2732 74.184 36.7292 73.976 37.1052 73.56C37.4812 73.136 37.6692 72.6 37.6692 71.952C37.6692 71.312 37.4812 70.784 37.1052 70.368C36.7292 69.952 36.2732 69.744 35.7372 69.744ZM41.096 67.92C40.896 67.92 40.724 67.848 40.58 67.704C40.436 67.552 40.364 67.376 40.364 67.176C40.364 66.976 40.436 66.8 40.58 66.648C40.724 66.496 40.896 66.42 41.096 66.42C41.296 66.42 41.468 66.496 41.612 66.648C41.756 66.8 41.828 66.976 41.828 67.176C41.828 67.376 41.756 67.552 41.612 67.704C41.468 67.848 41.296 67.92 41.096 67.92ZM40.592 75V68.94H41.6V75H40.592ZM43.7452 75V68.94H44.7532V70.164C44.9452 69.644 45.2372 69.272 45.6292 69.048C46.0212 68.816 46.4772 68.728 46.9973 68.784V69.744C46.6933 69.688 46.4052 69.696 46.1332 69.768C45.8612 69.84 45.6212 69.96 45.4133 70.128C45.2132 70.288 45.0532 70.492 44.9332 70.74C44.8132 70.988 44.7532 71.256 44.7532 71.544V75H43.7452ZM50.9933 75.108C50.5853 75.108 50.2013 75.028 49.8413 74.868C49.4813 74.708 49.1693 74.492 48.9053 74.22C48.6413 73.94 48.4333 73.608 48.2813 73.224C48.1293 72.832 48.0533 72.408 48.0533 71.952C48.0533 71.504 48.1253 71.088 48.2693 70.704C48.4213 70.32 48.6253 69.992 48.8813 69.72C49.1453 69.44 49.4533 69.22 49.8053 69.06C50.1573 68.9 50.5333 68.82 50.9333 68.82C51.3173 68.82 51.6813 68.9 52.0253 69.06C52.3693 69.212 52.6693 69.432 52.9253 69.72C53.1813 70.008 53.3853 70.368 53.5373 70.8C53.6893 71.224 53.7653 71.704 53.7653 72.24V72.312H49.0853C49.1573 72.872 49.3733 73.328 49.7333 73.68C50.0933 74.032 50.5133 74.208 50.9933 74.208C51.2973 74.208 51.5773 74.136 51.8333 73.992C52.0973 73.84 52.3093 73.64 52.4693 73.392H53.5973C53.3813 73.912 53.0373 74.328 52.5653 74.64C52.1013 74.952 51.5773 75.108 50.9933 75.108ZM50.9213 69.732C50.4733 69.732 50.0773 69.896 49.7333 70.224C49.3973 70.552 49.1853 70.972 49.0973 71.484H52.7093C52.6293 70.972 52.4213 70.552 52.0853 70.224C51.7493 69.896 51.3613 69.732 50.9213 69.732ZM55.4725 70.62C55.4805 70.084 55.6845 69.652 56.0845 69.324C56.4925 68.996 56.9965 68.832 57.5965 68.832C58.2925 68.832 58.8765 69.032 59.3485 69.432C59.8205 69.824 60.0725 70.328 60.1045 70.944H59.1205C59.0885 70.568 58.9325 70.268 58.6525 70.044C58.3805 69.812 58.0325 69.696 57.6085 69.696C57.2565 69.696 56.9765 69.776 56.7685 69.936C56.5685 70.096 56.4685 70.3 56.4685 70.548C56.4685 70.836 56.6085 71.044 56.8885 71.172C57.1685 71.3 57.4925 71.412 57.8605 71.508C58.1245 71.572 58.3925 71.644 58.6645 71.724C58.9445 71.796 59.1925 71.896 59.4085 72.024C59.6325 72.144 59.8165 72.308 59.9605 72.516C60.1045 72.716 60.1765 72.976 60.1765 73.296C60.1765 73.856 59.9605 74.3 59.5285 74.628C59.0965 74.948 58.5685 75.108 57.9445 75.108C57.2245 75.108 56.6285 74.904 56.1565 74.496C55.6845 74.088 55.4325 73.564 55.4005 72.924H56.3845C56.4085 73.316 56.5685 73.636 56.8645 73.884C57.1685 74.132 57.5325 74.256 57.9565 74.256C58.3005 74.256 58.5885 74.18 58.8205 74.028C59.0605 73.876 59.1805 73.664 59.1805 73.392C59.1805 73.08 59.0165 72.864 58.6885 72.744C58.3685 72.616 58.0045 72.5 57.5965 72.396C57.3485 72.34 57.0965 72.272 56.8405 72.192C56.5845 72.112 56.3565 72.008 56.1565 71.88C55.9565 71.752 55.7925 71.588 55.6645 71.388C55.5365 71.18 55.4725 70.924 55.4725 70.62ZM68.5046 75.12C68.0246 75.12 67.5806 75.02 67.1726 74.82C66.7646 74.612 66.4166 74.32 66.1286 73.944C65.8406 73.568 65.6126 73.112 65.4446 72.576C65.2846 72.04 65.2046 71.448 65.2046 70.8C65.2046 70.152 65.2846 69.56 65.4446 69.024C65.6126 68.488 65.8406 68.032 66.1286 67.656C66.4166 67.28 66.7646 66.992 67.1726 66.792C67.5806 66.584 68.0246 66.48 68.5046 66.48C68.9846 66.48 69.4286 66.584 69.8366 66.792C70.2446 66.992 70.5926 67.28 70.8806 67.656C71.1766 68.032 71.4046 68.488 71.5646 69.024C71.7326 69.56 71.8166 70.152 71.8166 70.8C71.8166 71.448 71.7326 72.04 71.5646 72.576C71.4046 73.112 71.1766 73.568 70.8806 73.944C70.5926 74.32 70.2446 74.612 69.8366 74.82C69.4286 75.02 68.9846 75.12 68.5046 75.12ZM68.5046 74.208C69.2006 74.208 69.7526 73.9 70.1606 73.284C70.5766 72.668 70.7846 71.84 70.7846 70.8C70.7846 69.76 70.5766 68.932 70.1606 68.316C69.7526 67.7 69.2006 67.392 68.5046 67.392C67.8086 67.392 67.2566 67.7 66.8486 68.316C66.4406 68.932 66.2366 69.76 66.2366 70.8C66.2366 71.84 66.4406 72.668 66.8486 73.284C67.2566 73.9 67.8086 74.208 68.5046 74.208ZM77.8679 69.684H78.8879V72.072H79.9439V72.972H78.8879V75H77.8679V72.972H73.4279V72.612L76.9439 66.552H77.9999L74.8079 72.072H77.8679V69.684ZM80.4917 77.616L85.4717 66.6H86.5157L81.5477 77.616H80.4917ZM87.7998 75V74.64L90.7878 71.148C91.1958 70.676 91.4718 70.276 91.6158 69.948C91.7678 69.62 91.8438 69.292 91.8438 68.964C91.8438 68.508 91.6878 68.132 91.3758 67.836C91.0638 67.54 90.6918 67.392 90.2598 67.392C89.8038 67.392 89.4158 67.576 89.0958 67.944C88.7838 68.312 88.6238 68.78 88.6158 69.348H87.5958C87.5958 68.94 87.6638 68.56 87.7998 68.208C87.9438 67.848 88.1398 67.544 88.3878 67.296C88.6358 67.04 88.9238 66.84 89.2518 66.696C89.5878 66.552 89.9478 66.48 90.3318 66.48C90.6918 66.48 91.0278 66.54 91.3398 66.66C91.6518 66.78 91.9198 66.948 92.1438 67.164C92.3678 67.38 92.5438 67.636 92.6718 67.932C92.8078 68.228 92.8758 68.552 92.8758 68.904C92.8758 69.416 92.7758 69.868 92.5758 70.26C92.3758 70.652 92.0838 71.072 91.6998 71.52L89.5038 74.1H93.0318V75H87.7998ZM94.7617 75V74.64L97.7497 71.148C98.1577 70.676 98.4337 70.276 98.5777 69.948C98.7297 69.62 98.8057 69.292 98.8057 68.964C98.8057 68.508 98.6497 68.132 98.3377 67.836C98.0257 67.54 97.6537 67.392 97.2217 67.392C96.7657 67.392 96.3777 67.576 96.0577 67.944C95.7457 68.312 95.5857 68.78 95.5777 69.348H94.5577C94.5577 68.94 94.6257 68.56 94.7617 68.208C94.9057 67.848 95.1017 67.544 95.3497 67.296C95.5977 67.04 95.8857 66.84 96.2137 66.696C96.5497 66.552 96.9097 66.48 97.2937 66.48C97.6537 66.48 97.9897 66.54 98.3017 66.66C98.6137 66.78 98.8817 66.948 99.1057 67.164C99.3297 67.38 99.5057 67.636 99.6337 67.932C99.7697 68.228 99.8377 68.552 99.8377 68.904C99.8377 69.416 99.7377 69.868 99.5377 70.26C99.3377 70.652 99.0457 71.072 98.6617 71.52L96.4657 74.1H99.9937V75H94.7617Z" fill="white"/>
<rect x="275.435" y="18" width="53.5652" height="32" rx="4" fill="#0072CE"/>
<path fill-rule="evenodd" clip-rule="evenodd" d="M320.648 36.4883H318.755C318.566 36.4883 318.441 36.4953 318.335 36.5662C318.226 36.636 318.183 36.7397 318.183 36.8765C318.183 37.0393 318.276 37.1499 318.41 37.1978C318.52 37.2357 318.638 37.2467 318.811 37.2467L319.373 37.2617C319.941 37.2756 320.32 37.3725 320.552 37.6088C320.594 37.6417 320.619 37.6787 320.648 37.7156V36.4883ZM320.648 39.332C320.396 39.6982 319.904 39.8838 319.239 39.8838H317.233V38.9589H319.231C319.429 38.9589 319.567 38.933 319.651 38.8521C319.723 38.7853 319.774 38.6884 319.774 38.5707C319.774 38.4451 319.723 38.3453 319.647 38.2855C319.571 38.2197 319.462 38.1897 319.281 38.1897C318.306 38.1568 317.09 38.2197 317.09 36.8547C317.09 36.229 317.49 35.5705 318.579 35.5705H320.648V34.7123H318.726C318.146 34.7123 317.725 34.8502 317.426 35.0645V34.7123H314.584C314.129 34.7123 313.596 34.8241 313.343 35.0645V34.7123H308.268V35.0645C307.864 34.7752 307.182 34.7123 306.867 34.7123H303.519V35.0645C303.2 34.7573 302.489 34.7123 302.056 34.7123H298.309L297.451 35.6334L296.648 34.7123H291.051V40.7309H296.543L297.426 39.7952L298.259 40.7309L301.644 40.7339V39.3181H301.977C302.426 39.325 302.956 39.3071 303.423 39.1065V40.7308H306.215V39.1622H306.35C306.522 39.1622 306.539 39.1692 306.539 39.3397V40.7307H315.021C315.56 40.7307 316.123 40.5939 316.435 40.3455V40.7307H319.125C319.685 40.7307 320.232 40.6528 320.648 40.4532V39.332V39.332ZM316.506 37.6088C316.708 37.8166 316.816 38.0788 316.816 38.5227C316.816 39.4507 316.232 39.8838 315.185 39.8838H313.163V38.9589H315.177C315.374 38.9589 315.514 38.933 315.601 38.8521C315.673 38.7853 315.724 38.6884 315.724 38.5707C315.724 38.4451 315.668 38.3453 315.597 38.2855C315.518 38.2197 315.408 38.1897 315.227 38.1897C314.256 38.1568 313.04 38.2197 313.04 36.8547C313.04 36.229 313.436 35.5705 314.525 35.5705H316.606V36.4885H314.702C314.513 36.4885 314.39 36.4956 314.286 36.5665C314.172 36.6363 314.13 36.74 314.13 36.8768C314.13 37.0395 314.226 37.1502 314.357 37.1981C314.466 37.2359 314.584 37.247 314.761 37.247L315.32 37.2619C315.884 37.2756 316.271 37.3724 316.506 37.6088V37.6088ZM307.136 37.3425C306.997 37.4243 306.825 37.4313 306.623 37.4313H305.362V36.4625H306.64C306.825 36.4625 307.01 36.4664 307.136 36.5404C307.271 36.6103 307.351 36.7439 307.351 36.9284C307.351 37.113 307.271 37.2617 307.136 37.3425V37.3425ZM307.763 37.8793C307.994 37.9639 308.183 38.1157 308.272 38.2414C308.418 38.452 308.44 38.6485 308.444 39.0287V39.8838H307.401V39.3441C307.401 39.0846 307.427 38.7004 307.234 38.4998C307.082 38.3453 306.85 38.3084 306.472 38.3084H305.362V39.8838H304.319V35.5704H306.716C307.242 35.5704 307.624 35.5934 307.965 35.7739C308.293 35.9705 308.499 36.2397 308.499 36.7318C308.499 37.4202 308.036 37.7716 307.763 37.8793V37.8793ZM309.075 35.5704H312.541V36.4624H310.109V37.2466H312.481V38.1267H310.109V38.9849L312.541 38.9888V39.8838H309.075V35.5704V35.5704ZM302.069 37.561H300.727V36.4625H302.081C302.456 36.4625 302.716 36.6142 302.716 36.9914C302.716 37.3644 302.468 37.561 302.069 37.561V37.561ZM299.693 39.4915L298.099 37.7345L299.693 36.0333V39.4915V39.4915ZM295.576 38.9849H293.023V38.1267H295.302V37.2466H293.023V36.4624H295.626L296.762 37.7194L295.576 38.9849V38.9849ZM303.831 36.9914C303.831 38.1896 302.93 38.437 302.023 38.437H300.727V39.8838H298.709L297.43 38.4559L296.102 39.8838H291.988V35.5704H296.165L297.442 36.9842L298.763 35.5704H302.081C302.905 35.5704 303.831 35.7968 303.831 36.9914V36.9914Z" fill="white"/>
<path fill-rule="evenodd" clip-rule="evenodd" d="M287.034 30.5996L286.324 28.8805L285.617 30.5996H287.034ZM302.691 29.9151C302.549 30.0011 302.38 30.0039 302.178 30.0039H300.916V29.0461H302.195C302.376 29.0461 302.565 29.0541 302.687 29.1239C302.822 29.1867 302.905 29.3204 302.905 29.5051C302.905 29.6936 302.826 29.8452 302.691 29.9151V29.9151ZM311.69 30.5996L310.972 28.8805L310.257 30.5996H311.69V30.5996ZM294.916 32.4604H293.851L293.847 29.083L292.342 32.4604H291.43L289.92 29.08V32.4604H287.808L287.409 31.4986H285.247L284.844 32.4604H283.716L285.576 28.1481H287.119L288.885 32.231V28.1481H290.579L291.938 31.0735L293.187 28.1481H294.916V32.4604H294.916ZM299.158 32.4604H295.69V28.1481H299.158V29.0461H296.728V29.8234H299.1V30.7073H296.728V31.5685H299.158V32.4604V32.4604ZM304.049 29.3095C304.049 29.997 303.587 30.3522 303.318 30.4589C303.545 30.5448 303.739 30.6964 303.831 30.8221C303.978 31.0366 304.003 31.2281 304.003 31.6133V32.4604H302.956L302.952 31.9166C302.952 31.6571 302.977 31.2839 302.788 31.0765C302.636 30.9248 302.405 30.8919 302.031 30.8919H300.916V32.4604H299.878V28.1481H302.266C302.797 28.1481 303.188 28.162 303.524 28.3546C303.852 28.5472 304.049 28.8285 304.049 29.3095V29.3095ZM305.711 32.4604H304.651V28.1481H305.711V32.4604V32.4604ZM318.003 32.4604H316.531L314.563 29.2237V32.4604H312.448L312.044 31.4986H309.887L309.495 32.4604H308.28C307.775 32.4604 307.136 32.3496 306.774 31.9835C306.409 31.6173 306.22 31.1214 306.22 30.3372C306.22 29.6976 306.333 29.1129 306.779 28.6509C307.115 28.3067 307.641 28.1481 308.356 28.1481H309.362V29.0721H308.377C307.998 29.0721 307.784 29.128 307.578 29.3275C307.401 29.5091 307.28 29.8524 307.28 30.3044C307.28 30.7664 307.372 31.0995 307.565 31.3171C307.725 31.4878 308.016 31.5395 308.289 31.5395H308.755L310.219 28.1482H311.775L313.533 32.2271V28.1482H315.114L316.939 31.1515V28.1482H318.003V32.4604V32.4604ZM285.479 33.3075L285.879 32.3496H286.774L287.173 33.3075H290.664V32.5752L290.976 33.3106H292.788L293.099 32.5642V33.3075H301.775L301.771 31.7352H301.938C302.056 31.7392 302.09 31.75 302.09 31.9426V33.3075H306.577V32.9415C306.939 33.134 307.502 33.3075 308.243 33.3075H310.13L310.534 32.3496H311.43L311.825 33.3075H315.463V32.3976L316.013 33.3075H318.928V27.293H316.044V28.0033L315.64 27.293H312.679V28.0033L312.308 27.293H308.31C307.641 27.293 307.052 27.3857 306.577 27.6442V27.293H303.818V27.6442C303.516 27.3778 303.103 27.293 302.645 27.293H292.565L291.888 28.8464L291.194 27.293H288.018V28.0033L287.67 27.293H284.962L282.398 33.3067L283.704 33.3075H285.479Z" fill="white"/>
<path d="M311.336 70H305.864V61.6H311.336V62.536H306.92V65.248H310.304V66.184H306.92V69.064H311.336V70ZM315.638 70.096C315.254 70.096 314.894 70.016 314.558 69.856C314.222 69.696 313.93 69.48 313.682 69.208C313.434 68.928 313.238 68.596 313.094 68.212C312.95 67.82 312.878 67.4 312.878 66.952C312.878 66.504 312.95 66.092 313.094 65.716C313.238 65.332 313.434 65.004 313.682 64.732C313.93 64.452 314.222 64.232 314.558 64.072C314.902 63.912 315.266 63.832 315.65 63.832C316.066 63.832 316.454 63.936 316.814 64.144C317.174 64.344 317.474 64.62 317.714 64.972V61.264H318.722V70H317.714V68.944C317.474 69.304 317.17 69.588 316.802 69.796C316.442 69.996 316.054 70.096 315.638 70.096ZM315.818 69.184C316.346 69.184 316.798 68.976 317.174 68.56C317.55 68.136 317.738 67.6 317.738 66.952C317.738 66.312 317.55 65.784 317.174 65.368C316.798 64.952 316.346 64.744 315.818 64.744C315.282 64.744 314.826 64.952 314.45 65.368C314.074 65.784 313.886 66.312 313.886 66.952C313.886 67.6 314.074 68.136 314.45 68.56C314.826 68.976 315.282 69.184 315.818 69.184ZM321.368 62.92C321.168 62.92 320.996 62.848 320.852 62.704C320.708 62.552 320.636 62.376 320.636 62.176C320.636 61.976 320.708 61.8 320.852 61.648C320.996 61.496 321.168 61.42 321.368 61.42C321.568 61.42 321.74 61.496 321.884 61.648C322.028 61.8 322.1 61.976 322.1 62.176C322.1 62.376 322.028 62.552 321.884 62.704C321.74 62.848 321.568 62.92 321.368 62.92ZM320.864 70V63.94H321.872V70H320.864ZM325.002 68.524V64.804H323.466V63.94H325.002V62.512L325.998 62.152V63.94H327.786V64.804H325.998V68.476C325.998 68.684 326.054 68.844 326.166 68.956C326.278 69.06 326.446 69.112 326.67 69.112H327.786V70H326.418C325.962 70 325.61 69.876 325.362 69.628C325.122 69.372 325.002 69.004 325.002 68.524Z" fill="#29FFC9"/>
<path d="M305 71.5H328.158V72.1H305V71.5Z" fill="#29FFC9"/>
<rect x="1" y="1" width="345" height="95" rx="5" stroke="white" stroke-opacity="0.2" stroke-width="2"/>
</svg>
