<svg width="37" height="22" viewBox="0 0 37 22" fill="none" xmlns="http://www.w3.org/2000/svg">
<rect width="36.6667" height="22" rx="4" transform="matrix(1 0 0 -1 0 22)" fill="white"/>
<path fill-rule="evenodd" clip-rule="evenodd" d="M22.4398 9.44796C22.3413 10.0947 21.8474 10.0947 21.3695 10.0947H21.0977L21.2884 8.88713C21.2998 8.81418 21.3628 8.76052 21.4367 8.76052H21.5614C21.8867 8.76052 22.1938 8.76052 22.3522 8.94568C22.447 9.0565 22.4756 9.22098 22.4398 9.44796M22.2319 7.76037H20.43C20.3066 7.76037 20.2019 7.85005 20.1826 7.97178L19.454 12.5922C19.4396 12.6833 19.5102 12.7657 19.6022 12.7657H20.5269C20.6131 12.7657 20.6865 12.703 20.7 12.618L20.9067 11.3079C20.9258 11.1862 21.0308 11.0965 21.1539 11.0965H21.724C22.911 11.0965 23.5961 10.5222 23.775 9.38361C23.8556 8.88597 23.7782 8.49474 23.5452 8.22083C23.289 7.91974 22.8348 7.76037 22.2319 7.76037" fill="#0079C1"/>
<path fill-rule="evenodd" clip-rule="evenodd" d="M9.58777 9.44796C9.48927 10.0947 8.99535 10.0947 8.51747 10.0947H8.24565L8.43639 8.88713C8.44777 8.81418 8.51073 8.76052 8.58461 8.76052H8.70936C9.03462 8.76052 9.34174 8.76052 9.50019 8.94568C9.59498 9.0565 9.62355 9.22098 9.58777 9.44796M9.37984 7.76037H7.57796C7.45459 7.76037 7.34982 7.85005 7.33053 7.97178L6.60197 12.5922C6.58757 12.6833 6.65796 12.7657 6.75019 12.7657H7.61071C7.73384 12.7657 7.83862 12.6761 7.8579 12.5546L8.05468 11.3079C8.07373 11.1862 8.17874 11.0965 8.30187 11.0965H8.87199C10.0589 11.0965 10.744 10.5222 10.9229 9.38361C11.0035 8.88597 10.9262 8.49474 10.6932 8.22083C10.4369 7.91974 9.98272 7.76037 9.37984 7.76037" fill="#00457C"/>
<path fill-rule="evenodd" clip-rule="evenodd" d="M13.5631 11.1067C13.4797 11.5996 13.0885 11.9307 12.5892 11.9307C12.339 11.9307 12.1385 11.8501 12.0098 11.6977C11.8823 11.5467 11.8342 11.3313 11.8746 11.0918C11.9522 10.603 12.3499 10.2615 12.8415 10.2615C13.0866 10.2615 13.2855 10.3428 13.4167 10.4966C13.5489 10.6515 13.601 10.8681 13.5631 11.1067M14.7656 9.42721H13.9028C13.8289 9.42721 13.7659 9.48087 13.7543 9.55406L13.7164 9.79521L13.6563 9.70785C13.4692 9.43673 13.0527 9.3459 12.6368 9.3459C11.6836 9.3459 10.8693 10.0684 10.7109 11.0816C10.6284 11.5871 10.7455 12.0701 11.0322 12.4072C11.2954 12.7169 11.6711 12.8458 12.1188 12.8458C12.8873 12.8458 13.3134 12.3524 13.3134 12.3524L13.2748 12.5921C13.2604 12.6832 13.3308 12.7657 13.4232 12.7657H14.2001C14.3235 12.7657 14.4283 12.6762 14.4476 12.5545L14.9141 9.60075C14.9285 9.50968 14.8578 9.42721 14.7656 9.42721" fill="#00457C"/>
<path fill-rule="evenodd" clip-rule="evenodd" d="M26.4152 11.1067C26.3318 11.5996 25.9405 11.9307 25.4413 11.9307C25.1911 11.9307 24.9906 11.8501 24.8619 11.6977C24.7341 11.5467 24.6862 11.3313 24.7266 11.0918C24.8042 10.603 25.202 10.2615 25.6936 10.2615C25.9387 10.2615 26.1375 10.3428 26.2688 10.4966C26.401 10.6515 26.453 10.8681 26.4152 11.1067M27.6177 9.42721H26.7548C26.6809 9.42721 26.618 9.48087 26.6064 9.55406L26.5685 9.79521L26.5081 9.70785C26.3213 9.43673 25.9047 9.3459 25.4889 9.3459C24.5357 9.3459 23.7214 10.0684 23.5629 11.0816C23.4805 11.5871 23.5976 12.0701 23.8842 12.4072C24.1475 12.7169 24.5231 12.8458 24.9708 12.8458C25.7393 12.8458 26.1654 12.3524 26.1654 12.3524L26.1268 12.5921C26.1124 12.6832 26.1828 12.7657 26.2753 12.7657H27.0522C27.1755 12.7657 27.2803 12.6762 27.2996 12.5545L27.7661 9.60075C27.7805 9.50968 27.7099 9.42721 27.6177 9.42721" fill="#0079C1"/>
<path fill-rule="evenodd" clip-rule="evenodd" d="M19.3612 9.42723H18.4939C18.411 9.42723 18.3334 9.46836 18.2869 9.53712L17.0905 11.2991L16.5835 9.60589C16.5517 9.49995 16.4541 9.42723 16.3435 9.42723H15.4912C15.3882 9.42723 15.3157 9.52853 15.349 9.62587L16.3038 12.4291L15.4057 13.6964C15.3353 13.7958 15.4064 13.9333 15.5283 13.9333H16.3947C16.4767 13.9333 16.5536 13.8932 16.6005 13.8258L19.4845 9.66304C19.5535 9.56338 19.4824 9.42723 19.3612 9.42723" fill="#00457C"/>
<path fill-rule="evenodd" clip-rule="evenodd" d="M28.6344 7.88734L27.8949 12.5923C27.8805 12.6834 27.9509 12.7659 28.0432 12.7659H28.7871C28.9102 12.7659 29.0152 12.6762 29.0342 12.5545L29.7635 7.93404C29.7779 7.84297 29.7075 7.76049 29.6151 7.76049H28.7829C28.7088 7.76049 28.6458 7.81416 28.6344 7.88734" fill="#0079C1"/>
</svg>
