<svg width="64" height="65" viewBox="0 0 64 65" fill="none" xmlns="http://www.w3.org/2000/svg">
<path fill-rule="evenodd" clip-rule="evenodd" d="M61.7143 13.837H14.2857C13.6545 13.837 13.1429 14.358 13.1429 15.0006V49.9097C13.1429 50.5524 13.6545 51.0733 14.2857 51.0733H61.7143C62.3455 51.0733 62.8571 50.5524 62.8571 49.9097V15.0006C62.8571 14.358 62.3455 13.837 61.7143 13.837ZM14.2857 12.6733C13.0233 12.6733 12 13.7153 12 15.0006V49.9097C12 51.195 13.0233 52.237 14.2857 52.237H61.7143C62.9767 52.237 64 51.195 64 49.9097V15.0006C64 13.7153 62.9767 12.6733 61.7143 12.6733H14.2857Z" fill="white"/>
<path fill-rule="evenodd" clip-rule="evenodd" d="M47.4287 63.8733C47.4287 64.1946 47.1729 64.4551 46.8573 64.4551H28.0001C27.6845 64.4551 27.4287 64.1946 27.4287 63.8733C27.4287 63.5519 27.6845 63.2914 28.0001 63.2914H46.8573C47.1729 63.2914 47.4287 63.5519 47.4287 63.8733Z" fill="white"/>
<path fill-rule="evenodd" clip-rule="evenodd" d="M30.8573 53.9824C31.1729 53.9824 31.4287 54.2429 31.4287 54.5642L31.4287 63.2915C31.4287 63.6128 31.1729 63.8733 30.8573 63.8733C30.5417 63.8733 30.2859 63.6128 30.2859 63.2915L30.2859 54.5642C30.2859 54.2429 30.5417 53.9824 30.8573 53.9824Z" fill="white"/>
<path fill-rule="evenodd" clip-rule="evenodd" d="M43.4286 53.9824C43.7442 53.9824 44 54.2429 44 54.5642L44 63.2915C44 63.6128 43.7442 63.8733 43.4286 63.8733C43.113 63.8733 42.8571 63.6128 42.8571 63.2915L42.8571 54.5642C42.8571 54.2429 43.113 53.9824 43.4286 53.9824Z" fill="white"/>
<path fill-rule="evenodd" clip-rule="evenodd" d="M63.4282 48.1643C63.4282 48.4856 63.1724 48.7461 62.8568 48.7461L16.5711 48.7461C16.2555 48.7461 15.9997 48.4856 15.9997 48.1643C15.9997 47.8429 16.2555 47.5825 16.5711 47.5825L62.8568 47.5825C63.1724 47.5825 63.4282 47.8429 63.4282 48.1643Z" fill="white"/>
<path fill-rule="evenodd" clip-rule="evenodd" d="M60 16.7461C60 17.0674 59.7442 17.3279 59.4286 17.3279L13.1429 17.3279C12.8273 17.3279 12.5714 17.0674 12.5714 16.7461C12.5714 16.4247 12.8273 16.1642 13.1429 16.1642L59.4286 16.1642C59.7442 16.1642 60 16.4247 60 16.7461Z" fill="white"/>
<path fill-rule="evenodd" clip-rule="evenodd" d="M2.85714 0.455078C1.27919 0.455078 0 1.75752 0 3.36417V61.2551C0 62.8617 1.27919 64.1642 2.85714 64.1642H23.1429C24.7208 64.1642 26 62.8617 26 61.2551V54.2733C26 53.9519 25.7442 53.6914 25.4286 53.6914C25.113 53.6914 24.8571 53.9519 24.8571 54.2733V61.2551C24.8571 62.2191 24.0896 63.0005 23.1429 63.0005H2.85714C1.91037 63.0005 1.14286 62.2191 1.14286 61.2551V3.36417C1.14286 2.40018 1.91037 1.61871 2.85714 1.61871H23.1429C24.0896 1.61871 24.8571 2.40018 24.8571 3.36417V11.2187C24.8571 11.54 25.113 11.8005 25.4286 11.8005C25.7442 11.8005 26 11.54 26 11.2187V3.36417C26 1.75752 24.7208 0.455078 23.1429 0.455078H2.85714ZM5.14286 6.56417C4.19608 6.56417 3.42857 7.34564 3.42857 8.30962V12.3824C3.42857 13.3463 4.19608 14.1278 5.14286 14.1278H9.71429C10.0299 14.1278 10.2857 13.8673 10.2857 13.546C10.2857 13.2247 10.0299 12.9642 9.71429 12.9642H5.14286C4.82727 12.9642 4.57143 12.7037 4.57143 12.3824V8.30962C4.57143 7.98829 4.82727 7.72781 5.14286 7.72781H22.2857C22.6013 7.72781 22.8571 7.46732 22.8571 7.14599C22.8571 6.82466 22.6013 6.56417 22.2857 6.56417H5.14286ZM3.42857 17.9096C3.42857 16.9456 4.19608 16.1642 5.14286 16.1642H9.71428C10.0299 16.1642 10.2857 16.4247 10.2857 16.746C10.2857 17.0673 10.0299 17.3278 9.71428 17.3278H5.14286C4.82727 17.3278 4.57143 17.5883 4.57143 17.9096V21.9824C4.57143 22.3037 4.82727 22.5642 5.14286 22.5642H9.71428C10.0299 22.5642 10.2857 22.8247 10.2857 23.146C10.2857 23.4673 10.0299 23.7278 9.71428 23.7278H5.14286C4.19608 23.7278 3.42857 22.9463 3.42857 21.9824V17.9096ZM2.85714 40.6005C2.85714 41.5645 3.62466 42.346 4.57143 42.346H8.57143C9.5182 42.346 10.2857 41.5645 10.2857 40.6005V38.2733C10.2857 37.9519 10.0299 37.6914 9.71429 37.6914C9.39869 37.6914 9.14286 37.9519 9.14286 38.2733V40.6005C9.14286 40.9219 8.88702 41.1824 8.57143 41.1824H4.57143C4.25584 41.1824 4 40.9219 4 40.6005V38.2733C4 37.9519 3.74416 37.6914 3.42857 37.6914C3.11298 37.6914 2.85714 37.9519 2.85714 38.2733L2.85714 40.6005ZM4.57143 48.746C3.62466 48.746 2.85714 47.9645 2.85714 47.0005L2.85714 44.6733C2.85714 44.3519 3.11298 44.0914 3.42857 44.0914C3.74416 44.0914 4 44.3519 4 44.6733V47.0005C4 47.3219 4.25584 47.5824 4.57143 47.5824H8.57143C8.88702 47.5824 9.14286 47.3219 9.14286 47.0005V44.6733C9.14286 44.3519 9.39869 44.0914 9.71429 44.0914C10.0299 44.0914 10.2857 44.3519 10.2857 44.6733V47.0005C10.2857 47.9645 9.5182 48.746 8.57143 48.746H4.57143ZM4 54.5642C4 53.1568 4.98158 51.9828 6.28571 51.7133V54.5642C6.28571 54.8855 6.54155 55.146 6.85714 55.146C7.17273 55.146 7.42857 54.8855 7.42857 54.5642V51.7133C8.73271 51.9828 9.71428 53.1568 9.71428 54.5642C9.71428 56.1708 8.4351 57.4733 6.85714 57.4733C5.27919 57.4733 4 56.1708 4 54.5642ZM2.85714 54.5642C2.85714 52.3149 4.648 50.4914 6.85714 50.4914C9.06628 50.4914 10.8571 52.3149 10.8571 54.5642C10.8571 56.8135 9.06628 58.6369 6.85714 58.6369C4.648 58.6369 2.85714 56.8135 2.85714 54.5642ZM3.42857 60.0914C3.11298 60.0914 2.85714 60.3519 2.85714 60.6733C2.85714 60.9946 3.11298 61.2551 3.42857 61.2551H22.2857C22.6013 61.2551 22.8571 60.9946 22.8571 60.6733C22.8571 60.3519 22.6013 60.0914 22.2857 60.0914H3.42857Z" fill="url(#paint0_linear)"/>
<defs>
<linearGradient id="paint0_linear" x1="13" y1="0.455078" x2="13" y2="64.1642" gradientUnits="userSpaceOnUse">
<stop stop-color="#E518FB"/>
<stop offset="1" stop-color="#7E42F5"/>
</linearGradient>
</defs>
</svg>
