<svg width="52" height="40" viewBox="0 0 52 40" fill="none" xmlns="http://www.w3.org/2000/svg">
<path fill-rule="evenodd" clip-rule="evenodd" d="M3.89027 34.0348C-0.196125 32.8815 -0.87863 30.4797 0.983141 29.1039C2.70236 27.8253 5.63757 26.862 5.63757 26.862L17.7391 22.5618V27.4646L9.03066 30.5769C7.4907 31.1277 7.25744 31.9117 8.50798 32.3242C9.75852 32.7367 12.0263 32.6223 13.5641 32.0629L17.7391 30.5424V34.9333C13.0976 35.7713 8.61597 35.592 3.89027 34.0348M31.187 22.2981V9.7905C31.187 8.32397 30.917 6.97408 29.539 6.58747C28.4872 6.24406 27.8285 7.22462 27.8285 8.6933V40L19.3879 37.3197V0C22.9797 0.665227 28.2064 2.23974 31.0164 3.18575C38.1676 5.64147 40.5887 8.70194 40.5887 15.5853C40.5887 22.2916 36.4483 24.8359 31.187 22.2981M51.3792 30.6237C50.362 31.9002 47.8868 32.8095 47.8868 32.8095L29.4311 39.4315V34.546L43.0099 29.7037C44.5477 29.1551 44.7918 28.3732 43.5326 27.9585C42.2799 27.5438 40.0142 27.6626 38.4743 28.2199L29.4311 31.4142V26.3387C31.5175 25.6367 33.6687 25.114 36.2432 24.8268C39.9235 24.4229 44.4246 24.8829 47.9581 26.222C51.9365 27.4834 52.3857 29.3451 51.3792 30.6237" fill="white"/>
</svg>
