<svg width="80" height="60" viewBox="0 0 80 60" fill="none" xmlns="http://www.w3.org/2000/svg">
<path fill-rule="evenodd" clip-rule="evenodd" d="M22.339 26.919C19.1497 26.0188 18.617 24.1443 20.0701 23.0705C21.4119 22.0725 23.7028 21.3207 23.7028 21.3207L33.1479 17.9644V21.791L26.3511 24.2201C25.1491 24.65 24.9671 25.2619 25.9431 25.5839C26.9191 25.9059 28.6891 25.8165 29.8894 25.3799L33.1479 24.1932V27.6202C29.5253 28.2743 26.0274 28.1344 22.339 26.919M43.6438 17.7585V7.99647C43.6438 6.85186 43.4331 5.79829 42.3576 5.49654C41.5367 5.22852 41.0225 5.99383 41.0225 7.14012V31.5746L34.4347 29.4826V0.355103C37.2381 0.874304 41.3175 2.10319 43.5106 2.84154C49.092 4.7582 50.9817 7.14686 50.9817 12.5192C50.9817 17.7534 47.7502 19.7392 43.6438 17.7585M59.4036 24.2566C58.6096 25.2528 56.6778 25.9625 56.6778 25.9625L42.2733 31.1309V27.3178L52.8714 23.5385C54.0717 23.1103 54.2622 22.5001 53.2794 22.1764C52.3017 21.8527 50.5333 21.9455 49.3314 22.3804L42.2733 24.8736V20.9121C43.9017 20.3643 45.5807 19.9563 47.5901 19.7321C50.4625 19.4169 53.9756 19.7759 56.7334 20.8211C59.8385 21.8055 60.1891 23.2586 59.4036 24.2566" fill="white"/>
<path d="M76.3653 59.8334H76.6064V58.2556H77.1773V58.0513H75.7939V58.2556H76.3653V59.8334Z" fill="white"/>
<path d="M77.6406 58.3854L78.1207 59.8334H78.3594L78.8395 58.3854V59.8334H79.0387V58.0513H78.7483L78.2483 59.5733L77.7318 58.0513H77.3994V59.8334H77.6406V58.3854Z" fill="white"/>
<path d="M37.9984 55.5641V48.195C37.9984 46.6917 38.7 45.6152 40.1965 45.6152H49.427C49.4836 45.6152 49.5379 45.5591 49.5379 45.5036V44.0374C49.5379 44.0246 49.5342 44.012 49.5293 44H38.243C35.7967 44.311 34.6016 46.0159 34.6016 48.195V55.5638C34.6016 57.0671 33.8804 58.1439 32.4038 58.1439H22.6558C22.6005 58.1439 22.5449 58.181 22.5449 58.2553V59.7217C22.5449 59.7824 22.5823 59.8289 22.626 59.8444H33.6935C36.5782 59.7687 37.9984 57.9271 37.9984 55.5641Z" fill="white"/>
<path d="M0.0762053 59.8446H3.31711C3.36087 59.8291 3.39824 59.7827 3.39824 59.722V55.0257C3.39824 53.5224 4.24737 52.4827 5.48444 52.4827H18.8338C21.8434 52.4827 23.3022 50.6266 23.3022 48.195C23.3022 46.0159 22.1081 44.311 19.6606 44H0.0162195C0.0105652 44.0123 0.000978286 44.0219 0.000978286 44.0374V45.5036C0.000978286 45.5778 0.0378535 45.6152 0.111606 45.6152H17.7074C19.203 45.6152 19.9047 46.6917 19.9047 48.195C19.9047 49.6986 19.203 50.7751 17.7074 50.7751H3.78593C1.62573 50.7751 0.000978286 52.613 0.000978286 55.0257V59.722C0.000732446 59.7827 0.0267914 59.8289 0.0762053 59.8446Z" fill="white"/>
<path d="M49.4832 58.1442H67.2082C67.2625 58.1442 67.2994 58.1813 67.2994 58.2184V59.722C67.2994 59.7962 67.356 59.8333 67.4103 59.8333H70.6052C70.6618 59.8333 70.7156 59.7962 70.7156 59.722V58.2555C70.7156 58.1997 70.7722 58.1442 70.8265 58.1442H74.0018C74.0758 58.1442 74.1126 58.0883 74.1126 58.033V56.5479C74.1126 56.4921 74.0758 56.4366 74.0018 56.4366H70.8265C70.7722 56.4366 70.7156 56.3807 70.7156 56.3252V45.6152C70.7156 44.7412 70.3909 44.1846 69.8449 44H68.9205C68.6324 44.074 68.3192 44.2065 67.9834 44.4083L48.8924 56.1951C48.1539 56.659 47.895 57.1785 48.0799 57.5684C48.2274 57.9027 48.651 58.1442 49.4832 58.1442ZM52.2521 56.1767L67.041 47.0258C67.1342 46.9516 67.3191 46.9702 67.3191 47.1743V56.3252C67.3191 56.381 67.2625 56.4366 67.2082 56.4366H52.3435C52.2154 56.4366 52.1586 56.3997 52.1414 56.3623C52.1215 56.2881 52.1584 56.2323 52.2521 56.1767Z" fill="white"/>
</svg>
