<svg width="80" height="60" viewBox="0 0 80 60" fill="none" xmlns="http://www.w3.org/2000/svg">
<path fill-rule="evenodd" clip-rule="evenodd" d="M22.4045 26.919C19.2151 26.0188 18.6824 24.1443 20.1355 23.0705C21.4773 22.0725 23.7682 21.3207 23.7682 21.3207L33.2133 17.9644V21.791L26.4165 24.2201C25.2146 24.65 25.0325 25.2619 26.0085 25.5839C26.9846 25.9059 28.7546 25.8165 29.9548 25.3799L33.2133 24.1932V27.6202C29.5907 28.2743 26.0928 28.1344 22.4045 26.919M43.7092 17.7585V7.99647C43.7092 6.85186 43.4985 5.79829 42.423 5.49654C41.6021 5.22852 41.0879 5.99383 41.0879 7.14012V31.5746L34.5002 29.4826V0.355103C37.3035 0.874304 41.3829 2.10319 43.5761 2.84154C49.1575 4.7582 51.0472 7.14686 51.0472 12.5192C51.0472 17.7534 47.8156 19.7392 43.7092 17.7585M59.469 24.2566C58.6751 25.2528 56.7432 25.9625 56.7432 25.9625L42.3388 31.1309V27.3178L52.9369 23.5385C54.1371 23.1103 54.3276 22.5001 53.3448 22.1764C52.3671 21.8527 50.5988 21.9455 49.3969 22.3804L42.3388 24.8736V20.9121C43.9672 20.3643 45.6461 19.9563 47.6555 19.7321C50.528 19.4169 54.041 19.7759 56.7989 20.8211C59.9039 21.8055 60.2546 23.2586 59.469 24.2566" fill="white"/>
<path d="M76.7983 59.9988H76.561V58.3738H76.0173V58.1464H77.3444V58.3738H76.8007L76.7983 59.9988ZM78.443 59.5687L78.9509 58.1464H79.3216V60H79.0744V58.4504L78.5122 59.9988H78.3614L77.8017 58.4504V59.9988H77.5669V58.1452H77.9376L78.443 59.5687ZM73.6373 44H50.9002V50.1637C50.9002 50.1637 50.831 52.5437 53.7745 52.5437H67.6725C68.2177 52.5393 68.7578 52.6491 69.2579 52.8662C70.034 53.2122 70.9064 53.9166 70.9064 55.3377C70.9064 56.6129 70.2885 57.337 69.6768 57.7424C69.1704 58.0695 68.5794 58.2413 67.9765 58.2366H50.9002V59.9666H69.9413C69.9413 59.9666 74.2663 59.7912 74.2663 55.3463C74.2663 53.0862 72.9465 51.9666 71.759 51.418C70.9917 51.0655 70.1567 50.8846 69.3123 50.8879H55.5378C55.3083 50.8909 55.0816 50.837 54.878 50.7309C54.5839 50.5715 54.2601 50.2552 54.2601 49.6324V45.7065H73.6373V44ZM22.2824 58.2305V59.9605H31.9333C33.0868 59.9727 34.2059 59.5676 35.0843 58.8199C35.5374 58.4353 35.8988 57.9544 36.1422 57.4122C36.3855 56.87 36.5045 56.2803 36.4906 55.6861V48.3324C36.4856 47.9303 36.572 47.5322 36.7432 47.1684C36.9145 46.8045 37.1661 46.4842 37.4791 46.2317C37.9234 45.8839 38.4732 45.6986 39.0374 45.7065H47.4513V44H37.4309C37.4309 44 33.106 44.0692 33.106 48.6438V55.5107C33.1136 56.073 32.9619 56.6261 32.6685 57.106C32.4562 57.4608 32.153 57.7525 31.7902 57.9509C31.4274 58.1492 31.0182 58.247 30.6049 58.2342L22.2824 58.2305ZM0 44V45.7065H17.2011C17.6796 45.7024 18.153 45.8041 18.5876 46.0043C19.2697 46.3244 20.0358 46.983 20.0358 48.3188C20.0358 49.6163 19.2697 50.2651 18.5876 50.5863C18.1458 50.7891 17.6649 50.892 17.1789 50.8879H4.42138C3.66622 50.8808 2.91984 51.0501 2.24158 51.3821C1.18011 51.9147 0 53.169 0 55.2376V59.9333H3.31047V55.2586C3.30827 54.9545 3.36318 54.6527 3.47235 54.3689C3.74544 53.6682 4.43621 52.5437 6.05128 52.5437H18.915C19.3477 52.5461 19.7785 52.4882 20.1952 52.3719C21.3766 52.0358 23.3463 51.0646 23.3463 48.3188C23.3463 44.0519 19.0992 44 19.0992 44H0Z" fill="white"/>
</svg>
