<svg width="217" height="48" viewBox="0 0 217 48" fill="none" xmlns="http://www.w3.org/2000/svg">
<path d="M24 5C13.5064 5 5 13.5086 5 24C5 34.4957 13.5064 43 24 43C34.4936 43 43 34.4957 43 24C43 13.5086 34.4936 5 24 5ZM16.4298 16.525H27.3515L25.6931 19.1803H14.7714L16.4298 16.525ZM34.6774 29.7949L33.0167 27.144H28.1689L29.8317 24.4887H31.3626L29.5117 21.5328L24.3481 29.7928H10.5744L13.8913 24.4865H11.4566L13.1129 21.8312H23.7621L22.1037 24.4908H17.0245L15.3638 27.1461H22.8756L29.5117 16.525L37.8062 29.7971H34.6774V29.7949Z" fill="#FF4747"/>
<path d="M65.1 25.54C67.86 25.54 69.84 23.8 69.84 21.36C69.84 18.84 67.88 17 65.16 17H58.9V31H61.66V25.44L66.82 31H70.36L65.06 25.54H65.1ZM64.9 19.46C66.24 19.46 67.1 20.24 67.1 21.46C67.1 22.68 66.24 23.46 64.9 23.46H61.66V19.46H64.9ZM80.0877 28.02H77.2677C76.8477 28.64 76.1277 28.94 75.3477 28.94C73.9877 28.94 72.8677 28.1 72.5277 26.84H80.2277C80.2277 26.7 80.2477 26.58 80.2477 26.46C80.2477 22.62 77.5277 20.8 75.0477 20.8C72.1877 20.8 69.8677 22.98 69.8677 26C69.8677 29 72.3077 31.2 75.3077 31.2C77.5277 31.2 79.3277 29.94 80.0877 28.02ZM75.0477 23.02C76.2277 23.02 77.2677 23.84 77.4877 25.02H72.5477C72.8877 23.8 73.8677 23.02 75.0477 23.02ZM85.4927 31.4L91.2127 21.02H88.4927L85.5527 26.7L82.5927 21.02H79.7727L85.4927 31.4ZM93.0678 19.78C93.9678 19.78 94.7078 19.04 94.7078 18.14C94.7078 17.24 93.9678 16.5 93.0678 16.5C92.1878 16.5 91.4478 17.24 91.4478 18.14C91.4478 19.04 92.1878 19.78 93.0678 19.78ZM94.3478 21.02H91.8078V31H94.3478V21.02ZM105.888 28.02H103.068C102.648 28.64 101.928 28.94 101.148 28.94C99.7884 28.94 98.6684 28.1 98.3284 26.84H106.028C106.028 26.7 106.048 26.58 106.048 26.46C106.048 22.62 103.328 20.8 100.848 20.8C97.9884 20.8 95.6684 22.98 95.6684 26C95.6684 29 98.1084 31.2 101.108 31.2C103.328 31.2 105.128 29.94 105.888 28.02ZM100.848 23.02C102.028 23.02 103.068 23.84 103.288 25.02H98.3484C98.6884 23.8 99.6684 23.02 100.848 23.02ZM120.669 21.02H118.149L116.169 26L113.369 20.6L110.569 26L108.569 21.02H105.869L110.129 31.3L113.269 25.32L116.429 31.3L120.669 21.02ZM135.817 21.02H133.157L130.317 26.9L127.417 21.02H124.577L128.857 29.74L125.997 35.42H128.757L135.817 21.02ZM140.616 20.82C137.696 20.82 135.336 23 135.336 26.02C135.336 29.02 137.696 31.2 140.616 31.2C143.536 31.2 145.896 29.02 145.896 26.02C145.896 23 143.536 20.82 140.616 20.82ZM140.616 28.9C139.076 28.9 137.856 27.72 137.856 26.04C137.856 24.32 139.076 23.16 140.616 23.16C142.156 23.16 143.376 24.32 143.376 26.04C143.376 27.72 142.156 28.9 140.616 28.9ZM153.918 31H156.458V21.02H153.918V27.06C153.918 28.22 153.018 29.14 151.838 29.14C150.618 29.14 149.758 28.26 149.758 26.96V21.02H147.218V27.16C147.218 29.5 148.558 31.22 150.938 31.22C152.218 31.22 153.318 30.66 153.918 29.76V31ZM163.838 23.26V20.84C162.298 20.66 161.198 21.52 160.598 22.82V21.02H158.058V31H160.598V25.72C160.598 24.36 161.798 22.94 163.838 23.26ZM174.288 20.82C171.368 20.82 169.008 23 169.008 26.02C169.008 29.02 171.368 31.2 174.288 31.2C177.208 31.2 179.568 29.02 179.568 26.02C179.568 23 177.208 20.82 174.288 20.82ZM174.288 28.9C172.748 28.9 171.528 27.72 171.528 26.04C171.528 24.32 172.748 23.16 174.288 23.16C175.828 23.16 177.048 24.32 177.048 26.04C177.048 27.72 175.828 28.9 174.288 28.9ZM186.67 23.26V20.84C185.13 20.66 184.03 21.52 183.43 22.82V21.02H180.89V31H183.43V25.72C183.43 24.36 184.63 22.94 186.67 23.26ZM191.993 31.14C193.233 31.14 194.353 30.66 195.173 29.84V31H197.713V16.2L195.173 17V22.18C194.393 21.34 193.293 20.86 192.093 20.86C189.493 20.86 187.133 23.02 187.133 26C187.133 28.98 189.453 31.14 191.993 31.14ZM192.433 28.88C190.893 28.88 189.653 27.7 189.653 26C189.653 24.3 190.893 23.12 192.433 23.12C193.993 23.12 195.213 24.3 195.213 26C195.213 27.7 193.993 28.88 192.433 28.88ZM209.248 28.02H206.428C206.008 28.64 205.288 28.94 204.508 28.94C203.148 28.94 202.028 28.1 201.688 26.84H209.388C209.388 26.7 209.408 26.58 209.408 26.46C209.408 22.62 206.688 20.8 204.208 20.8C201.348 20.8 199.028 22.98 199.028 26C199.028 29 201.468 31.2 204.468 31.2C206.688 31.2 208.488 29.94 209.248 28.02ZM204.208 23.02C205.388 23.02 206.428 23.84 206.648 25.02H201.708C202.048 23.8 203.028 23.02 204.208 23.02ZM216.514 23.26V20.84C214.974 20.66 213.874 21.52 213.274 22.82V21.02H210.734V31H213.274V25.72C213.274 24.36 214.474 22.94 216.514 23.26Z" fill="white"/>
</svg>
