<svg width="62" height="36" viewBox="0 0 62 36" fill="none" xmlns="http://www.w3.org/2000/svg">
<path d="M6.89403 13.672C6.89403 14.056 6.81803 14.4 6.66603 14.704C6.52203 15.008 6.31803 15.264 6.05403 15.472C5.79803 15.68 5.49003 15.84 5.13003 15.952C4.77003 16.056 4.38203 16.108 3.96603 16.108C3.48603 16.108 3.04203 16.036 2.63403 15.892C2.22603 15.74 1.87003 15.536 1.56603 15.28C1.27003 15.016 1.03403 14.7 0.858031 14.332C0.690031 13.964 0.598031 13.564 0.582031 13.132H1.57803C1.62603 13.74 1.87403 14.236 2.32203 14.62C2.77803 14.996 3.33003 15.184 3.97803 15.184C4.22603 15.184 4.46203 15.156 4.68603 15.1C4.91803 15.036 5.11803 14.944 5.28603 14.824C5.46203 14.704 5.59803 14.556 5.69403 14.38C5.79803 14.196 5.85003 13.988 5.85003 13.756C5.85003 13.524 5.79003 13.332 5.67003 13.18C5.55003 13.02 5.39003 12.888 5.19003 12.784C4.99803 12.68 4.77003 12.592 4.50603 12.52C4.25003 12.448 3.98203 12.38 3.70203 12.316C3.35803 12.236 3.01003 12.148 2.65803 12.052C2.31403 11.948 2.00203 11.812 1.72203 11.644C1.44203 11.468 1.21403 11.244 1.03803 10.972C0.862031 10.692 0.774031 10.336 0.774031 9.90404C0.774031 9.58404 0.834031 9.28004 0.954031 8.99204C1.08203 8.69604 1.26203 8.44004 1.49403 8.22404C1.72603 8.00004 2.01403 7.82404 2.35803 7.69604C2.70203 7.56004 3.09003 7.49204 3.52203 7.49204C3.97803 7.49204 4.40203 7.56404 4.79403 7.70804C5.18603 7.84404 5.52603 8.03604 5.81403 8.28404C6.10203 8.53204 6.33003 8.83204 6.49803 9.18404C6.66603 9.52804 6.76203 9.90004 6.78603 10.3H5.77803C5.72203 9.74004 5.49403 9.28404 5.09403 8.93204C4.70203 8.58004 4.17803 8.40404 3.52203 8.40404C2.98603 8.40404 2.56603 8.54404 2.26203 8.82404C1.95803 9.10404 1.80603 9.44804 1.80603 9.85604C1.80603 10.08 1.85803 10.272 1.96203 10.432C2.07403 10.592 2.21803 10.724 2.39403 10.828C2.57003 10.932 2.77803 11.024 3.01803 11.104C3.25803 11.176 3.51003 11.24 3.77403 11.296C4.12603 11.384 4.48603 11.476 4.85403 11.572C5.23003 11.668 5.56603 11.8 5.86203 11.968C6.16603 12.128 6.41403 12.344 6.60603 12.616C6.79803 12.888 6.89403 13.24 6.89403 13.672Z" fill="white"/>
<path d="M9.27228 14.524V10.804H7.73628V9.94004H9.27228V8.51204L10.2683 8.15204V9.94004H12.0563V10.804H10.2683V14.476C10.2683 14.684 10.3243 14.844 10.4363 14.956C10.5483 15.06 10.7163 15.112 10.9403 15.112H12.0563V16H10.6883C10.2323 16 9.88028 15.876 9.63228 15.628C9.39228 15.372 9.27228 15.004 9.27228 14.524Z" fill="white"/>
<path d="M16.9416 16V14.944C16.7816 15.296 16.5256 15.58 16.1736 15.796C15.8296 16.004 15.4216 16.108 14.9496 16.108C14.3736 16.108 13.8976 15.948 13.5216 15.628C13.1536 15.3 12.9696 14.884 12.9696 14.38C12.9696 13.9 13.1496 13.512 13.5096 13.216C13.8696 12.912 14.3616 12.736 14.9856 12.688L16.9416 12.544V12.232C16.9416 11.792 16.8056 11.428 16.5336 11.14C16.2696 10.844 15.9376 10.696 15.5376 10.696C15.1136 10.696 14.7776 10.804 14.5296 11.02C14.2896 11.228 14.1296 11.52 14.0496 11.896H13.0536C13.1176 11.288 13.3816 10.792 13.8456 10.408C14.3096 10.016 14.8776 9.82004 15.5496 9.82004C16.2936 9.82004 16.8776 10.048 17.3016 10.504C17.7256 10.952 17.9376 11.524 17.9376 12.22V16H16.9416ZM13.9656 14.38C13.9656 14.636 14.0736 14.852 14.2896 15.028C14.5056 15.196 14.7896 15.28 15.1416 15.28C15.6296 15.28 16.0496 15.128 16.4016 14.824C16.7616 14.52 16.9416 14.164 16.9416 13.756V13.324L15.1776 13.456C14.8016 13.488 14.5056 13.584 14.2896 13.744C14.0736 13.896 13.9656 14.108 13.9656 14.38Z" fill="white"/>
<path d="M19.55 16V9.94004H20.558V11.164C20.75 10.644 21.042 10.272 21.434 10.048C21.826 9.81604 22.282 9.72804 22.802 9.78404V10.744C22.498 10.688 22.21 10.696 21.938 10.768C21.666 10.84 21.426 10.96 21.218 11.128C21.018 11.288 20.858 11.492 20.738 11.74C20.618 11.988 20.558 12.256 20.558 12.544V16H19.55Z" fill="white"/>
<path d="M25.0106 14.524V10.804H23.4746V9.94004H25.0106V8.51204L26.0066 8.15204V9.94004H27.7946V10.804H26.0066V14.476C26.0066 14.684 26.0626 14.844 26.1746 14.956C26.2866 15.06 26.4546 15.112 26.6786 15.112H27.7946V16H26.4266C25.9706 16 25.6186 15.876 25.3706 15.628C25.1306 15.372 25.0106 15.004 25.0106 14.524Z" fill="white"/>
<path d="M29.4759 8.92004C29.2759 8.92004 29.1039 8.84804 28.9599 8.70404C28.8159 8.55204 28.7439 8.37604 28.7439 8.17604C28.7439 7.97604 28.8159 7.80004 28.9599 7.64804C29.1039 7.49604 29.2759 7.42004 29.4759 7.42004C29.6759 7.42004 29.8479 7.49604 29.9919 7.64804C30.1359 7.80004 30.2079 7.97604 30.2079 8.17604C30.2079 8.37604 30.1359 8.55204 29.9919 8.70404C29.8479 8.84804 29.6759 8.92004 29.4759 8.92004ZM28.9719 16V9.94004H29.9799V16H28.9719Z" fill="white"/>
<path d="M32.5932 12.256V16H31.5852V9.94004H32.5932V11.128C32.7452 10.672 32.9852 10.344 33.3132 10.144C33.6492 9.93604 34.0052 9.83204 34.3812 9.83204C34.7172 9.83204 35.0172 9.89204 35.2812 10.012C35.5452 10.132 35.7692 10.3 35.9532 10.516C36.1372 10.724 36.2772 10.972 36.3732 11.26C36.4692 11.548 36.5172 11.856 36.5172 12.184V16H35.5092V12.28C35.5092 11.8 35.3772 11.416 35.1132 11.128C34.8572 10.84 34.5252 10.696 34.1172 10.696C33.6692 10.696 33.3012 10.848 33.0132 11.152C32.7332 11.448 32.5932 11.816 32.5932 12.256Z" fill="white"/>
<path d="M40.6562 16.06C40.2722 16.06 39.9122 15.984 39.5762 15.832C39.2402 15.672 38.9482 15.456 38.7002 15.184C38.4522 14.904 38.2562 14.572 38.1122 14.188C37.9682 13.804 37.8962 13.388 37.8962 12.94C37.8962 12.492 37.9682 12.08 38.1122 11.704C38.2562 11.32 38.4522 10.992 38.7002 10.72C38.9482 10.44 39.2402 10.224 39.5762 10.072C39.9202 9.91204 40.2842 9.83204 40.6682 9.83204C41.0842 9.83204 41.4722 9.93604 41.8322 10.144C42.1922 10.344 42.4922 10.62 42.7322 10.972V9.94004H43.7402V15.796C43.7402 16.276 43.6682 16.704 43.5242 17.08C43.3882 17.464 43.1922 17.78 42.9362 18.028C42.6882 18.284 42.3922 18.476 42.0482 18.604C41.7042 18.74 41.3282 18.808 40.9202 18.808C40.5842 18.808 40.2602 18.76 39.9482 18.664C39.6442 18.568 39.3682 18.436 39.1202 18.268C38.8722 18.1 38.6602 17.892 38.4842 17.644C38.3082 17.404 38.1842 17.14 38.1122 16.852H39.1922C39.2962 17.172 39.5082 17.428 39.8282 17.62C40.1562 17.812 40.5162 17.908 40.9082 17.908C41.4362 17.908 41.8722 17.732 42.2162 17.38C42.5602 17.036 42.7322 16.512 42.7322 15.808V14.92C42.4922 15.272 42.1882 15.552 41.8202 15.76C41.4602 15.96 41.0722 16.06 40.6562 16.06ZM40.8362 15.148C41.3642 15.148 41.8162 14.944 42.1922 14.536C42.5682 14.12 42.7562 13.588 42.7562 12.94C42.7562 12.3 42.5682 11.776 42.1922 11.368C41.8162 10.952 41.3642 10.744 40.8362 10.744C40.3002 10.744 39.8442 10.952 39.4682 11.368C39.0922 11.776 38.9042 12.3 38.9042 12.94C38.9042 13.588 39.0922 14.12 39.4682 14.536C39.8442 14.944 40.3002 15.148 40.8362 15.148Z" fill="white"/>
<path d="M51.758 16V14.944C51.598 15.296 51.342 15.58 50.99 15.796C50.646 16.004 50.238 16.108 49.766 16.108C49.19 16.108 48.714 15.948 48.338 15.628C47.97 15.3 47.786 14.884 47.786 14.38C47.786 13.9 47.966 13.512 48.326 13.216C48.686 12.912 49.178 12.736 49.802 12.688L51.758 12.544V12.232C51.758 11.792 51.622 11.428 51.35 11.14C51.086 10.844 50.754 10.696 50.354 10.696C49.93 10.696 49.594 10.804 49.346 11.02C49.106 11.228 48.946 11.52 48.866 11.896H47.87C47.934 11.288 48.198 10.792 48.662 10.408C49.126 10.016 49.694 9.82004 50.366 9.82004C51.11 9.82004 51.694 10.048 52.118 10.504C52.542 10.952 52.754 11.524 52.754 12.22V16H51.758ZM48.782 14.38C48.782 14.636 48.89 14.852 49.106 15.028C49.322 15.196 49.606 15.28 49.958 15.28C50.446 15.28 50.866 15.128 51.218 14.824C51.578 14.52 51.758 14.164 51.758 13.756V13.324L49.994 13.456C49.618 13.488 49.322 13.584 49.106 13.744C48.89 13.896 48.782 14.108 48.782 14.38Z" fill="white"/>
<path d="M55.2332 14.524V10.804H53.6972V9.94004H55.2332V8.51204L56.2292 8.15204V9.94004H58.0172V10.804H56.2292V14.476C56.2292 14.684 56.2852 14.844 56.3972 14.956C56.5092 15.06 56.6772 15.112 56.9012 15.112H58.0172V16H56.6492C56.1932 16 55.8412 15.876 55.5932 15.628C55.3532 15.372 55.2332 15.004 55.2332 14.524Z" fill="white"/>
<path d="M29.2596 32.9H30.3396V31.76C31.8156 31.64 32.9196 30.776 32.9196 29.42C32.9196 27.944 31.5756 27.536 30.3396 27.212V25.22C30.9276 25.436 31.3236 25.904 31.3836 26.54H32.8596C32.7636 25.184 31.7436 24.152 30.3396 23.876V22.892H29.2596V23.816C27.8676 23.924 26.8476 24.788 26.8236 26.12C26.8236 27.596 28.0716 28.052 29.2596 28.376V30.38C28.6356 30.152 28.2036 29.66 28.1556 28.988H26.6916C26.7876 30.392 27.7956 31.448 29.2596 31.712V32.9ZM28.3356 25.988C28.3356 25.52 28.7076 25.196 29.2596 25.112V26.912C28.7196 26.72 28.3356 26.456 28.3356 25.988ZM31.3956 29.6C31.3956 30.068 30.9516 30.392 30.3396 30.476V28.676C30.9516 28.868 31.3956 29.108 31.3956 29.6Z" fill="white"/>
<path d="M39.4871 23.6H34.7951L33.9791 28.028H36.5831C37.6151 28.028 38.2391 28.58 38.2391 29.408C38.2391 30.152 37.6151 30.764 36.8351 30.764C36.0071 30.764 35.4071 30.224 35.2871 29.36H33.7991C33.9431 30.98 35.1911 32.108 36.8231 32.108C38.4911 32.108 39.7511 30.92 39.7511 29.36C39.7511 27.74 38.5631 26.756 36.6071 26.756H35.5511L35.8871 24.944H38.9831L39.4871 23.6Z" fill="white"/>
<path d="M40.2785 26.42C40.2785 28.028 41.5865 29.168 43.1825 29.168C43.3745 29.168 43.5545 29.156 43.7105 29.132L41.5865 32.036H43.2665L45.4865 29.024C46.2785 27.944 46.5425 27.188 46.5425 26.372C46.5425 24.74 45.1385 23.492 43.3865 23.492C41.5745 23.492 40.2785 24.848 40.2785 26.42ZM43.3985 24.788C44.3585 24.788 45.0905 25.484 45.0905 26.396C45.0905 27.32 44.3585 28.016 43.3985 28.016C42.4385 28.016 41.7185 27.32 41.7185 26.396C41.7185 25.484 42.4385 24.788 43.3985 24.788Z" fill="white"/>
<path d="M47.433 30.092C46.905 30.092 46.461 30.536 46.461 31.076C46.461 31.616 46.905 32.06 47.433 32.06C47.973 32.06 48.417 31.616 48.417 31.076C48.417 30.536 47.973 30.092 47.433 30.092Z" fill="white"/>
<path d="M48.1118 26.42C48.1118 28.028 49.4198 29.168 51.0158 29.168C51.2078 29.168 51.3878 29.156 51.5438 29.132L49.4198 32.036H51.0998L53.3198 29.024C54.1118 27.944 54.3758 27.188 54.3758 26.372C54.3758 24.74 52.9718 23.492 51.2198 23.492C49.4078 23.492 48.1118 24.848 48.1118 26.42ZM51.2318 24.788C52.1918 24.788 52.9238 25.484 52.9238 26.396C52.9238 27.32 52.1918 28.016 51.2318 28.016C50.2718 28.016 49.5518 27.32 49.5518 26.396C49.5518 25.484 50.2718 24.788 51.2318 24.788Z" fill="white"/>
<path d="M55.4444 26.42C55.4444 28.028 56.7524 29.168 58.3484 29.168C58.5404 29.168 58.7204 29.156 58.8764 29.132L56.7524 32.036H58.4324L60.6524 29.024C61.4444 27.944 61.7084 27.188 61.7084 26.372C61.7084 24.74 60.3044 23.492 58.5524 23.492C56.7404 23.492 55.4444 24.848 55.4444 26.42ZM58.5644 24.788C59.5244 24.788 60.2564 25.484 60.2564 26.396C60.2564 27.32 59.5244 28.016 58.5644 28.016C57.6044 28.016 56.8844 27.32 56.8844 26.396C56.8844 25.484 57.6044 24.788 58.5644 24.788Z" fill="white"/>
</svg>
