<svg width="62" height="36" viewBox="0 0 62 36" fill="none" xmlns="http://www.w3.org/2000/svg">
<path d="M6.89403 13.672C6.89403 14.056 6.81803 14.4 6.66603 14.704C6.52203 15.008 6.31803 15.264 6.05403 15.472C5.79803 15.68 5.49003 15.84 5.13003 15.952C4.77003 16.056 4.38203 16.108 3.96603 16.108C3.48603 16.108 3.04203 16.036 2.63403 15.892C2.22603 15.74 1.87003 15.536 1.56603 15.28C1.27003 15.016 1.03403 14.7 0.858031 14.332C0.690031 13.964 0.598031 13.564 0.582031 13.132H1.57803C1.62603 13.74 1.87403 14.236 2.32203 14.62C2.77803 14.996 3.33003 15.184 3.97803 15.184C4.22603 15.184 4.46203 15.156 4.68603 15.1C4.91803 15.036 5.11803 14.944 5.28603 14.824C5.46203 14.704 5.59803 14.556 5.69403 14.38C5.79803 14.196 5.85003 13.988 5.85003 13.756C5.85003 13.524 5.79003 13.332 5.67003 13.18C5.55003 13.02 5.39003 12.888 5.19003 12.784C4.99803 12.68 4.77003 12.592 4.50603 12.52C4.25003 12.448 3.98203 12.38 3.70203 12.316C3.35803 12.236 3.01003 12.148 2.65803 12.052C2.31403 11.948 2.00203 11.812 1.72203 11.644C1.44203 11.468 1.21403 11.244 1.03803 10.972C0.862031 10.692 0.774031 10.336 0.774031 9.90404C0.774031 9.58404 0.834031 9.28004 0.954031 8.99204C1.08203 8.69604 1.26203 8.44004 1.49403 8.22404C1.72603 8.00004 2.01403 7.82404 2.35803 7.69604C2.70203 7.56004 3.09003 7.49204 3.52203 7.49204C3.97803 7.49204 4.40203 7.56404 4.79403 7.70804C5.18603 7.84404 5.52603 8.03604 5.81403 8.28404C6.10203 8.53204 6.33003 8.83204 6.49803 9.18404C6.66603 9.52804 6.76203 9.90004 6.78603 10.3H5.77803C5.72203 9.74004 5.49403 9.28404 5.09403 8.93204C4.70203 8.58004 4.17803 8.40404 3.52203 8.40404C2.98603 8.40404 2.56603 8.54404 2.26203 8.82404C1.95803 9.10404 1.80603 9.44804 1.80603 9.85604C1.80603 10.08 1.85803 10.272 1.96203 10.432C2.07403 10.592 2.21803 10.724 2.39403 10.828C2.57003 10.932 2.77803 11.024 3.01803 11.104C3.25803 11.176 3.51003 11.24 3.77403 11.296C4.12603 11.384 4.48603 11.476 4.85403 11.572C5.23003 11.668 5.56603 11.8 5.86203 11.968C6.16603 12.128 6.41403 12.344 6.60603 12.616C6.79803 12.888 6.89403 13.24 6.89403 13.672Z" fill="white"/>
<path d="M9.27228 14.524V10.804H7.73628V9.94004H9.27228V8.51204L10.2683 8.15204V9.94004H12.0563V10.804H10.2683V14.476C10.2683 14.684 10.3243 14.844 10.4363 14.956C10.5483 15.06 10.7163 15.112 10.9403 15.112H12.0563V16H10.6883C10.2323 16 9.88028 15.876 9.63228 15.628C9.39228 15.372 9.27228 15.004 9.27228 14.524Z" fill="white"/>
<path d="M16.9416 16V14.944C16.7816 15.296 16.5256 15.58 16.1736 15.796C15.8296 16.004 15.4216 16.108 14.9496 16.108C14.3736 16.108 13.8976 15.948 13.5216 15.628C13.1536 15.3 12.9696 14.884 12.9696 14.38C12.9696 13.9 13.1496 13.512 13.5096 13.216C13.8696 12.912 14.3616 12.736 14.9856 12.688L16.9416 12.544V12.232C16.9416 11.792 16.8056 11.428 16.5336 11.14C16.2696 10.844 15.9376 10.696 15.5376 10.696C15.1136 10.696 14.7776 10.804 14.5296 11.02C14.2896 11.228 14.1296 11.52 14.0496 11.896H13.0536C13.1176 11.288 13.3816 10.792 13.8456 10.408C14.3096 10.016 14.8776 9.82004 15.5496 9.82004C16.2936 9.82004 16.8776 10.048 17.3016 10.504C17.7256 10.952 17.9376 11.524 17.9376 12.22V16H16.9416ZM13.9656 14.38C13.9656 14.636 14.0736 14.852 14.2896 15.028C14.5056 15.196 14.7896 15.28 15.1416 15.28C15.6296 15.28 16.0496 15.128 16.4016 14.824C16.7616 14.52 16.9416 14.164 16.9416 13.756V13.324L15.1776 13.456C14.8016 13.488 14.5056 13.584 14.2896 13.744C14.0736 13.896 13.9656 14.108 13.9656 14.38Z" fill="white"/>
<path d="M19.55 16V9.94004H20.558V11.164C20.75 10.644 21.042 10.272 21.434 10.048C21.826 9.81604 22.282 9.72804 22.802 9.78404V10.744C22.498 10.688 22.21 10.696 21.938 10.768C21.666 10.84 21.426 10.96 21.218 11.128C21.018 11.288 20.858 11.492 20.738 11.74C20.618 11.988 20.558 12.256 20.558 12.544V16H19.55Z" fill="white"/>
<path d="M25.0106 14.524V10.804H23.4746V9.94004H25.0106V8.51204L26.0066 8.15204V9.94004H27.7946V10.804H26.0066V14.476C26.0066 14.684 26.0626 14.844 26.1746 14.956C26.2866 15.06 26.4546 15.112 26.6786 15.112H27.7946V16H26.4266C25.9706 16 25.6186 15.876 25.3706 15.628C25.1306 15.372 25.0106 15.004 25.0106 14.524Z" fill="white"/>
<path d="M29.4759 8.92004C29.2759 8.92004 29.1039 8.84804 28.9599 8.70404C28.8159 8.55204 28.7439 8.37604 28.7439 8.17604C28.7439 7.97604 28.8159 7.80004 28.9599 7.64804C29.1039 7.49604 29.2759 7.42004 29.4759 7.42004C29.6759 7.42004 29.8479 7.49604 29.9919 7.64804C30.1359 7.80004 30.2079 7.97604 30.2079 8.17604C30.2079 8.37604 30.1359 8.55204 29.9919 8.70404C29.8479 8.84804 29.6759 8.92004 29.4759 8.92004ZM28.9719 16V9.94004H29.9799V16H28.9719Z" fill="white"/>
<path d="M32.5932 12.256V16H31.5852V9.94004H32.5932V11.128C32.7452 10.672 32.9852 10.344 33.3132 10.144C33.6492 9.93604 34.0052 9.83204 34.3812 9.83204C34.7172 9.83204 35.0172 9.89204 35.2812 10.012C35.5452 10.132 35.7692 10.3 35.9532 10.516C36.1372 10.724 36.2772 10.972 36.3732 11.26C36.4692 11.548 36.5172 11.856 36.5172 12.184V16H35.5092V12.28C35.5092 11.8 35.3772 11.416 35.1132 11.128C34.8572 10.84 34.5252 10.696 34.1172 10.696C33.6692 10.696 33.3012 10.848 33.0132 11.152C32.7332 11.448 32.5932 11.816 32.5932 12.256Z" fill="white"/>
<path d="M40.6562 16.06C40.2722 16.06 39.9122 15.984 39.5762 15.832C39.2402 15.672 38.9482 15.456 38.7002 15.184C38.4522 14.904 38.2562 14.572 38.1122 14.188C37.9682 13.804 37.8962 13.388 37.8962 12.94C37.8962 12.492 37.9682 12.08 38.1122 11.704C38.2562 11.32 38.4522 10.992 38.7002 10.72C38.9482 10.44 39.2402 10.224 39.5762 10.072C39.9202 9.91204 40.2842 9.83204 40.6682 9.83204C41.0842 9.83204 41.4722 9.93604 41.8322 10.144C42.1922 10.344 42.4922 10.62 42.7322 10.972V9.94004H43.7402V15.796C43.7402 16.276 43.6682 16.704 43.5242 17.08C43.3882 17.464 43.1922 17.78 42.9362 18.028C42.6882 18.284 42.3922 18.476 42.0482 18.604C41.7042 18.74 41.3282 18.808 40.9202 18.808C40.5842 18.808 40.2602 18.76 39.9482 18.664C39.6442 18.568 39.3682 18.436 39.1202 18.268C38.8722 18.1 38.6602 17.892 38.4842 17.644C38.3082 17.404 38.1842 17.14 38.1122 16.852H39.1922C39.2962 17.172 39.5082 17.428 39.8282 17.62C40.1562 17.812 40.5162 17.908 40.9082 17.908C41.4362 17.908 41.8722 17.732 42.2162 17.38C42.5602 17.036 42.7322 16.512 42.7322 15.808V14.92C42.4922 15.272 42.1882 15.552 41.8202 15.76C41.4602 15.96 41.0722 16.06 40.6562 16.06ZM40.8362 15.148C41.3642 15.148 41.8162 14.944 42.1922 14.536C42.5682 14.12 42.7562 13.588 42.7562 12.94C42.7562 12.3 42.5682 11.776 42.1922 11.368C41.8162 10.952 41.3642 10.744 40.8362 10.744C40.3002 10.744 39.8442 10.952 39.4682 11.368C39.0922 11.776 38.9042 12.3 38.9042 12.94C38.9042 13.588 39.0922 14.12 39.4682 14.536C39.8442 14.944 40.3002 15.148 40.8362 15.148Z" fill="white"/>
<path d="M51.758 16V14.944C51.598 15.296 51.342 15.58 50.99 15.796C50.646 16.004 50.238 16.108 49.766 16.108C49.19 16.108 48.714 15.948 48.338 15.628C47.97 15.3 47.786 14.884 47.786 14.38C47.786 13.9 47.966 13.512 48.326 13.216C48.686 12.912 49.178 12.736 49.802 12.688L51.758 12.544V12.232C51.758 11.792 51.622 11.428 51.35 11.14C51.086 10.844 50.754 10.696 50.354 10.696C49.93 10.696 49.594 10.804 49.346 11.02C49.106 11.228 48.946 11.52 48.866 11.896H47.87C47.934 11.288 48.198 10.792 48.662 10.408C49.126 10.016 49.694 9.82004 50.366 9.82004C51.11 9.82004 51.694 10.048 52.118 10.504C52.542 10.952 52.754 11.524 52.754 12.22V16H51.758ZM48.782 14.38C48.782 14.636 48.89 14.852 49.106 15.028C49.322 15.196 49.606 15.28 49.958 15.28C50.446 15.28 50.866 15.128 51.218 14.824C51.578 14.52 51.758 14.164 51.758 13.756V13.324L49.994 13.456C49.618 13.488 49.322 13.584 49.106 13.744C48.89 13.896 48.782 14.108 48.782 14.38Z" fill="white"/>
<path d="M55.2332 14.524V10.804H53.6972V9.94004H55.2332V8.51204L56.2292 8.15204V9.94004H58.0172V10.804H56.2292V14.476C56.2292 14.684 56.2852 14.844 56.3972 14.956C56.5092 15.06 56.6772 15.112 56.9012 15.112H58.0172V16H56.6492C56.1932 16 55.8412 15.876 55.5932 15.628C55.3532 15.372 55.2332 15.004 55.2332 14.524Z" fill="white"/>
<path d="M14.3721 32.9H15.4521V31.76C16.9281 31.64 18.0321 30.776 18.0321 29.42C18.0321 27.944 16.6881 27.536 15.4521 27.212V25.22C16.0401 25.436 16.4361 25.904 16.4961 26.54H17.9721C17.8761 25.184 16.8561 24.152 15.4521 23.876V22.892H14.3721V23.816C12.9801 23.924 11.9601 24.788 11.9361 26.12C11.9361 27.596 13.1841 28.052 14.3721 28.376V30.38C13.7481 30.152 13.3161 29.66 13.2681 28.988H11.8041C11.9001 30.392 12.9081 31.448 14.3721 31.712V32.9ZM13.4481 25.988C13.4481 25.52 13.8201 25.196 14.3721 25.112V26.912C13.8321 26.72 13.4481 26.456 13.4481 25.988ZM16.5081 29.6C16.5081 30.068 16.0641 30.392 15.4521 30.476V28.676C16.0641 28.868 16.5081 29.108 16.5081 29.6Z" fill="white"/>
<path d="M23.1476 26.78V28.796H20.6396L23.6636 23.564H22.1276L18.3716 30.116H23.1476V32H24.6476V30.116H25.5476V28.796H24.6476V26.78H23.1476Z" fill="white"/>
<path d="M27.0124 30.092C26.4844 30.092 26.0404 30.536 26.0404 31.076C26.0404 31.616 26.4844 32.06 27.0124 32.06C27.5524 32.06 27.9964 31.616 27.9964 31.076C27.9964 30.536 27.5524 30.092 27.0124 30.092Z" fill="white"/>
<path d="M27.3312 26.42C27.3312 28.028 28.6392 29.168 30.2352 29.168C30.4272 29.168 30.6072 29.156 30.7632 29.132L28.6392 32.036H30.3192L32.5392 29.024C33.3312 27.944 33.5952 27.188 33.5952 26.372C33.5952 24.74 32.1912 23.492 30.4392 23.492C28.6272 23.492 27.3312 24.848 27.3312 26.42ZM30.4512 24.788C31.4112 24.788 32.1432 25.484 32.1432 26.396C32.1432 27.32 31.4112 28.016 30.4512 28.016C29.4912 28.016 28.7712 27.32 28.7712 26.396C28.7712 25.484 29.4912 24.788 30.4512 24.788Z" fill="white"/>
<path d="M34.3038 26.42C34.3038 28.028 35.6118 29.168 37.2078 29.168C37.3998 29.168 37.5798 29.156 37.7358 29.132L35.6118 32.036H37.2918L39.5118 29.024C40.3038 27.944 40.5678 27.188 40.5678 26.372C40.5678 24.74 39.1638 23.492 37.4118 23.492C35.5998 23.492 34.3038 24.848 34.3038 26.42ZM37.4238 24.788C38.3838 24.788 39.1158 25.484 39.1158 26.396C39.1158 27.32 38.3838 28.016 37.4238 28.016C36.4638 28.016 35.7438 27.32 35.7438 26.396C35.7438 25.484 36.4638 24.788 37.4238 24.788Z" fill="white"/>
<path d="M38.7463 34.652H40.3783L45.5023 23.6H43.8703L38.7463 34.652Z" fill="white"/>
<path d="M46.7539 26.012H45.2299V32H46.7539V28.388C46.7539 27.692 47.2699 27.14 47.9419 27.14C48.6379 27.14 49.1299 27.668 49.1299 28.448V32H50.6539V28.388C50.6539 27.692 51.1699 27.14 51.8419 27.14C52.5379 27.14 53.0299 27.668 53.0299 28.448V32H54.5539V28.328C54.5539 26.924 53.7499 25.892 52.3219 25.892C51.4459 25.892 50.6899 26.324 50.3539 26.972C50.0059 26.312 49.3699 25.892 48.4819 25.892C47.7379 25.892 47.0899 26.24 46.7539 26.78V26.012Z" fill="white"/>
<path d="M58.519 25.892C56.767 25.892 55.351 27.2 55.351 29.012C55.351 30.812 56.767 32.12 58.519 32.12C60.271 32.12 61.687 30.812 61.687 29.012C61.687 27.2 60.271 25.892 58.519 25.892ZM58.519 30.74C57.595 30.74 56.863 30.032 56.863 29.024C56.863 27.992 57.595 27.296 58.519 27.296C59.443 27.296 60.175 27.992 60.175 29.024C60.175 30.032 59.443 30.74 58.519 30.74Z" fill="white"/>
</svg>
