<svg width="50" height="48" viewBox="0 0 50 48" fill="none" xmlns="http://www.w3.org/2000/svg">
<path d="M9.38055 13.536C9.38055 16.432 11.3805 18.176 13.8605 18.176C16.3405 18.176 18.3405 16.56 18.3405 13.856V6.8H16.1325V13.552C16.1325 15.296 15.1405 16.144 13.8605 16.144C12.5965 16.144 11.5885 15.28 11.5885 13.536H9.38055ZM23.5443 9.856C21.2083 9.856 19.3203 11.6 19.3203 14.016C19.3203 16.416 21.2083 18.16 23.5443 18.16C25.8803 18.16 27.7683 16.416 27.7683 14.016C27.7683 11.6 25.8803 9.856 23.5443 9.856ZM23.5443 16.32C22.3123 16.32 21.3363 15.376 21.3363 14.032C21.3363 12.656 22.3123 11.728 23.5443 11.728C24.7763 11.728 25.7523 12.656 25.7523 14.032C25.7523 15.376 24.7763 16.32 23.5443 16.32ZM29.8335 9.024C30.5535 9.024 31.1455 8.432 31.1455 7.712C31.1455 6.992 30.5535 6.4 29.8335 6.4C29.1295 6.4 28.5375 6.992 28.5375 7.712C28.5375 8.432 29.1295 9.024 29.8335 9.024ZM30.8575 10.016H28.8255V18H30.8575V10.016ZM34.17 10.016H32.138V18H34.17V13.168C34.17 12.24 34.89 11.504 35.834 11.504C36.81 11.504 37.498 12.208 37.498 13.248V18H39.53V13.088C39.53 11.216 38.458 9.84 36.554 9.84C35.53 9.84 34.65 10.288 34.17 11.008V10.016Z" fill="white"/>
<g clip-path="url(#clip0)">
<g clip-path="url(#clip1)">
<path d="M49.2308 36.88H47.1754L44.9814 41.3992L42.7414 36.88H40.5473L43.854 43.582L41.6444 47.9477H43.7769L49.2308 36.88ZM35.9886 42.9053C34.7988 42.9053 33.8405 41.9984 33.8405 40.7069C33.8405 39.4155 34.7988 38.5086 35.9886 38.5086C37.1939 38.5086 38.1367 39.4155 38.1367 40.7069C38.1367 41.9984 37.1939 42.9053 35.9886 42.9053ZM35.6489 44.6579C36.6072 44.6579 37.4721 44.3045 38.1211 43.7045V44.5502H40.0829V36.88H38.1211V37.7249C37.5032 37.1102 36.6532 36.7567 35.726 36.7567C33.7174 36.7567 31.8942 38.4171 31.8942 40.7077C31.8942 42.9975 33.687 44.6579 35.6489 44.6579ZM30.8743 33.1747L28.9125 33.7894V44.5502H30.8743V33.1747ZM24.0608 38.8163H21.5886V35.6808H24.0608C25.0807 35.6808 25.7912 36.3265 25.7912 37.249C25.7912 38.1714 25.0807 38.8163 24.0608 38.8163ZM19.4561 33.7894V44.5502H21.5886V40.6302H24.215C26.332 40.6302 27.9073 39.1698 27.9073 37.1869C27.9073 35.2188 26.3935 33.7894 24.2922 33.7894H19.4561Z" fill="#FF4747"/>
<g clip-path="url(#clip2)">
<path d="M7.20985 32C3.2279 32 0 35.2122 0 39.1731C0 43.1355 3.2279 46.3461 7.20985 46.3461C11.1918 46.3461 14.4197 43.1355 14.4197 39.1731C14.4197 35.2122 11.1918 32 7.20985 32ZM4.33723 36.351H8.48164L7.85231 37.3535H3.7079L4.33723 36.351ZM11.2615 41.3608L10.6314 40.36H8.7918L9.42277 39.3576H10.0037L9.30133 38.2416L7.34195 41.36H2.11528L3.37395 39.3567H2.45005L3.07856 38.3543H7.11959L6.49026 39.3584H4.56287L3.93272 40.3608H6.78318L9.30133 36.351L12.4488 41.3616H11.2615V41.3608Z" fill="#FF4747"/>
</g>
</g>
</g>
<defs>
<clipPath id="clip0">
<rect y="32" width="49.2308" height="16" rx="4" fill="white"/>
</clipPath>
<clipPath id="clip1">
<rect width="49.2308" height="16" fill="white" transform="translate(0 32)"/>
</clipPath>
<clipPath id="clip2">
<rect width="14.441" height="14.3673" fill="white" transform="translate(0 32)"/>
</clipPath>
</defs>
</svg>
