<svg width="126" height="32" viewBox="0 0 126 32" fill="none" xmlns="http://www.w3.org/2000/svg">
<path d="M0 14.7168C0.655457 6.48076 7.55304 0 15.9724 0C24.8244 0 32 7.16315 32 15.9998C32 24.8365 24.8244 32 15.9724 32C8.63516 32 2.45419 27.0766 0.551779 20.3604L6.6955 22.896C7.11162 24.9681 8.9476 26.5328 11.1438 26.5328C13.6455 26.5328 15.6804 24.5014 15.6804 22.0038C15.6804 21.9322 15.6782 21.8603 15.6754 21.7891L21.124 17.9081C21.1697 17.9095 21.215 17.9105 21.2611 17.9105C24.5939 17.9105 27.3057 15.2031 27.3057 11.876C27.3057 8.54898 24.5939 5.84188 21.2611 5.84188C17.9279 5.84188 15.2164 8.54898 15.2164 11.876C15.2164 11.8892 15.2166 11.9022 15.2168 11.9151C15.217 11.9281 15.2171 11.9411 15.2171 11.9543L11.3965 17.4818C11.3129 17.4772 11.2285 17.4748 11.1438 17.4748C10.1974 17.4748 9.31803 17.7656 8.59053 18.2624L0 14.7168Z" fill="white"/>
<path fill-rule="evenodd" clip-rule="evenodd" d="M25.2887 11.8762C25.2887 9.65926 23.4819 7.85523 21.2611 7.85523C19.0402 7.85523 17.2331 9.65926 17.2331 11.8762C17.2331 14.0929 19.0402 15.8965 21.2611 15.8965C23.4819 15.8965 25.2887 14.0929 25.2887 11.8762ZM18.2421 11.8692C18.2421 10.201 19.5969 8.84916 21.2677 8.84916C22.9389 8.84916 24.2934 10.201 24.2934 11.8692C24.2934 13.5371 22.9389 14.8893 21.2677 14.8893C19.5969 14.8893 18.2421 13.5371 18.2421 11.8692Z" fill="white"/>
<path d="M10.0441 24.2777L8.07523 23.4659C8.42422 24.1907 9.02801 24.7977 9.82932 25.1317C11.5616 25.8523 13.5593 25.0313 14.2815 23.301C14.6309 22.4632 14.6333 21.5394 14.2868 20.7002C13.9406 19.8606 13.2876 19.2059 12.448 18.8565C11.615 18.5106 10.7227 18.5235 9.93862 18.8186L11.9725 19.6582C13.2504 20.19 13.8545 21.6548 13.322 22.9305C12.7899 24.2061 11.3219 24.8096 10.0441 24.2777Z" fill="white"/>
<path d="M49.088 18.396C49.088 18.908 48.9867 19.3667 48.784 19.772C48.592 20.1773 48.32 20.5187 47.968 20.796C47.6267 21.0733 47.216 21.2867 46.736 21.436C46.256 21.5747 45.7387 21.644 45.184 21.644C44.544 21.644 43.952 21.548 43.408 21.356C42.864 21.1533 42.3893 20.8813 41.984 20.54C41.5893 20.188 41.2747 19.7667 41.04 19.276C40.816 18.7853 40.6933 18.252 40.672 17.676H42C42.064 18.4867 42.3947 19.148 42.992 19.66C43.6 20.1613 44.336 20.412 45.2 20.412C45.5307 20.412 45.8453 20.3747 46.144 20.3C46.4533 20.2147 46.72 20.092 46.944 19.932C47.1787 19.772 47.36 19.5747 47.488 19.34C47.6267 19.0947 47.696 18.8173 47.696 18.508C47.696 18.1987 47.616 17.9427 47.456 17.74C47.296 17.5267 47.0827 17.3507 46.816 17.212C46.56 17.0733 46.256 16.956 45.904 16.86C45.5627 16.764 45.2053 16.6733 44.832 16.588C44.3733 16.4813 43.9093 16.364 43.44 16.236C42.9813 16.0973 42.5653 15.916 42.192 15.692C41.8187 15.4573 41.5147 15.1587 41.28 14.796C41.0453 14.4227 40.928 13.948 40.928 13.372C40.928 12.9453 41.008 12.54 41.168 12.156C41.3387 11.7613 41.5787 11.42 41.888 11.132C42.1973 10.8333 42.5813 10.5987 43.04 10.428C43.4987 10.2467 44.016 10.156 44.592 10.156C45.2 10.156 45.7653 10.252 46.288 10.444C46.8107 10.6253 47.264 10.8813 47.648 11.212C48.032 11.5427 48.336 11.9427 48.56 12.412C48.784 12.8707 48.912 13.3667 48.944 13.9H47.6C47.5253 13.1533 47.2213 12.5453 46.688 12.076C46.1653 11.6067 45.4667 11.372 44.592 11.372C43.8773 11.372 43.3173 11.5587 42.912 11.932C42.5067 12.3053 42.304 12.764 42.304 13.308C42.304 13.6067 42.3733 13.8627 42.512 14.076C42.6613 14.2893 42.8533 14.4653 43.088 14.604C43.3227 14.7427 43.6 14.8653 43.92 14.972C44.24 15.068 44.576 15.1533 44.928 15.228C45.3973 15.3453 45.8773 15.468 46.368 15.596C46.8693 15.724 47.3173 15.9 47.712 16.124C48.1173 16.3373 48.448 16.6253 48.704 16.988C48.96 17.3507 49.088 17.82 49.088 18.396ZM52.259 19.532V14.572H50.211V13.42H52.259V11.516L53.587 11.036V13.42H55.971V14.572H53.587V19.468C53.587 19.7453 53.6617 19.9587 53.811 20.108C53.9603 20.2467 54.1843 20.316 54.483 20.316H55.971V21.5H54.147C53.539 21.5 53.0697 21.3347 52.739 21.004C52.419 20.6627 52.259 20.172 52.259 19.532ZM61.0005 21.644C60.4565 21.644 59.9445 21.5373 59.4645 21.324C58.9845 21.1107 58.5685 20.8227 58.2165 20.46C57.8645 20.0867 57.5872 19.644 57.3845 19.132C57.1818 18.6093 57.0805 18.044 57.0805 17.436C57.0805 16.8387 57.1765 16.284 57.3685 15.772C57.5712 15.26 57.8432 14.8227 58.1845 14.46C58.5365 14.0867 58.9472 13.7933 59.4165 13.58C59.8858 13.3667 60.3872 13.26 60.9205 13.26C61.4325 13.26 61.9178 13.3667 62.3765 13.58C62.8352 13.7827 63.2352 14.076 63.5765 14.46C63.9178 14.844 64.1898 15.324 64.3925 15.9C64.5952 16.4653 64.6965 17.1053 64.6965 17.82V17.916H58.4565C58.5525 18.6627 58.8405 19.2707 59.3205 19.74C59.8005 20.2093 60.3605 20.444 61.0005 20.444C61.4058 20.444 61.7792 20.348 62.1205 20.156C62.4725 19.9533 62.7552 19.6867 62.9685 19.356H64.4725C64.1845 20.0493 63.7258 20.604 63.0965 21.02C62.4778 21.436 61.7792 21.644 61.0005 21.644ZM60.9045 14.476C60.3072 14.476 59.7792 14.6947 59.3205 15.132C58.8725 15.5693 58.5898 16.1293 58.4725 16.812H63.2885C63.1818 16.1293 62.9045 15.5693 62.4565 15.132C62.0085 14.6947 61.4912 14.476 60.9045 14.476ZM71.4848 21.5V20.092C71.2714 20.5613 70.9301 20.94 70.4608 21.228C70.0021 21.5053 69.4581 21.644 68.8288 21.644C68.0608 21.644 67.4261 21.4307 66.9248 21.004C66.4341 20.5667 66.1888 20.012 66.1888 19.34C66.1888 18.7 66.4288 18.1827 66.9088 17.788C67.3888 17.3827 68.0448 17.148 68.8768 17.084L71.4848 16.892V16.476C71.4848 15.8893 71.3034 15.404 70.9408 15.02C70.5888 14.6253 70.1461 14.428 69.6128 14.428C69.0474 14.428 68.5994 14.572 68.2688 14.86C67.9488 15.1373 67.7354 15.5267 67.6288 16.028H66.3008C66.3861 15.2173 66.7381 14.556 67.3568 14.044C67.9754 13.5213 68.7328 13.26 69.6288 13.26C70.6208 13.26 71.3994 13.564 71.9648 14.172C72.5301 14.7693 72.8128 15.532 72.8128 16.46V21.5H71.4848ZM67.5168 19.34C67.5168 19.6813 67.6608 19.9693 67.9488 20.204C68.2368 20.428 68.6154 20.54 69.0848 20.54C69.7354 20.54 70.2954 20.3373 70.7648 19.932C71.2448 19.5267 71.4848 19.052 71.4848 18.508V17.932L69.1328 18.108C68.6314 18.1507 68.2368 18.2787 67.9488 18.492C67.6608 18.6947 67.5168 18.9773 67.5168 19.34ZM74.9626 21.5V13.42H76.3066V15.004C76.5093 14.396 76.8293 13.9587 77.2666 13.692C77.704 13.4253 78.168 13.292 78.6586 13.292C79.2346 13.292 79.7253 13.4573 80.1306 13.788C80.5466 14.1187 80.8453 14.5507 81.0266 15.084C81.2293 14.508 81.5546 14.0653 82.0026 13.756C82.4613 13.4467 82.9626 13.292 83.5066 13.292C83.9333 13.292 84.312 13.372 84.6426 13.532C84.9733 13.692 85.2506 13.916 85.4746 14.204C85.6986 14.4813 85.8693 14.812 85.9866 15.196C86.104 15.5693 86.1626 15.9747 86.1626 16.412V21.5H84.8186V16.54C84.8186 15.932 84.648 15.4307 84.3066 15.036C83.976 14.6413 83.544 14.444 83.0106 14.444C82.52 14.444 82.0986 14.6467 81.7466 15.052C81.4053 15.4467 81.2346 15.932 81.2346 16.508V21.5H79.8906V16.54C79.8906 15.932 79.72 15.4307 79.3786 15.036C79.048 14.6413 78.616 14.444 78.0826 14.444C77.592 14.444 77.1706 14.6467 76.8186 15.052C76.4773 15.4467 76.3066 15.932 76.3066 16.508V21.5H74.9626Z" fill="white"/>
</svg>
