<svg width="65" height="60" viewBox="0 0 65 60" fill="none" xmlns="http://www.w3.org/2000/svg">
<rect width="65" height="28" rx="4" fill="#1A1A1A" fill-opacity="0.5"/>
<path d="M17.7333 20.4001C18.3224 20.4001 18.8 19.9225 18.8 19.3334C18.8 18.7443 18.3224 18.2667 17.7333 18.2667C17.1442 18.2667 16.6666 18.7443 16.6666 19.3334C16.6666 19.9225 17.1442 20.4001 17.7333 20.4001Z" fill="white"/>
<path d="M12.4 20.4001C12.9891 20.4001 13.4667 19.9225 13.4667 19.3334C13.4667 18.7443 12.9891 18.2667 12.4 18.2667C11.8109 18.2667 11.3334 18.7443 11.3334 19.3334C11.3334 19.9225 11.8109 20.4001 12.4 20.4001Z" fill="white"/>
<path d="M7.06665 7.59998H8.06825C8.42292 7.59998 8.73545 7.83358 8.83572 8.17438L11.1083 15.9013C11.2416 16.3546 11.6581 16.6666 12.1312 16.6666H17.985C18.4661 16.6666 18.8874 16.3445 19.0144 15.8805L20.4 10.8H17.7333" stroke="white" stroke-width="2" stroke-miterlimit="10" stroke-linecap="round" stroke-linejoin="round"/>
<path d="M15.5999 10.8V13.7792L16.8229 12.5563C17.0314 12.3478 17.3685 12.3478 17.577 12.5563C17.7855 12.7648 17.7855 13.1019 17.577 13.3104L15.4437 15.4438C15.3397 15.5478 15.2031 15.6 15.0666 15.6C14.9301 15.6 14.7935 15.5478 14.6895 15.4438L12.5562 13.3104C12.3477 13.1019 12.3477 12.7648 12.5562 12.5563C12.7647 12.3478 13.1018 12.3478 13.3103 12.5563L14.5333 13.7792V10.8H9.73328L11.5999 16.6667H18.7999L20.3999 10.8H15.5999Z" fill="white"/>
<path d="M15.6 7.59998C15.6 7.30558 15.3611 7.06665 15.0667 7.06665C14.7723 7.06665 14.5333 7.30558 14.5333 7.59998V10.2667H15.6V7.59998Z" fill="white"/>
<path d="M15.6 10.8H18.2666" stroke="white" stroke-width="2" stroke-miterlimit="10" stroke-linejoin="round"/>
<path d="M9.73328 10.8H14.5333" stroke="white" stroke-width="2" stroke-miterlimit="10" stroke-linejoin="round"/>
<path d="M38.988 16.158C38.988 16.5687 38.904 16.9513 38.736 17.306C38.5773 17.6513 38.3533 17.95 38.064 18.202C37.784 18.454 37.448 18.65 37.056 18.79C36.664 18.93 36.2393 19 35.782 19H31.008V9.2H35.866C36.258 9.2 36.622 9.26533 36.958 9.396C37.3033 9.52667 37.5973 9.70867 37.84 9.942C38.0827 10.166 38.274 10.4413 38.414 10.768C38.5633 11.0853 38.638 11.4353 38.638 11.818C38.638 12.2567 38.5307 12.658 38.316 13.022C38.1013 13.3767 37.812 13.666 37.448 13.89C37.952 14.0953 38.3347 14.3987 38.596 14.8C38.8573 15.2013 38.988 15.654 38.988 16.158ZM35.502 10.978H33.066V13.162H35.502C35.81 13.162 36.0667 13.064 36.272 12.868C36.4773 12.672 36.58 12.42 36.58 12.112C36.58 11.776 36.4773 11.5053 36.272 11.3C36.0667 11.0853 35.81 10.978 35.502 10.978ZM33.066 17.264H35.614C35.9967 17.264 36.3093 17.1473 36.552 16.914C36.7947 16.6713 36.916 16.3633 36.916 15.99C36.916 15.654 36.7947 15.3787 36.552 15.164C36.3093 14.94 35.9967 14.828 35.614 14.828H33.066V17.264ZM45.14 19V17.908C44.972 18.272 44.7013 18.5707 44.328 18.804C43.9547 19.028 43.53 19.14 43.054 19.14C42.2607 19.14 41.6447 18.8693 41.206 18.328C40.7673 17.7867 40.548 17.1007 40.548 16.27V11.832H42.452V16.032C42.452 16.4893 42.5733 16.858 42.816 17.138C43.068 17.418 43.3947 17.558 43.796 17.558C44.216 17.558 44.5427 17.418 44.776 17.138C45.0187 16.858 45.14 16.5173 45.14 16.116V11.832H47.044V19H45.14ZM55.7358 11.832L50.9478 22.15H48.9318L50.9338 18.02L47.9658 11.832H50.0378L51.9418 15.962L53.8038 11.832H55.7358Z" fill="white"/>
<rect x="3.76929" y="32" width="61.2308" height="28" rx="4" fill="#1A1A1A" fill-opacity="0.5"/>
<g clip-path="url(#clip0)">
<path d="M59.0001 42.88H56.9447L54.7507 47.3992L52.5107 42.88H50.3166L53.6233 49.582L51.4137 53.9477H53.5462L59.0001 42.88ZM45.7579 48.9053C44.5681 48.9053 43.6098 47.9984 43.6098 46.7069C43.6098 45.4155 44.5681 44.5086 45.7579 44.5086C46.9632 44.5086 47.906 45.4155 47.906 46.7069C47.906 47.9984 46.9632 48.9053 45.7579 48.9053ZM45.4182 50.6579C46.3765 50.6579 47.2413 50.3045 47.8904 49.7045V50.5502H49.8522V42.88H47.8904V43.7249C47.2725 43.1102 46.4225 42.7567 45.4953 42.7567C43.4867 42.7567 41.6635 44.4171 41.6635 46.7077C41.6635 48.9975 43.4563 50.6579 45.4182 50.6579ZM40.6436 39.1747L38.6818 39.7894V50.5502H40.6436V39.1747ZM33.8301 44.8163H31.3579V41.6808H33.8301C34.85 41.6808 35.5605 42.3265 35.5605 43.249C35.5605 44.1714 34.85 44.8163 33.8301 44.8163ZM29.2253 39.7894V50.5502H31.3579V46.6302H33.9843C36.1012 46.6302 37.6766 45.1698 37.6766 43.1869C37.6766 41.2188 36.1628 39.7894 34.0614 39.7894H29.2253Z" fill="#FF4747"/>
<g clip-path="url(#clip1)">
<path d="M16.9791 38C12.9972 38 9.76929 41.2122 9.76929 45.1731C9.76929 49.1355 12.9972 52.3461 16.9791 52.3461C20.9611 52.3461 24.189 49.1355 24.189 45.1731C24.189 41.2122 20.9611 38 16.9791 38ZM14.1065 42.351H18.2509L17.6216 43.3535H13.4772L14.1065 42.351ZM21.0308 47.3608L20.4007 46.36H18.5611L19.1921 45.3576H19.773L19.0706 44.2416L17.1112 47.36H11.8846L13.1432 45.3567H12.2193L12.8479 44.3543H16.8889L16.2595 45.3584H14.3322L13.702 46.3608H16.5525L19.0706 42.351L22.2181 47.3616H21.0308V47.3608Z" fill="#FF4747"/>
</g>
</g>
<defs>
<clipPath id="clip0">
<rect width="49.2308" height="16" fill="white" transform="translate(9.76929 38)"/>
</clipPath>
<clipPath id="clip1">
<rect width="14.441" height="14.3673" fill="white" transform="translate(9.76929 38)"/>
</clipPath>
</defs>
</svg>
