<svg width="79" height="49" viewBox="0 0 79 49" fill="none" xmlns="http://www.w3.org/2000/svg">
<path d="M46.3286 23.3999C47.3385 23.3999 48.1571 22.5813 48.1571 21.5714C48.1571 20.5615 47.3385 19.7428 46.3286 19.7428C45.3187 19.7428 44.5 20.5615 44.5 21.5714C44.5 22.5813 45.3187 23.3999 46.3286 23.3999Z" fill="white"/>
<path d="M37.185 23.3999C38.1949 23.3999 39.0136 22.5813 39.0136 21.5714C39.0136 20.5615 38.1949 19.7428 37.185 19.7428C36.1751 19.7428 35.3564 20.5615 35.3564 21.5714C35.3564 22.5813 36.1751 23.3999 37.185 23.3999Z" fill="white"/>
<path d="M28.042 1.45728H29.759C30.367 1.45728 30.9028 1.85773 31.0747 2.44196L34.9704 15.6881C35.199 16.4653 35.9131 17.0001 36.724 17.0001H46.7592C47.5839 17.0001 48.3062 16.4479 48.5238 15.6525L50.8991 6.94299H46.3277" stroke="white" stroke-width="2" stroke-miterlimit="10" stroke-linecap="round" stroke-linejoin="round"/>
<path d="M42.6714 6.94287V12.0501L44.7679 9.95361C45.1253 9.59613 45.7032 9.59613 46.0607 9.95361C46.4181 10.3111 46.4181 10.8889 46.0607 11.2464L42.4035 14.9036C42.2252 15.0818 41.9912 15.1714 41.7571 15.1714C41.5231 15.1714 41.289 15.0818 41.1107 14.9036L37.4536 11.2464C37.0961 10.8889 37.0961 10.3111 37.4536 9.95361C37.8111 9.59613 38.3889 9.59613 38.7464 9.95361L40.8428 12.0501V6.94287H32.6143L35.8143 17H48.1571L50.9 6.94287H42.6714Z" fill="white"/>
<path d="M42.6713 1.45713C42.6713 0.952447 42.2617 0.542847 41.7571 0.542847C41.2524 0.542847 40.8428 0.952447 40.8428 1.45713V6.02856H42.6713V1.45713Z" fill="white"/>
<path d="M42.6709 6.94287H47.2423" stroke="white" stroke-width="2" stroke-miterlimit="10" stroke-linejoin="round"/>
<path d="M32.6143 6.94287H40.8428" stroke="white" stroke-width="2" stroke-miterlimit="10" stroke-linejoin="round"/>
<path d="M8.988 42.158C8.988 42.5687 8.904 42.9513 8.736 43.306C8.57733 43.6513 8.35333 43.95 8.064 44.202C7.784 44.454 7.448 44.65 7.056 44.79C6.664 44.93 6.23933 45 5.782 45H1.008V35.2H5.866C6.258 35.2 6.622 35.2653 6.958 35.396C7.30333 35.5267 7.59733 35.7087 7.84 35.942C8.08267 36.166 8.274 36.4413 8.414 36.768C8.56333 37.0853 8.638 37.4353 8.638 37.818C8.638 38.2567 8.53067 38.658 8.316 39.022C8.10133 39.3767 7.812 39.666 7.448 39.89C7.952 40.0953 8.33467 40.3987 8.596 40.8C8.85733 41.2013 8.988 41.654 8.988 42.158ZM5.502 36.978H3.066V39.162H5.502C5.81 39.162 6.06667 39.064 6.272 38.868C6.47733 38.672 6.58 38.42 6.58 38.112C6.58 37.776 6.47733 37.5053 6.272 37.3C6.06667 37.0853 5.81 36.978 5.502 36.978ZM3.066 43.264H5.614C5.99667 43.264 6.30933 43.1473 6.552 42.914C6.79467 42.6713 6.916 42.3633 6.916 41.99C6.916 41.654 6.79467 41.3787 6.552 41.164C6.30933 40.94 5.99667 40.828 5.614 40.828H3.066V43.264ZM15.14 45V43.908C14.972 44.272 14.7013 44.5707 14.328 44.804C13.9547 45.028 13.53 45.14 13.054 45.14C12.2607 45.14 11.6447 44.8693 11.206 44.328C10.7673 43.7867 10.548 43.1007 10.548 42.27V37.832H12.452V42.032C12.452 42.4893 12.5733 42.858 12.816 43.138C13.068 43.418 13.3947 43.558 13.796 43.558C14.216 43.558 14.5427 43.418 14.776 43.138C15.0187 42.858 15.14 42.5173 15.14 42.116V37.832H17.044V45H15.14ZM25.7358 37.832L20.9478 48.15H18.9318L20.9338 44.02L17.9658 37.832H20.0378L21.9418 41.962L23.8038 37.832H25.7358ZM32.1607 45H30.0607V35.2H37.1027V37.006H32.1607V39.19H36.2347V40.982H32.1607V45ZM38.8381 35.2H40.9381V45H38.8381V35.2ZM45.067 45H42.967V35.2H50.009V37.006H45.067V39.19H49.141V40.982H45.067V45ZM57.0841 45L56.2301 43.096H52.2961L51.4701 45H49.3281L54.0881 35.004H54.5081L59.2681 45H57.0841ZM52.9961 41.514H55.5161L54.2421 38.644L52.9961 41.514ZM63.1512 45V44.58L66.7492 40.534C67.3185 39.8993 67.6732 39.4187 67.8132 39.092C67.9532 38.756 68.0232 38.434 68.0232 38.126C68.0232 37.7153 67.8878 37.384 67.6172 37.132C67.3465 36.8707 67.0292 36.74 66.6652 36.74C66.1612 36.74 65.7458 36.922 65.4192 37.286C65.0925 37.6407 64.9012 38.126 64.8452 38.742H63.0672C63.0672 38.1727 63.1605 37.664 63.3472 37.216C63.5432 36.7587 63.8045 36.3713 64.1312 36.054C64.4578 35.7367 64.8405 35.494 65.2792 35.326C65.7178 35.158 66.1845 35.074 66.6792 35.074C67.1365 35.074 67.5612 35.1487 67.9532 35.298C68.3545 35.4473 68.6998 35.6573 68.9892 35.928C69.2785 36.1893 69.5025 36.5067 69.6612 36.88C69.8292 37.244 69.9132 37.6407 69.9132 38.07C69.9132 38.3127 69.8898 38.546 69.8432 38.77C69.8058 38.994 69.7218 39.232 69.5912 39.484C69.4605 39.736 69.2738 40.0253 69.0312 40.352C68.7885 40.6693 68.4758 41.0427 68.0932 41.472L66.4272 43.334H70.1932V45H63.1512ZM71.544 45V43.334H73.868V36.866H71.544L72.188 35.2H75.786V43.334H78.11V45H71.544Z" fill="white"/>
</svg>
