<svg width="48" height="61" viewBox="0 0 48 61" fill="none" xmlns="http://www.w3.org/2000/svg">
<path d="M8 14.7168C8.65546 6.48076 15.553 0 23.9724 0C32.8244 0 40 7.16315 40 15.9998C40 24.8365 32.8244 32 23.9724 32C16.6352 32 10.4542 27.0766 8.55178 20.3604L14.6955 22.896C15.1116 24.9681 16.9476 26.5328 19.1438 26.5328C21.6455 26.5328 23.6804 24.5014 23.6804 22.0038C23.6804 21.9322 23.6782 21.8603 23.6754 21.7891L29.124 17.9081C29.1697 17.9095 29.215 17.9105 29.2611 17.9105C32.5939 17.9105 35.3057 15.2031 35.3057 11.876C35.3057 8.54898 32.5939 5.84188 29.2611 5.84188C25.9279 5.84188 23.2164 8.54898 23.2164 11.876C23.2164 11.8892 23.2166 11.9022 23.2168 11.9151C23.217 11.9281 23.2171 11.9411 23.2171 11.9543L19.3965 17.4818C19.3129 17.4772 19.2285 17.4748 19.1438 17.4748C18.1974 17.4748 17.318 17.7656 16.5905 18.2624L8 14.7168Z" fill="white"/>
<path fill-rule="evenodd" clip-rule="evenodd" d="M33.2887 11.8762C33.2887 9.65926 31.4819 7.85523 29.2611 7.85523C27.0402 7.85523 25.2331 9.65926 25.2331 11.8762C25.2331 14.0929 27.0402 15.8965 29.2611 15.8965C31.4819 15.8965 33.2887 14.0929 33.2887 11.8762ZM26.2421 11.8692C26.2421 10.201 27.5969 8.84916 29.2677 8.84916C30.9389 8.84916 32.2934 10.201 32.2934 11.8692C32.2934 13.5371 30.9389 14.8893 29.2677 14.8893C27.5969 14.8893 26.2421 13.5371 26.2421 11.8692Z" fill="white"/>
<path d="M18.0441 24.2777L16.0752 23.4659C16.4242 24.1907 17.028 24.7977 17.8293 25.1317C19.5616 25.8523 21.5593 25.0313 22.2815 23.301C22.6309 22.4632 22.6333 21.5394 22.2868 20.7002C21.9406 19.8606 21.2876 19.2059 20.448 18.8565C19.615 18.5106 18.7227 18.5235 17.9386 18.8186L19.9725 19.6582C21.2504 20.19 21.8545 21.6548 21.322 22.9305C20.7899 24.2061 19.3219 24.8096 18.0441 24.2777Z" fill="white"/>
<path d="M9.088 52.896C9.088 53.408 8.98667 53.8667 8.784 54.272C8.592 54.6773 8.32 55.0187 7.968 55.296C7.62667 55.5733 7.216 55.7867 6.736 55.936C6.256 56.0747 5.73867 56.144 5.184 56.144C4.544 56.144 3.952 56.048 3.408 55.856C2.864 55.6533 2.38933 55.3813 1.984 55.04C1.58933 54.688 1.27467 54.2667 1.04 53.776C0.816 53.2853 0.693333 52.752 0.672 52.176H2C2.064 52.9867 2.39467 53.648 2.992 54.16C3.6 54.6613 4.336 54.912 5.2 54.912C5.53067 54.912 5.84533 54.8747 6.144 54.8C6.45333 54.7147 6.72 54.592 6.944 54.432C7.17867 54.272 7.36 54.0747 7.488 53.84C7.62667 53.5947 7.696 53.3173 7.696 53.008C7.696 52.6987 7.616 52.4427 7.456 52.24C7.296 52.0267 7.08267 51.8507 6.816 51.712C6.56 51.5733 6.256 51.456 5.904 51.36C5.56267 51.264 5.20533 51.1733 4.832 51.088C4.37333 50.9813 3.90933 50.864 3.44 50.736C2.98133 50.5973 2.56533 50.416 2.192 50.192C1.81867 49.9573 1.51467 49.6587 1.28 49.296C1.04533 48.9227 0.928 48.448 0.928 47.872C0.928 47.4453 1.008 47.04 1.168 46.656C1.33867 46.2613 1.57867 45.92 1.888 45.632C2.19733 45.3333 2.58133 45.0987 3.04 44.928C3.49867 44.7467 4.016 44.656 4.592 44.656C5.2 44.656 5.76533 44.752 6.288 44.944C6.81067 45.1253 7.264 45.3813 7.648 45.712C8.032 46.0427 8.336 46.4427 8.56 46.912C8.784 47.3707 8.912 47.8667 8.944 48.4H7.6C7.52533 47.6533 7.22133 47.0453 6.688 46.576C6.16533 46.1067 5.46667 45.872 4.592 45.872C3.87733 45.872 3.31733 46.0587 2.912 46.432C2.50667 46.8053 2.304 47.264 2.304 47.808C2.304 48.1067 2.37333 48.3627 2.512 48.576C2.66133 48.7893 2.85333 48.9653 3.088 49.104C3.32267 49.2427 3.6 49.3653 3.92 49.472C4.24 49.568 4.576 49.6533 4.928 49.728C5.39733 49.8453 5.87733 49.968 6.368 50.096C6.86933 50.224 7.31733 50.4 7.712 50.624C8.11733 50.8373 8.448 51.1253 8.704 51.488C8.96 51.8507 9.088 52.32 9.088 52.896ZM12.259 54.032V49.072H10.211V47.92H12.259V46.016L13.587 45.536V47.92H15.971V49.072H13.587V53.968C13.587 54.2453 13.6617 54.4587 13.811 54.608C13.9603 54.7467 14.1843 54.816 14.483 54.816H15.971V56H14.147C13.539 56 13.0697 55.8347 12.739 55.504C12.419 55.1627 12.259 54.672 12.259 54.032ZM21.0005 56.144C20.4565 56.144 19.9445 56.0373 19.4645 55.824C18.9845 55.6107 18.5685 55.3227 18.2165 54.96C17.8645 54.5867 17.5872 54.144 17.3845 53.632C17.1818 53.1093 17.0805 52.544 17.0805 51.936C17.0805 51.3387 17.1765 50.784 17.3685 50.272C17.5712 49.76 17.8432 49.3227 18.1845 48.96C18.5365 48.5867 18.9472 48.2933 19.4165 48.08C19.8858 47.8667 20.3872 47.76 20.9205 47.76C21.4325 47.76 21.9178 47.8667 22.3765 48.08C22.8352 48.2827 23.2352 48.576 23.5765 48.96C23.9178 49.344 24.1898 49.824 24.3925 50.4C24.5952 50.9653 24.6965 51.6053 24.6965 52.32V52.416H18.4565C18.5525 53.1627 18.8405 53.7707 19.3205 54.24C19.8005 54.7093 20.3605 54.944 21.0005 54.944C21.4058 54.944 21.7792 54.848 22.1205 54.656C22.4725 54.4533 22.7552 54.1867 22.9685 53.856H24.4725C24.1845 54.5493 23.7258 55.104 23.0965 55.52C22.4778 55.936 21.7792 56.144 21.0005 56.144ZM20.9045 48.976C20.3072 48.976 19.7792 49.1947 19.3205 49.632C18.8725 50.0693 18.5898 50.6293 18.4725 51.312H23.2885C23.1818 50.6293 22.9045 50.0693 22.4565 49.632C22.0085 49.1947 21.4912 48.976 20.9045 48.976ZM31.4848 56V54.592C31.2714 55.0613 30.9301 55.44 30.4608 55.728C30.0021 56.0053 29.4581 56.144 28.8288 56.144C28.0608 56.144 27.4261 55.9307 26.9248 55.504C26.4341 55.0667 26.1888 54.512 26.1888 53.84C26.1888 53.2 26.4288 52.6827 26.9088 52.288C27.3888 51.8827 28.0448 51.648 28.8768 51.584L31.4848 51.392V50.976C31.4848 50.3893 31.3034 49.904 30.9408 49.52C30.5888 49.1253 30.1461 48.928 29.6128 48.928C29.0474 48.928 28.5994 49.072 28.2688 49.36C27.9488 49.6373 27.7354 50.0267 27.6288 50.528H26.3008C26.3861 49.7173 26.7381 49.056 27.3568 48.544C27.9754 48.0213 28.7328 47.76 29.6288 47.76C30.6208 47.76 31.3994 48.064 31.9648 48.672C32.5301 49.2693 32.8128 50.032 32.8128 50.96V56H31.4848ZM27.5168 53.84C27.5168 54.1813 27.6608 54.4693 27.9488 54.704C28.2368 54.928 28.6154 55.04 29.0848 55.04C29.7354 55.04 30.2954 54.8373 30.7648 54.432C31.2448 54.0267 31.4848 53.552 31.4848 53.008V52.432L29.1328 52.608C28.6314 52.6507 28.2368 52.7787 27.9488 52.992C27.6608 53.1947 27.5168 53.4773 27.5168 53.84ZM34.9626 56V47.92H36.3066V49.504C36.5093 48.896 36.8293 48.4587 37.2666 48.192C37.704 47.9253 38.168 47.792 38.6586 47.792C39.2346 47.792 39.7253 47.9573 40.1306 48.288C40.5466 48.6187 40.8453 49.0507 41.0266 49.584C41.2293 49.008 41.5546 48.5653 42.0026 48.256C42.4613 47.9467 42.9626 47.792 43.5066 47.792C43.9333 47.792 44.312 47.872 44.6426 48.032C44.9733 48.192 45.2506 48.416 45.4746 48.704C45.6986 48.9813 45.8693 49.312 45.9866 49.696C46.104 50.0693 46.1626 50.4747 46.1626 50.912V56H44.8186V51.04C44.8186 50.432 44.648 49.9307 44.3066 49.536C43.976 49.1413 43.544 48.944 43.0106 48.944C42.52 48.944 42.0986 49.1467 41.7466 49.552C41.4053 49.9467 41.2346 50.432 41.2346 51.008V56H39.8906V51.04C39.8906 50.432 39.72 49.9307 39.3786 49.536C39.048 49.1413 38.616 48.944 38.0826 48.944C37.592 48.944 37.1706 49.1467 36.8186 49.552C36.4773 49.9467 36.3066 50.432 36.3066 51.008V56H34.9626Z" fill="white"/>
</svg>
