<svg width="41" height="40" viewBox="0 0 41 40" fill="none" xmlns="http://www.w3.org/2000/svg">
<path d="M0.583252 18.396C1.40257 8.10095 10.0246 0 20.5488 0C31.6138 0 40.5833 8.95394 40.5833 19.9998C40.5833 31.0456 31.6138 40 20.5488 40C11.3772 40 3.65098 33.8458 1.27298 25.4506L8.95263 28.62C9.47278 31.2101 11.7678 33.166 14.513 33.166C17.6401 33.166 20.1837 30.6268 20.1837 27.5047C20.1837 27.4153 20.1811 27.3254 20.1775 27.2363L26.9882 22.3851C27.0453 22.3868 27.102 22.3881 27.1596 22.3881C31.3256 22.3881 34.7153 19.0038 34.7153 14.845C34.7153 10.6862 31.3256 7.30235 27.1596 7.30235C22.9931 7.30235 19.6038 10.6862 19.6038 14.845C19.6038 14.8615 19.604 14.8777 19.6042 14.8939C19.6045 14.9102 19.6047 14.9264 19.6047 14.9428L14.8289 21.8522C14.7243 21.8465 14.6189 21.8435 14.513 21.8435C13.33 21.8435 12.2308 22.207 11.3214 22.828L0.583252 18.396Z" fill="white"/>
<path fill-rule="evenodd" clip-rule="evenodd" d="M32.1941 14.8453C32.1941 12.0741 29.9356 9.81903 27.1596 9.81903C24.3835 9.81903 22.1246 12.0741 22.1246 14.8453C22.1246 17.6161 24.3835 19.8707 27.1596 19.8707C29.9356 19.8707 32.1941 17.6161 32.1941 14.8453ZM23.3859 14.8365C23.3859 12.7512 25.0794 11.0615 27.1679 11.0615C29.2569 11.0615 30.95 12.7512 30.95 14.8365C30.95 16.9214 29.2569 18.6116 27.1679 18.6116C25.0794 18.6116 23.3859 16.9214 23.3859 14.8365Z" fill="white"/>
<path d="M13.1383 30.3471L10.6773 29.3323C11.1135 30.2384 11.8683 30.9971 12.8699 31.4146C15.0353 32.3154 17.5323 31.2891 18.4351 29.1262C18.8718 28.0789 18.8749 26.9242 18.4417 25.8752C18.009 24.8258 17.1928 24.0074 16.1432 23.5706C15.1021 23.1382 13.9866 23.1544 13.0065 23.5233L15.5488 24.5727C17.1462 25.2376 17.9014 27.0685 17.2358 28.6631C16.5707 30.2577 14.7357 31.012 13.1383 30.3471Z" fill="white"/>
</svg>
