<svg width="343" height="51" viewBox="0 0 343 51" fill="none" xmlns="http://www.w3.org/2000/svg">
<path d="M5.472 9.132H0V0.732H5.472V1.668H1.056V4.38H4.44V5.316H1.056V8.196H5.472V9.132Z" fill="#D7D7D7"/>
<path d="M12.9361 9.132L12.0481 7.104H8.13609L7.24809 9.132H6.15609L10.0081 0.612H10.2601L14.1121 9.132H12.9361ZM8.53209 6.192H11.6521L10.0921 2.628L8.53209 6.192Z" fill="#D7D7D7"/>
<path d="M20.551 9.132H17.707V0.732H20.551C21.143 0.732 21.691 0.836 22.195 1.044C22.699 1.244 23.135 1.528 23.503 1.896C23.871 2.264 24.159 2.708 24.367 3.228C24.583 3.748 24.691 4.316 24.691 4.932C24.691 5.548 24.583 6.116 24.367 6.636C24.159 7.156 23.871 7.6 23.503 7.968C23.135 8.336 22.699 8.624 22.195 8.832C21.691 9.032 21.143 9.132 20.551 9.132ZM20.551 1.668H18.763V8.196H20.551C20.967 8.196 21.363 8.116 21.739 7.956C22.115 7.796 22.443 7.576 22.723 7.296C23.003 7.008 23.223 6.664 23.383 6.264C23.551 5.856 23.635 5.412 23.635 4.932C23.635 4.452 23.551 4.012 23.383 3.612C23.223 3.204 23.003 2.86 22.723 2.58C22.443 2.292 22.115 2.068 21.739 1.908C21.363 1.748 20.967 1.668 20.551 1.668Z" fill="#D7D7D7"/>
<path d="M28.8434 9.24C28.4354 9.24 28.0514 9.16 27.6914 9C27.3314 8.84 27.0194 8.624 26.7554 8.352C26.4914 8.072 26.2834 7.74 26.1314 7.356C25.9794 6.964 25.9034 6.54 25.9034 6.084C25.9034 5.636 25.9754 5.22 26.1194 4.836C26.2714 4.452 26.4754 4.124 26.7314 3.852C26.9954 3.572 27.3034 3.352 27.6554 3.192C28.0074 3.032 28.3834 2.952 28.7834 2.952C29.1674 2.952 29.5314 3.032 29.8754 3.192C30.2194 3.344 30.5194 3.564 30.7754 3.852C31.0314 4.14 31.2354 4.5 31.3874 4.932C31.5394 5.356 31.6154 5.836 31.6154 6.372V6.444H26.9354C27.0074 7.004 27.2234 7.46 27.5834 7.812C27.9434 8.164 28.3634 8.34 28.8434 8.34C29.1474 8.34 29.4274 8.268 29.6834 8.124C29.9474 7.972 30.1594 7.772 30.3194 7.524H31.4474C31.2314 8.044 30.8874 8.46 30.4154 8.772C29.9514 9.084 29.4274 9.24 28.8434 9.24ZM28.7714 3.864C28.3234 3.864 27.9274 4.028 27.5834 4.356C27.2474 4.684 27.0354 5.104 26.9474 5.616H30.5594C30.4794 5.104 30.2714 4.684 29.9354 4.356C29.5994 4.028 29.2114 3.864 28.7714 3.864Z" fill="#D7D7D7"/>
<path d="M32.7826 4.752C32.7906 4.216 32.9946 3.784 33.3946 3.456C33.8026 3.128 34.3066 2.964 34.9066 2.964C35.6026 2.964 36.1866 3.164 36.6586 3.564C37.1306 3.956 37.3826 4.46 37.4146 5.076H36.4306C36.3986 4.7 36.2426 4.4 35.9626 4.176C35.6906 3.944 35.3426 3.828 34.9186 3.828C34.5666 3.828 34.2866 3.908 34.0786 4.068C33.8786 4.228 33.7786 4.432 33.7786 4.68C33.7786 4.968 33.9186 5.176 34.1986 5.304C34.4786 5.432 34.8026 5.544 35.1706 5.64C35.4346 5.704 35.7026 5.776 35.9746 5.856C36.2546 5.928 36.5026 6.028 36.7186 6.156C36.9426 6.276 37.1266 6.44 37.2706 6.648C37.4146 6.848 37.4866 7.108 37.4866 7.428C37.4866 7.988 37.2706 8.432 36.8386 8.76C36.4066 9.08 35.8786 9.24 35.2546 9.24C34.5346 9.24 33.9386 9.036 33.4666 8.628C32.9946 8.22 32.7426 7.696 32.7106 7.056H33.6946C33.7186 7.448 33.8786 7.768 34.1746 8.016C34.4786 8.264 34.8426 8.388 35.2666 8.388C35.6106 8.388 35.8986 8.312 36.1306 8.16C36.3706 8.008 36.4906 7.796 36.4906 7.524C36.4906 7.212 36.3266 6.996 35.9986 6.876C35.6786 6.748 35.3146 6.632 34.9066 6.528C34.6586 6.472 34.4066 6.404 34.1506 6.324C33.8946 6.244 33.6666 6.14 33.4666 6.012C33.2666 5.884 33.1026 5.72 32.9746 5.52C32.8466 5.312 32.7826 5.056 32.7826 4.752Z" fill="#D7D7D7"/>
<path d="M39.7957 0V9.132H38.7877V0.396L39.7957 0ZM39.9277 6.132L42.5917 3.072H43.7317L41.1277 6.06L43.7797 9.132H42.4837L39.9277 6.132Z" fill="#D7D7D7"/>
<path d="M45.7013 7.656V3.936H44.1653V3.072H45.7013V1.644L46.6973 1.284V3.072H48.4853V3.936H46.6973V7.608C46.6973 7.816 46.7533 7.976 46.8653 8.088C46.9773 8.192 47.1453 8.244 47.3693 8.244H48.4853V9.132H47.1173C46.6613 9.132 46.3093 9.008 46.0613 8.76C45.8213 8.504 45.7013 8.136 45.7013 7.656Z" fill="#D7D7D7"/>
<path d="M52.2575 9.24C51.8495 9.24 51.4655 9.16 51.1055 9C50.7455 8.84 50.4335 8.624 50.1695 8.352C49.9055 8.072 49.6975 7.74 49.5455 7.356C49.3935 6.964 49.3175 6.54 49.3175 6.084C49.3175 5.636 49.3935 5.22 49.5455 4.836C49.6975 4.452 49.9055 4.124 50.1695 3.852C50.4335 3.572 50.7455 3.352 51.1055 3.192C51.4655 3.032 51.8495 2.952 52.2575 2.952C52.6655 2.952 53.0495 3.032 53.4095 3.192C53.7695 3.352 54.0775 3.572 54.3335 3.852C54.5975 4.124 54.8055 4.452 54.9575 4.836C55.1095 5.22 55.1855 5.636 55.1855 6.084C55.1855 6.54 55.1095 6.964 54.9575 7.356C54.8055 7.74 54.5975 8.072 54.3335 8.352C54.0775 8.624 53.7695 8.84 53.4095 9C53.0495 9.16 52.6655 9.24 52.2575 9.24ZM52.2575 8.34C52.7855 8.34 53.2375 8.128 53.6135 7.704C53.9895 7.28 54.1775 6.744 54.1775 6.096C54.1775 5.456 53.9895 4.924 53.6135 4.5C53.2375 4.068 52.7855 3.852 52.2575 3.852C51.7215 3.852 51.2655 4.068 50.8895 4.5C50.5135 4.924 50.3255 5.456 50.3255 6.096C50.3255 6.744 50.5135 7.28 50.8895 7.704C51.2655 8.128 51.7215 8.34 52.2575 8.34Z" fill="#D7D7D7"/>
<path d="M57.573 11.844H56.565V3.072H57.573V4.104C57.813 3.752 58.113 3.476 58.473 3.276C58.841 3.068 59.233 2.964 59.649 2.964C60.033 2.964 60.393 3.044 60.729 3.204C61.065 3.364 61.357 3.584 61.605 3.864C61.853 4.136 62.049 4.464 62.193 4.848C62.337 5.224 62.409 5.636 62.409 6.084C62.409 6.532 62.337 6.952 62.193 7.344C62.049 7.728 61.853 8.06 61.605 8.34C61.357 8.612 61.061 8.828 60.717 8.988C60.381 9.148 60.021 9.228 59.637 9.228C59.221 9.228 58.833 9.128 58.473 8.928C58.113 8.72 57.813 8.44 57.573 8.088V11.844ZM59.469 3.876C58.941 3.876 58.489 4.084 58.113 4.5C57.737 4.916 57.549 5.444 57.549 6.084C57.549 6.732 57.737 7.268 58.113 7.692C58.489 8.108 58.941 8.316 59.469 8.316C60.005 8.316 60.461 8.108 60.837 7.692C61.213 7.268 61.401 6.732 61.401 6.084C61.401 5.444 61.213 4.916 60.837 4.5C60.461 4.084 60.005 3.876 59.469 3.876Z" fill="#D7D7D7"/>
<path d="M72.4908 9.132L71.6028 7.104H67.6908L66.8028 9.132H65.7108L69.5628 0.612H69.8148L73.6668 9.132H72.4908ZM68.0868 6.192H71.2068L69.6468 2.628L68.0868 6.192Z" fill="#D7D7D7"/>
<path d="M75.5027 11.844H74.4947V3.072H75.5027V4.104C75.7427 3.752 76.0427 3.476 76.4027 3.276C76.7707 3.068 77.1627 2.964 77.5787 2.964C77.9627 2.964 78.3227 3.044 78.6587 3.204C78.9947 3.364 79.2867 3.584 79.5347 3.864C79.7827 4.136 79.9787 4.464 80.1227 4.848C80.2667 5.224 80.3387 5.636 80.3387 6.084C80.3387 6.532 80.2667 6.952 80.1227 7.344C79.9787 7.728 79.7827 8.06 79.5347 8.34C79.2867 8.612 78.9907 8.828 78.6467 8.988C78.3107 9.148 77.9507 9.228 77.5667 9.228C77.1507 9.228 76.7627 9.128 76.4027 8.928C76.0427 8.72 75.7427 8.44 75.5027 8.088V11.844ZM77.3987 3.876C76.8707 3.876 76.4187 4.084 76.0427 4.5C75.6667 4.916 75.4787 5.444 75.4787 6.084C75.4787 6.732 75.6667 7.268 76.0427 7.692C76.4187 8.108 76.8707 8.316 77.3987 8.316C77.9347 8.316 78.3907 8.108 78.7667 7.692C79.1427 7.268 79.3307 6.732 79.3307 6.084C79.3307 5.444 79.1427 4.916 78.7667 4.5C78.3907 4.084 77.9347 3.876 77.3987 3.876Z" fill="#D7D7D7"/>
<path d="M82.7214 11.844H81.7134V3.072H82.7214V4.104C82.9614 3.752 83.2614 3.476 83.6214 3.276C83.9894 3.068 84.3814 2.964 84.7974 2.964C85.1814 2.964 85.5414 3.044 85.8774 3.204C86.2134 3.364 86.5054 3.584 86.7534 3.864C87.0014 4.136 87.1974 4.464 87.3414 4.848C87.4854 5.224 87.5574 5.636 87.5574 6.084C87.5574 6.532 87.4854 6.952 87.3414 7.344C87.1974 7.728 87.0014 8.06 86.7534 8.34C86.5054 8.612 86.2094 8.828 85.8654 8.988C85.5294 9.148 85.1694 9.228 84.7854 9.228C84.3694 9.228 83.9814 9.128 83.6214 8.928C83.2614 8.72 82.9614 8.44 82.7214 8.088V11.844ZM84.6174 3.876C84.0894 3.876 83.6374 4.084 83.2614 4.5C82.8854 4.916 82.6974 5.444 82.6974 6.084C82.6974 6.732 82.8854 7.268 83.2614 7.692C83.6374 8.108 84.0894 8.316 84.6174 8.316C85.1534 8.316 85.6094 8.108 85.9854 7.692C86.3614 7.268 86.5494 6.732 86.5494 6.084C86.5494 5.444 86.3614 4.916 85.9854 4.5C85.6094 4.084 85.1534 3.876 84.6174 3.876Z" fill="#D7D7D7"/>
<path d="M71.0478 30.882H68.0816L64.9152 37.3996L61.6825 30.882H58.5162L63.2882 40.5477L60.0994 46.844H63.1769L71.0478 30.882ZM51.9371 39.5717C50.2202 39.5717 48.8371 38.2637 48.8371 36.4012C48.8371 34.5387 50.2202 33.2307 51.9371 33.2307C53.6766 33.2307 55.0372 34.5387 55.0372 36.4012C55.0372 38.2637 53.6766 39.5717 51.9371 39.5717ZM51.4469 42.0994C52.83 42.0994 54.0781 41.5896 55.0147 40.7243V41.944H57.846V30.882H55.0147V32.1005C54.1231 31.214 52.8963 30.7042 51.5582 30.7042C48.6595 30.7042 46.0283 33.0989 46.0283 36.4024C46.0283 39.7048 48.6157 42.0994 51.4469 42.0994ZM44.5565 25.5381L41.7252 26.4247V41.944H44.5565V25.5381ZM34.7235 33.6746H31.1557V29.1525H34.7235C36.1953 29.1525 37.2208 30.0838 37.2208 31.4141C37.2208 32.7445 36.1953 33.6746 34.7235 33.6746ZM28.0781 26.4247V41.944H31.1557V36.2906H34.9461C38.0011 36.2906 40.2747 34.1843 40.2747 31.3246C40.2747 28.4861 38.0899 26.4247 35.0574 26.4247H28.0781Z" fill="#FF4747"/>
<g clip-path="url(#clip0)">
<path d="M10.4049 23.844C4.65837 23.844 0 28.4767 0 34.189C0 39.9037 4.65837 44.5341 10.4049 44.5341C16.1515 44.5341 20.8099 39.9037 20.8099 34.189C20.8099 28.4767 16.1515 23.844 10.4049 23.844ZM6.25931 30.1191H12.2403L11.3321 31.5648H5.35108L6.25931 30.1191ZM16.2522 37.3442L15.3428 35.9009H12.6879L13.5985 34.4551H14.4369L13.4233 32.8457L10.5956 37.3431H3.05269L4.86914 34.4539H3.53581L4.44285 33.0082H10.2747L9.36646 34.4563H6.58494L5.67553 35.902H9.7892L13.4233 30.1191L17.9656 37.3454H16.2522V37.3442Z" fill="#FF4747"/>
</g>
<path d="M85.2959 42.62L82.6919 39.428V44H81.0479V35.516H81.4919L85.3559 40.244L89.1959 35.516H89.6159V44H87.9239V39.44L85.3319 42.62H85.2959Z" fill="white"/>
<path d="M94.1084 44.12C93.6844 44.12 93.2804 44.04 92.8964 43.88C92.5124 43.72 92.1804 43.5 91.9004 43.22C91.6204 42.94 91.3964 42.604 91.2284 42.212C91.0604 41.82 90.9764 41.392 90.9764 40.928C90.9764 40.472 91.0604 40.048 91.2284 39.656C91.3964 39.264 91.6204 38.928 91.9004 38.648C92.1804 38.368 92.5124 38.148 92.8964 37.988C93.2804 37.828 93.6844 37.748 94.1084 37.748C94.5404 37.748 94.9444 37.828 95.3204 37.988C95.7044 38.148 96.0364 38.368 96.3164 38.648C96.5964 38.928 96.8164 39.264 96.9764 39.656C97.1444 40.048 97.2284 40.472 97.2284 40.928C97.2284 41.392 97.1444 41.82 96.9764 42.212C96.8164 42.604 96.5964 42.94 96.3164 43.22C96.0364 43.5 95.7044 43.72 95.3204 43.88C94.9444 44.04 94.5404 44.12 94.1084 44.12ZM94.1084 42.68C94.5244 42.68 94.8764 42.52 95.1644 42.2C95.4524 41.872 95.5964 41.452 95.5964 40.94C95.5964 40.428 95.4524 40.008 95.1644 39.68C94.8764 39.352 94.5244 39.188 94.1084 39.188C93.6924 39.188 93.3364 39.352 93.0404 39.68C92.7524 40.008 92.6084 40.428 92.6084 40.94C92.6084 41.452 92.7524 41.872 93.0404 42.2C93.3364 42.52 93.6924 42.68 94.1084 42.68Z" fill="white"/>
<path d="M100.091 40.328V44H98.4594V37.856H100.091V38.792C100.235 38.48 100.467 38.228 100.787 38.036C101.107 37.836 101.471 37.736 101.879 37.736C102.559 37.736 103.087 37.968 103.463 38.432C103.839 38.896 104.027 39.484 104.027 40.196V44H102.395V40.4C102.395 40.008 102.287 39.696 102.071 39.464C101.855 39.224 101.575 39.104 101.231 39.104C100.879 39.104 100.599 39.224 100.391 39.464C100.191 39.696 100.091 39.984 100.091 40.328Z" fill="white"/>
<path d="M106.299 42.404V39.2H104.799V37.856H106.299V36.248L107.907 35.756V37.856H109.803V39.2H107.907V42.032C107.907 42.232 107.963 42.388 108.075 42.5C108.195 42.604 108.367 42.656 108.591 42.656H109.803V44H108.087C107.527 44 107.087 43.852 106.767 43.556C106.455 43.26 106.299 42.876 106.299 42.404Z" fill="white"/>
<path d="M112.513 40.328V44H110.881V35.252L112.513 34.76V38.792C112.657 38.48 112.889 38.228 113.209 38.036C113.529 37.836 113.893 37.736 114.301 37.736C114.981 37.736 115.509 37.968 115.885 38.432C116.261 38.896 116.449 39.484 116.449 40.196V44H114.817V40.4C114.817 40.008 114.709 39.696 114.493 39.464C114.277 39.224 113.997 39.104 113.653 39.104C113.301 39.104 113.021 39.224 112.813 39.464C112.613 39.696 112.513 39.984 112.513 40.328Z" fill="white"/>
<path d="M119.591 34.76V44H117.959V35.252L119.591 34.76Z" fill="white"/>
<path d="M127.052 37.856L122.948 46.7H121.22L122.936 43.16L120.392 37.856H122.168L123.8 41.396L125.396 37.856H127.052Z" fill="white"/>
<path d="M137.599 41.564C137.599 41.916 137.527 42.244 137.383 42.548C137.247 42.844 137.055 43.1 136.807 43.316C136.567 43.532 136.279 43.7 135.943 43.82C135.607 43.94 135.243 44 134.851 44H130.759V35.6H134.923C135.259 35.6 135.571 35.656 135.859 35.768C136.155 35.88 136.407 36.036 136.615 36.236C136.823 36.428 136.987 36.664 137.107 36.944C137.235 37.216 137.299 37.516 137.299 37.844C137.299 38.22 137.207 38.564 137.023 38.876C136.839 39.18 136.591 39.428 136.279 39.62C136.711 39.796 137.039 40.056 137.263 40.4C137.487 40.744 137.599 41.132 137.599 41.564ZM134.611 37.124H132.523V38.996H134.611C134.875 38.996 135.095 38.912 135.271 38.744C135.447 38.576 135.535 38.36 135.535 38.096C135.535 37.808 135.447 37.576 135.271 37.4C135.095 37.216 134.875 37.124 134.611 37.124ZM132.523 42.512H134.707C135.035 42.512 135.303 42.412 135.511 42.212C135.719 42.004 135.823 41.74 135.823 41.42C135.823 41.132 135.719 40.896 135.511 40.712C135.303 40.52 135.035 40.424 134.707 40.424H132.523V42.512Z" fill="white"/>
<path d="M139.752 36.98C139.464 36.98 139.22 36.88 139.02 36.68C138.82 36.48 138.72 36.236 138.72 35.948C138.72 35.66 138.82 35.416 139.02 35.216C139.22 35.008 139.464 34.904 139.752 34.904C140.04 34.904 140.284 35.008 140.484 35.216C140.684 35.416 140.784 35.66 140.784 35.948C140.784 36.236 140.684 36.48 140.484 36.68C140.284 36.88 140.04 36.98 139.752 36.98ZM138.936 44V37.856H140.568V44H138.936Z" fill="white"/>
<path d="M143.709 34.76V44H142.077V35.252L143.709 34.76Z" fill="white"/>
<path d="M146.861 34.76V44H145.229V35.252L146.861 34.76Z" fill="white"/>
<path d="M149.197 36.98C148.909 36.98 148.665 36.88 148.465 36.68C148.265 36.48 148.165 36.236 148.165 35.948C148.165 35.66 148.265 35.416 148.465 35.216C148.665 35.008 148.909 34.904 149.197 34.904C149.485 34.904 149.729 35.008 149.929 35.216C150.129 35.416 150.229 35.66 150.229 35.948C150.229 36.236 150.129 36.48 149.929 36.68C149.729 36.88 149.485 36.98 149.197 36.98ZM148.381 44V37.856H150.013V44H148.381Z" fill="white"/>
<path d="M153.154 40.328V44H151.522V37.856H153.154V38.792C153.298 38.48 153.53 38.228 153.85 38.036C154.17 37.836 154.534 37.736 154.942 37.736C155.622 37.736 156.15 37.968 156.526 38.432C156.902 38.896 157.09 39.484 157.09 40.196V44H155.458V40.4C155.458 40.008 155.35 39.696 155.134 39.464C154.918 39.224 154.638 39.104 154.294 39.104C153.942 39.104 153.662 39.224 153.454 39.464C153.254 39.696 153.154 39.984 153.154 40.328Z" fill="white"/>
<path d="M161.108 44.024C160.732 44.024 160.376 43.948 160.04 43.796C159.704 43.636 159.408 43.42 159.152 43.148C158.904 42.868 158.704 42.536 158.552 42.152C158.4 41.76 158.324 41.34 158.324 40.892C158.324 40.436 158.4 40.016 158.552 39.632C158.704 39.248 158.908 38.92 159.164 38.648C159.428 38.376 159.732 38.164 160.076 38.012C160.428 37.852 160.8 37.772 161.192 37.772C161.528 37.772 161.848 37.844 162.152 37.988C162.456 38.132 162.72 38.336 162.944 38.6V37.856H164.588V44.024C164.588 44.432 164.512 44.808 164.36 45.152C164.216 45.504 164.012 45.804 163.748 46.052C163.492 46.3 163.18 46.492 162.812 46.628C162.444 46.772 162.044 46.844 161.612 46.844C161.236 46.844 160.872 46.792 160.52 46.688C160.176 46.584 159.864 46.436 159.584 46.244C159.312 46.052 159.08 45.82 158.888 45.548C158.704 45.284 158.584 44.992 158.528 44.672H160.244C160.348 44.936 160.516 45.14 160.748 45.284C160.98 45.428 161.268 45.5 161.612 45.5C162.004 45.5 162.324 45.364 162.572 45.092C162.82 44.828 162.944 44.512 162.944 44.144V43.22C162.712 43.468 162.436 43.664 162.116 43.808C161.804 43.952 161.468 44.024 161.108 44.024ZM161.468 42.608C161.892 42.608 162.248 42.448 162.536 42.128C162.824 41.808 162.968 41.396 162.968 40.892C162.968 40.388 162.824 39.976 162.536 39.656C162.248 39.328 161.892 39.164 161.468 39.164C161.044 39.164 160.684 39.328 160.388 39.656C160.1 39.976 159.956 40.388 159.956 40.892C159.956 41.396 160.1 41.808 160.388 42.128C160.684 42.448 161.044 42.608 161.468 42.608Z" fill="white"/>
<path d="M273.981 16.68V14.72C272.767 14.5333 271.754 14.04 270.941 13.24C270.141 12.4267 269.687 11.4267 269.581 10.24H272.241C272.281 10.7467 272.454 11.1933 272.761 11.58C273.081 11.9533 273.487 12.2267 273.981 12.4V9.34C272.621 8.92667 271.587 8.42 270.881 7.82C270.174 7.20667 269.821 6.4 269.821 5.4C269.821 4.34667 270.201 3.46667 270.961 2.76C271.721 2.04 272.727 1.63333 273.981 1.54V0H275.661V1.62C276.847 1.82 277.834 2.32 278.621 3.12C279.407 3.90667 279.847 4.88 279.941 6.04H277.281C277.241 5.56 277.074 5.14 276.781 4.78C276.487 4.42 276.114 4.15333 275.661 3.98V7.18C276.994 7.59333 278.047 8.08 278.821 8.64C279.594 9.18667 279.981 9.95333 279.981 10.94C279.981 11.9933 279.581 12.8733 278.781 13.58C277.981 14.2733 276.941 14.6733 275.661 14.78V16.68H273.981ZM272.501 5.22C272.501 5.55333 272.621 5.84 272.861 6.08C273.101 6.30667 273.474 6.52 273.981 6.72V3.82C273.527 3.88667 273.167 4.05333 272.901 4.32C272.634 4.57333 272.501 4.87333 272.501 5.22ZM277.281 11.16C277.281 10.84 277.147 10.5733 276.881 10.36C276.614 10.1467 276.207 9.95333 275.661 9.78V12.52C276.154 12.4533 276.547 12.3067 276.841 12.08C277.134 11.84 277.281 11.5333 277.281 11.16Z" fill="white"/>
<path d="M289.147 6.5H291.807V9.74H293.167V12.1H291.807V15.18H289.147V12.1H281.787V11.5L287.467 1.12H290.187L285.387 9.74H289.147V6.5Z" fill="white"/>
<path d="M296.612 11.7C297.118 11.7 297.545 11.88 297.892 12.24C298.252 12.5867 298.432 13.0067 298.432 13.5C298.432 13.9933 298.252 14.4133 297.892 14.76C297.545 15.1067 297.118 15.28 296.612 15.28C296.118 15.28 295.698 15.1067 295.352 14.76C295.018 14.4133 294.852 13.9933 294.852 13.5C294.852 13.0067 295.018 12.5867 295.352 12.24C295.698 11.88 296.118 11.7 296.612 11.7Z" fill="white"/>
<path d="M297.806 5.9C297.806 5.26 297.933 4.64667 298.186 4.06C298.439 3.46 298.786 2.93333 299.226 2.48C299.679 2.02667 300.213 1.66667 300.826 1.4C301.453 1.13333 302.139 1 302.886 1C303.593 1 304.259 1.12667 304.886 1.38C305.526 1.62 306.079 1.96 306.546 2.4C307.013 2.82667 307.379 3.34 307.646 3.94C307.926 4.52667 308.066 5.16667 308.066 5.86C308.066 6.54 307.933 7.23333 307.666 7.94C307.413 8.64667 306.926 9.48 306.206 10.44L302.806 15.24H299.866L303.326 10.42C303.206 10.4333 303.073 10.4467 302.926 10.46C302.793 10.46 302.653 10.46 302.506 10.46C301.866 10.46 301.259 10.3467 300.686 10.12C300.113 9.89333 299.613 9.58 299.186 9.18C298.773 8.78 298.439 8.3 298.186 7.74C297.933 7.18 297.806 6.56667 297.806 5.9ZM302.906 3.28C302.186 3.28 301.579 3.53333 301.086 4.04C300.593 4.53333 300.346 5.14 300.346 5.86C300.346 6.59333 300.593 7.20667 301.086 7.7C301.579 8.19333 302.186 8.44 302.906 8.44C303.653 8.44 304.273 8.19333 304.766 7.7C305.273 7.20667 305.526 6.59333 305.526 5.86C305.526 5.14 305.273 4.53333 304.766 4.04C304.273 3.53333 303.653 3.28 302.906 3.28Z" fill="white"/>
<path d="M310.208 5.9C310.208 5.26 310.335 4.64667 310.588 4.06C310.842 3.46 311.188 2.93333 311.628 2.48C312.082 2.02667 312.615 1.66667 313.228 1.4C313.855 1.13333 314.542 1 315.288 1C315.995 1 316.662 1.12667 317.288 1.38C317.928 1.62 318.482 1.96 318.948 2.4C319.415 2.82667 319.782 3.34 320.048 3.94C320.328 4.52667 320.468 5.16667 320.468 5.86C320.468 6.54 320.335 7.23333 320.068 7.94C319.815 8.64667 319.328 9.48 318.608 10.44L315.208 15.24H312.268L315.728 10.42C315.608 10.4333 315.475 10.4467 315.328 10.46C315.195 10.46 315.055 10.46 314.908 10.46C314.268 10.46 313.662 10.3467 313.088 10.12C312.515 9.89333 312.015 9.58 311.588 9.18C311.175 8.78 310.842 8.3 310.588 7.74C310.335 7.18 310.208 6.56667 310.208 5.9ZM315.308 3.28C314.588 3.28 313.982 3.53333 313.488 4.04C312.995 4.53333 312.748 5.14 312.748 5.86C312.748 6.59333 312.995 7.20667 313.488 7.7C313.982 8.19333 314.588 8.44 315.308 8.44C316.055 8.44 316.675 8.19333 317.168 7.7C317.675 7.20667 317.928 6.59333 317.928 5.86C317.928 5.14 317.675 4.53333 317.168 4.04C316.675 3.53333 316.055 3.28 315.308 3.28Z" fill="white"/>
<path d="M320.827 17.796L325.807 6.78H326.851L321.883 17.796H320.827Z" fill="white"/>
<path d="M327.352 15.18V9.12H328.36V10.308C328.512 9.852 328.752 9.524 329.08 9.324C329.408 9.124 329.756 9.024 330.124 9.024C330.556 9.024 330.924 9.148 331.228 9.396C331.54 9.644 331.764 9.968 331.9 10.368C332.052 9.936 332.296 9.604 332.632 9.372C332.976 9.14 333.352 9.024 333.76 9.024C334.08 9.024 334.364 9.084 334.612 9.204C334.86 9.324 335.068 9.492 335.236 9.708C335.404 9.916 335.532 10.164 335.62 10.452C335.708 10.732 335.752 11.036 335.752 11.364V15.18H334.744V11.46C334.744 11.004 334.616 10.628 334.36 10.332C334.112 10.036 333.788 9.888 333.388 9.888C333.02 9.888 332.704 10.04 332.44 10.344C332.184 10.64 332.056 11.004 332.056 11.436V15.18H331.048V11.46C331.048 11.004 330.92 10.628 330.664 10.332C330.416 10.036 330.092 9.888 329.692 9.888C329.324 9.888 329.008 10.04 328.744 10.344C328.488 10.64 328.36 11.004 328.36 11.436V15.18H327.352Z" fill="white"/>
<path d="M340.072 15.288C339.664 15.288 339.28 15.208 338.92 15.048C338.56 14.888 338.248 14.672 337.984 14.4C337.72 14.12 337.512 13.788 337.36 13.404C337.208 13.012 337.132 12.588 337.132 12.132C337.132 11.684 337.208 11.268 337.36 10.884C337.512 10.5 337.72 10.172 337.984 9.9C338.248 9.62 338.56 9.4 338.92 9.24C339.28 9.08 339.664 9 340.072 9C340.48 9 340.864 9.08 341.224 9.24C341.584 9.4 341.892 9.62 342.148 9.9C342.412 10.172 342.62 10.5 342.772 10.884C342.924 11.268 343 11.684 343 12.132C343 12.588 342.924 13.012 342.772 13.404C342.62 13.788 342.412 14.12 342.148 14.4C341.892 14.672 341.584 14.888 341.224 15.048C340.864 15.208 340.48 15.288 340.072 15.288ZM340.072 14.388C340.6 14.388 341.052 14.176 341.428 13.752C341.804 13.328 341.992 12.792 341.992 12.144C341.992 11.504 341.804 10.972 341.428 10.548C341.052 10.116 340.6 9.9 340.072 9.9C339.536 9.9 339.08 10.116 338.704 10.548C338.328 10.972 338.14 11.504 338.14 12.144C338.14 12.792 338.328 13.328 338.704 13.752C339.08 14.176 339.536 14.388 340.072 14.388Z" fill="white"/>
<defs>
<clipPath id="clip0">
<rect width="20.8407" height="20.7207" fill="white" transform="translate(0 23.844)"/>
</clipPath>
</defs>
</svg>
