<svg width="343" height="51" viewBox="0 0 343 51" fill="none" xmlns="http://www.w3.org/2000/svg">
<path d="M6.336 12H0.864V3.6H6.336V4.536H1.92V7.248H5.304V8.184H1.92V11.064H6.336V12ZM13.8001 12L12.9121 9.972H9.00009L8.11209 12H7.02009L10.8721 3.48H11.1241L14.9761 12H13.8001ZM9.39609 9.06H12.5161L10.9561 5.496L9.39609 9.06ZM21.415 12H18.571V3.6H21.415C22.007 3.6 22.555 3.704 23.059 3.912C23.563 4.112 23.999 4.396 24.367 4.764C24.735 5.132 25.023 5.576 25.231 6.096C25.447 6.616 25.555 7.184 25.555 7.8C25.555 8.416 25.447 8.984 25.231 9.504C25.023 10.024 24.735 10.468 24.367 10.836C23.999 11.204 23.563 11.492 23.059 11.7C22.555 11.9 22.007 12 21.415 12ZM21.415 4.536H19.627V11.064H21.415C21.831 11.064 22.227 10.984 22.603 10.824C22.979 10.664 23.307 10.444 23.587 10.164C23.867 9.876 24.087 9.532 24.247 9.132C24.415 8.724 24.499 8.28 24.499 7.8C24.499 7.32 24.415 6.88 24.247 6.48C24.087 6.072 23.867 5.728 23.587 5.448C23.307 5.16 22.979 4.936 22.603 4.776C22.227 4.616 21.831 4.536 21.415 4.536ZM29.7074 12.108C29.2994 12.108 28.9154 12.028 28.5554 11.868C28.1954 11.708 27.8834 11.492 27.6194 11.22C27.3554 10.94 27.1474 10.608 26.9954 10.224C26.8434 9.832 26.7674 9.408 26.7674 8.952C26.7674 8.504 26.8394 8.088 26.9834 7.704C27.1354 7.32 27.3394 6.992 27.5954 6.72C27.8594 6.44 28.1674 6.22 28.5194 6.06C28.8714 5.9 29.2474 5.82 29.6474 5.82C30.0314 5.82 30.3954 5.9 30.7394 6.06C31.0834 6.212 31.3834 6.432 31.6394 6.72C31.8954 7.008 32.0994 7.368 32.2514 7.8C32.4034 8.224 32.4794 8.704 32.4794 9.24V9.312H27.7994C27.8714 9.872 28.0874 10.328 28.4474 10.68C28.8074 11.032 29.2274 11.208 29.7074 11.208C30.0114 11.208 30.2914 11.136 30.5474 10.992C30.8114 10.84 31.0234 10.64 31.1834 10.392H32.3114C32.0954 10.912 31.7514 11.328 31.2794 11.64C30.8154 11.952 30.2914 12.108 29.7074 12.108ZM29.6354 6.732C29.1874 6.732 28.7914 6.896 28.4474 7.224C28.1114 7.552 27.8994 7.972 27.8114 8.484H31.4234C31.3434 7.972 31.1354 7.552 30.7994 7.224C30.4634 6.896 30.0754 6.732 29.6354 6.732ZM33.6466 7.62C33.6546 7.084 33.8586 6.652 34.2586 6.324C34.6666 5.996 35.1706 5.832 35.7706 5.832C36.4666 5.832 37.0506 6.032 37.5226 6.432C37.9946 6.824 38.2466 7.328 38.2786 7.944H37.2946C37.2626 7.568 37.1066 7.268 36.8266 7.044C36.5546 6.812 36.2066 6.696 35.7826 6.696C35.4306 6.696 35.1506 6.776 34.9426 6.936C34.7426 7.096 34.6426 7.3 34.6426 7.548C34.6426 7.836 34.7826 8.044 35.0626 8.172C35.3426 8.3 35.6666 8.412 36.0346 8.508C36.2986 8.572 36.5666 8.644 36.8386 8.724C37.1186 8.796 37.3666 8.896 37.5826 9.024C37.8066 9.144 37.9906 9.308 38.1346 9.516C38.2786 9.716 38.3506 9.976 38.3506 10.296C38.3506 10.856 38.1346 11.3 37.7026 11.628C37.2706 11.948 36.7426 12.108 36.1186 12.108C35.3986 12.108 34.8026 11.904 34.3306 11.496C33.8586 11.088 33.6066 10.564 33.5746 9.924H34.5586C34.5826 10.316 34.7426 10.636 35.0386 10.884C35.3426 11.132 35.7066 11.256 36.1306 11.256C36.4746 11.256 36.7626 11.18 36.9946 11.028C37.2346 10.876 37.3546 10.664 37.3546 10.392C37.3546 10.08 37.1906 9.864 36.8626 9.744C36.5426 9.616 36.1786 9.5 35.7706 9.396C35.5226 9.34 35.2706 9.272 35.0146 9.192C34.7586 9.112 34.5306 9.008 34.3306 8.88C34.1306 8.752 33.9666 8.588 33.8386 8.388C33.7106 8.18 33.6466 7.924 33.6466 7.62ZM40.6597 2.868V12H39.6517V3.264L40.6597 2.868ZM40.7917 9L43.4557 5.94H44.5957L41.9917 8.928L44.6437 12H43.3477L40.7917 9ZM46.5653 10.524V6.804H45.0293V5.94H46.5653V4.512L47.5613 4.152V5.94H49.3493V6.804H47.5613V10.476C47.5613 10.684 47.6173 10.844 47.7293 10.956C47.8413 11.06 48.0093 11.112 48.2333 11.112H49.3493V12H47.9813C47.5253 12 47.1733 11.876 46.9253 11.628C46.6853 11.372 46.5653 11.004 46.5653 10.524ZM53.1215 12.108C52.7135 12.108 52.3295 12.028 51.9695 11.868C51.6095 11.708 51.2975 11.492 51.0335 11.22C50.7695 10.94 50.5615 10.608 50.4095 10.224C50.2575 9.832 50.1815 9.408 50.1815 8.952C50.1815 8.504 50.2575 8.088 50.4095 7.704C50.5615 7.32 50.7695 6.992 51.0335 6.72C51.2975 6.44 51.6095 6.22 51.9695 6.06C52.3295 5.9 52.7135 5.82 53.1215 5.82C53.5295 5.82 53.9135 5.9 54.2735 6.06C54.6335 6.22 54.9415 6.44 55.1975 6.72C55.4615 6.992 55.6695 7.32 55.8215 7.704C55.9735 8.088 56.0495 8.504 56.0495 8.952C56.0495 9.408 55.9735 9.832 55.8215 10.224C55.6695 10.608 55.4615 10.94 55.1975 11.22C54.9415 11.492 54.6335 11.708 54.2735 11.868C53.9135 12.028 53.5295 12.108 53.1215 12.108ZM53.1215 11.208C53.6495 11.208 54.1015 10.996 54.4775 10.572C54.8535 10.148 55.0415 9.612 55.0415 8.964C55.0415 8.324 54.8535 7.792 54.4775 7.368C54.1015 6.936 53.6495 6.72 53.1215 6.72C52.5855 6.72 52.1295 6.936 51.7535 7.368C51.3775 7.792 51.1895 8.324 51.1895 8.964C51.1895 9.612 51.3775 10.148 51.7535 10.572C52.1295 10.996 52.5855 11.208 53.1215 11.208ZM58.437 14.712H57.429V5.94H58.437V6.972C58.677 6.62 58.977 6.344 59.337 6.144C59.705 5.936 60.097 5.832 60.513 5.832C60.897 5.832 61.257 5.912 61.593 6.072C61.929 6.232 62.221 6.452 62.469 6.732C62.717 7.004 62.913 7.332 63.057 7.716C63.201 8.092 63.273 8.504 63.273 8.952C63.273 9.4 63.201 9.82 63.057 10.212C62.913 10.596 62.717 10.928 62.469 11.208C62.221 11.48 61.925 11.696 61.581 11.856C61.245 12.016 60.885 12.096 60.501 12.096C60.085 12.096 59.697 11.996 59.337 11.796C58.977 11.588 58.677 11.308 58.437 10.956V14.712ZM60.333 6.744C59.805 6.744 59.353 6.952 58.977 7.368C58.601 7.784 58.413 8.312 58.413 8.952C58.413 9.6 58.601 10.136 58.977 10.56C59.353 10.976 59.805 11.184 60.333 11.184C60.869 11.184 61.325 10.976 61.701 10.56C62.077 10.136 62.265 9.6 62.265 8.952C62.265 8.312 62.077 7.784 61.701 7.368C61.325 6.952 60.869 6.744 60.333 6.744ZM73.3548 12L72.4668 9.972H68.5548L67.6668 12H66.5748L70.4268 3.48H70.6788L74.5308 12H73.3548ZM68.9508 9.06H72.0708L70.5108 5.496L68.9508 9.06ZM76.3667 14.712H75.3587V5.94H76.3667V6.972C76.6067 6.62 76.9067 6.344 77.2667 6.144C77.6347 5.936 78.0267 5.832 78.4427 5.832C78.8267 5.832 79.1867 5.912 79.5227 6.072C79.8587 6.232 80.1507 6.452 80.3987 6.732C80.6467 7.004 80.8427 7.332 80.9867 7.716C81.1307 8.092 81.2027 8.504 81.2027 8.952C81.2027 9.4 81.1307 9.82 80.9867 10.212C80.8427 10.596 80.6467 10.928 80.3987 11.208C80.1507 11.48 79.8547 11.696 79.5107 11.856C79.1747 12.016 78.8147 12.096 78.4307 12.096C78.0147 12.096 77.6267 11.996 77.2667 11.796C76.9067 11.588 76.6067 11.308 76.3667 10.956V14.712ZM78.2627 6.744C77.7347 6.744 77.2827 6.952 76.9067 7.368C76.5307 7.784 76.3427 8.312 76.3427 8.952C76.3427 9.6 76.5307 10.136 76.9067 10.56C77.2827 10.976 77.7347 11.184 78.2627 11.184C78.7987 11.184 79.2547 10.976 79.6307 10.56C80.0067 10.136 80.1947 9.6 80.1947 8.952C80.1947 8.312 80.0067 7.784 79.6307 7.368C79.2547 6.952 78.7987 6.744 78.2627 6.744ZM83.5854 14.712H82.5774V5.94H83.5854V6.972C83.8254 6.62 84.1254 6.344 84.4854 6.144C84.8534 5.936 85.2454 5.832 85.6614 5.832C86.0454 5.832 86.4054 5.912 86.7414 6.072C87.0774 6.232 87.3694 6.452 87.6174 6.732C87.8654 7.004 88.0614 7.332 88.2054 7.716C88.3494 8.092 88.4214 8.504 88.4214 8.952C88.4214 9.4 88.3494 9.82 88.2054 10.212C88.0614 10.596 87.8654 10.928 87.6174 11.208C87.3694 11.48 87.0734 11.696 86.7294 11.856C86.3934 12.016 86.0334 12.096 85.6494 12.096C85.2334 12.096 84.8454 11.996 84.4854 11.796C84.1254 11.588 83.8254 11.308 83.5854 10.956V14.712ZM85.4814 6.744C84.9534 6.744 84.5014 6.952 84.1254 7.368C83.7494 7.784 83.5614 8.312 83.5614 8.952C83.5614 9.6 83.7494 10.136 84.1254 10.56C84.5014 10.976 84.9534 11.184 85.4814 11.184C86.0174 11.184 86.4734 10.976 86.8494 10.56C87.2254 10.136 87.4134 9.6 87.4134 8.952C87.4134 8.312 87.2254 7.784 86.8494 7.368C86.4734 6.952 86.0174 6.744 85.4814 6.744Z" fill="#D7D7D7"/>
<g clip-path="url(#clip0)">
<path d="M78.0041 30.5828C80.886 30.5828 82.9666 32.5336 82.9666 35.149C82.9666 37.7868 80.886 39.76 78.0041 39.76H74.3193V46.0998H72.4121V30.5828H78.0041ZM81.083 35.149C81.083 33.4857 79.8693 32.3338 78.0058 32.3338H74.321V38.0537H78.0058C79.8255 38.0537 81.083 36.8347 81.083 35.149Z" fill="#FF4747"/>
<path d="M69.0588 35.037H66.1753L63.0982 41.5541L59.9554 35.037H56.8782L61.5158 44.7033L58.4168 50.9999H61.4081L69.0588 35.037ZM50.4833 43.7287C48.8151 43.7287 47.4701 42.4201 47.4701 40.5589C47.4701 38.6959 48.8134 37.389 50.4833 37.389C52.1733 37.389 53.4964 38.6976 53.4964 40.5589C53.4964 42.4201 52.175 43.7287 50.4833 43.7287ZM50.0069 46.2563C51.3502 46.2563 52.5655 45.7467 53.4745 44.8823V46.1014H56.2268V35.037H53.4745V36.256C52.6076 35.3693 51.4158 34.8597 50.1146 34.8597C47.2967 34.8597 44.7397 37.2547 44.7397 40.5571C44.7397 43.8613 47.2546 46.2563 50.0069 46.2563ZM43.3089 29.6942L40.5567 30.5809V46.0997H43.3089V29.6942ZM33.7509 37.8315H30.2833V33.3083H33.7509C35.1818 33.3083 36.1783 34.2398 36.1783 35.569C36.1783 36.9 35.1818 37.8315 33.7509 37.8315ZM27.292 30.5809V46.0997H30.2833V40.4469H33.9681C36.9375 40.4469 39.1477 38.3412 39.1477 35.4812C39.1477 32.6437 37.0233 30.5809 34.0758 30.5809H27.292V30.5809Z" fill="#FF4747"/>
<path d="M95.5596 44.6156C93.5446 44.6156 91.9404 42.9747 91.9404 40.6916C91.9404 38.4084 93.5446 36.7675 95.5596 36.7675C97.5745 36.7675 99.1787 38.4084 99.1787 40.6916C99.1787 42.9747 97.5762 44.6156 95.5596 44.6156ZM95.5596 35.0819C92.5043 35.0819 90.119 37.4545 90.119 40.6898C90.119 43.9268 92.5026 46.2995 95.5596 46.2995C98.6165 46.2995 101 43.9268 101 40.6898C101 37.4545 98.6165 35.0819 95.5596 35.0819ZM86.1969 35.304H84.3755V46.1015H86.1969V39.8255C86.1969 37.897 87.8448 36.4559 89.816 36.833V35.0595C88.1899 34.8374 86.8904 35.5915 86.1969 37.1653V35.304Z" fill="#FF4747"/>
<g clip-path="url(#clip1)">
<path d="M10.0808 28C4.51326 28 0 32.6176 0 38.3113C0 44.0073 4.51326 48.6226 10.0808 48.6226C15.6484 48.6226 20.1617 44.0073 20.1617 38.3113C20.1617 32.6176 15.6484 28 10.0808 28ZM6.06433 34.2546H11.8591L10.9791 35.6956H5.18439L6.06433 34.2546ZM15.7459 41.4562L14.8648 40.0175H12.2927L13.1749 38.5765H13.9872L13.0051 36.9723L10.2655 41.455H2.95759L4.71746 38.5753H3.42567L4.30446 37.1343H9.95463L9.07469 38.5777H6.37982L5.49874 40.0187H9.48426L13.0051 34.2546L17.406 41.4573H15.7459V41.4562Z" fill="#FF4747"/>
</g>
</g>
<path d="M116.112 44.62L113.508 41.428V46H111.864V37.516H112.308L116.172 42.244L120.012 37.516H120.432V46H118.74V41.44L116.148 44.62H116.112ZM124.925 46.12C124.501 46.12 124.097 46.04 123.713 45.88C123.329 45.72 122.997 45.5 122.717 45.22C122.437 44.94 122.213 44.604 122.045 44.212C121.877 43.82 121.793 43.392 121.793 42.928C121.793 42.472 121.877 42.048 122.045 41.656C122.213 41.264 122.437 40.928 122.717 40.648C122.997 40.368 123.329 40.148 123.713 39.988C124.097 39.828 124.501 39.748 124.925 39.748C125.357 39.748 125.761 39.828 126.137 39.988C126.521 40.148 126.853 40.368 127.133 40.648C127.413 40.928 127.633 41.264 127.793 41.656C127.961 42.048 128.045 42.472 128.045 42.928C128.045 43.392 127.961 43.82 127.793 44.212C127.633 44.604 127.413 44.94 127.133 45.22C126.853 45.5 126.521 45.72 126.137 45.88C125.761 46.04 125.357 46.12 124.925 46.12ZM124.925 44.68C125.341 44.68 125.693 44.52 125.981 44.2C126.269 43.872 126.413 43.452 126.413 42.94C126.413 42.428 126.269 42.008 125.981 41.68C125.693 41.352 125.341 41.188 124.925 41.188C124.509 41.188 124.153 41.352 123.857 41.68C123.569 42.008 123.425 42.428 123.425 42.94C123.425 43.452 123.569 43.872 123.857 44.2C124.153 44.52 124.509 44.68 124.925 44.68ZM130.908 42.328V46H129.276V39.856H130.908V40.792C131.052 40.48 131.284 40.228 131.604 40.036C131.924 39.836 132.288 39.736 132.696 39.736C133.376 39.736 133.904 39.968 134.28 40.432C134.656 40.896 134.844 41.484 134.844 42.196V46H133.212V42.4C133.212 42.008 133.104 41.696 132.888 41.464C132.672 41.224 132.392 41.104 132.048 41.104C131.696 41.104 131.416 41.224 131.208 41.464C131.008 41.696 130.908 41.984 130.908 42.328ZM137.115 44.404V41.2H135.615V39.856H137.115V38.248L138.723 37.756V39.856H140.619V41.2H138.723V44.032C138.723 44.232 138.779 44.388 138.891 44.5C139.011 44.604 139.183 44.656 139.407 44.656H140.619V46H138.903C138.343 46 137.903 45.852 137.583 45.556C137.271 45.26 137.115 44.876 137.115 44.404ZM143.329 42.328V46H141.697V37.252L143.329 36.76V40.792C143.473 40.48 143.705 40.228 144.025 40.036C144.345 39.836 144.709 39.736 145.117 39.736C145.797 39.736 146.325 39.968 146.701 40.432C147.077 40.896 147.265 41.484 147.265 42.196V46H145.633V42.4C145.633 42.008 145.525 41.696 145.309 41.464C145.093 41.224 144.813 41.104 144.469 41.104C144.117 41.104 143.837 41.224 143.629 41.464C143.429 41.696 143.329 41.984 143.329 42.328ZM150.408 36.76V46H148.776V37.252L150.408 36.76ZM157.868 39.856L153.764 48.7H152.036L153.752 45.16L151.208 39.856H152.984L154.616 43.396L156.212 39.856H157.868ZM168.415 43.564C168.415 43.916 168.343 44.244 168.199 44.548C168.063 44.844 167.871 45.1 167.623 45.316C167.383 45.532 167.095 45.7 166.759 45.82C166.423 45.94 166.059 46 165.667 46H161.575V37.6H165.739C166.075 37.6 166.387 37.656 166.675 37.768C166.971 37.88 167.223 38.036 167.431 38.236C167.639 38.428 167.803 38.664 167.923 38.944C168.051 39.216 168.115 39.516 168.115 39.844C168.115 40.22 168.023 40.564 167.839 40.876C167.655 41.18 167.407 41.428 167.095 41.62C167.527 41.796 167.855 42.056 168.079 42.4C168.303 42.744 168.415 43.132 168.415 43.564ZM165.427 39.124H163.339V40.996H165.427C165.691 40.996 165.911 40.912 166.087 40.744C166.263 40.576 166.351 40.36 166.351 40.096C166.351 39.808 166.263 39.576 166.087 39.4C165.911 39.216 165.691 39.124 165.427 39.124ZM163.339 44.512H165.523C165.851 44.512 166.119 44.412 166.327 44.212C166.535 44.004 166.639 43.74 166.639 43.42C166.639 43.132 166.535 42.896 166.327 42.712C166.119 42.52 165.851 42.424 165.523 42.424H163.339V44.512ZM170.568 38.98C170.28 38.98 170.036 38.88 169.836 38.68C169.636 38.48 169.536 38.236 169.536 37.948C169.536 37.66 169.636 37.416 169.836 37.216C170.036 37.008 170.28 36.904 170.568 36.904C170.856 36.904 171.1 37.008 171.3 37.216C171.5 37.416 171.6 37.66 171.6 37.948C171.6 38.236 171.5 38.48 171.3 38.68C171.1 38.88 170.856 38.98 170.568 38.98ZM169.752 46V39.856H171.384V46H169.752ZM174.525 36.76V46H172.893V37.252L174.525 36.76ZM177.677 36.76V46H176.045V37.252L177.677 36.76ZM180.013 38.98C179.725 38.98 179.481 38.88 179.281 38.68C179.081 38.48 178.981 38.236 178.981 37.948C178.981 37.66 179.081 37.416 179.281 37.216C179.481 37.008 179.725 36.904 180.013 36.904C180.301 36.904 180.545 37.008 180.745 37.216C180.945 37.416 181.045 37.66 181.045 37.948C181.045 38.236 180.945 38.48 180.745 38.68C180.545 38.88 180.301 38.98 180.013 38.98ZM179.197 46V39.856H180.829V46H179.197ZM183.97 42.328V46H182.338V39.856H183.97V40.792C184.114 40.48 184.346 40.228 184.666 40.036C184.986 39.836 185.35 39.736 185.758 39.736C186.438 39.736 186.966 39.968 187.342 40.432C187.718 40.896 187.906 41.484 187.906 42.196V46H186.274V42.4C186.274 42.008 186.166 41.696 185.95 41.464C185.734 41.224 185.454 41.104 185.11 41.104C184.758 41.104 184.478 41.224 184.27 41.464C184.07 41.696 183.97 41.984 183.97 42.328ZM191.924 46.024C191.548 46.024 191.192 45.948 190.856 45.796C190.52 45.636 190.224 45.42 189.968 45.148C189.72 44.868 189.52 44.536 189.368 44.152C189.216 43.76 189.14 43.34 189.14 42.892C189.14 42.436 189.216 42.016 189.368 41.632C189.52 41.248 189.724 40.92 189.98 40.648C190.244 40.376 190.548 40.164 190.892 40.012C191.244 39.852 191.616 39.772 192.008 39.772C192.344 39.772 192.664 39.844 192.968 39.988C193.272 40.132 193.536 40.336 193.76 40.6V39.856H195.404V46.024C195.404 46.432 195.328 46.808 195.176 47.152C195.032 47.504 194.828 47.804 194.564 48.052C194.308 48.3 193.996 48.492 193.628 48.628C193.26 48.772 192.86 48.844 192.428 48.844C192.052 48.844 191.688 48.792 191.336 48.688C190.992 48.584 190.68 48.436 190.4 48.244C190.128 48.052 189.896 47.82 189.704 47.548C189.52 47.284 189.4 46.992 189.344 46.672H191.06C191.164 46.936 191.332 47.14 191.564 47.284C191.796 47.428 192.084 47.5 192.428 47.5C192.82 47.5 193.14 47.364 193.388 47.092C193.636 46.828 193.76 46.512 193.76 46.144V45.22C193.528 45.468 193.252 45.664 192.932 45.808C192.62 45.952 192.284 46.024 191.924 46.024ZM192.284 44.608C192.708 44.608 193.064 44.448 193.352 44.128C193.64 43.808 193.784 43.396 193.784 42.892C193.784 42.388 193.64 41.976 193.352 41.656C193.064 41.328 192.708 41.164 192.284 41.164C191.86 41.164 191.5 41.328 191.204 41.656C190.916 41.976 190.772 42.388 190.772 42.892C190.772 43.396 190.916 43.808 191.204 44.128C191.5 44.448 191.86 44.608 192.284 44.608Z" fill="white"/>
<defs>
<clipPath id="clip0">
<rect width="101" height="23" fill="white" transform="translate(0 28)"/>
</clipPath>
<clipPath id="clip1">
<rect width="20.1915" height="20.6531" fill="white" transform="translate(0 28)"/>
</clipPath>
</defs>
</svg>
