<svg width="343" height="51" viewBox="0 0 343 51" fill="none" xmlns="http://www.w3.org/2000/svg">
<path d="M6.336 12H0.864V3.6H6.336V4.536H1.92V7.248H5.304V8.184H1.92V11.064H6.336V12ZM13.8001 12L12.9121 9.972H9.00009L8.11209 12H7.02009L10.8721 3.48H11.1241L14.9761 12H13.8001ZM9.39609 9.06H12.5161L10.9561 5.496L9.39609 9.06ZM21.415 12H18.571V3.6H21.415C22.007 3.6 22.555 3.704 23.059 3.912C23.563 4.112 23.999 4.396 24.367 4.764C24.735 5.132 25.023 5.576 25.231 6.096C25.447 6.616 25.555 7.184 25.555 7.8C25.555 8.416 25.447 8.984 25.231 9.504C25.023 10.024 24.735 10.468 24.367 10.836C23.999 11.204 23.563 11.492 23.059 11.7C22.555 11.9 22.007 12 21.415 12ZM21.415 4.536H19.627V11.064H21.415C21.831 11.064 22.227 10.984 22.603 10.824C22.979 10.664 23.307 10.444 23.587 10.164C23.867 9.876 24.087 9.532 24.247 9.132C24.415 8.724 24.499 8.28 24.499 7.8C24.499 7.32 24.415 6.88 24.247 6.48C24.087 6.072 23.867 5.728 23.587 5.448C23.307 5.16 22.979 4.936 22.603 4.776C22.227 4.616 21.831 4.536 21.415 4.536ZM29.7074 12.108C29.2994 12.108 28.9154 12.028 28.5554 11.868C28.1954 11.708 27.8834 11.492 27.6194 11.22C27.3554 10.94 27.1474 10.608 26.9954 10.224C26.8434 9.832 26.7674 9.408 26.7674 8.952C26.7674 8.504 26.8394 8.088 26.9834 7.704C27.1354 7.32 27.3394 6.992 27.5954 6.72C27.8594 6.44 28.1674 6.22 28.5194 6.06C28.8714 5.9 29.2474 5.82 29.6474 5.82C30.0314 5.82 30.3954 5.9 30.7394 6.06C31.0834 6.212 31.3834 6.432 31.6394 6.72C31.8954 7.008 32.0994 7.368 32.2514 7.8C32.4034 8.224 32.4794 8.704 32.4794 9.24V9.312H27.7994C27.8714 9.872 28.0874 10.328 28.4474 10.68C28.8074 11.032 29.2274 11.208 29.7074 11.208C30.0114 11.208 30.2914 11.136 30.5474 10.992C30.8114 10.84 31.0234 10.64 31.1834 10.392H32.3114C32.0954 10.912 31.7514 11.328 31.2794 11.64C30.8154 11.952 30.2914 12.108 29.7074 12.108ZM29.6354 6.732C29.1874 6.732 28.7914 6.896 28.4474 7.224C28.1114 7.552 27.8994 7.972 27.8114 8.484H31.4234C31.3434 7.972 31.1354 7.552 30.7994 7.224C30.4634 6.896 30.0754 6.732 29.6354 6.732ZM33.6466 7.62C33.6546 7.084 33.8586 6.652 34.2586 6.324C34.6666 5.996 35.1706 5.832 35.7706 5.832C36.4666 5.832 37.0506 6.032 37.5226 6.432C37.9946 6.824 38.2466 7.328 38.2786 7.944H37.2946C37.2626 7.568 37.1066 7.268 36.8266 7.044C36.5546 6.812 36.2066 6.696 35.7826 6.696C35.4306 6.696 35.1506 6.776 34.9426 6.936C34.7426 7.096 34.6426 7.3 34.6426 7.548C34.6426 7.836 34.7826 8.044 35.0626 8.172C35.3426 8.3 35.6666 8.412 36.0346 8.508C36.2986 8.572 36.5666 8.644 36.8386 8.724C37.1186 8.796 37.3666 8.896 37.5826 9.024C37.8066 9.144 37.9906 9.308 38.1346 9.516C38.2786 9.716 38.3506 9.976 38.3506 10.296C38.3506 10.856 38.1346 11.3 37.7026 11.628C37.2706 11.948 36.7426 12.108 36.1186 12.108C35.3986 12.108 34.8026 11.904 34.3306 11.496C33.8586 11.088 33.6066 10.564 33.5746 9.924H34.5586C34.5826 10.316 34.7426 10.636 35.0386 10.884C35.3426 11.132 35.7066 11.256 36.1306 11.256C36.4746 11.256 36.7626 11.18 36.9946 11.028C37.2346 10.876 37.3546 10.664 37.3546 10.392C37.3546 10.08 37.1906 9.864 36.8626 9.744C36.5426 9.616 36.1786 9.5 35.7706 9.396C35.5226 9.34 35.2706 9.272 35.0146 9.192C34.7586 9.112 34.5306 9.008 34.3306 8.88C34.1306 8.752 33.9666 8.588 33.8386 8.388C33.7106 8.18 33.6466 7.924 33.6466 7.62ZM40.6597 2.868V12H39.6517V3.264L40.6597 2.868ZM40.7917 9L43.4557 5.94H44.5957L41.9917 8.928L44.6437 12H43.3477L40.7917 9ZM46.5653 10.524V6.804H45.0293V5.94H46.5653V4.512L47.5613 4.152V5.94H49.3493V6.804H47.5613V10.476C47.5613 10.684 47.6173 10.844 47.7293 10.956C47.8413 11.06 48.0093 11.112 48.2333 11.112H49.3493V12H47.9813C47.5253 12 47.1733 11.876 46.9253 11.628C46.6853 11.372 46.5653 11.004 46.5653 10.524ZM53.1215 12.108C52.7135 12.108 52.3295 12.028 51.9695 11.868C51.6095 11.708 51.2975 11.492 51.0335 11.22C50.7695 10.94 50.5615 10.608 50.4095 10.224C50.2575 9.832 50.1815 9.408 50.1815 8.952C50.1815 8.504 50.2575 8.088 50.4095 7.704C50.5615 7.32 50.7695 6.992 51.0335 6.72C51.2975 6.44 51.6095 6.22 51.9695 6.06C52.3295 5.9 52.7135 5.82 53.1215 5.82C53.5295 5.82 53.9135 5.9 54.2735 6.06C54.6335 6.22 54.9415 6.44 55.1975 6.72C55.4615 6.992 55.6695 7.32 55.8215 7.704C55.9735 8.088 56.0495 8.504 56.0495 8.952C56.0495 9.408 55.9735 9.832 55.8215 10.224C55.6695 10.608 55.4615 10.94 55.1975 11.22C54.9415 11.492 54.6335 11.708 54.2735 11.868C53.9135 12.028 53.5295 12.108 53.1215 12.108ZM53.1215 11.208C53.6495 11.208 54.1015 10.996 54.4775 10.572C54.8535 10.148 55.0415 9.612 55.0415 8.964C55.0415 8.324 54.8535 7.792 54.4775 7.368C54.1015 6.936 53.6495 6.72 53.1215 6.72C52.5855 6.72 52.1295 6.936 51.7535 7.368C51.3775 7.792 51.1895 8.324 51.1895 8.964C51.1895 9.612 51.3775 10.148 51.7535 10.572C52.1295 10.996 52.5855 11.208 53.1215 11.208ZM58.437 14.712H57.429V5.94H58.437V6.972C58.677 6.62 58.977 6.344 59.337 6.144C59.705 5.936 60.097 5.832 60.513 5.832C60.897 5.832 61.257 5.912 61.593 6.072C61.929 6.232 62.221 6.452 62.469 6.732C62.717 7.004 62.913 7.332 63.057 7.716C63.201 8.092 63.273 8.504 63.273 8.952C63.273 9.4 63.201 9.82 63.057 10.212C62.913 10.596 62.717 10.928 62.469 11.208C62.221 11.48 61.925 11.696 61.581 11.856C61.245 12.016 60.885 12.096 60.501 12.096C60.085 12.096 59.697 11.996 59.337 11.796C58.977 11.588 58.677 11.308 58.437 10.956V14.712ZM60.333 6.744C59.805 6.744 59.353 6.952 58.977 7.368C58.601 7.784 58.413 8.312 58.413 8.952C58.413 9.6 58.601 10.136 58.977 10.56C59.353 10.976 59.805 11.184 60.333 11.184C60.869 11.184 61.325 10.976 61.701 10.56C62.077 10.136 62.265 9.6 62.265 8.952C62.265 8.312 62.077 7.784 61.701 7.368C61.325 6.952 60.869 6.744 60.333 6.744ZM73.3548 12L72.4668 9.972H68.5548L67.6668 12H66.5748L70.4268 3.48H70.6788L74.5308 12H73.3548ZM68.9508 9.06H72.0708L70.5108 5.496L68.9508 9.06ZM76.3667 14.712H75.3587V5.94H76.3667V6.972C76.6067 6.62 76.9067 6.344 77.2667 6.144C77.6347 5.936 78.0267 5.832 78.4427 5.832C78.8267 5.832 79.1867 5.912 79.5227 6.072C79.8587 6.232 80.1507 6.452 80.3987 6.732C80.6467 7.004 80.8427 7.332 80.9867 7.716C81.1307 8.092 81.2027 8.504 81.2027 8.952C81.2027 9.4 81.1307 9.82 80.9867 10.212C80.8427 10.596 80.6467 10.928 80.3987 11.208C80.1507 11.48 79.8547 11.696 79.5107 11.856C79.1747 12.016 78.8147 12.096 78.4307 12.096C78.0147 12.096 77.6267 11.996 77.2667 11.796C76.9067 11.588 76.6067 11.308 76.3667 10.956V14.712ZM78.2627 6.744C77.7347 6.744 77.2827 6.952 76.9067 7.368C76.5307 7.784 76.3427 8.312 76.3427 8.952C76.3427 9.6 76.5307 10.136 76.9067 10.56C77.2827 10.976 77.7347 11.184 78.2627 11.184C78.7987 11.184 79.2547 10.976 79.6307 10.56C80.0067 10.136 80.1947 9.6 80.1947 8.952C80.1947 8.312 80.0067 7.784 79.6307 7.368C79.2547 6.952 78.7987 6.744 78.2627 6.744ZM83.5854 14.712H82.5774V5.94H83.5854V6.972C83.8254 6.62 84.1254 6.344 84.4854 6.144C84.8534 5.936 85.2454 5.832 85.6614 5.832C86.0454 5.832 86.4054 5.912 86.7414 6.072C87.0774 6.232 87.3694 6.452 87.6174 6.732C87.8654 7.004 88.0614 7.332 88.2054 7.716C88.3494 8.092 88.4214 8.504 88.4214 8.952C88.4214 9.4 88.3494 9.82 88.2054 10.212C88.0614 10.596 87.8654 10.928 87.6174 11.208C87.3694 11.48 87.0734 11.696 86.7294 11.856C86.3934 12.016 86.0334 12.096 85.6494 12.096C85.2334 12.096 84.8454 11.996 84.4854 11.796C84.1254 11.588 83.8254 11.308 83.5854 10.956V14.712ZM85.4814 6.744C84.9534 6.744 84.5014 6.952 84.1254 7.368C83.7494 7.784 83.5614 8.312 83.5614 8.952C83.5614 9.6 83.7494 10.136 84.1254 10.56C84.5014 10.976 84.9534 11.184 85.4814 11.184C86.0174 11.184 86.4734 10.976 86.8494 10.56C87.2254 10.136 87.4134 9.6 87.4134 8.952C87.4134 8.312 87.2254 7.784 86.8494 7.368C86.4734 6.952 86.0174 6.744 85.4814 6.744Z" fill="#D7D7D7"/>
<g clip-path="url(#clip0)">
<path d="M78.0041 30.5827C80.886 30.5827 82.9666 32.5335 82.9666 35.149C82.9666 37.7868 80.886 39.76 78.0041 39.76H74.3193V46.0997H72.4121V30.5827H78.0041ZM81.083 35.149C81.083 33.4857 79.8693 32.3338 78.0058 32.3338H74.321V38.0537H78.0058C79.8255 38.0537 81.083 36.8346 81.083 35.149Z" fill="#FF4747"/>
<path d="M69.0588 35.0371H66.1753L63.0982 41.5541L59.9554 35.0371H56.8782L61.5158 44.7033L58.4168 51H61.4081L69.0588 35.0371ZM50.4833 43.7288C48.8151 43.7288 47.4701 42.4202 47.4701 40.5589C47.4701 38.6959 48.8134 37.3891 50.4833 37.3891C52.1733 37.3891 53.4964 38.6976 53.4964 40.5589C53.4964 42.4202 52.175 43.7288 50.4833 43.7288ZM50.0069 46.2564C51.3502 46.2564 52.5655 45.7468 53.4745 44.8824V46.1014H56.2268V35.0371H53.4745V36.2561C52.6076 35.3694 51.4158 34.8597 50.1146 34.8597C47.2967 34.8597 44.7397 37.2548 44.7397 40.5572C44.7397 43.8614 47.2546 46.2564 50.0069 46.2564ZM43.3089 29.6943L40.5567 30.581V46.0997H43.3089V29.6943ZM33.7509 37.8316H30.2833V33.3084H33.7509C35.1818 33.3084 36.1783 34.2399 36.1783 35.5691C36.1783 36.9001 35.1818 37.8316 33.7509 37.8316ZM27.292 30.581V46.0997H30.2833V40.447H33.9681C36.9375 40.447 39.1477 38.3412 39.1477 35.4813C39.1477 32.6437 37.0233 30.581 34.0758 30.581H27.292V30.581Z" fill="#FF4747"/>
<path d="M95.5596 44.6155C93.5446 44.6155 91.9404 42.9746 91.9404 40.6915C91.9404 38.4084 93.5446 36.7675 95.5596 36.7675C97.5745 36.7675 99.1787 38.4084 99.1787 40.6915C99.1787 42.9746 97.5762 44.6155 95.5596 44.6155ZM95.5596 35.0818C92.5043 35.0818 90.119 37.4545 90.119 40.6898C90.119 43.9268 92.5026 46.2994 95.5596 46.2994C98.6165 46.2994 101 43.9268 101 40.6898C101 37.4545 98.6165 35.0818 95.5596 35.0818ZM86.1969 35.3039H84.3755V46.1014H86.1969V39.8254C86.1969 37.897 87.8448 36.4558 89.816 36.8329V35.0594C88.1899 34.8373 86.8904 35.5915 86.1969 37.1652V35.3039Z" fill="#FF4747"/>
<g clip-path="url(#clip1)">
<path d="M10.0808 28C4.51326 28 0 32.6176 0 38.3113C0 44.0073 4.51326 48.6226 10.0808 48.6226C15.6484 48.6226 20.1617 44.0073 20.1617 38.3113C20.1617 32.6176 15.6484 28 10.0808 28ZM6.06433 34.2546H11.8591L10.9791 35.6956H5.18439L6.06433 34.2546ZM15.7459 41.4562L14.8648 40.0175H12.2927L13.1749 38.5765H13.9872L13.0051 36.9723L10.2655 41.455H2.95759L4.71746 38.5753H3.42567L4.30446 37.1343H9.95463L9.07469 38.5777H6.37982L5.49874 40.0187H9.48426L13.0051 34.2546L17.406 41.4573H15.7459V41.4562Z" fill="#FF4747"/>
</g>
</g>
<path d="M116.112 44.62L113.508 41.428V46H111.864V37.516H112.308L116.172 42.244L120.012 37.516H120.432V46H118.74V41.44L116.148 44.62H116.112ZM124.925 46.12C124.501 46.12 124.097 46.04 123.713 45.88C123.329 45.72 122.997 45.5 122.717 45.22C122.437 44.94 122.213 44.604 122.045 44.212C121.877 43.82 121.793 43.392 121.793 42.928C121.793 42.472 121.877 42.048 122.045 41.656C122.213 41.264 122.437 40.928 122.717 40.648C122.997 40.368 123.329 40.148 123.713 39.988C124.097 39.828 124.501 39.748 124.925 39.748C125.357 39.748 125.761 39.828 126.137 39.988C126.521 40.148 126.853 40.368 127.133 40.648C127.413 40.928 127.633 41.264 127.793 41.656C127.961 42.048 128.045 42.472 128.045 42.928C128.045 43.392 127.961 43.82 127.793 44.212C127.633 44.604 127.413 44.94 127.133 45.22C126.853 45.5 126.521 45.72 126.137 45.88C125.761 46.04 125.357 46.12 124.925 46.12ZM124.925 44.68C125.341 44.68 125.693 44.52 125.981 44.2C126.269 43.872 126.413 43.452 126.413 42.94C126.413 42.428 126.269 42.008 125.981 41.68C125.693 41.352 125.341 41.188 124.925 41.188C124.509 41.188 124.153 41.352 123.857 41.68C123.569 42.008 123.425 42.428 123.425 42.94C123.425 43.452 123.569 43.872 123.857 44.2C124.153 44.52 124.509 44.68 124.925 44.68ZM130.908 42.328V46H129.276V39.856H130.908V40.792C131.052 40.48 131.284 40.228 131.604 40.036C131.924 39.836 132.288 39.736 132.696 39.736C133.376 39.736 133.904 39.968 134.28 40.432C134.656 40.896 134.844 41.484 134.844 42.196V46H133.212V42.4C133.212 42.008 133.104 41.696 132.888 41.464C132.672 41.224 132.392 41.104 132.048 41.104C131.696 41.104 131.416 41.224 131.208 41.464C131.008 41.696 130.908 41.984 130.908 42.328ZM137.115 44.404V41.2H135.615V39.856H137.115V38.248L138.723 37.756V39.856H140.619V41.2H138.723V44.032C138.723 44.232 138.779 44.388 138.891 44.5C139.011 44.604 139.183 44.656 139.407 44.656H140.619V46H138.903C138.343 46 137.903 45.852 137.583 45.556C137.271 45.26 137.115 44.876 137.115 44.404ZM143.329 42.328V46H141.697V37.252L143.329 36.76V40.792C143.473 40.48 143.705 40.228 144.025 40.036C144.345 39.836 144.709 39.736 145.117 39.736C145.797 39.736 146.325 39.968 146.701 40.432C147.077 40.896 147.265 41.484 147.265 42.196V46H145.633V42.4C145.633 42.008 145.525 41.696 145.309 41.464C145.093 41.224 144.813 41.104 144.469 41.104C144.117 41.104 143.837 41.224 143.629 41.464C143.429 41.696 143.329 41.984 143.329 42.328ZM150.408 36.76V46H148.776V37.252L150.408 36.76ZM157.868 39.856L153.764 48.7H152.036L153.752 45.16L151.208 39.856H152.984L154.616 43.396L156.212 39.856H157.868ZM168.415 43.564C168.415 43.916 168.343 44.244 168.199 44.548C168.063 44.844 167.871 45.1 167.623 45.316C167.383 45.532 167.095 45.7 166.759 45.82C166.423 45.94 166.059 46 165.667 46H161.575V37.6H165.739C166.075 37.6 166.387 37.656 166.675 37.768C166.971 37.88 167.223 38.036 167.431 38.236C167.639 38.428 167.803 38.664 167.923 38.944C168.051 39.216 168.115 39.516 168.115 39.844C168.115 40.22 168.023 40.564 167.839 40.876C167.655 41.18 167.407 41.428 167.095 41.62C167.527 41.796 167.855 42.056 168.079 42.4C168.303 42.744 168.415 43.132 168.415 43.564ZM165.427 39.124H163.339V40.996H165.427C165.691 40.996 165.911 40.912 166.087 40.744C166.263 40.576 166.351 40.36 166.351 40.096C166.351 39.808 166.263 39.576 166.087 39.4C165.911 39.216 165.691 39.124 165.427 39.124ZM163.339 44.512H165.523C165.851 44.512 166.119 44.412 166.327 44.212C166.535 44.004 166.639 43.74 166.639 43.42C166.639 43.132 166.535 42.896 166.327 42.712C166.119 42.52 165.851 42.424 165.523 42.424H163.339V44.512ZM170.568 38.98C170.28 38.98 170.036 38.88 169.836 38.68C169.636 38.48 169.536 38.236 169.536 37.948C169.536 37.66 169.636 37.416 169.836 37.216C170.036 37.008 170.28 36.904 170.568 36.904C170.856 36.904 171.1 37.008 171.3 37.216C171.5 37.416 171.6 37.66 171.6 37.948C171.6 38.236 171.5 38.48 171.3 38.68C171.1 38.88 170.856 38.98 170.568 38.98ZM169.752 46V39.856H171.384V46H169.752ZM174.525 36.76V46H172.893V37.252L174.525 36.76ZM177.677 36.76V46H176.045V37.252L177.677 36.76ZM180.013 38.98C179.725 38.98 179.481 38.88 179.281 38.68C179.081 38.48 178.981 38.236 178.981 37.948C178.981 37.66 179.081 37.416 179.281 37.216C179.481 37.008 179.725 36.904 180.013 36.904C180.301 36.904 180.545 37.008 180.745 37.216C180.945 37.416 181.045 37.66 181.045 37.948C181.045 38.236 180.945 38.48 180.745 38.68C180.545 38.88 180.301 38.98 180.013 38.98ZM179.197 46V39.856H180.829V46H179.197ZM183.97 42.328V46H182.338V39.856H183.97V40.792C184.114 40.48 184.346 40.228 184.666 40.036C184.986 39.836 185.35 39.736 185.758 39.736C186.438 39.736 186.966 39.968 187.342 40.432C187.718 40.896 187.906 41.484 187.906 42.196V46H186.274V42.4C186.274 42.008 186.166 41.696 185.95 41.464C185.734 41.224 185.454 41.104 185.11 41.104C184.758 41.104 184.478 41.224 184.27 41.464C184.07 41.696 183.97 41.984 183.97 42.328ZM191.924 46.024C191.548 46.024 191.192 45.948 190.856 45.796C190.52 45.636 190.224 45.42 189.968 45.148C189.72 44.868 189.52 44.536 189.368 44.152C189.216 43.76 189.14 43.34 189.14 42.892C189.14 42.436 189.216 42.016 189.368 41.632C189.52 41.248 189.724 40.92 189.98 40.648C190.244 40.376 190.548 40.164 190.892 40.012C191.244 39.852 191.616 39.772 192.008 39.772C192.344 39.772 192.664 39.844 192.968 39.988C193.272 40.132 193.536 40.336 193.76 40.6V39.856H195.404V46.024C195.404 46.432 195.328 46.808 195.176 47.152C195.032 47.504 194.828 47.804 194.564 48.052C194.308 48.3 193.996 48.492 193.628 48.628C193.26 48.772 192.86 48.844 192.428 48.844C192.052 48.844 191.688 48.792 191.336 48.688C190.992 48.584 190.68 48.436 190.4 48.244C190.128 48.052 189.896 47.82 189.704 47.548C189.52 47.284 189.4 46.992 189.344 46.672H191.06C191.164 46.936 191.332 47.14 191.564 47.284C191.796 47.428 192.084 47.5 192.428 47.5C192.82 47.5 193.14 47.364 193.388 47.092C193.636 46.828 193.76 46.512 193.76 46.144V45.22C193.528 45.468 193.252 45.664 192.932 45.808C192.62 45.952 192.284 46.024 191.924 46.024ZM192.284 44.608C192.708 44.608 193.064 44.448 193.352 44.128C193.64 43.808 193.784 43.396 193.784 42.892C193.784 42.388 193.64 41.976 193.352 41.656C193.064 41.328 192.708 41.164 192.284 41.164C191.86 41.164 191.5 41.328 191.204 41.656C190.916 41.976 190.772 42.388 190.772 42.892C190.772 43.396 190.916 43.808 191.204 44.128C191.5 44.448 191.86 44.608 192.284 44.608Z" fill="white"/>
<path d="M262.569 21.5V19.54C261.356 19.3533 260.342 18.86 259.529 18.06C258.729 17.2467 258.276 16.2467 258.169 15.06H260.829C260.869 15.5667 261.042 16.0133 261.349 16.4C261.669 16.7733 262.076 17.0467 262.569 17.22V14.16C261.209 13.7467 260.176 13.24 259.469 12.64C258.762 12.0267 258.409 11.22 258.409 10.22C258.409 9.16667 258.789 8.28667 259.549 7.58C260.309 6.86 261.316 6.45333 262.569 6.36V4.82H264.249V6.44C265.436 6.64 266.422 7.14 267.209 7.94C267.996 8.72667 268.436 9.7 268.529 10.86H265.869C265.829 10.38 265.662 9.96 265.369 9.6C265.076 9.24 264.702 8.97333 264.249 8.8V12C265.582 12.4133 266.636 12.9 267.409 13.46C268.182 14.0067 268.569 14.7733 268.569 15.76C268.569 16.8133 268.169 17.6933 267.369 18.4C266.569 19.0933 265.529 19.4933 264.249 19.6V21.5H262.569ZM261.089 10.04C261.089 10.3733 261.209 10.66 261.449 10.9C261.689 11.1267 262.062 11.34 262.569 11.54V8.64C262.116 8.70667 261.756 8.87333 261.489 9.14C261.222 9.39333 261.089 9.69333 261.089 10.04ZM265.869 15.98C265.869 15.66 265.736 15.3933 265.469 15.18C265.202 14.9667 264.796 14.7733 264.249 14.6V17.34C264.742 17.2733 265.136 17.1267 265.429 16.9C265.722 16.66 265.869 16.3533 265.869 15.98ZM270.296 20V17.62H273.616V8.38H270.296L271.216 6H276.356V17.62H279.676V20H270.296ZM288.283 11.32H290.943V14.56H292.303V16.92H290.943V20H288.283V16.92H280.923V16.32L286.603 5.94H289.323L284.523 14.56H288.283V11.32ZM295.747 16.52C296.254 16.52 296.68 16.7 297.027 17.06C297.387 17.4067 297.567 17.8267 297.567 18.32C297.567 18.8133 297.387 19.2333 297.027 19.58C296.68 19.9267 296.254 20.1 295.747 20.1C295.254 20.1 294.834 19.9267 294.487 19.58C294.154 19.2333 293.987 18.8133 293.987 18.32C293.987 17.8267 294.154 17.4067 294.487 17.06C294.834 16.7 295.254 16.52 295.747 16.52ZM296.941 10.72C296.941 10.08 297.068 9.46667 297.321 8.88C297.575 8.28 297.921 7.75333 298.361 7.3C298.815 6.84667 299.348 6.48667 299.961 6.22C300.588 5.95333 301.275 5.82 302.021 5.82C302.728 5.82 303.395 5.94667 304.021 6.2C304.661 6.44 305.215 6.78 305.681 7.22C306.148 7.64667 306.515 8.16 306.781 8.76C307.061 9.34667 307.201 9.98667 307.201 10.68C307.201 11.36 307.068 12.0533 306.801 12.76C306.548 13.4667 306.061 14.3 305.341 15.26L301.941 20.06H299.001L302.461 15.24C302.341 15.2533 302.208 15.2667 302.061 15.28C301.928 15.28 301.788 15.28 301.641 15.28C301.001 15.28 300.395 15.1667 299.821 14.94C299.248 14.7133 298.748 14.4 298.321 14C297.908 13.6 297.575 13.12 297.321 12.56C297.068 12 296.941 11.3867 296.941 10.72ZM302.041 8.1C301.321 8.1 300.715 8.35333 300.221 8.86C299.728 9.35333 299.481 9.96 299.481 10.68C299.481 11.4133 299.728 12.0267 300.221 12.52C300.715 13.0133 301.321 13.26 302.041 13.26C302.788 13.26 303.408 13.0133 303.901 12.52C304.408 12.0267 304.661 11.4133 304.661 10.68C304.661 9.96 304.408 9.35333 303.901 8.86C303.408 8.35333 302.788 8.1 302.041 8.1ZM309.344 10.72C309.344 10.08 309.47 9.46667 309.724 8.88C309.977 8.28 310.324 7.75333 310.764 7.3C311.217 6.84667 311.75 6.48667 312.364 6.22C312.99 5.95333 313.677 5.82 314.424 5.82C315.13 5.82 315.797 5.94667 316.424 6.2C317.064 6.44 317.617 6.78 318.084 7.22C318.55 7.64667 318.917 8.16 319.184 8.76C319.464 9.34667 319.604 9.98667 319.604 10.68C319.604 11.36 319.47 12.0533 319.204 12.76C318.95 13.4667 318.464 14.3 317.744 15.26L314.344 20.06H311.404L314.864 15.24C314.744 15.2533 314.61 15.2667 314.464 15.28C314.33 15.28 314.19 15.28 314.044 15.28C313.404 15.28 312.797 15.1667 312.224 14.94C311.65 14.7133 311.15 14.4 310.724 14C310.31 13.6 309.977 13.12 309.724 12.56C309.47 12 309.344 11.3867 309.344 10.72ZM314.444 8.1C313.724 8.1 313.117 8.35333 312.624 8.86C312.13 9.35333 311.884 9.96 311.884 10.68C311.884 11.4133 312.13 12.0267 312.624 12.52C313.117 13.0133 313.724 13.26 314.444 13.26C315.19 13.26 315.81 13.0133 316.304 12.52C316.81 12.0267 317.064 11.4133 317.064 10.68C317.064 9.96 316.81 9.35333 316.304 8.86C315.81 8.35333 315.19 8.1 314.444 8.1ZM319.963 22.616L324.943 11.6H325.987L321.019 22.616H319.963ZM326.488 20V13.94H327.496V15.128C327.648 14.672 327.888 14.344 328.216 14.144C328.544 13.944 328.892 13.844 329.26 13.844C329.692 13.844 330.06 13.968 330.364 14.216C330.676 14.464 330.9 14.788 331.036 15.188C331.188 14.756 331.432 14.424 331.768 14.192C332.112 13.96 332.488 13.844 332.896 13.844C333.216 13.844 333.5 13.904 333.748 14.024C333.996 14.144 334.204 14.312 334.372 14.528C334.54 14.736 334.668 14.984 334.756 15.272C334.844 15.552 334.888 15.856 334.888 16.184V20H333.88V16.28C333.88 15.824 333.752 15.448 333.496 15.152C333.248 14.856 332.924 14.708 332.524 14.708C332.156 14.708 331.84 14.86 331.576 15.164C331.32 15.46 331.192 15.824 331.192 16.256V20H330.184V16.28C330.184 15.824 330.056 15.448 329.8 15.152C329.552 14.856 329.228 14.708 328.828 14.708C328.46 14.708 328.144 14.86 327.88 15.164C327.624 15.46 327.496 15.824 327.496 16.256V20H326.488ZM339.207 20.108C338.799 20.108 338.415 20.028 338.055 19.868C337.695 19.708 337.383 19.492 337.119 19.22C336.855 18.94 336.647 18.608 336.495 18.224C336.343 17.832 336.267 17.408 336.267 16.952C336.267 16.504 336.343 16.088 336.495 15.704C336.647 15.32 336.855 14.992 337.119 14.72C337.383 14.44 337.695 14.22 338.055 14.06C338.415 13.9 338.799 13.82 339.207 13.82C339.615 13.82 339.999 13.9 340.359 14.06C340.719 14.22 341.027 14.44 341.283 14.72C341.547 14.992 341.755 15.32 341.907 15.704C342.059 16.088 342.135 16.504 342.135 16.952C342.135 17.408 342.059 17.832 341.907 18.224C341.755 18.608 341.547 18.94 341.283 19.22C341.027 19.492 340.719 19.708 340.359 19.868C339.999 20.028 339.615 20.108 339.207 20.108ZM339.207 19.208C339.735 19.208 340.187 18.996 340.563 18.572C340.939 18.148 341.127 17.612 341.127 16.964C341.127 16.324 340.939 15.792 340.563 15.368C340.187 14.936 339.735 14.72 339.207 14.72C338.671 14.72 338.215 14.936 337.839 15.368C337.463 15.792 337.275 16.324 337.275 16.964C337.275 17.612 337.463 18.148 337.839 18.572C338.215 18.996 338.671 19.208 339.207 19.208Z" fill="white"/>
<defs>
<clipPath id="clip0">
<rect width="101" height="23" fill="white" transform="translate(0 28)"/>
</clipPath>
<clipPath id="clip1">
<rect width="20.1915" height="20.6531" fill="white" transform="translate(0 28)"/>
</clipPath>
</defs>
</svg>
