<svg width="310" height="47" viewBox="0 0 310 47" fill="none" xmlns="http://www.w3.org/2000/svg">
<path d="M5.472 9.132H0V0.732H5.472V1.668H1.056V4.38H4.44V5.316H1.056V8.196H5.472V9.132Z" fill="#D7D7D7"/>
<path d="M12.9361 9.132L12.0481 7.104H8.13609L7.24809 9.132H6.15609L10.0081 0.612H10.2601L14.1121 9.132H12.9361ZM8.53209 6.192H11.6521L10.0921 2.628L8.53209 6.192Z" fill="#D7D7D7"/>
<path d="M20.551 9.132H17.707V0.732H20.551C21.143 0.732 21.691 0.836 22.195 1.044C22.699 1.244 23.135 1.528 23.503 1.896C23.871 2.264 24.159 2.708 24.367 3.228C24.583 3.748 24.691 4.316 24.691 4.932C24.691 5.548 24.583 6.116 24.367 6.636C24.159 7.156 23.871 7.6 23.503 7.968C23.135 8.336 22.699 8.624 22.195 8.832C21.691 9.032 21.143 9.132 20.551 9.132ZM20.551 1.668H18.763V8.196H20.551C20.967 8.196 21.363 8.116 21.739 7.956C22.115 7.796 22.443 7.576 22.723 7.296C23.003 7.008 23.223 6.664 23.383 6.264C23.551 5.856 23.635 5.412 23.635 4.932C23.635 4.452 23.551 4.012 23.383 3.612C23.223 3.204 23.003 2.86 22.723 2.58C22.443 2.292 22.115 2.068 21.739 1.908C21.363 1.748 20.967 1.668 20.551 1.668Z" fill="#D7D7D7"/>
<path d="M28.8434 9.24C28.4354 9.24 28.0514 9.16 27.6914 9C27.3314 8.84 27.0194 8.624 26.7554 8.352C26.4914 8.072 26.2834 7.74 26.1314 7.356C25.9794 6.964 25.9034 6.54 25.9034 6.084C25.9034 5.636 25.9754 5.22 26.1194 4.836C26.2714 4.452 26.4754 4.124 26.7314 3.852C26.9954 3.572 27.3034 3.352 27.6554 3.192C28.0074 3.032 28.3834 2.952 28.7834 2.952C29.1674 2.952 29.5314 3.032 29.8754 3.192C30.2194 3.344 30.5194 3.564 30.7754 3.852C31.0314 4.14 31.2354 4.5 31.3874 4.932C31.5394 5.356 31.6154 5.836 31.6154 6.372V6.444H26.9354C27.0074 7.004 27.2234 7.46 27.5834 7.812C27.9434 8.164 28.3634 8.34 28.8434 8.34C29.1474 8.34 29.4274 8.268 29.6834 8.124C29.9474 7.972 30.1594 7.772 30.3194 7.524H31.4474C31.2314 8.044 30.8874 8.46 30.4154 8.772C29.9514 9.084 29.4274 9.24 28.8434 9.24ZM28.7714 3.864C28.3234 3.864 27.9274 4.028 27.5834 4.356C27.2474 4.684 27.0354 5.104 26.9474 5.616H30.5594C30.4794 5.104 30.2714 4.684 29.9354 4.356C29.5994 4.028 29.2114 3.864 28.7714 3.864Z" fill="#D7D7D7"/>
<path d="M32.7826 4.752C32.7906 4.216 32.9946 3.784 33.3946 3.456C33.8026 3.128 34.3066 2.964 34.9066 2.964C35.6026 2.964 36.1866 3.164 36.6586 3.564C37.1306 3.956 37.3826 4.46 37.4146 5.076H36.4306C36.3986 4.7 36.2426 4.4 35.9626 4.176C35.6906 3.944 35.3426 3.828 34.9186 3.828C34.5666 3.828 34.2866 3.908 34.0786 4.068C33.8786 4.228 33.7786 4.432 33.7786 4.68C33.7786 4.968 33.9186 5.176 34.1986 5.304C34.4786 5.432 34.8026 5.544 35.1706 5.64C35.4346 5.704 35.7026 5.776 35.9746 5.856C36.2546 5.928 36.5026 6.028 36.7186 6.156C36.9426 6.276 37.1266 6.44 37.2706 6.648C37.4146 6.848 37.4866 7.108 37.4866 7.428C37.4866 7.988 37.2706 8.432 36.8386 8.76C36.4066 9.08 35.8786 9.24 35.2546 9.24C34.5346 9.24 33.9386 9.036 33.4666 8.628C32.9946 8.22 32.7426 7.696 32.7106 7.056H33.6946C33.7186 7.448 33.8786 7.768 34.1746 8.016C34.4786 8.264 34.8426 8.388 35.2666 8.388C35.6106 8.388 35.8986 8.312 36.1306 8.16C36.3706 8.008 36.4906 7.796 36.4906 7.524C36.4906 7.212 36.3266 6.996 35.9986 6.876C35.6786 6.748 35.3146 6.632 34.9066 6.528C34.6586 6.472 34.4066 6.404 34.1506 6.324C33.8946 6.244 33.6666 6.14 33.4666 6.012C33.2666 5.884 33.1026 5.72 32.9746 5.52C32.8466 5.312 32.7826 5.056 32.7826 4.752Z" fill="#D7D7D7"/>
<path d="M39.7957 0V9.132H38.7877V0.396L39.7957 0ZM39.9277 6.132L42.5917 3.072H43.7317L41.1277 6.06L43.7797 9.132H42.4837L39.9277 6.132Z" fill="#D7D7D7"/>
<path d="M45.7013 7.656V3.936H44.1653V3.072H45.7013V1.644L46.6973 1.284V3.072H48.4853V3.936H46.6973V7.608C46.6973 7.816 46.7533 7.976 46.8653 8.088C46.9773 8.192 47.1453 8.244 47.3693 8.244H48.4853V9.132H47.1173C46.6613 9.132 46.3093 9.008 46.0613 8.76C45.8213 8.504 45.7013 8.136 45.7013 7.656Z" fill="#D7D7D7"/>
<path d="M52.2575 9.24C51.8495 9.24 51.4655 9.16 51.1055 9C50.7455 8.84 50.4335 8.624 50.1695 8.352C49.9055 8.072 49.6975 7.74 49.5455 7.356C49.3935 6.964 49.3175 6.54 49.3175 6.084C49.3175 5.636 49.3935 5.22 49.5455 4.836C49.6975 4.452 49.9055 4.124 50.1695 3.852C50.4335 3.572 50.7455 3.352 51.1055 3.192C51.4655 3.032 51.8495 2.952 52.2575 2.952C52.6655 2.952 53.0495 3.032 53.4095 3.192C53.7695 3.352 54.0775 3.572 54.3335 3.852C54.5975 4.124 54.8055 4.452 54.9575 4.836C55.1095 5.22 55.1855 5.636 55.1855 6.084C55.1855 6.54 55.1095 6.964 54.9575 7.356C54.8055 7.74 54.5975 8.072 54.3335 8.352C54.0775 8.624 53.7695 8.84 53.4095 9C53.0495 9.16 52.6655 9.24 52.2575 9.24ZM52.2575 8.34C52.7855 8.34 53.2375 8.128 53.6135 7.704C53.9895 7.28 54.1775 6.744 54.1775 6.096C54.1775 5.456 53.9895 4.924 53.6135 4.5C53.2375 4.068 52.7855 3.852 52.2575 3.852C51.7215 3.852 51.2655 4.068 50.8895 4.5C50.5135 4.924 50.3255 5.456 50.3255 6.096C50.3255 6.744 50.5135 7.28 50.8895 7.704C51.2655 8.128 51.7215 8.34 52.2575 8.34Z" fill="#D7D7D7"/>
<path d="M57.573 11.844H56.565V3.072H57.573V4.104C57.813 3.752 58.113 3.476 58.473 3.276C58.841 3.068 59.233 2.964 59.649 2.964C60.033 2.964 60.393 3.044 60.729 3.204C61.065 3.364 61.357 3.584 61.605 3.864C61.853 4.136 62.049 4.464 62.193 4.848C62.337 5.224 62.409 5.636 62.409 6.084C62.409 6.532 62.337 6.952 62.193 7.344C62.049 7.728 61.853 8.06 61.605 8.34C61.357 8.612 61.061 8.828 60.717 8.988C60.381 9.148 60.021 9.228 59.637 9.228C59.221 9.228 58.833 9.128 58.473 8.928C58.113 8.72 57.813 8.44 57.573 8.088V11.844ZM59.469 3.876C58.941 3.876 58.489 4.084 58.113 4.5C57.737 4.916 57.549 5.444 57.549 6.084C57.549 6.732 57.737 7.268 58.113 7.692C58.489 8.108 58.941 8.316 59.469 8.316C60.005 8.316 60.461 8.108 60.837 7.692C61.213 7.268 61.401 6.732 61.401 6.084C61.401 5.444 61.213 4.916 60.837 4.5C60.461 4.084 60.005 3.876 59.469 3.876Z" fill="#D7D7D7"/>
<path d="M72.4908 9.132L71.6028 7.104H67.6908L66.8028 9.132H65.7108L69.5628 0.612H69.8148L73.6668 9.132H72.4908ZM68.0868 6.192H71.2068L69.6468 2.628L68.0868 6.192Z" fill="#D7D7D7"/>
<path d="M75.5027 11.844H74.4947V3.072H75.5027V4.104C75.7427 3.752 76.0427 3.476 76.4027 3.276C76.7707 3.068 77.1627 2.964 77.5787 2.964C77.9627 2.964 78.3227 3.044 78.6587 3.204C78.9947 3.364 79.2867 3.584 79.5347 3.864C79.7827 4.136 79.9787 4.464 80.1227 4.848C80.2667 5.224 80.3387 5.636 80.3387 6.084C80.3387 6.532 80.2667 6.952 80.1227 7.344C79.9787 7.728 79.7827 8.06 79.5347 8.34C79.2867 8.612 78.9907 8.828 78.6467 8.988C78.3107 9.148 77.9507 9.228 77.5667 9.228C77.1507 9.228 76.7627 9.128 76.4027 8.928C76.0427 8.72 75.7427 8.44 75.5027 8.088V11.844ZM77.3987 3.876C76.8707 3.876 76.4187 4.084 76.0427 4.5C75.6667 4.916 75.4787 5.444 75.4787 6.084C75.4787 6.732 75.6667 7.268 76.0427 7.692C76.4187 8.108 76.8707 8.316 77.3987 8.316C77.9347 8.316 78.3907 8.108 78.7667 7.692C79.1427 7.268 79.3307 6.732 79.3307 6.084C79.3307 5.444 79.1427 4.916 78.7667 4.5C78.3907 4.084 77.9347 3.876 77.3987 3.876Z" fill="#D7D7D7"/>
<path d="M82.7214 11.844H81.7134V3.072H82.7214V4.104C82.9614 3.752 83.2614 3.476 83.6214 3.276C83.9894 3.068 84.3814 2.964 84.7974 2.964C85.1814 2.964 85.5414 3.044 85.8774 3.204C86.2134 3.364 86.5054 3.584 86.7534 3.864C87.0014 4.136 87.1974 4.464 87.3414 4.848C87.4854 5.224 87.5574 5.636 87.5574 6.084C87.5574 6.532 87.4854 6.952 87.3414 7.344C87.1974 7.728 87.0014 8.06 86.7534 8.34C86.5054 8.612 86.2094 8.828 85.8654 8.988C85.5294 9.148 85.1694 9.228 84.7854 9.228C84.3694 9.228 83.9814 9.128 83.6214 8.928C83.2614 8.72 82.9614 8.44 82.7214 8.088V11.844ZM84.6174 3.876C84.0894 3.876 83.6374 4.084 83.2614 4.5C82.8854 4.916 82.6974 5.444 82.6974 6.084C82.6974 6.732 82.8854 7.268 83.2614 7.692C83.6374 8.108 84.0894 8.316 84.6174 8.316C85.1534 8.316 85.6094 8.108 85.9854 7.692C86.3614 7.268 86.5494 6.732 86.5494 6.084C86.5494 5.444 86.3614 4.916 85.9854 4.5C85.6094 4.084 85.1534 3.876 84.6174 3.876Z" fill="#D7D7D7"/>
<g clip-path="url(#clip0)">
<path d="M78.0041 26.4267C80.886 26.4267 82.9666 28.3775 82.9666 30.9929C82.9666 33.6308 80.886 35.604 78.0041 35.604H74.3193V41.9437H72.4121V26.4267H78.0041ZM81.083 30.9929C81.083 29.3297 79.8693 28.1778 78.0058 28.1778H74.321V33.8977H78.0058C79.8255 33.8977 81.083 32.6786 81.083 30.9929Z" fill="#FF4747"/>
<path d="M69.0588 30.8811H66.1753L63.0982 37.3981L59.9554 30.8811H56.8782L61.5158 40.5473L58.4168 46.844H61.4081L69.0588 30.8811ZM50.4833 39.5728C48.8151 39.5728 47.4701 38.2642 47.4701 36.4029C47.4701 34.5399 48.8134 33.2331 50.4833 33.2331C52.1733 33.2331 53.4964 34.5416 53.4964 36.4029C53.4964 38.2642 52.175 39.5728 50.4833 39.5728ZM50.0069 42.1004C51.3502 42.1004 52.5655 41.5907 53.4745 40.7264V41.9454H56.2268V30.8811H53.4745V32.1001C52.6076 31.2134 51.4158 30.7037 50.1146 30.7037C47.2967 30.7037 44.7397 33.0988 44.7397 36.4012C44.7397 39.7054 47.2546 42.1004 50.0069 42.1004ZM43.3089 25.5383L40.5567 26.425V41.9437H43.3089V25.5383ZM33.7509 33.6756H30.2833V29.1524H33.7509C35.1818 29.1524 36.1783 30.0839 36.1783 31.4131C36.1783 32.7441 35.1818 33.6756 33.7509 33.6756ZM27.292 26.425V41.9437H30.2833V36.291H33.9681C36.9375 36.291 39.1477 34.1852 39.1477 31.3253C39.1477 28.4877 37.0233 26.425 34.0758 26.425H27.292V26.425Z" fill="#FF4747"/>
<path d="M95.5596 40.4595C93.5446 40.4595 91.9404 38.8186 91.9404 36.5355C91.9404 34.2524 93.5446 32.6115 95.5596 32.6115C97.5745 32.6115 99.1787 34.2524 99.1787 36.5355C99.1787 38.8186 97.5762 40.4595 95.5596 40.4595ZM95.5596 30.9258C92.5043 30.9258 90.119 33.2985 90.119 36.5338C90.119 39.7708 92.5026 42.1434 95.5596 42.1434C98.6165 42.1434 101 39.7708 101 36.5338C101 33.2985 98.6165 30.9258 95.5596 30.9258ZM86.1969 31.1479H84.3755V41.9454H86.1969V35.6694C86.1969 33.741 87.8448 32.2998 89.816 32.6769V30.9034C88.1899 30.6813 86.8904 31.4355 86.1969 33.0092V31.1479Z" fill="#FF4747"/>
<g clip-path="url(#clip1)">
<path d="M10.0808 23.844C4.51326 23.844 0 28.4616 0 34.1553C0 39.8513 4.51326 44.4665 10.0808 44.4665C15.6484 44.4665 20.1617 39.8513 20.1617 34.1553C20.1617 28.4616 15.6484 23.844 10.0808 23.844ZM6.06433 30.0986H11.8591L10.9791 31.5396H5.18439L6.06433 30.0986ZM15.7459 37.3002L14.8648 35.8615H12.2927L13.1749 34.4205H13.9872L13.0051 32.8163L10.2655 37.299H2.95759L4.71746 34.4193H3.42567L4.30446 32.9783H9.95463L9.07469 34.4216H6.37982L5.49874 35.8627H9.48426L13.0051 30.0986L17.406 37.3013H15.7459V37.3002Z" fill="#FF4747"/>
</g>
</g>
<path d="M117.648 44L116.916 42.368H113.544L112.836 44H111L115.08 35.432H115.44L119.52 44H117.648ZM114.144 41.012H116.304L115.212 38.552L114.144 41.012Z" fill="white"/>
<path d="M121.908 40.328V44H120.276V37.856H121.908V38.792C122.052 38.48 122.284 38.228 122.604 38.036C122.924 37.836 123.288 37.736 123.696 37.736C124.376 37.736 124.904 37.968 125.28 38.432C125.656 38.896 125.844 39.484 125.844 40.196V44H124.212V40.4C124.212 40.008 124.104 39.696 123.888 39.464C123.672 39.224 123.392 39.104 123.048 39.104C122.696 39.104 122.416 39.224 122.208 39.464C122.008 39.696 121.908 39.984 121.908 40.328Z" fill="white"/>
<path d="M128.986 40.328V44H127.354V37.856H128.986V38.792C129.13 38.48 129.362 38.228 129.682 38.036C130.002 37.836 130.366 37.736 130.774 37.736C131.454 37.736 131.982 37.968 132.358 38.432C132.734 38.896 132.922 39.484 132.922 40.196V44H131.29V40.4C131.29 40.008 131.182 39.696 130.966 39.464C130.75 39.224 130.47 39.104 130.126 39.104C129.774 39.104 129.494 39.224 129.286 39.464C129.086 39.696 128.986 39.984 128.986 40.328Z" fill="white"/>
<path d="M138.368 44V43.064C138.224 43.376 137.992 43.632 137.672 43.832C137.352 44.024 136.988 44.12 136.58 44.12C135.9 44.12 135.372 43.888 134.996 43.424C134.62 42.96 134.432 42.372 134.432 41.66V37.856H136.064V41.456C136.064 41.848 136.168 42.164 136.376 42.404C136.592 42.644 136.872 42.764 137.216 42.764C137.576 42.764 137.856 42.644 138.056 42.404C138.264 42.164 138.368 41.872 138.368 41.528V37.856H140V44H138.368Z" fill="white"/>
<path d="M145.086 44V43.1C144.886 43.412 144.622 43.656 144.294 43.832C143.966 44.008 143.59 44.096 143.166 44.096C142.614 44.096 142.142 43.94 141.75 43.628C141.366 43.308 141.174 42.888 141.174 42.368C141.174 41.824 141.362 41.408 141.738 41.12C142.122 40.832 142.61 40.66 143.202 40.604L145.086 40.436V40.244C145.086 39.852 144.982 39.564 144.774 39.38C144.574 39.196 144.322 39.104 144.018 39.104C143.714 39.104 143.466 39.176 143.274 39.32C143.09 39.456 142.946 39.652 142.842 39.908H141.258C141.402 39.26 141.726 38.74 142.23 38.348C142.742 37.948 143.354 37.748 144.066 37.748C144.442 37.748 144.794 37.8 145.122 37.904C145.45 38.008 145.73 38.164 145.962 38.372C146.202 38.572 146.39 38.828 146.526 39.14C146.662 39.444 146.73 39.796 146.73 40.196V44H145.086ZM142.782 42.308C142.782 42.492 142.866 42.644 143.034 42.764C143.202 42.884 143.422 42.944 143.694 42.944C143.862 42.944 144.026 42.916 144.186 42.86C144.354 42.796 144.502 42.712 144.63 42.608C144.766 42.504 144.874 42.384 144.954 42.248C145.042 42.104 145.086 41.956 145.086 41.804V41.492L143.502 41.66C143.254 41.684 143.07 41.756 142.95 41.876C142.838 41.988 142.782 42.132 142.782 42.308Z" fill="white"/>
<path d="M149.857 34.76V44H148.225V35.252L149.857 34.76Z" fill="white"/>
<path d="M161.126 41.564C161.126 41.916 161.054 42.244 160.91 42.548C160.774 42.844 160.582 43.1 160.334 43.316C160.094 43.532 159.806 43.7 159.47 43.82C159.134 43.94 158.77 44 158.378 44H154.286V35.6H158.45C158.786 35.6 159.098 35.656 159.386 35.768C159.682 35.88 159.934 36.036 160.142 36.236C160.35 36.428 160.514 36.664 160.634 36.944C160.762 37.216 160.826 37.516 160.826 37.844C160.826 38.22 160.734 38.564 160.55 38.876C160.366 39.18 160.118 39.428 159.806 39.62C160.238 39.796 160.566 40.056 160.79 40.4C161.014 40.744 161.126 41.132 161.126 41.564ZM158.138 37.124H156.05V38.996H158.138C158.402 38.996 158.622 38.912 158.798 38.744C158.974 38.576 159.062 38.36 159.062 38.096C159.062 37.808 158.974 37.576 158.798 37.4C158.622 37.216 158.402 37.124 158.138 37.124ZM156.05 42.512H158.234C158.562 42.512 158.83 42.412 159.038 42.212C159.246 42.004 159.35 41.74 159.35 41.42C159.35 41.132 159.246 40.896 159.038 40.712C158.83 40.52 158.562 40.424 158.234 40.424H156.05V42.512Z" fill="white"/>
<path d="M163.279 36.98C162.991 36.98 162.747 36.88 162.547 36.68C162.347 36.48 162.247 36.236 162.247 35.948C162.247 35.66 162.347 35.416 162.547 35.216C162.747 35.008 162.991 34.904 163.279 34.904C163.567 34.904 163.811 35.008 164.011 35.216C164.211 35.416 164.311 35.66 164.311 35.948C164.311 36.236 164.211 36.48 164.011 36.68C163.811 36.88 163.567 36.98 163.279 36.98ZM162.463 44V37.856H164.095V44H162.463Z" fill="white"/>
<path d="M167.236 34.76V44H165.604V35.252L167.236 34.76Z" fill="white"/>
<path d="M170.388 34.76V44H168.756V35.252L170.388 34.76Z" fill="white"/>
<path d="M172.724 36.98C172.436 36.98 172.192 36.88 171.992 36.68C171.792 36.48 171.692 36.236 171.692 35.948C171.692 35.66 171.792 35.416 171.992 35.216C172.192 35.008 172.436 34.904 172.724 34.904C173.012 34.904 173.256 35.008 173.456 35.216C173.656 35.416 173.756 35.66 173.756 35.948C173.756 36.236 173.656 36.48 173.456 36.68C173.256 36.88 173.012 36.98 172.724 36.98ZM171.908 44V37.856H173.54V44H171.908Z" fill="white"/>
<path d="M176.681 40.328V44H175.049V37.856H176.681V38.792C176.825 38.48 177.057 38.228 177.377 38.036C177.697 37.836 178.061 37.736 178.469 37.736C179.149 37.736 179.677 37.968 180.053 38.432C180.429 38.896 180.617 39.484 180.617 40.196V44H178.985V40.4C178.985 40.008 178.877 39.696 178.661 39.464C178.445 39.224 178.165 39.104 177.821 39.104C177.469 39.104 177.189 39.224 176.981 39.464C176.781 39.696 176.681 39.984 176.681 40.328Z" fill="white"/>
<path d="M184.635 44.024C184.259 44.024 183.903 43.948 183.567 43.796C183.231 43.636 182.935 43.42 182.679 43.148C182.431 42.868 182.231 42.536 182.079 42.152C181.927 41.76 181.851 41.34 181.851 40.892C181.851 40.436 181.927 40.016 182.079 39.632C182.231 39.248 182.435 38.92 182.691 38.648C182.955 38.376 183.259 38.164 183.603 38.012C183.955 37.852 184.327 37.772 184.719 37.772C185.055 37.772 185.375 37.844 185.679 37.988C185.983 38.132 186.247 38.336 186.471 38.6V37.856H188.115V44.024C188.115 44.432 188.039 44.808 187.887 45.152C187.743 45.504 187.539 45.804 187.275 46.052C187.019 46.3 186.707 46.492 186.339 46.628C185.971 46.772 185.571 46.844 185.139 46.844C184.763 46.844 184.399 46.792 184.047 46.688C183.703 46.584 183.391 46.436 183.111 46.244C182.839 46.052 182.607 45.82 182.415 45.548C182.231 45.284 182.111 44.992 182.055 44.672H183.771C183.875 44.936 184.043 45.14 184.275 45.284C184.507 45.428 184.795 45.5 185.139 45.5C185.531 45.5 185.851 45.364 186.099 45.092C186.347 44.828 186.471 44.512 186.471 44.144V43.22C186.239 43.468 185.963 43.664 185.643 43.808C185.331 43.952 184.995 44.024 184.635 44.024ZM184.995 42.608C185.419 42.608 185.775 42.448 186.063 42.128C186.351 41.808 186.495 41.396 186.495 40.892C186.495 40.388 186.351 39.976 186.063 39.656C185.775 39.328 185.419 39.164 184.995 39.164C184.571 39.164 184.211 39.328 183.915 39.656C183.627 39.976 183.483 40.388 183.483 40.892C183.483 41.396 183.627 41.808 183.915 42.128C184.211 42.448 184.571 42.608 184.995 42.608Z" fill="white"/>
<path d="M236.4 16.68V14.72C235.187 14.5333 234.173 14.04 233.36 13.24C232.56 12.4267 232.107 11.4267 232 10.24H234.66C234.7 10.7467 234.873 11.1933 235.18 11.58C235.5 11.9533 235.907 12.2267 236.4 12.4V9.34C235.04 8.92667 234.007 8.42 233.3 7.82C232.593 7.20667 232.24 6.4 232.24 5.4C232.24 4.34667 232.62 3.46667 233.38 2.76C234.14 2.04 235.147 1.63333 236.4 1.54V0H238.08V1.62C239.267 1.82 240.253 2.32 241.04 3.12C241.827 3.90667 242.267 4.88 242.36 6.04H239.7C239.66 5.56 239.493 5.14 239.2 4.78C238.907 4.42 238.533 4.15333 238.08 3.98V7.18C239.413 7.59333 240.467 8.08 241.24 8.64C242.013 9.18667 242.4 9.95333 242.4 10.94C242.4 11.9933 242 12.8733 241.2 13.58C240.4 14.2733 239.36 14.6733 238.08 14.78V16.68H236.4ZM234.92 5.22C234.92 5.55333 235.04 5.84 235.28 6.08C235.52 6.30667 235.893 6.52 236.4 6.72V3.82C235.947 3.88667 235.587 4.05333 235.32 4.32C235.053 4.57333 234.92 4.87333 234.92 5.22ZM239.7 11.16C239.7 10.84 239.567 10.5733 239.3 10.36C239.033 10.1467 238.627 9.95333 238.08 9.78V12.52C238.573 12.4533 238.967 12.3067 239.26 12.08C239.553 11.84 239.7 11.5333 239.7 11.16Z" fill="white"/>
<path d="M244.347 5.9C244.347 5.26 244.473 4.64667 244.727 4.06C244.98 3.46 245.327 2.93333 245.767 2.48C246.22 2.02667 246.753 1.66667 247.367 1.4C247.993 1.13333 248.68 1 249.427 1C250.133 1 250.8 1.12667 251.427 1.38C252.067 1.62 252.62 1.96 253.087 2.4C253.553 2.82667 253.92 3.34 254.187 3.94C254.467 4.52667 254.607 5.16667 254.607 5.86C254.607 6.54 254.473 7.23333 254.207 7.94C253.953 8.64667 253.467 9.48 252.747 10.44L249.347 15.24H246.407L249.867 10.42C249.747 10.4333 249.613 10.4467 249.467 10.46C249.333 10.46 249.193 10.46 249.047 10.46C248.407 10.46 247.8 10.3467 247.227 10.12C246.653 9.89333 246.153 9.58 245.727 9.18C245.313 8.78 244.98 8.3 244.727 7.74C244.473 7.18 244.347 6.56667 244.347 5.9ZM249.447 3.28C248.727 3.28 248.12 3.53333 247.627 4.04C247.133 4.53333 246.887 5.14 246.887 5.86C246.887 6.59333 247.133 7.20667 247.627 7.7C248.12 8.19333 248.727 8.44 249.447 8.44C250.193 8.44 250.813 8.19333 251.307 7.7C251.813 7.20667 252.067 6.59333 252.067 5.86C252.067 5.14 251.813 4.53333 251.307 4.04C250.813 3.53333 250.193 3.28 249.447 3.28Z" fill="white"/>
<path d="M256.749 5.9C256.749 5.26 256.876 4.64667 257.129 4.06C257.382 3.46 257.729 2.93333 258.169 2.48C258.622 2.02667 259.156 1.66667 259.769 1.4C260.396 1.13333 261.082 1 261.829 1C262.536 1 263.202 1.12667 263.829 1.38C264.469 1.62 265.022 1.96 265.489 2.4C265.956 2.82667 266.322 3.34 266.589 3.94C266.869 4.52667 267.009 5.16667 267.009 5.86C267.009 6.54 266.876 7.23333 266.609 7.94C266.356 8.64667 265.869 9.48 265.149 10.44L261.749 15.24H258.809L262.269 10.42C262.149 10.4333 262.016 10.4467 261.869 10.46C261.736 10.46 261.596 10.46 261.449 10.46C260.809 10.46 260.202 10.3467 259.629 10.12C259.056 9.89333 258.556 9.58 258.129 9.18C257.716 8.78 257.382 8.3 257.129 7.74C256.876 7.18 256.749 6.56667 256.749 5.9ZM261.849 3.28C261.129 3.28 260.522 3.53333 260.029 4.04C259.536 4.53333 259.289 5.14 259.289 5.86C259.289 6.59333 259.536 7.20667 260.029 7.7C260.522 8.19333 261.129 8.44 261.849 8.44C262.596 8.44 263.216 8.19333 263.709 7.7C264.216 7.20667 264.469 6.59333 264.469 5.86C264.469 5.14 264.216 4.53333 263.709 4.04C263.216 3.53333 262.596 3.28 261.849 3.28Z" fill="white"/>
<path d="M268.894 11.7C269.401 11.7 269.828 11.88 270.174 12.24C270.534 12.5867 270.714 13.0067 270.714 13.5C270.714 13.9933 270.534 14.4133 270.174 14.76C269.828 15.1067 269.401 15.28 268.894 15.28C268.401 15.28 267.981 15.1067 267.634 14.76C267.301 14.4133 267.134 13.9933 267.134 13.5C267.134 13.0067 267.301 12.5867 267.634 12.24C267.981 11.88 268.401 11.7 268.894 11.7Z" fill="white"/>
<path d="M270.089 5.9C270.089 5.26 270.215 4.64667 270.469 4.06C270.722 3.46 271.069 2.93333 271.509 2.48C271.962 2.02667 272.495 1.66667 273.109 1.4C273.735 1.13333 274.422 1 275.169 1C275.875 1 276.542 1.12667 277.169 1.38C277.809 1.62 278.362 1.96 278.829 2.4C279.295 2.82667 279.662 3.34 279.929 3.94C280.209 4.52667 280.349 5.16667 280.349 5.86C280.349 6.54 280.215 7.23333 279.949 7.94C279.695 8.64667 279.209 9.48 278.489 10.44L275.089 15.24H272.149L275.609 10.42C275.489 10.4333 275.355 10.4467 275.209 10.46C275.075 10.46 274.935 10.46 274.789 10.46C274.149 10.46 273.542 10.3467 272.969 10.12C272.395 9.89333 271.895 9.58 271.469 9.18C271.055 8.78 270.722 8.3 270.469 7.74C270.215 7.18 270.089 6.56667 270.089 5.9ZM275.189 3.28C274.469 3.28 273.862 3.53333 273.369 4.04C272.875 4.53333 272.629 5.14 272.629 5.86C272.629 6.59333 272.875 7.20667 273.369 7.7C273.862 8.19333 274.469 8.44 275.189 8.44C275.935 8.44 276.555 8.19333 277.049 7.7C277.555 7.20667 277.809 6.59333 277.809 5.86C277.809 5.14 277.555 4.53333 277.049 4.04C276.555 3.53333 275.935 3.28 275.189 3.28Z" fill="white"/>
<path d="M282.491 5.9C282.491 5.26 282.618 4.64667 282.871 4.06C283.124 3.46 283.471 2.93333 283.911 2.48C284.364 2.02667 284.898 1.66667 285.511 1.4C286.138 1.13333 286.824 1 287.571 1C288.278 1 288.944 1.12667 289.571 1.38C290.211 1.62 290.764 1.96 291.231 2.4C291.698 2.82667 292.064 3.34 292.331 3.94C292.611 4.52667 292.751 5.16667 292.751 5.86C292.751 6.54 292.618 7.23333 292.351 7.94C292.098 8.64667 291.611 9.48 290.891 10.44L287.491 15.24H284.551L288.011 10.42C287.891 10.4333 287.758 10.4467 287.611 10.46C287.478 10.46 287.338 10.46 287.191 10.46C286.551 10.46 285.944 10.3467 285.371 10.12C284.798 9.89333 284.298 9.58 283.871 9.18C283.458 8.78 283.124 8.3 282.871 7.74C282.618 7.18 282.491 6.56667 282.491 5.9ZM287.591 3.28C286.871 3.28 286.264 3.53333 285.771 4.04C285.278 4.53333 285.031 5.14 285.031 5.86C285.031 6.59333 285.278 7.20667 285.771 7.7C286.264 8.19333 286.871 8.44 287.591 8.44C288.338 8.44 288.958 8.19333 289.451 7.7C289.958 7.20667 290.211 6.59333 290.211 5.86C290.211 5.14 289.958 4.53333 289.451 4.04C288.958 3.53333 288.338 3.28 287.591 3.28Z" fill="white"/>
<path d="M293.11 17.796L298.09 6.78H299.134L294.166 17.796H293.11Z" fill="white"/>
<path d="M305.29 9.12L301.246 17.892H300.118L301.786 14.46L299.278 9.12H300.394L302.326 13.344L304.234 9.12H305.29Z" fill="white"/>
<path d="M306.174 15.18V9.12H307.182V10.344C307.374 9.824 307.666 9.452 308.058 9.228C308.45 8.996 308.906 8.908 309.426 8.964V9.924C309.122 9.868 308.834 9.876 308.562 9.948C308.29 10.02 308.05 10.14 307.842 10.308C307.642 10.468 307.482 10.672 307.362 10.92C307.242 11.168 307.182 11.436 307.182 11.724V15.18H306.174Z" fill="white"/>
<defs>
<clipPath id="clip0">
<rect width="101" height="23" fill="white" transform="translate(0 23.844)"/>
</clipPath>
<clipPath id="clip1">
<rect width="20.1915" height="20.6531" fill="white" transform="translate(0 23.844)"/>
</clipPath>
</defs>
</svg>
