<svg width="40" height="40" viewBox="0 0 40 40" fill="none" xmlns="http://www.w3.org/2000/svg">
<path fill-rule="evenodd" clip-rule="evenodd" d="M32.2404 18.0934C33.5354 18.4335 34.5888 19.4154 35.0271 20.674C35.3038 21.4509 35.2938 22.5945 35.0171 23.308C34.5071 24.6217 33.5187 25.5402 32.2404 25.8786C30.1704 26.4154 27.9654 25.1668 27.367 23.1113C27.1887 22.4861 27.197 21.4242 27.4037 20.7724C28.0187 18.7453 30.1704 17.5483 32.2404 18.0934V18.0934ZM23.396 0.0465642C23.361 0.0732372 23.3426 9.04703 23.3426 20.003C23.3426 38.0673 23.3526 39.8977 23.476 39.951C23.6993 40.0327 30.126 40.0044 30.9227 39.9144C34.2877 39.5326 37.261 37.4871 38.8677 34.4514C39.0727 34.058 39.3494 33.4061 39.4927 33.0044C40.0094 31.4507 40.0011 31.8608 40.0011 19.9596C40.0011 10.459 39.9844 9.0387 39.8661 8.44022C39.046 4.12753 35.751 0.868426 31.431 0.12825C30.851 0.0298936 29.9577 0.00155352 27.0743 0.00155352C25.0743 -0.00678179 23.4226 0.0198912 23.396 0.0465642V0.0465642ZM9.27393 8.28856C8.75559 8.38691 7.96226 8.78867 7.53392 9.15543C6.66725 9.90561 6.23058 10.9759 6.30225 12.2362C6.33725 12.8863 6.37392 13.0664 6.64058 13.5931C7.03225 14.3967 7.61392 14.9851 8.41726 15.3786C8.9706 15.6553 9.11226 15.682 9.83727 15.7087C10.4873 15.7353 10.7206 15.7087 11.1573 15.5569C12.9523 14.9501 14.0406 13.2081 13.729 11.4143C13.3806 9.2988 11.3539 7.87012 9.27393 8.28856V8.28856ZM16.048 20.0041V36.7814L12.6746 36.7381C9.56794 36.7031 9.23627 36.6847 8.61127 36.533C5.94292 35.8445 3.96958 33.7924 3.40791 31.1118C3.22957 30.2732 3.22957 9.67334 3.39791 8.85314C3.89791 6.52259 5.51458 4.5938 7.6846 3.72693C8.77293 3.29015 9.28294 3.23514 12.8263 3.22681L16.0296 3.21847V20.0041H16.048ZM8.55817 0.128893C4.57648 0.842396 1.37313 3.78809 0.363125 7.66402C-0.00187703 9.06601 -0.0285438 9.88788 0.0164564 20.7455C0.0331232 30.7112 0.0431232 30.9429 0.211457 31.7181C1.13146 35.8724 4.07814 38.8264 8.27317 39.8C8.8165 39.925 9.51317 39.9517 13.9965 39.97C18.6282 40.005 19.1099 39.9967 19.2349 39.8717C19.3599 39.7466 19.3682 38.1479 19.3682 20.032C19.3682 6.59376 19.3432 0.272261 19.2899 0.155566C19.2099 0.00219652 19.0666 -0.0061388 14.2099 0.00219652C10.2632 0.0121989 9.0765 0.0388719 8.55817 0.128893V0.128893Z" fill="white"/>
</svg>
