<svg width="41" height="60" viewBox="0 0 41 60" fill="none" xmlns="http://www.w3.org/2000/svg">
<path d="M5 14.7168C5.65546 6.48076 12.553 0 20.9724 0C29.8244 0 37 7.16315 37 15.9998C37 24.8365 29.8244 32 20.9724 32C13.6352 32 7.45419 27.0766 5.55178 20.3604L11.6955 22.896C12.1116 24.9681 13.9476 26.5328 16.1438 26.5328C18.6455 26.5328 20.6804 24.5014 20.6804 22.0038C20.6804 21.9322 20.6782 21.8603 20.6754 21.7891L26.124 17.9081C26.1697 17.9095 26.215 17.9105 26.2611 17.9105C29.5939 17.9105 32.3057 15.2031 32.3057 11.876C32.3057 8.54898 29.5939 5.84188 26.2611 5.84188C22.9279 5.84188 20.2164 8.54898 20.2164 11.876C20.2164 11.8892 20.2166 11.9022 20.2168 11.9151C20.217 11.9281 20.2171 11.9411 20.2171 11.9543L16.3965 17.4818C16.3129 17.4772 16.2285 17.4748 16.1438 17.4748C15.1974 17.4748 14.318 17.7656 13.5905 18.2624L5 14.7168Z" fill="white"/>
<path fill-rule="evenodd" clip-rule="evenodd" d="M30.2887 11.8762C30.2887 9.65926 28.4819 7.85523 26.2611 7.85523C24.0402 7.85523 22.2331 9.65926 22.2331 11.8762C22.2331 14.0929 24.0402 15.8965 26.2611 15.8965C28.4819 15.8965 30.2887 14.0929 30.2887 11.8762ZM23.2421 11.8692C23.2421 10.201 24.5969 8.84916 26.2677 8.84916C27.9389 8.84916 29.2934 10.201 29.2934 11.8692C29.2934 13.5371 27.9389 14.8893 26.2677 14.8893C24.5969 14.8893 23.2421 13.5371 23.2421 11.8692Z" fill="white"/>
<path d="M15.0441 24.2777L13.0752 23.4659C13.4242 24.1907 14.028 24.7977 14.8293 25.1317C16.5616 25.8523 18.5593 25.0313 19.2815 23.301C19.6309 22.4632 19.6333 21.5394 19.2868 20.7002C18.9406 19.8606 18.2876 19.2059 17.448 18.8565C16.615 18.5106 15.7227 18.5235 14.9386 18.8186L16.9725 19.6582C18.2504 20.19 18.8545 21.6548 18.322 22.9305C17.7899 24.2061 16.3219 24.8096 15.0441 24.2777Z" fill="white"/>
<path d="M7.78685 56.284C7.78685 56.732 7.69819 57.1333 7.52085 57.488C7.35285 57.8426 7.11485 58.1413 6.80685 58.384C6.50818 58.6266 6.14885 58.8133 5.72885 58.944C5.30885 59.0653 4.85619 59.126 4.37085 59.126C3.81085 59.126 3.29285 59.042 2.81685 58.874C2.34085 58.6966 1.92552 58.4586 1.57085 58.16C1.22552 57.852 0.950185 57.4833 0.744852 57.054C0.548852 56.6246 0.441518 56.158 0.422852 55.654H1.58485C1.64085 56.3633 1.93018 56.942 2.45285 57.39C2.98485 57.8286 3.62885 58.048 4.38485 58.048C4.67418 58.048 4.94952 58.0153 5.21085 57.95C5.48152 57.8753 5.71485 57.768 5.91085 57.628C6.11618 57.488 6.27485 57.3153 6.38685 57.11C6.50819 56.8953 6.56885 56.6526 6.56885 56.382C6.56885 56.1113 6.49885 55.8873 6.35885 55.71C6.21885 55.5233 6.03219 55.3693 5.79885 55.248C5.57485 55.1266 5.30885 55.024 5.00085 54.94C4.70218 54.856 4.38952 54.7766 4.06285 54.702C3.66152 54.6086 3.25552 54.506 2.84485 54.394C2.44352 54.2726 2.07952 54.114 1.75285 53.918C1.42619 53.7126 1.16018 53.4513 0.954852 53.134C0.749518 52.8073 0.646852 52.392 0.646852 51.888C0.646852 51.5146 0.716852 51.16 0.856852 50.824C1.00618 50.4786 1.21618 50.18 1.48685 49.928C1.75752 49.6666 2.09352 49.4613 2.49485 49.312C2.89618 49.1533 3.34885 49.074 3.85285 49.074C4.38485 49.074 4.87952 49.158 5.33685 49.326C5.79418 49.4846 6.19085 49.7086 6.52685 49.998C6.86285 50.2873 7.12885 50.6373 7.32485 51.048C7.52085 51.4493 7.63285 51.8833 7.66085 52.35H6.48485C6.41952 51.6966 6.15352 51.1646 5.68685 50.754C5.22952 50.3433 4.61819 50.138 3.85285 50.138C3.22752 50.138 2.73752 50.3013 2.38285 50.628C2.02818 50.9546 1.85085 51.356 1.85085 51.832C1.85085 52.0933 1.91152 52.3173 2.03285 52.504C2.16352 52.6906 2.33152 52.8446 2.53685 52.966C2.74218 53.0873 2.98485 53.1946 3.26485 53.288C3.54485 53.372 3.83885 53.4466 4.14685 53.512C4.55752 53.6146 4.97752 53.722 5.40685 53.834C5.84552 53.946 6.23752 54.1 6.58285 54.296C6.93752 54.4826 7.22685 54.7346 7.45085 55.052C7.67485 55.3693 7.78685 55.78 7.78685 56.284Z" fill="white"/>
<path d="M10.5615 57.278V52.938H8.76948V51.93H10.5615V50.264L11.7235 49.844V51.93H13.8095V52.938H11.7235V57.222C11.7235 57.4646 11.7888 57.6513 11.9195 57.782C12.0501 57.9033 12.2461 57.964 12.5075 57.964H13.8095V59H12.2135C11.6815 59 11.2708 58.8553 10.9815 58.566C10.7015 58.2673 10.5615 57.838 10.5615 57.278Z" fill="white"/>
<path d="M18.2103 59.126C17.7343 59.126 17.2863 59.0326 16.8663 58.846C16.4463 58.6593 16.0823 58.4073 15.7743 58.09C15.4663 57.7633 15.2236 57.376 15.0463 56.928C14.869 56.4706 14.7803 55.976 14.7803 55.444C14.7803 54.9213 14.8643 54.436 15.0323 53.988C15.2096 53.54 15.4476 53.1573 15.7463 52.84C16.0543 52.5133 16.4136 52.2566 16.8243 52.07C17.235 51.8833 17.6736 51.79 18.1403 51.79C18.5883 51.79 19.013 51.8833 19.4143 52.07C19.8156 52.2473 20.1656 52.504 20.4643 52.84C20.763 53.176 21.001 53.596 21.1783 54.1C21.3556 54.5946 21.4443 55.1546 21.4443 55.78V55.864H15.9843C16.0683 56.5173 16.3203 57.0493 16.7403 57.46C17.1603 57.8706 17.6503 58.076 18.2103 58.076C18.565 58.076 18.8916 57.992 19.1903 57.824C19.4983 57.6466 19.7456 57.4133 19.9323 57.124H21.2483C20.9963 57.7306 20.595 58.216 20.0443 58.58C19.503 58.944 18.8916 59.126 18.2103 59.126ZM18.1263 52.854C17.6036 52.854 17.1416 53.0453 16.7403 53.428C16.3483 53.8106 16.101 54.3006 15.9983 54.898H20.2123C20.119 54.3006 19.8763 53.8106 19.4843 53.428C19.0923 53.0453 18.6396 52.854 18.1263 52.854Z" fill="white"/>
<path d="M27.384 59V57.768C27.1973 58.1786 26.8987 58.51 26.488 58.762C26.0867 59.0046 25.6107 59.126 25.06 59.126C24.388 59.126 23.8327 58.9393 23.394 58.566C22.9647 58.1833 22.75 57.698 22.75 57.11C22.75 56.55 22.96 56.0973 23.38 55.752C23.8 55.3973 24.374 55.192 25.102 55.136L27.384 54.968V54.604C27.384 54.0906 27.2253 53.666 26.908 53.33C26.6 52.9846 26.2127 52.812 25.746 52.812C25.2513 52.812 24.8593 52.938 24.57 53.19C24.29 53.4326 24.1033 53.7733 24.01 54.212H22.848C22.9227 53.5026 23.2307 52.924 23.772 52.476C24.3133 52.0186 24.976 51.79 25.76 51.79C26.628 51.79 27.3093 52.056 27.804 52.588C28.2987 53.1106 28.546 53.778 28.546 54.59V59H27.384ZM23.912 57.11C23.912 57.4086 24.038 57.6606 24.29 57.866C24.542 58.062 24.8733 58.16 25.284 58.16C25.8533 58.16 26.3433 57.9826 26.754 57.628C27.174 57.2733 27.384 56.858 27.384 56.382V55.878L25.326 56.032C24.8873 56.0693 24.542 56.1813 24.29 56.368C24.038 56.5453 23.912 56.7926 23.912 57.11Z" fill="white"/>
<path d="M30.4271 59V51.93H31.6031V53.316C31.7805 52.784 32.0605 52.4013 32.4431 52.168C32.8258 51.9346 33.2318 51.818 33.6611 51.818C34.1651 51.818 34.5945 51.9626 34.9491 52.252C35.3131 52.5413 35.5745 52.9193 35.7331 53.386C35.9105 52.882 36.1951 52.4946 36.5871 52.224C36.9885 51.9533 37.4271 51.818 37.9031 51.818C38.2765 51.818 38.6078 51.888 38.8971 52.028C39.1865 52.168 39.4291 52.364 39.6251 52.616C39.8211 52.8586 39.9705 53.148 40.0731 53.484C40.1758 53.8106 40.2271 54.1653 40.2271 54.548V59H39.0511V54.66C39.0511 54.128 38.9018 53.6893 38.6031 53.344C38.3138 52.9986 37.9358 52.826 37.4691 52.826C37.0398 52.826 36.6711 53.0033 36.3631 53.358C36.0645 53.7033 35.9151 54.128 35.9151 54.632V59H34.7391V54.66C34.7391 54.128 34.5898 53.6893 34.2911 53.344C34.0018 52.9986 33.6238 52.826 33.1571 52.826C32.7278 52.826 32.3591 53.0033 32.0511 53.358C31.7525 53.7033 31.6031 54.128 31.6031 54.632V59H30.4271Z" fill="white"/>
</svg>
