<svg width="113" height="81" viewBox="0 0 113 81" fill="none" xmlns="http://www.w3.org/2000/svg">
<path d="M40.8477 8.22682C40.8477 11.1779 42.8857 12.9551 45.4129 12.9551C47.94 12.9551 49.9781 11.3083 49.9781 8.5529V1.36269H47.7281V8.24312C47.7281 10.0203 46.7172 10.8844 45.4129 10.8844C44.1248 10.8844 43.0977 10.004 43.0977 8.22682H40.8477Z" fill="white"/>
<path d="M55.2808 4.47682C52.9004 4.47682 50.9765 6.25399 50.9765 8.71595C50.9765 11.1616 52.9004 12.9388 55.2808 12.9388C57.6613 12.9388 59.5852 11.1616 59.5852 8.71595C59.5852 6.25399 57.6613 4.47682 55.2808 4.47682ZM55.2808 11.0638C54.0254 11.0638 53.0308 10.1018 53.0308 8.73225C53.0308 7.33008 54.0254 6.38443 55.2808 6.38443C56.5363 6.38443 57.5308 7.33008 57.5308 8.73225C57.5308 10.1018 56.5363 11.0638 55.2808 11.0638Z" fill="white"/>
<path d="M61.6897 3.62899C62.4234 3.62899 63.0267 3.02573 63.0267 2.29203C63.0267 1.55834 62.4234 0.955078 61.6897 0.955078C60.9723 0.955078 60.3691 1.55834 60.3691 2.29203C60.3691 3.02573 60.9723 3.62899 61.6897 3.62899ZM62.7332 4.63986H60.6625V12.7757H62.7332V4.63986Z" fill="white"/>
<path d="M66.1087 4.63986H64.038V12.7757H66.1087V7.85182C66.1087 6.90616 66.8424 6.15616 67.8043 6.15616C68.7989 6.15616 69.5 6.87356 69.5 7.93334V12.7757H71.5707V7.77029C71.5707 5.86269 70.4783 4.46051 68.538 4.46051C67.4946 4.46051 66.5978 4.91703 66.1087 5.65073V4.63986Z" fill="white"/>
<g clip-path="url(#clip0)">
<path d="M80.8246 25.8352H78.7692L76.5751 30.3544L74.3351 25.8352H72.1411L75.4478 32.5372L73.2381 36.9029H75.3706L80.8246 25.8352ZM67.5823 31.8605C66.3926 31.8605 65.4342 30.9536 65.4342 29.6621C65.4342 28.3707 66.3926 27.4638 67.5823 27.4638C68.7877 27.4638 69.7304 28.3707 69.7304 29.6621C69.7304 30.9536 68.7877 31.8605 67.5823 31.8605ZM67.2426 33.6131C68.201 33.6131 69.0658 33.2597 69.7148 32.6597V33.5054H71.6767V25.8352H69.7148V26.6801C69.097 26.0654 68.2469 25.7119 67.3198 25.7119C65.3111 25.7119 63.488 27.3723 63.488 29.6629C63.488 31.9527 65.2808 33.6131 67.2426 33.6131ZM62.4681 22.1299L60.5062 22.7446V33.5054H62.4681V22.1299ZM55.6545 27.7715H53.1823V24.636H55.6545C56.6744 24.636 57.385 25.2817 57.385 26.2042C57.385 27.1266 56.6744 27.7715 55.6545 27.7715ZM51.0498 22.7446V33.5054H53.1823V29.5854H55.8088C57.9257 29.5854 59.5011 28.125 59.5011 26.1421C59.5011 24.174 57.9872 22.7446 55.8859 22.7446H51.0498Z" fill="#FF4747"/>
<g clip-path="url(#clip1)">
<path d="M38.8036 20.9551C34.8216 20.9551 31.5938 24.1673 31.5938 28.1281C31.5938 32.0906 34.8216 35.3012 38.8036 35.3012C42.7855 35.3012 46.0134 32.0906 46.0134 28.1281C46.0134 24.1673 42.7855 20.9551 38.8036 20.9551ZM35.931 25.3061H40.0754L39.4461 26.3085H35.3016L35.931 25.3061ZM42.8553 30.3159L42.2251 29.3151H40.3855L41.0165 28.3126H41.5974L40.8951 27.1967L38.9357 30.3151H33.709L34.9677 28.3118H34.0438L34.6723 27.3094H38.7133L38.084 28.3134H36.1566L35.5265 29.3159H38.3769L40.8951 25.3061L44.0426 30.3167H42.8553V30.3159Z" fill="#FF4747"/>
</g>
</g>
<g clip-path="url(#clip2)">
<path d="M75.7798 46.7517C77.8304 46.7517 79.3109 48.1088 79.3109 49.9282C79.3109 51.7632 77.8304 53.1359 75.7798 53.1359H73.1579V57.5461H71.8008V46.7517H75.7798ZM77.9706 49.9282C77.9706 48.7712 77.107 47.9699 75.781 47.9699H73.1591V51.9489H75.781C77.0758 51.9489 77.9706 51.1009 77.9706 49.9282Z" fill="#FF4747"/>
<path d="M69.4147 49.8505H67.3629L65.1734 54.3841L62.9371 49.8505H60.7476L64.0475 56.5749L61.8423 60.9552H63.9708L69.4147 49.8505ZM56.1972 55.8969C55.0102 55.8969 54.0531 54.9866 54.0531 53.6918C54.0531 52.3958 55.009 51.4867 56.1972 51.4867C57.3998 51.4867 58.3412 52.397 58.3412 53.6918C58.3412 54.9866 57.4009 55.8969 56.1972 55.8969ZM55.8582 57.6553C56.814 57.6553 57.6788 57.3007 58.3256 56.6994V57.5475H60.284V49.8505H58.3256V50.6985C57.7088 50.0817 56.8607 49.7271 55.9349 49.7271C53.9298 49.7271 52.1103 51.3933 52.1103 53.6906C52.1103 55.9892 53.8998 57.6553 55.8582 57.6553ZM51.0922 46.1338L49.1338 46.7506V57.5463H51.0922V46.1338ZM44.2912 51.7945H41.8238V48.6479H44.2912C45.3093 48.6479 46.0184 49.2959 46.0184 50.2206C46.0184 51.1465 45.3093 51.7945 44.2912 51.7945ZM39.6953 46.7506V57.5463H41.8238V53.614H44.4457C46.5586 53.614 48.1313 52.1491 48.1313 50.1595C48.1313 48.1856 46.6197 46.7506 44.5224 46.7506H39.6953V46.7506Z" fill="#FF4747"/>
<path d="M88.2716 56.5136C86.8378 56.5136 85.6963 55.3721 85.6963 53.7838C85.6963 52.1956 86.8378 51.0541 88.2716 51.0541C89.7053 51.0541 90.8468 52.1956 90.8468 53.7838C90.8468 55.3721 89.7065 56.5136 88.2716 56.5136ZM88.2716 49.8815C86.0976 49.8815 84.4003 51.532 84.4003 53.7826C84.4003 56.0345 86.0964 57.685 88.2716 57.685C90.4467 57.685 92.1428 56.0345 92.1428 53.7826C92.1428 51.532 90.4467 49.8815 88.2716 49.8815ZM81.6095 50.036H80.3135V57.5473H81.6095V53.1814C81.6095 51.8398 82.7821 50.8373 84.1847 51.0996V49.8659C83.0277 49.7114 82.103 50.236 81.6095 51.3308V50.036Z" fill="#FF4747"/>
<g clip-path="url(#clip3)">
<path d="M27.4485 44.9551C23.4868 44.9551 20.2754 48.1673 20.2754 52.1281C20.2754 56.0906 23.4868 59.3012 27.4485 59.3012C31.4101 59.3012 34.6215 56.0906 34.6215 52.1281C34.6215 48.1673 31.4101 44.9551 27.4485 44.9551ZM24.5905 49.3061H28.7138L28.0876 50.3085H23.9644L24.5905 49.3061ZM31.4795 54.3159L30.8525 53.3151H29.0223L29.6501 52.3126H30.228L29.5293 51.1967L27.5799 54.3151H22.3799L23.6321 52.3118H22.7129L23.3382 51.3094H27.3587L26.7325 52.3134H24.815L24.188 53.3159H27.024L29.5293 49.3061L32.6607 54.3167H31.4795V54.3159Z" fill="#FF4747"/>
</g>
</g>
<path d="M6.35649 75.7829C6.35649 76.1696 6.27996 76.516 6.12689 76.8221C5.98187 77.1283 5.77643 77.3861 5.51057 77.5956C5.25277 77.805 4.9426 77.9662 4.58006 78.0789C4.21752 78.1837 3.82679 78.236 3.40785 78.236C2.92447 78.236 2.47734 78.1635 2.06647 78.0185C1.65559 77.8655 1.29708 77.66 0.990936 77.4022C0.69285 77.1363 0.455186 76.8181 0.277946 76.4475C0.108761 76.0769 0.0161128 75.6741 0 75.2391H1.00302C1.05136 75.8514 1.30111 76.3508 1.75227 76.7376C2.21148 77.1162 2.76737 77.3055 3.41994 77.3055C3.66969 77.3055 3.90735 77.2773 4.13293 77.2209C4.36657 77.1565 4.56798 77.0638 4.73716 76.943C4.9144 76.8221 5.05136 76.6731 5.14804 76.4959C5.25277 76.3106 5.30514 76.1011 5.30514 75.8675C5.30514 75.6338 5.24471 75.4405 5.12387 75.2874C5.00302 75.1263 4.84189 74.9933 4.64048 74.8886C4.44713 74.7839 4.21752 74.6953 3.95166 74.6228C3.69386 74.5502 3.42397 74.4818 3.14199 74.4173C2.79557 74.3367 2.44512 74.2481 2.09063 74.1515C1.74421 74.0467 1.43001 73.9098 1.14804 73.7406C0.866062 73.5633 0.636455 73.3378 0.459214 73.0638C0.281974 72.7819 0.193353 72.4234 0.193353 71.9883C0.193353 71.6661 0.253776 71.3599 0.374622 71.0699C0.503525 70.7718 0.684793 70.514 0.918429 70.2965C1.15206 70.0709 1.44209 69.8936 1.78852 69.7647C2.13494 69.6278 2.52568 69.5593 2.96072 69.5593C3.41994 69.5593 3.84693 69.6318 4.24169 69.7768C4.63645 69.9138 4.97885 70.1071 5.26888 70.3569C5.55891 70.6066 5.78852 70.9088 5.9577 71.2632C6.12689 71.6097 6.22356 71.9843 6.24773 72.3871H5.23263C5.17623 71.8232 4.94663 71.3639 4.54381 71.0095C4.14904 70.655 3.62135 70.4777 2.96072 70.4777C2.42095 70.4777 1.99799 70.6187 1.69184 70.9007C1.3857 71.1827 1.23263 71.5291 1.23263 71.94C1.23263 72.1656 1.28499 72.3589 1.38973 72.52C1.50252 72.6812 1.64753 72.8141 1.82477 72.9188C2.00201 73.0236 2.21148 73.1162 2.45317 73.1968C2.69486 73.2693 2.94864 73.3337 3.2145 73.3901C3.56898 73.4787 3.93152 73.5714 4.30211 73.6681C4.68076 73.7647 5.01913 73.8977 5.31722 74.0669C5.62336 74.228 5.87311 74.4455 6.06646 74.7194C6.25982 74.9933 6.35649 75.3478 6.35649 75.7829Z" fill="white"/>
<path d="M8.75151 76.6409V72.8947H7.20468V72.0246H8.75151V70.5865L9.75453 70.224V72.0246H11.5551V72.8947H9.75453V76.5925C9.75453 76.802 9.81093 76.9631 9.92371 77.0759C10.0365 77.1807 10.2057 77.233 10.4313 77.233H11.5551V78.1273H10.1775C9.71828 78.1273 9.3638 78.0024 9.11405 77.7527C8.87236 77.4949 8.75151 77.1243 8.75151 76.6409Z" fill="white"/>
<path d="M16.4749 78.1273V77.0638C16.3138 77.4183 16.056 77.7043 15.7015 77.9218C15.355 78.1313 14.9442 78.236 14.4688 78.236C13.8888 78.236 13.4094 78.0749 13.0308 77.7527C12.6602 77.4223 12.4749 77.0034 12.4749 76.4959C12.4749 76.0125 12.6562 75.6217 13.0187 75.3237C13.3812 75.0175 13.8767 74.8403 14.5051 74.7919L16.4749 74.6469V74.3327C16.4749 73.8896 16.3379 73.5231 16.064 73.233C15.7981 72.9349 15.4638 72.7859 15.061 72.7859C14.634 72.7859 14.2956 72.8947 14.0459 73.1122C13.8042 73.3216 13.6431 73.6157 13.5625 73.9944H12.5595C12.6239 73.3821 12.8898 72.8826 13.3571 72.4959C13.8243 72.1011 14.3963 71.9037 15.0731 71.9037C15.8223 71.9037 16.4104 72.1333 16.8374 72.5925C17.2644 73.0437 17.4779 73.6197 17.4779 74.3206V78.1273H16.4749ZM13.4779 76.4959C13.4779 76.7537 13.5867 76.9712 13.8042 77.1484C14.0217 77.3176 14.3077 77.4022 14.6622 77.4022C15.1536 77.4022 15.5766 77.2491 15.9311 76.943C16.2936 76.6369 16.4749 76.2783 16.4749 75.8675V75.4324L14.6985 75.5653C14.3198 75.5976 14.0217 75.6943 13.8042 75.8554C13.5867 76.0085 13.4779 76.2219 13.4779 76.4959Z" fill="white"/>
<path d="M19.1017 78.1273V72.0246H20.1168V73.2572C20.3101 72.7335 20.6042 72.3589 20.999 72.1333C21.3937 71.8997 21.8529 71.8111 22.3766 71.8675V72.8342C22.0705 72.7778 21.7804 72.7859 21.5065 72.8584C21.2326 72.9309 20.9909 73.0518 20.7814 73.2209C20.58 73.3821 20.4189 73.5875 20.2981 73.8373C20.1772 74.087 20.1168 74.3569 20.1168 74.6469V78.1273H19.1017Z" fill="white"/>
<path d="M24.6007 76.6409V72.8947H23.0539V72.0246H24.6007V70.5865L25.6038 70.224V72.0246H27.4044V72.8947H25.6038V76.5925C25.6038 76.802 25.6601 76.9631 25.7729 77.0759C25.8857 77.1807 26.0549 77.233 26.2805 77.233H27.4044V78.1273H26.0267C25.5675 78.1273 25.213 78.0024 24.9633 77.7527C24.7216 77.4949 24.6007 77.1243 24.6007 76.6409Z" fill="white"/>
<path d="M29.0975 70.9974C28.8961 70.9974 28.7229 70.9249 28.5779 70.7799C28.4329 70.6268 28.3604 70.4495 28.3604 70.2481C28.3604 70.0467 28.4329 69.8695 28.5779 69.7164C28.7229 69.5633 28.8961 69.4868 29.0975 69.4868C29.2989 69.4868 29.4721 69.5633 29.6172 69.7164C29.7622 69.8695 29.8347 70.0467 29.8347 70.2481C29.8347 70.4495 29.7622 70.6268 29.6172 70.7799C29.4721 70.9249 29.2989 70.9974 29.0975 70.9974ZM28.59 78.1273V72.0246H29.6051V78.1273H28.59Z" fill="white"/>
<path d="M32.2368 74.3569V78.1273H31.2217V72.0246H32.2368V73.2209C32.3898 72.7617 32.6315 72.4314 32.9619 72.23C33.3002 72.0205 33.6587 71.9158 34.0374 71.9158C34.3757 71.9158 34.6779 71.9762 34.9437 72.0971C35.2096 72.2179 35.4352 72.3871 35.6205 72.6046C35.8058 72.8141 35.9467 73.0638 36.0434 73.3539C36.1401 73.6439 36.1884 73.9541 36.1884 74.2844V78.1273H35.1733V74.3811C35.1733 73.8977 35.0404 73.511 34.7745 73.2209C34.5167 72.9309 34.1824 72.7859 33.7715 72.7859C33.3204 72.7859 32.9498 72.939 32.6597 73.2451C32.3778 73.5432 32.2368 73.9138 32.2368 74.3569Z" fill="white"/>
<path d="M40.3567 78.1877C39.97 78.1877 39.6074 78.1112 39.2691 77.9581C38.9307 77.797 38.6366 77.5794 38.3869 77.3055C38.1371 77.0236 37.9398 76.6892 37.7947 76.3025C37.6497 75.9158 37.5772 75.4969 37.5772 75.0457C37.5772 74.5946 37.6497 74.1796 37.7947 73.801C37.9398 73.4143 38.1371 73.084 38.3869 72.8101C38.6366 72.5281 38.9307 72.3106 39.2691 72.1575C39.6155 71.9964 39.9821 71.9158 40.3688 71.9158C40.7877 71.9158 41.1784 72.0205 41.541 72.23C41.9035 72.4314 42.2056 72.7094 42.4473 73.0638V72.0246H43.4624V77.9218C43.4624 78.4052 43.3899 78.8362 43.2449 79.2149C43.1079 79.6016 42.9106 79.9198 42.6528 80.1696C42.403 80.4274 42.1049 80.6207 41.7585 80.7496C41.4121 80.8866 41.0334 80.9551 40.6225 80.9551C40.2842 80.9551 39.9579 80.9067 39.6437 80.8101C39.3375 80.7134 39.0596 80.5805 38.8098 80.4113C38.5601 80.2421 38.3466 80.0326 38.1694 79.7829C37.9921 79.5412 37.8673 79.2753 37.7947 78.9853H38.8824C38.9871 79.3075 39.2006 79.5654 39.5228 79.7587C39.8532 79.9521 40.2157 80.0487 40.6105 80.0487C41.1422 80.0487 41.5812 79.8715 41.9277 79.517C42.2741 79.1706 42.4473 78.6429 42.4473 77.9339V77.0397C42.2056 77.3942 41.8995 77.6761 41.5289 77.8856C41.1663 78.087 40.7756 78.1877 40.3567 78.1877ZM40.5379 77.2693C41.0697 77.2693 41.5249 77.0638 41.9035 76.653C42.2822 76.234 42.4715 75.6983 42.4715 75.0457C42.4715 74.4012 42.2822 73.8735 41.9035 73.4626C41.5249 73.0437 41.0697 72.8342 40.5379 72.8342C39.9982 72.8342 39.539 73.0437 39.1603 73.4626C38.7817 73.8735 38.5923 74.4012 38.5923 75.0457C38.5923 75.6983 38.7817 76.234 39.1603 76.653C39.539 77.0638 39.9982 77.2693 40.5379 77.2693Z" fill="white"/>
<path d="M51.5367 78.1273V77.0638C51.3756 77.4183 51.1178 77.7043 50.7633 77.9218C50.4169 78.1313 50.006 78.236 49.5307 78.236C48.9506 78.236 48.4713 78.0749 48.0926 77.7527C47.722 77.4223 47.5367 77.0034 47.5367 76.4959C47.5367 76.0125 47.718 75.6217 48.0805 75.3237C48.4431 75.0175 48.9385 74.8403 49.5669 74.7919L51.5367 74.6469V74.3327C51.5367 73.8896 51.3998 73.5231 51.1258 73.233C50.86 72.9349 50.5256 72.7859 50.1228 72.7859C49.6958 72.7859 49.3575 72.8947 49.1077 73.1122C48.866 73.3216 48.7049 73.6157 48.6243 73.9944H47.6213C47.6858 73.3821 47.9516 72.8826 48.4189 72.4959C48.8862 72.1011 49.4582 71.9037 50.1349 71.9037C50.8841 71.9037 51.4723 72.1333 51.8993 72.5925C52.3262 73.0437 52.5397 73.6197 52.5397 74.3206V78.1273H51.5367ZM48.5397 76.4959C48.5397 76.7537 48.6485 76.9712 48.866 77.1484C49.0835 77.3176 49.3695 77.4022 49.724 77.4022C50.2155 77.4022 50.6384 77.2491 50.9929 76.943C51.3554 76.6369 51.5367 76.2783 51.5367 75.8675V75.4324L49.7603 75.5653C49.3816 75.5976 49.0835 75.6943 48.866 75.8554C48.6485 76.0085 48.5397 76.2219 48.5397 76.4959Z" fill="white"/>
<path d="M55.0364 76.6409V72.8947H53.4896V72.0246H55.0364V70.5865L56.0395 70.224V72.0246H57.8401V72.8947H56.0395V76.5925C56.0395 76.802 56.0958 76.9631 56.2086 77.0759C56.3214 77.1807 56.4906 77.233 56.7162 77.233H57.8401V78.1273H56.4624C56.0032 78.1273 55.6487 78.0024 55.399 77.7527C55.1573 77.4949 55.0364 77.1243 55.0364 76.6409Z" fill="white"/>
<path d="M64.7511 79.0336H65.8387V77.8856C67.3251 77.7647 68.4369 76.8947 68.4369 75.5291C68.4369 74.0427 67.0835 73.6318 65.8387 73.3055V71.2995C66.4309 71.517 66.8297 71.9883 66.8901 72.6288H68.3765C68.2798 71.2632 67.2526 70.224 65.8387 69.946V68.9551H64.7511V69.8856C63.3493 69.9944 62.3221 70.8644 62.298 72.2058C62.298 73.6922 63.5547 74.1515 64.7511 74.4777V76.4959C64.1227 76.2663 63.6877 75.7708 63.6393 75.0941H62.165C62.2617 76.5079 63.2768 77.5714 64.7511 77.8373V79.0336ZM63.8206 72.0729C63.8206 71.6016 64.1952 71.2753 64.7511 71.1907V73.0034C64.2073 72.8101 63.8206 72.5442 63.8206 72.0729ZM66.9022 75.7104C66.9022 76.1817 66.4551 76.5079 65.8387 76.5925V74.7799C66.4551 74.9732 66.9022 75.2149 66.9022 75.7104Z" fill="white"/>
<path d="M73.5885 72.8705V74.9007H71.0628L74.1081 69.6318H72.5613L68.7788 76.23H73.5885V78.1273H75.099V76.23H76.0054V74.9007H75.099V72.8705H73.5885Z" fill="white"/>
<path d="M77.4805 76.2058C76.9488 76.2058 76.5017 76.653 76.5017 77.1968C76.5017 77.7406 76.9488 78.1877 77.4805 78.1877C78.0243 78.1877 78.4715 77.7406 78.4715 77.1968C78.4715 76.653 78.0243 76.2058 77.4805 76.2058Z" fill="white"/>
<path d="M77.8015 72.5079C77.8015 74.1273 79.1188 75.2753 80.726 75.2753C80.9194 75.2753 81.1006 75.2632 81.2577 75.2391L79.1188 78.1635H80.8106L83.0463 75.1303C83.8438 74.0427 84.1097 73.2814 84.1097 72.4596C84.1097 70.8161 82.6958 69.5593 80.9314 69.5593C79.1067 69.5593 77.8015 70.9249 77.8015 72.5079ZM80.9435 70.8644C81.9103 70.8644 82.6475 71.5653 82.6475 72.4838C82.6475 73.4143 81.9103 74.1152 80.9435 74.1152C79.9768 74.1152 79.2517 73.4143 79.2517 72.4838C79.2517 71.5653 79.9768 70.8644 80.9435 70.8644Z" fill="white"/>
<path d="M84.8234 72.5079C84.8234 74.1273 86.1406 75.2753 87.7478 75.2753C87.9412 75.2753 88.1224 75.2632 88.2795 75.2391L86.1406 78.1635H87.8324L90.0681 75.1303C90.8656 74.0427 91.1315 73.2814 91.1315 72.4596C91.1315 70.8161 89.7176 69.5593 87.9533 69.5593C86.1285 69.5593 84.8234 70.9249 84.8234 72.5079ZM87.9653 70.8644C88.9321 70.8644 89.6693 71.5653 89.6693 72.4838C89.6693 73.4143 88.9321 74.1152 87.9653 74.1152C86.9986 74.1152 86.2735 73.4143 86.2735 72.4838C86.2735 71.5653 86.9986 70.8644 87.9653 70.8644Z" fill="white"/>
<path d="M90.5549 80.7617H91.6063L96.7664 69.6681H95.7151L90.5549 80.7617Z" fill="white"/>
<path d="M97.7638 72.2421H96.7487V78.1273H97.7638V74.5261C97.7638 73.6922 98.4405 73.0397 99.2381 73.0397C100.024 73.0397 100.579 73.6802 100.579 74.5502V78.1273H101.595V74.5261C101.595 73.6922 102.271 73.0397 103.069 73.0397C103.854 73.0397 104.41 73.6802 104.41 74.5502V78.1273H105.425V74.4294C105.425 73.1484 104.664 72.1212 103.359 72.1212C102.549 72.1212 101.776 72.4838 101.377 73.3297C101.075 72.6046 100.434 72.1212 99.5281 72.1212C98.8272 72.1212 98.1384 72.4354 97.7638 73.1847V72.2421Z" fill="white"/>
<path d="M109.384 72.1212C107.68 72.1212 106.351 73.4143 106.351 75.1786C106.351 76.943 107.68 78.236 109.384 78.236C111.088 78.236 112.417 76.943 112.417 75.1786C112.417 73.4143 111.088 72.1212 109.384 72.1212ZM109.384 77.3176C108.26 77.3176 107.366 76.4234 107.366 75.1786C107.366 73.9339 108.26 73.0397 109.384 73.0397C110.508 73.0397 111.402 73.9339 111.402 75.1786C111.402 76.4234 110.508 77.3176 109.384 77.3176Z" fill="white"/>
<defs>
<clipPath id="clip0">
<rect width="49.2308" height="16" fill="white" transform="translate(31.5938 20.9551)"/>
</clipPath>
<clipPath id="clip1">
<rect width="14.441" height="14.3673" fill="white" transform="translate(31.5938 20.9551)"/>
</clipPath>
<clipPath id="clip2">
<rect width="71.8671" height="16" fill="white" transform="translate(20.2754 44.9551)"/>
</clipPath>
<clipPath id="clip3">
<rect width="14.3673" height="14.3673" fill="white" transform="translate(20.2754 44.9551)"/>
</clipPath>
</defs>
</svg>
