<svg width="103" height="63" viewBox="0 0 103 63" fill="none" xmlns="http://www.w3.org/2000/svg">
<path d="M51.167 0C42.3303 0 35.167 7.16513 35.167 16C35.167 24.8385 42.3303 32 51.167 32C60.0037 32 67.167 24.8385 67.167 16C67.167 7.16513 60.0037 0 51.167 0ZM44.7921 9.70525H53.9893L52.5927 11.9413H43.3955L44.7921 9.70525ZM60.1585 20.8799L58.76 18.6475H54.6776L56.0779 16.4115H57.3671L55.8084 13.9224L51.4602 20.8781H39.8612L42.6544 16.4097H40.6041L41.9989 14.1737H50.9667L49.5701 16.4133H45.2929L43.8944 18.6494H50.2201L55.8084 9.70525L62.7933 20.8818H60.1585V20.8799Z" fill="white"/>
<path d="M6.9797 58.9999H0.595703V49.1999H6.9797V50.2919H1.8277V53.4559H5.7757V54.5479H1.8277V57.9079H6.9797V58.9999Z" fill="white"/>
<path d="M15.6878 58.9999L14.6518 56.6339H10.0878L9.05181 58.9999H7.77781L12.2718 49.0599H12.5658L17.0598 58.9999H15.6878ZM10.5498 55.5699H14.1898L12.3698 51.4119L10.5498 55.5699Z" fill="white"/>
<path d="M24.5719 58.9999H21.2539V49.1999H24.5719C25.2626 49.1999 25.9019 49.3213 26.4899 49.5639C27.0779 49.7973 27.5866 50.1286 28.0159 50.5579C28.4452 50.9873 28.7812 51.5053 29.0239 52.1119C29.2759 52.7186 29.4019 53.3813 29.4019 54.0999C29.4019 54.8186 29.2759 55.4813 29.0239 56.0879C28.7812 56.6946 28.4452 57.2126 28.0159 57.6419C27.5866 58.0713 27.0779 58.4073 26.4899 58.6499C25.9019 58.8833 25.2626 58.9999 24.5719 58.9999ZM24.5719 50.2919H22.4859V57.9079H24.5719C25.0572 57.9079 25.5192 57.8146 25.9579 57.6279C26.3966 57.4413 26.7792 57.1846 27.1059 56.8579C27.4326 56.5219 27.6892 56.1206 27.8759 55.6539C28.0719 55.1779 28.1699 54.6599 28.1699 54.0999C28.1699 53.5399 28.0719 53.0266 27.8759 52.5599C27.6892 52.0839 27.4326 51.6826 27.1059 51.3559C26.7792 51.0199 26.3966 50.7586 25.9579 50.5719C25.5192 50.3853 25.0572 50.2919 24.5719 50.2919Z" fill="white"/>
<path d="M34.2463 59.1259C33.7703 59.1259 33.3223 59.0326 32.9023 58.8459C32.4823 58.6593 32.1183 58.4073 31.8103 58.0899C31.5023 57.7633 31.2597 57.3759 31.0823 56.9279C30.905 56.4706 30.8163 55.9759 30.8163 55.4439C30.8163 54.9213 30.9003 54.4359 31.0683 53.9879C31.2457 53.5399 31.4837 53.1573 31.7823 52.8399C32.0903 52.5133 32.4497 52.2566 32.8603 52.0699C33.271 51.8833 33.7097 51.7899 34.1763 51.7899C34.6243 51.7899 35.049 51.8833 35.4503 52.0699C35.8517 52.2473 36.2017 52.5039 36.5003 52.8399C36.799 53.1759 37.037 53.5959 37.2143 54.0999C37.3917 54.5946 37.4803 55.1546 37.4803 55.7799V55.8639H32.0203C32.1043 56.5173 32.3563 57.0493 32.7763 57.4599C33.1963 57.8706 33.6863 58.0759 34.2463 58.0759C34.601 58.0759 34.9277 57.9919 35.2263 57.8239C35.5343 57.6466 35.7817 57.4133 35.9683 57.1239H37.2843C37.0323 57.7306 36.631 58.2159 36.0803 58.5799C35.539 58.9439 34.9277 59.1259 34.2463 59.1259ZM34.1623 52.8539C33.6397 52.8539 33.1777 53.0453 32.7763 53.4279C32.3843 53.8106 32.137 54.3006 32.0343 54.8979H36.2483C36.155 54.3006 35.9123 53.8106 35.5203 53.4279C35.1283 53.0453 34.6757 52.8539 34.1623 52.8539Z" fill="white"/>
<path d="M38.8421 53.8899C38.8514 53.2646 39.0894 52.7606 39.5561 52.3779C40.0321 51.9953 40.6201 51.8039 41.3201 51.8039C42.1321 51.8039 42.8134 52.0373 43.3641 52.5039C43.9147 52.9613 44.2087 53.5493 44.2461 54.2679H43.0981C43.0607 53.8293 42.8787 53.4793 42.5521 53.2179C42.2347 52.9473 41.8287 52.8119 41.3341 52.8119C40.9234 52.8119 40.5967 52.9053 40.3541 53.0919C40.1207 53.2786 40.0041 53.5166 40.0041 53.8059C40.0041 54.1419 40.1674 54.3846 40.4941 54.5339C40.8207 54.6833 41.1987 54.8139 41.6281 54.9259C41.9361 55.0006 42.2487 55.0846 42.5661 55.1779C42.8927 55.2619 43.1821 55.3786 43.4341 55.5279C43.6954 55.6679 43.9101 55.8593 44.0781 56.1019C44.2461 56.3353 44.3301 56.6386 44.3301 57.0119C44.3301 57.6653 44.0781 58.1833 43.5741 58.5659C43.0701 58.9393 42.4541 59.1259 41.7261 59.1259C40.8861 59.1259 40.1907 58.8879 39.6401 58.4119C39.0894 57.9359 38.7954 57.3246 38.7581 56.5779H39.9061C39.9341 57.0353 40.1207 57.4086 40.4661 57.6979C40.8207 57.9873 41.2454 58.1319 41.7401 58.1319C42.1414 58.1319 42.4774 58.0433 42.7481 57.8659C43.0281 57.6886 43.1681 57.4413 43.1681 57.1239C43.1681 56.7599 42.9767 56.5079 42.5941 56.3679C42.2207 56.2186 41.7961 56.0833 41.3201 55.9619C41.0307 55.8966 40.7367 55.8173 40.4381 55.7239C40.1394 55.6306 39.8734 55.5093 39.6401 55.3599C39.4067 55.2106 39.2154 55.0193 39.0661 54.7859C38.9167 54.5433 38.8421 54.2446 38.8421 53.8899Z" fill="white"/>
<path d="M47.024 48.3459V58.9999H45.848V48.8079L47.024 48.3459ZM47.178 55.4999L50.286 51.9299H51.616L48.578 55.4159L51.672 58.9999H50.16L47.178 55.4999Z" fill="white"/>
<path d="M53.9139 57.2779V52.9379H52.1219V51.9299H53.9139V50.2639L55.0759 49.8439V51.9299H57.1619V52.9379H55.0759V57.2219C55.0759 57.4646 55.1413 57.6513 55.2719 57.7819C55.4026 57.9033 55.5986 57.9639 55.8599 57.9639H57.1619V58.9999H55.5659C55.0339 58.9999 54.6233 58.8553 54.3339 58.5659C54.0539 58.2673 53.9139 57.8379 53.9139 57.2779Z" fill="white"/>
<path d="M61.5628 59.1259C61.0868 59.1259 60.6388 59.0326 60.2188 58.8459C59.7987 58.6593 59.4348 58.4073 59.1268 58.0899C58.8188 57.7633 58.5761 57.3759 58.3988 56.9279C58.2214 56.4706 58.1328 55.9759 58.1328 55.4439C58.1328 54.9213 58.2214 54.4359 58.3988 53.9879C58.5761 53.5399 58.8188 53.1573 59.1268 52.8399C59.4348 52.5133 59.7987 52.2566 60.2188 52.0699C60.6388 51.8833 61.0868 51.7899 61.5628 51.7899C62.0388 51.7899 62.4867 51.8833 62.9067 52.0699C63.3267 52.2566 63.6861 52.5133 63.9848 52.8399C64.2928 53.1573 64.5354 53.5399 64.7127 53.9879C64.8901 54.4359 64.9787 54.9213 64.9787 55.4439C64.9787 55.9759 64.8901 56.4706 64.7127 56.9279C64.5354 57.3759 64.2928 57.7633 63.9848 58.0899C63.6861 58.4073 63.3267 58.6593 62.9067 58.8459C62.4867 59.0326 62.0388 59.1259 61.5628 59.1259ZM61.5628 58.0759C62.1788 58.0759 62.7061 57.8286 63.1448 57.3339C63.5834 56.8393 63.8028 56.2139 63.8028 55.4579C63.8028 54.7113 63.5834 54.0906 63.1448 53.5959C62.7061 53.0919 62.1788 52.8399 61.5628 52.8399C60.9374 52.8399 60.4054 53.0919 59.9668 53.5959C59.5281 54.0906 59.3088 54.7113 59.3088 55.4579C59.3088 56.2139 59.5281 56.8393 59.9668 57.3339C60.4054 57.8286 60.9374 58.0759 61.5628 58.0759Z" fill="white"/>
<path d="M67.7642 62.1639H66.5882V51.9299H67.7642V53.1339C68.0442 52.7233 68.3942 52.4013 68.8142 52.1679C69.2435 51.9253 69.7009 51.8039 70.1862 51.8039C70.6342 51.8039 71.0542 51.8973 71.4462 52.0839C71.8382 52.2706 72.1789 52.5273 72.4682 52.8539C72.7575 53.1713 72.9862 53.5539 73.1542 54.0019C73.3222 54.4406 73.4062 54.9213 73.4062 55.4439C73.4062 55.9666 73.3222 56.4566 73.1542 56.9139C72.9862 57.3619 72.7575 57.7493 72.4682 58.0759C72.1789 58.3933 71.8335 58.6453 71.4322 58.8319C71.0402 59.0186 70.6202 59.1119 70.1722 59.1119C69.6869 59.1119 69.2342 58.9953 68.8142 58.7619C68.3942 58.5193 68.0442 58.1926 67.7642 57.7819V62.1639ZM69.9762 52.8679C69.3602 52.8679 68.8329 53.1106 68.3942 53.5959C67.9555 54.0813 67.7362 54.6973 67.7362 55.4439C67.7362 56.1999 67.9555 56.8253 68.3942 57.3199C68.8329 57.8053 69.3602 58.0479 69.9762 58.0479C70.6015 58.0479 71.1335 57.8053 71.5722 57.3199C72.0109 56.8253 72.2302 56.1999 72.2302 55.4439C72.2302 54.6973 72.0109 54.0813 71.5722 53.5959C71.1335 53.1106 70.6015 52.8679 69.9762 52.8679Z" fill="white"/>
<path d="M85.1683 58.9999L84.1323 56.6339H79.5683L78.5323 58.9999H77.2583L81.7523 49.0599H82.0463L86.5403 58.9999H85.1683ZM80.0303 55.5699H83.6703L81.8503 51.4119L80.0303 55.5699Z" fill="white"/>
<path d="M88.6822 62.1639H87.5062V51.9299H88.6822V53.1339C88.9622 52.7233 89.3122 52.4013 89.7322 52.1679C90.1615 51.9253 90.6188 51.8039 91.1042 51.8039C91.5522 51.8039 91.9722 51.8973 92.3642 52.0839C92.7562 52.2706 93.0968 52.5273 93.3862 52.8539C93.6755 53.1713 93.9042 53.5539 94.0722 54.0019C94.2402 54.4406 94.3242 54.9213 94.3242 55.4439C94.3242 55.9666 94.2402 56.4566 94.0722 56.9139C93.9042 57.3619 93.6755 57.7493 93.3862 58.0759C93.0968 58.3933 92.7515 58.6453 92.3502 58.8319C91.9582 59.0186 91.5382 59.1119 91.0902 59.1119C90.6048 59.1119 90.1522 58.9953 89.7322 58.7619C89.3122 58.5193 88.9622 58.1926 88.6822 57.7819V62.1639ZM90.8942 52.8679C90.2782 52.8679 89.7508 53.1106 89.3122 53.5959C88.8735 54.0813 88.6542 54.6973 88.6542 55.4439C88.6542 56.1999 88.8735 56.8253 89.3122 57.3199C89.7508 57.8053 90.2782 58.0479 90.8942 58.0479C91.5195 58.0479 92.0515 57.8053 92.4902 57.3199C92.9288 56.8253 93.1482 56.1999 93.1482 55.4439C93.1482 54.6973 92.9288 54.0813 92.4902 53.5959C92.0515 53.1106 91.5195 52.8679 90.8942 52.8679Z" fill="white"/>
<path d="M97.104 62.1639H95.928V51.9299H97.104V53.1339C97.384 52.7233 97.734 52.4013 98.154 52.1679C98.5834 51.9253 99.0407 51.8039 99.526 51.8039C99.974 51.8039 100.394 51.8973 100.786 52.0839C101.178 52.2706 101.519 52.5273 101.808 52.8539C102.097 53.1713 102.326 53.5539 102.494 54.0019C102.662 54.4406 102.746 54.9213 102.746 55.4439C102.746 55.9666 102.662 56.4566 102.494 56.9139C102.326 57.3619 102.097 57.7493 101.808 58.0759C101.519 58.3933 101.173 58.6453 100.772 58.8319C100.38 59.0186 99.96 59.1119 99.512 59.1119C99.0267 59.1119 98.574 58.9953 98.154 58.7619C97.734 58.5193 97.384 58.1926 97.104 57.7819V62.1639ZM99.316 52.8679C98.7 52.8679 98.1727 53.1106 97.734 53.5959C97.2954 54.0813 97.076 54.6973 97.076 55.4439C97.076 56.1999 97.2954 56.8253 97.734 57.3199C98.1727 57.8053 98.7 58.0479 99.316 58.0479C99.9414 58.0479 100.473 57.8053 100.912 57.3199C101.351 56.8253 101.57 56.1999 101.57 55.4439C101.57 54.6973 101.351 54.0813 100.912 53.5959C100.473 53.1106 99.9414 52.8679 99.316 52.8679Z" fill="white"/>
</svg>
