<svg width="108" height="80" viewBox="0 0 108 80" fill="none" xmlns="http://www.w3.org/2000/svg">
<path d="M61.2749 34.7999C62.4531 34.7999 63.4083 33.8447 63.4083 32.6665C63.4083 31.4883 62.4531 30.5332 61.2749 30.5332C60.0967 30.5332 59.1416 31.4883 59.1416 32.6665C59.1416 33.8447 60.0967 34.7999 61.2749 34.7999Z" fill="white"/>
<path d="M50.607 34.7999C51.7852 34.7999 52.7403 33.8447 52.7403 32.6665C52.7403 31.4883 51.7852 30.5332 50.607 30.5332C49.4288 30.5332 48.4736 31.4883 48.4736 32.6665C48.4736 33.8447 49.4288 34.7999 50.607 34.7999Z" fill="white"/>
<path fill-rule="evenodd" clip-rule="evenodd" d="M38.9404 9.2002C38.9404 8.64791 39.3881 8.2002 39.9404 8.2002H41.9436C43.0965 8.2002 44.1122 8.95958 44.4379 10.0667L48.983 25.5207C49.1245 26.002 49.5672 26.3335 50.0695 26.3335H61.7772C62.2879 26.3335 62.7362 25.9915 62.8713 25.4974L65.2978 16.6002H61.2738C60.7215 16.6002 60.2738 16.1525 60.2738 15.6002C60.2738 15.0479 60.7215 14.6002 61.2738 14.6002H66.6071C66.9188 14.6002 67.2126 14.7455 67.4018 14.9932C67.591 15.2409 67.6539 15.5626 67.5719 15.8633L64.8007 26.0244C64.4281 27.3863 63.1909 28.3335 61.7772 28.3335H50.0695C48.6796 28.3335 47.456 27.4171 47.0643 26.085L42.5192 10.6312C42.5192 10.6312 42.5192 10.6313 42.5192 10.6312C42.4439 10.3753 42.2094 10.2002 41.9436 10.2002H39.9404C39.3881 10.2002 38.9404 9.75248 38.9404 9.2002Z" fill="white"/>
<path d="M57.0077 15.6001V21.5585L59.4536 19.1126C59.8707 18.6956 60.5448 18.6956 60.9619 19.1126C61.379 19.5297 61.379 20.2038 60.9619 20.6209L56.6952 24.8876C56.4872 25.0956 56.2141 25.2001 55.9411 25.2001C55.668 25.2001 55.3949 25.0956 55.1869 24.8876L50.9203 20.6209C50.5032 20.2038 50.5032 19.5297 50.9203 19.1126C51.3373 18.6956 52.0115 18.6956 52.4285 19.1126L54.8744 21.5585V15.6001H45.2744L49.0077 27.3334H63.4078L66.6077 15.6001H57.0077Z" fill="white"/>
<path d="M57.0074 9.19997C57.0074 8.61117 56.5295 8.1333 55.9407 8.1333C55.3519 8.1333 54.874 8.61117 54.874 9.19997V14.5333H57.0074V9.19997Z" fill="white"/>
<path fill-rule="evenodd" clip-rule="evenodd" d="M62.3402 16.6001H57.0068V14.6001H62.3402V16.6001Z" fill="white"/>
<path fill-rule="evenodd" clip-rule="evenodd" d="M54.8744 16.6001H45.2744V14.6001H54.8744V16.6001Z" fill="white"/>
<path d="M25.9015 52.5304C25.9015 52.9052 25.8249 53.2545 25.6715 53.5783C25.5267 53.8935 25.3222 54.1661 25.0581 54.3962C24.8025 54.6262 24.4958 54.8051 24.138 54.9329C23.7801 55.0607 23.3925 55.1246 22.975 55.1246H18.6172V46.1789H23.0517C23.4095 46.1789 23.7418 46.2386 24.0485 46.3578C24.3637 46.4771 24.6321 46.6432 24.8536 46.8562C25.0751 47.0607 25.2498 47.312 25.3776 47.6102C25.5139 47.8999 25.582 48.2194 25.582 48.5687C25.582 48.9691 25.4841 49.3355 25.2881 49.6677C25.0922 49.9915 24.8281 50.2556 24.4958 50.4601C24.9558 50.6475 25.3052 50.9244 25.5437 51.2907C25.7823 51.6571 25.9015 52.0703 25.9015 52.5304ZM22.7194 47.8019H20.4958V49.7955H22.7194C23.0006 49.7955 23.2349 49.7061 23.4223 49.5272C23.6097 49.3482 23.7035 49.1182 23.7035 48.8371C23.7035 48.5304 23.6097 48.2833 23.4223 48.0958C23.2349 47.8999 23.0006 47.8019 22.7194 47.8019ZM20.4958 53.5399H22.8217C23.171 53.5399 23.4564 53.4334 23.6779 53.2204C23.8994 52.9989 24.0102 52.7178 24.0102 52.377C24.0102 52.0703 23.8994 51.819 23.6779 51.623C23.4564 51.4185 23.171 51.3163 22.8217 51.3163H20.4958V53.5399Z" fill="white"/>
<path d="M31.5172 55.1246V54.1278C31.3639 54.4601 31.1168 54.7327 30.776 54.9457C30.4352 55.1502 30.0476 55.2524 29.6131 55.2524C28.8889 55.2524 28.3266 55.0053 27.9262 54.5112C27.5258 54.017 27.3256 53.3908 27.3256 52.6326V48.5815H29.0636V52.4153C29.0636 52.8328 29.1743 53.1693 29.3958 53.4249C29.6259 53.6805 29.9241 53.8083 30.2904 53.8083C30.6738 53.8083 30.972 53.6805 31.185 53.4249C31.4065 53.1693 31.5172 52.8584 31.5172 52.492V48.5815H33.2553V55.1246H31.5172Z" fill="white"/>
<path d="M41.1894 48.5815L36.8188 58H34.9785L36.806 54.23L34.0967 48.5815H35.9881L37.7261 52.3514L39.4258 48.5815H41.1894Z" fill="white"/>
<path d="M47.0542 55.1246H45.1373V46.1789H51.5654V47.8275H47.0542V49.8211H50.773V51.4569H47.0542V55.1246Z" fill="white"/>
<path d="M53.1494 46.1789H55.0664V55.1246H53.1494V46.1789Z" fill="white"/>
<path d="M58.8353 55.1246H56.9184V46.1789H63.3465V47.8275H58.8353V49.8211H62.5542V51.4569H58.8353V55.1246Z" fill="white"/>
<path d="M69.8049 55.1246L69.0253 53.3866H65.4343L64.6803 55.1246H62.725L67.0701 46H67.4535L71.7985 55.1246H69.8049ZM66.0733 51.9425H68.3736L67.2106 49.3227L66.0733 51.9425Z" fill="white"/>
<path d="M75.343 55.1246V54.7412L78.6274 51.0479C79.1471 50.4686 79.4708 50.0298 79.5986 49.7316C79.7264 49.4249 79.7903 49.131 79.7903 48.8498C79.7903 48.475 79.6668 48.1725 79.4197 47.9425C79.1726 47.7039 78.883 47.5847 78.5507 47.5847C78.0906 47.5847 77.7115 47.7508 77.4133 48.0831C77.1151 48.4068 76.9405 48.8498 76.8894 49.4121H75.2664C75.2664 48.8924 75.3515 48.4281 75.5219 48.0192C75.7009 47.6017 75.9394 47.2481 76.2376 46.9585C76.5358 46.6688 76.8851 46.4473 77.2855 46.2939C77.6859 46.1406 78.1119 46.0639 78.5635 46.0639C78.9809 46.0639 79.3686 46.1321 79.7264 46.2684C80.0928 46.4047 80.408 46.5964 80.6721 46.8435C80.9362 47.082 81.1407 47.3717 81.2855 47.7125C81.4389 48.0447 81.5155 48.4068 81.5155 48.7987C81.5155 49.0202 81.4942 49.2332 81.4517 49.4377C81.4176 49.6422 81.3409 49.8594 81.2216 50.0895C81.1023 50.3195 80.932 50.5836 80.7104 50.8818C80.4889 51.1715 80.2035 51.5122 79.8542 51.9042L78.3334 53.6038H81.7711V55.1246H75.343Z" fill="white"/>
<path d="M83.0043 55.1246V53.6038H85.1257V47.6997H83.0043L83.5921 46.1789H86.8765V53.6038H88.9979V55.1246H83.0043Z" fill="white"/>
<path d="M12.3565 68.8278C12.3565 69.2145 12.28 69.5609 12.1269 69.8671C11.9819 70.1732 11.7764 70.431 11.5106 70.6405C11.2528 70.8499 10.9426 71.0111 10.5801 71.1239C10.2175 71.2286 9.82679 71.281 9.40786 71.281C8.92447 71.281 8.47734 71.2085 8.06647 71.0634C7.65559 70.9104 7.29708 70.7049 6.99094 70.4471C6.69285 70.1813 6.45519 69.863 6.27795 69.4924C6.10876 69.1219 6.01611 68.719 6 68.284H7.00302C7.05136 68.8963 7.30111 69.3958 7.75227 69.7825C8.21148 70.1611 8.76737 70.3505 9.41994 70.3505C9.66969 70.3505 9.90735 70.3223 10.1329 70.2659C10.3666 70.2014 10.568 70.1088 10.7372 69.9879C10.9144 69.8671 11.0514 69.718 11.148 69.5408C11.2528 69.3555 11.3051 69.146 11.3051 68.9124C11.3051 68.6788 11.2447 68.4854 11.1239 68.3323C11.003 68.1712 10.8419 68.0383 10.6405 67.9335C10.4471 67.8288 10.2175 67.7402 9.95166 67.6677C9.69386 67.5952 9.42397 67.5267 9.14199 67.4622C8.79557 67.3817 8.44512 67.2931 8.09063 67.1964C7.74421 67.0916 7.43001 66.9547 7.14804 66.7855C6.86606 66.6083 6.63646 66.3827 6.45921 66.1088C6.28197 65.8268 6.19335 65.4683 6.19335 65.0332C6.19335 64.711 6.25378 64.4048 6.37462 64.1148C6.50353 63.8167 6.68479 63.5589 6.91843 63.3414C7.15206 63.1158 7.44209 62.9386 7.78852 62.8097C8.13494 62.6727 8.52568 62.6042 8.96073 62.6042C9.41994 62.6042 9.84693 62.6767 10.2417 62.8218C10.6365 62.9587 10.9789 63.1521 11.2689 63.4018C11.5589 63.6516 11.7885 63.9537 11.9577 64.3082C12.1269 64.6546 12.2236 65.0292 12.2477 65.432H11.2326C11.1762 64.8681 10.9466 64.4089 10.5438 64.0544C10.149 63.6999 9.62135 63.5227 8.96073 63.5227C8.42095 63.5227 7.99799 63.6636 7.69184 63.9456C7.3857 64.2276 7.23263 64.574 7.23263 64.9849C7.23263 65.2105 7.28499 65.4038 7.38973 65.565C7.50252 65.7261 7.64753 65.859 7.82477 65.9637C8.00201 66.0685 8.21148 66.1611 8.45317 66.2417C8.69486 66.3142 8.94864 66.3787 9.2145 66.435C9.56898 66.5237 9.93152 66.6163 10.3021 66.713C10.6808 66.8097 11.0191 66.9426 11.3172 67.1118C11.6234 67.2729 11.8731 67.4904 12.0665 67.7644C12.2598 68.0383 12.3565 68.3927 12.3565 68.8278Z" fill="white"/>
<path d="M14.7515 69.6858V65.9396H13.2047V65.0695H14.7515V63.6314L15.7545 63.2689V65.0695H17.5551V65.9396H15.7545V69.6375C15.7545 69.8469 15.8109 70.0081 15.9237 70.1208C16.0365 70.2256 16.2057 70.2779 16.4313 70.2779H17.5551V71.1722H16.1775C15.7183 71.1722 15.3638 71.0473 15.114 70.7976C14.8724 70.5398 14.7515 70.1692 14.7515 69.6858Z" fill="white"/>
<path d="M22.4749 71.1722V70.1088C22.3138 70.4632 22.056 70.7492 21.7015 70.9668C21.355 71.1762 20.9442 71.281 20.4688 71.281C19.8888 71.281 19.4094 71.1198 19.0308 70.7976C18.6602 70.4673 18.4749 70.0483 18.4749 69.5408C18.4749 69.0574 18.6562 68.6667 19.0187 68.3686C19.3812 68.0624 19.8767 67.8852 20.5051 67.8369L22.4749 67.6918V67.3776C22.4749 66.9345 22.3379 66.568 22.064 66.2779C21.7981 65.9799 21.4638 65.8308 21.061 65.8308C20.634 65.8308 20.2956 65.9396 20.0459 66.1571C19.8042 66.3666 19.6431 66.6606 19.5625 67.0393H18.5595C18.6239 66.427 18.8898 65.9275 19.3571 65.5408C19.8243 65.146 20.3963 64.9486 21.0731 64.9486C21.8223 64.9486 22.4104 65.1782 22.8374 65.6375C23.2644 66.0886 23.4779 66.6647 23.4779 67.3656V71.1722H22.4749ZM19.4779 69.5408C19.4779 69.7986 19.5867 70.0161 19.8042 70.1934C20.0217 70.3625 20.3077 70.4471 20.6622 70.4471C21.1536 70.4471 21.5766 70.2941 21.9311 69.9879C22.2936 69.6818 22.4749 69.3233 22.4749 68.9124V68.4773L20.6985 68.6103C20.3198 68.6425 20.0217 68.7392 19.8042 68.9003C19.5867 69.0534 19.4779 69.2669 19.4779 69.5408Z" fill="white"/>
<path d="M25.1017 71.1722V65.0695H26.1168V66.3021C26.3101 65.7784 26.6042 65.4038 26.999 65.1782C27.3937 64.9446 27.8529 64.856 28.3766 64.9124V65.8792C28.0705 65.8228 27.7804 65.8308 27.5065 65.9033C27.2326 65.9758 26.9909 66.0967 26.7814 66.2659C26.58 66.427 26.4189 66.6324 26.2981 66.8822C26.1772 67.1319 26.1168 67.4018 26.1168 67.6918V71.1722H25.1017Z" fill="white"/>
<path d="M30.6007 69.6858V65.9396H29.0539V65.0695H30.6007V63.6314L31.6038 63.2689V65.0695H33.4044V65.9396H31.6038V69.6375C31.6038 69.8469 31.6601 70.0081 31.7729 70.1208C31.8857 70.2256 32.0549 70.2779 32.2805 70.2779H33.4044V71.1722H32.0267C31.5675 71.1722 31.213 71.0473 30.9633 70.7976C30.7216 70.5398 30.6007 70.1692 30.6007 69.6858Z" fill="white"/>
<path d="M35.0975 64.0423C34.8961 64.0423 34.7229 63.9698 34.5779 63.8248C34.4329 63.6717 34.3604 63.4945 34.3604 63.2931C34.3604 63.0916 34.4329 62.9144 34.5779 62.7613C34.7229 62.6083 34.8961 62.5317 35.0975 62.5317C35.2989 62.5317 35.4721 62.6083 35.6172 62.7613C35.7622 62.9144 35.8347 63.0916 35.8347 63.2931C35.8347 63.4945 35.7622 63.6717 35.6172 63.8248C35.4721 63.9698 35.2989 64.0423 35.0975 64.0423ZM34.59 71.1722V65.0695H35.6051V71.1722H34.59Z" fill="white"/>
<path d="M38.2368 67.4018V71.1722H37.2217V65.0695H38.2368V66.2659C38.3898 65.8066 38.6315 65.4763 38.9619 65.2749C39.3002 65.0655 39.6587 64.9607 40.0374 64.9607C40.3758 64.9607 40.6779 65.0211 40.9437 65.142C41.2096 65.2628 41.4352 65.432 41.6205 65.6495C41.8058 65.859 41.9467 66.1088 42.0434 66.3988C42.1401 66.6888 42.1884 66.999 42.1884 67.3293V71.1722H41.1733V67.426C41.1733 66.9426 41.0404 66.5559 40.7745 66.2659C40.5167 65.9758 40.1824 65.8308 39.7715 65.8308C39.3204 65.8308 38.9498 65.9839 38.6597 66.29C38.3778 66.5881 38.2368 66.9587 38.2368 67.4018Z" fill="white"/>
<path d="M46.3567 71.2326C45.97 71.2326 45.6074 71.1561 45.2691 71.003C44.9307 70.8419 44.6366 70.6244 44.3869 70.3505C44.1371 70.0685 43.9398 69.7341 43.7947 69.3474C43.6497 68.9607 43.5772 68.5418 43.5772 68.0906C43.5772 67.6395 43.6497 67.2246 43.7947 66.8459C43.9398 66.4592 44.1371 66.1289 44.3869 65.855C44.6366 65.573 44.9307 65.3555 45.2691 65.2024C45.6155 65.0413 45.9821 64.9607 46.3688 64.9607C46.7877 64.9607 47.1784 65.0655 47.541 65.2749C47.9035 65.4763 48.2056 65.7543 48.4473 66.1088V65.0695H49.4624V70.9668C49.4624 71.4502 49.3899 71.8812 49.2449 72.2598C49.1079 72.6465 48.9106 72.9648 48.6528 73.2145C48.403 73.4723 48.1049 73.6657 47.7585 73.7946C47.4121 73.9315 47.0334 74 46.6225 74C46.2842 74 45.9579 73.9517 45.6437 73.855C45.3375 73.7583 45.0596 73.6254 44.8098 73.4562C44.5601 73.287 44.3466 73.0775 44.1694 72.8278C43.9921 72.5861 43.8673 72.3202 43.7947 72.0302H44.8824C44.9871 72.3525 45.2006 72.6103 45.5228 72.8036C45.8532 72.997 46.2157 73.0937 46.6105 73.0937C47.1422 73.0937 47.5812 72.9164 47.9277 72.5619C48.2741 72.2155 48.4473 71.6878 48.4473 70.9789V70.0846C48.2056 70.4391 47.8995 70.721 47.5289 70.9305C47.1663 71.1319 46.7756 71.2326 46.3567 71.2326ZM46.5379 70.3142C47.0697 70.3142 47.5249 70.1088 47.9035 69.6979C48.2822 69.279 48.4715 68.7432 48.4715 68.0906C48.4715 67.4461 48.2822 66.9184 47.9035 66.5076C47.5249 66.0886 47.0697 65.8792 46.5379 65.8792C45.9982 65.8792 45.539 66.0886 45.1603 66.5076C44.7817 66.9184 44.5923 67.4461 44.5923 68.0906C44.5923 68.7432 44.7817 69.279 45.1603 69.6979C45.539 70.1088 45.9982 70.3142 46.5379 70.3142Z" fill="white"/>
<path d="M57.5367 71.1722V70.1088C57.3756 70.4632 57.1178 70.7492 56.7633 70.9668C56.4169 71.1762 56.006 71.281 55.5307 71.281C54.9506 71.281 54.4713 71.1198 54.0926 70.7976C53.722 70.4673 53.5367 70.0483 53.5367 69.5408C53.5367 69.0574 53.718 68.6667 54.0805 68.3686C54.4431 68.0624 54.9385 67.8852 55.5669 67.8369L57.5367 67.6918V67.3776C57.5367 66.9345 57.3998 66.568 57.1258 66.2779C56.86 65.9799 56.5256 65.8308 56.1228 65.8308C55.6958 65.8308 55.3575 65.9396 55.1077 66.1571C54.866 66.3666 54.7049 66.6606 54.6243 67.0393H53.6213C53.6858 66.427 53.9516 65.9275 54.4189 65.5408C54.8862 65.146 55.4582 64.9486 56.1349 64.9486C56.8841 64.9486 57.4723 65.1782 57.8993 65.6375C58.3262 66.0886 58.5397 66.6647 58.5397 67.3656V71.1722H57.5367ZM54.5397 69.5408C54.5397 69.7986 54.6485 70.0161 54.866 70.1934C55.0835 70.3625 55.3695 70.4471 55.724 70.4471C56.2155 70.4471 56.6384 70.2941 56.9929 69.9879C57.3555 69.6818 57.5367 69.3233 57.5367 68.9124V68.4773L55.7603 68.6103C55.3816 68.6425 55.0835 68.7392 54.866 68.9003C54.6485 69.0534 54.5397 69.2669 54.5397 69.5408Z" fill="white"/>
<path d="M61.0364 69.6858V65.9396H59.4896V65.0695H61.0364V63.6314L62.0395 63.2689V65.0695H63.8401V65.9396H62.0395V69.6375C62.0395 69.8469 62.0959 70.0081 62.2086 70.1208C62.3214 70.2256 62.4906 70.2779 62.7162 70.2779H63.8401V71.1722H62.4624C62.0032 71.1722 61.6487 71.0473 61.399 70.7976C61.1573 70.5398 61.0364 70.1692 61.0364 69.6858Z" fill="white"/>
<path d="M70.7511 72.0785H71.8387V70.9305C73.3251 70.8097 74.4369 69.9396 74.4369 68.574C74.4369 67.0876 73.0835 66.6767 71.8387 66.3505V64.3444C72.4309 64.5619 72.8297 65.0332 72.8901 65.6737H74.3765C74.2798 64.3082 73.2526 63.2689 71.8387 62.9909V62H70.7511V62.9305C69.3493 63.0393 68.3221 63.9094 68.298 65.2508C68.298 66.7372 69.5547 67.1964 70.7511 67.5227V69.5408C70.1227 69.3112 69.6877 68.8157 69.6393 68.139H68.165C68.2617 69.5529 69.2768 70.6163 70.7511 70.8822V72.0785ZM69.8206 65.1178C69.8206 64.6465 70.1952 64.3202 70.7511 64.2356V66.0483C70.2073 65.855 69.8206 65.5891 69.8206 65.1178ZM72.9022 68.7553C72.9022 69.2266 72.4551 69.5529 71.8387 69.6375V67.8248C72.4551 68.0181 72.9022 68.2598 72.9022 68.7553Z" fill="white"/>
<path d="M80.6882 62.713H75.9631L75.1413 67.1722H77.7637C78.803 67.1722 79.4314 67.7281 79.4314 68.5619C79.4314 69.3112 78.803 69.9275 78.0175 69.9275C77.1836 69.9275 76.5794 69.3837 76.4585 68.5136H74.9601C75.1051 70.145 76.3619 71.281 78.0054 71.281C79.6851 71.281 80.954 70.0846 80.954 68.5136C80.954 66.8822 79.7576 65.8912 77.7879 65.8912H76.7244L77.0628 64.0665H80.1806L80.6882 62.713Z" fill="white"/>
<path d="M81.1226 65.5529C81.1226 67.1722 82.4399 68.3202 84.0471 68.3202C84.2405 68.3202 84.4217 68.3082 84.5788 68.284L82.4399 71.2085H84.1317L86.3673 68.1752C87.1649 67.0876 87.4308 66.3263 87.4308 65.5045C87.4308 63.861 86.0169 62.6042 84.2525 62.6042C82.4278 62.6042 81.1226 63.9698 81.1226 65.5529ZM84.2646 63.9094C85.2314 63.9094 85.9686 64.6103 85.9686 65.5287C85.9686 66.4592 85.2314 67.1601 84.2646 67.1601C83.2979 67.1601 82.5728 66.4592 82.5728 65.5287C82.5728 64.6103 83.2979 63.9094 84.2646 63.9094Z" fill="white"/>
<path d="M87.9651 69.2508C87.4333 69.2508 86.9862 69.6979 86.9862 70.2417C86.9862 70.7855 87.4333 71.2326 87.9651 71.2326C88.5089 71.2326 88.956 70.7855 88.956 70.2417C88.956 69.6979 88.5089 69.2508 87.9651 69.2508Z" fill="white"/>
<path d="M88.2861 65.5529C88.2861 67.1722 89.6033 68.3202 91.2105 68.3202C91.4039 68.3202 91.5852 68.3082 91.7423 68.284L89.6033 71.2085H91.2951L93.5308 68.1752C94.3284 67.0876 94.5942 66.3263 94.5942 65.5045C94.5942 63.861 93.1803 62.6042 91.416 62.6042C89.5912 62.6042 88.2861 63.9698 88.2861 65.5529ZM91.428 63.9094C92.3948 63.9094 93.132 64.6103 93.132 65.5287C93.132 66.4592 92.3948 67.1601 91.428 67.1601C90.4613 67.1601 89.7362 66.4592 89.7362 65.5287C89.7362 64.6103 90.4613 63.9094 91.428 63.9094Z" fill="white"/>
<path d="M95.3079 65.5529C95.3079 67.1722 96.6251 68.3202 98.2323 68.3202C98.4257 68.3202 98.607 68.3082 98.7641 68.284L96.6251 71.2085H98.3169L100.553 68.1752C101.35 67.0876 101.616 66.3263 101.616 65.5045C101.616 63.861 100.202 62.6042 98.4378 62.6042C96.613 62.6042 95.3079 63.9698 95.3079 65.5529ZM98.4499 63.9094C99.4166 63.9094 100.154 64.6103 100.154 65.5287C100.154 66.4592 99.4166 67.1601 98.4499 67.1601C97.4831 67.1601 96.758 66.4592 96.758 65.5287C96.758 64.6103 97.4831 63.9094 98.4499 63.9094Z" fill="white"/>
</svg>
