<svg width="72" height="71" viewBox="0 0 72 71" fill="none" xmlns="http://www.w3.org/2000/svg">
<path d="M20.6989 14.4911C20.6989 17.3871 22.6989 19.1311 25.1789 19.1311C27.6589 19.1311 29.6589 17.5151 29.6589 14.8111V7.75508H27.4509V14.5071C27.4509 16.2511 26.4589 17.0991 25.1789 17.0991C23.9149 17.0991 22.9069 16.2351 22.9069 14.4911H20.6989ZM34.8627 10.8111C32.5267 10.8111 30.6387 12.5551 30.6387 14.9711C30.6387 17.3711 32.5267 19.1151 34.8627 19.1151C37.1987 19.1151 39.0867 17.3711 39.0867 14.9711C39.0867 12.5551 37.1987 10.8111 34.8627 10.8111ZM34.8627 17.2751C33.6307 17.2751 32.6547 16.3311 32.6547 14.9871C32.6547 13.6111 33.6307 12.6831 34.8627 12.6831C36.0947 12.6831 37.0707 13.6111 37.0707 14.9871C37.0707 16.3311 36.0947 17.2751 34.8627 17.2751ZM41.1519 9.97908C41.8719 9.97908 42.4639 9.38708 42.4639 8.66708C42.4639 7.94708 41.8719 7.35508 41.1519 7.35508C40.4479 7.35508 39.8559 7.94708 39.8559 8.66708C39.8559 9.38708 40.4479 9.97908 41.1519 9.97908ZM42.1759 10.9711H40.1439V18.9551H42.1759V10.9711ZM45.4884 10.9711H43.4564V18.9551H45.4884V14.1231C45.4884 13.1951 46.2084 12.4591 47.1524 12.4591C48.1284 12.4591 48.8164 13.1631 48.8164 14.2031V18.9551H50.8484V14.0431C50.8484 12.1711 49.7764 10.7951 47.8724 10.7951C46.8484 10.7951 45.9684 11.2431 45.4884 11.9631V10.9711Z" fill="white"/>
<g clip-path="url(#clip0)">
<g clip-path="url(#clip1)">
<path d="M60.5492 37.8352H58.4938L56.2998 42.3544L54.0597 37.8352H51.8657L55.1724 44.5372L52.9627 48.9029H55.0952L60.5492 37.8352ZM47.3069 43.8605C46.1172 43.8605 45.1588 42.9536 45.1588 41.6621C45.1588 40.3707 46.1172 39.4638 47.3069 39.4638C48.5123 39.4638 49.455 40.3707 49.455 41.6621C49.455 42.9536 48.5123 43.8605 47.3069 43.8605ZM46.9672 45.6131C47.9256 45.6131 48.7904 45.2597 49.4394 44.6597V45.5054H51.4013V37.8352H49.4394V38.6801C48.8216 38.0654 47.9715 37.7119 47.0444 37.7119C45.0357 37.7119 43.2126 39.3723 43.2126 41.6629C43.2126 43.9527 45.0054 45.6131 46.9672 45.6131ZM42.1927 34.1299L40.2308 34.7446V45.5054H42.1927V34.1299ZM35.3791 39.7715H32.9069V36.636H35.3791C36.399 36.636 37.1096 37.2817 37.1096 38.2042C37.1096 39.1266 36.399 39.7715 35.3791 39.7715ZM30.7744 34.7446V45.5054H32.9069V41.5854H35.5334C37.6503 41.5854 39.2257 40.125 39.2257 38.1421C39.2257 36.174 37.7119 34.7446 35.6105 34.7446H30.7744Z" fill="#FF4747"/>
<g clip-path="url(#clip2)">
<path d="M18.5282 32.9551C14.5463 32.9551 11.3184 36.1673 11.3184 40.1281C11.3184 44.0906 14.5463 47.3012 18.5282 47.3012C22.5102 47.3012 25.7381 44.0906 25.7381 40.1281C25.7381 36.1673 22.5102 32.9551 18.5282 32.9551ZM15.6556 37.3061H19.8L19.1707 38.3085H15.0263L15.6556 37.3061ZM22.5799 42.3159L21.9497 41.3151H20.1102L20.7411 40.3126H21.3221L20.6197 39.1967L18.6603 42.3151H13.4336L14.6923 40.3118H13.7684L14.3969 39.3094H18.4379L17.8086 40.3134H15.8812L15.2511 41.3159H18.1015L20.6197 37.3061L23.7672 42.3167H22.5799V42.3159Z" fill="#FF4747"/>
</g>
</g>
</g>
<g clip-path="url(#clip3)">
<g clip-path="url(#clip4)">
<path d="M55.5044 56.7517C57.555 56.7517 59.0355 58.1088 59.0355 59.9282C59.0355 61.7632 57.555 63.1359 55.5044 63.1359H52.8825V67.5461H51.5254V56.7517H55.5044ZM57.6952 59.9282C57.6952 58.7712 56.8316 57.9699 55.5056 57.9699H52.8837V61.9489H55.5056C56.8004 61.9489 57.6952 61.1009 57.6952 59.9282Z" fill="#FF4747"/>
<path d="M49.1393 59.8504H47.0875L44.898 64.384L42.6617 59.8504H40.4722L43.7721 66.5748L41.5669 70.955H43.6954L49.1393 59.8504ZM35.9218 65.8968C34.7348 65.8968 33.7778 64.9865 33.7778 63.6917C33.7778 62.3957 34.7336 61.4866 35.9218 61.4866C37.1244 61.4866 38.0658 62.3969 38.0658 63.6917C38.0658 64.9865 37.1256 65.8968 35.9218 65.8968ZM35.5828 67.6552C36.5386 67.6552 37.4034 67.3006 38.0502 66.6993V67.5474H40.0086V59.8504H38.0502V60.6984C37.4334 60.0816 36.5854 59.727 35.6595 59.727C33.6544 59.727 31.8349 61.3931 31.8349 63.6905C31.8349 65.989 33.6244 67.6552 35.5828 67.6552ZM30.8168 56.1337L28.8585 56.7505V67.5462H30.8168V56.1337ZM24.0158 61.7944H21.5484V58.6478H24.0158C25.0339 58.6478 25.743 59.2958 25.743 60.2205C25.743 61.1464 25.0339 61.7944 24.0158 61.7944ZM19.4199 56.7505V67.5462H21.5484V63.6138H24.1703C26.2832 63.6138 27.8559 62.1489 27.8559 60.1594C27.8559 58.1855 26.3443 56.7505 24.247 56.7505H19.4199V56.7505Z" fill="#FF4747"/>
<path d="M67.9962 66.5137C66.5624 66.5137 65.4209 65.3722 65.4209 63.784C65.4209 62.1957 66.5624 61.0542 67.9962 61.0542C69.4299 61.0542 70.5714 62.1957 70.5714 63.784C70.5714 65.3722 69.4311 66.5137 67.9962 66.5137ZM67.9962 59.8816C65.8222 59.8816 64.1249 61.5321 64.1249 63.7828C64.1249 66.0346 65.821 67.6851 67.9962 67.6851C70.1713 67.6851 71.8674 66.0346 71.8674 63.7828C71.8674 61.5321 70.1713 59.8816 67.9962 59.8816ZM61.3341 60.0361H60.0381V67.5474H61.3341V63.1815C61.3341 61.84 62.5067 60.8374 63.9093 61.0997V59.866C62.7523 59.7115 61.8276 60.2361 61.3341 61.3309V60.0361Z" fill="#FF4747"/>
<g clip-path="url(#clip5)">
<path d="M7.17306 54.9551C3.21143 54.9551 0 58.1673 0 62.1281C0 66.0906 3.21143 69.3012 7.17306 69.3012C11.1347 69.3012 14.3461 66.0906 14.3461 62.1281C14.3461 58.1673 11.1347 54.9551 7.17306 54.9551ZM4.3151 59.3061H8.43837L7.81224 60.3085H3.68898L4.3151 59.3061ZM11.2041 64.3159L10.5771 63.3151H8.74694L9.37469 62.3126H9.95265L9.25388 61.1967L7.30449 64.3151H2.10449L3.35673 62.3118H2.43755L3.06286 61.3094H7.08326L6.45714 62.3134H4.53959L3.91265 63.3159H6.74857L9.25388 59.3061L12.3853 64.3167H11.2041V64.3159Z" fill="#FF4747"/>
</g>
</g>
</g>
<defs>
<clipPath id="clip0">
<rect x="11.3184" y="32.9551" width="49.2308" height="16" rx="4" fill="white"/>
</clipPath>
<clipPath id="clip1">
<rect width="49.2308" height="16" fill="white" transform="translate(11.3184 32.9551)"/>
</clipPath>
<clipPath id="clip2">
<rect width="14.441" height="14.3673" fill="white" transform="translate(11.3184 32.9551)"/>
</clipPath>
<clipPath id="clip3">
<rect y="54.9551" width="71.867" height="16" rx="4" fill="white"/>
</clipPath>
<clipPath id="clip4">
<rect width="71.867" height="16" fill="white" transform="translate(0 54.9551)"/>
</clipPath>
<clipPath id="clip5">
<rect width="14.3673" height="14.3673" fill="white" transform="translate(0 54.9551)"/>
</clipPath>
</defs>
</svg>
