<svg width="91" height="71" viewBox="0 0 91 71" fill="none" xmlns="http://www.w3.org/2000/svg">
<path d="M52.9673 35.2549C54.1455 35.2549 55.1006 34.2998 55.1006 33.1216C55.1006 31.9434 54.1455 30.9883 52.9673 30.9883C51.7891 30.9883 50.834 31.9434 50.834 33.1216C50.834 34.2998 51.7891 35.2549 52.9673 35.2549Z" fill="white"/>
<path d="M42.2993 35.2549C43.4776 35.2549 44.4327 34.2998 44.4327 33.1216C44.4327 31.9434 43.4776 30.9883 42.2993 30.9883C41.1211 30.9883 40.166 31.9434 40.166 33.1216C40.166 34.2998 41.1211 35.2549 42.2993 35.2549Z" fill="white"/>
<path d="M31.6328 9.65527H33.636C34.3453 9.65527 34.9704 10.1225 35.1709 10.8041L39.716 26.2579C39.9827 27.1646 40.8157 27.7886 41.7619 27.7886H53.4696C54.4317 27.7886 55.2744 27.1443 55.5283 26.2163L58.2995 16.0553H52.9661" stroke="white" stroke-width="2" stroke-miterlimit="10" stroke-linecap="round" stroke-linejoin="round"/>
<path d="M48.7001 16.0552V22.0136L51.146 19.5677C51.5631 19.1506 52.2372 19.1506 52.6543 19.5677C53.0713 19.9848 53.0713 20.6589 52.6543 21.076L48.3876 25.3426C48.1796 25.5506 47.9065 25.6552 47.6335 25.6552C47.3604 25.6552 47.0873 25.5506 46.8793 25.3426L42.6127 21.076C42.1956 20.6589 42.1956 19.9848 42.6127 19.5677C43.0297 19.1506 43.7039 19.1506 44.1209 19.5677L46.5668 22.0136V16.0552H36.9668L40.7001 27.7885H55.1001L58.3001 16.0552H48.7001Z" fill="white"/>
<path d="M48.6997 9.65505C48.6997 9.06625 48.2219 8.58838 47.6331 8.58838C47.0443 8.58838 46.5664 9.06625 46.5664 9.65505V14.9884H48.6997V9.65505Z" fill="white"/>
<path d="M48.6992 16.0552H54.0326" stroke="white" stroke-width="2" stroke-miterlimit="10" stroke-linejoin="round"/>
<path d="M36.9668 16.0552H46.5668" stroke="white" stroke-width="2" stroke-miterlimit="10" stroke-linejoin="round"/>
<path d="M14.988 57.6131C14.988 58.0237 14.904 58.4064 14.736 58.7611C14.5773 59.1064 14.3533 59.4051 14.064 59.6571C13.784 59.9091 13.448 60.1051 13.056 60.2451C12.664 60.3851 12.2393 60.4551 11.782 60.4551H7.008V50.6551H11.866C12.258 50.6551 12.622 50.7204 12.958 50.8511C13.3033 50.9817 13.5973 51.1637 13.84 51.3971C14.0827 51.6211 14.274 51.8964 14.414 52.2231C14.5633 52.5404 14.638 52.8904 14.638 53.2731C14.638 53.7117 14.5307 54.1131 14.316 54.4771C14.1013 54.8317 13.812 55.1211 13.448 55.3451C13.952 55.5504 14.3347 55.8537 14.596 56.2551C14.8573 56.6564 14.988 57.1091 14.988 57.6131ZM11.502 52.4331H9.066V54.6171H11.502C11.81 54.6171 12.0667 54.5191 12.272 54.3231C12.4773 54.1271 12.58 53.8751 12.58 53.5671C12.58 53.2311 12.4773 52.9604 12.272 52.7551C12.0667 52.5404 11.81 52.4331 11.502 52.4331ZM9.066 58.7191H11.614C11.9967 58.7191 12.3093 58.6024 12.552 58.3691C12.7947 58.1264 12.916 57.8184 12.916 57.4451C12.916 57.1091 12.7947 56.8337 12.552 56.6191C12.3093 56.3951 11.9967 56.2831 11.614 56.2831H9.066V58.7191ZM21.14 60.4551V59.3631C20.972 59.7271 20.7013 60.0257 20.328 60.2591C19.9547 60.4831 19.53 60.5951 19.054 60.5951C18.2607 60.5951 17.6447 60.3244 17.206 59.7831C16.7673 59.2417 16.548 58.5557 16.548 57.7251V53.2871H18.452V57.4871C18.452 57.9444 18.5733 58.3131 18.816 58.5931C19.068 58.8731 19.3947 59.0131 19.796 59.0131C20.216 59.0131 20.5427 58.8731 20.776 58.5931C21.0187 58.3131 21.14 57.9724 21.14 57.5711V53.2871H23.044V60.4551H21.14ZM31.7358 53.2871L26.9478 63.6051H24.9318L26.9338 59.4751L23.9658 53.2871H26.0378L27.9418 57.4171L29.8038 53.2871H31.7358ZM38.1607 60.4551H36.0607V50.6551H43.1027V52.4611H38.1607V54.6451H42.2347V56.4371H38.1607V60.4551ZM44.8381 50.6551H46.9381V60.4551H44.8381V50.6551ZM51.067 60.4551H48.967V50.6551H56.009V52.4611H51.067V54.6451H55.141V56.4371H51.067V60.4551ZM63.0841 60.4551L62.2301 58.5511H58.2961L57.4701 60.4551H55.3281L60.0881 50.4591H60.5081L65.2681 60.4551H63.0841ZM58.9961 56.9691H61.5161L60.2421 54.0991L58.9961 56.9691ZM69.1512 60.4551V60.0351L72.7492 55.9891C73.3185 55.3544 73.6732 54.8737 73.8132 54.5471C73.9532 54.2111 74.0232 53.8891 74.0232 53.5811C74.0232 53.1704 73.8878 52.8391 73.6172 52.5871C73.3465 52.3257 73.0292 52.1951 72.6652 52.1951C72.1612 52.1951 71.7458 52.3771 71.4192 52.7411C71.0925 53.0957 70.9012 53.5811 70.8452 54.1971H69.0672C69.0672 53.6277 69.1605 53.1191 69.3472 52.6711C69.5432 52.2137 69.8045 51.8264 70.1312 51.5091C70.4578 51.1917 70.8405 50.9491 71.2792 50.7811C71.7178 50.6131 72.1845 50.5291 72.6792 50.5291C73.1365 50.5291 73.5612 50.6037 73.9532 50.7531C74.3545 50.9024 74.6998 51.1124 74.9892 51.3831C75.2785 51.6444 75.5025 51.9617 75.6612 52.3351C75.8292 52.6991 75.9132 53.0957 75.9132 53.5251C75.9132 53.7677 75.8898 54.0011 75.8432 54.2251C75.8058 54.4491 75.7218 54.6871 75.5912 54.9391C75.4605 55.1911 75.2738 55.4804 75.0312 55.8071C74.7885 56.1244 74.4758 56.4977 74.0932 56.9271L72.4272 58.7891H76.1932V60.4551H69.1512ZM77.544 60.4551V58.7891H79.868V52.3211H77.544L78.188 50.6551H81.786V58.7891H84.11V60.4551H77.544Z" fill="white"/>
</svg>
