<svg width="343" height="100" viewBox="0 0 343 100" fill="none" xmlns="http://www.w3.org/2000/svg">
<path d="M7.952 16.284C7.952 16.732 7.86333 17.1333 7.686 17.488C7.518 17.8427 7.28 18.1413 6.972 18.384C6.67333 18.6267 6.314 18.8133 5.894 18.944C5.474 19.0653 5.02133 19.126 4.536 19.126C3.976 19.126 3.458 19.042 2.982 18.874C2.506 18.6967 2.09067 18.4587 1.736 18.16C1.39067 17.852 1.11533 17.4833 0.91 17.054C0.714 16.6247 0.606667 16.158 0.588 15.654H1.75C1.806 16.3633 2.09533 16.942 2.618 17.39C3.15 17.8287 3.794 18.048 4.55 18.048C4.83933 18.048 5.11467 18.0153 5.376 17.95C5.64667 17.8753 5.88 17.768 6.076 17.628C6.28133 17.488 6.44 17.3153 6.552 17.11C6.67333 16.8953 6.734 16.6527 6.734 16.382C6.734 16.1113 6.664 15.8873 6.524 15.71C6.384 15.5233 6.19733 15.3693 5.964 15.248C5.74 15.1267 5.474 15.024 5.166 14.94C4.86733 14.856 4.55467 14.7767 4.228 14.702C3.82667 14.6087 3.42067 14.506 3.01 14.394C2.60867 14.2727 2.24467 14.114 1.918 13.918C1.59133 13.7127 1.32533 13.4513 1.12 13.134C0.914667 12.8073 0.812 12.392 0.812 11.888C0.812 11.5147 0.882 11.16 1.022 10.824C1.17133 10.4787 1.38133 10.18 1.652 9.928C1.92267 9.66667 2.25867 9.46133 2.66 9.312C3.06133 9.15333 3.514 9.074 4.018 9.074C4.55 9.074 5.04467 9.158 5.502 9.326C5.95933 9.48467 6.356 9.70867 6.692 9.998C7.028 10.2873 7.294 10.6373 7.49 11.048C7.686 11.4493 7.798 11.8833 7.826 12.35H6.65C6.58467 11.6967 6.31867 11.1647 5.852 10.754C5.39467 10.3433 4.78333 10.138 4.018 10.138C3.39267 10.138 2.90267 10.3013 2.548 10.628C2.19333 10.9547 2.016 11.356 2.016 11.832C2.016 12.0933 2.07667 12.3173 2.198 12.504C2.32867 12.6907 2.49667 12.8447 2.702 12.966C2.90733 13.0873 3.15 13.1947 3.43 13.288C3.71 13.372 4.004 13.4467 4.312 13.512C4.72267 13.6147 5.14267 13.722 5.572 13.834C6.01067 13.946 6.40267 14.1 6.748 14.296C7.10267 14.4827 7.392 14.7347 7.616 15.052C7.84 15.3693 7.952 15.78 7.952 16.284ZM14.1286 19V17.614C13.9513 18.146 13.6666 18.5333 13.2746 18.776C12.892 19.0093 12.4813 19.126 12.0426 19.126C11.6506 19.126 11.3006 19.056 10.9926 18.916C10.6846 18.776 10.4233 18.5847 10.2086 18.342C9.99396 18.09 9.83063 17.796 9.71863 17.46C9.60663 17.124 9.55063 16.7647 9.55063 16.382V11.93H10.7266V16.27C10.7266 16.83 10.876 17.278 11.1746 17.614C11.4826 17.95 11.8746 18.118 12.3506 18.118C12.8733 18.118 13.298 17.9453 13.6246 17.6C13.9606 17.2453 14.1286 16.8113 14.1286 16.298V11.93H15.3046V19H14.1286ZM18.3275 19H17.1515V8.808L18.3275 8.346V13.092C18.6075 12.6907 18.9575 12.378 19.3775 12.154C19.8069 11.9207 20.2642 11.804 20.7495 11.804C21.1975 11.804 21.6175 11.8973 22.0095 12.084C22.4015 12.2707 22.7422 12.5273 23.0315 12.854C23.3209 13.1713 23.5495 13.554 23.7175 14.002C23.8855 14.4407 23.9695 14.9213 23.9695 15.444C23.9695 15.9667 23.8855 16.4567 23.7175 16.914C23.5495 17.362 23.3209 17.7493 23.0315 18.076C22.7422 18.3933 22.3969 18.6453 21.9955 18.832C21.6035 19.0187 21.1835 19.112 20.7355 19.112C20.2502 19.112 19.7929 18.9813 19.3635 18.72C18.9435 18.4587 18.5982 18.104 18.3275 17.656V19ZM20.5395 12.868C19.9235 12.868 19.3962 13.1107 18.9575 13.596C18.5189 14.0813 18.2995 14.6973 18.2995 15.444C18.2995 16.2 18.5189 16.8253 18.9575 17.32C19.3962 17.8053 19.9235 18.048 20.5395 18.048C21.1649 18.048 21.6969 17.8053 22.1355 17.32C22.5742 16.8253 22.7935 16.2 22.7935 15.444C22.7935 14.6973 22.5742 14.0813 22.1355 13.596C21.6969 13.1107 21.1649 12.868 20.5395 12.868ZM26.42 17.278V12.938H24.628V11.93H26.42V10.264L27.582 9.844V11.93H29.668V12.938H27.582V17.222C27.582 17.4647 27.6473 17.6513 27.778 17.782C27.9086 17.9033 28.1046 17.964 28.366 17.964H29.668V19H28.072C27.54 19 27.1293 18.8553 26.84 18.566C26.56 18.2673 26.42 17.838 26.42 17.278ZM34.0408 19.126C33.5648 19.126 33.1168 19.0327 32.6968 18.846C32.2768 18.6593 31.9128 18.4073 31.6048 18.09C31.2968 17.7633 31.0541 17.376 30.8768 16.928C30.6994 16.4707 30.6108 15.976 30.6108 15.444C30.6108 14.9213 30.6994 14.436 30.8768 13.988C31.0541 13.54 31.2968 13.1573 31.6048 12.84C31.9128 12.5133 32.2768 12.2567 32.6968 12.07C33.1168 11.8833 33.5648 11.79 34.0408 11.79C34.5168 11.79 34.9648 11.8833 35.3848 12.07C35.8048 12.2567 36.1641 12.5133 36.4628 12.84C36.7708 13.1573 37.0134 13.54 37.1908 13.988C37.3681 14.436 37.4568 14.9213 37.4568 15.444C37.4568 15.976 37.3681 16.4707 37.1908 16.928C37.0134 17.376 36.7708 17.7633 36.4628 18.09C36.1641 18.4073 35.8048 18.6593 35.3848 18.846C34.9648 19.0327 34.5168 19.126 34.0408 19.126ZM34.0408 18.076C34.6568 18.076 35.1841 17.8287 35.6228 17.334C36.0614 16.8393 36.2808 16.214 36.2808 15.458C36.2808 14.7113 36.0614 14.0907 35.6228 13.596C35.1841 13.092 34.6568 12.84 34.0408 12.84C33.4154 12.84 32.8834 13.092 32.4448 13.596C32.0061 14.0907 31.7868 14.7113 31.7868 15.458C31.7868 16.214 32.0061 16.8393 32.4448 17.334C32.8834 17.8287 33.4154 18.076 34.0408 18.076ZM39.9128 17.278V12.938H38.1208V11.93H39.9128V10.264L41.0748 9.844V11.93H43.1608V12.938H41.0748V17.222C41.0748 17.4647 41.1401 17.6513 41.2708 17.782C41.4015 17.9033 41.5975 17.964 41.8588 17.964H43.1608V19H41.5648C41.0328 19 40.6221 18.8553 40.3328 18.566C40.0528 18.2673 39.9128 17.838 39.9128 17.278ZM48.8323 19V17.768C48.6457 18.1787 48.347 18.51 47.9363 18.762C47.535 19.0047 47.059 19.126 46.5083 19.126C45.8363 19.126 45.281 18.9393 44.8423 18.566C44.413 18.1833 44.1983 17.698 44.1983 17.11C44.1983 16.55 44.4083 16.0973 44.8283 15.752C45.2483 15.3973 45.8223 15.192 46.5503 15.136L48.8323 14.968V14.604C48.8323 14.0907 48.6737 13.666 48.3563 13.33C48.0483 12.9847 47.661 12.812 47.1943 12.812C46.6997 12.812 46.3077 12.938 46.0183 13.19C45.7383 13.4327 45.5517 13.7733 45.4583 14.212H44.2963C44.371 13.5027 44.679 12.924 45.2203 12.476C45.7617 12.0187 46.4243 11.79 47.2083 11.79C48.0763 11.79 48.7577 12.056 49.2523 12.588C49.747 13.1107 49.9943 13.778 49.9943 14.59V19H48.8323ZM45.3603 17.11C45.3603 17.4087 45.4863 17.6607 45.7383 17.866C45.9903 18.062 46.3217 18.16 46.7323 18.16C47.3017 18.16 47.7917 17.9827 48.2023 17.628C48.6223 17.2733 48.8323 16.858 48.8323 16.382V15.878L46.7743 16.032C46.3357 16.0693 45.9903 16.1813 45.7383 16.368C45.4863 16.5453 45.3603 16.7927 45.3603 17.11ZM53.0235 8.346V19H51.8475V8.808L53.0235 8.346Z" fill="white"/>
<path d="M268.021 23.8H270.181V21.52C273.133 21.28 275.341 19.552 275.341 16.84C275.341 13.888 272.653 13.072 270.181 12.424V8.44C271.357 8.872 272.149 9.808 272.269 11.08H275.221C275.029 8.368 272.989 6.304 270.181 5.752V3.784H268.021V5.632C265.237 5.848 263.197 7.576 263.149 10.24C263.149 13.192 265.645 14.104 268.021 14.752V18.76C266.773 18.304 265.909 17.32 265.813 15.976H262.885C263.077 18.784 265.093 20.896 268.021 21.424V23.8ZM266.173 9.976C266.173 9.04 266.917 8.392 268.021 8.224V11.824C266.941 11.44 266.173 10.912 266.173 9.976ZM272.293 17.2C272.293 18.136 271.405 18.784 270.181 18.952V15.352C271.405 15.736 272.293 16.216 272.293 17.2ZM277.412 10.84C277.412 14.056 280.028 16.336 283.22 16.336C283.604 16.336 283.964 16.312 284.276 16.264L280.028 22.072H283.388L287.828 16.048C289.412 13.888 289.94 12.376 289.94 10.744C289.94 7.48 287.132 4.984 283.628 4.984C280.004 4.984 277.412 7.696 277.412 10.84ZM283.652 7.576C285.572 7.576 287.036 8.968 287.036 10.792C287.036 12.64 285.572 14.032 283.652 14.032C281.732 14.032 280.292 12.64 280.292 10.792C280.292 8.968 281.732 7.576 283.652 7.576ZM292.197 10.84C292.197 14.056 294.813 16.336 298.005 16.336C298.389 16.336 298.749 16.312 299.061 16.264L294.813 22.072H298.173L302.613 16.048C304.197 13.888 304.725 12.376 304.725 10.744C304.725 7.48 301.917 4.984 298.413 4.984C294.789 4.984 292.197 7.696 292.197 10.84ZM298.437 7.576C300.357 7.576 301.821 8.968 301.821 10.792C301.821 12.64 300.357 14.032 298.437 14.032C296.517 14.032 295.077 12.64 295.077 10.792C295.077 8.968 296.517 7.576 298.437 7.576ZM306.626 18.184C305.57 18.184 304.682 19.072 304.682 20.152C304.682 21.232 305.57 22.12 306.626 22.12C307.706 22.12 308.594 21.232 308.594 20.152C308.594 19.072 307.706 18.184 306.626 18.184ZM308.104 10.84C308.104 14.056 310.72 16.336 313.912 16.336C314.296 16.336 314.656 16.312 314.968 16.264L310.72 22.072H314.08L318.52 16.048C320.104 13.888 320.632 12.376 320.632 10.744C320.632 7.48 317.824 4.984 314.32 4.984C310.696 4.984 308.104 7.696 308.104 10.84ZM314.344 7.576C316.264 7.576 317.728 8.968 317.728 10.792C317.728 12.64 316.264 14.032 314.344 14.032C312.424 14.032 310.984 12.64 310.984 10.792C310.984 8.968 312.424 7.576 314.344 7.576ZM322.889 10.84C322.889 14.056 325.505 16.336 328.697 16.336C329.081 16.336 329.441 16.312 329.753 16.264L325.505 22.072H328.865L333.305 16.048C334.889 13.888 335.417 12.376 335.417 10.744C335.417 7.48 332.609 4.984 329.105 4.984C325.481 4.984 322.889 7.696 322.889 10.84ZM329.129 7.576C331.049 7.576 332.513 8.968 332.513 10.792C332.513 12.64 331.049 14.032 329.129 14.032C327.209 14.032 325.769 12.64 325.769 10.792C325.769 8.968 327.209 7.576 329.129 7.576Z" fill="white"/>
<path d="M4.816 59H3.57V50.292H0.322V49.2H8.064V50.292H4.816V59ZM12.6325 59V57.768C12.4458 58.1787 12.1472 58.51 11.7365 58.762C11.3352 59.0047 10.8592 59.126 10.3085 59.126C9.63648 59.126 9.08115 58.9393 8.64248 58.566C8.21315 58.1833 7.99848 57.698 7.99848 57.11C7.99848 56.55 8.20848 56.0973 8.62848 55.752C9.04848 55.3973 9.62248 55.192 10.3505 55.136L12.6325 54.968V54.604C12.6325 54.0907 12.4738 53.666 12.1565 53.33C11.8485 52.9847 11.4612 52.812 10.9945 52.812C10.4998 52.812 10.1078 52.938 9.81848 53.19C9.53848 53.4327 9.35182 53.7733 9.25848 54.212H8.09648C8.17115 53.5027 8.47915 52.924 9.02048 52.476C9.56182 52.0187 10.2245 51.79 11.0085 51.79C11.8765 51.79 12.5578 52.056 13.0525 52.588C13.5472 53.1107 13.7945 53.778 13.7945 54.59V59H12.6325ZM9.16048 57.11C9.16048 57.4087 9.28648 57.6607 9.53848 57.866C9.79048 58.062 10.1218 58.16 10.5325 58.16C11.1018 58.16 11.5918 57.9827 12.0025 57.628C12.4225 57.2733 12.6325 56.858 12.6325 56.382V55.878L10.5745 56.032C10.1358 56.0693 9.79048 56.1813 9.53848 56.368C9.28648 56.5453 9.16048 56.7927 9.16048 57.11ZM14.8776 59L17.5096 55.318L15.1016 51.93H16.5156L18.2096 54.38L19.8896 51.93H21.2056L18.8396 55.29L21.4856 59H20.0716L18.1396 56.2L16.1936 59H14.8776Z" fill="white"/>
<path d="M299.412 61.2H300.852V59.68C302.82 59.52 304.292 58.368 304.292 56.56C304.292 54.592 302.5 54.048 300.852 53.616V50.96C301.636 51.248 302.164 51.872 302.244 52.72H304.212C304.084 50.912 302.724 49.536 300.852 49.168V47.856H299.412V49.088C297.556 49.232 296.196 50.384 296.164 52.16C296.164 54.128 297.828 54.736 299.412 55.168V57.84C298.58 57.536 298.004 56.88 297.94 55.984H295.988C296.116 57.856 297.46 59.264 299.412 59.616V61.2ZM298.18 51.984C298.18 51.36 298.676 50.928 299.412 50.816V53.216C298.692 52.96 298.18 52.608 298.18 51.984ZM302.26 56.8C302.26 57.424 301.668 57.856 300.852 57.968V55.568C301.668 55.824 302.26 56.144 302.26 56.8ZM313.673 56.48C313.673 54.544 312.361 53.344 310.265 53.168L313.657 48.8H305.785V50.592H310.281L306.985 54.768H309.561C310.873 54.768 311.657 55.472 311.657 56.544C311.657 57.536 310.809 58.352 309.737 58.352C308.617 58.352 307.785 57.632 307.625 56.48H305.641C305.833 58.64 307.529 60.144 309.721 60.144C311.977 60.144 313.673 58.56 313.673 56.48ZM315.98 57.456C315.276 57.456 314.684 58.048 314.684 58.768C314.684 59.488 315.276 60.08 315.98 60.08C316.7 60.08 317.292 59.488 317.292 58.768C317.292 58.048 316.7 57.456 315.98 57.456ZM324.022 55.776C325.606 53.968 325.942 53.168 325.942 52.048C325.942 50.096 324.326 48.656 322.23 48.656C319.926 48.656 318.054 50.24 318.07 52.784H320.006C320.102 51.344 320.966 50.448 322.166 50.448C323.126 50.448 323.91 51.12 323.91 52.112C323.91 52.848 323.734 53.392 322.534 54.784L318.038 60H326.246V58.208H321.878L324.022 55.776ZM327.975 60H330.295L335.943 48.8H327.255V50.592H332.967L327.975 60Z" fill="white"/>
<path d="M7.392 95H1.008V85.2H7.392V86.292H2.24V89.456H6.188V90.548H2.24V93.908H7.392V95ZM10.2481 90.632V95H9.07211V87.93H10.2481V89.316C10.4254 88.784 10.7054 88.4013 11.0881 88.168C11.4801 87.9253 11.8954 87.804 12.3341 87.804C12.7261 87.804 13.0761 87.874 13.3841 88.014C13.6921 88.154 13.9534 88.35 14.1681 88.602C14.3828 88.8447 14.5461 89.134 14.6581 89.47C14.7701 89.806 14.8261 90.1653 14.8261 90.548V95H13.6501V90.66C13.6501 90.1 13.4961 89.652 13.1881 89.316C12.8894 88.98 12.5021 88.812 12.0261 88.812C11.5034 88.812 11.0741 88.9893 10.7381 89.344C10.4114 89.6893 10.2481 90.1187 10.2481 90.632ZM17.6843 93.278V88.938H15.8923V87.93H17.6843V86.264L18.8463 85.844V87.93H20.9323V88.938H18.8463V93.222C18.8463 93.4647 18.9116 93.6513 19.0423 93.782C19.173 93.9033 19.369 93.964 19.6303 93.964H20.9323V95H19.3363C18.8043 95 18.3936 94.8553 18.1043 94.566C17.8243 94.2673 17.6843 93.838 17.6843 93.278ZM25.3051 95.126C24.8291 95.126 24.3811 95.0327 23.9611 94.846C23.5411 94.6593 23.1771 94.4073 22.8691 94.09C22.5611 93.7633 22.3184 93.376 22.1411 92.928C21.9638 92.4707 21.8751 91.976 21.8751 91.444C21.8751 90.9213 21.9591 90.436 22.1271 89.988C22.3044 89.54 22.5424 89.1573 22.8411 88.84C23.1491 88.5133 23.5084 88.2567 23.9191 88.07C24.3298 87.8833 24.7684 87.79 25.2351 87.79C25.6831 87.79 26.1078 87.8833 26.5091 88.07C26.9104 88.2473 27.2604 88.504 27.5591 88.84C27.8578 89.176 28.0958 89.596 28.2731 90.1C28.4504 90.5947 28.5391 91.1547 28.5391 91.78V91.864H23.0791C23.1631 92.5173 23.4151 93.0493 23.8351 93.46C24.2551 93.8707 24.7451 94.076 25.3051 94.076C25.6598 94.076 25.9864 93.992 26.2851 93.824C26.5931 93.6467 26.8404 93.4133 27.0271 93.124H28.3431C28.0911 93.7307 27.6898 94.216 27.1391 94.58C26.5978 94.944 25.9864 95.126 25.3051 95.126ZM25.2211 88.854C24.6984 88.854 24.2364 89.0453 23.8351 89.428C23.4431 89.8107 23.1958 90.3007 23.0931 90.898H27.3071C27.2138 90.3007 26.9711 89.8107 26.5791 89.428C26.1871 89.0453 25.7344 88.854 25.2211 88.854ZM30.1248 95V87.93H31.3008V89.358C31.5248 88.7513 31.8655 88.3173 32.3228 88.056C32.7802 87.7853 33.3122 87.6827 33.9188 87.748V88.868C33.5642 88.8027 33.2282 88.812 32.9108 88.896C32.5935 88.98 32.3135 89.12 32.0708 89.316C31.8375 89.5027 31.6508 89.7407 31.5108 90.03C31.3708 90.3193 31.3008 90.632 31.3008 90.968V95H30.1248ZM38.5197 85.2H42.0617C42.5097 85.2 42.925 85.2747 43.3077 85.424C43.6904 85.564 44.017 85.7647 44.2877 86.026C44.5677 86.278 44.787 86.5813 44.9457 86.936C45.1044 87.2907 45.1837 87.6733 45.1837 88.084C45.1837 88.4947 45.1044 88.882 44.9457 89.246C44.787 89.6007 44.5677 89.9087 44.2877 90.17C44.017 90.422 43.6904 90.6227 43.3077 90.772C42.925 90.912 42.5097 90.982 42.0617 90.982H39.7517V95H38.5197V85.2ZM42.0477 89.918C42.6077 89.918 43.065 89.7453 43.4197 89.4C43.7744 89.0547 43.9517 88.616 43.9517 88.084C43.9517 87.552 43.779 87.1227 43.4337 86.796C43.0884 86.46 42.6264 86.292 42.0477 86.292H39.7517V89.918H42.0477ZM46.8162 95V87.93H47.9922V89.358C48.2162 88.7513 48.5569 88.3173 49.0142 88.056C49.4716 87.7853 50.0036 87.6827 50.6102 87.748V88.868C50.2556 88.8027 49.9196 88.812 49.6022 88.896C49.2849 88.98 49.0049 89.12 48.7622 89.316C48.5289 89.5027 48.3422 89.7407 48.2022 90.03C48.0622 90.3193 47.9922 90.632 47.9922 90.968V95H46.8162ZM54.6143 95.126C54.1383 95.126 53.6903 95.0327 53.2703 94.846C52.8503 94.6593 52.4863 94.4073 52.1783 94.09C51.8703 93.7633 51.6277 93.376 51.4503 92.928C51.273 92.4707 51.1843 91.976 51.1843 91.444C51.1843 90.9213 51.273 90.436 51.4503 89.988C51.6277 89.54 51.8703 89.1573 52.1783 88.84C52.4863 88.5133 52.8503 88.2567 53.2703 88.07C53.6903 87.8833 54.1383 87.79 54.6143 87.79C55.0903 87.79 55.5383 87.8833 55.9583 88.07C56.3783 88.2567 56.7377 88.5133 57.0363 88.84C57.3443 89.1573 57.587 89.54 57.7643 89.988C57.9417 90.436 58.0303 90.9213 58.0303 91.444C58.0303 91.976 57.9417 92.4707 57.7643 92.928C57.587 93.376 57.3443 93.7633 57.0363 94.09C56.7377 94.4073 56.3783 94.6593 55.9583 94.846C55.5383 95.0327 55.0903 95.126 54.6143 95.126ZM54.6143 94.076C55.2303 94.076 55.7577 93.8287 56.1963 93.334C56.635 92.8393 56.8543 92.214 56.8543 91.458C56.8543 90.7113 56.635 90.0907 56.1963 89.596C55.7577 89.092 55.2303 88.84 54.6143 88.84C53.989 88.84 53.457 89.092 53.0183 89.596C52.5797 90.0907 52.3603 90.7113 52.3603 91.458C52.3603 92.214 52.5797 92.8393 53.0183 93.334C53.457 93.8287 53.989 94.076 54.6143 94.076ZM59.6118 95V87.93H60.7878V89.316C60.9651 88.784 61.2451 88.4013 61.6278 88.168C62.0104 87.9347 62.4164 87.818 62.8458 87.818C63.3498 87.818 63.7791 87.9627 64.1338 88.252C64.4978 88.5413 64.7591 88.9193 64.9178 89.386C65.0951 88.882 65.3798 88.4947 65.7718 88.224C66.1731 87.9533 66.6118 87.818 67.0878 87.818C67.4611 87.818 67.7924 87.888 68.0818 88.028C68.3711 88.168 68.6138 88.364 68.8098 88.616C69.0058 88.8587 69.1551 89.148 69.2578 89.484C69.3604 89.8107 69.4118 90.1653 69.4118 90.548V95H68.2358V90.66C68.2358 90.128 68.0864 89.6893 67.7878 89.344C67.4984 88.9987 67.1204 88.826 66.6538 88.826C66.2244 88.826 65.8558 89.0033 65.5478 89.358C65.2491 89.7033 65.0998 90.128 65.0998 90.632V95H63.9238V90.66C63.9238 90.128 63.7744 89.6893 63.4758 89.344C63.1864 88.9987 62.8084 88.826 62.3418 88.826C61.9124 88.826 61.5438 89.0033 61.2358 89.358C60.9371 89.7033 60.7878 90.128 60.7878 90.632V95H59.6118ZM74.4236 95.126C73.9476 95.126 73.4996 95.0327 73.0796 94.846C72.6596 94.6593 72.2956 94.4073 71.9876 94.09C71.6796 93.7633 71.4369 93.376 71.2596 92.928C71.0822 92.4707 70.9936 91.976 70.9936 91.444C70.9936 90.9213 71.0822 90.436 71.2596 89.988C71.4369 89.54 71.6796 89.1573 71.9876 88.84C72.2956 88.5133 72.6596 88.2567 73.0796 88.07C73.4996 87.8833 73.9476 87.79 74.4236 87.79C74.8996 87.79 75.3476 87.8833 75.7676 88.07C76.1876 88.2567 76.5469 88.5133 76.8456 88.84C77.1536 89.1573 77.3962 89.54 77.5736 89.988C77.7509 90.436 77.8396 90.9213 77.8396 91.444C77.8396 91.976 77.7509 92.4707 77.5736 92.928C77.3962 93.376 77.1536 93.7633 76.8456 94.09C76.5469 94.4073 76.1876 94.6593 75.7676 94.846C75.3476 95.0327 74.8996 95.126 74.4236 95.126ZM74.4236 94.076C75.0396 94.076 75.5669 93.8287 76.0056 93.334C76.4442 92.8393 76.6636 92.214 76.6636 91.458C76.6636 90.7113 76.4442 90.0907 76.0056 89.596C75.5669 89.092 75.0396 88.84 74.4236 88.84C73.7982 88.84 73.2662 89.092 72.8276 89.596C72.3889 90.0907 72.1696 90.7113 72.1696 91.458C72.1696 92.214 72.3889 92.8393 72.8276 93.334C73.2662 93.8287 73.7982 94.076 74.4236 94.076ZM87.1852 94.02C87.9692 94.02 88.6739 93.7773 89.2992 93.292C89.9246 92.8067 90.3539 92.158 90.5872 91.346H91.8472C91.7166 91.9247 91.5019 92.452 91.2032 92.928C90.9139 93.3947 90.5639 93.7913 90.1532 94.118C89.7426 94.4447 89.2806 94.7013 88.7672 94.888C88.2632 95.0653 87.7359 95.154 87.1852 95.154C86.5319 95.154 85.9112 95.0327 85.3232 94.79C84.7352 94.538 84.2219 94.1927 83.7832 93.754C83.3446 93.306 82.9946 92.774 82.7332 92.158C82.4812 91.5327 82.3552 90.8467 82.3552 90.1C82.3552 89.3533 82.4812 88.672 82.7332 88.056C82.9946 87.4307 83.3446 86.8987 83.7832 86.46C84.2219 86.012 84.7352 85.6667 85.3232 85.424C85.9112 85.172 86.5319 85.046 87.1852 85.046C87.7359 85.046 88.2632 85.1393 88.7672 85.326C89.2806 85.5033 89.7426 85.7553 90.1532 86.082C90.5639 86.4087 90.9139 86.81 91.2032 87.286C91.5019 87.7527 91.7166 88.2753 91.8472 88.854H90.5872C90.3539 88.042 89.9246 87.3933 89.2992 86.908C88.6739 86.4227 87.9692 86.18 87.1852 86.18C86.6999 86.18 86.2379 86.278 85.7992 86.474C85.3606 86.6607 84.9779 86.9267 84.6512 87.272C84.3246 87.6173 84.0632 88.0327 83.8672 88.518C83.6806 88.994 83.5872 89.5213 83.5872 90.1C83.5872 90.6787 83.6806 91.2107 83.8672 91.696C84.0632 92.172 84.3246 92.5827 84.6512 92.928C84.9779 93.2733 85.3606 93.544 85.7992 93.74C86.2379 93.9267 86.6999 94.02 87.1852 94.02ZM96.611 95.126C96.135 95.126 95.687 95.0327 95.267 94.846C94.847 94.6593 94.483 94.4073 94.175 94.09C93.867 93.7633 93.6244 93.376 93.447 92.928C93.2697 92.4707 93.181 91.976 93.181 91.444C93.181 90.9213 93.2697 90.436 93.447 89.988C93.6244 89.54 93.867 89.1573 94.175 88.84C94.483 88.5133 94.847 88.2567 95.267 88.07C95.687 87.8833 96.135 87.79 96.611 87.79C97.087 87.79 97.535 87.8833 97.955 88.07C98.375 88.2567 98.7344 88.5133 99.033 88.84C99.341 89.1573 99.5837 89.54 99.761 89.988C99.9384 90.436 100.027 90.9213 100.027 91.444C100.027 91.976 99.9384 92.4707 99.761 92.928C99.5837 93.376 99.341 93.7633 99.033 94.09C98.7344 94.4073 98.375 94.6593 97.955 94.846C97.535 95.0327 97.087 95.126 96.611 95.126ZM96.611 94.076C97.227 94.076 97.7544 93.8287 98.193 93.334C98.6317 92.8393 98.851 92.214 98.851 91.458C98.851 90.7113 98.6317 90.0907 98.193 89.596C97.7544 89.092 97.227 88.84 96.611 88.84C95.9857 88.84 95.4537 89.092 95.015 89.596C94.5764 90.0907 94.357 90.7113 94.357 91.458C94.357 92.214 94.5764 92.8393 95.015 93.334C95.4537 93.8287 95.9857 94.076 96.611 94.076ZM104.563 95.112C104.115 95.112 103.695 95.0187 103.303 94.832C102.911 94.6453 102.57 94.3933 102.281 94.076C101.991 93.7493 101.763 93.362 101.595 92.914C101.427 92.4567 101.343 91.9667 101.343 91.444C101.343 90.9213 101.427 90.4407 101.595 90.002C101.763 89.554 101.991 89.1713 102.281 88.854C102.57 88.5273 102.911 88.2707 103.303 88.084C103.704 87.8973 104.129 87.804 104.577 87.804C105.062 87.804 105.515 87.9253 105.935 88.168C106.355 88.4013 106.705 88.7233 106.985 89.134V84.808L108.161 84.346V95H106.985V93.768C106.705 94.188 106.35 94.5193 105.921 94.762C105.501 94.9953 105.048 95.112 104.563 95.112ZM104.773 94.048C105.389 94.048 105.916 93.8053 106.355 93.32C106.793 92.8253 107.013 92.2 107.013 91.444C107.013 90.6973 106.793 90.0813 106.355 89.596C105.916 89.1107 105.389 88.868 104.773 88.868C104.147 88.868 103.615 89.1107 103.177 89.596C102.738 90.0813 102.519 90.6973 102.519 91.444C102.519 92.2 102.738 92.8253 103.177 93.32C103.615 93.8053 104.147 94.048 104.773 94.048ZM113.166 95.126C112.69 95.126 112.242 95.0327 111.822 94.846C111.402 94.6593 111.038 94.4073 110.73 94.09C110.422 93.7633 110.18 93.376 110.002 92.928C109.825 92.4707 109.736 91.976 109.736 91.444C109.736 90.9213 109.82 90.436 109.988 89.988C110.166 89.54 110.404 89.1573 110.702 88.84C111.01 88.5133 111.37 88.2567 111.78 88.07C112.191 87.8833 112.63 87.79 113.096 87.79C113.544 87.79 113.969 87.8833 114.37 88.07C114.772 88.2473 115.122 88.504 115.42 88.84C115.719 89.176 115.957 89.596 116.134 90.1C116.312 90.5947 116.4 91.1547 116.4 91.78V91.864H110.94C111.024 92.5173 111.276 93.0493 111.696 93.46C112.116 93.8707 112.606 94.076 113.166 94.076C113.521 94.076 113.848 93.992 114.146 93.824C114.454 93.6467 114.702 93.4133 114.888 93.124H116.204C115.952 93.7307 115.551 94.216 115 94.58C114.459 94.944 113.848 95.126 113.166 95.126ZM113.082 88.854C112.56 88.854 112.098 89.0453 111.696 89.428C111.304 89.8107 111.057 90.3007 110.954 90.898H115.168C115.075 90.3007 114.832 89.8107 114.44 89.428C114.048 89.0453 113.596 88.854 113.082 88.854Z" fill="#FF4747"/>
</svg>
