<svg width="24" height="24" viewBox="0 0 24 24" fill="none" xmlns="http://www.w3.org/2000/svg">
<circle cx="12" cy="12" r="12" fill="url(#paint0_linear)"/>
<path d="M9.43 15.6L12.8861 8.52558H11.7123L9.46912 13.3674L7.21289 8.52558H6L9.43 15.6Z" fill="white"/>
<path d="M12.9528 10.4233C12.9528 11.8326 14.1918 12.1535 15.2873 12.4326C16.1481 12.6419 16.9175 12.8372 16.9175 13.507C16.9175 14.107 16.3567 14.4558 15.6394 14.4558C14.7135 14.4558 14.0092 13.8558 13.957 12.9907H12.8876C12.9528 14.4279 14.0614 15.4465 15.6264 15.4465C16.9567 15.4465 18 14.6791 18 13.3954C18 11.986 16.6697 11.693 15.5612 11.414C14.7395 11.1907 14.0353 10.9814 14.0353 10.3395C14.0353 9.7814 14.4918 9.40465 15.2482 9.40465C16.135 9.40465 16.7741 9.94884 16.8393 10.7721H17.9217C17.8435 9.3907 16.7089 8.4 15.209 8.4C13.944 8.4 12.9659 9.19535 12.9528 10.4233Z" fill="white"/>
<defs>
<linearGradient id="paint0_linear" x1="12" y1="0" x2="12" y2="24" gradientUnits="userSpaceOnUse">
<stop stop-color="#E518FB"/>
<stop offset="1" stop-color="#7E42F5"/>
</linearGradient>
</defs>
</svg>
