<svg width="37" height="22" viewBox="0 0 37 22" fill="none" xmlns="http://www.w3.org/2000/svg">
<rect width="36.6667" height="22" rx="4" fill="white"/>
<path fill-rule="evenodd" clip-rule="evenodd" d="M15.2129 14.5005L16.3403 7.50665H18.1424L17.0151 14.5005H15.2129" fill="#26337A"/>
<path fill-rule="evenodd" clip-rule="evenodd" d="M23.552 7.67832C23.1957 7.53796 22.6353 7.38489 21.9372 7.38489C20.1555 7.38489 18.9013 8.33399 18.8909 9.69303C18.8795 10.6983 19.7859 11.259 20.4691 11.5931C21.1714 11.9356 21.4073 12.1548 21.4045 12.461C21.3997 12.9294 20.844 13.144 20.3258 13.144C19.6043 13.144 19.221 13.0384 18.6284 12.7773L18.3965 12.6659L18.1445 14.2314C18.5648 14.4262 19.3438 14.5953 20.1523 14.6042C22.0458 14.6042 23.2762 13.6666 23.2906 12.2153C23.2971 11.4181 22.8169 10.8139 21.7769 10.315C21.1471 9.9907 20.7606 9.77586 20.765 9.44762C20.7655 9.15697 21.0916 8.84577 21.7974 8.84577C22.3869 8.83627 22.8136 8.9724 23.1461 9.11452L23.3079 9.19447L23.552 7.67832" fill="#26337A"/>
<path fill-rule="evenodd" clip-rule="evenodd" d="M25.9519 12.0209C26.1012 11.6189 26.6698 10.066 26.6698 10.066C26.6593 10.0845 26.8183 9.66091 26.9093 9.39877L27.031 10.002C27.031 10.002 27.3768 11.6713 27.448 12.0209C27.1674 12.0209 26.3038 12.0209 25.9519 12.0209V12.0209ZM28.1752 7.51379H26.7824C26.3505 7.51379 26.0271 7.63753 25.8379 8.09354L23.1616 14.503H25.0544C25.0544 14.503 25.3632 13.6407 25.4333 13.4515C25.6398 13.4515 27.479 13.4551 27.7415 13.4551C27.7955 13.6992 27.961 14.503 27.961 14.503H29.6336L28.1752 7.51379V7.51379Z" fill="#26337A"/>
<path fill-rule="evenodd" clip-rule="evenodd" d="M13.7012 7.51251L11.9373 12.2806L11.7484 11.3114C11.4197 10.1947 10.3965 8.98424 9.25195 8.37774L10.8657 14.4944L12.7729 14.4932L15.6109 7.51251H13.7012" fill="#26337A"/>
<path fill-rule="evenodd" clip-rule="evenodd" d="M10.2997 7.50781H7.39354L7.36963 7.65272C9.63093 8.23206 11.1271 9.63045 11.7481 11.3114L11.1166 8.09789C11.0077 7.65469 10.691 7.52331 10.2997 7.50781" fill="#EC982D"/>
</svg>
