<svg width="109" height="72" viewBox="0 0 109 72" fill="none" xmlns="http://www.w3.org/2000/svg">
<path d="M18.94 4H16.3L13.46 12.06L9.64 3.5L5.82 12.06L2.98 4H0.1L5.4 18.6L9.52 9.36L13.64 18.6L18.94 4ZM28.5916 15.02H25.7716C25.3516 15.64 24.6316 15.94 23.8516 15.94C22.4916 15.94 21.3716 15.1 21.0316 13.84H28.7316C28.7316 13.7 28.7516 13.58 28.7516 13.46C28.7516 9.62 26.0316 7.8 23.5516 7.8C20.6916 7.8 18.3716 9.98 18.3716 13C18.3716 16 20.8116 18.2 23.8116 18.2C26.0316 18.2 27.8316 16.94 28.5916 15.02ZM23.5516 10.02C24.7316 10.02 25.7716 10.84 25.9916 12.02H21.0516C21.3916 10.8 22.3716 10.02 23.5516 10.02ZM32.6173 3.2L30.0773 4V18H32.6173V3.2ZM39.158 18.2C41.638 18.2 43.718 16.58 44.198 14.16H41.618C41.218 15.24 40.278 15.92 39.158 15.92C37.658 15.92 36.458 14.74 36.458 13.06C36.458 11.34 37.658 10.18 39.158 10.18C40.278 10.18 41.218 10.86 41.618 11.94H44.198C43.718 9.52 41.638 7.82 39.158 7.82C36.278 7.82 33.938 10 33.938 13.02C33.938 16.02 36.278 18.2 39.158 18.2ZM50.2922 7.82C47.3722 7.82 45.0122 10 45.0122 13.02C45.0122 16.02 47.3722 18.2 50.2922 18.2C53.2122 18.2 55.5722 16.02 55.5722 13.02C55.5722 10 53.2122 7.82 50.2922 7.82ZM50.2922 15.9C48.7522 15.9 47.5322 14.72 47.5322 13.04C47.5322 11.32 48.7522 10.16 50.2922 10.16C51.8322 10.16 53.0522 11.32 53.0522 13.04C53.0522 14.72 51.8322 15.9 50.2922 15.9ZM59.4338 8.02H56.8938V18H59.4338V11.98C59.4338 10.82 60.2938 9.9 61.4138 9.9C62.5738 9.9 63.3938 10.78 63.3938 12.08V18H65.9338V11.98C65.9338 10.82 66.7938 9.9 67.9138 9.9C69.0738 9.9 69.8938 10.78 69.8938 12.08V18H72.4338V11.88C72.4338 9.54 71.0938 7.82 68.7138 7.82C67.2538 7.82 65.9938 8.54 65.4338 9.62C64.8538 8.52 63.7938 7.82 62.3138 7.82C61.0738 7.82 59.9938 8.4 59.4338 9.3V8.02ZM83.9822 15.02H81.1622C80.7422 15.64 80.0222 15.94 79.2422 15.94C77.8822 15.94 76.7622 15.1 76.4222 13.84H84.1222C84.1222 13.7 84.1422 13.58 84.1422 13.46C84.1422 9.62 81.4222 7.8 78.9422 7.8C76.0822 7.8 73.7622 9.98 73.7622 13C73.7622 16 76.2022 18.2 79.2022 18.2C81.4222 18.2 83.2222 16.94 83.9822 15.02ZM78.9422 10.02C80.1222 10.02 81.1622 10.84 81.3822 12.02H76.4422C76.7822 10.8 77.7622 10.02 78.9422 10.02ZM91.5272 15.42C91.5272 16.96 92.6072 18 94.4472 18H96.9272V15.74H95.1672C94.3872 15.74 94.0272 15.38 94.0272 14.72V10.18H96.9272V8.02H94.0272V5.1L91.5272 5.9V8.02H89.2272V10.18H91.5272V15.42ZM102.48 7.82C99.5597 7.82 97.1997 10 97.1997 13.02C97.1997 16.02 99.5597 18.2 102.48 18.2C105.4 18.2 107.76 16.02 107.76 13.02C107.76 10 105.4 7.82 102.48 7.82ZM102.48 15.9C100.94 15.9 99.7197 14.72 99.7197 13.04C99.7197 11.32 100.94 10.16 102.48 10.16C104.02 10.16 105.24 11.32 105.24 13.04C105.24 14.72 104.02 15.9 102.48 15.9Z" fill="white"/>
<path d="M17.5652 38C9.12132 38 2.26172 44.8383 2.26172 53.2948C2.26172 61.7339 9.10391 68.5896 17.5652 68.5896C26.0092 68.5896 32.8688 61.7513 32.8688 53.2948C32.8688 44.8383 26.0266 38 17.5652 38ZM11.4717 47.2743H20.2638L18.9232 49.4145H10.1311L11.4717 47.2743ZM26.1659 57.9406L24.8253 55.8004H20.9254L22.266 53.6602H23.5021L22.0048 51.2764L17.8612 57.9406H6.77095L9.4347 53.6776H7.46736L8.80794 51.5374H17.3737L16.0332 53.6776H11.9592L10.6186 55.8178H16.6599L22.0048 47.2743L28.6903 57.958H26.1659V57.9406Z" fill="#FF4747"/>
<path d="M106.74 48.4056H102.388L97.739 58.0453L92.986 48.4056H88.3375L95.3538 62.6911L90.6705 72.0002H95.1971L106.74 48.4056ZM78.6401 61.2469C76.1156 61.2469 74.0786 59.3155 74.0786 56.5662C74.0786 53.817 76.1156 51.8856 78.6401 51.8856C81.1994 51.8856 83.2015 53.817 83.2015 56.5662C83.2015 59.3155 81.1994 61.2469 78.6401 61.2469ZM77.9088 64.9705C79.9458 64.9705 81.7739 64.2223 83.1493 62.9347V64.7443H87.3103V48.3882H83.1667V50.1978C81.8609 48.8928 80.0503 48.1271 78.0829 48.1271C73.8174 48.1271 69.9524 51.6594 69.9524 56.5488C69.9524 61.4383 73.7478 64.9705 77.9088 64.9705ZM67.7935 40.5059L63.6325 41.8109V64.7443H67.7935V40.5059ZM53.3257 52.5294H48.0852V45.8477H53.3257C55.4846 45.8477 56.9992 47.2223 56.9992 49.1886C56.9992 51.1548 55.4846 52.5294 53.3257 52.5294ZM43.5586 41.8109V64.7443H48.0852V56.3922H53.6565C58.1483 56.3922 61.4911 53.2776 61.4911 49.0494C61.4911 44.8559 58.2702 41.8109 53.8132 41.8109H43.5586Z" fill="#FF4747"/>
</svg>
