<svg width="153" height="72" viewBox="0 0 153 72" fill="none" xmlns="http://www.w3.org/2000/svg">
<path d="M40.94 4H38.3L35.46 12.06L31.64 3.5L27.82 12.06L24.98 4H22.1L27.4 18.6L31.52 9.36L35.64 18.6L40.94 4ZM50.5916 15.02H47.7716C47.3516 15.64 46.6316 15.94 45.8516 15.94C44.4916 15.94 43.3716 15.1 43.0316 13.84H50.7316C50.7316 13.7 50.7516 13.58 50.7516 13.46C50.7516 9.62 48.0316 7.8 45.5516 7.8C42.6916 7.8 40.3716 9.98 40.3716 13C40.3716 16 42.8116 18.2 45.8116 18.2C48.0316 18.2 49.8316 16.94 50.5916 15.02ZM45.5516 10.02C46.7316 10.02 47.7716 10.84 47.9916 12.02H43.0516C43.3916 10.8 44.3716 10.02 45.5516 10.02ZM54.6173 3.2L52.0773 4V18H54.6173V3.2ZM61.158 18.2C63.638 18.2 65.718 16.58 66.198 14.16H63.618C63.218 15.24 62.278 15.92 61.158 15.92C59.658 15.92 58.458 14.74 58.458 13.06C58.458 11.34 59.658 10.18 61.158 10.18C62.278 10.18 63.218 10.86 63.618 11.94H66.198C65.718 9.52 63.638 7.82 61.158 7.82C58.278 7.82 55.938 10 55.938 13.02C55.938 16.02 58.278 18.2 61.158 18.2ZM72.2922 7.82C69.3722 7.82 67.0122 10 67.0122 13.02C67.0122 16.02 69.3722 18.2 72.2922 18.2C75.2122 18.2 77.5722 16.02 77.5722 13.02C77.5722 10 75.2122 7.82 72.2922 7.82ZM72.2922 15.9C70.7522 15.9 69.5322 14.72 69.5322 13.04C69.5322 11.32 70.7522 10.16 72.2922 10.16C73.8322 10.16 75.0522 11.32 75.0522 13.04C75.0522 14.72 73.8322 15.9 72.2922 15.9ZM81.4338 8.02H78.8938V18H81.4338V11.98C81.4338 10.82 82.2938 9.9 83.4138 9.9C84.5738 9.9 85.3938 10.78 85.3938 12.08V18H87.9338V11.98C87.9338 10.82 88.7938 9.9 89.9138 9.9C91.0738 9.9 91.8938 10.78 91.8938 12.08V18H94.4338V11.88C94.4338 9.54 93.0938 7.82 90.7138 7.82C89.2538 7.82 87.9938 8.54 87.4338 9.62C86.8538 8.52 85.7938 7.82 84.3138 7.82C83.0738 7.82 81.9938 8.4 81.4338 9.3V8.02ZM105.982 15.02H103.162C102.742 15.64 102.022 15.94 101.242 15.94C99.8822 15.94 98.7622 15.1 98.4222 13.84H106.122C106.122 13.7 106.142 13.58 106.142 13.46C106.142 9.62 103.422 7.8 100.942 7.8C98.0822 7.8 95.7622 9.98 95.7622 13C95.7622 16 98.2022 18.2 101.202 18.2C103.422 18.2 105.222 16.94 105.982 15.02ZM100.942 10.02C102.122 10.02 103.162 10.84 103.382 12.02H98.4422C98.7822 10.8 99.7622 10.02 100.942 10.02ZM113.527 15.42C113.527 16.96 114.607 18 116.447 18H118.927V15.74H117.167C116.387 15.74 116.027 15.38 116.027 14.72V10.18H118.927V8.02H116.027V5.1L113.527 5.9V8.02H111.227V10.18H113.527V15.42ZM124.48 7.82C121.56 7.82 119.2 10 119.2 13.02C119.2 16.02 121.56 18.2 124.48 18.2C127.4 18.2 129.76 16.02 129.76 13.02C129.76 10 127.4 7.82 124.48 7.82ZM124.48 15.9C122.94 15.9 121.72 14.72 121.72 13.04C121.72 11.32 122.94 10.16 124.48 10.16C126.02 10.16 127.24 11.32 127.24 13.04C127.24 14.72 126.02 15.9 124.48 15.9Z" fill="white"/>
<mask id="mask0" mask-type="alpha" maskUnits="userSpaceOnUse" x="0" y="38" width="31" height="31">
<path d="M0.117188 38.252H30.7081V68.5595H0.117188V38.252Z" fill="white"/>
</mask>
<g mask="url(#mask0)">
<path fill-rule="evenodd" clip-rule="evenodd" d="M24.0082 58.0275L22.6717 55.9137H18.7696L20.1081 53.7963H21.341L19.8508 51.4391L15.6943 58.0275H4.60482L7.27505 53.7963H5.31432L6.64701 51.679H15.219L13.8856 53.7963H9.79737L8.46085 55.9137H14.5088L19.8508 47.443L26.5277 58.0275H24.0082ZM9.31801 47.443H18.111L16.7745 49.5614H7.98251L9.31801 47.443ZM15.412 38.252C6.96523 38.252 0.117188 45.0373 0.117188 53.4062C0.117188 61.7772 6.96523 68.5596 15.412 68.5596C23.8588 68.5596 30.7081 61.7772 30.7081 53.4062C30.7081 45.0373 23.8588 38.252 15.412 38.252Z" fill="#FF4747"/>
</g>
<path fill-rule="evenodd" clip-rule="evenodd" d="M122.738 48.7249C122.738 46.2898 120.903 44.6012 118.085 44.6012H112.513V52.9786H118.085C120.838 52.9786 122.738 51.1929 122.738 48.7249ZM118.085 42.0361C122.444 42.0361 125.59 44.8935 125.59 48.7249C125.59 52.5889 122.444 55.4788 118.085 55.4788H112.513V64.7654H109.629V42.0361H118.085Z" fill="#FF4747"/>
<mask id="mask1" mask-type="alpha" maskUnits="userSpaceOnUse" x="41" y="40" width="64" height="32">
<path d="M41.3906 40.7344H104.555V71.9429H41.3906V40.7344Z" fill="white"/>
</mask>
<g mask="url(#mask1)">
<path fill-rule="evenodd" clip-rule="evenodd" d="M41.3906 42.0328V64.7656H45.9144V56.4843H51.487C55.9772 56.4843 59.3208 53.3994 59.3208 49.2101C59.3208 45.0531 56.1083 42.0328 51.6507 42.0328H41.3906ZM51.1591 52.6526H45.9144V46.0277H51.1591C53.3225 46.0277 54.8304 47.3916 54.8304 49.3403C54.8304 51.2886 53.3225 52.6526 51.1591 52.6526ZM65.6139 40.7344L61.4513 42.0328V64.7656H65.6139V40.7344ZM75.7421 64.9934C77.7749 64.9934 79.6106 64.2463 80.9871 62.9794V64.7656H85.1499V48.5609H80.9871V50.3464C79.6758 49.0477 77.8729 48.3009 75.9065 48.3009C71.6455 48.3009 67.7772 51.808 67.7772 56.6467C67.7772 61.4853 71.5796 64.9934 75.7421 64.9934ZM76.4636 61.2908C73.94 61.2908 71.9072 59.3745 71.9072 56.6467C71.9072 53.9188 73.94 52.0027 76.4636 52.0027C79.0202 52.0027 81.0197 53.9188 81.0197 56.6467C81.0197 59.3745 79.0202 61.2908 76.4636 61.2908ZM104.555 48.5609H100.195L95.5403 58.1083L90.7877 48.5609H86.1336L93.1481 62.7194L88.4604 71.9429H92.9841L104.555 48.5609Z" fill="#FF4747"/>
</g>
<path fill-rule="evenodd" clip-rule="evenodd" d="M130.474 48.9499H127.721V64.7654H130.474V55.5749C130.474 52.7493 132.966 50.6385 135.948 51.1909V48.5928C133.49 48.2682 131.523 49.3721 130.474 51.6776V48.9499ZM144.634 48.6253C140.013 48.6253 136.407 52.1001 136.407 56.841C136.407 61.5829 140.013 65.0577 144.634 65.0577C149.257 65.0577 152.862 61.5829 152.862 56.841C152.862 52.1001 149.257 48.6253 144.634 48.6253ZM144.634 62.5898C141.586 62.5898 139.16 60.1867 139.16 56.841C139.16 53.4964 141.586 51.0932 144.634 51.0932C147.683 51.0932 150.108 53.4964 150.108 56.841C150.108 60.1867 147.683 62.5898 144.634 62.5898Z" fill="#FF4747"/>
</svg>
