<svg width="100" height="62" viewBox="0 0 100 62" fill="none" xmlns="http://www.w3.org/2000/svg">
<path fill-rule="evenodd" clip-rule="evenodd" d="M42.2422 2.2613C45.3209 2.10001 49.3209 4.48598 49.6169 4.54463C49.6622 4.5513 50.2889 4.27404 51.0116 3.91948C55.1342 1.9134 57.0769 2.25463 57.9409 2.29329C53.8182 -0.241971 48.0889 -0.932437 42.8489 1.53884C41.3396 2.25463 41.3009 2.30662 42.2422 2.2613ZM65.3996 12.8595C64.3102 7.69971 61.0449 4.45399 60.5862 4.45399C60.1156 4.45399 59.0249 4.87387 58.2649 5.35106C56.7609 6.28679 55.6182 7.37581 54.1142 8.75674C56.8502 12.1944 60.7102 17.7488 62.0449 21.8063C62.4836 23.1419 62.6702 24.4575 62.5222 25.1799C62.4129 25.7278 62.4129 25.7278 62.6116 25.4772C63.0062 24.9787 63.8969 23.4578 64.2516 22.67C64.7289 21.625 65.2182 20.0774 65.4516 18.8831C65.7289 17.4315 65.7036 14.3164 65.3996 12.8595ZM45.2942 8.7634C43.3796 7.02791 41.5462 5.28708 39.7196 4.67393C38.7396 4.34469 38.6676 4.36468 37.8689 5.19644C35.9849 7.1572 34.4156 10.3376 33.9782 13.0915C33.6289 15.2975 33.5836 15.9173 33.7062 16.9943C34.0676 20.252 34.8236 22.5021 36.3196 24.7934C36.9329 25.7344 37.1009 25.9091 36.9196 25.4305C36.6489 24.7214 36.8996 23.0126 37.5329 21.3037C38.4556 18.7871 41.0102 14.0205 45.2942 8.7634ZM56.9929 20.0135C59.8516 23.5151 61.1662 26.3849 60.5022 27.6699C59.9929 28.6429 56.8436 30.5464 54.5276 31.2755C52.6182 31.8753 50.1142 32.1339 48.0489 31.9326C45.5849 31.6954 43.0889 30.8103 40.9449 29.4187C39.1462 28.2444 38.7396 27.7592 38.7396 26.7995C38.7396 24.8694 40.8622 21.489 44.4942 17.6328C46.5596 15.4455 49.4316 12.8782 49.7462 12.9502C50.3529 13.0848 55.1862 17.7941 56.9929 20.0135Z" fill="white"/>
<path d="M52.3821 45.3539H54.4494L49.0595 52.6473L54.9663 60.6658H52.8989L48.0258 54.0281L43.1527 60.6658H41.1592L46.9921 52.6473L41.676 45.3539H43.6696L48.0258 51.3036L52.3821 45.3539Z" fill="white"/>
<path d="M35.4073 45C31.1071 45 28.1006 48.2901 28.1006 52.9963C28.1006 57.7136 31.1064 61 35.4073 61C39.7045 61 42.7014 57.7121 42.7014 52.9963C42.7014 48.2864 39.7045 45 35.4073 45V45ZM35.4073 59.383C32.1305 59.383 29.8357 56.7567 29.8357 52.9978C29.8357 49.2411 32.1305 46.6155 35.4073 46.6155C38.6789 46.6155 40.9619 49.2411 40.9619 52.9978C40.9619 56.7575 38.6782 59.383 35.4073 59.383" fill="white"/>
<path d="M1 60.6658H3.01569L7.90354 54.0281L12.7914 60.6658H14.8071L8.91508 52.6473L14.2902 45.3539H12.2746L7.89616 51.3036L3.52515 45.3539H1.51684L6.88463 52.6473L1 60.6658Z" fill="white"/>
<path d="M26.0003 53.2236C25.6809 52.9514 25.3341 52.7409 24.9976 52.5851C26.1088 51.982 26.8376 50.8419 26.8376 49.5195C26.8376 48.5397 26.4763 45.3545 21.8604 45.3545H15.6427V51.9553H13.5709C13.3013 52.3054 12.6923 53.1463 12.459 53.4918H15.6427V60.6649L21.8604 60.6656C25.2287 60.6656 27.3212 58.9549 27.3212 56.1957C27.3212 54.9899 26.8655 53.9651 26.0003 53.2238V53.2236ZM17.3616 46.9515H21.8604C23.0786 46.9515 25.1172 47.2547 25.1172 49.3851C25.1172 50.9955 23.9292 51.9553 21.8604 51.9553H17.3616V46.9515V46.9515ZM21.8604 59.0678H17.3616V53.4933H21.8604C23.5667 53.4933 25.6067 53.9645 25.6067 56.1617C25.6067 58.6883 23.2603 59.0678 21.8604 59.0678Z" fill="white"/>
<path d="M85.5905 60.6524V45.3553H83.8923V57.9205L74.6628 45.3457L73.1123 45.3435V60.645H74.8105V48.3515L83.8923 60.6524H85.5905Z" fill="#6B6B6B"/>
<path d="M64.274 45C59.9724 45 56.9658 48.2901 56.9658 52.9963C56.9658 57.7136 59.9724 61 64.274 61C68.5712 61 71.5681 57.7107 71.5681 52.9963C71.5681 48.2864 68.5712 45 64.274 45V45ZM64.274 59.383C60.9979 59.383 58.7002 56.7567 58.7002 52.997C58.7002 49.2403 60.9972 46.614 64.274 46.614C67.5464 46.614 69.8286 49.2403 69.8286 52.997C69.8287 56.7567 67.5456 59.383 64.274 59.383Z" fill="#6B6B6B"/>
<path d="M87.5098 45.345V60.6524H98.2897V59.1536H89.208V53.4978H97.6252V51.999H89.208V46.8416H98.2159V45.345H87.5098Z" fill="#6B6B6B"/>
</svg>
