<svg width="40" height="40" viewBox="0 0 40 40" fill="none" xmlns="http://www.w3.org/2000/svg">
<path fill-rule="evenodd" clip-rule="evenodd" d="M10.7471 2.82662C14.5955 2.62501 19.5955 5.60748 19.9655 5.68079C20.0221 5.68912 20.8055 5.34255 21.7088 4.89935C26.8621 2.39175 29.2905 2.81829 30.3705 2.86661C25.2171 -0.302464 18.0555 -1.16555 11.5055 1.92355C9.61879 2.81829 9.57046 2.88327 10.7471 2.82662ZM39.6938 16.0744C38.3321 9.62464 34.2505 5.56749 33.6771 5.56749C33.0888 5.56749 31.7255 6.09233 30.7755 6.68883C28.8955 7.85849 27.4671 9.21975 25.5871 10.9459C29.0071 15.243 33.8321 22.186 35.5005 27.2578C36.0488 28.9273 36.2821 30.5719 36.0971 31.4749C35.9605 32.1597 35.9605 32.1597 36.2088 31.8465C36.7021 31.2233 37.8155 29.3222 38.2588 28.3375C38.8555 27.0312 39.4671 25.0968 39.7588 23.6039C40.1055 21.7894 40.0738 17.8956 39.6938 16.0744ZM14.5621 10.9542C12.1688 8.78488 9.87712 6.60885 7.59379 5.84241C6.36879 5.43086 6.27879 5.45585 5.28046 6.49555C2.92546 8.9465 0.963791 12.922 0.417124 16.3643C-0.0195426 19.1219 -0.0762093 19.8966 0.077124 21.2429C0.528791 25.3151 1.47379 28.1276 3.34379 30.9917C4.11046 32.1681 4.32046 32.3863 4.09379 31.7882C3.75546 30.9018 4.06879 28.7657 4.86046 26.6297C6.01379 23.4839 9.20712 17.5257 14.5621 10.9542ZM29.1855 25.0168C32.7588 29.3939 34.4021 32.9811 33.5721 34.5873C32.9355 35.8037 28.9988 38.183 26.1038 39.0944C23.7171 39.8441 20.5871 40.1674 18.0055 39.9158C14.9255 39.6192 11.8055 38.5129 9.12546 36.7734C6.87712 35.3055 6.36879 34.699 6.36879 33.4993C6.36879 31.0867 9.02212 26.8613 13.5621 22.041C16.1438 19.3068 19.7338 16.0977 20.1271 16.1877C20.8855 16.356 26.9271 22.2426 29.1855 25.0168Z" fill="white"/>
</svg>
