<svg width="65" height="76" viewBox="0 0 65 76" fill="none" xmlns="http://www.w3.org/2000/svg">
<path fill-rule="evenodd" clip-rule="evenodd" d="M24.961 2.2613C28.0396 2.10001 32.0396 4.48598 32.3356 4.54463C32.381 4.5513 33.0076 4.27404 33.7303 3.91948C37.853 1.9134 39.7956 2.25463 40.6596 2.29329C36.537 -0.241971 30.8076 -0.932436 25.5676 1.53884C24.0583 2.25463 24.0196 2.30662 24.961 2.2613ZM48.1183 12.8595C47.029 7.69971 43.7636 4.45399 43.305 4.45399C42.8343 4.45399 41.7436 4.87387 40.9836 5.35106C39.4796 6.28679 38.337 7.3758 36.833 8.75673C39.569 12.1944 43.429 17.7488 44.7636 21.8063C45.2023 23.1419 45.389 24.4575 45.241 25.1799C45.1316 25.7278 45.1316 25.7278 45.3303 25.4772C45.725 24.9787 46.6156 23.4578 46.9703 22.67C47.4476 21.625 47.937 20.0774 48.1703 18.8831C48.4476 17.4315 48.4223 14.3164 48.1183 12.8595ZM28.013 8.7634C26.0983 7.02791 24.265 5.28708 22.4383 4.67393C21.4583 4.34469 21.3863 4.36468 20.5876 5.19644C18.7036 7.1572 17.1343 10.3376 16.697 13.0915C16.3476 15.2975 16.3023 15.9173 16.425 16.9943C16.7863 20.252 17.5423 22.5021 19.0383 24.7934C19.6516 25.7344 19.8196 25.9091 19.6383 25.4305C19.3676 24.7214 19.6183 23.0126 20.2516 21.3037C21.1743 18.7871 23.729 14.0205 28.013 8.7634ZM39.7116 20.0134C42.5703 23.5151 43.885 26.3849 43.221 27.6699C42.7116 28.6429 39.5623 30.5464 37.2463 31.2755C35.337 31.8753 32.833 32.1339 30.7676 31.9326C28.3036 31.6954 25.8076 30.8103 23.6636 29.4187C21.865 28.2444 21.4583 27.7592 21.4583 26.7995C21.4583 24.8694 23.581 21.489 27.213 17.6328C29.2783 15.4454 32.1503 12.8782 32.465 12.9502C33.0716 13.0848 37.905 17.7941 39.7116 20.0134Z" fill="white"/>
<path d="M41.1434 44C39.8735 44 38.6764 44.2174 37.6605 44.6165C36.6083 45.0519 35.7013 45.6684 34.9394 46.5029C34.1412 47.3373 33.5605 48.3538 33.1614 49.4422C32.7623 50.5307 32.5811 51.8002 32.5811 53.1427C32.5811 54.4851 32.7623 55.7546 33.1614 56.8431C33.5605 57.9315 34.1412 58.9111 34.9394 59.7456C35.7376 60.5801 36.6446 61.1973 37.6605 61.6327C38.6764 62.0318 39.8735 62.2492 41.1434 62.2492C42.4495 62.2492 43.6104 62.068 44.6262 61.6327C45.6421 61.2336 46.5492 60.5801 47.3474 59.7456C48.1093 58.9111 48.6901 57.9315 49.0892 56.8431C49.4883 55.7546 49.6695 54.4851 49.6695 53.1427C49.6695 51.764 49.452 50.5307 49.0892 49.4422C48.7263 48.3538 48.1093 47.3373 47.3474 46.5029C46.5854 45.6684 45.6421 45.0156 44.6262 44.6165C43.5741 44.2174 42.4132 44 41.1434 44ZM0.544223 44.399L6.60295 52.7798L0 61.8864H2.9748L8.1272 54.8115L13.2427 61.8864H16.2175L9.6146 52.7798L15.7102 44.399H12.7347L8.1272 50.7482L3.51902 44.399H0.544223ZM17.6327 44.399V51.8367H15.3474L13.7147 54.0858H17.6327V61.8864H25.796C27.6826 61.8864 29.1339 61.415 30.1498 60.5442C31.1657 59.6735 31.674 58.4399 31.674 56.9161C31.674 55.9728 31.4196 55.1019 30.8754 54.4125C30.3675 53.7232 29.642 53.1427 28.6624 52.7798C30.1862 51.9454 30.9484 50.6392 30.9484 48.9703C30.9484 47.6279 30.4766 46.5033 29.5333 45.6688C28.59 44.8343 27.2471 44.399 25.4693 44.399H17.6327ZM49.0162 44.399L55.1117 52.7798L48.5081 61.8864H51.4836L56.5991 54.8115L61.7508 61.8864H64.7263L58.0865 52.7798L64.1821 44.399H61.2066L56.5991 50.7482L51.9917 44.399H49.0162ZM41.1434 46.3944C42.8849 46.3944 44.2997 47.0112 45.3519 48.2085C46.404 49.4058 46.9123 51.0746 46.9123 53.1427C46.9123 55.2107 46.404 56.8434 45.3519 58.0407C44.2997 59.2379 42.8849 59.8547 41.1434 59.8547C39.3656 59.8547 37.987 59.2379 36.9349 58.0407C35.8827 56.8434 35.3383 55.2107 35.3383 53.1427C35.3383 51.0746 35.8827 49.4421 36.9349 48.2085C37.987 47.0112 39.4019 46.3944 41.1434 46.3944ZM20.2815 46.6843H25.2879C26.2675 46.6843 27.0299 46.9022 27.5378 47.3376C28.082 47.773 28.3357 48.3898 28.3357 49.1517C28.3357 50.0587 28.0819 50.7479 27.5739 51.1833C27.066 51.655 26.3038 51.8728 25.2879 51.8728H20.2815V46.6843ZM20.2815 54.0858H25.6876C26.776 54.0858 27.6101 54.3037 28.1543 54.7753C28.6985 55.2107 28.9891 55.936 28.9891 56.8431C28.9891 57.7138 28.6987 58.4037 28.1182 58.8754C27.5377 59.3108 26.7029 59.5642 25.6507 59.5642H20.2815V54.0858ZM7.43771 68.7076C6.6758 68.7076 6.05901 68.8891 5.62363 69.2156C5.18825 69.5422 4.97028 70.0134 4.97028 70.5939C4.97028 71.1744 5.15169 71.6102 5.5145 71.9368C5.87732 72.2633 6.42154 72.5173 7.14717 72.6624L7.72824 72.8069C8.30875 72.9521 8.74356 73.0976 8.96125 73.2427C9.17894 73.4242 9.28792 73.642 9.28792 73.9322C9.28792 74.2951 9.14294 74.5847 8.88897 74.8024C8.59872 74.9838 8.19934 75.093 7.69139 75.093C7.07461 75.093 6.60352 74.948 6.27698 74.694C5.95045 74.44 5.80504 74.0405 5.80504 73.5326H4.78887C4.78887 74.3308 5.04327 74.9481 5.58749 75.3835C6.09543 75.8189 6.82121 76 7.72824 76C8.56272 76 9.25207 75.8186 9.72373 75.4558C10.1954 75.093 10.4494 74.549 10.4494 73.9322C10.4494 73.388 10.2679 72.9521 9.90513 72.6255C9.54232 72.299 8.96153 72.045 8.16334 71.8999L7.54684 71.7553C6.96633 71.6465 6.56695 71.4647 6.34926 71.3195C6.13157 71.1744 6.02259 70.9204 6.02259 70.5939C6.02259 70.2674 6.13143 70.0497 6.3854 69.8683C6.63937 69.6869 6.96605 69.6146 7.43771 69.6146C8.01821 69.6146 8.45359 69.7236 8.70756 69.9413C8.96153 70.159 9.10637 70.4852 9.14265 70.9206H10.2311C10.2311 70.2312 9.97713 69.687 9.50547 69.2879C9.03381 68.8888 8.34474 68.7076 7.43771 68.7076ZM45.0252 68.7076C44.2633 68.7076 43.6465 68.8891 43.2111 69.2156C42.7757 69.5422 42.5585 70.0134 42.5585 70.5939C42.5585 71.1744 42.7399 71.6102 43.1027 71.9368C43.4655 72.2633 44.0097 72.5173 44.7354 72.6624L45.3157 72.8069C45.8962 72.9521 46.3318 73.0976 46.5494 73.2427C46.7671 73.4242 46.8754 73.642 46.8754 73.9322C46.8754 74.2951 46.7304 74.5847 46.4765 74.8024C46.1862 74.9838 45.7875 75.093 45.2796 75.093C44.6628 75.093 44.191 74.948 43.8645 74.694C43.5379 74.44 43.3925 74.0405 43.3925 73.5326H42.3402C42.3402 74.3308 42.5946 74.9481 43.1388 75.3835C43.6468 75.8189 44.3726 76 45.2796 76C46.1141 76 46.8034 75.8186 47.2751 75.4558C47.7467 75.093 48.0007 74.549 48.0007 73.9322C48.0733 73.388 47.8916 72.9521 47.5288 72.6255C47.166 72.299 46.5852 72.045 45.787 71.8999L45.1705 71.7553C44.59 71.6465 44.1906 71.4647 43.9729 71.3195C43.7552 71.1744 43.6469 70.9204 43.6469 70.5939C43.6469 70.2674 43.7558 70.0497 44.0097 69.8683C44.2637 69.6869 44.5897 69.6146 45.0613 69.6146C45.6418 69.6146 46.0772 69.7236 46.3312 69.9413C46.5852 70.159 46.7307 70.4852 46.767 70.9206H47.8193C47.8193 70.2312 47.5653 69.687 47.0937 69.2879C46.622 68.8888 45.9322 68.7076 45.0252 68.7076ZM13.315 68.889V75.8909H18.286V74.9116H14.3673V72.7708H17.8502V71.8638H14.3673V69.8321H18.286V68.889H13.315ZM21.3338 68.889V75.8909H22.3854V73.0252H24.4177C24.8168 73.0252 25.1065 73.1336 25.2879 73.315C25.4693 73.4964 25.5785 73.8228 25.5785 74.2582L25.6146 75.0207C25.6146 75.4198 25.687 75.71 25.8321 75.9277H26.9206C26.8117 75.6737 26.7393 75.3835 26.703 75.0207L26.6308 73.9322C26.6308 73.5331 26.5215 73.2423 26.3764 72.9883C26.2312 72.7707 25.9773 72.5897 25.6507 72.5171C26.0136 72.4083 26.3041 72.1902 26.4855 71.8999C26.7032 71.6097 26.8122 71.2468 26.8122 70.8115C26.8122 70.1947 26.5942 69.7236 26.1588 69.397C25.7234 69.0705 25.1428 68.889 24.3809 68.889H21.3338ZM29.9684 68.889V75.8909H31.0207V68.889H29.9684ZM34.5397 68.889V75.8909H39.5468V74.9116H35.592V72.7708H39.0749V71.8638H35.592V69.8321H39.5468V68.889H34.5397ZM53.5875 68.889L56.0188 72.2266L53.3699 75.8909H54.5675L56.5991 73.0613L58.6669 75.8909H59.8645L57.2156 72.2266L59.6469 68.889H58.4494L56.5991 71.4287L54.7851 68.889H53.5875ZM22.4584 69.796H24.3447C24.7801 69.796 25.1432 69.9044 25.3609 70.0858C25.5786 70.2672 25.7237 70.5578 25.7237 70.9206C25.7237 71.2834 25.6147 71.6101 25.397 71.7915C25.1794 72.0092 24.853 72.1182 24.4539 72.1182H22.4584V69.796Z" fill="white"/>
</svg>
